<?xml version="1.0" encoding="utf-8"?>
<!-- Generator: Adobe Illustrator 15.0.2, SVG Export Plug-In . SVG Version: 6.00 Build 0)  -->
<!DOCTYPE svg PUBLIC "-//W3C//DTD SVG 1.1//EN" "http://www.w3.org/Graphics/SVG/1.1/DTD/svg11.dtd">
<svg version="1.1" id="Layer_1" xmlns="http://www.w3.org/2000/svg" xmlns:xlink="http://www.w3.org/1999/xlink" x="0px" y="0px"
	 width="80px" height="40px" viewBox="0 0 80 40" enable-background="new 0 0 80 40" xml:space="preserve">
<g>
	<g>
		<g enable-background="new    ">
			<g>
				<path fill="#8E8E8E" d="M10.43,3.103h59.139H10.43z"/>
			</g>
			<g enable-background="new    ">
				<defs>
					<path id="SVGID_1_" enable-background="new    " d="M75.194,31.264c0,3.114-2.521,5.635-5.625,5.635
						C72.673,36.898,75.194,34.378,75.194,31.264z"/>
				</defs>
				<clipPath id="SVGID_2_">
					<use xlink:href="#SVGID_1_"  overflow="visible"/>
				</clipPath>
				<g clip-path="url(#SVGID_2_)" enable-background="new    ">
					<path fill="#949494" d="M75.194,31.264c0,0.253-0.017,0.502-0.049,0.746C75.177,31.766,75.194,31.517,75.194,31.264"/>
					<path fill="#8F8F8F" d="M75.145,32.01c-0.039,0.294-0.101,0.582-0.183,0.86C75.044,32.592,75.106,32.304,75.145,32.01"/>
					<path fill="#8A8A8A" d="M74.962,32.87c-0.098,0.329-0.225,0.646-0.378,0.947C74.738,33.517,74.865,33.199,74.962,32.87"/>
					<path fill="#858585" d="M74.584,33.817c-0.93,1.829-2.828,3.081-5.016,3.081C71.756,36.898,73.655,35.646,74.584,33.817"/>
				</g>
			</g>
			<g enable-background="new    ">
				<defs>
					<path id="SVGID_3_" enable-background="new    " d="M71.194,31.264c2.21,0,4,0,4,0c0,3.114-2.521,5.635-5.625,5.635
						c0,0,0-1.791,0-4C70.458,32.902,71.196,32.167,71.194,31.264z"/>
				</defs>
				<clipPath id="SVGID_4_">
					<use xlink:href="#SVGID_3_"  overflow="visible"/>
				</clipPath>
				<g clip-path="url(#SVGID_4_)" enable-background="new    ">
					<path fill="#FFFFFF" d="M71.194,31.264c2.21,0,4,0,4,0c0,3.114-2.521,5.635-5.625,5.635c0,0,0-1.791,0-4
						C70.458,32.902,71.196,32.167,71.194,31.264"/>
					<path fill="#FFFFFF" d="M69.569,32.898c0.889,0.004,1.627-0.731,1.625-1.635c0.249,0,0.492,0,0.728,0
						c0.023,0.019,0.055,0.043,0.078,0.062c0.079,0.021,0.245,0.066,0.389-0.062c1.626,0,2.806,0,2.806,0
						c0,3.114-2.521,5.635-5.625,5.635C69.569,36.898,69.569,35.107,69.569,32.898"/>
					<path fill="#FFFFFF" d="M69.569,32.898c0.889,0.004,1.627-0.731,1.625-1.635c0.208,0,0.413,0,0.612,0
						c0.019,0.026,0.043,0.062,0.062,0.088c0.231,0.18,0.356,0.162,0.637-0.088c1.565,0,2.689,0,2.689,0
						c0,3.114-2.521,5.635-5.625,5.635C69.569,36.898,69.569,35.107,69.569,32.898"/>
					<path fill="#FFFFFF" d="M69.569,32.898c0.889,0.004,1.627-0.731,1.625-1.635c0.177,0,0.352,0,0.522,0
						c0.006,0.014,0.014,0.031,0.02,0.045c0.114,0.182,0.353,0.559,0.861-0.045c1.517,0,2.597,0,2.597,0
						c0,3.114-2.521,5.635-5.625,5.635C69.569,36.898,69.569,35.107,69.569,32.898"/>
					<path fill="#FFFFFF" d="M69.569,32.898c0.889,0.004,1.627-0.731,1.625-1.635c0.151,0,0.3,0,0.446,0
						c0.013,0.033,0.03,0.076,0.043,0.109c0.259,0.651,0.783,0.208,0.997-0.109c1.474,0,2.514,0,2.514,0
						c0,3.114-2.521,5.635-5.625,5.635C69.569,36.898,69.569,35.107,69.569,32.898"/>
					<path fill="#FFFFFF" d="M69.569,32.898c0.889,0.004,1.627-0.731,1.625-1.635c0.127,0,0.252,0,0.375,0
						c0.009,0.031,0.021,0.073,0.028,0.105c0.353,1.122,1.153-0.092,1.161-0.105c1.432,0,2.436,0,2.436,0
						c0,3.114-2.521,5.635-5.625,5.635C69.569,36.898,69.569,35.107,69.569,32.898"/>
					<path fill="#FFFFFF" d="M69.569,32.898c0.889,0.004,1.627-0.731,1.625-1.635c0.104,0,0.207,0,0.309,0
						c0.007,0.03,0.016,0.071,0.022,0.102c0.254,1.318,1.201,0.076,1.211,0.063c0.032-0.048,0.068-0.115,0.099-0.164
						c1.391,0,2.359,0,2.359,0c0,3.114-2.521,5.635-5.625,5.635C69.569,36.898,69.569,35.107,69.569,32.898"/>
					<path fill="#FFFFFF" d="M69.569,32.898c0.889,0.004,1.627-0.731,1.625-1.635c0.082,0,0.163,0,0.244,0
						c0.004,0.029,0.011,0.068,0.015,0.098c0.183,1.567,1.275,0.198,1.286,0.184c0.083-0.113,0.122-0.188,0.171-0.281
						c1.351,0,2.284,0,2.284,0c0,3.114-2.521,5.635-5.625,5.635C69.569,36.898,69.569,35.107,69.569,32.898"/>
					<path fill="#FFFFFF" d="M69.569,32.898c0.889,0.004,1.627-0.731,1.625-1.635c0.061,0,0.121,0,0.182,0
						c0.003,0.028,0.007,0.065,0.01,0.094c0.052,0.788,0.052,0.788,0.286,0.845c0.207,0.05,0.686-0.081,1.053-0.521
						c0.122-0.146,0.163-0.226,0.262-0.417c1.31,0,2.208,0,2.208,0c0,3.114-2.521,5.635-5.625,5.635
						C69.569,36.898,69.569,35.107,69.569,32.898"/>
					<path fill="#FFFFFF" d="M69.569,32.898c0.889,0.004,1.627-0.731,1.625-1.635c0.04,0,0.079,0,0.119,0
						c0.002,0.027,0.004,0.063,0.005,0.091c0.012,0.915,0.012,0.915,0.148,0.961c0.292,0.099,0.811-0.04,1.236-0.496
						c0.185-0.196,0.271-0.371,0.363-0.556c1.266,0,2.128,0,2.128,0c0,3.114-2.521,5.635-5.625,5.635
						C69.569,36.898,69.569,35.107,69.569,32.898"/>
					<path fill="#FFFFFF" d="M69.569,32.898c0.889,0.004,1.627-0.731,1.625-1.635c0.019,0,0.038,0,0.057,0
						c0.001,0.026,0.001,0.062,0.002,0.087c-0.01,0.291-0.136,0.563-0.142,0.854c-0.002,0.106-0.003,0.183,0.12,0.235
						c0.263,0.113,0.903,0.039,1.443-0.479c0.274-0.263,0.405-0.546,0.476-0.698c1.22,0,2.044,0,2.044,0
						c0,3.114-2.521,5.635-5.625,5.635C69.569,36.898,69.569,35.107,69.569,32.898"/>
					<path fill="#FFFFFF" d="M69.569,32.905c0.077-0.079,0.165-0.005,0.247-0.017c0.195-0.029,0.195-0.029,0.744-0.283
						c0.023-0.011,0.053-0.031,0.078-0.031c0.364-0.008,0.728,0.082,1.092,0.006c0.239-0.05,1.058-0.292,1.51-1.316
						c1.17,0,1.954,0,1.954,0c0,3.114-2.521,5.635-5.625,5.635C69.569,36.898,69.569,35.111,69.569,32.905"/>
					<path fill="#FAFAFA" d="M69.569,32.98c0.112-0.108,0.231,0.005,0.347-0.011c0.238-0.031,0.471-0.093,0.709-0.127
						c1.392-0.195,2.158-0.304,2.716-1.579c1.114,0,1.854,0,1.854,0c0,3.114-2.521,5.635-5.625,5.635
						C69.569,36.898,69.569,35.152,69.569,32.98"/>
					<path fill="#F5F5F5" d="M69.569,33.057c0.021-0.019,0.064,0.005,0.092,0.007c0.176,0.014,0.42-0.011,0.551-0.024
						c0.009-0.001,0.869-0.089,1.286-0.177c0.912-0.193,1.57-0.731,1.956-1.599c1.051,0,1.74,0,1.74,0
						c0,3.114-2.521,5.635-5.625,5.635C69.569,36.898,69.569,35.192,69.569,33.057"/>
					<path fill="#F0F0F0" d="M69.569,33.133c0.021-0.02,0.067,0.008,0.096,0.011c0.485,0.057,2.954,0.23,3.922-1.88
						c0.976,0,1.607,0,1.607,0c0,3.114-2.521,5.635-5.625,5.635C69.569,36.898,69.569,35.233,69.569,33.133"/>
					<path fill="#EBEBEB" d="M69.569,33.212c0.023-0.02,0.07,0.011,0.1,0.015c0.162,0.025,1.537,0.084,2.514-0.372
						c0.993-0.464,1.359-1.197,1.557-1.591c0.889,0,1.455,0,1.455,0c0,3.114-2.521,5.635-5.625,5.635
						C69.569,36.898,69.569,35.274,69.569,33.212"/>
					<path fill="#E5E5E5" d="M69.569,33.294c0.017-0.015,0.052,0.009,0.073,0.013c0.031,0.005,3.084,0.5,4.266-2.043
						c0.791,0,1.286,0,1.286,0c0,3.114-2.521,5.635-5.625,5.635C69.569,36.898,69.569,35.317,69.569,33.294"/>
					<path fill="#E0E0E0" d="M69.569,33.382c0.025-0.021,0.076,0.015,0.109,0.021c0.839,0.159,3.45,0.108,4.399-2.139
						c0.691,0,1.116,0,1.116,0c0,3.114-2.521,5.635-5.625,5.635C69.569,36.898,69.569,35.363,69.569,33.382"/>
					<path fill="#DBDBDB" d="M69.569,33.475c0.027-0.022,0.08,0.017,0.114,0.024c1.208,0.259,3.782-0.13,4.55-2.235
						c0.6,0,0.961,0,0.961,0c0,3.114-2.521,5.635-5.625,5.635C69.569,36.898,69.569,35.411,69.569,33.475"/>
					<path fill="#D6D6D6" d="M69.569,33.573c0.028-0.022,0.083,0.02,0.119,0.028c1.253,0.294,4.004-0.099,4.684-2.338
						c0.516,0,0.822,0,0.822,0c0,3.114-2.521,5.635-5.625,5.635C69.569,36.898,69.569,35.461,69.569,33.573"/>
					<path fill="#D1D1D1" d="M69.569,33.685c0.021-0.017,0.059,0.013,0.083,0.019c0.216,0.051,0.441,0.07,0.563,0.082
						c0.003,0,0.294,0.023,0.601,0.012c0.894-0.036,3.04-0.354,3.679-2.533c0.441,0,0.7,0,0.7,0c0,3.114-2.521,5.635-5.625,5.635
						C69.569,36.898,69.569,35.518,69.569,33.685"/>
					<path fill="#CCCCCC" d="M69.569,33.805c0.027-0.022,0.08,0.019,0.115,0.027c1.276,0.303,4.287,0.076,4.919-2.568
						c0.375,0,0.591,0,0.591,0c0,3.114-2.521,5.635-5.625,5.635C69.569,36.898,69.569,35.577,69.569,33.805"/>
					<path fill="#C7C7C7" d="M69.569,33.937c0.023-0.019,0.067,0.017,0.097,0.023c1.08,0.271,4.322,0.354,5.034-2.696
						c0.315,0,0.494,0,0.494,0c0,3.114-2.521,5.635-5.625,5.635C69.569,36.898,69.569,35.643,69.569,33.937"/>
					<path fill="#C2C2C2" d="M69.569,34.079c0.009-0.007,0.023,0.006,0.034,0.009c1.849,0.496,4.68-0.053,5.184-2.824
						c0.261,0,0.407,0,0.407,0c0,3.114-2.521,5.635-5.625,5.635C69.569,36.898,69.569,35.712,69.569,34.079"/>
					<path fill="#BDBDBD" d="M69.569,34.232c0.038-0.029,0.107,0.027,0.154,0.04c1.437,0.374,4.583,0.132,5.142-3.009
						c0.212,0,0.329,0,0.329,0c0,3.114-2.521,5.635-5.625,5.635C69.569,36.898,69.569,35.785,69.569,34.232"/>
					<path fill="#B8B8B8" d="M69.569,34.392c0.04-0.031,0.113,0.029,0.162,0.042c2.229,0.573,4.853-0.476,5.203-3.17
						c0.168,0,0.26,0,0.26,0c0,3.114-2.521,5.635-5.625,5.635C69.569,36.898,69.569,35.861,69.569,34.392"/>
					<path fill="#B2B2B2" d="M69.569,34.554c0.019-0.014,0.052,0.014,0.073,0.02c2.34,0.626,4.981-0.44,5.354-3.31
						c0.129,0,0.198,0,0.198,0c0,3.114-2.521,5.635-5.625,5.635C69.569,36.898,69.569,35.938,69.569,34.554"/>
					<path fill="#ADADAD" d="M69.569,34.718c0.044-0.034,0.126,0.032,0.18,0.046c1.969,0.495,4.916-0.264,5.301-3.5
						c0.095,0,0.145,0,0.145,0c0,3.114-2.521,5.635-5.625,5.635C69.569,36.898,69.569,36.013,69.569,34.718"/>
					<path fill="#A8A8A8" d="M69.569,34.883c0.031-0.024,0.09,0.022,0.128,0.032c2.389,0.603,5.132-0.622,5.399-3.651
						c0.063,0,0.098,0,0.098,0c0,3.114-2.521,5.635-5.625,5.635C69.569,36.898,69.569,36.087,69.569,34.883"/>
					<path fill="#A3A3A3" d="M69.569,35.049c0.048-0.037,0.138,0.033,0.196,0.047c1.998,0.478,5.086-0.411,5.369-3.832
						c0.039,0,0.06,0,0.06,0c0,3.114-2.521,5.635-5.625,5.635C69.569,36.898,69.569,36.161,69.569,35.049"/>
					<path fill="#9E9E9E" d="M69.569,35.217c0.022-0.018,0.064,0.016,0.092,0.022c2.508,0.606,5.326-0.741,5.504-3.976
						c0.02,0,0.029,0,0.029,0c0,3.114-2.521,5.635-5.625,5.635C69.569,36.898,69.569,36.234,69.569,35.217"/>
					<path fill="#999999" d="M69.569,35.389c0.051-0.041,0.149,0.032,0.214,0.047c2.507,0.546,5.342-1.033,5.402-4.172
						c0.009,3.114-2.512,5.635-5.616,5.635C69.569,36.898,69.569,36.309,69.569,35.389"/>
					<path fill="#949494" d="M69.569,35.565c0.053-0.043,0.156,0.032,0.224,0.047c2.11,0.439,5.287-0.638,5.401-4.349
						c0,3.114-2.521,5.635-5.625,5.635C69.569,36.898,69.569,36.384,69.569,35.565"/>
					<path fill="#8F8F8F" d="M69.569,35.751c0.055-0.045,0.163,0.032,0.232,0.045c2.295,0.446,4.921-0.849,5.344-3.787
						c-0.364,2.762-2.724,4.89-5.576,4.89C69.569,36.898,69.569,36.461,69.569,35.751"/>
					<path fill="#8A8A8A" d="M69.569,35.952c0.039-0.032,0.116,0.021,0.165,0.03c2.014,0.369,4.457-0.582,5.229-3.115
						c-0.689,2.332-2.845,4.031-5.394,4.031C69.569,36.898,69.569,36.542,69.569,35.952"/>
					<path fill="#858585" d="M69.569,36.184c0.041-0.035,0.124,0.021,0.178,0.028c1.518,0.245,3.695-0.235,4.838-2.395
						c-0.931,1.829-2.828,3.081-5.016,3.081C69.569,36.898,69.569,36.635,69.569,36.184"/>
				</g>
			</g>
			<g enable-background="new    ">
				<defs>
					<path id="SVGID_5_" enable-background="new    " d="M69.569,32.898c0,2.209,0,4,0,4H10.43c0,0,0-1.791,0-4H69.569z"/>
				</defs>
				<clipPath id="SVGID_6_">
					<use xlink:href="#SVGID_5_"  overflow="visible"/>
				</clipPath>
				<g clip-path="url(#SVGID_6_)" enable-background="new    ">
					<polyline fill="#FFFFFF" points="10.43,32.898 69.569,32.898 69.569,32.905 10.43,32.905 10.43,32.898 					"/>
					<path fill="#FFFFFF" d="M10.43,32.905h59.139c0,0.026,0,0.052,0,0.077H10.43C10.43,32.957,10.43,32.932,10.43,32.905"/>
					<path fill="#FAFAFA" d="M10.43,32.982h59.139c0,0.026,0,0.052,0,0.077H10.43C10.43,33.034,10.43,33.009,10.43,32.982"/>
					<path fill="#F5F5F5" d="M10.43,33.06h59.139c0,0.025,0,0.052,0,0.077H10.43C10.43,33.111,10.43,33.085,10.43,33.06"/>
					<path fill="#F0F0F0" d="M10.43,33.137h59.139c0,0.025,0,0.051,0,0.076H10.43C10.43,33.188,10.43,33.162,10.43,33.137"/>
					<path fill="#EBEBEB" d="M10.43,33.213h59.139c0,0.029,0,0.059,0,0.088H10.43C10.43,33.271,10.43,33.242,10.43,33.213"/>
					<path fill="#E5E5E5" d="M10.43,33.301h59.139c0,0.03,0,0.061,0,0.091H10.43C10.43,33.361,10.43,33.331,10.43,33.301"/>
					<path fill="#E0E0E0" d="M10.43,33.392h59.139c0,0.03,0,0.06,0,0.09H10.43C10.43,33.451,10.43,33.422,10.43,33.392"/>
					<path fill="#DBDBDB" d="M10.43,33.481h59.139c0,0.032,0,0.064,0,0.097H10.43C10.43,33.546,10.43,33.514,10.43,33.481"/>
					<path fill="#D6D6D6" d="M10.43,33.578h59.139c0,0.039,0,0.078,0,0.117H10.43C10.43,33.656,10.43,33.617,10.43,33.578"/>
					<path fill="#D1D1D1" d="M10.43,33.695h59.139c0,0.038,0,0.077,0,0.115H10.43C10.43,33.772,10.43,33.733,10.43,33.695"/>
					<path fill="#CCCCCC" d="M10.43,33.811h59.139c0,0.044,0,0.088,0,0.132H10.43C10.43,33.898,10.43,33.854,10.43,33.811"/>
					<path fill="#C7C7C7" d="M10.43,33.942h59.139c0,0.048,0,0.096,0,0.143H10.43C10.43,34.038,10.43,33.99,10.43,33.942"/>
					<path fill="#C2C2C2" d="M10.43,34.085h59.139c0,0.051,0,0.101,0,0.15H10.43C10.43,34.186,10.43,34.136,10.43,34.085"/>
					<path fill="#BDBDBD" d="M10.43,34.235h59.139c0,0.054,0,0.106,0,0.159H10.43C10.43,34.342,10.43,34.289,10.43,34.235"/>
					<path fill="#B8B8B8" d="M10.43,34.395h59.139c0,0.055,0,0.108,0,0.162H10.43C10.43,34.503,10.43,34.449,10.43,34.395"/>
					<path fill="#B2B2B2" d="M10.43,34.557h59.139c0,0.055,0,0.109,0,0.162H10.43C10.43,34.666,10.43,34.611,10.43,34.557"/>
					<path fill="#ADADAD" d="M10.43,34.719h59.139c0,0.057,0,0.112,0,0.167H10.43C10.43,34.831,10.43,34.775,10.43,34.719"/>
					<path fill="#A8A8A8" d="M10.43,34.886h59.139c0,0.056,0,0.111,0,0.165H10.43C10.43,34.997,10.43,34.941,10.43,34.886"/>
					<path fill="#A3A3A3" d="M10.43,35.051h59.139c0,0.057,0,0.113,0,0.168H10.43C10.43,35.164,10.43,35.107,10.43,35.051"/>
					<path fill="#9E9E9E" d="M10.43,35.219h59.139c0,0.059,0,0.116,0,0.173H10.43C10.43,35.335,10.43,35.277,10.43,35.219"/>
					<path fill="#999999" d="M10.43,35.392h59.139c0,0.061,0,0.119,0,0.177H10.43C10.43,35.511,10.43,35.452,10.43,35.392"/>
					<path fill="#949494" d="M10.43,35.568h59.139c0,0.063,0,0.125,0,0.185H10.43C10.43,35.693,10.43,35.632,10.43,35.568"/>
					<path fill="#8F8F8F" d="M10.43,35.753h59.139c0,0.069,0,0.136,0,0.2H10.43C10.43,35.889,10.43,35.822,10.43,35.753"/>
					<path fill="#8A8A8A" d="M10.43,35.953h59.139c0,0.084,0,0.162,0,0.236H10.43C10.43,36.115,10.43,36.037,10.43,35.953"/>
					<path fill="#858585" d="M10.43,36.189h59.139c0,0.447,0,0.709,0,0.709H10.43C10.43,36.898,10.43,36.637,10.43,36.189"/>
				</g>
			</g>
			<g enable-background="new    ">
				<defs>
					<path id="SVGID_7_" enable-background="new    " d="M69.569,7.103c0-2.209,0-4,0-4c3.104,0,5.625,2.52,5.625,5.634
						c0,0-1.79,0-4,0C71.196,7.834,70.458,7.1,69.569,7.103z"/>
				</defs>
				<clipPath id="SVGID_8_">
					<use xlink:href="#SVGID_7_"  overflow="visible"/>
				</clipPath>
				<g clip-path="url(#SVGID_8_)" enable-background="new    ">
					<path fill="#FFFFFF" d="M69.569,7.103c0-2.209,0-4,0-4c3.104,0,5.625,2.52,5.625,5.634c0,0-1.79,0-4,0
						C71.196,7.834,70.458,7.1,69.569,7.103"/>
					<path fill="#FFFFFF" d="M72.381,8.737c1.077-1.104-0.113-3.021-1.518-3.046c-0.646-0.011-1.192,0.38-0.846,0.78
						c0.348,0.401,0.859,0.613,1.189,1.035c0.295,0.378,0.404,0.865,0.719,1.231c-0.237,0-0.482,0-0.732,0
						c0.002-0.903-0.736-1.638-1.625-1.634c0-2.209,0-4,0-4c3.104,0,5.625,2.52,5.625,5.634C75.194,8.737,74.011,8.737,72.381,8.737
						"/>
					<path fill="#FFFFFF" d="M72.5,8.737c1.047-1.429-0.452-3.321-1.978-3.078c-0.248,0.04-1.187,0.431-0.444,0.961
						c1.086,0.774,1.086,0.774,1.731,2.117c-0.2,0-0.406,0-0.615,0c0.002-0.903-0.736-1.638-1.625-1.634c0-2.209,0-4,0-4
						c3.104,0,5.625,2.52,5.625,5.634C75.194,8.737,74.068,8.737,72.5,8.737"/>
					<path fill="#FFFFFF" d="M72.593,8.737c0.941-1.295-0.438-3.409-2.051-3.142c-0.574,0.095-1.228,0.566-0.648,0.989
						c0.225,0.164,0.482,0.274,0.704,0.441c0.195,0.147,0.336,0.279,0.484,0.455c0.168,0.198,0.392,0.521,0.634,1.257
						c-0.171,0-0.346,0-0.522,0c0.002-0.903-0.736-1.638-1.625-1.634c0-2.209,0-4,0-4c3.104,0,5.625,2.52,5.625,5.634
						C75.194,8.737,74.112,8.737,72.593,8.737"/>
					<path fill="#FFFFFF" d="M72.678,8.737c0.952-1.62-0.749-3.549-2.295-3.175c-0.506,0.123-0.723,0.375-0.814,0.564
						c0-1.738,0-3.024,0-3.024c3.104,0,5.625,2.52,5.625,5.634C75.194,8.737,74.153,8.737,72.678,8.737"/>
					<path fill="#FFFFFF" d="M72.757,8.737c0.979-1.933-1.066-3.655-2.534-3.197c-0.211,0.065-0.493,0.206-0.654,0.404
						c0-1.644,0-2.841,0-2.841c3.104,0,5.625,2.52,5.625,5.634C75.194,8.737,74.19,8.737,72.757,8.737"/>
					<path fill="#FFFFFF" d="M72.833,8.737c0.945-1.869-0.976-3.788-2.65-3.253c-0.325,0.104-0.524,0.257-0.614,0.339
						c0-1.582,0-2.72,0-2.72c3.104,0,5.625,2.52,5.625,5.634C75.194,8.737,74.225,8.737,72.833,8.737"/>
					<path fill="#FFFFFF" d="M72.909,8.737c0.969-2.173-1.306-3.886-2.866-3.276c-0.175,0.068-0.29,0.125-0.474,0.261
						c0-1.528,0-2.619,0-2.619c3.104,0,5.625,2.52,5.625,5.634C75.194,8.737,74.26,8.737,72.909,8.737"/>
					<path fill="#FFFFFF" d="M72.984,8.737c0.925-2.119-1.307-4.06-3.078-3.297c-0.144,0.062-0.188,0.091-0.337,0.187
						c0-1.479,0-2.524,0-2.524c3.104,0,5.625,2.52,5.625,5.634C75.194,8.737,74.294,8.737,72.984,8.737"/>
					<path fill="#FFFFFF" d="M73.064,8.737c0.934-2.175-1.321-4.135-3.149-3.38c-0.107,0.044-0.244,0.119-0.346,0.177
						c0-1.429,0-2.431,0-2.431c3.104,0,5.625,2.52,5.625,5.634C75.194,8.737,74.332,8.737,73.064,8.737"/>
					<path fill="#FFFFFF" d="M73.149,8.737c0.922-2.309-1.431-4.247-3.341-3.418c-0.082,0.036-0.161,0.08-0.239,0.125
						c0-1.381,0-2.341,0-2.341c3.104,0,5.625,2.52,5.625,5.634C75.194,8.737,74.37,8.737,73.149,8.737"/>
					<path fill="#FFFFFF" d="M73.239,8.737c0.941-2.43-1.515-4.392-3.491-3.481c-0.055,0.025-0.126,0.064-0.179,0.093
						c0-1.33,0-2.246,0-2.246c3.104,0,5.625,2.52,5.625,5.634C75.194,8.737,74.41,8.737,73.239,8.737"/>
					<path fill="#FAFAFA" d="M73.338,8.737c0.985-2.519-1.507-4.504-3.586-3.58c-0.057,0.025-0.129,0.064-0.184,0.092
						c0-1.276,0-2.146,0-2.146c3.104,0,5.625,2.52,5.625,5.634C75.194,8.737,74.454,8.737,73.338,8.737"/>
					<path fill="#F5F5F5" d="M73.453,8.737c1.029-2.637-1.508-4.646-3.694-3.688c-0.059,0.025-0.133,0.065-0.189,0.093
						c0-1.217,0-2.039,0-2.039c3.104,0,5.625,2.52,5.625,5.634C75.194,8.737,74.504,8.737,73.453,8.737"/>
					<path fill="#F0F0F0" d="M73.585,8.737c1.076-2.683-1.584-4.795-3.821-3.812c-0.06,0.026-0.137,0.067-0.195,0.096
						c0-1.151,0-1.919,0-1.919c3.104,0,5.625,2.52,5.625,5.634C75.194,8.737,74.562,8.737,73.585,8.737"/>
					<path fill="#EBEBEB" d="M73.738,8.737c1.1-2.74-1.694-4.97-3.966-3.951c-0.063,0.027-0.143,0.069-0.203,0.1
						c0-1.075,0-1.783,0-1.783c3.104,0,5.625,2.52,5.625,5.634C75.194,8.737,74.626,8.737,73.738,8.737"/>
					<path fill="#E5E5E5" d="M73.908,8.737c1.032-2.563-1.63-5.214-4.128-4.112c-0.064,0.029-0.147,0.072-0.211,0.104
						c0-0.986,0-1.625,0-1.625c3.104,0,5.625,2.52,5.625,5.634C75.194,8.737,74.699,8.737,73.908,8.737"/>
					<path fill="#E0E0E0" d="M74.077,8.737C74.06,8.713,74.1,8.672,74.111,8.644c0.419-1.165,0.031-2.568-0.965-3.492
						c-0.612-0.568-1.891-1.4-3.577-0.597c0-0.887,0-1.452,0-1.452c3.104,0,5.625,2.52,5.625,5.634
						C75.194,8.737,74.769,8.737,74.077,8.737"/>
					<path fill="#DBDBDB" d="M74.233,8.737c-0.028-0.038,0.031-0.104,0.045-0.149c0.35-1.147-0.089-2.587-1.066-3.501
						c-0.832-0.777-2.226-1.373-3.643-0.71c0-0.783,0-1.273,0-1.273c3.104,0,5.625,2.52,5.625,5.634
						C75.194,8.737,74.832,8.737,74.233,8.737"/>
					<path fill="#D6D6D6" d="M74.372,8.737c-0.047-0.059,0.042-0.17,0.06-0.243c0.229-0.926-0.039-2.405-1.163-3.465
						c-1.08-1.019-2.463-1.326-3.699-0.822c0-0.685,0-1.104,0-1.104c3.104,0,5.625,2.52,5.625,5.634
						C75.194,8.737,74.887,8.737,74.372,8.737"/>
					<path fill="#D1D1D1" d="M74.494,8.737c-0.014-0.017,0.012-0.049,0.017-0.07c0.301-1.267-0.166-2.715-1.191-3.689
						c-0.514-0.489-1.909-1.557-3.75-0.923c0-0.594,0-0.953,0-0.953c3.104,0,5.625,2.52,5.625,5.634
						C75.194,8.737,74.935,8.737,74.494,8.737"/>
					<path fill="#CCCCCC" d="M74.603,8.737c-0.043-0.051,0.028-0.153,0.04-0.219c0.186-0.998-0.139-2.493-1.279-3.584
						c-0.631-0.604-1.963-1.539-3.795-1.014c0-0.513,0-0.817,0-0.817c3.104,0,5.625,2.52,5.625,5.634
						C75.194,8.737,74.978,8.737,74.603,8.737"/>
					<path fill="#C7C7C7" d="M74.7,8.737c-0.012-0.015,0.008-0.043,0.011-0.062c0.237-1.327-0.264-2.776-1.308-3.781
						c-1.084-1.044-2.518-1.454-3.834-1.096c0-0.439,0-0.695,0-0.695c3.104,0,5.625,2.52,5.625,5.634
						C75.194,8.737,75.015,8.737,74.7,8.737"/>
					<path fill="#C2C2C2" d="M74.787,8.737c-0.052-0.059,0.023-0.183,0.034-0.261c0.132-1.006-0.244-2.515-1.383-3.616
						c-0.636-0.615-1.983-1.585-3.869-1.171c0-0.372,0-0.586,0-0.586c3.104,0,5.625,2.52,5.625,5.634
						C75.194,8.737,75.047,8.737,74.787,8.737"/>
					<path fill="#BDBDBD" d="M74.865,8.737c-0.022-0.025,0.01-0.077,0.014-0.11c0.169-1.332-0.371-2.787-1.411-3.797
						c-1.106-1.075-2.527-1.527-3.898-1.24c0-0.311,0-0.488,0-0.488c3.104,0,5.625,2.52,5.625,5.634
						C75.194,8.737,75.077,8.737,74.865,8.737"/>
					<path fill="#FFFFFF" d="M72,8.662c-0.052-0.036-0.101-0.107-0.142-0.155c0,0-0.117-0.195-0.231-0.413
						c-0.055-0.104-0.221-0.419-0.45-0.69c-0.083-0.099-0.279-0.331-0.673-0.625c-0.003-0.002-0.297-0.226-0.357-0.297
						c-0.03-0.036-0.071-0.084-0.091-0.126c-0.003-0.004-0.2-0.452,0.597-0.593c1.359-0.24,2.671,1.701,1.847,2.732
						C72.377,8.646,72.193,8.797,72,8.662"/>
					<path fill="#B8B8B8" d="M74.934,8.737c-0.057-0.062,0.018-0.195,0.024-0.278c0.084-0.943-0.249-2.466-1.466-3.653
						c-0.638-0.622-1.994-1.618-3.924-1.304c0-0.256,0-0.399,0-0.399c3.104,0,5.625,2.52,5.625,5.634
						C75.194,8.737,75.102,8.737,74.934,8.737"/>
					<path fill="#FFFFFF" d="M71.991,8.523c-0.088-0.063-0.192-0.241-0.255-0.348c-0.213-0.362-0.329-0.562-0.527-0.798
						c-0.28-0.334-0.664-0.558-0.944-0.89c-0.028-0.033-0.07-0.075-0.09-0.114c-0.129-0.253,0.136-0.489,0.452-0.542
						c1.451-0.242,2.546,1.604,1.86,2.549C72.398,8.502,72.215,8.683,71.991,8.523"/>
					<path fill="#B2B2B2" d="M74.996,8.737c-0.038-0.042,0.011-0.132,0.016-0.188c0.083-1.028-0.267-2.557-1.498-3.764
						c-1.108-1.085-2.546-1.583-3.944-1.364c0-0.205,0-0.318,0-0.318c3.104,0,5.625,2.52,5.625,5.634
						C75.194,8.737,75.125,8.737,74.996,8.737"/>
					<path fill="#FFFFFF" d="M72.116,8.465c-0.054-0.013-0.12-0.056-0.157-0.097c-0.299-0.339-0.486-0.758-0.787-1.096
						c-0.271-0.305-0.631-0.52-0.866-0.861c-0.017-0.025-0.16-0.25,0.113-0.418c0.895-0.551,2.487,0.635,2.178,1.96
						C72.516,8.297,72.314,8.513,72.116,8.465"/>
					<path fill="#FFFFFF" d="M72.128,8.341c-0.061-0.001-0.135-0.052-0.175-0.097c-0.256-0.286-0.435-0.628-0.68-0.921
						c-0.258-0.308-0.596-0.538-0.833-0.865c-0.017-0.023-0.159-0.232,0.031-0.396c0.57-0.492,2.188,0.345,2.102,1.624
						C72.561,7.886,72.49,8.35,72.128,8.341"/>
					<path fill="#ADADAD" d="M75.049,8.737c-0.059-0.062,0.011-0.199,0.016-0.284c0.052-0.952-0.319-2.488-1.536-3.685
						c-0.777-0.764-2.096-1.63-3.96-1.419c0-0.16,0-0.247,0-0.247c3.104,0,5.625,2.52,5.625,5.634
						C75.194,8.737,75.144,8.737,75.049,8.737"/>
					<path fill="#FFFFFF" d="M72.099,8.215c-0.05-0.005-0.185-0.124-0.186-0.125c-0.247-0.276-0.438-0.595-0.676-0.877
						c-0.206-0.243-0.469-0.433-0.656-0.694c-0.153-0.215-0.084-0.345,0.001-0.416c0.524-0.438,2.012,0.376,1.931,1.553
						C72.495,7.928,72.408,8.247,72.099,8.215"/>
					<path fill="#A8A8A8" d="M75.096,8.737c-0.055-0.057,0.007-0.183,0.011-0.261c0.039-0.963-0.348-2.515-1.567-3.718
						c-1.106-1.091-2.554-1.628-3.971-1.473c0-0.119,0-0.183,0-0.183c3.104,0,5.625,2.52,5.625,5.634
						C75.194,8.737,75.16,8.737,75.096,8.737"/>
					<path fill="#FFFFFF" d="M72.083,8.086c-0.084-0.015-0.219-0.16-0.221-0.161c-0.212-0.235-0.387-0.501-0.591-0.743
						c-0.172-0.202-0.38-0.37-0.535-0.586c-0.087-0.122-0.219-0.306-0.042-0.448c0.493-0.395,1.938,0.485,1.754,1.542
						C72.407,7.922,72.334,8.131,72.083,8.086"/>
					<path fill="#FFFFFF" d="M72.071,7.955c-0.059-0.016-0.108-0.029-0.285-0.22c-0.172-0.186-0.313-0.396-0.477-0.588
						c-0.128-0.152-0.281-0.282-0.398-0.444c-0.148-0.208-0.267-0.371-0.099-0.5c0.384-0.295,1.619,0.337,1.577,1.338
						C72.375,7.906,72.215,7.994,72.071,7.955"/>
					<path fill="#FFFFFF" d="M71.194,8.737c0.002-0.903-0.736-1.638-1.625-1.634c0-0.234,0-0.463,0-0.686
						c0.001,0.003,0.003,0.007,0.004,0.01c0.183,0.177,0.183,0.177,0.468,0.321c0.297,0.15,0.639,0.339,0.95,0.687
						c0.405,0.453,0.553,0.963,0.65,1.301C71.494,8.737,71.345,8.737,71.194,8.737"/>
					<path fill="#A3A3A3" d="M75.134,8.737c-0.011-0.012,0.002-0.037,0.003-0.053c0.063-1.413-0.532-2.882-1.592-3.932
						c-0.777-0.769-2.098-1.657-3.977-1.523c0-0.083,0-0.126,0-0.126c3.104,0,5.625,2.52,5.625,5.634
						C75.194,8.737,75.173,8.737,75.134,8.737"/>
					<path fill="#FFFFFF" d="M72.055,7.823c-0.124-0.046-0.192-0.071-0.911-0.944c-0.206-0.251-0.311-0.377-0.282-0.508
						c0.067-0.316,0.872-0.163,1.254,0.457c0.29,0.471,0.241,0.996-0.011,1.011C72.089,7.84,72.07,7.829,72.055,7.823"/>
					<path fill="#FFFFFF" d="M71.194,8.737c0.002-0.903-0.736-1.638-1.625-1.634c0-0.175,0-0.348,0-0.517
						c0.032,0.017,0.075,0.039,0.106,0.056c0.265,0.14,0.547,0.246,0.8,0.408c0.099,0.063,0.293,0.201,0.485,0.414
						c0.294,0.325,0.493,0.742,0.609,1.273C71.446,8.737,71.321,8.737,71.194,8.737"/>
					<path fill="#FFFFFF" d="M71.194,8.737c0.002-0.903-0.736-1.638-1.625-1.634c0-0.136,0-0.27,0-0.402
						c0.03,0.01,0.071,0.023,0.103,0.033c0.666,0.255,1.58,0.604,1.831,2.003C71.401,8.737,71.297,8.737,71.194,8.737"/>
					<path fill="#FFFFFF" d="M72.047,7.691c-0.103,0-0.228-0.114-0.578-0.529c-0.423-0.5-0.482-0.605-0.468-0.708
						c0.006-0.037,0.036-0.085,0.066-0.107c0.049-0.035,0.386-0.127,0.809,0.286c0.328,0.32,0.379,0.716,0.352,0.847
						C72.204,7.598,72.184,7.691,72.047,7.691"/>
					<path fill="#FFFFFF" d="M71.194,8.737c0.002-0.903-0.736-1.638-1.625-1.634c0-0.104,0-0.208,0-0.311
						c0.029,0.007,0.068,0.018,0.098,0.025c0.51,0.16,1.57,0.494,1.771,1.92C71.357,8.737,71.276,8.737,71.194,8.737"/>
					<path fill="#FFFFFF" d="M71.194,8.737c0.002-0.903-0.736-1.638-1.625-1.634c0-0.076,0-0.151,0-0.226
						c0.028,0.005,0.065,0.012,0.094,0.017c1.021,0.244,1.598,0.864,1.713,1.844C71.315,8.737,71.254,8.737,71.194,8.737"/>
					<path fill="#FFFFFF" d="M71.964,7.513c-0.055-0.007-0.175-0.081-0.441-0.395c-0.119-0.141-0.367-0.434-0.36-0.552
						c0.003-0.039,0.025-0.093,0.057-0.115c0.054-0.04,0.316-0.056,0.604,0.229c0.331,0.328,0.301,0.664,0.301,0.667
						c-0.009,0.039-0.009,0.101-0.037,0.129C72.06,7.503,72.002,7.517,71.964,7.513"/>
					<path fill="#9E9E9E" d="M72.485,3.918c-1-0.574-1.817-0.78-2.916-0.736c0-0.052,0-0.079,0-0.079
						c1.083,0,2.096,0.307,2.955,0.839C72.512,3.935,72.497,3.925,72.485,3.918"/>
					<path fill="#FFFFFF" d="M71.194,8.737c0.002-0.903-0.736-1.638-1.625-1.634c0-0.049,0-0.097,0-0.146
						c0.023,0.003,0.055,0.007,0.078,0.009c0.704,0.094,1.563,0.614,1.666,1.771C71.273,8.737,71.234,8.737,71.194,8.737"/>
					<path fill="#999999" d="M71.241,3.356c-0.392-0.108-0.879-0.244-1.672-0.212c0-0.027,0-0.041,0-0.041
						c0.675,0,1.322,0.119,1.922,0.337C71.416,3.416,71.316,3.38,71.241,3.356"/>
					<path fill="#FFFFFF" d="M71.822,7.266c-0.083-0.029-0.439-0.464-0.447-0.527c-0.006-0.042,0.004-0.111,0.039-0.134
						c0.058-0.039,0.165,0.018,0.226,0.052c0.085,0.049,0.137,0.109,0.208,0.193c0.169,0.201,0.126,0.415,0.125,0.416
						C71.941,7.299,71.865,7.281,71.822,7.266"/>
					<path fill="#9E9E9E" d="M75.165,8.737c-0.058-0.058,0.002-0.19,0.002-0.272c0.003-0.381-0.062-1.013-0.391-1.864
						c0.27,0.659,0.418,1.38,0.418,2.136C75.194,8.737,75.184,8.737,75.165,8.737"/>
					<path fill="#FFFFFF" d="M71.194,8.737c0.002-0.903-0.736-1.638-1.625-1.634c0-0.023,0-0.045,0-0.068
						c0.026,0.002,0.061,0.004,0.086,0.006c0.918,0.114,1.544,0.78,1.595,1.697C71.231,8.737,71.212,8.737,71.194,8.737"/>
					<path fill="#949494" d="M70.425,3.168c-0.299-0.037-0.473-0.055-0.856-0.052c0-0.009,0-0.014,0-0.014
						c0.358,0,0.71,0.034,1.05,0.098C70.561,3.191,70.483,3.177,70.425,3.168"/>
					<path fill="#999999" d="M75.185,8.737c-0.062-0.061-0.002-0.203-0.003-0.29c-0.001-0.079-0.01-0.311-0.083-0.745
						c0.063,0.335,0.095,0.682,0.095,1.035C75.194,8.737,75.191,8.737,75.185,8.737"/>
					<path fill="#8F8F8F" d="M69.569,3.104c0.067,0,0.135,0,0.201,0.003C69.709,3.105,69.611,3.146,69.569,3.104"/>
					<path fill="#949494" d="M75.194,8.737c-0.025-0.025-0.001-0.083-0.001-0.119C75.194,8.658,75.194,8.698,75.194,8.737
						L75.194,8.737"/>
				</g>
			</g>
			<g enable-background="new    ">
				<defs>
					<path id="SVGID_9_" enable-background="new    " d="M8.805,31.264c-2.209,0-4,0-4,0V8.737c0,0,1.791,0,4,0V31.264z"/>
				</defs>
				<clipPath id="SVGID_10_">
					<use xlink:href="#SVGID_9_"  overflow="visible"/>
				</clipPath>
				<g clip-path="url(#SVGID_10_)" enable-background="new    ">
					<polyline fill="#FFFFFF" points="8.805,8.737 8.805,31.264 8.798,31.264 8.798,8.737 8.805,8.737 					"/>
					<path fill="#FFFFFF" d="M8.798,8.737v22.526c-0.022,0-0.046,0-0.068,0V8.737C8.752,8.737,8.776,8.737,8.798,8.737"/>
					<path fill="#FAFAFA" d="M8.73,8.737v22.526c-0.023,0-0.046,0-0.068,0V8.737C8.684,8.737,8.707,8.737,8.73,8.737"/>
					<path fill="#F5F5F5" d="M8.662,8.737v22.526c-0.023,0-0.046,0-0.068,0V8.737C8.616,8.737,8.639,8.737,8.662,8.737"/>
					<path fill="#F0F0F0" d="M8.593,8.737v22.526c-0.022,0-0.045,0-0.068,0V8.737C8.548,8.737,8.571,8.737,8.593,8.737"/>
					<path fill="#EBEBEB" d="M8.525,8.737v22.526c-0.024,0-0.049,0-0.073,0V8.737C8.477,8.737,8.501,8.737,8.525,8.737"/>
					<path fill="#E5E5E5" d="M8.453,8.737v22.526c-0.029,0-0.059,0-0.087,0V8.737C8.394,8.737,8.423,8.737,8.453,8.737"/>
					<path fill="#E0E0E0" d="M8.365,8.737v22.526c-0.029,0-0.058,0-0.087,0V8.737C8.307,8.737,8.336,8.737,8.365,8.737"/>
					<path fill="#DBDBDB" d="M8.278,8.737v22.526c-0.029,0-0.058,0-0.086,0V8.737C8.221,8.737,8.25,8.737,8.278,8.737"/>
					<path fill="#D6D6D6" d="M8.192,8.737v22.526c-0.035,0-0.069,0-0.104,0V8.737C8.123,8.737,8.158,8.737,8.192,8.737"/>
					<path fill="#D1D1D1" d="M8.089,8.737v22.526c-0.039,0-0.077,0-0.115,0V8.737C8.012,8.737,8.05,8.737,8.089,8.737"/>
					<path fill="#CCCCCC" d="M7.974,8.737v22.526c-0.038,0-0.076,0-0.114,0V8.737C7.897,8.737,7.936,8.737,7.974,8.737"/>
					<path fill="#C7C7C7" d="M7.86,8.737v22.526c-0.047,0-0.093,0-0.139,0V8.737C7.767,8.737,7.813,8.737,7.86,8.737"/>
					<path fill="#C2C2C2" d="M7.721,8.737v22.526c-0.047,0-0.094,0-0.14,0V8.737C7.627,8.737,7.674,8.737,7.721,8.737"/>
					<path fill="#BDBDBD" d="M7.581,8.737v22.526c-0.051,0-0.101,0-0.151,0V8.737C7.48,8.737,7.53,8.737,7.581,8.737"/>
					<path fill="#B8B8B8" d="M7.43,8.737v22.526c-0.052,0-0.103,0-0.154,0V8.737C7.327,8.737,7.378,8.737,7.43,8.737"/>
					<path fill="#B2B2B2" d="M7.276,8.737v22.526c-0.054,0-0.107,0-0.16,0V8.737C7.169,8.737,7.222,8.737,7.276,8.737"/>
					<path fill="#ADADAD" d="M7.116,8.737v22.526c-0.053,0-0.106,0-0.159,0V8.737C7.01,8.737,7.063,8.737,7.116,8.737"/>
					<path fill="#A8A8A8" d="M6.958,8.737v22.526c-0.056,0-0.11,0-0.165,0V8.737C6.847,8.737,6.902,8.737,6.958,8.737"/>
					<path fill="#A3A3A3" d="M6.793,8.737v22.526c-0.056,0-0.111,0-0.166,0V8.737C6.682,8.737,6.737,8.737,6.793,8.737"/>
					<path fill="#9E9E9E" d="M6.627,8.737v22.526c-0.057,0-0.113,0-0.168,0V8.737C6.514,8.737,6.57,8.737,6.627,8.737"/>
					<path fill="#999999" d="M6.459,8.737v22.526c-0.061,0-0.121,0-0.179,0V8.737C6.338,8.737,6.398,8.737,6.459,8.737"/>
					<path fill="#949494" d="M6.28,8.737v22.526c-0.065,0-0.127,0-0.188,0V8.737C6.152,8.737,6.215,8.737,6.28,8.737"/>
					<path fill="#8F8F8F" d="M6.091,8.737v22.526c-0.071,0-0.14,0-0.206,0V8.737C5.952,8.737,6.02,8.737,6.091,8.737"/>
					<path fill="#8A8A8A" d="M5.885,8.737v22.526c-0.084,0-0.165,0-0.241,0V8.737C5.72,8.737,5.801,8.737,5.885,8.737"/>
					<path fill="#858585" d="M5.644,8.737v22.526c-0.526,0-0.839,0-0.839,0V8.737C4.805,8.737,5.118,8.737,5.644,8.737"/>
				</g>
			</g>
			<g enable-background="new    ">
				<defs>
					<path id="SVGID_11_" enable-background="new    " d="M8.805,8.737c-2.209,0-4,0-4,0c0-3.114,2.52-5.634,5.625-5.634
						c0,0,0,1.791,0,4C9.54,7.1,8.803,7.834,8.805,8.737z"/>
				</defs>
				<clipPath id="SVGID_12_">
					<use xlink:href="#SVGID_11_"  overflow="visible"/>
				</clipPath>
				<g clip-path="url(#SVGID_12_)" enable-background="new    ">
					<path fill="#FFFFFF" d="M8.805,8.737c-2.209,0-4,0-4,0c0-3.114,2.52-5.634,5.625-5.634c0,0,0,1.791,0,4
						C9.54,7.1,8.803,7.834,8.805,8.737"/>
					<path fill="#FFFFFF" d="M10.43,6.104c-0.056,0.257-0.056,0.257,0,0.33c0,0.218,0,0.441,0,0.67
						C9.54,7.1,8.803,7.834,8.805,8.737c-2.209,0-4,0-4,0c0-3.114,2.52-5.634,5.625-5.634C10.43,3.103,10.43,4.378,10.43,6.104"/>
					<path fill="#FFFFFF" d="M10.43,5.931c-0.043,0.129-0.166,0.223-0.166,0.371c0,0.146,0.104,0.244,0.166,0.29
						c0,0.167,0,0.338,0,0.511C9.54,7.1,8.803,7.834,8.805,8.737c-2.209,0-4,0-4,0c0-3.114,2.52-5.634,5.625-5.634
						C10.43,3.103,10.43,4.293,10.43,5.931"/>
					<path fill="#FFFFFF" d="M10.43,5.816c-0.075,0.18-0.295,0.273-0.295,0.498c0,0.089,0,0.256,0.295,0.391c0,0.13,0,0.263,0,0.397
						C9.54,7.1,8.803,7.834,8.805,8.737c-2.209,0-4,0-4,0c0-3.114,2.52-5.634,5.625-5.634C10.43,3.103,10.43,4.238,10.43,5.816"/>
					<path fill="#FFFFFF" d="M10.43,5.716c-0.015,0.032-0.064,0.052-0.092,0.075c-0.079,0.064-0.335,0.302-0.335,0.677
						c0,0.167,0.237,0.257,0.427,0.329c0,0.102,0,0.204,0,0.307C9.54,7.1,8.803,7.834,8.805,8.737c-2.209,0-4,0-4,0
						c0-3.114,2.52-5.634,5.625-5.634C10.43,3.103,10.43,4.19,10.43,5.716"/>
					<path fill="#FFFFFF" d="M10.43,5.622c-0.011,0.021-0.046,0.032-0.065,0.045C10.16,5.81,9.856,6.149,9.856,6.498
						c0,0.249,0.145,0.282,0.573,0.382c0,0.074,0,0.148,0,0.223C9.54,7.1,8.803,7.834,8.805,8.737c-2.209,0-4,0-4,0
						c0-3.114,2.52-5.634,5.625-5.634C10.43,3.103,10.43,4.146,10.43,5.622"/>
					<path fill="#FFFFFF" d="M10.43,5.53c-0.004,0.008-0.018,0.011-0.025,0.016C9.913,5.853,9.708,6.347,9.708,6.543
						c0,0.308,0,0.308,0.722,0.417c0,0.047,0,0.095,0,0.143C9.54,7.1,8.803,7.834,8.805,8.737c-2.209,0-4,0-4,0
						c0-3.114,2.52-5.634,5.625-5.634C10.43,3.103,10.43,4.103,10.43,5.53"/>
					<path fill="#FFFFFF" d="M10.43,5.439c-0.028,0.051-0.115,0.073-0.164,0.105C9.873,5.796,9.541,6.349,9.541,6.751
						c0,0.231,0.099,0.263,0.179,0.289c0.237,0.076,0.473-0.018,0.71-0.004c0,0.022,0,0.045,0,0.068
						C9.54,7.1,8.803,7.834,8.805,8.737c-2.209,0-4,0-4,0c0-3.114,2.52-5.634,5.625-5.634C10.43,3.103,10.43,4.061,10.43,5.439"/>
					<path fill="#FFFFFF" d="M10.43,5.345c-0.025,0.043-0.1,0.06-0.143,0.085c-0.176,0.104-0.509,0.36-0.771,0.906
						C9.492,6.384,9.467,6.452,9.45,6.503C9.421,6.587,9.346,6.811,9.347,7.118c0,0.003-0.002,0.318-0.036,0.376
						C9.164,7.746,8.956,7.961,8.87,8.249C8.804,8.47,8.801,8.625,8.799,8.737c-2.207,0-3.994,0-3.994,0
						c0-3.114,2.52-5.634,5.625-5.634C10.43,3.103,10.43,4.017,10.43,5.345"/>
					<path fill="#FAFAFA" d="M10.43,5.246c-0.021,0.035-0.083,0.046-0.119,0.066c-0.33,0.186-0.69,0.568-0.856,0.91
						C9.409,6.318,8.721,8.05,8.733,8.737c-2.176,0-3.929,0-3.929,0c0-3.114,2.52-5.634,5.625-5.634
						C10.43,3.103,10.43,3.972,10.43,5.246"/>
					<path fill="#F5F5F5" d="M10.43,5.138c-0.019,0.032-0.077,0.042-0.109,0.06c-0.317,0.173-0.75,0.55-1.013,1.087
						C9.25,6.402,8.616,7.989,8.668,8.737c-2.146,0-3.864,0-3.864,0c0-3.114,2.52-5.634,5.625-5.634
						C10.43,3.103,10.43,3.923,10.43,5.138"/>
					<path fill="#F0F0F0" d="M10.43,5.019c-0.022,0.037-0.087,0.047-0.125,0.067c-0.473,0.255-0.86,0.685-1.151,1.276
						C9.147,6.375,8.526,7.83,8.599,8.737c-2.114,0-3.794,0-3.794,0c0-3.114,2.52-5.634,5.625-5.634
						C10.43,3.103,10.43,3.87,10.43,5.019"/>
					<path fill="#EBEBEB" d="M10.43,4.883c-0.03,0.051-0.121,0.066-0.172,0.095c-0.124,0.068-0.761,0.448-1.168,1.273
						C8.867,6.704,8.436,7.906,8.53,8.737c-2.081,0-3.725,0-3.725,0c0-3.114,2.52-5.634,5.625-5.634
						C10.43,3.103,10.43,3.81,10.43,4.883"/>
					<path fill="#E5E5E5" d="M10.43,4.726c-0.011,0.019-0.046,0.025-0.065,0.036c-0.91,0.496-1.29,1.268-1.415,1.521
						C8.784,6.619,8.338,7.79,8.454,8.737c-2.045,0-3.649,0-3.649,0c0-3.114,2.52-5.634,5.625-5.634
						C10.43,3.103,10.43,3.741,10.43,4.726"/>
					<path fill="#E0E0E0" d="M10.43,4.553c-0.035,0.059-0.14,0.077-0.199,0.11c-0.087,0.048-0.862,0.5-1.354,1.5
						C8.551,6.828,8.254,7.917,8.375,8.737c-2.007,0-3.57,0-3.57,0c0-3.114,2.52-5.634,5.625-5.634
						C10.43,3.103,10.43,3.667,10.43,4.553"/>
					<path fill="#DBDBDB" d="M10.43,4.374c-0.031,0.05-0.123,0.063-0.175,0.09C9.798,4.701,9.171,5.279,8.8,6.037
						c-0.436,0.89-0.627,1.899-0.51,2.701c-1.966,0-3.485,0-3.485,0c0-3.114,2.52-5.634,5.625-5.634
						C10.43,3.103,10.43,3.592,10.43,4.374"/>
					<path fill="#D6D6D6" d="M10.43,4.206c-0.028,0.043-0.108,0.05-0.155,0.071C9.827,4.483,9.179,4.96,8.635,6.063
						C8.407,6.524,8.023,7.677,8.196,8.737c-1.92,0-3.391,0-3.391,0c0-3.114,2.52-5.634,5.625-5.634
						C10.43,3.103,10.43,3.522,10.43,4.206"/>
					<path fill="#D1D1D1" d="M10.43,4.054c-0.021,0.032-0.083,0.033-0.118,0.046C9.819,4.296,9.116,4.76,8.564,5.866
						C8.23,6.536,7.907,7.69,8.095,8.737c-1.871,0-3.291,0-3.291,0c0-3.114,2.52-5.634,5.625-5.634
						C10.43,3.103,10.43,3.461,10.43,4.054"/>
					<path fill="#CCCCCC" d="M10.43,3.919c-0.01,0.014-0.037,0.013-0.053,0.018C9.589,4.199,8.922,4.803,8.499,5.639
						C7.753,7.107,7.917,8.382,7.985,8.737c-1.816,0-3.18,0-3.18,0c0-3.114,2.52-5.634,5.625-5.634
						C10.43,3.103,10.43,3.407,10.43,3.919"/>
					<path fill="#C7C7C7" d="M10.43,3.798c-0.039,0.053-0.145,0.046-0.207,0.066C9.78,4.005,8.945,4.42,8.328,5.608
						c-0.361,0.695-0.7,1.931-0.465,3.129c-1.754,0-3.058,0-3.058,0c0-3.114,2.52-5.634,5.625-5.634
						C10.43,3.103,10.43,3.359,10.43,3.798"/>
					<path fill="#C2C2C2" d="M10.43,3.688c-0.02,0.026-0.075,0.02-0.107,0.028c-0.41,0.109-1.437,0.496-2.101,1.736
						C7.7,6.429,7.515,7.657,7.728,8.737c-1.687,0-2.923,0-2.923,0c0-3.114,2.52-5.634,5.625-5.634
						C10.43,3.103,10.43,3.317,10.43,3.688"/>
					<path fill="#BDBDBD" d="M10.43,3.59c-0.048,0.062-0.178,0.045-0.255,0.065c-0.4,0.102-1.408,0.479-2.122,1.771
						c-0.138,0.25-0.81,1.584-0.469,3.311c-1.612,0-2.779,0-2.779,0c0-3.114,2.52-5.634,5.625-5.634
						C10.43,3.103,10.43,3.28,10.43,3.59"/>
					<path fill="#B8B8B8" d="M10.43,3.501c-0.024,0.03-0.088,0.018-0.126,0.026c-0.569,0.117-1.636,0.511-2.39,1.829
						c-0.2,0.349-0.825,1.624-0.481,3.381c-1.534,0-2.628,0-2.628,0c0-3.114,2.52-5.634,5.625-5.634
						C10.43,3.103,10.43,3.246,10.43,3.501"/>
					<path fill="#B2B2B2" d="M10.43,3.421c-0.052,0.064-0.189,0.038-0.271,0.054C9.912,3.524,8.637,3.84,7.815,5.226
						C7.47,5.808,6.94,7.04,7.277,8.737c-1.451,0-2.472,0-2.472,0c0-3.114,2.52-5.634,5.625-5.634
						C10.43,3.103,10.43,3.216,10.43,3.421"/>
					<path fill="#ADADAD" d="M10.43,3.35c-0.026,0.031-0.094,0.014-0.134,0.021C9.266,3.53,8.28,4.193,7.722,5.101
						C7.059,6.18,6.856,7.403,7.119,8.737c-1.367,0-2.314,0-2.314,0c0-3.114,2.52-5.634,5.625-5.634
						C10.43,3.103,10.43,3.19,10.43,3.35"/>
					<path fill="#A8A8A8" d="M10.43,3.286c-0.055,0.064-0.195,0.029-0.278,0.042c-0.38,0.057-1.69,0.352-2.595,1.774
						C7.184,5.686,6.611,6.936,6.958,8.737c-1.28,0-2.153,0-2.153,0c0-3.114,2.52-5.634,5.625-5.634
						C10.43,3.103,10.43,3.167,10.43,3.286"/>
					<path fill="#A3A3A3" d="M10.43,3.229c-0.033,0.038-0.116,0.013-0.166,0.019c-0.665,0.075-1.92,0.412-2.85,1.821
						C6.759,6.063,6.528,7.434,6.796,8.737c-1.191,0-1.991,0-1.991,0c0-3.114,2.52-5.634,5.625-5.634
						C10.43,3.103,10.43,3.147,10.43,3.229"/>
					<path fill="#9E9E9E" d="M10.43,3.182c-0.057,0.064-0.199,0.021-0.284,0.03c-0.292,0.03-1.799,0.256-2.821,1.75
						c-0.5,0.73-1.026,1.979-0.695,3.776c-1.099,0-1.825,0-1.825,0c0-3.114,2.52-5.634,5.625-5.634
						C10.43,3.103,10.43,3.13,10.43,3.182"/>
					<path fill="#999999" d="M10.43,3.144c-0.057,0.062-0.194,0.016-0.277,0.022C9.314,3.234,8.048,3.718,7.239,4.857
						C6.7,5.617,6.127,6.906,6.46,8.737c-1.003,0-1.655,0-1.655,0c0-3.114,2.52-5.634,5.625-5.634
						C10.43,3.103,10.43,3.117,10.43,3.144"/>
					<path fill="#949494" d="M10.43,3.117c-0.043,0.046-0.146,0.008-0.209,0.011c-1.175,0.06-2.378,0.699-3.064,1.629
						c-0.848,1.149-1.142,2.488-0.874,3.98c-0.902,0-1.478,0-1.478,0c0-3.114,2.52-5.634,5.625-5.634
						C10.43,3.103,10.43,3.108,10.43,3.117"/>
					<path fill="#8F8F8F" d="M10.43,3.104c-0.043,0.044-0.143,0.004-0.205,0.005C9.01,3.141,7.753,3.775,7.022,4.725
						C6.15,5.859,5.838,7.209,6.095,8.737c-0.793,0-1.291,0-1.291,0C4.805,5.623,7.325,3.103,10.43,3.104
						C10.43,3.103,10.43,3.103,10.43,3.104"/>
					<path fill="#8A8A8A" d="M9.574,3.168C6.652,3.695,5.496,6.431,5.891,8.737c-0.674,0-1.086,0-1.086,0
						c0-2.881,2.157-5.253,4.938-5.593C9.692,3.152,9.624,3.16,9.574,3.168"/>
					<path fill="#858585" d="M8.497,3.446C6.44,4.243,5.296,6.37,5.651,8.737c-0.53,0-0.846,0-0.846,0
						c0-2.527,1.659-4.663,3.943-5.378C8.673,3.385,8.572,3.418,8.497,3.446"/>
				</g>
			</g>
			<g enable-background="new    ">
				<defs>
					<path id="SVGID_13_" enable-background="new    " d="M10.43,7.103c0-2.209,0-4,0-4h59.139c0,0,0,1.791,0,4H10.43z"/>
				</defs>
				<clipPath id="SVGID_14_">
					<use xlink:href="#SVGID_13_"  overflow="visible"/>
				</clipPath>
				<g clip-path="url(#SVGID_14_)" enable-background="new    ">
					<path fill="#FFFFFF" d="M69.569,7.103H10.43c0-0.024,0-0.048,0-0.073h59.139C69.569,7.055,69.569,7.079,69.569,7.103"/>
					<path fill="#FFFFFF" d="M69.569,7.03H10.43c0-0.026,0-0.053,0-0.079h59.139C69.569,6.978,69.569,7.004,69.569,7.03"/>
					<path fill="#FFFFFF" d="M69.569,6.951H10.43c0-0.026,0-0.053,0-0.079h59.139C69.569,6.898,69.569,6.925,69.569,6.951"/>
					<path fill="#FFFFFF" d="M69.569,6.872H10.43c0-0.026,0-0.053,0-0.079h59.139C69.569,6.819,69.569,6.846,69.569,6.872"/>
					<path fill="#FFFFFF" d="M69.569,6.793H10.43c0-0.038,0-0.075,0-0.112h59.139C69.569,6.719,69.569,6.756,69.569,6.793"/>
					<path fill="#FFFFFF" d="M69.569,6.682H10.43c0-0.04,0-0.081,0-0.121h59.139C69.569,6.601,69.569,6.642,69.569,6.682"/>
					<path fill="#FFFFFF" d="M69.569,6.561H10.43c0-0.084,0-0.168,0-0.252h59.139C69.569,6.393,69.569,6.477,69.569,6.561"/>
					<path fill="#FFFFFF" d="M69.569,6.309H10.43c0-0.063,0-0.125,0-0.187h59.139C69.569,6.184,69.569,6.246,69.569,6.309"/>
					<path fill="#FFFFFF" d="M69.569,6.122H10.43c0-0.053,0-0.105,0-0.157h59.139C69.569,6.017,69.569,6.069,69.569,6.122"/>
					<path fill="#FFFFFF" d="M69.569,5.965H10.43c0-0.049,0-0.097,0-0.145h59.139C69.569,5.868,69.569,5.916,69.569,5.965"/>
					<path fill="#FFFFFF" d="M69.569,5.82H10.43c0-0.032,0-0.065,0-0.097h59.139C69.569,5.755,69.569,5.788,69.569,5.82"/>
					<path fill="#FFFFFF" d="M69.569,5.724H10.43c0-0.032,0-0.064,0-0.096h59.139C69.569,5.659,69.569,5.691,69.569,5.724"/>
					<path fill="#FFFFFF" d="M69.569,5.627H10.43c0-0.032,0-0.063,0-0.095h59.139C69.569,5.564,69.569,5.596,69.569,5.627"/>
					<path fill="#FFFFFF" d="M69.569,5.533H10.43c0-0.032,0-0.064,0-0.095h59.139C69.569,5.469,69.569,5.5,69.569,5.533"/>
					<path fill="#FFFFFF" d="M69.569,5.438H10.43c0-0.032,0-0.063,0-0.094h59.139C69.569,5.375,69.569,5.406,69.569,5.438"/>
					<path fill="#FFFFFF" d="M69.569,5.344H10.43c0-0.033,0-0.064,0-0.097h59.139C69.569,5.279,69.569,5.311,69.569,5.344"/>
					<path fill="#FAFAFA" d="M69.569,5.247H10.43c0-0.039,0-0.077,0-0.115h59.139C69.569,5.17,69.569,5.208,69.569,5.247"/>
					<path fill="#F5F5F5" d="M69.569,5.132H10.43c0-0.038,0-0.076,0-0.113h59.139C69.569,5.056,69.569,5.094,69.569,5.132"/>
					<path fill="#F0F0F0" d="M69.569,5.019H10.43c0-0.048,0-0.096,0-0.143h59.139C69.569,4.923,69.569,4.971,69.569,5.019"/>
					<path fill="#EBEBEB" d="M69.569,4.876H10.43c0-0.05,0-0.1,0-0.148h59.139C69.569,4.776,69.569,4.826,69.569,4.876"/>
					<path fill="#E5E5E5" d="M69.569,4.728H10.43c0-0.061,0-0.119,0-0.177h59.139C69.569,4.608,69.569,4.667,69.569,4.728"/>
					<path fill="#E0E0E0" d="M69.569,4.551H10.43c0-0.06,0-0.119,0-0.176h59.139C69.569,4.432,69.569,4.491,69.569,4.551"/>
					<path fill="#DBDBDB" d="M69.569,4.375H10.43c0-0.057,0-0.113,0-0.167h59.139C69.569,4.262,69.569,4.318,69.569,4.375"/>
					<path fill="#D6D6D6" d="M69.569,4.208H10.43c0-0.053,0-0.104,0-0.153h59.139C69.569,4.104,69.569,4.155,69.569,4.208"/>
					<path fill="#D1D1D1" d="M69.569,4.055H10.43c0-0.046,0-0.091,0-0.134h59.139C69.569,3.964,69.569,4.009,69.569,4.055"/>
					<path fill="#CCCCCC" d="M69.569,3.92H10.43c0-0.042,0-0.083,0-0.122h59.139C69.569,3.838,69.569,3.878,69.569,3.92"/>
					<path fill="#C7C7C7" d="M69.569,3.799H10.43c0-0.038,0-0.075,0-0.11h59.139C69.569,3.724,69.569,3.761,69.569,3.799"/>
					<path fill="#C2C2C2" d="M69.569,3.689H10.43c0-0.034,0-0.067,0-0.098h59.139C69.569,3.622,69.569,3.655,69.569,3.689"/>
					<path fill="#BDBDBD" d="M69.569,3.591H10.43c0-0.031,0-0.061,0-0.089h59.139C69.569,3.53,69.569,3.56,69.569,3.591"/>
					<path fill="#B8B8B8" d="M69.569,3.501H10.43c0-0.028,0-0.055,0-0.08h59.139C69.569,3.447,69.569,3.474,69.569,3.501"/>
					<path fill="#B2B2B2" d="M69.569,3.421H10.43c0-0.025,0-0.049,0-0.072h59.139C69.569,3.372,69.569,3.396,69.569,3.421"/>
					<path fill="#ADADAD" d="M69.569,3.349H10.43c0-0.023,0-0.044,0-0.064h59.139C69.569,3.305,69.569,3.326,69.569,3.349"/>
					<path fill="#A8A8A8" d="M69.569,3.285H10.43c0-0.02,0-0.039,0-0.056h59.139C69.569,3.247,69.569,3.265,69.569,3.285"/>
					<path fill="#A3A3A3" d="M69.569,3.229H10.43c0-0.018,0-0.034,0-0.048h59.139C69.569,3.196,69.569,3.212,69.569,3.229"/>
					<path fill="#9E9E9E" d="M69.569,3.182H10.43c0-0.015,0-0.027,0-0.038h59.139C69.569,3.154,69.569,3.167,69.569,3.182"/>
					<path fill="#999999" d="M69.569,3.144H10.43c0-0.011,0-0.021,0-0.027h59.139C69.569,3.124,69.569,3.133,69.569,3.144"/>
					<path fill="#949494" d="M69.569,3.117H10.43c0-0.008,0-0.012,0-0.014h59.139C69.569,3.105,69.569,3.109,69.569,3.117"/>
					<polyline fill="#8F8F8F" points="69.569,3.104 10.43,3.104 10.43,3.103 69.569,3.103 69.569,3.104 					"/>
				</g>
			</g>
			<g enable-background="new    ">
				<defs>
					<path id="SVGID_15_" enable-background="new    " d="M10.43,32.898c0,2.209,0,4,0,4c-3.105,0-5.625-2.521-5.625-5.635
						c0,0,1.791,0,4,0C8.803,32.167,9.541,32.902,10.43,32.898z"/>
				</defs>
				<clipPath id="SVGID_16_">
					<use xlink:href="#SVGID_15_"  overflow="visible"/>
				</clipPath>
				<g clip-path="url(#SVGID_16_)" enable-background="new    ">
					<path fill="#FFFFFF" d="M10.43,32.898c0,2.209,0,4,0,4c-3.105,0-5.625-2.521-5.625-5.635c0,0,1.791,0,4,0
						C8.803,32.167,9.541,32.902,10.43,32.898"/>
					<path fill="#FFFFFF" d="M8.799,31.264c0.018,0.018,0.001,0.06,0.002,0.084c0.016,0.63,0.531,1.529,1.628,1.558
						c0,2.206,0,3.993,0,3.993c-3.105,0-5.625-2.521-5.625-5.635C4.805,31.264,6.592,31.264,8.799,31.264"/>
					<path fill="#FAFAFA" d="M8.733,31.264c0.019,0.019,0.002,0.062,0.004,0.088c0.024,0.592,0.505,1.557,1.692,1.629
						c0,2.172,0,3.918,0,3.918c-3.105,0-5.625-2.521-5.625-5.635C4.805,31.264,6.557,31.264,8.733,31.264"/>
					<path fill="#F5F5F5" d="M8.668,31.264c0.02,0.019,0.003,0.063,0.005,0.091c0.034,0.598,0.54,1.589,1.756,1.702
						c0,2.137,0,3.842,0,3.842c-3.105,0-5.625-2.521-5.625-5.635C4.805,31.264,6.522,31.264,8.668,31.264"/>
					<path fill="#F0F0F0" d="M8.599,31.264c0.021,0.02,0.005,0.066,0.007,0.095c0.044,0.634,0.566,1.63,1.824,1.775
						c0,2.1,0,3.765,0,3.765c-3.105,0-5.625-2.521-5.625-5.635C4.805,31.264,6.485,31.264,8.599,31.264"/>
					<path fill="#EBEBEB" d="M8.53,31.264c0.021,0.02,0.006,0.068,0.008,0.098c0.045,0.555,0.499,1.654,1.892,1.853
						c0,2.062,0,3.685,0,3.685c-3.105,0-5.625-2.521-5.625-5.635C4.805,31.264,6.449,31.264,8.53,31.264"/>
					<path fill="#E5E5E5" d="M8.454,31.264c0.022,0.021,0.006,0.071,0.009,0.102c0.063,0.665,0.639,1.728,1.967,1.93
						c0,2.023,0,3.604,0,3.604c-3.105,0-5.625-2.521-5.625-5.635C4.805,31.264,6.409,31.264,8.454,31.264"/>
					<path fill="#E0E0E0" d="M8.375,31.264c0.024,0.021,0.008,0.074,0.012,0.105c0.066,0.588,0.578,1.766,2.043,2.015
						c0,1.98,0,3.515,0,3.515c-3.105,0-5.625-2.521-5.625-5.635C4.805,31.264,6.368,31.264,8.375,31.264"/>
					<path fill="#DBDBDB" d="M8.289,31.264c0.025,0.022,0.009,0.077,0.013,0.11c0.071,0.601,0.608,1.814,2.127,2.103
						c0,1.936,0,3.422,0,3.422c-3.105,0-5.625-2.521-5.625-5.635C4.805,31.264,6.323,31.264,8.289,31.264"/>
					<path fill="#D6D6D6" d="M8.195,31.264c0.026,0.022,0.011,0.08,0.016,0.115c0.122,0.882,0.868,1.945,2.218,2.196
						c0,1.888,0,3.323,0,3.323c-3.105,0-5.625-2.521-5.625-5.635C4.805,31.264,6.275,31.264,8.195,31.264"/>
					<path fill="#D1D1D1" d="M8.094,31.264c0.028,0.023,0.013,0.084,0.019,0.12c0.11,0.698,0.721,1.97,2.316,2.302
						c0,1.833,0,3.213,0,3.213c-3.105,0-5.625-2.521-5.625-5.635C4.805,31.264,6.224,31.264,8.094,31.264"/>
					<path fill="#CCCCCC" d="M7.984,31.264c0.023,0.02,0.012,0.069,0.017,0.099c0.152,0.908,0.88,2.093,2.429,2.444
						c0,1.771,0,3.092,0,3.092c-3.105,0-5.625-2.521-5.625-5.635C4.805,31.264,6.168,31.264,7.984,31.264"/>
					<path fill="#C7C7C7" d="M7.861,31.264c0.011,0.01,0.005,0.033,0.008,0.047c0.173,1.013,0.938,2.234,2.56,2.628
						c0,1.705,0,2.96,0,2.96c-3.105,0-5.625-2.521-5.625-5.635C4.805,31.264,6.107,31.264,7.861,31.264"/>
					<path fill="#C2C2C2" d="M7.727,31.264c0.019,0.016,0.011,0.056,0.015,0.08c0.197,1.042,1.006,2.309,2.688,2.737
						c0,1.632,0,2.817,0,2.817c-3.105,0-5.625-2.521-5.625-5.635C4.805,31.264,6.042,31.264,7.727,31.264"/>
					<path fill="#BDBDBD" d="M7.583,31.264c0.035,0.028,0.021,0.102,0.031,0.146c0.223,1.064,1.08,2.366,2.816,2.825
						c0,1.553,0,2.664,0,2.664c-3.105,0-5.625-2.521-5.625-5.635C4.805,31.264,5.971,31.264,7.583,31.264"/>
					<path fill="#B8B8B8" d="M7.432,31.264c0.037,0.029,0.023,0.107,0.033,0.153c0.115,0.536,0.67,2.336,2.965,2.977
						c0,1.469,0,2.505,0,2.505c-3.105,0-5.625-2.521-5.625-5.635C4.805,31.264,5.899,31.264,7.432,31.264"/>
					<path fill="#B2B2B2" d="M7.276,31.264c0.039,0.031,0.024,0.113,0.035,0.161c0.123,0.565,0.709,2.462,3.118,3.131
						c0,1.382,0,2.343,0,2.343c-3.105,0-5.625-2.521-5.625-5.635C4.805,31.264,5.825,31.264,7.276,31.264"/>
					<path fill="#ADADAD" d="M7.118,31.264c0.013,0.011,0.008,0.039,0.011,0.056c0.259,1.284,1.263,2.852,3.3,3.4
						c0,1.294,0,2.179,0,2.179c-3.105,0-5.625-2.521-5.625-5.635C4.805,31.264,5.751,31.264,7.118,31.264"/>
					<path fill="#A8A8A8" d="M6.958,31.264C7,31.298,6.984,31.388,6.996,31.441c0.097,0.445,0.717,2.706,3.434,3.443
						c0,1.203,0,2.014,0,2.014c-3.105,0-5.625-2.521-5.625-5.635C4.805,31.264,5.678,31.264,6.958,31.264"/>
					<path fill="#A3A3A3" d="M6.795,31.264c0.044,0.036,0.027,0.13,0.039,0.186c0.278,1.312,1.386,3.041,3.595,3.602
						c0,1.111,0,1.848,0,1.848c-3.105,0-5.625-2.521-5.625-5.635C4.805,31.264,5.605,31.264,6.795,31.264"/>
					<path fill="#9E9E9E" d="M6.629,31.264c0.046,0.037,0.028,0.136,0.041,0.194c0.287,1.363,1.444,3.166,3.759,3.761
						c0,1.017,0,1.68,0,1.68c-3.105,0-5.625-2.521-5.625-5.635C4.805,31.264,5.531,31.264,6.629,31.264"/>
					<path fill="#999999" d="M6.459,31.264c0.048,0.039,0.029,0.143,0.041,0.203c0.063,0.316,0.715,3.119,3.929,3.923
						c0,0.92,0,1.509,0,1.509c-3.105,0-5.625-2.521-5.625-5.635C4.805,31.264,5.457,31.264,6.459,31.264"/>
					<path fill="#949494" d="M6.283,31.264c0.05,0.041,0.029,0.148,0.041,0.212c0.321,1.646,1.714,3.55,4.106,4.091
						c0,0.817,0,1.332,0,1.332c-3.105,0-5.625-2.521-5.625-5.635C4.805,31.264,5.381,31.264,6.283,31.264"/>
					<path fill="#8F8F8F" d="M6.095,31.264c0.052,0.043,0.029,0.155,0.041,0.222c0.313,1.681,1.79,3.733,4.293,4.267
						c0,0.709,0,1.146,0,1.146c-3.105,0-5.625-2.521-5.625-5.635C4.805,31.264,5.302,31.264,6.095,31.264"/>
					<path fill="#8A8A8A" d="M5.891,31.264c0.054,0.046,0.028,0.163,0.04,0.232c0.216,1.263,1.435,3.818,4.499,4.456
						c0,0.591,0,0.946,0,0.946c-3.105,0-5.625-2.521-5.625-5.635C4.805,31.264,5.217,31.264,5.891,31.264"/>
					<path fill="#858585" d="M5.651,31.264c0.056,0.049,0.026,0.172,0.038,0.245c0.243,1.566,1.706,4.104,4.741,4.675
						c0,0.451,0,0.715,0,0.715c-3.105,0-5.625-2.521-5.625-5.635C4.805,31.264,5.121,31.264,5.651,31.264"/>
				</g>
			</g>
			<g enable-background="new    ">
				<defs>
					<path id="SVGID_17_" enable-background="new    " d="M71.194,8.737c2.21,0,4,0,4,0v22.526c0,0-1.79,0-4,0V8.737z"/>
				</defs>
				<clipPath id="SVGID_18_">
					<use xlink:href="#SVGID_17_"  overflow="visible"/>
				</clipPath>
				<g clip-path="url(#SVGID_18_)" enable-background="new    ">
					<path fill="#FFFFFF" d="M71.194,31.264V8.737c0.02,0,0.038,0,0.058,0v22.526C71.232,31.264,71.213,31.264,71.194,31.264"/>
					<path fill="#FFFFFF" d="M71.251,31.264V8.737c0.021,0,0.042,0,0.063,0v22.526C71.293,31.264,71.273,31.264,71.251,31.264"/>
					<path fill="#FFFFFF" d="M71.315,31.264V8.737c0.021,0,0.042,0,0.063,0v22.526C71.357,31.264,71.335,31.264,71.315,31.264"/>
					<path fill="#FFFFFF" d="M71.377,31.264V8.737c0.021,0,0.042,0,0.063,0v22.526C71.419,31.264,71.399,31.264,71.377,31.264"/>
					<path fill="#FFFFFF" d="M71.441,31.264V8.737c0.021,0,0.041,0,0.063,0v22.526C71.482,31.264,71.461,31.264,71.441,31.264"/>
					<path fill="#FFFFFF" d="M71.503,31.264V8.737c0.024,0,0.049,0,0.073,0v22.526C71.552,31.264,71.528,31.264,71.503,31.264"/>
					<path fill="#FFFFFF" d="M71.577,31.264V8.737c0.026,0,0.053,0,0.079,0v22.526C71.629,31.264,71.603,31.264,71.577,31.264"/>
					<path fill="#FFFFFF" d="M71.656,31.264V8.737c0.026,0,0.052,0,0.078,0v22.526C71.708,31.264,71.682,31.264,71.656,31.264"/>
					<path fill="#FFFFFF" d="M71.734,31.264V8.737c0.025,0,0.052,0,0.077,0v22.526C71.786,31.264,71.759,31.264,71.734,31.264"/>
					<path fill="#FFFFFF" d="M71.811,31.264V8.737c0.054,0,0.106,0,0.158,0v22.526C71.917,31.264,71.865,31.264,71.811,31.264"/>
					<path fill="#FFFFFF" d="M71.969,31.264V8.737c0.125,0,0.248,0,0.368,0v22.526C72.217,31.264,72.094,31.264,71.969,31.264"/>
					<path fill="#FFFFFF" d="M72.337,31.264V8.737c0.053,0,0.105,0,0.157,0v22.526C72.443,31.264,72.39,31.264,72.337,31.264"/>
					<path fill="#FFFFFF" d="M72.495,31.264V8.737c0.03,0,0.06,0,0.089,0v22.526C72.554,31.264,72.525,31.264,72.495,31.264"/>
					<path fill="#FFFFFF" d="M72.583,31.264V8.737c0.03,0,0.06,0,0.088,0v22.526C72.643,31.264,72.614,31.264,72.583,31.264"/>
					<path fill="#FFFFFF" d="M72.671,31.264V8.737c0.029,0,0.059,0,0.087,0v22.526C72.73,31.264,72.701,31.264,72.671,31.264"/>
					<path fill="#FFFFFF" d="M72.758,31.264V8.737c0.025,0,0.052,0,0.077,0v22.526C72.81,31.264,72.784,31.264,72.758,31.264"/>
					<path fill="#FFFFFF" d="M72.835,31.264V8.737c0.025,0,0.051,0,0.076,0v22.526C72.886,31.264,72.861,31.264,72.835,31.264"/>
					<path fill="#FFFFFF" d="M72.912,31.264V8.737c0.025,0,0.051,0,0.076,0v22.526C72.962,31.264,72.937,31.264,72.912,31.264"/>
					<path fill="#FFFFFF" d="M72.988,31.264V8.737c0.027,0,0.054,0,0.081,0v22.526C73.042,31.264,73.015,31.264,72.988,31.264"/>
					<path fill="#FFFFFF" d="M73.069,31.264V8.737c0.029,0,0.06,0,0.089,0v22.526C73.128,31.264,73.098,31.264,73.069,31.264"/>
					<path fill="#FFFFFF" d="M73.158,31.264V8.737c0.029,0,0.059,0,0.088,0v22.526C73.216,31.264,73.187,31.264,73.158,31.264"/>
					<path fill="#FFFFFF" d="M73.246,31.264V8.737c0.033,0,0.065,0,0.099,0v22.526C73.311,31.264,73.279,31.264,73.246,31.264"/>
					<path fill="#FAFAFA" d="M73.344,31.264V8.737c0.04,0,0.079,0,0.119,0v22.526C73.423,31.264,73.384,31.264,73.344,31.264"/>
					<path fill="#F5F5F5" d="M73.463,31.264V8.737c0.042,0,0.083,0,0.124,0v22.526C73.546,31.264,73.505,31.264,73.463,31.264"/>
					<path fill="#F0F0F0" d="M73.587,31.264V8.737c0.053,0,0.105,0,0.156,0v22.526C73.693,31.264,73.64,31.264,73.587,31.264"/>
					<path fill="#EBEBEB" d="M73.744,31.264V8.737c0.057,0,0.111,0,0.166,0v22.526C73.855,31.264,73.8,31.264,73.744,31.264"/>
					<path fill="#E5E5E5" d="M73.91,31.264V8.737c0.057,0,0.112,0,0.167,0v22.526C74.022,31.264,73.966,31.264,73.91,31.264"/>
					<path fill="#E0E0E0" d="M74.077,31.264V8.737c0.054,0,0.105,0,0.156,0v22.526C74.182,31.264,74.13,31.264,74.077,31.264"/>
					<path fill="#DBDBDB" d="M74.233,31.264V8.737c0.048,0,0.093,0,0.137,0v22.526C74.326,31.264,74.281,31.264,74.233,31.264"/>
					<path fill="#D6D6D6" d="M74.37,31.264V8.737c0.043,0,0.083,0,0.123,0v22.526C74.453,31.264,74.413,31.264,74.37,31.264"/>
					<path fill="#D1D1D1" d="M74.493,31.264V8.737c0.038,0,0.074,0,0.11,0v22.526C74.567,31.264,74.531,31.264,74.493,31.264"/>
					<path fill="#CCCCCC" d="M74.603,31.264V8.737c0.033,0,0.065,0,0.096,0v22.526C74.668,31.264,74.636,31.264,74.603,31.264"/>
					<path fill="#C7C7C7" d="M74.699,31.264V8.737c0.031,0,0.06,0,0.088,0v22.526C74.758,31.264,74.729,31.264,74.699,31.264"/>
					<path fill="#C2C2C2" d="M74.787,31.264V8.737c0.027,0,0.053,0,0.078,0v22.526C74.839,31.264,74.814,31.264,74.787,31.264"/>
					<path fill="#BDBDBD" d="M74.865,31.264V8.737c0.024,0,0.047,0,0.069,0v22.526C74.912,31.264,74.889,31.264,74.865,31.264"/>
					<path fill="#B8B8B8" d="M74.934,31.264V8.737c0.021,0,0.042,0,0.062,0v22.526C74.976,31.264,74.956,31.264,74.934,31.264"/>
					<path fill="#B2B2B2" d="M74.996,31.264V8.737c0.02,0,0.037,0,0.054,0v22.526C75.033,31.264,75.015,31.264,74.996,31.264"/>
					<path fill="#ADADAD" d="M75.049,31.264V8.737c0.018,0,0.033,0,0.047,0v22.526C75.083,31.264,75.067,31.264,75.049,31.264"/>
					<path fill="#A8A8A8" d="M75.096,31.264V8.737c0.015,0,0.027,0,0.038,0v22.526C75.124,31.264,75.111,31.264,75.096,31.264"/>
					<path fill="#A3A3A3" d="M75.134,31.264V8.737c0.012,0,0.022,0,0.03,0v22.526C75.157,31.264,75.146,31.264,75.134,31.264"/>
					<path fill="#9E9E9E" d="M75.165,31.264V8.737c0.009,0,0.016,0,0.021,0v22.526C75.18,31.264,75.173,31.264,75.165,31.264"/>
					<polyline fill="#999999" points="75.185,31.264 75.185,8.737 75.194,8.737 75.194,31.264 75.185,31.264 					"/>
					<polyline fill="#949494" points="75.194,31.264 75.194,8.737 75.194,8.737 75.194,31.264 75.194,31.264 					"/>
				</g>
			</g>
			<g>
				<path fill="#DDDDDD" d="M69.569,7.103c0.889-0.003,1.627,0.731,1.625,1.634c0,7.509,0,15.018,0,22.526
					c0.002,0.903-0.736,1.639-1.625,1.635c-19.713,0-39.426,0-59.139,0c-0.889,0.004-1.626-0.731-1.625-1.635
					c0-7.509,0-15.018,0-22.526C8.803,7.834,9.54,7.1,10.43,7.103C30.143,7.103,49.856,7.103,69.569,7.103z"/>
			</g>
		</g>
	</g>
</g>
</svg>
