<?xml version="1.0" encoding="utf-8"?>
<!-- Generator: Adobe Illustrator 15.0.2, SVG Export Plug-In . SVG Version: 6.00 Build 0)  -->
<!DOCTYPE svg PUBLIC "-//W3C//DTD SVG 1.1//EN" "http://www.w3.org/Graphics/SVG/1.1/DTD/svg11.dtd">
<svg version="1.1" id="Layer_1" xmlns="http://www.w3.org/2000/svg" xmlns:xlink="http://www.w3.org/1999/xlink" x="0px" y="0px"
	 width="50px" height="50px" viewBox="0 0 50 50" enable-background="new 0 0 50 50" xml:space="preserve">
<g>
	<g>
		<g enable-background="new    ">
			<g enable-background="new    ">
				<g>
					<defs>
						<path id="SVGID_1_" d="M41.997,25.003c0,9.382-7.61,17-17.001,17C34.387,42.003,41.997,34.385,41.997,25.003z"/>
					</defs>
					<clipPath id="SVGID_2_">
						<use xlink:href="#SVGID_1_"  overflow="visible"/>
					</clipPath>
					<g clip-path="url(#SVGID_2_)" enable-background="new    ">
						<path fill="#646D8D" d="M41.997,25.003c0,0.761-0.051,1.509-0.147,2.243C41.946,26.512,41.997,25.764,41.997,25.003"/>
						<path fill="#626A8A" d="M41.85,27.247c-0.117,0.887-0.302,1.752-0.551,2.591C41.548,28.999,41.732,28.133,41.85,27.247"/>
						<path fill="#5F6886" d="M41.299,29.837c-0.293,0.993-0.677,1.948-1.139,2.856C40.622,31.785,41.006,30.83,41.299,29.837"/>
						<path fill="#5C6583" d="M40.16,32.695c-2.809,5.521-8.544,9.308-15.164,9.308C31.618,42.003,37.354,38.216,40.16,32.695"/>
					</g>
				</g>
			</g>
			<g enable-background="new    ">
				<g>
					<defs>
						<path id="SVGID_3_" d="M24.997,24.109c0-8.896,0-16.106,0-16.106c9.391,0,17.001,7.61,17.001,17c0,9.382-7.61,17-17.001,17
							c-9.39,0-17-7.618-17-17c0-9.39,7.61-17,17-17C24.997,8.003,24.997,15.212,24.997,24.109
							c-0.477-0.009-0.904,0.416-0.894,0.894c-0.013,0.471,0.421,0.904,0.894,0.894c0.473,0.013,0.906-0.422,0.895-0.894
							C25.9,24.526,25.475,24.1,24.997,24.109z"/>
					</defs>
					<clipPath id="SVGID_4_">
						<use xlink:href="#SVGID_3_"  overflow="visible"/>
					</clipPath>
					<g clip-path="url(#SVGID_4_)" enable-background="new    ">
						<path fill="#B5BEE0" d="M24.997,24.109c0-8.896,0-16.106,0-16.106c9.391,0,17.001,7.61,17.001,17c0,9.382-7.61,17-17.001,17
							c-9.39,0-17-7.618-17-17c0-9.39,7.61-17,17-17C24.997,8.003,24.997,15.212,24.997,24.109
							c-0.477-0.009-0.904,0.416-0.894,0.894c-0.013,0.471,0.421,0.904,0.894,0.894c0.473,0.013,0.906-0.422,0.895-0.894
							C25.9,24.526,25.475,24.1,24.997,24.109"/>
						<path fill="#B5BEE0" d="M24.997,11.946c-0.232,1.751-0.232,1.751,0,2.408c0,2.707,0,6.088,0,9.755
							c-0.477-0.009-0.904,0.416-0.894,0.894c-0.013,0.471,0.421,0.904,0.894,0.894c0.473,0.013,0.906-0.422,0.895-0.894
							c0.01-0.478-0.416-0.903-0.895-0.894c0-3.667,0-7.048,0-9.755c0.085,0.226,0.201,0.527,0.286,0.753
							c1.211,2.462,11.406,17.304,14.511,10.301c2.977-6.717-5.7-16.993-12.718-15.062C25.722,10.72,25.09,11.584,24.997,11.946
							c0-2.457,0-3.943,0-3.943c9.391,0,17.001,7.61,17.001,17c0,9.382-7.61,17-17.001,17c-9.39,0-17-7.618-17-17
							c0-9.39,7.61-17,17-17C24.997,8.003,24.997,9.49,24.997,11.946"/>
						<path fill="#B3BCE0" d="M24.997,11.116c-1.068,2.508-1.156,2.712,0,4.985c0,2.358,0,5.093,0,8.009
							c-0.477-0.01-0.904,0.416-0.894,0.894c-0.013,0.471,0.421,0.905,0.894,0.894c0.473,0.012,0.906-0.423,0.895-0.894
							c0.01-0.478-0.416-0.904-0.895-0.894c0-2.915,0-5.649,0-8.009c0.135,0.242,0.316,0.563,0.451,0.803
							c5.983,9.158,13.216,14.923,14.837,7.565c1.932-8.769-9.34-17.437-14.876-13.71C25.273,10.851,25.061,10.966,24.997,11.116
							c0-1.957,0-3.113,0-3.113c9.391,0,17.001,7.61,17.001,17c0,9.382-7.61,17-17.001,17c-9.39,0-17-7.618-17-17
							c0-9.39,7.61-17,17-17C24.997,8.003,24.997,9.159,24.997,11.116"/>
						<path fill="#B1BADE" d="M24.997,10.643c-0.317,0.551-0.931,0.852-1.219,1.428c-0.24,0.48-0.24,1.215-0.24,1.492
							c0,0.988,0.49,2.334,1.458,4.001c0,2,0,4.215,0,6.547c-0.477-0.01-0.904,0.416-0.894,0.894
							c-0.013,0.471,0.421,0.905,0.894,0.894c0.473,0.012,0.906-0.423,0.895-0.894c0.01-0.478-0.416-0.904-0.895-0.894
							c0-2.331,0-4.547,0-6.547c0.057,0.084,0.131,0.195,0.188,0.279c12.658,17.269,14.895,9.256,15.28,6.389
							c0.678-5.063-2.378-9.257-4.291-10.937C30.209,8.054,25.176,10.331,24.997,10.643c0-1.669,0-2.64,0-2.64
							c9.391,0,17.001,7.61,17.001,17c0,9.382-7.61,17-17.001,17c-9.39,0-17-7.618-17-17c0-9.39,7.61-17,17-17
							C24.997,8.003,24.997,8.974,24.997,10.643"/>
						<path fill="#AEB7DD" d="M24.997,10.312c-0.137,0.239-0.554,0.324-0.791,0.463c-0.013,0.007-1.311,0.791-1.311,2.888
							c0,1.453,0.786,3.419,2.103,5.258c0,1.627,0,3.373,0,5.188c-0.477-0.009-0.904,0.416-0.894,0.894
							c-0.013,0.471,0.422,0.904,0.894,0.894c0.474,0.013,0.907-0.422,0.895-0.894c0.01-0.478-0.416-0.903-0.895-0.894
							c0-1.815,0-3.561,0-5.188c0.127,0.146,0.295,0.342,0.421,0.49c12.601,17.505,15.02,5.726,15.117,5.216
							c0.577-3.037-0.528-7.895-4.313-11.382C30.901,8.342,25.25,9.87,24.997,10.312c0-1.466,0-2.309,0-2.309
							c9.391,0,17.001,7.61,17.001,17c0,9.382-7.61,17-17.001,17c-9.39,0-17-7.618-17-17c0-9.39,7.61-17,17-17
							C24.997,8.003,24.997,8.847,24.997,10.312"/>
						<path fill="#ABB5DC" d="M24.997,10.048c-0.077,0.112-0.296,0.112-0.423,0.16c-0.023,0.009-2.342,0.918-2.342,3.597
							c0,1.347,0.479,3.556,2.766,6.433c0,1.24,0,2.537,0,3.872c-0.477-0.009-0.904,0.416-0.894,0.894
							c-0.013,0.471,0.421,0.904,0.894,0.894c0.473,0.013,0.906-0.422,0.895-0.894c0.01-0.478-0.416-0.903-0.895-0.894
							c0-1.334,0-2.631,0-3.872c0.104,0.109,0.243,0.255,0.346,0.364c7.355,8.268,7.355,8.268,9.461,8.776
							c5.066,1.221,5.814-4.006,5.913-5.066C41.946,11.059,26.346,8.094,24.997,10.048c0-1.302,0-2.045,0-2.045
							c9.391,0,17.001,7.61,17.001,17c0,9.382-7.61,17-17.001,17c-9.39,0-17-7.618-17-17c0-9.39,7.61-17,17-17
							C24.997,8.003,24.997,8.746,24.997,10.048"/>
						<path fill="#A7B2DA" d="M24.997,9.821c-0.18,0.262-0.691,0.268-0.989,0.384c-0.797,0.309-2.442,1.641-2.442,3.786
							c0,3.251,1.902,5.649,3.431,7.577c0,0.828,0,1.678,0,2.542c-0.477-0.01-0.904,0.416-0.894,0.894
							c-0.013,0.471,0.421,0.905,0.894,0.894c0.473,0.012,0.906-0.423,0.895-0.894c0.01-0.478-0.416-0.904-0.895-0.894
							c0-0.865,0-1.714,0-2.542c0.077,0.069,0.181,0.162,0.259,0.231c1.912,1.861,3.193,4.273,5.259,6.001
							c2.55,2.134,4.429,2.373,4.78,2.399c5.193,0.391,5.584-5.434,5.581-7.228c-0.005-1.827-0.55-6.521-5.52-10.635
							C30.822,8.58,25.211,9.506,24.997,9.821c0-1.162,0-1.817,0-1.817c9.391,0,17.001,7.61,17.001,17c0,9.382-7.61,17-17.001,17
							c-9.39,0-17-7.618-17-17c0-9.39,7.61-17,17-17C24.997,8.003,24.997,8.66,24.997,9.821"/>
						<path fill="#A3AED8" d="M24.997,9.62c-0.067,0.087-0.248,0.063-0.354,0.091c-1.513,0.388-3.765,1.912-3.765,4.518
							c0,1.76,0.535,5.229,4.119,8.684c0,0.396,0,0.795,0,1.197c-0.477-0.01-0.904,0.416-0.894,0.894
							c-0.013,0.471,0.421,0.905,0.894,0.894c0.473,0.012,0.906-0.423,0.895-0.894c0.01-0.478-0.416-0.904-0.895-0.894
							c0-0.402,0-0.802,0-1.197c0.048,0.03,0.113,0.069,0.162,0.099c1.123,0.815,1.123,0.815,2.017,2.491
							c1.353,2.539,5.857,5.659,8.613,5.37c4.299-0.449,5.626-5.097,5.035-9.503c-0.376-2.797-2.267-6.742-5.642-9.248
							C29.882,8.186,25.021,9.587,24.997,9.62c0-1.036,0-1.616,0-1.616c9.391,0,17.001,7.61,17.001,17c0,9.382-7.61,17-17.001,17
							c-9.39,0-17-7.618-17-17c0-9.39,7.61-17,17-17C24.997,8.003,24.997,8.583,24.997,9.62"/>
						<path fill="#98A5D4" d="M24.997,9.442c-0.206,0.271-0.766,0.211-1.094,0.302c-0.036,0.009-3.515,1.072-3.732,4.782
							c-0.159,2.698,1.267,5.577,2.49,7.518c0.639,1.014,0.897,2.191,1.403,3.262c0.007,0.016,6.764,4.901,7.026,5.044
							c2.216,1.211,3.988,1.183,4.322,1.165c6.419-0.349,8.128-12.001,0.993-18.466C30.767,7.942,25.026,9.402,24.997,9.442
							c0-0.924,0-1.439,0-1.439c9.391,0,17.001,7.61,17.001,17c0,9.382-7.61,17-17.001,17c-9.39,0-17-7.618-17-17
							c0-9.39,7.61-17,17-17C24.997,8.003,24.997,8.519,24.997,9.442"/>
						<path fill="#95A1CF" d="M24.997,9.275c-0.213,0.273-0.783,0.198-1.118,0.283c-1.739,0.439-3.553,2.02-4.043,3.523
							c-0.361,1.108-1.115,3.416,1.211,8.292c2.309,4.838,2.309,4.838,3.345,5.586c5.192,3.745,8.052,5.81,11.478,5.108
							c6.599-1.349,8.061-14.373-1.636-20.786C29.94,8.441,25.174,9.047,24.997,9.275c0-0.82,0-1.272,0-1.272
							c9.391,0,17.001,7.61,17.001,17c0,9.382-7.61,17-17.001,17c-9.39,0-17-7.618-17-17c0-9.39,7.61-17,17-17
							C24.997,8.003,24.997,8.457,24.997,9.275"/>
						<path fill="#929ECB" d="M24.997,9.117c-0.172,0.209-0.622,0.124-0.889,0.176c-0.828,0.165-3.636,0.942-4.966,4.029
							c-0.377,0.878-1.067,3.394,0.687,7.795c4.768,11.97,14.521,11.731,14.62,11.727c7.915-0.308,9.255-13.32,2.048-19.889
							C30.855,7.813,25.028,9.079,24.997,9.117c0-0.72,0-1.114,0-1.114c9.391,0,17.001,7.61,17.001,17c0,9.382-7.61,17-17.001,17
							c-9.39,0-17-7.618-17-17c0-9.39,7.61-17,17-17C24.997,8.003,24.997,8.397,24.997,9.117"/>
						<path fill="#909CC8" d="M24.997,8.968c-0.23,0.28-0.829,0.161-1.184,0.229c-1.752,0.34-4.051,1.709-5.051,3.666
							c-1.432,2.803-0.778,6.044,0.022,8.269c4.447,12.362,14.945,12.401,15.051,12.398c8.455-0.25,10.222-13.736,2.7-20.615
							C30.857,7.725,25.028,8.93,24.997,8.968c0-0.624,0-0.965,0-0.965c9.391,0,17.001,7.61,17.001,17c0,9.382-7.61,17-17.001,17
							c-9.39,0-17-7.618-17-17c0-9.39,7.61-17,17-17C24.997,8.003,24.997,8.344,24.997,8.968"/>
						<path fill="#8E9AC5" d="M24.997,8.823c-0.109,0.125-0.384,0.055-0.549,0.079c-2.857,0.411-5.04,1.889-6.489,4.394
							c-0.864,1.491-1.246,4.53-0.151,7.953c3.925,12.28,15.194,12.973,15.306,12.971c8.415-0.055,12.013-12.707,3.651-21.148
							C31.763,8.018,25.159,8.635,24.997,8.823c0-0.531,0-0.82,0-0.82c9.391,0,17.001,7.61,17.001,17c0,9.382-7.61,17-17.001,17
							c-9.39,0-17-7.618-17-17c0-9.39,7.61-17,17-17C24.997,8.003,24.997,8.292,24.997,8.823"/>
						<path fill="#8B97C2" d="M24.997,8.682c-0.242,0.283-0.858,0.134-1.227,0.191c-0.715,0.112-4.381,0.851-6.37,4.425
							c-2.004,3.604-0.663,7.755-0.158,9.319c2.716,8.403,11.273,12.793,16.212,12.241c8.778-0.981,11.58-15.037,2.174-22.855
							C30.847,8.029,25.124,8.533,24.997,8.682c0-0.441,0-0.679,0-0.679c9.391,0,17.001,7.61,17.001,17c0,9.382-7.61,17-17.001,17
							c-9.39,0-17-7.618-17-17c0-9.39,7.61-17,17-17C24.997,8.003,24.997,8.24,24.997,8.682"/>
						<path fill="#8995BF" d="M24.997,8.556c-0.054,0.059-0.185,0.018-0.265,0.025c-1.967,0.186-5.612,1.054-7.936,4.768
							c-0.996,1.592-1.905,4.489-0.579,9.242c2.278,8.164,10.428,13.398,16.317,12.989c9.498-0.66,13.03-15.355,3.119-23.609
							C30.897,8.011,25.127,8.413,24.997,8.556c0-0.36,0-0.552,0-0.552c9.391,0,17.001,7.61,17.001,17c0,9.382-7.61,17-17.001,17
							c-9.39,0-17-7.618-17-17c0-9.39,7.61-17,17-17C24.997,8.003,24.997,8.195,24.997,8.556"/>
						<path fill="#8792BB" d="M24.997,8.45c-0.255,0.288-0.891,0.107-1.272,0.153c-2.169,0.262-5.313,1.683-7.088,4.184
							c-1.837,2.588-2.332,5.786-1.472,9.509c1.974,8.535,10.006,14.124,16.27,13.988c10.656-0.229,14.019-15.375,5.213-23.486
							C31.036,7.631,25.028,8.416,24.997,8.45c0-0.292,0-0.447,0-0.447c9.391,0,17.001,7.61,17.001,17c0,9.382-7.61,17-17.001,17
							c-9.39,0-17-7.618-17-17c0-9.39,7.61-17,17-17C24.997,8.003,24.997,8.159,24.997,8.45"/>
						<path fill="#8490B8" d="M24.997,8.356c-0.257,0.287-0.892,0.103-1.275,0.147c-0.503,0.057-4.987,0.674-7.729,4.502
							c-1.966,2.746-2.494,6.147-1.568,10.113c2.085,8.936,10.757,14.442,17.235,13.793c10.415-1.043,14.572-16.155,4.027-24.984
							C30.842,7.869,25.024,8.325,24.997,8.356c0-0.231,0-0.354,0-0.354c9.391,0,17.001,7.61,17.001,17c0,9.382-7.61,17-17.001,17
							c-9.39,0-17-7.618-17-17c0-9.39,7.61-17,17-17C24.997,8.003,24.997,8.125,24.997,8.356"/>
						<path fill="#828DB5" d="M24.997,8.292c-0.166,0.178-0.566,0.041-0.81,0.058c-1.25,0.09-5.573,0.691-8.648,4.629
							c-2.06,2.639-2.746,6.017-2.039,10.041c1.402,7.984,9.181,14.801,16.645,14.584c12.729-0.369,15.23-16.816,6.532-24.836
							C31.071,7.598,25.029,8.257,24.997,8.292c0-0.189,0-0.289,0-0.289c9.391,0,17.001,7.61,17.001,17c0,9.382-7.61,17-17.001,17
							c-9.39,0-17-7.618-17-17c0-9.39,7.61-17,17-17C24.997,8.003,24.997,8.103,24.997,8.292"/>
						<path fill="#808BB2" d="M24.997,8.24c-0.271,0.293-0.927,0.078-1.324,0.112c-2.106,0.178-6.072,1.495-8.363,4.399
							c-2.49,3.155-3.271,6.538-2.53,10.967c1.213,7.246,8.426,14.8,17.23,14.493c11.729-0.407,16.034-16.824,6.68-25.458
							C31.057,7.554,25.028,8.205,24.997,8.24c0-0.156,0-0.236,0-0.236c9.391,0,17.001,7.61,17.001,17c0,9.382-7.61,17-17.001,17
							c-9.39,0-17-7.618-17-17c0-9.39,7.61-17,17-17C24.997,8.003,24.997,8.084,24.997,8.24"/>
						<path fill="#7D88AF" d="M24.997,8.192c-0.271,0.294-0.93,0.074-1.328,0.107c-1.639,0.13-5.814,0.878-9.176,4.988
							c-2.223,2.719-3.047,6.333-2.448,10.741c0.988,7.272,8.516,15.131,17.11,14.764c13.407-0.575,16.485-17.799,7.547-26.052
							C31.059,7.531,25.028,8.16,24.997,8.192c0-0.125,0-0.189,0-0.189c9.391,0,17.001,7.61,17.001,17c0,9.382-7.61,17-17.001,17
							c-9.39,0-17-7.618-17-17c0-9.39,7.61-17,17-17C24.997,8.003,24.997,8.068,24.997,8.192"/>
						<path fill="#7B86AB" d="M24.997,8.151c-0.273,0.294-0.932,0.071-1.333,0.101c-1.657,0.125-5.896,0.863-9.463,5.014
							c-1.098,1.278-3.575,4.883-2.857,10.768c0.935,7.66,8.17,15.625,17.452,15.278c12.786-0.479,17.814-17.371,7.915-26.581
							C31.212,7.618,25.029,8.117,24.997,8.151c9.391-0.148,17.001,7.461,17.001,16.852c0,9.382-7.61,17-17.001,17
							c-9.39,0-17-7.618-17-17c0-9.39,7.61-17,17-17C24.997,8.003,24.997,8.054,24.997,8.151"/>
						<path fill="#7883A8" d="M24.997,8.124c-0.233,0.246-0.791,0.044-1.128,0.063c-1.331,0.075-5.969,0.65-9.792,4.906
							c-1.186,1.32-3.883,5.024-3.336,10.905c0.808,8.683,8.845,16.048,17.2,15.764c14.385-0.491,18.139-18.382,8.778-27.038
							C31.081,7.513,25.029,8.091,24.997,8.124c9.391-0.121,17.001,7.489,17.001,16.879c0,9.382-7.61,17-17.001,17
							c-9.39,0-17-7.618-17-17c0-9.39,7.61-17,17-17C24.997,8.003,24.997,8.044,24.997,8.124"/>
						<path fill="#7680A5" d="M24.997,8.1c-0.28,0.298-0.952,0.057-1.361,0.082c-0.916,0.056-5.691,0.545-9.663,4.796
							c-0.977,1.045-4.13,4.92-3.737,10.923c0.576,8.786,8.298,16.231,16.862,16.257c13.745,0.042,19.896-17.019,9.823-27.246
							C31.791,7.7,25.032,8.062,24.997,8.1c9.391-0.097,17.001,7.513,17.001,16.903c0,9.382-7.61,17-17.001,17
							c-9.39,0-17-7.618-17-17c0-9.39,7.61-17,17-17C24.997,8.003,24.997,8.036,24.997,8.1"/>
						<path fill="#737EA1" d="M24.997,8.078c-0.282,0.298-0.957,0.055-1.366,0.077c-0.23,0.014-5.671,0.369-9.765,4.742
							c-4.227,4.516-4.133,9.829-4.003,11.351c0.804,9.455,8.661,16.569,17.887,16.196c13.6-0.55,19.306-18.173,8.978-27.73
							C31.078,7.485,25.029,8.045,24.997,8.078c9.391-0.074,17.001,7.535,17.001,16.926c0,9.382-7.61,17-17.001,17
							c-9.39,0-17-7.618-17-17c0-9.39,7.61-17,17-17C24.997,8.003,24.997,8.029,24.997,8.078"/>
						<path fill="#717B9E" d="M24.997,8.059c-0.284,0.299-0.96,0.051-1.371,0.074C16.464,8.514,9.094,15.074,9.533,24.231
							c0.481,10.03,9.195,16.629,17.032,16.499c15.585-0.256,20.09-18.835,10.167-28.02C31.08,7.478,25.029,8.026,24.997,8.059
							c9.391-0.056,17.001,7.554,17.001,16.945c0,9.382-7.61,17-17.001,17c-9.39,0-17-7.618-17-17c0-9.39,7.61-17,17-17
							C24.997,8.003,24.997,8.021,24.997,8.059"/>
						<path fill="#6E789B" d="M24.997,8.043c-0.284,0.299-0.963,0.049-1.375,0.069c-0.589,0.03-5.872,0.418-10.097,4.871
							c-2.914,3.071-4.466,7.312-4.256,11.635c0.44,9.12,8.371,16.595,17.317,16.326c15.439-0.467,19.952-19.16,10.148-28.238
							C31.08,7.473,25.029,8.01,24.997,8.043c9.391-0.039,17.001,7.57,17.001,16.961c0,9.382-7.61,17-17.001,17
							c-9.39,0-17-7.618-17-17c0-9.39,7.61-17,17-17C24.997,8.003,24.997,8.018,24.997,8.043"/>
						<path fill="#6C7597" d="M24.997,8.029c-0.285,0.3-0.965,0.046-1.38,0.066c-8.126,0.389-14.937,7.917-14.576,16.11
							c0.479,10.878,9.23,17.145,17.414,16.92c14.5-0.397,21.031-18.46,10.279-28.421C31.081,7.469,25.029,7.997,24.997,8.029
							c9.391-0.026,17.001,7.583,17.001,16.974c0,9.382-7.61,17-17.001,17c-9.39,0-17-7.618-17-17c0-9.39,7.61-17,17-17
							C24.997,8.003,24.997,8.012,24.997,8.029"/>
						<path fill="#B7BFE1" d="M36.438,26.461c-3.066-0.98-14.464-12.915-9.841-15.619c4.614-2.698,15.461,4.982,13.373,13.391
							C39.485,26.18,38.165,27.014,36.438,26.461"/>
						<path fill="#697394" d="M24.997,8.018c-0.287,0.3-0.967,0.044-1.381,0.063c-2.976,0.136-7.431,1.829-10.189,4.8
							c-4.324,4.659-4.66,9.359-4.535,12.49c0.266,6.754,6.47,16.041,17.422,15.909c10.144-0.124,18.962-10.861,14.405-22.754
							c0.823,1.996,1.279,4.184,1.279,6.477c0,9.381-7.61,17-17.001,17c-9.39,0-17-7.619-17-17c0-9.39,7.61-17,17-17
							C24.997,8.003,24.997,8.008,24.997,8.018"/>
						<path fill="#B9C1E2" d="M36.501,25.83c-3.304-1.211-8.923-9.157-8.971-9.234c-1.857-2.964-1.978-4.77-0.378-5.68
							c4.873-2.774,15.259,6.316,12.627,13.301C39.159,25.857,38.057,26.4,36.501,25.83"/>
						<path fill="#677091" d="M24.997,8.011c-0.288,0.3-0.969,0.042-1.384,0.061c-3.002,0.132-7.479,1.812-10.225,4.77
							c-2.149,2.314-4.969,6.146-4.649,12.677c0.391,7.979,7.834,16.462,17.893,15.879c9.846-0.572,16.751-9.517,15.077-19.531
							c0.189,1.017,0.289,2.065,0.289,3.136c0,9.382-7.61,17-17.001,17c-9.39,0-17-7.618-17-17c0-9.39,7.61-17,17-17
							C24.997,8.003,24.997,8.005,24.997,8.011"/>
						<path fill="#BBC3E3" d="M36.527,25.185C33.701,23.976,23.579,13.299,27.7,11.01c4.576-2.543,14.129,5.937,12.035,12.618
							C39.366,24.806,38.511,26.033,36.527,25.185"/>
						<path fill="#646D8D" d="M24.997,8.005c-0.288,0.301-0.97,0.041-1.386,0.059c-0.612,0.026-6.108,0.387-10.548,5.04
							c-1.783,1.868-4.736,5.925-4.488,12.109c0.324,8.091,7.208,16.626,17.764,16.311c5.962-0.18,15.483-4.921,15.654-16.882
							c0.003,0.121,0.004,0.242,0.004,0.362c0,9.382-7.61,17-17.001,17c-9.39,0-17-7.618-17-17c0-9.39,7.61-17,17-17
							C24.997,8.003,24.997,8.004,24.997,8.005"/>
						<path fill="#BDC4E4" d="M37.28,24.811c-2.892-0.62-12.97-11.789-9.033-13.685c4.715-2.273,13.043,6.417,11.424,11.918
							C39.498,23.631,39.038,25.188,37.28,24.811"/>
						<path fill="#626A8A" d="M24.997,8.003c-0.289,0.301-0.972,0.04-1.388,0.056c-3.465,0.142-7.887,2.167-10.287,4.71
							c-1.41,1.494-5.153,5.462-4.861,12.761c0.322,8.026,7.252,16.46,17.886,16.091c6.736-0.235,14.224-5.247,15.504-14.377
							c-1.099,8.324-8.223,14.758-16.853,14.758c-9.39,0-17-7.619-17-17C7.998,15.613,15.607,8.003,24.997,8.003L24.997,8.003"/>
						<path fill="#BFC6E5" d="M37.254,24.188c-2.388-0.643-12.34-11.086-8.469-12.927c4.018-1.911,12.673,5.992,10.667,11.582
							C39.264,23.373,38.819,24.61,37.254,24.188"/>
						<path fill="#C1C7E5" d="M37.196,23.557c-2.246-0.703-11.538-10.661-7.869-12.134c1.45-0.583,4.992,0.4,7.469,3.324
							c3.324,3.925,2.854,7.399,2.307,8.22C38.779,23.452,38.299,23.901,37.196,23.557"/>
						<path fill="#5F6886" d="M21.671,8.329C5.104,12.322,4.469,32.225,17.069,39.562c8.358,4.867,20.496,1.746,24.228-9.718
							c-2.085,7.028-8.594,12.159-16.3,12.159c-9.39,0-17-7.618-17-17c0-8.683,6.506-15.844,14.91-16.873
							C22.537,8.19,22.039,8.255,21.671,8.329"/>
						<path fill="#C2C8E6" d="M37.834,23.086c-2.512-0.559-5.642-4.43-7.826-7.581c-0.087-0.127-2.126-3.111-0.13-3.895
							c1.293-0.508,4.524,0.462,6.85,3.194c3.688,4.332,2.307,7.512,2.291,7.542C38.718,22.89,38.253,23.179,37.834,23.086"/>
						<path fill="#5C6583" d="M18.565,9.263C3.598,15.718,5.813,35.276,18.661,40.509c6.781,2.762,16.396,1.502,21.486-7.789
							c-2.813,5.508-8.54,9.283-15.15,9.283c-9.39,0-17-7.618-17-17c0-7.611,4.999-14.053,11.893-16.22l0,0
							C19.494,8.927,18.954,9.095,18.565,9.263"/>
						<path fill="#C4CAE7" d="M37.736,22.463c-2.124-0.11-9.36-8.388-7.923-10.23c1.476-1.895,8.587,1.801,9.278,7.777
							C39.122,20.27,39.339,22.545,37.736,22.463"/>
						<path fill="#C5CBE7" d="M37.661,21.837c-0.612,0.089-2.703-1.312-5.255-4.597c-1.899-2.448-2.581-4.056-2.024-4.778
							c1.474-1.911,8.227,2.263,8.533,7.494C39.015,21.642,38.168,21.765,37.661,21.837"/>
						<path fill="#C7CCE8" d="M37.402,21.146c-1.541-0.255-7.587-6.788-6.421-8.409c1.341-1.863,7.248,2.438,7.637,6.468
							C38.831,21.383,37.756,21.206,37.402,21.146"/>
						<path fill="#C8CEE8" d="M37.846,20.451c-0.672-0.008-1.592-0.019-4.13-3.026c-1.763-2.087-2.549-3.716-2.104-4.358
							c0.927-1.335,5.636,1.516,6.619,5.302c0.045,0.173,0.416,1.702-0.36,2.073C37.864,20.446,37.854,20.45,37.846,20.451"/>
						<path fill="#C9CFE9" d="M36.813,19.602c-0.576-0.182-2.204-1.693-3.441-3.372c-1.128-1.529-1.287-2.443-1.08-2.761
							c0.521-0.804,2.37,0.316,2.979,0.771c1.206,0.904,2.307,2.746,2.469,3.315c0.526,1.845,0.188,1.985-0.17,2.136
							C37.358,19.779,37.03,19.671,36.813,19.602"/>
						<path fill="#CBD0E9" d="M36.277,18.563c-0.616-0.276-3.693-3.681-3.185-4.543c0.58-0.986,3.605,1.007,4.343,3.712
							c0.091,0.329,0.054,0.982-0.266,1.104C36.911,18.938,36.534,18.677,36.277,18.563"/>
						<path fill="#CCD1EA" d="M35.777,17.269c-1.213-0.916-1.681-2.357-1.652-2.407c0.109-0.191,0.541-0.306,0.714-0.169
							c0.314,0.25,0.755,0.567,1.015,0.874c0.009,0.01,0.889,1.133,0.9,1.383c0.011,0.23-0.026,0.647-0.242,0.73
							C36.277,17.771,35.979,17.42,35.777,17.269"/>
						<path fill="#697394" d="M32.881,9.938c-1.594-0.757-4.002-1.901-7.884-1.919c3.29-0.015,6.362,0.919,8.964,2.537
							C33.637,10.37,33.212,10.11,32.881,9.938"/>
						<path fill="#677091" d="M29.907,8.723c-1.396-0.358-2.714-0.699-4.911-0.712c2.052-0.007,4.02,0.356,5.841,1.022
							C30.558,8.939,30.189,8.807,29.907,8.723"/>
						<path fill="#646D8D" d="M26.683,8.086c-0.505-0.041-1.18-0.077-1.687-0.081c1.087-0.001,2.149,0.1,3.18,0.294
							c-0.404-0.059-0.943-0.138-1.348-0.198C26.785,8.097,26.727,8.09,26.683,8.086"/>
						<path fill="#626A8A" d="M24.997,8.003c0.204,0,0.406,0.003,0.607,0.011C25.422,8.011,25.125,8.134,24.997,8.003"/>
					</g>
				</g>
			</g>
			<g>
				<path fill="#8893BD" d="M24.997,24.109c0.479-0.009,0.903,0.416,0.895,0.894c0.014,0.469-0.42,0.904-0.895,0.894
					c-0.473,0.013-0.906-0.422-0.894-0.894C24.093,24.526,24.519,24.1,24.997,24.109z"/>
			</g>
		</g>
	</g>
</g>
<g>
	<rect x="18.11" y="17.8" width="4.797" height="14.4"/>
	<polygon points="25.191,17.78 35.469,25 25.191,32.222 	"/>
</g>
</svg>
