<?xml version="1.0" encoding="utf-8"?>
<!-- Generator: Adobe Illustrator 15.0.2, SVG Export Plug-In . SVG Version: 6.00 Build 0)  -->
<!DOCTYPE svg PUBLIC "-//W3C//DTD SVG 1.1//EN" "http://www.w3.org/Graphics/SVG/1.1/DTD/svg11.dtd">
<svg version="1.1" id="Layer_1" xmlns="http://www.w3.org/2000/svg" xmlns:xlink="http://www.w3.org/1999/xlink" x="0px" y="0px"
	 width="750px" height="57.229px" viewBox="0 0 750 57.229" enable-background="new 0 0 750 57.229" xml:space="preserve">
<g>
	<rect x="3.463" y="3.241" fill="#ECE171" stroke="#000000" stroke-miterlimit="10" width="743.074" height="51.987"/>
	<text transform="matrix(1 0 0 1 12.3252 33.7698)" font-family="'Tahoma-Bold'" font-size="14">0</text>
	<text transform="matrix(1 0 0 1 83.3242 33.7698)" font-family="'Tahoma-Bold'" font-size="14">1</text>
	<text transform="matrix(1 0 0 1 724.3232 33.7698)" font-family="'Tahoma-Bold'" font-size="14">10</text>
	<text transform="matrix(1 0 0 1 155.041 33.7698)" font-family="'Tahoma-Bold'" font-size="14">2</text>
	<text transform="matrix(1 0 0 1 226.7588 33.7698)" font-family="'Tahoma-Bold'" font-size="14">3</text>
	<text transform="matrix(1 0 0 1 298.4766 33.7698)" font-family="'Tahoma-Bold'" font-size="14">4</text>
	<text transform="matrix(1 0 0 1 370.1934 33.7698)" font-family="'Tahoma-Bold'" font-size="14">5</text>
	<text transform="matrix(1 0 0 1 441.9111 33.7698)" font-family="'Tahoma-Bold'" font-size="14">6</text>
	<text transform="matrix(1 0 0 1 513.6279 33.7698)" font-family="'Tahoma-Bold'" font-size="14">7</text>
	<text transform="matrix(1 0 0 1 585.3457 33.7698)" font-family="'Tahoma-Bold'" font-size="14">8</text>
	<text transform="matrix(1 0 0 1 657.0635 33.7698)" font-family="'Tahoma-Bold'" font-size="14">9</text>
	<text transform="matrix(1 0 0 1 26.2144 33.7698)" font-family="'Tahoma-Bold'" font-size="14">cm</text>
	<g>
		<line fill="none" stroke="#000000" stroke-miterlimit="10" x1="15.97" y1="3.241" x2="15.97" y2="15.241"/>
		<line fill="none" stroke="#000000" stroke-miterlimit="10" x1="87.706" y1="3.241" x2="87.706" y2="15.241"/>
		<line fill="none" stroke="#000000" stroke-miterlimit="10" x1="159.441" y1="3.241" x2="159.441" y2="15.241"/>
		<line fill="none" stroke="#000000" stroke-miterlimit="10" x1="231.178" y1="3.241" x2="231.178" y2="15.241"/>
		<line fill="none" stroke="#000000" stroke-miterlimit="10" x1="302.912" y1="3.241" x2="302.912" y2="15.241"/>
		<line fill="none" stroke="#000000" stroke-miterlimit="10" x1="374.648" y1="3.241" x2="374.648" y2="15.241"/>
		<line fill="none" stroke="#000000" stroke-miterlimit="10" x1="446.385" y1="3.241" x2="446.385" y2="15.241"/>
		<line fill="none" stroke="#000000" stroke-miterlimit="10" x1="589.855" y1="3.241" x2="589.855" y2="15.241"/>
		<line fill="none" stroke="#000000" stroke-miterlimit="10" x1="518.121" y1="3.241" x2="518.121" y2="15.241"/>
		<line fill="none" stroke="#000000" stroke-miterlimit="10" x1="661.592" y1="3.241" x2="661.592" y2="15.241"/>
		<line fill="none" stroke="#000000" stroke-miterlimit="10" x1="733.328" y1="3.241" x2="733.328" y2="15.241"/>
		<line fill="none" stroke="#000000" stroke-miterlimit="10" x1="30.317" y1="3.241" x2="30.317" y2="12.241"/>
		<line fill="none" stroke="#000000" stroke-miterlimit="10" x1="44.664" y1="3.241" x2="44.664" y2="12.241"/>
		<line fill="none" stroke="#000000" stroke-miterlimit="10" x1="59.011" y1="3.241" x2="59.011" y2="12.241"/>
		<line fill="none" stroke="#000000" stroke-miterlimit="10" x1="73.359" y1="3.241" x2="73.359" y2="12.241"/>
		<line fill="none" stroke="#000000" stroke-miterlimit="10" x1="102.052" y1="3.241" x2="102.052" y2="12.241"/>
		<line fill="none" stroke="#000000" stroke-miterlimit="10" x1="116.4" y1="3.241" x2="116.4" y2="12.241"/>
		<line fill="none" stroke="#000000" stroke-miterlimit="10" x1="130.747" y1="3.241" x2="130.747" y2="12.241"/>
		<line fill="none" stroke="#000000" stroke-miterlimit="10" x1="145.094" y1="3.241" x2="145.094" y2="12.241"/>
		<line fill="none" stroke="#000000" stroke-miterlimit="10" x1="173.789" y1="3.241" x2="173.789" y2="12.241"/>
		<line fill="none" stroke="#000000" stroke-miterlimit="10" x1="188.135" y1="3.241" x2="188.135" y2="12.241"/>
		<line fill="none" stroke="#000000" stroke-miterlimit="10" x1="202.483" y1="3.241" x2="202.483" y2="12.241"/>
		<line fill="none" stroke="#000000" stroke-miterlimit="10" x1="216.83" y1="3.241" x2="216.83" y2="12.241"/>
		<line fill="none" stroke="#000000" stroke-miterlimit="10" x1="245.523" y1="3.241" x2="245.523" y2="12.241"/>
		<line fill="none" stroke="#000000" stroke-miterlimit="10" x1="259.871" y1="3.241" x2="259.871" y2="12.241"/>
		<line fill="none" stroke="#000000" stroke-miterlimit="10" x1="274.219" y1="3.241" x2="274.219" y2="12.241"/>
		<line fill="none" stroke="#000000" stroke-miterlimit="10" x1="288.566" y1="3.241" x2="288.566" y2="12.241"/>
		<line fill="none" stroke="#000000" stroke-miterlimit="10" x1="317.26" y1="3.241" x2="317.26" y2="12.241"/>
		<line fill="none" stroke="#000000" stroke-miterlimit="10" x1="331.607" y1="3.241" x2="331.607" y2="12.241"/>
		<line fill="none" stroke="#000000" stroke-miterlimit="10" x1="345.955" y1="3.241" x2="345.955" y2="12.241"/>
		<line fill="none" stroke="#000000" stroke-miterlimit="10" x1="360.301" y1="3.241" x2="360.301" y2="12.241"/>
		<line fill="none" stroke="#000000" stroke-miterlimit="10" x1="388.996" y1="3.241" x2="388.996" y2="12.241"/>
		<line fill="none" stroke="#000000" stroke-miterlimit="10" x1="403.344" y1="3.241" x2="403.344" y2="12.241"/>
		<line fill="none" stroke="#000000" stroke-miterlimit="10" x1="417.689" y1="3.241" x2="417.689" y2="12.241"/>
		<line fill="none" stroke="#000000" stroke-miterlimit="10" x1="432.037" y1="3.241" x2="432.037" y2="12.241"/>
		<line fill="none" stroke="#000000" stroke-miterlimit="10" x1="460.732" y1="3.241" x2="460.732" y2="12.241"/>
		<line fill="none" stroke="#000000" stroke-miterlimit="10" x1="475.078" y1="3.241" x2="475.078" y2="12.241"/>
		<line fill="none" stroke="#000000" stroke-miterlimit="10" x1="489.426" y1="3.241" x2="489.426" y2="12.241"/>
		<line fill="none" stroke="#000000" stroke-miterlimit="10" x1="503.773" y1="3.241" x2="503.773" y2="12.241"/>
		<line fill="none" stroke="#000000" stroke-miterlimit="10" x1="532.467" y1="3.241" x2="532.467" y2="12.241"/>
		<line fill="none" stroke="#000000" stroke-miterlimit="10" x1="546.814" y1="3.241" x2="546.814" y2="12.241"/>
		<line fill="none" stroke="#000000" stroke-miterlimit="10" x1="561.162" y1="3.241" x2="561.162" y2="12.241"/>
		<line fill="none" stroke="#000000" stroke-miterlimit="10" x1="575.51" y1="3.241" x2="575.51" y2="12.241"/>
		<line fill="none" stroke="#000000" stroke-miterlimit="10" x1="604.203" y1="3.241" x2="604.203" y2="12.241"/>
		<line fill="none" stroke="#000000" stroke-miterlimit="10" x1="618.551" y1="3.241" x2="618.551" y2="12.241"/>
		<line fill="none" stroke="#000000" stroke-miterlimit="10" x1="632.898" y1="3.241" x2="632.898" y2="12.241"/>
		<line fill="none" stroke="#000000" stroke-miterlimit="10" x1="647.244" y1="3.241" x2="647.244" y2="12.241"/>
		<line fill="none" stroke="#000000" stroke-miterlimit="10" x1="675.939" y1="3.241" x2="675.939" y2="12.241"/>
		<line fill="none" stroke="#000000" stroke-miterlimit="10" x1="690.287" y1="3.241" x2="690.287" y2="12.241"/>
		<line fill="none" stroke="#000000" stroke-miterlimit="10" x1="704.633" y1="3.241" x2="704.633" y2="12.241"/>
		<line fill="none" stroke="#000000" stroke-miterlimit="10" x1="718.98" y1="3.241" x2="718.98" y2="12.241"/>
		<line fill="none" stroke="#000000" stroke-miterlimit="10" x1="733.327" y1="55.229" x2="733.327" y2="43.229"/>
		<line fill="none" stroke="#000000" stroke-miterlimit="10" x1="661.592" y1="55.229" x2="661.592" y2="43.229"/>
		<line fill="none" stroke="#000000" stroke-miterlimit="10" x1="589.856" y1="55.229" x2="589.856" y2="43.229"/>
		<line fill="none" stroke="#000000" stroke-miterlimit="10" x1="518.119" y1="55.229" x2="518.119" y2="43.229"/>
		<line fill="none" stroke="#000000" stroke-miterlimit="10" x1="446.385" y1="55.229" x2="446.385" y2="43.229"/>
		<line fill="none" stroke="#000000" stroke-miterlimit="10" x1="374.649" y1="55.229" x2="374.649" y2="43.229"/>
		<line fill="none" stroke="#000000" stroke-miterlimit="10" x1="302.913" y1="55.229" x2="302.913" y2="43.229"/>
		<line fill="none" stroke="#000000" stroke-miterlimit="10" x1="159.442" y1="55.229" x2="159.442" y2="43.229"/>
		<line fill="none" stroke="#000000" stroke-miterlimit="10" x1="231.176" y1="55.229" x2="231.176" y2="43.229"/>
		<line fill="none" stroke="#000000" stroke-miterlimit="10" x1="87.706" y1="55.229" x2="87.706" y2="43.229"/>
		<line fill="none" stroke="#000000" stroke-miterlimit="10" x1="15.969" y1="55.229" x2="15.969" y2="43.229"/>
		<line fill="none" stroke="#000000" stroke-miterlimit="10" x1="718.98" y1="55.229" x2="718.98" y2="46.229"/>
		<line fill="none" stroke="#000000" stroke-miterlimit="10" x1="704.634" y1="55.229" x2="704.634" y2="46.229"/>
		<line fill="none" stroke="#000000" stroke-miterlimit="10" x1="690.286" y1="55.229" x2="690.286" y2="46.229"/>
		<line fill="none" stroke="#000000" stroke-miterlimit="10" x1="675.938" y1="55.229" x2="675.938" y2="46.229"/>
		<line fill="none" stroke="#000000" stroke-miterlimit="10" x1="647.245" y1="55.229" x2="647.245" y2="46.229"/>
		<line fill="none" stroke="#000000" stroke-miterlimit="10" x1="632.896" y1="55.229" x2="632.896" y2="46.229"/>
		<line fill="none" stroke="#000000" stroke-miterlimit="10" x1="618.551" y1="55.229" x2="618.551" y2="46.229"/>
		<line fill="none" stroke="#000000" stroke-miterlimit="10" x1="604.203" y1="55.229" x2="604.203" y2="46.229"/>
		<line fill="none" stroke="#000000" stroke-miterlimit="10" x1="575.509" y1="55.229" x2="575.509" y2="46.229"/>
		<line fill="none" stroke="#000000" stroke-miterlimit="10" x1="561.162" y1="55.229" x2="561.162" y2="46.229"/>
		<line fill="none" stroke="#000000" stroke-miterlimit="10" x1="546.814" y1="55.229" x2="546.814" y2="46.229"/>
		<line fill="none" stroke="#000000" stroke-miterlimit="10" x1="532.467" y1="55.229" x2="532.467" y2="46.229"/>
		<line fill="none" stroke="#000000" stroke-miterlimit="10" x1="503.773" y1="55.229" x2="503.773" y2="46.229"/>
		<line fill="none" stroke="#000000" stroke-miterlimit="10" x1="489.426" y1="55.229" x2="489.426" y2="46.229"/>
		<line fill="none" stroke="#000000" stroke-miterlimit="10" x1="475.078" y1="55.229" x2="475.078" y2="46.229"/>
		<line fill="none" stroke="#000000" stroke-miterlimit="10" x1="460.73" y1="55.229" x2="460.73" y2="46.229"/>
		<line fill="none" stroke="#000000" stroke-miterlimit="10" x1="432.037" y1="55.229" x2="432.037" y2="46.229"/>
		<line fill="none" stroke="#000000" stroke-miterlimit="10" x1="417.689" y1="55.229" x2="417.689" y2="46.229"/>
		<line fill="none" stroke="#000000" stroke-miterlimit="10" x1="403.342" y1="55.229" x2="403.342" y2="46.229"/>
		<line fill="none" stroke="#000000" stroke-miterlimit="10" x1="388.996" y1="55.229" x2="388.996" y2="46.229"/>
		<line fill="none" stroke="#000000" stroke-miterlimit="10" x1="360.301" y1="55.229" x2="360.301" y2="46.229"/>
		<line fill="none" stroke="#000000" stroke-miterlimit="10" x1="345.954" y1="55.229" x2="345.954" y2="46.229"/>
		<line fill="none" stroke="#000000" stroke-miterlimit="10" x1="331.608" y1="55.229" x2="331.608" y2="46.229"/>
		<line fill="none" stroke="#000000" stroke-miterlimit="10" x1="317.26" y1="55.229" x2="317.26" y2="46.229"/>
		<line fill="none" stroke="#000000" stroke-miterlimit="10" x1="288.565" y1="55.229" x2="288.565" y2="46.229"/>
		<line fill="none" stroke="#000000" stroke-miterlimit="10" x1="274.219" y1="55.229" x2="274.219" y2="46.229"/>
		<line fill="none" stroke="#000000" stroke-miterlimit="10" x1="259.872" y1="55.229" x2="259.872" y2="46.229"/>
		<line fill="none" stroke="#000000" stroke-miterlimit="10" x1="245.524" y1="55.229" x2="245.524" y2="46.229"/>
		<line fill="none" stroke="#000000" stroke-miterlimit="10" x1="216.831" y1="55.229" x2="216.831" y2="46.229"/>
		<line fill="none" stroke="#000000" stroke-miterlimit="10" x1="202.483" y1="55.229" x2="202.483" y2="46.229"/>
		<line fill="none" stroke="#000000" stroke-miterlimit="10" x1="188.135" y1="55.229" x2="188.135" y2="46.229"/>
		<line fill="none" stroke="#000000" stroke-miterlimit="10" x1="173.788" y1="55.229" x2="173.788" y2="46.229"/>
		<line fill="none" stroke="#000000" stroke-miterlimit="10" x1="145.094" y1="55.229" x2="145.094" y2="46.229"/>
		<line fill="none" stroke="#000000" stroke-miterlimit="10" x1="130.747" y1="55.229" x2="130.747" y2="46.229"/>
		<line fill="none" stroke="#000000" stroke-miterlimit="10" x1="116.399" y1="55.229" x2="116.399" y2="46.229"/>
		<line fill="none" stroke="#000000" stroke-miterlimit="10" x1="102.053" y1="55.229" x2="102.053" y2="46.229"/>
		<line fill="none" stroke="#000000" stroke-miterlimit="10" x1="73.358" y1="55.229" x2="73.358" y2="46.229"/>
		<line fill="none" stroke="#000000" stroke-miterlimit="10" x1="59.01" y1="55.229" x2="59.01" y2="46.229"/>
		<line fill="none" stroke="#000000" stroke-miterlimit="10" x1="44.665" y1="55.229" x2="44.665" y2="46.229"/>
		<line fill="none" stroke="#000000" stroke-miterlimit="10" x1="30.317" y1="55.229" x2="30.317" y2="46.229"/>
	</g>
</g>
</svg>
