<?xml version="1.0" encoding="utf-8"?>
<!-- Generator: Adobe Illustrator 15.0.2, SVG Export Plug-In . SVG Version: 6.00 Build 0)  -->
<!DOCTYPE svg PUBLIC "-//W3C//DTD SVG 1.1//EN" "http://www.w3.org/Graphics/SVG/1.1/DTD/svg11.dtd">
<svg version="1.1" id="Layer_1" xmlns="http://www.w3.org/2000/svg" xmlns:xlink="http://www.w3.org/1999/xlink" x="0px" y="0px"
	 width="391.515px" height="57.229px" viewBox="0 0 391.515 57.229" enable-background="new 0 0 391.515 57.229"
	 xml:space="preserve">
<rect x="3.463" y="3.241" fill="#ECE171" stroke="#000000" stroke-miterlimit="10" width="385.533" height="51.988"/>
<text transform="matrix(1 0 0 1 12.3252 33.7695)" font-family="'Tahoma-Bold'" font-size="14">0</text>
<text transform="matrix(1 0 0 1 83.3242 33.7695)" font-family="'Tahoma-Bold'" font-size="14">1</text>
<text transform="matrix(1 0 0 1 155.041 33.7695)" font-family="'Tahoma-Bold'" font-size="14">2</text>
<text transform="matrix(1 0 0 1 226.7588 33.7695)" font-family="'Tahoma-Bold'" font-size="14">3</text>
<text transform="matrix(1 0 0 1 298.4766 33.7695)" font-family="'Tahoma-Bold'" font-size="14">4</text>
<text transform="matrix(1 0 0 1 370.1934 33.7695)" font-family="'Tahoma-Bold'" font-size="14">5</text>
<text transform="matrix(1 0 0 1 26.2144 33.7695)" font-family="'Tahoma-Bold'" font-size="14">cm</text>
<line fill="none" stroke="#000000" stroke-miterlimit="10" x1="15.97" y1="3.241" x2="15.97" y2="15.241"/>
<line fill="none" stroke="#000000" stroke-miterlimit="10" x1="87.706" y1="3.241" x2="87.706" y2="15.241"/>
<line fill="none" stroke="#000000" stroke-miterlimit="10" x1="159.441" y1="3.241" x2="159.441" y2="15.241"/>
<line fill="none" stroke="#000000" stroke-miterlimit="10" x1="231.178" y1="3.241" x2="231.178" y2="15.241"/>
<line fill="none" stroke="#000000" stroke-miterlimit="10" x1="302.912" y1="3.241" x2="302.912" y2="15.241"/>
<line fill="none" stroke="#000000" stroke-miterlimit="10" x1="374.648" y1="3.241" x2="374.648" y2="15.241"/>
<line fill="none" stroke="#000000" stroke-miterlimit="10" x1="30.317" y1="3.241" x2="30.317" y2="12.241"/>
<line fill="none" stroke="#000000" stroke-miterlimit="10" x1="44.664" y1="3.241" x2="44.664" y2="12.241"/>
<line fill="none" stroke="#000000" stroke-miterlimit="10" x1="59.011" y1="3.241" x2="59.011" y2="12.241"/>
<line fill="none" stroke="#000000" stroke-miterlimit="10" x1="73.359" y1="3.241" x2="73.359" y2="12.241"/>
<line fill="none" stroke="#000000" stroke-miterlimit="10" x1="102.052" y1="3.241" x2="102.052" y2="12.241"/>
<line fill="none" stroke="#000000" stroke-miterlimit="10" x1="116.4" y1="3.241" x2="116.4" y2="12.241"/>
<line fill="none" stroke="#000000" stroke-miterlimit="10" x1="130.747" y1="3.241" x2="130.747" y2="12.241"/>
<line fill="none" stroke="#000000" stroke-miterlimit="10" x1="145.094" y1="3.241" x2="145.094" y2="12.241"/>
<line fill="none" stroke="#000000" stroke-miterlimit="10" x1="173.789" y1="3.241" x2="173.789" y2="12.241"/>
<line fill="none" stroke="#000000" stroke-miterlimit="10" x1="188.135" y1="3.241" x2="188.135" y2="12.241"/>
<line fill="none" stroke="#000000" stroke-miterlimit="10" x1="202.483" y1="3.241" x2="202.483" y2="12.241"/>
<line fill="none" stroke="#000000" stroke-miterlimit="10" x1="216.83" y1="3.241" x2="216.83" y2="12.241"/>
<line fill="none" stroke="#000000" stroke-miterlimit="10" x1="245.523" y1="3.241" x2="245.523" y2="12.241"/>
<line fill="none" stroke="#000000" stroke-miterlimit="10" x1="259.871" y1="3.241" x2="259.871" y2="12.241"/>
<line fill="none" stroke="#000000" stroke-miterlimit="10" x1="274.219" y1="3.241" x2="274.219" y2="12.241"/>
<line fill="none" stroke="#000000" stroke-miterlimit="10" x1="288.566" y1="3.241" x2="288.566" y2="12.241"/>
<line fill="none" stroke="#000000" stroke-miterlimit="10" x1="317.26" y1="3.241" x2="317.26" y2="12.241"/>
<line fill="none" stroke="#000000" stroke-miterlimit="10" x1="331.607" y1="3.241" x2="331.607" y2="12.241"/>
<line fill="none" stroke="#000000" stroke-miterlimit="10" x1="345.955" y1="3.241" x2="345.955" y2="12.241"/>
<line fill="none" stroke="#000000" stroke-miterlimit="10" x1="360.301" y1="3.241" x2="360.301" y2="12.241"/>
<line fill="none" stroke="#000000" stroke-miterlimit="10" x1="388.996" y1="3.241" x2="388.996" y2="12.241"/>
<line fill="none" stroke="#000000" stroke-miterlimit="10" x1="374.649" y1="55.229" x2="374.649" y2="43.229"/>
<line fill="none" stroke="#000000" stroke-miterlimit="10" x1="302.913" y1="55.229" x2="302.913" y2="43.229"/>
<line fill="none" stroke="#000000" stroke-miterlimit="10" x1="159.442" y1="55.229" x2="159.442" y2="43.229"/>
<line fill="none" stroke="#000000" stroke-miterlimit="10" x1="231.176" y1="55.229" x2="231.176" y2="43.229"/>
<line fill="none" stroke="#000000" stroke-miterlimit="10" x1="87.706" y1="55.229" x2="87.706" y2="43.229"/>
<line fill="none" stroke="#000000" stroke-miterlimit="10" x1="15.969" y1="55.229" x2="15.969" y2="43.229"/>
<line fill="none" stroke="#000000" stroke-miterlimit="10" x1="388.996" y1="55.229" x2="388.996" y2="46.229"/>
<line fill="none" stroke="#000000" stroke-miterlimit="10" x1="360.301" y1="55.229" x2="360.301" y2="46.229"/>
<line fill="none" stroke="#000000" stroke-miterlimit="10" x1="345.954" y1="55.229" x2="345.954" y2="46.229"/>
<line fill="none" stroke="#000000" stroke-miterlimit="10" x1="331.608" y1="55.229" x2="331.608" y2="46.229"/>
<line fill="none" stroke="#000000" stroke-miterlimit="10" x1="317.26" y1="55.229" x2="317.26" y2="46.229"/>
<line fill="none" stroke="#000000" stroke-miterlimit="10" x1="288.565" y1="55.229" x2="288.565" y2="46.229"/>
<line fill="none" stroke="#000000" stroke-miterlimit="10" x1="274.219" y1="55.229" x2="274.219" y2="46.229"/>
<line fill="none" stroke="#000000" stroke-miterlimit="10" x1="259.872" y1="55.229" x2="259.872" y2="46.229"/>
<line fill="none" stroke="#000000" stroke-miterlimit="10" x1="245.524" y1="55.229" x2="245.524" y2="46.229"/>
<line fill="none" stroke="#000000" stroke-miterlimit="10" x1="216.831" y1="55.229" x2="216.831" y2="46.229"/>
<line fill="none" stroke="#000000" stroke-miterlimit="10" x1="202.483" y1="55.229" x2="202.483" y2="46.229"/>
<line fill="none" stroke="#000000" stroke-miterlimit="10" x1="188.135" y1="55.229" x2="188.135" y2="46.229"/>
<line fill="none" stroke="#000000" stroke-miterlimit="10" x1="173.788" y1="55.229" x2="173.788" y2="46.229"/>
<line fill="none" stroke="#000000" stroke-miterlimit="10" x1="145.094" y1="55.229" x2="145.094" y2="46.229"/>
<line fill="none" stroke="#000000" stroke-miterlimit="10" x1="130.747" y1="55.229" x2="130.747" y2="46.229"/>
<line fill="none" stroke="#000000" stroke-miterlimit="10" x1="116.399" y1="55.229" x2="116.399" y2="46.229"/>
<line fill="none" stroke="#000000" stroke-miterlimit="10" x1="102.053" y1="55.229" x2="102.053" y2="46.229"/>
<line fill="none" stroke="#000000" stroke-miterlimit="10" x1="73.358" y1="55.229" x2="73.358" y2="46.229"/>
<line fill="none" stroke="#000000" stroke-miterlimit="10" x1="59.01" y1="55.229" x2="59.01" y2="46.229"/>
<line fill="none" stroke="#000000" stroke-miterlimit="10" x1="44.665" y1="55.229" x2="44.665" y2="46.229"/>
<line fill="none" stroke="#000000" stroke-miterlimit="10" x1="30.317" y1="55.229" x2="30.317" y2="46.229"/>
</svg>
