<?xml version="1.0" encoding="utf-8"?>
<!-- Generator: Adobe Illustrator 15.0.2, SVG Export Plug-In . SVG Version: 6.00 Build 0)  -->
<!DOCTYPE svg PUBLIC "-//W3C//DTD SVG 1.1//EN" "http://www.w3.org/Graphics/SVG/1.1/DTD/svg11.dtd">
<svg version="1.1" id="Layer_1" xmlns="http://www.w3.org/2000/svg" xmlns:xlink="http://www.w3.org/1999/xlink" x="0px" y="0px"
	 width="30px" height="30px" viewBox="0 0 30 30" enable-background="new 0 0 30 30" xml:space="preserve">
<g>
	<g>
		<g enable-background="new    ">
			<g enable-background="new    ">
				<defs>
					<polygon id="SVGID_1_" enable-background="new    " points="6.997,7.003 6.982,6.998 6.997,6.998 					"/>
				</defs>
				<clipPath id="SVGID_2_">
					<use xlink:href="#SVGID_1_"  overflow="visible"/>
				</clipPath>
				<g clip-path="url(#SVGID_2_)" enable-background="new    ">
					<polyline fill="#D5D5D5" points="6.997,7.003 6.982,6.998 6.997,6.998 6.997,7.003 					"/>
					<polyline fill="#D5D5D5" points="6.99,7 6.982,6.998 6.992,6.999 6.992,6.999 6.997,7.002 6.997,7.003 6.994,7.001 6.99,7 
											"/>
					<g>
						<polyline fill="#D2D2D2" points="6.982,6.998 6.987,6.999 6.987,6.999 6.988,7 6.984,6.999 6.982,6.998 						"/>
						<polyline fill="#D2D2D2" points="6.995,7.002 6.997,7.003 6.997,7.003 6.995,7.002 						"/>
					</g>
					<polyline fill="#CECECE" points="6.995,7.002 6.997,7.003 6.997,7.003 6.995,7.002 					"/>
					<polyline fill="#CBCBCB" points="6.995,7.002 6.997,7.003 6.997,7.003 6.995,7.002 					"/>
					<polyline fill="#C7C7C7" points="6.995,7.002 6.997,7.003 6.997,7.003 6.995,7.002 					"/>
					<polyline fill="#C4C4C4" points="6.995,7.002 6.997,7.003 6.997,7.003 6.995,7.002 					"/>
					<polyline fill="#C0C0C0" points="6.995,7.002 6.997,7.003 6.997,7.003 6.995,7.002 					"/>
					<polyline fill="#BCBCBC" points="6.996,7.002 6.997,7.003 6.997,7.003 6.996,7.002 					"/>
					<polyline fill="#B9B9B9" points="6.996,7.002 6.997,7.003 6.997,7.003 6.996,7.002 					"/>
					<polyline fill="#B5B5B5" points="6.996,7.002 6.997,7.003 6.997,7.003 6.996,7.002 					"/>
					<polyline fill="#B2B2B2" points="6.996,7.002 6.997,7.003 6.997,7.003 6.996,7.002 					"/>
					<polyline fill="#AEAEAE" points="6.996,7.002 6.997,7.003 6.997,7.003 6.996,7.002 					"/>
					<polyline fill="#AAAAAA" points="6.996,7.002 6.997,7.003 6.997,7.003 6.996,7.002 					"/>
					<polyline fill="#A7A7A7" points="6.996,7.002 6.997,7.003 6.997,7.003 6.996,7.002 					"/>
					<polyline fill="#A3A3A3" points="6.996,7.002 6.997,7.003 6.997,7.003 6.996,7.002 					"/>
					<polyline fill="#A0A0A0" points="6.996,7.002 6.997,7.003 6.997,7.003 6.996,7.002 					"/>
					<polyline fill="#9C9C9C" points="6.996,7.002 6.997,7.003 6.996,7.002 					"/>
					<polyline fill="#999999" points="6.996,7.002 6.997,7.003 6.996,7.002 					"/>
					<polyline fill="#959595" points="6.997,7.002 6.997,7.003 6.997,7.002 					"/>
					<polyline fill="#919191" points="6.997,7.003 6.997,7.003 6.997,7.003 					"/>
					<polyline fill="#8E8E8E" points="6.997,7.003 6.997,7.003 6.997,7.003 					"/>
				</g>
			</g>
			<g enable-background="new    ">
				<defs>
					<polygon id="SVGID_3_" enable-background="new    " points="23.003,22.996 23.011,23 23.002,23 					"/>
				</defs>
				<clipPath id="SVGID_4_">
					<use xlink:href="#SVGID_3_"  overflow="visible"/>
				</clipPath>
				<g clip-path="url(#SVGID_4_)" enable-background="new    ">
					<polyline fill="#DCDCDC" points="23.003,22.996 23.011,23 23.002,23 23.003,22.996 					"/>
					<g>
						<polyline fill="#DCDCDC" points="23.009,22.999 23.011,23 23.007,23 23.002,23 23.003,22.996 23.005,22.998 23.009,22.999 
													"/>
						<polyline fill="#DCDCDC" points="23.004,22.996 23.003,22.996 23.003,22.996 23.004,22.996 						"/>
					</g>
					<g>
						<polyline fill="#D9D9D9" points="23.009,22.999 23.011,23 23.007,23 23.004,23 23.005,23 23.007,22.998 23.008,22.999 
							23.009,22.999 						"/>
						<polyline fill="#D9D9D9" points="23.004,22.996 23.003,22.996 23.003,22.996 23.004,22.996 						"/>
					</g>
					<g>
						<polyline fill="#D5D5D5" points="23.011,23 23.01,23 23.01,23 23.01,23 23.011,23 						"/>
						<polyline fill="#D5D5D5" points="23.004,22.996 23.003,22.996 23.003,22.996 23.004,22.996 						"/>
					</g>
					<polyline fill="#D2D2D2" points="23.004,22.996 23.003,22.996 23.003,22.996 23.004,22.996 					"/>
					<polyline fill="#CECECE" points="23.004,22.996 23.003,22.996 23.003,22.996 23.004,22.996 					"/>
					<polyline fill="#CBCBCB" points="23.004,22.996 23.003,22.996 23.003,22.996 23.004,22.996 					"/>
					<polyline fill="#C7C7C7" points="23.004,22.996 23.003,22.996 23.003,22.996 23.004,22.996 					"/>
					<polyline fill="#C4C4C4" points="23.004,22.996 23.003,22.996 23.003,22.996 23.004,22.996 					"/>
					<polyline fill="#C0C0C0" points="23.004,22.996 23.003,22.996 23.003,22.996 23.004,22.996 					"/>
					<polyline fill="#BCBCBC" points="23.004,22.996 23.003,22.996 23.003,22.996 23.004,22.996 					"/>
					<polyline fill="#B9B9B9" points="23.004,22.996 23.003,22.996 23.003,22.996 23.004,22.996 					"/>
					<polyline fill="#B5B5B5" points="23.004,22.996 23.003,22.996 23.003,22.996 23.004,22.996 					"/>
					<polyline fill="#B2B2B2" points="23.003,22.996 23.003,22.996 23.003,22.996 23.003,22.996 					"/>
					<polyline fill="#AEAEAE" points="23.003,22.996 23.003,22.996 23.003,22.996 23.003,22.996 					"/>
					<polyline fill="#AAAAAA" points="23.003,22.996 23.003,22.996 23.003,22.996 23.003,22.996 					"/>
					<polyline fill="#A7A7A7" points="23.003,22.996 23.003,22.996 23.003,22.996 23.003,22.996 					"/>
					<polyline fill="#A3A3A3" points="23.003,22.996 23.003,22.996 23.003,22.996 23.003,22.996 					"/>
					<polyline fill="#A0A0A0" points="23.003,22.996 23.003,22.996 23.003,22.996 23.003,22.996 					"/>
					<polyline fill="#9C9C9C" points="23.003,22.996 23.003,22.996 23.003,22.996 23.003,22.996 					"/>
					<polyline fill="#999999" points="23.003,22.996 23.003,22.996 23.003,22.996 23.003,22.996 					"/>
					<polyline fill="#959595" points="23.003,22.996 23.003,22.996 23.003,22.996 23.003,22.996 					"/>
					<polyline fill="#919191" points="23.003,22.996 23.003,22.996 23.003,22.996 					"/>
					<polyline fill="#8E8E8E" points="23.003,22.996 23.003,22.996 23.003,22.996 					"/>
					<polyline fill="#8A8A8A" points="23.003,22.996 23.003,22.996 23.003,22.996 					"/>
					<polyline fill="#878787" points="23.003,22.996 23.003,22.996 23.003,22.996 					"/>
				</g>
			</g>
			<g enable-background="new    ">
				<defs>
					<polygon id="SVGID_5_" enable-background="new    " points="23.002,6.998 23.011,6.998 23.003,7.001 					"/>
				</defs>
				<clipPath id="SVGID_6_">
					<use xlink:href="#SVGID_5_"  overflow="visible"/>
				</clipPath>
				<g clip-path="url(#SVGID_6_)" enable-background="new    ">
					<polyline fill="#D5D5D5" points="23.002,6.998 23.011,6.998 23.003,7.001 23.002,6.998 					"/>
					<g>
						<polyline fill="#D5D5D5" points="23.003,7.001 23.003,7.001 23.004,7.001 23.003,7.001 						"/>
						<polyline fill="#D5D5D5" points="23.011,6.998 23.009,6.999 23.007,6.999 23.007,6.998 23.011,6.998 						"/>
					</g>
					<polyline fill="#D2D2D2" points="23.003,7.001 23.003,7.001 23.004,7.001 23.003,7.001 					"/>
					<polyline fill="#CECECE" points="23.003,7.001 23.003,7.001 23.004,7.001 23.003,7.001 					"/>
					<polyline fill="#CBCBCB" points="23.003,7.001 23.003,7.001 23.003,7.001 23.003,7.001 					"/>
					<polyline fill="#C7C7C7" points="23.003,7.001 23.003,7.001 23.003,7.001 23.003,7.001 					"/>
					<polyline fill="#C4C4C4" points="23.003,7.001 23.003,7.001 23.003,7.001 					"/>
					<polyline fill="#C0C0C0" points="23.003,7.001 23.003,7.001 23.003,7.001 					"/>
					<polyline fill="#BCBCBC" points="23.003,7.001 23.003,7.001 23.003,7.001 					"/>
					<polyline fill="#B9B9B9" points="23.003,7.001 23.003,7.001 23.003,7.001 					"/>
					<polyline fill="#B5B5B5" points="23.003,7.001 23.003,7.001 23.003,7.001 					"/>
					<polyline fill="#B2B2B2" points="23.003,7.001 23.003,7.001 23.003,7.001 					"/>
					<polyline fill="#AEAEAE" points="23.003,7.001 23.003,7.001 23.003,7.001 					"/>
					<polyline fill="#AAAAAA" points="23.003,7.001 23.003,7.001 23.003,7.001 					"/>
					<polyline fill="#A7A7A7" points="23.003,7.001 23.003,7.001 23.003,7.001 					"/>
				</g>
			</g>
			<g enable-background="new    ">
				<defs>
					<polygon id="SVGID_7_" enable-background="new    " points="6.997,23 6.984,22.999 6.997,22.995 					"/>
				</defs>
				<clipPath id="SVGID_8_">
					<use xlink:href="#SVGID_7_"  overflow="visible"/>
				</clipPath>
				<g clip-path="url(#SVGID_8_)" enable-background="new    ">
					<polyline fill="#D9D9D9" points="6.997,23 6.984,22.999 6.997,22.995 6.997,23 					"/>
					<g>
						<polyline fill="#D9D9D9" points="6.997,22.995 6.997,22.995 6.995,22.996 6.997,22.995 						"/>
						<polyline fill="#D9D9D9" points="6.984,22.999 6.995,22.996 6.995,22.996 6.996,23 6.99,22.999 6.984,22.999 						"/>
					</g>
					<g>
						<polyline fill="#D5D5D5" points="6.997,22.995 6.997,22.995 6.995,22.996 6.997,22.995 						"/>
						<polyline fill="#D5D5D5" points="6.984,22.999 6.99,22.998 6.99,22.998 6.99,22.999 6.984,22.999 6.984,22.999 						"/>
					</g>
					<g>
						<polyline fill="#D2D2D2" points="6.997,22.995 6.997,22.995 6.995,22.996 6.997,22.995 						"/>
						<polyline fill="#D2D2D2" points="6.984,22.999 6.985,22.999 6.985,22.999 6.984,22.999 						"/>
					</g>
					<polyline fill="#CECECE" points="6.997,22.995 6.997,22.995 6.995,22.996 6.997,22.995 					"/>
					<polyline fill="#CBCBCB" points="6.997,22.995 6.997,22.995 6.995,22.996 6.997,22.995 					"/>
					<polyline fill="#C7C7C7" points="6.997,22.995 6.997,22.995 6.995,22.995 6.997,22.995 					"/>
					<polyline fill="#C4C4C4" points="6.997,22.995 6.997,22.995 6.996,22.995 6.997,22.995 					"/>
					<polyline fill="#C0C0C0" points="6.997,22.995 6.997,22.995 6.996,22.995 6.997,22.995 					"/>
					<polyline fill="#BCBCBC" points="6.997,22.995 6.997,22.995 6.996,22.995 6.997,22.995 					"/>
					<polyline fill="#B9B9B9" points="6.997,22.995 6.997,22.995 6.996,22.995 6.997,22.995 					"/>
					<polyline fill="#B5B5B5" points="6.997,22.995 6.997,22.995 6.996,22.995 6.997,22.995 					"/>
					<polyline fill="#B2B2B2" points="6.997,22.995 6.997,22.995 6.996,22.995 6.997,22.995 					"/>
					<polyline fill="#AEAEAE" points="6.997,22.995 6.997,22.995 6.996,22.995 6.997,22.995 					"/>
					<polyline fill="#AAAAAA" points="6.997,22.995 6.997,22.995 6.996,22.995 6.997,22.995 					"/>
					<polyline fill="#A7A7A7" points="6.997,22.995 6.997,22.995 6.996,22.995 6.997,22.995 					"/>
					<polyline fill="#A3A3A3" points="6.997,22.995 6.997,22.995 6.996,22.995 6.997,22.995 					"/>
					<polyline fill="#A0A0A0" points="6.997,22.995 6.997,22.995 6.996,22.995 6.997,22.995 					"/>
					<polyline fill="#9C9C9C" points="6.997,22.995 6.997,22.995 6.996,22.995 6.997,22.995 					"/>
					<polyline fill="#999999" points="6.997,22.995 6.997,22.995 6.996,22.995 6.997,22.995 					"/>
					<polyline fill="#959595" points="6.997,22.995 6.997,22.995 6.997,22.995 					"/>
					<polyline fill="#919191" points="6.997,22.995 6.997,22.995 6.997,22.995 					"/>
					<polyline fill="#8E8E8E" points="6.997,22.995 6.997,22.995 6.997,22.995 					"/>
					<polyline fill="#8A8A8A" points="6.997,22.995 6.997,22.995 6.997,22.995 					"/>
				</g>
			</g>
			<g>
				<path fill="#898989" d="M7.003,4h15.993H7.003z"/>
			</g>
			<g enable-background="new    ">
				<defs>
					<path id="SVGID_9_" enable-background="new    " d="M23.002,6.998c0.003,0,0.006,0.001,0.009,0
						c-0.003,0-0.005,0.002-0.008,0.003c0,0-0.002,0-0.008-0.001c0-1.657,0-3,0-3c1.665,0,3.007,1.341,3.007,2.997
						C26.002,6.998,24.66,6.998,23.002,6.998z"/>
				</defs>
				<clipPath id="SVGID_10_">
					<use xlink:href="#SVGID_9_"  overflow="visible"/>
				</clipPath>
				<g clip-path="url(#SVGID_10_)" enable-background="new    ">
					<path fill="#E2E2E2" d="M23.002,6.998C23.003,7.002,23.001,7.001,22.996,7c0-1.657,0-3,0-3c1.665,0,3.007,1.341,3.007,2.997
						C26.002,6.998,24.66,6.998,23.002,6.998"/>
					<path fill="#E2E2E2" d="M23.673,6.998c0.393-0.108,0.457-0.632,0.104-0.849C23.437,5.94,23.016,6.21,23.072,6.6
						c0.022,0.16,0.142,0.345,0.354,0.397c-0.138,0-0.28,0-0.424,0c0.001,0,0.003,0,0.004,0h0.005H23.01l-0.001,0l-0.002,0
						l-0.004,0.002C22.996,5.343,22.996,4,22.996,4c1.665,0,3.007,1.341,3.007,2.997C26.002,6.998,25.007,6.998,23.673,6.998"/>
					<path fill="#E1E1E1" d="M23.75,6.998c0.441-0.227,0.343-0.784-0.056-0.923c-0.42-0.147-0.796,0.273-0.6,0.671
						c0.073,0.15,0.138,0.185,0.265,0.252c-0.117,0-0.235,0-0.356,0c0.001,0,0.003,0,0.004,0h0.005H23.01l-0.001,0l-0.002,0
						l-0.004,0.002C22.996,5.343,22.996,4,22.996,4c1.665,0,3.007,1.341,3.007,2.997C26.002,6.998,25.045,6.998,23.75,6.998"/>
					<path fill="#E1E1E1" d="M23.811,6.998c0.491-0.347,0.212-0.925-0.214-0.979c-0.423-0.054-0.771,0.439-0.464,0.839
						c0.021,0.025,0.115,0.099,0.17,0.14c-0.1,0-0.199,0-0.301,0c0.001,0,0.003,0,0.004,0h0.005H23.01l-0.001,0l-0.002,0
						l-0.004,0.002C22.996,5.343,22.996,4,22.996,4c1.665,0,3.007,1.341,3.007,2.997C26.002,6.998,25.076,6.998,23.811,6.998"/>
					<path fill="#E0E0E0" d="M23.863,6.998c0.45-0.326,0.222-0.95-0.246-1.011c-0.296-0.038-0.568,0.158-0.621,0.447
						c0-1.386,0-2.434,0-2.434c1.665,0,3.007,1.341,3.007,2.997C26.002,6.998,25.1,6.998,23.863,6.998"/>
					<path fill="#E0E0E0" d="M23.913,6.998c0.487-0.429,0.123-1.035-0.34-1.05c-0.255-0.009-0.487,0.145-0.577,0.383
						c0-1.334,0-2.33,0-2.33c1.665,0,3.007,1.341,3.007,2.997C26.002,6.998,25.125,6.998,23.913,6.998"/>
					<path fill="#DFDFDF" d="M23.96,6.998c0.451-0.406,0.148-1.051-0.368-1.086c-0.116-0.008-0.407,0.01-0.597,0.347
						c0-1.298,0-2.258,0-2.258c1.665,0,3.007,1.341,3.007,2.997C26.002,6.998,25.148,6.998,23.96,6.998"/>
					<path fill="#DEDEDE" d="M24.008,6.998c0.469-0.472,0.104-1.142-0.454-1.125c-0.339,0.01-0.498,0.237-0.559,0.323
						c0-1.266,0-2.195,0-2.195c1.665,0,3.007,1.341,3.007,2.997C26.002,6.998,25.17,6.998,24.008,6.998"/>
					<path fill="#DEDEDE" d="M24.057,6.998c0.47-0.487,0.08-1.184-0.491-1.171c-0.132,0.003-0.38,0.048-0.57,0.312
						c0-1.237,0-2.138,0-2.138c1.665,0,3.007,1.341,3.007,2.997C26.002,6.998,25.194,6.998,24.057,6.998"/>
					<path fill="#DDDDDD" d="M24.109,6.998c0.472-0.536,0.072-1.236-0.521-1.217c-0.345,0.011-0.519,0.214-0.593,0.301
						c0-1.208,0-2.081,0-2.081c1.665,0,3.007,1.341,3.007,2.997C26.002,6.998,25.218,6.998,24.109,6.998"/>
					<path fill="#DCDCDC" d="M24.164,6.998c0.519-0.588,0.027-1.346-0.626-1.268c-0.216,0.026-0.398,0.125-0.542,0.296
						c0-1.178,0-2.025,0-2.025c1.665,0,3.007,1.341,3.007,2.997C26.002,6.998,25.244,6.998,24.164,6.998"/>
					<path fill="#D9D9D9" d="M24.225,6.998c0.533-0.651,0.029-1.418-0.661-1.33c-0.328,0.042-0.503,0.228-0.568,0.298
						c0-1.147,0-1.965,0-1.965c1.665,0,3.007,1.341,3.007,2.997C26.002,6.998,25.273,6.998,24.225,6.998"/>
					<path fill="#D5D5D5" d="M24.293,6.998c0.568-0.712,0.043-1.507-0.698-1.405c-0.335,0.046-0.514,0.224-0.6,0.309
						c0-1.113,0-1.901,0-1.901c1.665,0,3.007,1.341,3.007,2.997C26.002,6.998,25.304,6.998,24.293,6.998"/>
					<path fill="#D2D2D2" d="M24.372,6.998c0.611-0.762,0.054-1.608-0.737-1.496c-0.24,0.034-0.455,0.145-0.639,0.331
						c0-1.077,0-1.832,0-1.832c1.665,0,3.007,1.341,3.007,2.997C26.002,6.998,25.34,6.998,24.372,6.998"/>
					<path fill="#CECECE" d="M24.466,6.998c0.664-0.815,0.043-1.657-0.687-1.616c-0.195,0.011-0.489,0.084-0.784,0.37
						c0-1.033,0-1.751,0-1.751c1.665,0,3.007,1.341,3.007,2.997C26.002,6.998,25.383,6.998,24.466,6.998"/>
					<path fill="#CBCBCB" d="M24.579,6.998c0.74-0.89-0.04-1.834-0.848-1.726c-0.392,0.053-0.65,0.304-0.735,0.387
						c0-0.983,0-1.658,0-1.658c1.665,0,3.007,1.341,3.007,2.997C26.002,6.998,25.433,6.998,24.579,6.998"/>
					<path fill="#C7C7C7" d="M24.708,6.998c0.736-0.92-0.079-1.912-0.927-1.847c-0.408,0.031-0.692,0.306-0.786,0.396
						c0-0.922,0-1.546,0-1.546c1.665,0,3.007,1.341,3.007,2.997C26.002,6.998,25.491,6.998,24.708,6.998"/>
					<path fill="#C4C4C4" d="M24.845,6.998c0.727-1.017-0.233-2.067-1.13-1.951c-0.254,0.033-0.496,0.158-0.72,0.372
						c0-0.852,0-1.418,0-1.418c1.665,0,3.007,1.341,3.007,2.997C26.002,6.998,25.549,6.998,24.845,6.998"/>
					<path fill="#C0C0C0" d="M24.977,6.998c0.72-1.154-0.438-2.255-1.388-2.035c-0.314,0.073-0.503,0.239-0.594,0.319
						c0-0.775,0-1.281,0-1.281c1.665,0,3.007,1.341,3.007,2.997C26.002,6.998,25.606,6.998,24.977,6.998"/>
					<path fill="#BCBCBC" d="M25.101,6.998c0.671-1.158-0.49-2.419-1.581-2.123c-0.25,0.068-0.391,0.167-0.524,0.271
						c0-0.697,0-1.145,0-1.145c1.665,0,3.007,1.341,3.007,2.997C26.002,6.998,25.657,6.998,25.101,6.998"/>
					<path fill="#B9B9B9" d="M25.215,6.998c0.645-1.292-0.748-2.601-1.884-2.166c-0.142,0.055-0.249,0.127-0.336,0.185
						c0-0.623,0-1.016,0-1.016c1.665,0,3.007,1.341,3.007,2.997C26.002,6.998,25.705,6.998,25.215,6.998"/>
					<path fill="#B5B5B5" d="M25.323,6.998c0.607-1.433-0.857-2.712-2.073-2.236c-0.113,0.044-0.219,0.112-0.254,0.134
						c0-0.552,0-0.895,0-0.895c1.665,0,3.007,1.341,3.007,2.997C26.002,6.998,25.748,6.998,25.323,6.998"/>
					<path fill="#B2B2B2" d="M25.421,6.998c0.549-1.363-0.922-2.871-2.248-2.306c-0.061,0.026-0.119,0.058-0.178,0.09
						c0-0.485,0-0.781,0-0.781c1.665,0,3.007,1.341,3.007,2.997C26.002,6.998,25.787,6.998,25.421,6.998"/>
					<path fill="#AEAEAE" d="M25.514,6.998c-0.015-0.021,0.02-0.056,0.027-0.08c0.213-0.622-0.016-1.403-0.556-1.901
						c-0.278-0.257-1.029-0.804-1.99-0.341c0-0.421,0-0.674,0-0.674c1.665,0,3.007,1.341,3.007,2.997
						C26.002,6.998,25.823,6.998,25.514,6.998"/>
					<path fill="#AAAAAA" d="M25.6,6.998c-0.024-0.032,0.026-0.091,0.037-0.129c0.148-0.517-0.016-1.332-0.614-1.889
						c-0.602-0.56-1.359-0.711-2.027-0.405c0-0.36,0-0.573,0-0.573c1.665,0,3.007,1.341,3.007,2.997
						C26.002,6.998,25.856,6.998,25.6,6.998"/>
					<path fill="#A7A7A7" d="M25.68,6.998c-0.004-0.005,0.003-0.014,0.005-0.02c0.232-0.844-0.195-1.622-0.631-2.031
						c-0.289-0.271-1.068-0.86-2.059-0.468c0-0.303,0-0.479,0-0.479c1.665,0,3.007,1.341,3.007,2.997
						C26.002,6.998,25.886,6.998,25.68,6.998"/>
					<path fill="#A3A3A3" d="M25.752,6.998c-0.012-0.015,0.01-0.042,0.014-0.06c0.151-0.675-0.124-1.485-0.686-2.016
						c-0.359-0.34-1.107-0.86-2.085-0.531c0-0.248,0-0.39,0-0.39c1.665,0,3.007,1.341,3.007,2.997
						C26.002,6.998,25.914,6.998,25.752,6.998"/>
					<path fill="#A0A0A0" d="M25.818,6.998c-0.019-0.022,0.013-0.067,0.018-0.096c0.118-0.665-0.177-1.469-0.734-2.001
						c-0.359-0.342-1.11-0.875-2.105-0.593c0-0.196,0-0.307,0-0.307c1.665,0,3.007,1.341,3.007,2.997
						C26.002,6.998,25.937,6.998,25.818,6.998"/>
					<path fill="#E2E2E2" d="M23.455,6.975c-0.436-0.097-0.472-0.621-0.148-0.81s0.738,0.112,0.663,0.481
						C23.933,6.822,23.75,7.041,23.455,6.975"/>
					<path fill="#E2E2E2" d="M23.507,6.961c-0.36-0.03-0.523-0.48-0.26-0.719c0.278-0.251,0.734-0.016,0.698,0.36
						C23.927,6.792,23.767,6.983,23.507,6.961"/>
					<path fill="#9C9C9C" d="M25.875,6.998c-0.024-0.028,0.012-0.087,0.018-0.125c0.088-0.657-0.225-1.455-0.777-1.986
						c-0.438-0.421-1.163-0.877-2.12-0.655c0-0.149,0-0.231,0-0.231c1.665,0,3.007,1.341,3.007,2.997
						C26.002,6.998,25.958,6.998,25.875,6.998"/>
					<path fill="#E3E3E3" d="M23.505,6.937c-0.345-0.029-0.492-0.471-0.228-0.684c0.271-0.218,0.675,0.012,0.637,0.362
						C23.896,6.785,23.734,6.957,23.505,6.937"/>
					<path fill="#E3E3E3" d="M23.588,6.909c-0.083,0.003-0.257,0.01-0.365-0.175c-0.103-0.176-0.041-0.341,0.024-0.409
						c0.273-0.284,0.629-0.048,0.64,0.239C23.894,6.749,23.729,6.903,23.588,6.909"/>
					<path fill="#E4E4E4" d="M23.568,6.883c-0.363,0.013-0.438-0.358-0.305-0.534c0.161-0.213,0.566-0.128,0.592,0.189
						C23.872,6.756,23.699,6.878,23.568,6.883"/>
					<path fill="#999999" d="M25.925,6.998c-0.029-0.032,0.009-0.1,0.013-0.142c0.051-0.542-0.182-1.364-0.815-1.977
						c-0.636-0.615-1.351-0.856-2.127-0.716c0-0.105,0-0.163,0-0.163c1.665,0,3.007,1.341,3.007,2.997
						C26.002,6.998,25.976,6.998,25.925,6.998"/>
					<path fill="#E4E4E4" d="M23.56,6.856c-0.338,0.011-0.398-0.336-0.269-0.494c0.156-0.19,0.517-0.101,0.532,0.194
						C23.831,6.696,23.727,6.85,23.56,6.856"/>
					<path fill="#E4E4E4" d="M23.559,6.827c-0.315,0.005-0.363-0.31-0.238-0.451c0.148-0.167,0.46-0.076,0.472,0.197
						C23.796,6.661,23.71,6.825,23.559,6.827"/>
					<path fill="#E0E0E0" d="M23.002,6.998c0.003,0,0.006,0.001,0.009,0H23.01l-0.001,0l-0.002,0
						C23.006,7,23.004,7.001,23.003,7.001c0,0-0.002,0-0.008-0.001c0-0.13,0-0.258,0-0.384C23,6.634,23.008,6.657,23.013,6.674
						c0.023,0.093,0.109,0.211,0.115,0.214c0.02,0.01,0.04,0.019,0.053,0.037c0.014,0.019,0.027,0.038,0.047,0.05
						c0.01,0.006,0.023,0.015,0.032,0.022C23.175,6.998,23.089,6.998,23.002,6.998"/>
					<path fill="#E0E0E0" d="M23.002,6.998c0.003,0,0.006,0.001,0.009,0H23.01l-0.001,0l-0.002,0C23.006,7,23.004,7,23.003,7.001
						c0,0-0.002,0-0.008-0.001c0-0.097,0-0.193,0-0.287C23,6.721,23.005,6.73,23.01,6.738c0.059,0.126,0.101,0.166,0.101,0.167
						c0.013,0.004,0.025-0.008,0.039-0.001c0.015,0.007,0.018,0.022,0.025,0.035c0.015,0.02,0.022,0.044,0.042,0.06
						C23.146,6.998,23.075,6.998,23.002,6.998"/>
					<path fill="#E5E5E5" d="M23.563,6.795c-0.08,0-0.18-0.001-0.25-0.136c-0.057-0.109-0.015-0.212,0.039-0.267
						c0.148-0.151,0.391-0.029,0.402,0.152C23.765,6.713,23.637,6.796,23.563,6.795"/>
					<path fill="#DFDFDF" d="M23.002,6.998c0.003,0,0.006,0.001,0.009,0H23.01l-0.001,0l-0.002,0C23.006,7,23.004,7,23.003,7.001
						c0,0-0.002,0-0.008-0.001c0-0.076,0-0.15,0-0.225C23,6.781,23.003,6.789,23.007,6.794c0.018,0.034,0.08,0.125,0.086,0.126
						c0.018,0.004,0.028-0.021,0.048-0.011c0.005,0.003,0.054,0.076,0.053,0.08c-0.001,0.005-0.01,0.006-0.015,0.009
						C23.121,6.998,23.062,6.998,23.002,6.998"/>
					<path fill="#DEDEDE" d="M23.002,6.998c0.003,0,0.006,0.001,0.009,0H23.01l-0.001,0l-0.002,0C23.006,7,23.004,7,23.003,7.001
						c0,0-0.002,0-0.008-0.001c0-0.058,0-0.115,0-0.172c0.003,0.003,0.007,0.008,0.009,0.011c0.012,0.018,0.023,0.035,0.036,0.052
						c0.011,0.015,0.009,0.041,0.035,0.044c0.022,0.003,0.03-0.032,0.056-0.021c0.005,0.002,0.05,0.071,0.049,0.074
						C23.175,7,23.155,6.995,23.143,6.998C23.096,6.998,23.049,6.998,23.002,6.998"/>
					<path fill="#E5E5E5" d="M23.507,6.758c-0.191-0.02-0.24-0.233-0.121-0.344c0.109-0.101,0.32-0.026,0.328,0.155
						C23.719,6.673,23.643,6.772,23.507,6.758"/>
					<path fill="#959595" d="M24.557,4.434c-0.55-0.313-1.002-0.408-1.562-0.331c0-0.067,0-0.103,0-0.103
						c0.583,0,1.127,0.165,1.587,0.45C24.575,4.445,24.565,4.439,24.557,4.434"/>
					<path fill="#DEDEDE" d="M23.002,6.998c0.003,0,0.006,0.001,0.009,0H23.01l-0.001,0l-0.002,0C23.006,7,23.004,7,23.003,7.001
						c0,0-0.002,0-0.008-0.001c0-0.041,0-0.082,0-0.123C22.998,6.88,23,6.882,23.002,6.885c0.012,0.016,0.024,0.032,0.037,0.047
						c0.005,0.007,0.006,0.019,0.018,0.021c0.028,0.004,0.033-0.043,0.064-0.031c0.016,0.006,0.018,0.022,0.025,0.034
						c0.007,0.011,0.014,0.022,0.02,0.034c-0.018,0.002-0.042,0.005-0.06,0.008C23.072,6.998,23.038,6.998,23.002,6.998"/>
					<path fill="#DDDDDD" d="M23.002,6.998c0.003,0,0.006,0.001,0.009,0H23.01l-0.001,0l-0.002,0C23.006,7,23.004,7,23.003,7.001
						c0,0-0.002,0-0.008-0.001c0-0.025,0-0.051,0-0.076C22.997,6.926,22.999,6.928,23,6.929c0.012,0.015,0.015,0.038,0.038,0.041
						c0.035,0.004,0.036-0.054,0.074-0.042c0.015,0.005,0.016,0.021,0.022,0.031c0.007,0.01,0.013,0.021,0.019,0.031
						c-0.016,0.002-0.037,0.003-0.052,0.007C23.069,6.998,23.036,6.998,23.002,6.998"/>
					<path fill="#E5E5E5" d="M23.541,6.722c-0.002,0-0.117,0.001-0.158-0.1c-0.045-0.109,0.027-0.17,0.042-0.182
						c0.085-0.063,0.252,0.003,0.248,0.126C23.671,6.589,23.662,6.703,23.541,6.722"/>
					<path fill="#DCDCDC" d="M23.002,6.998c0.003,0,0.006,0.001,0.009,0H23.01l-0.001,0l-0.002,0C23.006,7,23.004,7,23.003,7.001
						c0,0-0.002,0-0.008-0.001c0-0.01,0-0.02,0-0.029c0.001,0,0.002,0.001,0.002,0.001c0.007,0.006,0.013,0.013,0.022,0.014
						c0.041,0.003,0.039-0.065,0.083-0.052c0.015,0.004,0.015,0.019,0.021,0.029c0.006,0.009,0.012,0.019,0.017,0.028
						c-0.013,0.001-0.029,0.003-0.042,0.006C23.067,6.998,23.035,6.998,23.002,6.998"/>
					<path fill="#919191" d="M23.891,4.136c-0.372-0.104-0.61-0.109-0.896-0.081c0-0.036,0-0.054,0-0.054
						c0.363,0,0.712,0.064,1.034,0.182C23.989,4.168,23.933,4.149,23.891,4.136"/>
					<path fill="#959595" d="M25.963,6.998c-0.029-0.031,0.006-0.1,0.009-0.143c0.011-0.198-0.014-0.53-0.191-0.991
						c0.143,0.35,0.222,0.732,0.222,1.134C26.002,6.998,25.989,6.998,25.963,6.998"/>
					<path fill="#D9D9D9" d="M23.002,6.998c0.003,0,0.006,0.001,0.009,0H23.01l-0.001,0l-0.002,0C23.006,7,23.004,7,23.003,7.001
						l0.079-0.059c0.004,0,0.008-0.003,0.012-0.002c0.013,0.004,0.012,0.017,0.018,0.026c0.006,0.008,0.011,0.017,0.015,0.025
						c-0.01,0.001-0.022,0.003-0.032,0.006C23.064,6.998,23.034,6.998,23.002,6.998"/>
					<path fill="#D5D5D5" d="M23.002,6.998c0.003,0,0.006,0.001,0.009,0H23.01l-0.001,0l-0.002,0C23.006,7,23.004,7,23.003,7.001
						l0.076-0.057c0.002,0,0.006-0.001,0.008,0c0.019,0.01,0.018,0.032,0.026,0.048c-0.007,0-0.017,0.003-0.022,0.005
						C23.062,6.998,23.032,6.998,23.002,6.998"/>
					<path fill="#D2D2D2" d="M23.002,6.998c0.003,0,0.006,0.001,0.009,0H23.01l-0.001,0l-0.002,0C23.006,7,23.004,7,23.003,7.001
						l0.073-0.054c0.002,0,0.005-0.001,0.007,0c0.006,0.003,0.022,0.042,0.021,0.045c-0.003,0.005-0.012,0.003-0.017,0.005
						C23.059,6.998,23.031,6.998,23.002,6.998"/>
					<path fill="#CECECE" d="M23.002,6.998c0.003,0,0.006,0.001,0.009,0H23.01l-0.001,0l-0.002,0C23.006,7,23.004,7,23.003,7.001
						l0.07-0.052c0.002,0,0.005-0.001,0.007,0c0.005,0.003,0.021,0.04,0.019,0.043c-0.002,0.004-0.011,0.003-0.016,0.004
						C23.056,6.998,23.03,6.998,23.002,6.998"/>
					<path fill="#CBCBCB" d="M23.002,6.998c0.003,0,0.006,0.001,0.009,0H23.01l-0.001,0l-0.002,0C23.006,7,23.004,7,23.003,7.001
						l0.066-0.05c0.002,0,0.005,0,0.007,0c0.005,0.002,0.021,0.038,0.019,0.041c-0.003,0.004-0.011,0.003-0.016,0.004
						C23.054,6.998,23.029,6.998,23.002,6.998"/>
					<path fill="#C7C7C7" d="M23.002,6.998c0.003,0,0.006,0.001,0.009,0H23.01l-0.001,0l-0.002,0C23.006,7,23.004,7,23.003,7.001
						l0.063-0.047c0.002,0,0.005,0,0.007,0c0.004,0.002,0.019,0.036,0.017,0.039c-0.002,0.004-0.01,0.003-0.014,0.004
						C23.052,6.998,23.027,6.998,23.002,6.998"/>
					<path fill="#C4C4C4" d="M23.002,6.998c0.003,0,0.006,0.001,0.009,0H23.01l-0.001,0l-0.002,0C23.006,7,23.004,7,23.003,7.001
						l0.061-0.045c0.002,0,0.004,0,0.006,0c0.005,0.002,0.019,0.034,0.017,0.037c-0.002,0.004-0.01,0.003-0.014,0.004
						C23.049,6.998,23.026,6.998,23.002,6.998"/>
					<path fill="#C0C0C0" d="M23.002,6.998c0.003,0,0.006,0.001,0.009,0H23.01l-0.001,0l-0.002,0C23.006,7,23.004,7,23.003,7.001
						l0.058-0.042c0.001,0,0.004-0.001,0.006,0c0.004,0.002,0.017,0.032,0.015,0.035c-0.002,0.003-0.009,0.002-0.013,0.003
						C23.046,6.998,23.025,6.998,23.002,6.998"/>
					<path fill="#BCBCBC" d="M23.002,6.998c0.003,0,0.006,0.001,0.009,0H23.01l-0.001,0l-0.002,0C23.006,7,23.004,7,23.003,7.001
						l0.054-0.04c0.002,0,0.005-0.001,0.006,0c0.004,0.002,0.017,0.03,0.015,0.033c-0.002,0.003-0.009,0.002-0.013,0.003
						C23.044,6.998,23.023,6.998,23.002,6.998"/>
					<path fill="#B9B9B9" d="M23.002,6.998c0.003,0,0.006,0.001,0.009,0H23.01l-0.001,0l-0.002,0C23.006,7,23.004,7,23.003,7.001
						l0.051-0.038c0.002,0,0.004-0.001,0.005,0c0.004,0.002,0.016,0.028,0.014,0.031s-0.008,0.002-0.011,0.003
						C23.042,6.998,23.022,6.998,23.002,6.998"/>
					<path fill="#B5B5B5" d="M23.002,6.998c0.003,0,0.006,0.001,0.009,0H23.01l-0.001,0l-0.002,0C23.006,7,23.004,7,23.003,7.001
						l0.048-0.035c0.001,0,0.004-0.001,0.005,0c0.004,0.002,0.014,0.026,0.013,0.028c-0.002,0.003-0.008,0.002-0.011,0.003
						C23.04,6.998,23.021,6.998,23.002,6.998"/>
					<path fill="#B2B2B2" d="M23.002,6.998c0.003,0,0.006,0.001,0.009,0H23.01l-0.001,0l-0.002,0C23.006,7,23.004,7,23.003,7.001
						l0.045-0.033c0.001,0,0.003,0,0.004,0c0.004,0.002,0.014,0.024,0.012,0.027c-0.001,0.002-0.007,0.001-0.01,0.002
						C23.037,6.998,23.02,6.998,23.002,6.998"/>
					<path fill="#E6E6E6" d="M23.505,6.664c-0.021,0-0.087-0.072-0.083-0.098c0.005-0.029,0.026-0.07,0.053-0.084
						c0.067-0.037,0.169,0.083,0.12,0.143C23.577,6.647,23.535,6.663,23.505,6.664"/>
					<path fill="#AEAEAE" d="M23.002,6.998c0.003,0,0.006,0.001,0.009,0H23.01l-0.001,0l-0.002,0C23.006,7,23.004,7,23.003,7.001
						l0.041-0.031c0.002,0,0.004,0,0.005,0c0.003,0.002,0.012,0.022,0.011,0.024c-0.002,0.002-0.007,0.001-0.01,0.002
						C23.035,6.998,23.018,6.998,23.002,6.998"/>
					<path fill="#AAAAAA" d="M23.002,6.998c0.003,0,0.006,0.001,0.009,0H23.01l-0.001,0l-0.002,0C23.006,7,23.005,7,23.003,7.001
						l0.038-0.028c0.001,0,0.003,0,0.004,0c0.003,0.001,0.012,0.021,0.01,0.022c-0.001,0.002-0.006,0.001-0.009,0.002
						C23.032,6.998,23.017,6.998,23.002,6.998"/>
					<path fill="#A7A7A7" d="M23.002,6.998c0.003,0,0.006,0.001,0.009,0H23.01l-0.001,0l-0.002,0C23.006,7,23.005,7,23.003,7.001
						l0.035-0.026c0.001,0,0.003,0,0.004,0c0.002,0.001,0.01,0.018,0.009,0.02c-0.002,0.002-0.006,0.001-0.008,0.002
						C23.03,6.998,23.016,6.998,23.002,6.998"/>
					<path fill="#8E8E8E" d="M23.455,4.036c-0.163-0.02-0.272-0.028-0.459-0.017c0-0.012,0-0.019,0-0.019
						c0.193,0,0.383,0.018,0.566,0.053C23.53,4.048,23.487,4.04,23.455,4.036"/>
					<path fill="#A3A3A3" d="M23.002,6.998c0.003,0,0.006,0.001,0.009,0H23.01l-0.001,0l-0.002,0C23.006,7,23.005,7,23.003,7.001
						l0.032-0.023c0.001,0,0.002,0,0.003,0c0.002,0.001,0.009,0.016,0.008,0.018c-0.001,0.002-0.005,0.001-0.007,0.002
						C23.027,6.998,23.015,6.998,23.002,6.998"/>
					<path fill="#A0A0A0" d="M23.002,6.998c0.003,0,0.006,0.001,0.009,0H23.01l-0.001,0l-0.002,0C23.006,7,23.005,7,23.003,7.001
						l0.028-0.021c0.001,0,0.003,0,0.003,0c0.003,0.001,0.009,0.014,0.008,0.016s-0.005,0.001-0.007,0.001
						C23.025,6.998,23.013,6.998,23.002,6.998"/>
					<path fill="#919191" d="M25.991,6.998c-0.025-0.026,0.002-0.084,0.003-0.12c0.003-0.163-0.028-0.35-0.041-0.43
						c0.032,0.178,0.05,0.362,0.05,0.55C26.002,6.998,25.999,6.998,25.991,6.998"/>
					<path fill="#9C9C9C" d="M23.002,6.998c0.003,0,0.006,0.001,0.009,0H23.01l-0.001,0l-0.002,0C23.006,7,23.005,7,23.003,7.001
						l0.025-0.019c0.001,0,0.002,0,0.003,0c0.002,0.001,0.007,0.013,0.006,0.014c-0.001,0.001-0.004,0-0.006,0.001
						C23.022,6.998,23.012,6.998,23.002,6.998"/>
					<path fill="#999999" d="M23.002,6.998c0.003,0,0.006,0.001,0.009,0H23.01l-0.001,0l-0.002,0C23.006,7,23.005,7,23.003,7.001
						l0.022-0.017c0.001,0,0.002,0,0.002,0c0.005,0.002,0.009,0.007,0.006,0.012c-0.001,0.001-0.004,0-0.005,0.001
						C23.02,6.998,23.011,6.998,23.002,6.998"/>
					<path fill="#959595" d="M23.002,6.998c0.003,0,0.006,0.001,0.009,0H23.01l-0.001,0l-0.002,0C23.006,7,23.005,7,23.003,7.001
						l0.02-0.014c0,0,0.001,0,0.002,0c0.004,0.002,0.007,0.005,0.004,0.009c0,0.001-0.003,0.001-0.004,0.001
						C23.017,6.998,23.01,6.998,23.002,6.998"/>
					<path fill="#919191" d="M23.002,6.998c0.003,0,0.006,0.001,0.009,0H23.01l-0.001,0l-0.002,0C23.006,7,23.005,7,23.003,7.001
						l0.016-0.012c0.001,0,0.002,0,0.002,0c0.003,0.001,0.006,0.004,0.004,0.007c-0.001,0.001-0.003,0-0.004,0
						C23.015,6.998,23.008,6.998,23.002,6.998"/>
					<polyline fill="#8E8E8E" points="23.002,6.998 23.011,6.998 23.01,6.998 23.009,6.999 23.007,6.999 23.003,7.001 23.016,6.992 
						23.018,6.992 23.02,6.997 23.017,6.998 23.002,6.998 					"/>
					<polyline fill="#8A8A8A" points="23.002,6.998 23.011,6.998 23.01,6.998 23.009,6.999 23.007,6.999 23.004,7.001 23.013,6.995 
						23.014,6.995 23.016,6.998 23.013,6.998 23.002,6.998 					"/>
					<polyline fill="#878787" points="23.002,6.998 23.011,6.998 23.01,6.998 23.009,6.999 23.007,6.999 23.004,7.001 23.01,6.997 
						23.011,6.998 23.01,6.998 23.002,6.998 					"/>
					<g>
						<polyline fill="#838383" points="23.004,7.001 23.007,7 23.004,7.001 						"/>
						<polyline fill="#838383" points="23.002,6.998 23.007,6.998 23.007,6.998 23.006,6.998 23.002,6.998 						"/>
					</g>
					<path fill="#8A8A8A" d="M22.996,4.001C22.996,4,22.996,4,22.996,4.001c0.036-0.001,0.072,0,0.108,0.001
						C23.072,4.002,23.019,4.024,22.996,4.001"/>
					<path fill="#8E8E8E" d="M26.002,6.998c-0.014-0.013-0.001-0.044-0.001-0.063C26.002,6.956,26.002,6.977,26.002,6.998
						L26.002,6.998"/>
				</g>
			</g>
			<g enable-background="new    ">
				<defs>
					<path id="SVGID_11_" enable-background="new    " d="M23.002,6.998c1.657,0,3,0,3,0V23c0,0-1.343,0-3,0V6.998z"/>
				</defs>
				<clipPath id="SVGID_12_">
					<use xlink:href="#SVGID_11_"  overflow="visible"/>
				</clipPath>
				<g clip-path="url(#SVGID_12_)" enable-background="new    ">
					<path fill="#DCDCDC" d="M23.002,23V6.998c0.011,0,0.022,0,0.033,0V23C23.025,23,23.013,23,23.002,23"/>
					<path fill="#DDDDDD" d="M23.036,23V6.998c0.013,0,0.024,0,0.037,0V23C23.06,23,23.048,23,23.036,23"/>
					<path fill="#DEDEDE" d="M23.073,23V6.998c0.012,0,0.023,0,0.036,0V23C23.096,23,23.084,23,23.073,23"/>
					<path fill="#DEDEDE" d="M23.109,23V6.998c0.012,0,0.024,0,0.036,0V23C23.133,23,23.121,23,23.109,23"/>
					<path fill="#DFDFDF" d="M23.145,23V6.998c0.012,0,0.024,0,0.036,0V23C23.169,23,23.157,23,23.145,23"/>
					<path fill="#E0E0E0" d="M23.181,23V6.998c0.012,0,0.024,0,0.036,0V23C23.206,23,23.193,23,23.181,23"/>
					<path fill="#E0E0E0" d="M23.217,23V6.998c0.014,0,0.026,0,0.04,0V23C23.244,23,23.231,23,23.217,23"/>
					<path fill="#E1E1E1" d="M23.257,23V6.998c0.021,0,0.042,0,0.063,0V23C23.299,23,23.278,23,23.257,23"/>
					<path fill="#E1E1E1" d="M23.32,23V6.998c0.021,0,0.042,0,0.063,0V23C23.363,23,23.341,23,23.32,23"/>
					<path fill="#E2E2E2" d="M23.383,23V6.998c0.021,0,0.042,0,0.063,0V23C23.425,23,23.404,23,23.383,23"/>
					<path fill="#E2E2E2" d="M23.446,23V6.998c0.063,0,0.124,0,0.185,0V23C23.57,23,23.508,23,23.446,23"/>
					<path fill="#E2E2E2" d="M23.63,23V6.998c0.041,0,0.082,0,0.122,0V23C23.712,23,23.671,23,23.63,23"/>
					<path fill="#E1E1E1" d="M23.752,23V6.998c0.018,0,0.035,0,0.053,0V23C23.788,23,23.77,23,23.752,23"/>
					<path fill="#E1E1E1" d="M23.805,23V6.998c0.019,0,0.036,0,0.054,0V23C23.841,23,23.824,23,23.805,23"/>
					<path fill="#E0E0E0" d="M23.859,23V6.998c0.018,0,0.035,0,0.053,0V23C23.894,23,23.876,23,23.859,23"/>
					<path fill="#E0E0E0" d="M23.912,23V6.998c0.017,0,0.034,0,0.052,0V23C23.946,23,23.928,23,23.912,23"/>
					<path fill="#DFDFDF" d="M23.963,23V6.998c0.017,0,0.034,0,0.051,0V23C23.998,23,23.98,23,23.963,23"/>
					<path fill="#DEDEDE" d="M24.014,23V6.998c0.018,0,0.034,0,0.051,0V23C24.048,23,24.032,23,24.014,23"/>
					<path fill="#DEDEDE" d="M24.065,23V6.998c0.018,0,0.034,0,0.051,0V23C24.099,23,24.083,23,24.065,23"/>
					<path fill="#DDDDDD" d="M24.116,23V6.998c0.017,0,0.033,0,0.05,0V23C24.149,23,24.132,23,24.116,23"/>
					<path fill="#DCDCDC" d="M24.166,23V6.998c0.023,0,0.046,0,0.069,0V23C24.211,23,24.189,23,24.166,23"/>
					<path fill="#D9D9D9" d="M24.235,23V6.998c0.023,0,0.047,0,0.07,0V23C24.282,23,24.258,23,24.235,23"/>
					<path fill="#D5D5D5" d="M24.305,23V6.998c0.022,0,0.046,0,0.068,0V23C24.351,23,24.328,23,24.305,23"/>
					<path fill="#D2D2D2" d="M24.374,23V6.998c0.035,0,0.068,0,0.103,0V23C24.442,23,24.409,23,24.374,23"/>
					<path fill="#CECECE" d="M24.476,23V6.998c0.035,0,0.069,0,0.104,0V23C24.545,23,24.511,23,24.476,23"/>
					<path fill="#CBCBCB" d="M24.58,23V6.998c0.045,0,0.09,0,0.133,0V23C24.669,23,24.625,23,24.58,23"/>
					<path fill="#C7C7C7" d="M24.712,23V6.998c0.046,0,0.09,0,0.134,0V23C24.802,23,24.758,23,24.712,23"/>
					<path fill="#C4C4C4" d="M24.846,23V6.998c0.045,0,0.089,0,0.132,0V23C24.935,23,24.891,23,24.846,23"/>
					<path fill="#C0C0C0" d="M24.978,23V6.998c0.042,0,0.083,0,0.123,0V23C25.061,23,25.02,23,24.978,23"/>
					<path fill="#BCBCBC" d="M25.101,23V6.998c0.039,0,0.077,0,0.114,0V23C25.178,23,25.14,23,25.101,23"/>
					<path fill="#B9B9B9" d="M25.215,23V6.998c0.037,0,0.073,0,0.107,0V23C25.289,23,25.252,23,25.215,23"/>
					<path fill="#B5B5B5" d="M25.323,23V6.998c0.034,0,0.067,0,0.1,0V23C25.39,23,25.357,23,25.323,23"/>
					<path fill="#B2B2B2" d="M25.422,23V6.998c0.031,0,0.063,0,0.092,0V23C25.485,23,25.454,23,25.422,23"/>
					<path fill="#AEAEAE" d="M25.514,23V6.998c0.03,0,0.06,0,0.087,0V23C25.574,23,25.544,23,25.514,23"/>
					<path fill="#AAAAAA" d="M25.601,23V6.998c0.027,0,0.054,0,0.079,0V23C25.655,23,25.628,23,25.601,23"/>
					<path fill="#A7A7A7" d="M25.68,23V6.998c0.025,0,0.05,0,0.072,0V23C25.73,23,25.706,23,25.68,23"/>
					<path fill="#A3A3A3" d="M25.752,23V6.998c0.023,0,0.046,0,0.066,0V23C25.798,23,25.776,23,25.752,23"/>
					<path fill="#A0A0A0" d="M25.819,23V6.998c0.021,0,0.04,0,0.058,0V23C25.859,23,25.839,23,25.819,23"/>
					<path fill="#9C9C9C" d="M25.876,23V6.998c0.018,0,0.034,0,0.049,0V23C25.911,23,25.894,23,25.876,23"/>
					<path fill="#999999" d="M25.925,23V6.998c0.015,0,0.027,0,0.038,0V23C25.953,23,25.94,23,25.925,23"/>
					<path fill="#959595" d="M25.963,23V6.998c0.012,0,0.021,0,0.027,0V23C25.984,23,25.975,23,25.963,23"/>
					<path fill="#919191" d="M25.991,23V6.998c0.007,0,0.011,0,0.012,0V23C26.001,23,25.998,23,25.991,23"/>
					<polyline fill="#8E8E8E" points="26.002,23 26.002,6.998 26.002,6.998 26.002,23 26.002,23 					"/>
				</g>
			</g>
			<g enable-background="new    ">
				<defs>
					<path id="SVGID_13_" enable-background="new    " d="M23.003,22.996c0.003,0.002,0.005,0.003,0.008,0.004
						c-0.002,0-0.006,0-0.009,0c1.657,0,3,0,3,0c0,1.656-1.342,2.997-3.007,2.997c0,0,0-1.343,0-3
						C23.001,22.996,23.003,22.996,23.003,22.996z"/>
				</defs>
				<clipPath id="SVGID_14_">
					<use xlink:href="#SVGID_13_"  overflow="visible"/>
				</clipPath>
				<g clip-path="url(#SVGID_14_)" enable-background="new    ">
					<path fill="#E2E2E2" d="M23.003,22.996C24.66,23,26.002,23,26.002,23c0,1.656-1.342,2.997-3.007,2.997c0,0,0-1.343,0-3
						C23.001,22.996,23.003,22.996,23.003,22.996"/>
					<path fill="#E2E2E2" d="M22.996,22.997h0.009l0.005,0.002L23.01,23h0.001h-0.004c0.132,0,0.267,0,0.399,0L23.41,23
						c0.121,0.021,0.154,0.025,0.282-0.001c1.325,0,2.311,0,2.311,0c0,1.656-1.342,2.997-3.007,2.997
						C22.996,25.997,22.996,24.654,22.996,22.997"/>
					<path fill="#E1E1E1" d="M22.996,22.997h0.009l0.005,0.002L23.01,23h0.001h-0.004c0.111,0,0.227,0,0.34,0l0.059,0.021
						c0.124,0.025,0.199,0.041,0.354-0.021c1.29,0,2.242,0,2.242,0c0,1.656-1.342,2.997-3.007,2.997
						C22.996,25.997,22.996,24.654,22.996,22.997"/>
					<path fill="#E1E1E1" d="M22.996,22.997h0.009l0.005,0.002L23.01,23h0.001h-0.004c0.094,0,0.19,0,0.287,0l0.015,0.007
						c0.154,0.053,0.313,0.106,0.51-0.007c1.261,0,2.184,0,2.184,0c0,1.656-1.342,2.997-3.007,2.997
						C22.996,25.997,22.996,24.654,22.996,22.997"/>
					<path fill="#E0E0E0" d="M22.996,22.997h0.009l0.005,0.002L23.01,23h0.001h-0.004c0.079,0,0.163,0,0.245,0l0.028,0.014
						c0.279,0.162,0.513,0.029,0.589-0.014c1.234,0,2.133,0,2.133,0c0,1.656-1.342,2.997-3.007,2.997
						C22.996,25.997,22.996,24.654,22.996,22.997"/>
					<path fill="#E0E0E0" d="M22.996,22.997h0.009l0.005,0.002L23.01,23h0.001h-0.004c0.065,0,0.135,0,0.203,0l0.023,0.012
						c0.309,0.182,0.543,0.094,0.685-0.012c1.209,0,2.084,0,2.084,0c0,1.656-1.342,2.997-3.007,2.997
						C22.996,25.997,22.996,24.654,22.996,22.997"/>
					<path fill="#DFDFDF" d="M22.996,22.997h0.009l0.005,0.002L23.01,23h0.001h-0.004c0.053,0,0.11,0,0.167,0l0.027,0.01
						c0.003,0.003,0.34,0.304,0.764-0.01c1.185,0,2.037,0,2.037,0c0,1.656-1.342,2.997-3.007,2.997
						C22.996,25.997,22.996,24.654,22.996,22.997"/>
					<path fill="#DEDEDE" d="M22.996,22.997h0.009l0.005,0.002L23.01,23h0.001h-0.004c0.041,0,0.086,0,0.131,0l0.049,0.009
						c0.046,0.101,0.471,0.308,0.826-0.009c1.16,0,1.989,0,1.989,0c0,1.656-1.342,2.997-3.007,2.997
						C22.996,25.997,22.996,24.654,22.996,22.997"/>
					<path fill="#DEDEDE" d="M22.996,22.997h0.009l0.005,0.002L23.01,23h0.001h-0.004c0.029,0,0.063,0,0.098,0h0.001
						c0.02,0.003,0.051-0.004,0.067,0.008c0.01,0.008,0.012,0.026,0.016,0.038c0.007,0.022,0.011,0.035,0.096,0.074
						c0.16,0.074,0.289,0.074,0.291,0.074c0.197-0.002,0.339-0.058,0.486-0.194c1.134,0,1.94,0,1.94,0
						c0,1.656-1.342,2.997-3.007,2.997C22.996,25.997,22.996,24.654,22.996,22.997"/>
					<path fill="#DDDDDD" d="M22.996,22.997h0.009l0.005,0.002L23.01,23h0.001h-0.004c0.028,0,0.062,0,0.095,0L23.106,23
						c0.016,0.002,0.04-0.003,0.054,0.007c0.049,0.035,0.055,0.107,0.113,0.135c0.086,0.041,0.184,0.08,0.342,0.079
						c0.281-0.003,0.445-0.167,0.499-0.222c1.106,0,1.889,0,1.889,0c0,1.656-1.342,2.997-3.007,2.997
						C22.996,25.997,22.996,24.654,22.996,22.997"/>
					<path fill="#DCDCDC" d="M22.996,22.997h0.009l0.005,0.002L23.01,23h0.001h-0.004c0.027,0,0.059,0,0.091,0l0.008,0.002
						c0.012,0.002,0.029-0.002,0.039,0.005c0.056,0.04,0.051,0.124,0.114,0.158c0.155,0.083,0.313,0.086,0.344,0.086
						c0.23-0.002,0.409-0.081,0.563-0.251c1.079,0,1.836,0,1.836,0c0,1.656-1.342,2.997-3.007,2.997
						C22.996,25.997,22.996,24.654,22.996,22.997"/>
					<path fill="#D9D9D9" d="M22.996,23.01c0.028,0.019,0.055,0.037,0.08,0.059c-0.021-0.022-0.051-0.052-0.072-0.073l0.001,0.001
						l0.005,0.002L23.01,23h0.001h-0.004c0.025,0,0.057,0,0.087,0l0.012,0.003c0.008,0.001,0.019-0.001,0.025,0.003
						c0.042,0.031,0.008,0.078,0.022,0.114c0.014,0.034,0.589,0.399,1.075-0.12c1.045,0,1.773,0,1.773,0
						c0,1.656-1.342,2.997-3.007,2.997C22.996,25.997,22.996,24.662,22.996,23.01"/>
					<path fill="#D5D5D5" d="M22.996,23.05c0.62,0.467,1.05,0.229,1.301-0.051c1.01,0,1.706,0,1.706,0
						c0,1.656-1.342,2.997-3.007,2.997C22.996,25.997,22.996,24.682,22.996,23.05"/>
					<path fill="#D2D2D2" d="M22.996,23.088c0.443,0.377,0.998,0.341,1.379-0.089c0.967,0,1.628,0,1.628,0
						c0,1.656-1.342,2.997-3.007,2.997C22.996,25.997,22.996,24.704,22.996,23.088"/>
					<path fill="#CECECE" d="M22.996,23.131c0.367,0.313,0.984,0.406,1.474-0.132c0.915,0,1.533,0,1.533,0
						c0,1.656-1.342,2.997-3.007,2.997C22.996,25.997,22.996,24.726,22.996,23.131"/>
					<path fill="#CBCBCB" d="M22.996,23.176c0.5,0.39,1.122,0.32,1.586-0.177c0.853,0,1.421,0,1.421,0
						c0,1.656-1.342,2.997-3.007,2.997C22.996,25.997,22.996,24.75,22.996,23.176"/>
					<path fill="#C7C7C7" d="M22.996,23.223c0.35,0.314,1.14,0.413,1.715-0.224c0.781,0,1.292,0,1.292,0
						c0,1.656-1.342,2.997-3.007,2.997C22.996,25.997,22.996,24.774,22.996,23.223"/>
					<path fill="#C4C4C4" d="M22.996,23.273c0.519,0.424,1.384,0.296,1.852-0.273c0.703,0,1.155,0,1.155,0
						c0,1.656-1.342,2.997-3.007,2.997C22.996,25.997,22.996,24.8,22.996,23.273"/>
					<path fill="#C0C0C0" d="M22.996,23.326c0.362,0.306,1.363,0.463,1.983-0.326c0.627,0,1.023,0,1.023,0
						c0,1.656-1.342,2.997-3.007,2.997C22.996,25.997,22.996,24.828,22.996,23.326"/>
					<path fill="#BCBCBC" d="M22.996,23.383c0.505,0.372,1.576,0.407,2.106-0.384c0.556,0,0.9,0,0.9,0
						c0,1.656-1.342,2.997-3.007,2.997C22.996,25.997,22.996,24.858,22.996,23.383"/>
					<path fill="#B9B9B9" d="M22.996,23.447c0.546,0.406,1.71,0.435,2.221-0.447c0.488,0,0.786,0,0.786,0
						c0,1.656-1.342,2.997-3.007,2.997C22.996,25.997,22.996,24.89,22.996,23.447"/>
					<path fill="#B5B5B5" d="M22.996,23.515c0.609,0.451,1.855,0.434,2.327-0.516c0.425,0,0.68,0,0.68,0
						c0,1.656-1.342,2.997-3.007,2.997C22.996,25.997,22.996,24.925,22.996,23.515"/>
					<path fill="#B2B2B2" d="M22.996,23.592c0.667,0.438,1.915,0.479,2.427-0.593c0.364,0,0.58,0,0.58,0
						c0,1.656-1.342,2.997-3.007,2.997C22.996,25.997,22.996,24.964,22.996,23.592"/>
					<path fill="#AEAEAE" d="M22.996,23.677c0.847,0.523,2.089,0.373,2.52-0.678c0.308,0,0.487,0,0.487,0
						c0,1.656-1.342,2.997-3.007,2.997C22.996,25.997,22.996,25.006,22.996,23.677"/>
					<path fill="#AAAAAA" d="M22.996,23.769c1.034,0.609,2.251,0.25,2.605-0.77c0.255,0,0.401,0,0.401,0
						c0,1.656-1.342,2.997-3.007,2.997C22.996,25.997,22.996,25.052,22.996,23.769"/>
					<path fill="#A7A7A7" d="M22.996,23.867c0.969,0.552,2.278,0.335,2.685-0.867c0.206,0,0.322,0,0.322,0
						c0,1.656-1.342,2.997-3.007,2.997C22.996,25.997,22.996,25.099,22.996,23.867"/>
					<path fill="#A3A3A3" d="M22.996,23.968c1.018,0.563,2.4,0.304,2.757-0.969c0.161,0,0.25,0,0.25,0
						c0,1.656-1.342,2.997-3.007,2.997C22.996,25.997,22.996,25.148,22.996,23.968"/>
					<path fill="#A0A0A0" d="M22.996,24.073c1.082,0.577,2.52,0.241,2.822-1.073c0.119,0,0.185,0,0.185,0
						c0,1.656-1.342,2.997-3.007,2.997C22.996,25.997,22.996,25.198,22.996,24.073"/>
					<path fill="#9C9C9C" d="M22.996,24.18c1.274,0.649,2.647,0.087,2.88-1.181c0.083,0,0.127,0,0.127,0
						c0,1.656-1.342,2.997-3.007,2.997C22.996,25.997,22.996,25.249,22.996,24.18"/>
					<path fill="#999999" d="M22.996,24.292c1.348,0.651,2.743,0.035,2.93-1.293c0.051,0,0.077,0,0.077,0
						c0,1.656-1.342,2.997-3.007,2.997C22.996,25.997,22.996,25.3,22.996,24.292"/>
					<path fill="#959595" d="M22.996,24.41c1.412,0.67,2.826-0.002,2.968-1.41c0.025,0,0.039,0,0.039,0
						c0,1.656-1.342,2.997-3.007,2.997C22.996,25.997,22.996,25.354,22.996,24.41"/>
					<path fill="#919191" d="M22.996,24.534c1.474,0.663,2.901-0.067,2.995-1.534c0.012,1.656-1.33,2.997-2.995,2.997
						C22.996,25.997,22.996,25.41,22.996,24.534"/>
					<path fill="#8E8E8E" d="M22.996,24.667c1.373,0.608,2.951,0.024,3.007-1.668c0,1.656-1.342,2.997-3.007,2.997
						C22.996,25.997,22.996,25.469,22.996,24.667"/>
					<path fill="#8A8A8A" d="M22.996,24.815c1.416,0.594,2.781-0.057,2.98-1.42c-0.193,1.47-1.45,2.602-2.98,2.602
						C22.996,25.997,22.996,25.534,22.996,24.815"/>
					<path fill="#878787" d="M22.996,24.985c1.29,0.507,2.53,0.02,2.884-1.134c-0.366,1.241-1.517,2.146-2.884,2.146
						C22.996,25.997,22.996,25.605,22.996,24.985"/>
					<path fill="#838383" d="M22.996,25.196c0.03-0.021,0.081,0.029,0.116,0.041c0.608,0.217,1.928,0.311,2.567-0.882
						c-0.496,0.975-1.509,1.642-2.684,1.642C22.996,25.997,22.996,25.693,22.996,25.196"/>
					<path fill="#D5D5D5" d="M23.051,23.039l-0.048-0.043l0.001,0.001c0.002,0.001,0.003,0.002,0.005,0.002L23.01,23h0.001h-0.004
						c-0.002,0-0.004,0-0.005,0c0.029,0,0.059,0,0.088,0l0.016,0.004c0.003,0,0.009-0.001,0.011,0.002
						c0.01,0.006,0.028,0.085,0.023,0.092C23.128,23.112,23.09,23.076,23.051,23.039"/>
					<path fill="#D2D2D2" d="M23.003,22.996c0.002,0.001,0.004,0.002,0.006,0.003L23.01,23h0.001h-0.004c-0.002,0-0.004,0-0.005,0
						c0.028,0,0.057,0,0.085,0l0.018,0.005c0.003,0.027,0.017,0.053,0.018,0.08C23.094,23.075,23.094,23.075,23.003,22.996
						L23.003,22.996"/>
					<path fill="#CECECE" d="M23.003,22.996c0.002,0.001,0.004,0.002,0.006,0.003L23.01,23h0.001h-0.004c-0.002,0-0.004,0-0.005,0
						c0.027,0,0.054,0,0.081,0l0.017,0.005c0.003,0.022,0.005,0.045,0.006,0.067C23.067,23.052,23.037,23.023,23.003,22.996
						L23.003,22.996"/>
					<path fill="#CBCBCB" d="M23.003,22.996c0.002,0.001,0.004,0.002,0.006,0.003L23.01,23h0.001h-0.004c-0.002,0-0.004,0-0.005,0
						c0.025,0,0.052,0,0.077,0l0.017,0.004c0.002,0.02-0.009,0.037-0.008,0.056C23.057,23.042,23.031,23.018,23.003,22.996
						L23.003,22.996"/>
					<path fill="#C7C7C7" d="M23.003,22.996c0.002,0.001,0.004,0.002,0.006,0.003L23.01,23h0.001h-0.004c-0.002,0-0.004,0-0.005,0
						c0.024,0,0.049,0,0.073,0l0.016,0.004c0.004,0.031-0.008,0.052-0.009,0.052C23.057,23.071,23.027,23.014,23.003,22.996
						L23.003,22.996"/>
					<path fill="#C4C4C4" d="M23.003,22.996c0.002,0.001,0.004,0.002,0.006,0.003L23.01,23h0.001h-0.004c-0.002,0-0.004,0-0.005,0
						c0.023,0,0.047,0,0.07,0l0.015,0.004c0.004,0.028-0.008,0.049-0.009,0.049C23.055,23.067,23.025,23.013,23.003,22.996
						L23.003,22.996"/>
					<path fill="#C0C0C0" d="M23.003,22.996c0.002,0.001,0.004,0.002,0.006,0.003L23.01,23h0.001h-0.004c-0.002,0-0.004,0-0.005,0
						c0.022,0,0.044,0,0.066,0l0,0c0.004,0.001,0.011,0,0.014,0.004c0.005,0.004-0.002,0.042-0.008,0.046
						C23.052,23.063,23.024,23.012,23.003,22.996L23.003,22.996"/>
					<path fill="#BCBCBC" d="M23.003,22.996c0.002,0.001,0.004,0.002,0.006,0.003L23.01,23h0.001h-0.004c-0.002,0-0.004,0-0.005,0
						c0.021,0,0.042,0,0.063,0l0.014,0.003c0.003,0.026-0.008,0.044-0.008,0.044C23.049,23.059,23.023,23.011,23.003,22.996
						L23.003,22.996"/>
					<path fill="#B9B9B9" d="M23.003,22.996c0.002,0.001,0.004,0.002,0.006,0.003L23.01,23h0.001h-0.004c-0.002,0-0.004,0-0.005,0
						c0.02,0,0.039,0,0.059,0l0.013,0.003c0.004,0.023-0.007,0.041-0.007,0.041C23.046,23.055,23.022,23.01,23.003,22.996
						L23.003,22.996"/>
					<path fill="#B5B5B5" d="M23.003,22.996c0.002,0.001,0.004,0.002,0.006,0.003L23.01,23h0.001h-0.004c-0.002,0-0.004,0-0.005,0
						c0.019,0,0.037,0,0.056,0l0.012,0.003c0.003,0.022-0.007,0.038-0.007,0.038C23.044,23.052,23.021,23.009,23.003,22.996
						L23.003,22.996"/>
					<path fill="#B2B2B2" d="M23.003,22.996c0.002,0.001,0.004,0.002,0.006,0.003L23.01,23h0.001h-0.004c-0.002,0-0.004,0-0.005,0
						c0.018,0,0.034,0,0.052,0l0.011,0.003c0.003,0.021-0.006,0.034-0.006,0.035C23.042,23.048,23.02,23.009,23.003,22.996
						L23.003,22.996"/>
					<path fill="#AEAEAE" d="M23.003,22.996c0.002,0.001,0.004,0.002,0.006,0.003L23.01,23h0.001h-0.004c-0.002,0-0.004,0-0.005,0
						c0.016,0,0.032,0,0.048,0l0.01,0.002c0.004,0.02-0.005,0.032-0.005,0.033C23.039,23.044,23.018,23.007,23.003,22.996
						L23.003,22.996"/>
					<path fill="#AAAAAA" d="M23.003,22.996c0.002,0.001,0.004,0.002,0.006,0.003L23.01,23h0.001h-0.004c-0.002,0-0.004,0-0.005,0
						c0.015,0,0.029,0,0.044,0l0.01,0.002c0.003,0.017-0.005,0.029-0.005,0.029C23.036,23.041,23.017,23.007,23.003,22.996
						L23.003,22.996"/>
					<path fill="#A7A7A7" d="M23.003,22.996c0.002,0.001,0.004,0.002,0.006,0.003L23.01,23h0.001h-0.004c-0.002,0-0.004,0-0.005,0
						c0.014,0,0.027,0,0.04,0l0.009,0.002c0.002,0.01,0.007,0.021-0.004,0.026C23.034,23.037,23.016,23.006,23.003,22.996
						L23.003,22.996"/>
					<path fill="#A3A3A3" d="M23.003,22.996c0.002,0.001,0.004,0.002,0.006,0.003L23.01,23h0.001h-0.004c-0.002,0-0.004,0-0.005,0
						c0.013,0,0.024,0,0.037,0l0.008,0.002c0.001,0.008,0.006,0.018-0.004,0.023C23.031,23.033,23.015,23.005,23.003,22.996
						L23.003,22.996"/>
					<path fill="#A0A0A0" d="M23.003,22.996c0.002,0.001,0.004,0.002,0.006,0.003L23.01,23h0.001h-0.004c-0.002,0-0.004,0-0.005,0
						c0.011,0,0.022,0,0.033,0l0.007,0.002c0.002,0.007,0.006,0.016-0.003,0.021C23.028,23.029,23.014,23.004,23.003,22.996
						L23.003,22.996"/>
					<path fill="#9C9C9C" d="M23.003,22.996c0.002,0.001,0.004,0.002,0.006,0.003L23.01,23h0.001h-0.004c-0.002,0-0.004,0-0.005,0
						c0.01,0,0.02,0,0.029,0L23.039,23c0.001,0.007,0.004,0.015-0.003,0.019C23.025,23.026,23.013,23.003,23.003,22.996"/>
					<path fill="#999999" d="M23.003,22.996c0.002,0.001,0.004,0.002,0.006,0.003L23.01,23h0.001h-0.004c-0.002,0-0.004,0-0.005,0
						c0.009,0,0.018,0,0.025,0L23.034,23c0.002,0.006,0.004,0.012-0.002,0.016C23.022,23.022,23.011,23.002,23.003,22.996"/>
					<path fill="#959595" d="M23.003,22.996c0.002,0.001,0.004,0.002,0.006,0.003L23.01,23h0.001h-0.004c-0.002,0-0.004,0-0.005,0
						c0.008,0,0.015,0,0.022,0L23.03,23c0.001,0.005,0.003,0.01-0.002,0.013C23.02,23.018,23.01,23.001,23.003,22.996"/>
					<path fill="#919191" d="M23.003,22.996c0.002,0.001,0.004,0.002,0.006,0.003L23.01,23h0.001h-0.004c-0.002,0-0.004,0-0.005,0
						c0.006,0,0.013,0,0.019,0L23.025,23c0.001,0.003,0.003,0.008-0.001,0.01C23.017,23.014,23.009,23,23.003,22.996"/>
					<polyline fill="#8E8E8E" points="23.003,22.996 23.009,22.999 23.01,23 23.011,23 23.007,23 23.002,23 23.017,23 23.017,23 
						23.02,23 23.019,23.007 23.003,22.996 					"/>
					<polyline fill="#8A8A8A" points="23.003,22.996 23.009,22.999 23.01,23 23.011,23 23.007,23 23.002,23 23.013,23 23.016,23 
						23.015,23.004 23.003,22.996 					"/>
					<polyline fill="#878787" points="23.003,22.996 23.009,22.999 23.01,23 23.011,23 23.007,23 23.002,23 23.01,23 23.011,23 
						23.012,23 23.011,23.001 23.003,22.996 					"/>
					<g>
						<polyline fill="#838383" points="23.002,23 23.006,23 23.007,23 23.007,23 23.002,23 23.002,23 						"/>
						<polyline fill="#838383" points="23.003,22.996 23.008,22.999 23.008,22.999 23.007,22.999 23.003,22.996 						"/>
					</g>
				</g>
			</g>
			<g enable-background="new    ">
				<defs>
					<path id="SVGID_15_" enable-background="new    " d="M6.997,7.003C6.992,7,6.987,6.999,6.982,6.998c0.004,0,0.01,0,0.015,0
						c-1.657,0-3,0-3,0C3.997,5.342,5.347,4,7.003,4c0,0,0,1.343,0,3C7.002,6.999,6.998,7.003,6.997,7.003z"/>
				</defs>
				<clipPath id="SVGID_16_">
					<use xlink:href="#SVGID_15_"  overflow="visible"/>
				</clipPath>
				<g clip-path="url(#SVGID_16_)" enable-background="new    ">
					<path fill="#E2E2E2" d="M6.997,7.003c-1.657-0.005-3-0.005-3-0.005C3.997,5.342,5.347,4,7.003,4c0,0,0,1.343,0,3
						C7.002,6.999,6.998,7.003,6.997,7.003"/>
					<path fill="#E2E2E2" d="M7.003,7L6.991,7l0.006,0.003L6.994,7.001L6.99,7L6.986,6.999C5.34,6.998,3.997,6.998,3.997,6.998
						C3.997,5.342,5.347,4,7.003,4C7.003,4,7.003,5.343,7.003,7"/>
					<path fill="#E1E1E1" d="M7.003,7L6.984,6.996l0.013,0.007L6.994,7.001L6.99,7L6.986,6.999C5.34,6.998,3.997,6.998,3.997,6.998
						C3.997,5.342,5.347,4,7.003,4C7.003,4,7.003,5.343,7.003,7"/>
					<path fill="#E1E1E1" d="M7.003,7L6.977,6.992l0.02,0.011L6.994,7.001L6.99,7L6.986,6.999C5.34,6.998,3.997,6.998,3.997,6.998
						C3.997,5.342,5.347,4,7.003,4C7.003,4,7.003,5.343,7.003,7"/>
					<path fill="#E0E0E0" d="M7.003,6.421c-0.009,0.153-0.009,0.153,0,0.205c0,0.123,0,0.248,0,0.375
						C6.993,6.997,6.98,6.992,6.97,6.988l0.027,0.015L6.994,7.001L6.99,7L6.986,6.999C5.34,6.998,3.997,6.998,3.997,6.998
						C3.997,5.342,5.347,4,7.003,4C7.003,4,7.003,5.041,7.003,6.421"/>
					<path fill="#E0E0E0" d="M7.003,6.325c-0.039,0.271-0.039,0.271,0,0.392c0,0.094,0,0.188,0,0.284
						c-0.012-0.005-0.028-0.011-0.04-0.016l0.034,0.019L6.994,7.001L6.99,7L6.986,6.999C5.34,6.998,3.997,6.998,3.997,6.998
						C3.997,5.342,5.347,4,7.003,4C7.003,4,7.003,4.993,7.003,6.325"/>
					<path fill="#DFDFDF" d="M7.003,6.255c-0.066,0.316-0.066,0.316,0,0.524c0,0.073,0,0.147,0,0.222
						C6.989,6.995,6.97,6.987,6.956,6.981l0.041,0.022L6.993,7.001L6.99,7L6.986,6.999C5.34,6.998,3.997,6.998,3.997,6.998
						C3.997,5.342,5.347,4,7.003,4C7.003,4,7.003,4.958,7.003,6.255"/>
					<path fill="#DEDEDE" d="M7.003,6.193c-0.095,0.429-0.095,0.429,0,0.637c0,0.057,0,0.114,0,0.171
						C6.987,6.994,6.965,6.984,6.949,6.977l0.048,0.026L6.993,7.001L6.99,7L6.986,6.999C5.34,6.998,3.997,6.998,3.997,6.998
						C3.997,5.342,5.347,4,7.003,4C7.003,4,7.003,4.928,7.003,6.193"/>
					<path fill="#DEDEDE" d="M7.003,6.136C6.97,6.26,6.895,6.372,6.895,6.505c0,0.134,0.073,0.248,0.108,0.372
						c0,0.041,0,0.082,0,0.124C6.985,6.992,6.96,6.981,6.942,6.973l0.055,0.03L6.993,7.001L6.99,7L6.986,6.999
						C5.34,6.998,3.997,6.998,3.997,6.998C3.997,5.342,5.347,4,7.003,4C7.003,4,7.003,4.9,7.003,6.136"/>
					<path fill="#DDDDDD" d="M7.003,6.08C6.957,6.223,6.868,6.354,6.868,6.512c0,0.046,0,0.046,0.135,0.397c0,0.03,0,0.061,0,0.092
						C6.982,6.991,6.956,6.979,6.935,6.969l0.062,0.033L6.993,7.001L6.99,7L6.986,6.999C5.34,6.998,3.997,6.998,3.997,6.998
						C3.997,5.342,5.347,4,7.003,4C7.003,4,7.003,4.873,7.003,6.08"/>
					<path fill="#DCDCDC" d="M7.003,6.024C6.977,6.102,6.91,6.156,6.885,6.234C6.84,6.369,6.84,6.442,6.84,6.52
						c0,0.123,0.081,0.371,0.163,0.408c0,0.024,0,0.048,0,0.072C6.999,7,6.994,7,6.99,6.999c-0.019-0.01-0.043-0.023-0.062-0.034
						c0.021,0.011,0.048,0.026,0.068,0.037L6.993,7.001L6.99,7L6.986,6.999C5.34,6.998,3.997,6.998,3.997,6.998
						C3.997,5.342,5.347,4,7.003,4C7.003,4,7.003,4.846,7.003,6.024"/>
					<path fill="#D9D9D9" d="M7.003,5.963C6.947,6.121,6.816,6.248,6.812,6.426C6.803,6.806,6.978,6.97,6.979,6.971
						C6.983,6.973,6.991,6.973,6.994,6.97C7,6.965,6.998,6.953,7.003,6.948c0,0.017,0,0.035,0,0.052
						C7,6.999,6.997,6.998,6.994,6.996c-0.02-0.012-0.041-0.021-0.061-0.032c0.019,0.011,0.044,0.027,0.063,0.038L6.993,7.001
						L6.99,7L6.986,6.999C5.34,6.998,3.997,6.998,3.997,6.998C3.997,5.342,5.347,4,7.003,4C7.003,4,7.003,4.817,7.003,5.963"/>
					<path fill="#D5D5D5" d="M7.003,5.9C7,5.909,6.988,5.916,6.982,5.923C6.917,5.997,6.805,6.157,6.783,6.402
						C6.766,6.583,6.766,6.583,6.908,6.943C6.902,6.941,6.893,6.938,6.887,6.936c0.032,0.022,0.077,0.047,0.109,0.066L6.993,7.001
						L6.99,7L6.986,6.999C5.34,6.998,3.997,6.998,3.997,6.998C3.997,5.342,5.347,4,7.003,4C7.003,4,7.003,4.787,7.003,5.9"/>
					<path fill="#D2D2D2" d="M7.003,5.831c-0.009,0.023-0.04,0.043-0.057,0.061c-0.042,0.045-0.198,0.271-0.2,0.561
						c-0.002,0.411,0.168,0.505,0.25,0.55L6.993,7.001L6.99,7L6.986,6.999C5.34,6.998,3.997,6.998,3.997,6.998
						C3.997,5.342,5.347,4,7.003,4C7.003,4,7.003,4.755,7.003,5.831"/>
					<path fill="#CECECE" d="M7.003,5.75C6.931,5.826,6.712,6.059,6.71,6.465C6.708,6.854,6.816,6.91,6.996,7.002L6.993,7.001
						L6.99,7L6.986,6.999C6.963,6.998,6.929,6.998,6.895,6.998H6.894H6.886c-1.605,0-2.889,0-2.889,0C3.997,5.342,5.347,4,7.003,4
						C7.003,4,7.003,4.717,7.003,5.75"/>
					<path fill="#CBCBCB" d="M7.003,5.657C6.992,5.684,6.957,5.705,6.937,5.726c-0.062,0.064-0.21,0.289-0.249,0.533
						c-0.066,0.417,0.107,0.68,0.11,0.681c0.065,0.024,0.135,0.032,0.198,0.063L6.993,7.001L6.99,7L6.986,6.999
						C6.964,6.998,6.932,6.998,6.899,6.998L6.894,6.997l-0.05,0.001c-1.586,0-2.847,0-2.847,0C3.997,5.342,5.347,4,7.003,4
						C7.003,4,7.003,4.674,7.003,5.657"/>
					<path fill="#C7C7C7" d="M7.003,5.545C6.999,5.555,6.986,5.563,6.979,5.57c-0.254,0.274-0.32,0.57-0.337,0.685
						C6.578,6.698,6.78,6.986,6.792,6.987c0.007,0,0.013-0.011,0.018-0.016c0.037-0.033,0.044-0.034,0.187,0.031L6.993,7.001L6.99,7
						L6.986,6.999c-0.02-0.001-0.051-0.001-0.082-0.001l-0.01-0.002L6.803,6.998c-1.567,0-2.806,0-2.806,0
						C3.997,5.342,5.347,4,7.003,4C7.003,4,7.003,4.624,7.003,5.545"/>
					<path fill="#C4C4C4" d="M7.003,5.417c-0.01,0.027-0.045,0.049-0.065,0.07C6.91,5.518,6.664,5.793,6.6,6.204
						C6.533,6.631,6.691,6.935,6.756,6.998c-1.544,0-2.759,0-2.759,0C3.997,5.342,5.347,4,7.003,4C7.003,4,7.003,4.567,7.003,5.417"
						/>
					<path fill="#C0C0C0" d="M7.003,5.281c-0.007,0.017-0.03,0.03-0.043,0.043C6.863,5.42,6.628,5.696,6.548,6.166
						c-0.058,0.335,0.038,0.693,0.16,0.832c-1.522,0-2.711,0-2.711,0C3.997,5.342,5.347,4,7.003,4C7.003,4,7.003,4.506,7.003,5.281"
						/>
					<path fill="#BCBCBC" d="M7.003,5.145C6.999,5.154,6.985,5.161,6.978,5.167C6.839,5.29,6.593,5.569,6.498,6.073
						C6.42,6.488,6.545,6.87,6.654,6.998c-1.496,0-2.657,0-2.657,0C3.997,5.342,5.347,4,7.003,4C7.003,4,7.003,4.448,7.003,5.145"/>
					<path fill="#B9B9B9" d="M7.003,5.016C6.987,5.049,6.937,5.071,6.909,5.094C6.828,5.162,6.553,5.426,6.442,5.97
						C6.354,6.397,6.457,6.819,6.597,6.998c-1.468,0-2.6,0-2.6,0C3.997,5.342,5.347,4,7.003,4C7.003,4,7.003,4.393,7.003,5.016"/>
					<path fill="#B5B5B5" d="M7.003,4.895C6.99,4.92,6.951,4.933,6.929,4.949C6.832,5.02,6.507,5.292,6.381,5.856
						c-0.108,0.482,0.002,0.929,0.15,1.141c-1.436,0-2.534,0-2.534,0C3.997,5.342,5.347,4,7.003,4C7.003,4,7.003,4.343,7.003,4.895"
						/>
					<path fill="#B2B2B2" d="M7.003,4.781c-0.008,0.016-0.035,0.022-0.05,0.032C6.65,5.005,6.413,5.351,6.317,5.739
						C6.132,6.497,6.447,6.978,6.46,6.998c-1.401,0-2.463,0-2.463,0C3.997,5.342,5.347,4,7.003,4C7.003,4,7.003,4.296,7.003,4.781"
						/>
					<path fill="#AEAEAE" d="M7.003,4.674C7,4.68,6.989,4.682,6.983,4.686C6.773,4.8,6.397,5.084,6.234,5.695
						C6.097,6.208,6.214,6.73,6.382,6.998c-1.362,0-2.385,0-2.385,0C3.997,5.342,5.347,4,7.003,4C7.003,4,7.003,4.253,7.003,4.674"
						/>
					<path fill="#AAAAAA" d="M7.003,4.574C6.985,4.604,6.931,4.611,6.9,4.627C6.774,4.694,6.349,4.96,6.159,5.612
						C6.024,6.076,6.078,6.62,6.296,6.998c-1.319,0-2.299,0-2.299,0C3.997,5.342,5.347,4,7.003,4C7.003,4,7.003,4.213,7.003,4.574"
						/>
					<path fill="#A7A7A7" d="M7.003,4.479C6.989,4.5,6.949,4.503,6.926,4.514C6.557,4.683,6.23,5.068,6.095,5.496
						c-0.233,0.737,0,1.296,0.11,1.502c-1.273,0-2.208,0-2.208,0C3.997,5.342,5.347,4,7.003,4C7.003,4,7.003,4.176,7.003,4.479"/>
					<path fill="#A3A3A3" d="M7.003,4.39C6.994,4.404,6.966,4.404,6.95,4.411c-0.204,0.08-0.704,0.343-0.947,1.051
						C5.835,5.953,5.876,6.541,6.109,6.998c-1.223,0-2.112,0-2.112,0C3.997,5.342,5.347,4,7.003,4C7.003,4,7.003,4.142,7.003,4.39"
						/>
					<path fill="#A0A0A0" d="M7.003,4.307C6.997,4.315,6.98,4.315,6.971,4.318C6.632,4.431,6.174,4.711,5.92,5.398
						C5.778,5.784,5.727,6.406,6.01,6.998c-1.172,0-2.013,0-2.013,0C3.997,5.342,5.347,4,7.003,4C7.003,4,7.003,4.111,7.003,4.307"
						/>
					<path fill="#9C9C9C" d="M7.003,4.231C7,4.236,6.991,4.235,6.985,4.236C6.467,4.381,6.064,4.757,5.851,5.295
						C5.639,5.832,5.659,6.452,5.906,6.998c-1.118,0-1.909,0-1.909,0C3.997,5.342,5.347,4,7.003,4C7.003,4,7.003,4.083,7.003,4.231"
						/>
					<path fill="#999999" d="M7.003,4.163C6.976,4.199,6.902,4.19,6.859,4.202C6.49,4.3,6.016,4.641,5.787,5.179
						c-0.316,0.745-0.168,1.4,0.012,1.818c-1.061,0-1.802,0-1.802,0C3.997,5.342,5.347,4,7.003,4C7.003,4,7.003,4.058,7.003,4.163"
						/>
					<path fill="#959595" d="M7.003,4.104C6.999,4.109,6.987,4.106,6.979,4.108C6.571,4.183,6.011,4.43,5.668,5.184
						C5.555,5.433,5.33,6.11,5.687,6.998c-1,0-1.689,0-1.689,0C3.997,5.342,5.347,4,7.003,4C7.003,4,7.003,4.036,7.003,4.104"/>
					<path fill="#919191" d="M7.003,4.055C6.992,4.067,6.965,4.06,6.95,4.062C6.672,4.1,5.985,4.277,5.589,5.09
						c-0.272,0.558-0.28,1.289-0.021,1.907c-0.936,0-1.571,0-1.571,0C3.997,5.342,5.347,4,7.003,4C7.003,4,7.003,4.019,7.003,4.055"
						/>
					<path fill="#8E8E8E" d="M7.003,4.019C6.98,4.044,6.925,4.027,6.891,4.03C6.444,4.074,5.846,4.351,5.506,4.998
						c-0.216,0.411-0.403,1.091-0.068,2c-0.864,0-1.44,0-1.44,0C3.997,5.342,5.347,4,7.003,4C7.003,4,7.003,4.007,7.003,4.019"/>
					<path fill="#8A8A8A" d="M7.003,4.001C6.991,4.013,6.964,4.002,6.947,4.003c-0.758,0.021-1.282,0.473-1.519,0.89
						C4.975,5.688,5.105,6.476,5.294,6.998c-0.784,0-1.297,0-1.297,0C3.997,5.342,5.347,4,7.003,4.001C7.003,4,7.003,4,7.003,4.001"
						/>
					<path fill="#878787" d="M6.546,4.036c-1.27,0.231-1.893,1.532-1.418,2.962c-0.689,0-1.131,0-1.131,0
						c0-1.531,1.155-2.794,2.639-2.975C6.609,4.027,6.573,4.031,6.546,4.036"/>
					<path fill="#838383" d="M5.976,4.183c-1.18,0.513-1.38,1.784-1.056,2.815c-0.569,0-0.923,0-0.923,0
						c0-1.342,0.887-2.478,2.106-2.86C6.065,4.151,6.014,4.168,5.976,4.183"/>
					<path fill="#C4C4C4" d="M6.99,7C6.988,7,6.985,6.999,6.982,6.998c0.004,0,0.01,0,0.015,0c-0.03,0-0.059,0-0.088,0L6.894,6.995
						C6.876,6.993,6.853,6.992,6.835,6.99c0.049-0.042,0.049-0.042,0.161,0.012L6.993,7.001L6.99,7"/>
					<path fill="#C0C0C0" d="M6.99,7C6.988,7,6.985,6.999,6.982,6.998c0.004,0,0.01,0,0.015,0c-0.028,0-0.056,0-0.083,0l-0.02-0.004
						c-0.004,0-0.009-0.001-0.014-0.001C6.891,6.985,6.893,6.97,6.905,6.964C6.931,6.95,6.969,6.99,6.996,7.002L6.993,7.001L6.99,7"
						/>
					<path fill="#BCBCBC" d="M6.99,7C6.988,7,6.985,6.999,6.982,6.998c0.004,0,0.01,0,0.015,0c-0.026,0-0.053,0-0.079,0l-0.02-0.004
						c0.002-0.01,0-0.022,0.012-0.028C6.935,6.954,6.971,6.99,6.996,7.002L6.993,7.001L6.99,7"/>
					<path fill="#B9B9B9" d="M6.99,7C6.988,7,6.985,6.999,6.982,6.998c0.004,0,0.01,0,0.015,0c-0.025,0-0.05,0-0.075,0L6.904,6.994
						c0.002-0.009,0-0.021,0.011-0.025c0.023-0.012,0.057,0.022,0.081,0.034L6.993,7.001L6.99,7"/>
					<path fill="#B5B5B5" d="M6.99,7C6.988,7,6.985,6.999,6.982,6.998c0.004,0,0.01,0,0.015,0c-0.023,0-0.046,0-0.07,0L6.909,6.994
						c0.002-0.009,0-0.019,0.011-0.024c0.022-0.011,0.054,0.021,0.076,0.032L6.993,7.001L6.99,7"/>
					<path fill="#B2B2B2" d="M6.99,7C6.988,7,6.985,6.999,6.982,6.998c0.004,0,0.01,0,0.015,0c-0.022,0-0.043,0-0.065,0L6.915,6.994
						c0.002-0.008,0-0.017,0.01-0.022c0.021-0.01,0.05,0.02,0.07,0.03L6.993,7.001L6.99,7"/>
					<path fill="#AEAEAE" d="M6.99,7C6.988,7,6.985,6.999,6.982,6.998c0.004,0,0.01,0,0.015,0c-0.02,0-0.041,0-0.061,0L6.921,6.995
						c0.001-0.007,0-0.016,0.009-0.02c0.019-0.009,0.046,0.019,0.065,0.028L6.992,7.001L6.99,7"/>
					<path fill="#AAAAAA" d="M6.99,7C6.988,7,6.985,6.999,6.982,6.998c0.004,0,0.01,0,0.015,0c-0.019,0-0.037,0-0.056,0L6.927,6.995
						c0.001-0.007,0-0.015,0.008-0.019c0.018-0.008,0.043,0.017,0.061,0.026L6.992,7.001L6.99,7"/>
					<path fill="#A7A7A7" d="M6.99,7C6.988,7,6.985,6.999,6.982,6.998c0.004,0,0.01,0,0.015,0c-0.017,0-0.034,0-0.051,0L6.933,6.995
						c0.001-0.006,0-0.013,0.008-0.016c0.016-0.008,0.039,0.016,0.055,0.023L6.992,7.001L6.99,7"/>
					<path fill="#A3A3A3" d="M6.99,7C6.988,7,6.985,6.999,6.982,6.998c0.004,0,0.01,0,0.015,0c-0.016,0-0.031,0-0.046,0L6.938,6.996
						c0.001-0.005,0-0.012,0.007-0.015c0.015-0.007,0.036,0.014,0.05,0.021L6.992,7.001L6.99,7"/>
					<path fill="#A0A0A0" d="M6.99,7C6.988,7,6.985,6.999,6.982,6.998c0.004,0,0.01,0,0.015,0c-0.014,0-0.028,0-0.042,0L6.944,6.996
						c0.001-0.004,0-0.01,0.006-0.013c0.013-0.006,0.031,0.013,0.045,0.02L6.992,7.001L6.99,7"/>
					<path fill="#9C9C9C" d="M6.99,7C6.988,7,6.985,6.999,6.982,6.998c0.004,0,0.01,0,0.015,0c-0.012,0-0.025,0-0.037,0L6.95,6.996
						c0-0.004,0-0.009,0.005-0.011c0.012-0.005,0.028,0.011,0.04,0.017L6.992,7L6.99,7"/>
					<path fill="#999999" d="M6.99,7C6.988,7,6.985,6.999,6.982,6.998c0.004,0,0.01,0,0.015,0c-0.011,0-0.022,0-0.033,0L6.956,6.997
						c0-0.004,0-0.007,0.004-0.009c0.011-0.004,0.024,0.01,0.035,0.015L6.992,7L6.99,7"/>
					<path fill="#959595" d="M6.99,7C6.988,7,6.985,6.999,6.982,6.998c0.004,0,0.01,0,0.015,0c-0.009,0-0.019,0-0.028,0L6.962,6.997
						c0-0.002,0-0.006,0.004-0.007c0.009-0.004,0.021,0.008,0.029,0.012L6.992,7L6.99,7"/>
					<path fill="#919191" d="M6.99,7C6.988,7,6.985,6.999,6.982,6.998c0.004,0,0.01,0,0.015,0c-0.008,0-0.016,0-0.023,0l-0.006,0
						c0-0.002,0-0.004,0.003-0.005c0.007-0.003,0.017,0.007,0.024,0.01L6.992,7L6.99,7"/>
					<path fill="#8E8E8E" d="M6.99,7C6.988,7,6.985,6.999,6.982,6.998c0.004,0,0.01,0,0.015,0c-0.006,0-0.012,0-0.019,0H6.973
						c0-0.002,0.001-0.003,0.003-0.004C6.982,6.992,6.989,7,6.995,7.002L6.992,7L6.99,7"/>
					<polyline fill="#8A8A8A" points="6.99,7 6.982,6.998 6.997,6.998 6.983,6.998 6.979,6.998 6.981,6.996 6.995,7.002 6.992,7 
						6.99,7 					"/>
					<g>
						<polyline fill="#878787" points="6.997,6.998 6.988,6.998 6.985,6.998 6.985,6.999 6.992,6.999 6.997,6.998 						"/>
						<polyline fill="#878787" points="6.99,7 6.985,6.999 6.985,6.999 6.995,7.002 6.992,7 6.99,7 						"/>
					</g>
					<g>
						<polyline fill="#838383" points="6.997,6.998 6.993,6.998 6.991,6.999 6.991,6.999 6.997,6.998 						"/>
						<polyline fill="#838383" points="6.991,7 6.995,7.002 6.992,7 6.991,7 						"/>
					</g>
					<path fill="#D5D5D5" d="M7.003,7L7.003,7c0-0.003-0.001-0.007-0.001-0.01c0-0.007,0-0.016,0.001-0.023
						C7.003,6.979,7.003,6.99,7.003,7"/>
					<polyline fill="#D2D2D2" points="7.003,7 7.003,7 7.003,6.988 7.003,7 					"/>
				</g>
			</g>
			<g enable-background="new    ">
				<defs>
					<path id="SVGID_17_" enable-background="new    " d="M7.003,7c0-1.657,0-3,0-3h15.993c0,0,0,1.343,0,3H7.003z"/>
				</defs>
				<clipPath id="SVGID_18_">
					<use xlink:href="#SVGID_17_"  overflow="visible"/>
				</clipPath>
				<g clip-path="url(#SVGID_18_)" enable-background="new    ">
					<path fill="#DCDCDC" d="M22.996,7H7.003c0-0.015,0-0.029,0-0.043h15.993C22.996,6.972,22.996,6.986,22.996,7"/>
					<path fill="#DDDDDD" d="M22.996,6.958H7.003c0-0.016,0-0.032,0-0.047h15.993C22.996,6.926,22.996,6.941,22.996,6.958"/>
					<path fill="#DEDEDE" d="M22.996,6.91H7.003c0-0.016,0-0.031,0-0.047h15.993C22.996,6.879,22.996,6.895,22.996,6.91"/>
					<path fill="#DEDEDE" d="M22.996,6.863H7.003c0-0.016,0-0.031,0-0.047h15.993C22.996,6.832,22.996,6.848,22.996,6.863"/>
					<path fill="#DFDFDF" d="M22.996,6.816H7.003c0-0.016,0-0.031,0-0.047h15.993C22.996,6.785,22.996,6.801,22.996,6.816"/>
					<path fill="#E0E0E0" d="M22.996,6.77H7.003c0-0.032,0-0.064,0-0.096h15.993C22.996,6.705,22.996,6.737,22.996,6.77"/>
					<path fill="#E0E0E0" d="M22.996,6.673H7.003c0-0.041,0-0.08,0-0.12h15.993C22.996,6.593,22.996,6.633,22.996,6.673"/>
					<path fill="#E1E1E1" d="M22.996,6.553H7.003c0-0.026,0-0.053,0-0.079h15.993C22.996,6.5,22.996,6.527,22.996,6.553"/>
					<path fill="#E0E0E0" d="M22.996,6.475H7.003c0-0.04,0-0.078,0-0.117h15.993C22.996,6.396,22.996,6.435,22.996,6.475"/>
					<path fill="#E0E0E0" d="M22.996,6.358H7.003c0-0.033,0-0.065,0-0.098h15.993C22.996,6.292,22.996,6.325,22.996,6.358"/>
					<path fill="#DFDFDF" d="M22.996,6.26H7.003c0-0.02,0-0.039,0-0.059h15.993C22.996,6.221,22.996,6.241,22.996,6.26"/>
					<path fill="#DEDEDE" d="M22.996,6.201H7.003c0-0.02,0-0.039,0-0.058h15.993C22.996,6.162,22.996,6.182,22.996,6.201"/>
					<path fill="#DEDEDE" d="M22.996,6.143H7.003c0-0.02,0-0.039,0-0.058h15.993C22.996,6.104,22.996,6.124,22.996,6.143"/>
					<path fill="#DDDDDD" d="M22.996,6.085H7.003c0-0.021,0-0.041,0-0.061h15.993C22.996,6.044,22.996,6.064,22.996,6.085"/>
					<path fill="#DCDCDC" d="M22.996,6.024H7.003c0-0.021,0-0.043,0-0.064h15.993C22.996,5.981,22.996,6.002,22.996,6.024"/>
					<path fill="#D9D9D9" d="M22.996,5.959H7.003c0-0.021,0-0.042,0-0.063h15.993C22.996,5.917,22.996,5.938,22.996,5.959"/>
					<path fill="#D5D5D5" d="M22.996,5.896H7.003c0-0.021,0-0.042,0-0.063h15.993C22.996,5.854,22.996,5.875,22.996,5.896"/>
					<path fill="#D2D2D2" d="M22.996,5.833H7.003c0-0.031,0-0.061,0-0.091h15.993C22.996,5.772,22.996,5.803,22.996,5.833"/>
					<path fill="#CECECE" d="M22.996,5.743H7.003c0-0.03,0-0.06,0-0.089h15.993C22.996,5.683,22.996,5.712,22.996,5.743"/>
					<path fill="#CBCBCB" d="M22.996,5.653H7.003c0-0.038,0-0.075,0-0.112h15.993C22.996,5.579,22.996,5.616,22.996,5.653"/>
					<path fill="#C7C7C7" d="M22.996,5.542H7.003c0-0.041,0-0.082,0-0.122h15.993C22.996,5.46,22.996,5.5,22.996,5.542"/>
					<path fill="#C4C4C4" d="M22.996,5.42H7.003c0-0.047,0-0.093,0-0.139h15.993C22.996,5.327,22.996,5.373,22.996,5.42"/>
					<path fill="#C0C0C0" d="M22.996,5.281H7.003c0-0.046,0-0.091,0-0.135h15.993C22.996,5.19,22.996,5.235,22.996,5.281"/>
					<path fill="#BCBCBC" d="M22.996,5.146H7.003c0-0.044,0-0.087,0-0.129h15.993C22.996,5.059,22.996,5.102,22.996,5.146"/>
					<path fill="#B9B9B9" d="M22.996,5.017H7.003c0-0.042,0-0.082,0-0.121h15.993C22.996,4.935,22.996,4.976,22.996,5.017"/>
					<path fill="#B5B5B5" d="M22.996,4.896H7.003c0-0.039,0-0.077,0-0.114h15.993C22.996,4.819,22.996,4.857,22.996,4.896"/>
					<path fill="#B2B2B2" d="M22.996,4.782H7.003c0-0.037,0-0.073,0-0.107h15.993C22.996,4.709,22.996,4.745,22.996,4.782"/>
					<path fill="#AEAEAE" d="M22.996,4.675H7.003c0-0.035,0-0.068,0-0.101h15.993C22.996,4.606,22.996,4.64,22.996,4.675"/>
					<path fill="#AAAAAA" d="M22.996,4.574H7.003c0-0.033,0-0.064,0-0.095h15.993C22.996,4.509,22.996,4.541,22.996,4.574"/>
					<path fill="#A7A7A7" d="M22.996,4.479H7.003c0-0.031,0-0.061,0-0.089h15.993C22.996,4.418,22.996,4.448,22.996,4.479"/>
					<path fill="#A3A3A3" d="M22.996,4.39H7.003c0-0.029,0-0.057,0-0.083h15.993C22.996,4.333,22.996,4.36,22.996,4.39"/>
					<path fill="#A0A0A0" d="M22.996,4.307H7.003c0-0.027,0-0.052,0-0.076h15.993C22.996,4.255,22.996,4.28,22.996,4.307"/>
					<path fill="#9C9C9C" d="M22.996,4.231H7.003c0-0.025,0-0.048,0-0.069h15.993C22.996,4.184,22.996,4.207,22.996,4.231"/>
					<path fill="#999999" d="M22.996,4.163H7.003c0-0.022,0-0.042,0-0.06h15.993C22.996,4.121,22.996,4.141,22.996,4.163"/>
					<path fill="#959595" d="M22.996,4.103H7.003c0-0.019,0-0.035,0-0.049h15.993C22.996,4.068,22.996,4.084,22.996,4.103"/>
					<path fill="#919191" d="M22.996,4.054H7.003c0-0.015,0-0.027,0-0.036h15.993C22.996,4.027,22.996,4.04,22.996,4.054"/>
					<path fill="#8E8E8E" d="M22.996,4.019H7.003c0-0.01,0-0.016,0-0.018h15.993C22.996,4.003,22.996,4.009,22.996,4.019"/>
					<polyline fill="#8A8A8A" points="22.996,4.001 7.003,4.001 7.003,4 22.996,4 22.996,4.001 					"/>
				</g>
			</g>
			<g enable-background="new    ">
				<defs>
					<path id="SVGID_19_" enable-background="new    " d="M6.997,23c-0.004-0.001-0.009-0.002-0.013-0.001
						c0.004-0.001,0.009-0.002,0.013-0.004c0.001-0.001,0.005,0.003,0.006,0.002c0,1.657,0,3,0,3c-1.656,0-3.006-1.341-3.006-2.997
						C3.997,23,5.34,23,6.997,23z"/>
				</defs>
				<clipPath id="SVGID_20_">
					<use xlink:href="#SVGID_19_"  overflow="visible"/>
				</clipPath>
				<g clip-path="url(#SVGID_20_)" enable-background="new    ">
					<path fill="#D9D9D9" d="M6.997,23c0.001-0.006,0.005-0.002,0.006-0.003c0,1.657,0,3,0,3c-1.656,0-3.006-1.341-3.006-2.997
						C3.997,23,5.34,23,6.997,23"/>
					<path fill="#D9D9D9" d="M6.997,23l-0.013-0.001h0.003c0.009-0.004,0.01-0.004,0.01-0.004l-0.001,0.001H7
						c0.003,1.658,0.003,3.001,0.003,3.001c-1.656,0-3.006-1.341-3.006-2.997C3.997,23,5.34,23,6.997,23"/>
					<path fill="#D5D5D5" d="M6.997,23l-0.013-0.001h0.003c0.009-0.004,0.009-0.004,0.009-0.004l-0.017,0.01
						c-0.001,0.004-0.007,0.01-0.005,0.015c0.001,0.004,0.009,0.008,0.014,0.007c0.009-0.002,0.012-0.02,0.014-0.029
						c0,1.657,0,3,0,3c-1.656,0-3.006-1.341-3.006-2.997C3.997,23,5.34,23,6.997,23"/>
					<path fill="#D2D2D2" d="M6.997,23l-0.013-0.001h0.003c0.009-0.004,0.009-0.004,0.009-0.004l-0.035,0.021
						c-0.005,0.004-0.017,0.007-0.017,0.014s0.034,0.033,0.041,0.032c0.017-0.003,0.017-0.037,0.018-0.054c0,1.652,0,2.988,0,2.988
						c-1.656,0-3.006-1.341-3.006-2.997C3.997,23,5.34,23,6.997,23"/>
					<path fill="#CECECE" d="M6.877,23c0.005,0,0.011,0,0.017,0c0.035,0,0.069,0,0.103,0c-0.002,0-0.004-0.001-0.006-0.001H6.984
						h0.003c0.009-0.004,0.009-0.004,0.009-0.004l-0.054,0.032c-0.007,0.006-0.023,0.011-0.024,0.021
						c-0.005,0.056,0.068,0.044,0.084,0.085c0,1.594,0,2.864,0,2.864c-1.656,0-3.006-1.341-3.006-2.997C3.997,23,5.275,23,6.877,23"
						/>
					<path fill="#CBCBCB" d="M6.836,23C6.854,23,6.876,23,6.894,23C6.933,23,6.965,23,6.997,23c-0.002,0-0.004-0.001-0.006-0.001
						H6.984h0.003c0.009-0.004,0.009-0.004,0.009-0.004l-0.072,0.044c-0.01,0.009-0.033,0.015-0.034,0.028
						c-0.008,0.074,0.076,0.072,0.113,0.11c0,1.573,0,2.819,0,2.819c-1.656,0-3.006-1.341-3.006-2.997C3.997,23,5.254,23,6.836,23"
						/>
					<path fill="#C7C7C7" d="M6.796,23c0.029,0,0.068,0.002,0.098,0.002C6.936,23,6.966,23,6.997,23
						c-0.002,0-0.004-0.001-0.006-0.001H6.984h0.003c0.009-0.004,0.009-0.004,0.009-0.004l-0.088,0.053
						c-0.014,0.012-0.046,0.021-0.048,0.04c0,0,0.084,0.095,0.143,0.137c0,1.551,0,2.772,0,2.772c-1.656,0-3.006-1.341-3.006-2.997
						C3.997,23,5.232,23,6.796,23"/>
					<path fill="#C4C4C4" d="M6.749,23c0.03,0.017,0.037,0.051,0.057,0.076c0.003-0.021-0.004-0.044,0.017-0.06
						c0.018-0.014,0.05-0.01,0.072-0.014C6.898,23.001,6.905,23,6.91,23c0.029,0,0.058,0,0.087,0c-0.002,0-0.004-0.001-0.006-0.001
						H6.984h0.003c0.009-0.004,0.009-0.004,0.009-0.004l-0.09,0.05c-0.024,0.016-0.072,0.025-0.079,0.053
						c-0.003,0.012,0.122,0.144,0.175,0.177c0,1.527,0,2.723,0,2.723c-1.656,0-3.006-1.341-3.006-2.997C3.997,23,5.208,23,6.749,23"
						/>
					<path fill="#C0C0C0" d="M6.702,23c0.004,0.003,0.004,0.01,0.006,0.014c0.018,0.042,0.166,0.231,0.295,0.313
						c0,1.502,0,2.67,0,2.67c-1.656,0-3.006-1.341-3.006-2.997C3.997,23,5.183,23,6.702,23"/>
					<path fill="#BCBCBC" d="M6.648,23c0.032,0.021,0.039,0.058,0.058,0.087c0.131,0.19,0.295,0.297,0.297,0.298
						c0,1.474,0,2.612,0,2.612c-1.656,0-3.006-1.341-3.006-2.997C3.997,23,5.155,23,6.648,23"/>
					<path fill="#B9B9B9" d="M6.592,23c0.005,0.004,0.005,0.014,0.008,0.02c0.03,0.072,0.223,0.321,0.403,0.429
						c0,1.443,0,2.549,0,2.549c-1.656,0-3.006-1.341-3.006-2.997C3.997,23,5.126,23,6.592,23"/>
					<path fill="#B5B5B5" d="M6.526,23c0.006,0.004,0.007,0.016,0.01,0.022c0.014,0.03,0.203,0.333,0.467,0.494
						c0,1.409,0,2.48,0,2.48c-1.656,0-3.006-1.341-3.006-2.997C3.997,23,5.092,23,6.526,23"/>
					<path fill="#B2B2B2" d="M6.455,23c0.007,0.005,0.009,0.019,0.013,0.026c0.082,0.171,0.328,0.45,0.536,0.567
						c0,1.371,0,2.403,0,2.403c-1.656,0-3.006-1.341-3.006-2.997C3.997,23,5.057,23,6.455,23"/>
					<path fill="#AEAEAE" d="M6.376,23c0.009,0.006,0.011,0.021,0.016,0.03c0.1,0.2,0.348,0.496,0.611,0.648
						c0,1.329,0,2.318,0,2.318c-1.656,0-3.006-1.341-3.006-2.997C3.997,23,5.017,23,6.376,23"/>
					<path fill="#AAAAAA" d="M6.292,23c0.01,0.006,0.012,0.024,0.017,0.035c0.055,0.117,0.301,0.505,0.695,0.735
						c0,1.282,0,2.227,0,2.227c-1.656,0-3.006-1.341-3.006-2.997C3.997,23,4.975,23,6.292,23"/>
					<path fill="#A7A7A7" d="M6.201,23c0.011,0.007,0.013,0.027,0.018,0.039c0.01,0.021,0.246,0.518,0.784,0.829
						c0,1.232,0,2.129,0,2.129c-1.656,0-3.006-1.341-3.006-2.997C3.997,23,4.93,23,6.201,23"/>
					<path fill="#A3A3A3" d="M6.105,23c0.012,0.008,0.014,0.031,0.021,0.044c0.027,0.06,0.282,0.593,0.877,0.925
						c0,1.181,0,2.028,0,2.028c-1.656,0-3.006-1.341-3.006-2.997C3.997,23,4.884,23,6.105,23"/>
					<path fill="#A0A0A0" d="M6.006,23c0.014,0.009,0.015,0.034,0.022,0.049c0.03,0.067,0.313,0.668,0.975,1.024
						c0,1.126,0,1.924,0,1.924c-1.656,0-3.006-1.341-3.006-2.997C3.997,23,4.836,23,6.006,23"/>
					<path fill="#9C9C9C" d="M5.903,23c0.011,0.007,0.012,0.028,0.018,0.04c0.157,0.362,0.523,0.852,1.083,1.142
						c0,1.068,0,1.815,0,1.815c-1.656,0-3.006-1.341-3.006-2.997C3.997,23,4.787,23,5.903,23"/>
					<path fill="#999999" d="M5.796,23c0.016,0.011,0.018,0.042,0.025,0.06c0.057,0.136,0.381,0.829,1.182,1.234
						c0,1.008,0,1.703,0,1.703c-1.656,0-3.006-1.341-3.006-2.997C3.997,23,4.737,23,5.796,23"/>
					<path fill="#959595" d="M5.684,23c0.018,0.012,0.019,0.046,0.026,0.065c0.037,0.093,0.385,0.912,1.293,1.346
						c0,0.944,0,1.586,0,1.586c-1.656,0-3.006-1.341-3.006-2.997C3.997,23,4.685,23,5.684,23"/>
					<path fill="#919191" d="M5.565,23c0.019,0.013,0.019,0.051,0.027,0.072c0.015,0.04,0.382,0.989,1.411,1.463
						c0,0.876,0,1.462,0,1.462c-1.656,0-3.006-1.341-3.006-2.997C3.997,23,4.631,23,5.565,23"/>
					<path fill="#8E8E8E" d="M5.436,23c0.021,0.015,0.02,0.055,0.029,0.078c0.151,0.408,0.646,1.202,1.539,1.59
						c0,0.802,0,1.329,0,1.329c-1.656,0-3.006-1.341-3.006-2.997C3.997,23,4.573,23,5.436,23"/>
					<path fill="#8A8A8A" d="M5.292,23c0.021,0.015,0.021,0.057,0.029,0.08c0.203,0.563,0.764,1.354,1.682,1.736
						c0,0.718,0,1.181,0,1.181c-1.656,0-3.006-1.341-3.006-2.997C3.997,23,4.51,23,5.292,23"/>
					<path fill="#878787" d="M5.127,23c0.024,0.018,0.022,0.066,0.032,0.095c0.225,0.661,0.898,1.535,1.844,1.891
						c0,0.62,0,1.012,0,1.012c-1.656,0-3.006-1.341-3.006-2.997C3.997,23,4.438,23,5.127,23"/>
					<path fill="#838383" d="M4.918,23c0.022,0.017,0.02,0.063,0.028,0.089c0.236,0.753,0.98,1.733,2.057,2.107
						c0,0.497,0,0.801,0,0.801c-1.656,0-3.006-1.341-3.006-2.997C3.997,23,4.351,23,4.918,23"/>
					<path fill="#C0C0C0" d="M6.997,23c-0.004-0.001-0.009-0.002-0.013-0.001h0.003c0.003-0.001,0.006-0.003,0.009-0.004l0,0
						l-0.087,0.048c-0.016-0.001-0.036,0.026-0.05,0.019c-0.009-0.005,0.004-0.05,0.017-0.057C6.886,23,6.903,23.001,6.914,23
						C6.942,23,6.969,23,6.997,23"/>
					<path fill="#BCBCBC" d="M6.997,23c-0.004-0.001-0.009-0.002-0.013-0.001h0.003c0.003-0.001,0.006-0.003,0.009-0.004l0,0
						L6.914,23.04c-0.003,0-0.007,0.001-0.01,0c-0.004-0.003-0.01-0.032-0.006-0.036C6.902,22.999,6.913,23,6.919,23
						C6.945,23,6.971,23,6.997,23"/>
					<path fill="#B9B9B9" d="M6.997,23c-0.004-0.001-0.009-0.002-0.013-0.001h0.003c0.003-0.001,0.006-0.003,0.009-0.004l0,0
						l-0.078,0.042c-0.002,0-0.007,0.001-0.009,0c-0.004-0.003-0.009-0.03-0.006-0.033C6.907,22.999,6.917,23,6.923,23
						C6.948,23,6.972,23,6.997,23"/>
					<path fill="#B5B5B5" d="M6.997,23c-0.004-0.001-0.009-0.002-0.013-0.001h0.003c0.003-0.001,0.006-0.003,0.009-0.004l0,0
						l-0.073,0.039c-0.002,0-0.006,0.002-0.008,0c-0.004-0.002-0.009-0.027-0.006-0.03C6.913,22.999,6.922,23,6.928,23
						C6.951,23,6.974,23,6.997,23"/>
					<path fill="#B2B2B2" d="M6.997,23c-0.004-0.001-0.009-0.002-0.013-0.001h0.003c0.003-0.001,0.006-0.003,0.009-0.004l0,0
						l-0.068,0.037c-0.002,0-0.006,0.001-0.008,0c-0.004-0.003-0.008-0.026-0.006-0.029C6.918,22.999,6.927,23,6.933,23
						C6.954,23,6.976,23,6.997,23"/>
					<path fill="#AEAEAE" d="M6.997,23c-0.004-0.001-0.009-0.002-0.013-0.001h0.003c0.003-0.001,0.006-0.003,0.009-0.004l0,0
						l-0.063,0.034c-0.002,0-0.005,0.001-0.007,0c-0.003-0.002-0.008-0.023-0.005-0.026C6.924,22.999,6.932,23,6.937,23
						C6.957,23,6.977,23,6.997,23"/>
					<path fill="#AAAAAA" d="M6.997,23c-0.004-0.001-0.009-0.002-0.013-0.001h0.003c0.003-0.001,0.006-0.003,0.009-0.004l0,0
						l-0.059,0.031c-0.002,0-0.005,0.001-0.007,0c-0.003-0.002-0.007-0.021-0.005-0.023C6.93,22.999,6.937,23,6.942,23
						C6.96,23,6.979,23,6.997,23"/>
					<path fill="#A7A7A7" d="M6.997,23c-0.004-0.001-0.009-0.002-0.013-0.001h0.003c0.003-0.001,0.006-0.003,0.009-0.004l0,0
						l-0.054,0.029c-0.002,0-0.005,0.001-0.006-0.001c-0.003-0.001-0.006-0.019-0.004-0.021C6.935,22.999,6.942,23,6.946,23
						C6.963,23,6.98,23,6.997,23"/>
					<path fill="#A3A3A3" d="M6.997,23c-0.004-0.001-0.009-0.002-0.013-0.001h0.003c0.003-0.001,0.006-0.003,0.009-0.004l0,0
						l-0.049,0.026c-0.001,0-0.004,0.001-0.006,0c-0.003-0.002-0.006-0.018-0.004-0.02C6.941,22.999,6.947,23,6.951,23
						C6.966,23,6.982,23,6.997,23"/>
					<path fill="#A0A0A0" d="M6.997,23c-0.004-0.001-0.009-0.002-0.013-0.001h0.003c0.003-0.001,0.006-0.003,0.009-0.004l0,0
						l-0.044,0.023c-0.001,0-0.004,0.001-0.005,0c-0.002-0.001-0.005-0.015-0.003-0.017C6.947,22.999,6.952,23,6.956,23
						C6.969,23,6.983,23,6.997,23"/>
					<path fill="#9C9C9C" d="M6.997,23c-0.004-0.001-0.009-0.002-0.013-0.001h0.003c0.003-0.001,0.006-0.003,0.009-0.004l0,0
						l-0.039,0.021c-0.001,0-0.003,0.001-0.005,0c-0.002-0.001-0.004-0.013-0.003-0.014C6.952,22.999,6.957,23,6.96,23
						C6.972,23,6.985,23,6.997,23"/>
					<path fill="#999999" d="M6.997,23c-0.004-0.001-0.009-0.002-0.013-0.001h0.003c0.003-0.001,0.006-0.003,0.009-0.004l0,0
						l-0.034,0.019c-0.001,0-0.003,0-0.004,0C6.957,23.011,6.954,23.002,6.956,23C6.958,22.999,6.962,23,6.965,23
						C6.976,23,6.986,23,6.997,23"/>
					<path fill="#959595" d="M6.997,23c-0.004-0.001-0.009-0.002-0.013-0.001h0.003c0.003-0.001,0.006-0.003,0.009-0.004l0,0
						L6.967,23.01c-0.001,0-0.002,0.001-0.003,0C6.959,23.008,6.958,23.003,6.961,23C6.963,22.999,6.967,23,6.969,23
						C6.979,23,6.988,23,6.997,23"/>
					<path fill="#919191" d="M6.997,23c-0.004-0.001-0.009-0.002-0.013-0.001h0.003c0.003-0.001,0.006-0.003,0.009-0.004l0,0
						l-0.024,0.013c-0.001,0-0.002,0.001-0.003,0C6.966,23.005,6.964,23.002,6.967,23C6.969,22.999,6.972,23,6.974,23
						C6.982,23,6.989,23,6.997,23"/>
					<path fill="#8E8E8E" d="M6.997,23c-0.004-0.001-0.009-0.002-0.013-0.001h0.003c0.003-0.001,0.006-0.003,0.009-0.004l0,0
						l-0.02,0.011c0,0-0.002,0-0.002,0C6.973,23.003,6.971,23,6.973,23c0.001,0,0.004,0,0.005,0C6.985,23,6.991,23,6.997,23"/>
					<polyline fill="#8A8A8A" points="6.997,23 6.984,22.999 6.987,22.999 6.997,22.995 6.997,22.995 6.982,23.002 6.98,23.002 
						6.979,23 6.983,23 6.997,23 					"/>
					<g>
						<polyline fill="#878787" points="6.991,22.998 6.997,22.995 6.997,22.995 6.987,23 6.986,23 6.984,22.999 6.991,22.998 						
							"/>
						<polyline fill="#878787" points="6.997,23 6.985,22.999 6.985,22.999 6.988,23 6.997,23 						"/>
					</g>
					<g>
						<polyline fill="#838383" points="6.997,22.995 6.991,22.998 6.997,22.995 						"/>
						<polyline fill="#838383" points="6.997,23 6.991,22.999 6.991,22.999 6.993,23 6.997,23 						"/>
					</g>
				</g>
			</g>
			<g enable-background="new    ">
				<defs>
					<path id="SVGID_21_" enable-background="new    " d="M22.996,22.997c0,1.657,0,3,0,3H7.003c0,0,0-1.343,0-3H22.996z"/>
				</defs>
				<clipPath id="SVGID_22_">
					<use xlink:href="#SVGID_21_"  overflow="visible"/>
				</clipPath>
				<g clip-path="url(#SVGID_22_)" enable-background="new    ">
					<polyline fill="#DCDCDC" points="7.003,22.997 22.996,22.997 22.996,23 7.003,23 7.003,22.997 					"/>
					<path fill="#D9D9D9" d="M7.003,23h15.993c0,0.015,0,0.03,0,0.045H7.003C7.003,23.031,7.003,23.015,7.003,23"/>
					<path fill="#D5D5D5" d="M7.003,23.045h15.993c0,0.015,0,0.029,0,0.044H7.003C7.003,23.075,7.003,23.06,7.003,23.045"/>
					<path fill="#D2D2D2" d="M7.003,23.089h15.993c0,0.016,0,0.03,0,0.045H7.003C7.003,23.12,7.003,23.105,7.003,23.089"/>
					<path fill="#CECECE" d="M7.003,23.134h15.993c0,0.015,0,0.029,0,0.044H7.003C7.003,23.164,7.003,23.149,7.003,23.134"/>
					<path fill="#CBCBCB" d="M7.003,23.178h15.993c0,0.015,0,0.029,0,0.044H7.003C7.003,23.208,7.003,23.193,7.003,23.178"/>
					<path fill="#C7C7C7" d="M7.003,23.222h15.993c0,0.018,0,0.035,0,0.052H7.003C7.003,23.257,7.003,23.24,7.003,23.222"/>
					<path fill="#C4C4C4" d="M7.003,23.274h15.993c0,0.02,0,0.039,0,0.06H7.003C7.003,23.313,7.003,23.293,7.003,23.274"/>
					<path fill="#C0C0C0" d="M7.003,23.333h15.993c0,0.02,0,0.039,0,0.058H7.003C7.003,23.373,7.003,23.353,7.003,23.333"/>
					<path fill="#BCBCBC" d="M7.003,23.391h15.993c0,0.02,0,0.039,0,0.059H7.003C7.003,23.43,7.003,23.411,7.003,23.391"/>
					<path fill="#B9B9B9" d="M7.003,23.45h15.993c0,0.022,0,0.046,0,0.068H7.003C7.003,23.496,7.003,23.472,7.003,23.45"/>
					<path fill="#B5B5B5" d="M7.003,23.518h15.993c0,0.027,0,0.055,0,0.082H7.003C7.003,23.573,7.003,23.545,7.003,23.518"/>
					<path fill="#B2B2B2" d="M7.003,23.6h15.993c0,0.026,0,0.054,0,0.08H7.003C7.003,23.654,7.003,23.626,7.003,23.6"/>
					<path fill="#AEAEAE" d="M7.003,23.68h15.993c0,0.03,0,0.061,0,0.091H7.003C7.003,23.741,7.003,23.71,7.003,23.68"/>
					<path fill="#AAAAAA" d="M7.003,23.771h15.993c0,0.033,0,0.065,0,0.098H7.003C7.003,23.836,7.003,23.804,7.003,23.771"/>
					<path fill="#A7A7A7" d="M7.003,23.869h15.993c0,0.033,0,0.066,0,0.1H7.003C7.003,23.935,7.003,23.902,7.003,23.869"/>
					<path fill="#A3A3A3" d="M7.003,23.968h15.993c0,0.035,0,0.071,0,0.106H7.003C7.003,24.04,7.003,24.003,7.003,23.968"/>
					<path fill="#A0A0A0" d="M7.003,24.075h15.993c0,0.035,0,0.071,0,0.106H7.003C7.003,24.146,7.003,24.11,7.003,24.075"/>
					<path fill="#9C9C9C" d="M7.003,24.181h15.993c0,0.038,0,0.076,0,0.113H7.003C7.003,24.257,7.003,24.219,7.003,24.181"/>
					<path fill="#999999" d="M7.003,24.294h15.993c0,0.04,0,0.078,0,0.116H7.003C7.003,24.373,7.003,24.334,7.003,24.294"/>
					<path fill="#959595" d="M7.003,24.411h15.993c0,0.043,0,0.084,0,0.125H7.003C7.003,24.495,7.003,24.454,7.003,24.411"/>
					<path fill="#919191" d="M7.003,24.536h15.993c0,0.046,0,0.091,0,0.136H7.003C7.003,24.626,7.003,24.582,7.003,24.536"/>
					<path fill="#8E8E8E" d="M7.003,24.671h15.993c0,0.05,0,0.1,0,0.147H7.003C7.003,24.771,7.003,24.721,7.003,24.671"/>
					<path fill="#8A8A8A" d="M7.003,24.819h15.993c0,0.058,0,0.114,0,0.169H7.003C7.003,24.933,7.003,24.876,7.003,24.819"/>
					<path fill="#878787" d="M7.003,24.988h15.993c0,0.075,0,0.146,0,0.214H7.003C7.003,25.134,7.003,25.063,7.003,24.988"/>
					<path fill="#838383" d="M7.003,25.202h15.993c0,0.493,0,0.795,0,0.795H7.003C7.003,25.997,7.003,25.695,7.003,25.202"/>
				</g>
			</g>
			<g enable-background="new    ">
				<defs>
					<path id="SVGID_23_" enable-background="new    " d="M6.997,23c-1.657,0-3,0-3,0V6.998c0,0,1.343,0,3,0V23z"/>
				</defs>
				<clipPath id="SVGID_24_">
					<use xlink:href="#SVGID_23_"  overflow="visible"/>
				</clipPath>
				<g clip-path="url(#SVGID_24_)" enable-background="new    ">
					<polyline fill="#DCDCDC" points="6.997,6.998 6.997,23 6.994,23 6.994,6.998 6.997,6.998 					"/>
					<path fill="#D9D9D9" d="M6.994,6.998V23c-0.014,0-0.027,0-0.041,0V6.998C6.967,6.998,6.98,6.998,6.994,6.998"/>
					<path fill="#D5D5D5" d="M6.953,6.998V23c-0.013,0-0.027,0-0.04,0V6.998C6.926,6.998,6.94,6.998,6.953,6.998"/>
					<path fill="#D2D2D2" d="M6.913,6.998V23c-0.013,0-0.026,0-0.04,0V6.998C6.887,6.998,6.9,6.998,6.913,6.998"/>
					<path fill="#CECECE" d="M6.873,6.998V23c-0.013,0-0.026,0-0.04,0V6.998C6.847,6.998,6.86,6.998,6.873,6.998"/>
					<path fill="#CBCBCB" d="M6.833,6.998V23c-0.013,0-0.026,0-0.04,0V6.998C6.807,6.998,6.82,6.998,6.833,6.998"/>
					<path fill="#C7C7C7" d="M6.794,6.998V23c-0.013,0-0.026,0-0.04,0V6.998C6.768,6.998,6.781,6.998,6.794,6.998"/>
					<path fill="#C4C4C4" d="M6.754,6.998V23c-0.019,0-0.038,0-0.057,0V6.998C6.717,6.998,6.735,6.998,6.754,6.998"/>
					<path fill="#C0C0C0" d="M6.698,6.998V23c-0.019,0-0.038,0-0.057,0V6.998C6.66,6.998,6.679,6.998,6.698,6.998"/>
					<path fill="#BCBCBC" d="M6.641,6.998V23c-0.019,0-0.038,0-0.057,0V6.998C6.603,6.998,6.622,6.998,6.641,6.998"/>
					<path fill="#B9B9B9" d="M6.583,6.998V23c-0.019,0-0.038,0-0.057,0V6.998C6.545,6.998,6.564,6.998,6.583,6.998"/>
					<path fill="#B5B5B5" d="M6.527,6.998V23c-0.025,0-0.05,0-0.074,0V6.998C6.477,6.998,6.502,6.998,6.527,6.998"/>
					<path fill="#B2B2B2" d="M6.453,6.998V23c-0.027,0-0.054,0-0.081,0V6.998C6.398,6.998,6.425,6.998,6.453,6.998"/>
					<path fill="#AEAEAE" d="M6.372,6.998V23c-0.027,0-0.054,0-0.08,0V6.998C6.318,6.998,6.345,6.998,6.372,6.998"/>
					<path fill="#AAAAAA" d="M6.292,6.998V23c-0.031,0-0.062,0-0.093,0V6.998C6.23,6.998,6.261,6.998,6.292,6.998"/>
					<path fill="#A7A7A7" d="M6.199,6.998V23c-0.032,0-0.063,0-0.095,0V6.998C6.136,6.998,6.167,6.998,6.199,6.998"/>
					<path fill="#A3A3A3" d="M6.104,6.998V23c-0.033,0-0.066,0-0.099,0V6.998C6.039,6.998,6.071,6.998,6.104,6.998"/>
					<path fill="#A0A0A0" d="M6.006,6.998V23c-0.035,0-0.069,0-0.104,0V6.998C5.937,6.998,5.971,6.998,6.006,6.998"/>
					<path fill="#9C9C9C" d="M5.902,6.998V23c-0.036,0-0.071,0-0.106,0V6.998C5.831,6.998,5.866,6.998,5.902,6.998"/>
					<path fill="#999999" d="M5.796,6.998V23c-0.038,0-0.076,0-0.114,0V6.998C5.72,6.998,5.758,6.998,5.796,6.998"/>
					<path fill="#959595" d="M5.682,6.998V23c-0.04,0-0.08,0-0.119,0V6.998C5.602,6.998,5.642,6.998,5.682,6.998"/>
					<path fill="#919191" d="M5.563,6.998V23c-0.043,0-0.085,0-0.127,0V6.998C5.478,6.998,5.52,6.998,5.563,6.998"/>
					<path fill="#8E8E8E" d="M5.436,6.998V23c-0.05,0-0.099,0-0.146,0V6.998C5.337,6.998,5.386,6.998,5.436,6.998"/>
					<path fill="#8A8A8A" d="M5.289,6.998V23c-0.057,0-0.112,0-0.167,0V6.998C5.177,6.998,5.232,6.998,5.289,6.998"/>
					<path fill="#878787" d="M5.123,6.998V23c-0.072,0-0.142,0-0.208,0V6.998C4.981,6.998,5.05,6.998,5.123,6.998"/>
					<path fill="#838383" d="M4.915,6.998V23c-0.565,0-0.917,0-0.917,0V6.998C3.997,6.998,4.349,6.998,4.915,6.998"/>
				</g>
			</g>
			<g>
				<path fill="#C1C1C1" d="M22.996,7c0.01,0.001,0.009,0.003,0.007-0.003c0,5.334,0,10.668,0,16.002
					c0.002-0.006,0.003-0.004-0.007-0.003c-5.331,0-10.662,0-15.993,0C7.001,22.999,6.994,22.989,6.997,23
					c0-5.334,0-10.668,0-16.002C6.994,7.009,7.002,6.998,7.003,7C12.334,7,17.665,7,22.996,7z"/>
			</g>
		</g>
	</g>
</g>
<polygon fill="#939598" points="10.929,9.558 20.358,15 10.929,20.443 "/>
</svg>
