<?xml version="1.0" encoding="utf-8"?>
<!-- Generator: Adobe Illustrator 16.0.3, SVG Export Plug-In . SVG Version: 6.00 Build 0)  -->
<!DOCTYPE svg PUBLIC "-//W3C//DTD SVG 1.1//EN" "http://www.w3.org/Graphics/SVG/1.1/DTD/svg11.dtd">
<svg version="1.1" id="Layer_1" xmlns="http://www.w3.org/2000/svg" xmlns:xlink="http://www.w3.org/1999/xlink" x="0px" y="0px"
	 width="214.103px" height="353.93px" viewBox="0 0 214.103 353.93" enable-background="new 0 0 214.103 353.93"
	 xml:space="preserve">
<linearGradient id="SVGID_1_" gradientUnits="userSpaceOnUse" x1="79.0562" y1="78.3198" x2="42.0573" y2="41.321">
	<stop  offset="0" style="stop-color:#1A1A1A"/>
	<stop  offset="0.4775" style="stop-color:#1A1A1A"/>
	<stop  offset="0.5818" style="stop-color:#242424"/>
	<stop  offset="0.7717" style="stop-color:#333333"/>
	<stop  offset="1" style="stop-color:#666666"/>
</linearGradient>
<path fill="url(#SVGID_1_)" stroke="#000000" stroke-width="1.5656" stroke-miterlimit="10" d="M95.077,59.82
	c0,2.728-1.648,4.938-3.682,4.938H29.718c-2.034,0-3.683-2.211-3.683-4.938l0,0c0-2.728,1.649-4.938,3.683-4.938h61.677
	C93.428,54.881,95.077,57.092,95.077,59.82L95.077,59.82z"/>
<linearGradient id="SVGID_2_" gradientUnits="userSpaceOnUse" x1="106.5137" y1="369.3369" x2="39.342" y2="302.1652">
	<stop  offset="0" style="stop-color:#475154"/>
	<stop  offset="0.0864" style="stop-color:#5F6769"/>
	<stop  offset="0.2603" style="stop-color:#898D90"/>
	<stop  offset="0.3966" style="stop-color:#A3A5A7"/>
	<stop  offset="0.4775" style="stop-color:#ADAEB0"/>
	<stop  offset="0.7505" style="stop-color:#C2C3C5"/>
	<stop  offset="1" style="stop-color:#D0D2D3"/>
	<stop  offset="1" style="stop-color:#D5D6D6"/>
	<stop  offset="1" style="stop-color:#E4E1DE"/>
</linearGradient>
<path fill="url(#SVGID_2_)" stroke="#000000" stroke-width="1.5656" stroke-miterlimit="10" d="M135.941,337.316
	c0,3.459-2.804,6.262-6.263,6.262l-113.501,0.001c-3.459,0-6.263-2.804-6.263-6.263v-3.131c0-3.459,2.804-6.262,6.263-6.262h113.501
	c3.459,0,6.263,2.803,6.263,6.262V337.316z"/>
<linearGradient id="SVGID_3_" gradientUnits="userSpaceOnUse" x1="27.3306" y1="488.4297" x2="4.0817" y2="465.1808" gradientTransform="matrix(0.6666 0 0 0.6666 1.4048 17.3002)">
	<stop  offset="0" style="stop-color:#475154"/>
	<stop  offset="0.0864" style="stop-color:#5F6769"/>
	<stop  offset="0.2603" style="stop-color:#898D90"/>
	<stop  offset="0.3966" style="stop-color:#A3A5A7"/>
	<stop  offset="0.4775" style="stop-color:#ADAEB0"/>
	<stop  offset="0.7505" style="stop-color:#C2C3C5"/>
	<stop  offset="1" style="stop-color:#D0D2D3"/>
	<stop  offset="1" style="stop-color:#D5D6D6"/>
	<stop  offset="1" style="stop-color:#E4E1DE"/>
</linearGradient>
<path fill="url(#SVGID_3_)" stroke="#000000" stroke-width="1.5656" stroke-miterlimit="10" d="M22.699,335.272
	c0,6.052-4.906,10.959-10.958,10.959c-6.052,0-10.958-4.907-10.958-10.959s4.906-10.958,10.958-10.958
	C19.185,324.314,22.699,329.221,22.699,335.272z"/>
<linearGradient id="SVGID_4_" gradientUnits="userSpaceOnUse" x1="216.71" y1="488.6309" x2="193.4618" y2="465.3827" gradientTransform="matrix(0.6666 0 0 0.6666 1.4048 17.3002)">
	<stop  offset="0" style="stop-color:#475154"/>
	<stop  offset="0.0864" style="stop-color:#5F6769"/>
	<stop  offset="0.2603" style="stop-color:#898D90"/>
	<stop  offset="0.3966" style="stop-color:#A3A5A7"/>
	<stop  offset="0.4775" style="stop-color:#ADAEB0"/>
	<stop  offset="0.7505" style="stop-color:#C2C3C5"/>
	<stop  offset="1" style="stop-color:#D0D2D3"/>
	<stop  offset="1" style="stop-color:#D5D6D6"/>
	<stop  offset="1" style="stop-color:#E4E1DE"/>
</linearGradient>
<circle fill="url(#SVGID_4_)" stroke="#000000" stroke-width="1.5656" stroke-miterlimit="10" cx="138.116" cy="335.272" r="10.958"/>
<linearGradient id="SVGID_5_" gradientUnits="userSpaceOnUse" x1="223.6016" y1="250.9482" x2="27.409" y2="54.7557">
	<stop  offset="0" style="stop-color:#1A1A1A"/>
	<stop  offset="0.4775" style="stop-color:#1A1A1A"/>
	<stop  offset="0.6143" style="stop-color:#242424"/>
	<stop  offset="0.8636" style="stop-color:#333333"/>
	<stop  offset="1" style="stop-color:#666666"/>
</linearGradient>
<path fill="url(#SVGID_5_)" stroke="#000000" stroke-width="1.5656" stroke-miterlimit="10" d="M34.055,54.836
	c11.371-15.809,22.708-31.639,40.272-41.075C103.621-1.976,150.7-5.13,179.262,14.002c10.014,6.708,20.694,18.251,24.965,29.902
	c0,0,3.881,10.587,4.798,14.228c1.096,4.348,3.001,17.684,3.001,17.684l1.294,18.969v115.61l-0.323,12.558
	c0,0,0.084,10.188-0.195,13.744c-0.257,3.264-1.124,10.161-1.868,13.484c-9.787,43.66-61.035,52.848-98.897,46.608
	c-1.342-0.221-44.278-6.677-44.278-7.245v-35.176l8.61,1.043l17.619-0.179l17.477-0.825c0,0,14.906-0.662,19.846-1.22
	c3.859-0.434,11.546-1.897,15.198-3.223c3.46-1.254,9.904-5.235,12.392-7.948c2.051-2.238,4.85-7.818,5.645-10.747
	c0.928-3.429,1.84-14.09,1.84-14.09l0.551-16.917l-0.541-19.484l-0.883-22.719l-0.318-11.333l-0.07-12.692l0.279-10.307
	l1.374-17.308c0,0-0.141-13.826-0.604-18.407c-0.34-3.372-1.709-10.037-2.61-13.304c-0.723-2.617-2.771-7.722-4.272-9.983
	c-1.795-2.701-6.435-7.364-9.018-9.326c-2.451-1.862-7.909-4.875-10.822-5.871c-3.246-1.111-10.125-1.939-13.545-2.218
	c-3.471-0.283-13.926,0-13.926,0l-13.578,2.218l-7.002,1.663l-8.668,3.947L58.233,55.4L34.055,54.836z"/>
<g>
	<g>
		<g enable-background="new    ">
			<defs>
				<path id="SVGID_6_" enable-background="new    " d="M62.387,98.665v240c0,0-0.01,0-0.56,0c-1.875,0-6.415,0-10.134,0
					c-2.628,0-4.306,0-4.306,0v-240c0,0,1.677,0,4.306,0c3.72,0,8.259,0,10.134,0C62.377,98.665,62.387,98.665,62.387,98.665z"/>
			</defs>
			<clipPath id="SVGID_7_">
				<use xlink:href="#SVGID_6_"  overflow="visible"/>
			</clipPath>
			<g clip-path="url(#SVGID_7_)" enable-background="new    ">
				<polyline fill="#767676" points="62.387,98.665 62.387,338.199 62.387,338.199 62.387,98.2 62.387,98.665 				"/>
				<polyline fill="#7A7A7A" points="62.387,98.665 62.387,338.665 62.387,338.665 62.387,98.665 62.387,98.665 				"/>
				<polyline fill="#7E7E7E" points="62.387,98.665 62.387,338.665 62.387,338.665 62.387,98.665 62.387,98.665 				"/>
				<polyline fill="#838383" points="62.387,98.665 62.387,338.665 62.387,338.665 62.387,98.665 62.387,98.665 				"/>
				<polyline fill="#878787" points="62.387,98.665 62.387,338.665 62.387,338.665 62.387,98.665 62.387,98.665 				"/>
				<polyline fill="#8B8B8B" points="62.387,98.665 62.387,338.665 62.387,338.665 62.387,98.665 62.387,98.665 				"/>
				<polyline fill="#8F8F8F" points="62.387,98.665 62.387,338.665 62.387,338.665 62.387,98.665 62.387,98.665 				"/>
				<polyline fill="#939393" points="62.387,98.665 62.387,338.665 62.387,338.665 62.387,98.665 62.387,98.665 				"/>
				<polyline fill="#979797" points="62.387,98.665 62.387,338.665 62.387,338.665 62.387,98.665 62.387,98.665 				"/>
				<path fill="#9B9B9B" d="M62.387,98.665v240c0,0-0.508,0-0.56,0c-0.005,0-0.44,0-0.44,0v-240c0,0,0.435,0,0.44,0
					C61.878,98.665,62.387,98.665,62.387,98.665"/>
				<polyline fill="#9F9F9F" points="61.387,98.665 61.387,338.665 61.387,338.665 61.387,98.665 61.387,98.665 				"/>
				<polyline fill="#A3A3A3" points="61.387,98.665 61.387,338.665 61.387,338.665 61.387,98.665 61.387,98.665 				"/>
				<polyline fill="#A7A7A7" points="61.387,98.665 61.387,338.665 61.387,338.665 61.387,98.665 61.387,98.665 				"/>
				<polyline fill="#ABABAB" points="61.387,98.665 61.387,338.665 61.387,338.665 61.387,98.665 61.387,98.665 				"/>
				<path fill="#AFAFAF" d="M61.387,98.665v240c-1,0-1,0-1,0v-240H61.387"/>
				<polyline fill="#B4B4B4" points="60.387,98.665 60.387,338.665 60.387,338.665 60.387,98.665 60.387,98.665 				"/>
				<polyline fill="#B8B8B8" points="60.387,98.665 60.387,338.665 60.387,338.665 60.387,98.665 60.387,98.665 				"/>
				<polyline fill="#BCBCBC" points="60.387,98.665 60.387,338.665 59.387,338.665 59.387,98.665 60.387,98.665 				"/>
				<polyline fill="#C0C0C0" points="59.387,98.665 59.387,338.665 59.387,338.665 59.387,98.665 59.387,98.665 				"/>
				<polyline fill="#C4C4C4" points="59.387,98.665 59.387,338.665 59.387,338.665 59.387,98.665 59.387,98.665 				"/>
				<path fill="#C8C8C8" d="M59.387,98.665v240c0,0,0,0-1,0v-240C59.387,98.665,59.387,98.665,59.387,98.665"/>
				<polyline fill="#CCCCCC" points="58.387,98.665 58.387,338.665 58.387,338.665 58.387,98.665 58.387,98.665 				"/>
				<polyline fill="#D2D2D2" points="58.387,98.665 58.387,338.665 58.387,338.665 58.387,98.665 58.387,98.665 				"/>
				<polyline fill="#D5D5D5" points="58.387,98.665 58.387,338.665 58.387,338.665 58.387,98.665 58.387,98.665 				"/>
				<polyline fill="#D7D7D7" points="58.387,98.665 58.387,338.665 58.387,338.665 58.387,98.665 58.387,98.665 				"/>
				<polyline fill="#D8D8D8" points="58.387,98.665 58.387,338.665 58.387,338.665 58.387,98.665 58.387,98.665 				"/>
				<polyline fill="#DADADA" points="58.387,98.665 58.387,338.665 57.387,338.665 57.387,98.665 58.387,98.665 				"/>
				<polyline fill="#DBDBDB" points="57.387,98.665 57.387,338.665 57.387,338.665 57.387,98.665 57.387,98.665 				"/>
				<polyline fill="#DCDCDC" points="57.387,98.665 57.387,338.665 57.387,338.665 57.387,98.665 57.387,98.665 				"/>
				<polyline fill="#DDDDDD" points="57.387,98.665 57.387,338.665 57.387,338.665 57.387,98.665 57.387,98.665 				"/>
				<polyline fill="#DEDEDE" points="57.387,98.665 57.387,338.665 57.387,338.665 57.387,98.665 57.387,98.665 				"/>
				<polyline fill="#DFDFDF" points="57.387,98.665 57.387,338.665 57.387,338.665 57.387,98.665 57.387,98.665 				"/>
				<path fill="#E0E0E0" d="M57.387,98.665v240c-1,0-1,0-1,0v-240H57.387"/>
				<polyline fill="#DFDFDF" points="56.387,98.665 56.387,338.665 55.387,338.665 55.387,98.665 56.387,98.665 				"/>
				<polyline fill="#DEDEDE" points="55.387,98.665 55.387,338.665 55.387,338.665 55.387,98.665 55.387,98.665 				"/>
				<polyline fill="#DDDDDD" points="55.387,98.665 55.387,338.665 55.387,338.665 55.387,98.665 55.387,98.665 				"/>
				<polyline fill="#DCDCDC" points="55.387,98.665 55.387,338.665 55.387,338.665 55.387,98.665 55.387,98.665 				"/>
				<polyline fill="#DBDBDB" points="55.387,98.665 55.387,338.665 55.387,338.665 55.387,98.665 55.387,98.665 				"/>
				<polyline fill="#DADADA" points="55.387,98.665 55.387,338.665 55.387,338.665 55.387,98.665 55.387,98.665 				"/>
				<polyline fill="#D8D8D8" points="55.387,98.665 55.387,338.665 55.387,338.665 55.387,98.665 55.387,98.665 				"/>
				<path fill="#D7D7D7" d="M55.387,98.665v240c0,0,0,0-1,0v-240C55.387,98.665,55.387,98.665,55.387,98.665"/>
				<polyline fill="#D5D5D5" points="54.387,98.665 54.387,338.665 54.387,338.665 54.387,98.665 54.387,98.665 				"/>
				<polyline fill="#D2D2D2" points="54.387,98.665 54.387,338.665 54.387,338.665 54.387,98.665 54.387,98.665 				"/>
				<polyline fill="#CCCCCC" points="54.387,98.665 54.387,338.665 54.387,338.665 54.387,98.665 54.387,98.665 				"/>
				<polyline fill="#C8C8C8" points="54.387,98.665 54.387,338.665 54.387,338.665 54.387,98.665 54.387,98.665 				"/>
				<polyline fill="#C4C4C4" points="54.387,98.665 54.387,338.665 54.387,338.665 54.387,98.665 54.387,98.665 				"/>
				<polyline fill="#C0C0C0" points="54.387,98.665 54.387,338.665 54.387,338.665 54.387,98.665 54.387,98.665 				"/>
				<polyline fill="#BCBCBC" points="54.387,98.665 54.387,338.665 54.387,338.665 54.387,98.665 54.387,98.665 				"/>
				<path fill="#B8B8B8" d="M54.387,98.665v240c0,0,0,0-1,0v-240C54.387,98.665,54.387,98.665,54.387,98.665"/>
				<polyline fill="#B4B4B4" points="53.387,98.665 53.387,338.665 53.387,338.665 53.387,98.665 53.387,98.665 				"/>
				<polyline fill="#AFAFAF" points="53.387,98.665 53.387,338.665 53.387,338.665 53.387,98.665 53.387,98.665 				"/>
				<polyline fill="#ABABAB" points="53.387,98.665 53.387,338.665 53.387,338.665 53.387,98.665 53.387,98.665 				"/>
				<polyline fill="#A7A7A7" points="53.387,98.665 53.387,338.665 53.387,338.665 53.387,98.665 53.387,98.665 				"/>
				<polyline fill="#A3A3A3" points="53.387,98.665 53.387,338.665 53.387,338.665 53.387,98.665 53.387,98.665 				"/>
				<path fill="#9F9F9F" d="M53.387,98.665v240c-1,0-1,0-1,0v-240H53.387"/>
				<polyline fill="#9B9B9B" points="52.387,98.665 52.387,338.665 52.387,338.665 52.387,98.665 52.387,98.665 				"/>
				<polyline fill="#979797" points="52.387,98.665 52.387,338.665 52.387,338.665 52.387,98.665 52.387,98.665 				"/>
				<path fill="#939393" d="M52.387,98.665v240c0,0,0,0-1,0v-240C52.387,98.665,52.387,98.665,52.387,98.665"/>
				<path fill="#8F8F8F" d="M51.387,98.665v240c0,0,0.368,0,0.306,0c-0.032,0-0.306,0-0.306,0V98.665c0,0,0.273,0,0.306,0
					C51.754,98.665,51.387,98.665,51.387,98.665"/>
				<polyline fill="#8B8B8B" points="51.387,98.665 51.387,338.665 51.387,338.665 51.387,98.665 51.387,98.665 				"/>
				<polyline fill="#878787" points="51.387,98.665 51.387,338.665 51.387,338.665 51.387,98.665 51.387,98.665 				"/>
				<polyline fill="#838383" points="51.387,98.665 51.387,338.665 50.387,338.665 50.387,98.665 51.387,98.665 				"/>
				<polyline fill="#7E7E7E" points="50.387,98.665 50.387,338.665 50.387,338.665 50.387,98.665 50.387,98.665 				"/>
				<polyline fill="#7A7A7A" points="50.387,98.665 50.387,338.665 50.387,338.665 50.387,98.665 50.387,98.665 				"/>
				<path fill="#767676" d="M50.387,98.665v240c0,0,0,0-1,0v-240C50.387,98.665,50.387,98.665,50.387,98.665"/>
				<polyline fill="#727272" points="49.387,98.665 49.387,338.665 49.387,338.665 49.387,98.665 49.387,98.665 				"/>
				<polyline fill="#6E6E6E" points="49.387,98.665 49.387,338.665 49.387,338.665 49.387,98.665 49.387,98.665 				"/>
				<path fill="#6A6A6A" d="M49.387,98.665v240c-1,0-2,0-2,0v-240H49.387"/>
			</g>
		</g>
	</g>
</g>
<linearGradient id="SVGID_8_" gradientUnits="userSpaceOnUse" x1="61.27" y1="79.543" x2="82.0923" y2="79.543" gradientTransform="matrix(1.1811 -0.1186 -0.1186 1.4939 -20.032 -2.1615)">
	<stop  offset="0" style="stop-color:#E4E1DE"/>
	<stop  offset="0" style="stop-color:#D5D6D6"/>
	<stop  offset="0" style="stop-color:#D0D2D3"/>
	<stop  offset="0.2495" style="stop-color:#C2C3C5"/>
	<stop  offset="0.5225" style="stop-color:#ADAEB0"/>
	<stop  offset="0.6034" style="stop-color:#A3A5A7"/>
	<stop  offset="0.7397" style="stop-color:#898D90"/>
	<stop  offset="0.9136" style="stop-color:#5F6769"/>
	<stop  offset="1" style="stop-color:#475154"/>
</linearGradient>
<path fill="url(#SVGID_8_)" d="M65.591,113.173l-21.701-7.299c-0.487-0.164-0.751-0.696-0.587-1.183l0.318-0.945
	c0.164-0.487,0.696-0.751,1.183-0.587l21.701,7.299c0.487,0.164,0.751,0.696,0.587,1.183l-0.318,0.945
	C66.61,113.073,66.078,113.337,65.591,113.173z"/>
<linearGradient id="SVGID_9_" gradientUnits="userSpaceOnUse" x1="61.771" y1="84.5264" x2="82.5933" y2="84.5264" gradientTransform="matrix(1.1811 -0.1186 -0.1186 1.4939 -20.032 -2.1615)">
	<stop  offset="0" style="stop-color:#E4E1DE"/>
	<stop  offset="0" style="stop-color:#D5D6D6"/>
	<stop  offset="0" style="stop-color:#D0D2D3"/>
	<stop  offset="0.2495" style="stop-color:#C2C3C5"/>
	<stop  offset="0.5225" style="stop-color:#ADAEB0"/>
	<stop  offset="0.6034" style="stop-color:#A3A5A7"/>
	<stop  offset="0.7397" style="stop-color:#898D90"/>
	<stop  offset="0.9136" style="stop-color:#5F6769"/>
	<stop  offset="1" style="stop-color:#475154"/>
</linearGradient>
<path fill="url(#SVGID_9_)" d="M65.591,120.559L43.89,113.26c-0.487-0.164-0.751-0.696-0.587-1.183l0.318-0.945
	c0.164-0.487,0.696-0.751,1.183-0.587l21.701,7.299c0.487,0.164,0.751,0.696,0.587,1.183l-0.318,0.945
	C66.61,120.458,66.078,120.723,65.591,120.559z"/>
<linearGradient id="SVGID_10_" gradientUnits="userSpaceOnUse" x1="62.2563" y1="89.3584" x2="83.0781" y2="89.3584" gradientTransform="matrix(1.1811 -0.1186 -0.1186 1.4939 -20.032 -2.1615)">
	<stop  offset="0" style="stop-color:#E4E1DE"/>
	<stop  offset="0" style="stop-color:#D5D6D6"/>
	<stop  offset="0" style="stop-color:#D0D2D3"/>
	<stop  offset="0.2495" style="stop-color:#C2C3C5"/>
	<stop  offset="0.5225" style="stop-color:#ADAEB0"/>
	<stop  offset="0.6034" style="stop-color:#A3A5A7"/>
	<stop  offset="0.7397" style="stop-color:#898D90"/>
	<stop  offset="0.9136" style="stop-color:#5F6769"/>
	<stop  offset="1" style="stop-color:#475154"/>
</linearGradient>
<path fill="url(#SVGID_10_)" d="M65.591,127.72L43.89,120.42c-0.487-0.164-0.751-0.696-0.587-1.183l0.318-0.945
	c0.164-0.487,0.696-0.751,1.183-0.587l21.701,7.299c0.487,0.164,0.751,0.696,0.587,1.183l-0.318,0.945
	C66.61,127.619,66.078,127.883,65.591,127.72z"/>
<linearGradient id="SVGID_11_" gradientUnits="userSpaceOnUse" x1="62.7349" y1="94.126" x2="83.5566" y2="94.126" gradientTransform="matrix(1.1811 -0.1186 -0.1186 1.4939 -20.032 -2.1615)">
	<stop  offset="0" style="stop-color:#E4E1DE"/>
	<stop  offset="0" style="stop-color:#D5D6D6"/>
	<stop  offset="0" style="stop-color:#D0D2D3"/>
	<stop  offset="0.2495" style="stop-color:#C2C3C5"/>
	<stop  offset="0.5225" style="stop-color:#ADAEB0"/>
	<stop  offset="0.6034" style="stop-color:#A3A5A7"/>
	<stop  offset="0.7397" style="stop-color:#898D90"/>
	<stop  offset="0.9136" style="stop-color:#5F6769"/>
	<stop  offset="1" style="stop-color:#475154"/>
</linearGradient>
<path fill="url(#SVGID_11_)" d="M65.591,134.785l-21.701-7.299c-0.487-0.164-0.751-0.696-0.587-1.183l0.318-0.945
	c0.164-0.487,0.696-0.751,1.183-0.587l21.701,7.299c0.487,0.164,0.751,0.696,0.587,1.183l-0.318,0.945
	C66.61,134.685,66.078,134.949,65.591,134.785z"/>
<linearGradient id="SVGID_12_" gradientUnits="userSpaceOnUse" x1="63.2202" y1="98.957" x2="84.0425" y2="98.957" gradientTransform="matrix(1.1811 -0.1186 -0.1186 1.4939 -20.032 -2.1615)">
	<stop  offset="0" style="stop-color:#E4E1DE"/>
	<stop  offset="0" style="stop-color:#D5D6D6"/>
	<stop  offset="0" style="stop-color:#D0D2D3"/>
	<stop  offset="0.2495" style="stop-color:#C2C3C5"/>
	<stop  offset="0.5225" style="stop-color:#ADAEB0"/>
	<stop  offset="0.6034" style="stop-color:#A3A5A7"/>
	<stop  offset="0.7397" style="stop-color:#898D90"/>
	<stop  offset="0.9136" style="stop-color:#5F6769"/>
	<stop  offset="1" style="stop-color:#475154"/>
</linearGradient>
<path fill="url(#SVGID_12_)" d="M65.591,141.945l-21.701-7.299c-0.487-0.164-0.751-0.696-0.587-1.183l0.318-0.945
	c0.164-0.487,0.696-0.751,1.183-0.587l21.701,7.299c0.487,0.164,0.751,0.696,0.587,1.183l-0.318,0.945
	C66.61,141.845,66.078,142.109,65.591,141.945z"/>
<linearGradient id="SVGID_13_" gradientUnits="userSpaceOnUse" x1="63.7222" y1="103.9609" x2="84.5444" y2="103.9609" gradientTransform="matrix(1.1811 -0.1186 -0.1186 1.4939 -20.032 -2.1615)">
	<stop  offset="0" style="stop-color:#E4E1DE"/>
	<stop  offset="0" style="stop-color:#D5D6D6"/>
	<stop  offset="0" style="stop-color:#D0D2D3"/>
	<stop  offset="0.2495" style="stop-color:#C2C3C5"/>
	<stop  offset="0.5225" style="stop-color:#ADAEB0"/>
	<stop  offset="0.6034" style="stop-color:#A3A5A7"/>
	<stop  offset="0.7397" style="stop-color:#898D90"/>
	<stop  offset="0.9136" style="stop-color:#5F6769"/>
	<stop  offset="1" style="stop-color:#475154"/>
</linearGradient>
<path fill="url(#SVGID_13_)" d="M65.591,149.361l-21.701-7.299c-0.487-0.164-0.751-0.696-0.587-1.183l0.318-0.945
	c0.164-0.487,0.696-0.751,1.183-0.587l21.701,7.299c0.487,0.164,0.751,0.696,0.587,1.183l-0.318,0.945
	C66.61,149.26,66.078,149.525,65.591,149.361z"/>
<linearGradient id="SVGID_14_" gradientUnits="userSpaceOnUse" x1="64.2075" y1="108.793" x2="85.0293" y2="108.793" gradientTransform="matrix(1.1811 -0.1186 -0.1186 1.4939 -20.032 -2.1615)">
	<stop  offset="0" style="stop-color:#E4E1DE"/>
	<stop  offset="0" style="stop-color:#D5D6D6"/>
	<stop  offset="0" style="stop-color:#D0D2D3"/>
	<stop  offset="0.2495" style="stop-color:#C2C3C5"/>
	<stop  offset="0.5225" style="stop-color:#ADAEB0"/>
	<stop  offset="0.6034" style="stop-color:#A3A5A7"/>
	<stop  offset="0.7397" style="stop-color:#898D90"/>
	<stop  offset="0.9136" style="stop-color:#5F6769"/>
	<stop  offset="1" style="stop-color:#475154"/>
</linearGradient>
<path fill="url(#SVGID_14_)" d="M65.591,156.521l-21.701-7.299c-0.487-0.164-0.751-0.696-0.587-1.183l0.318-0.945
	c0.164-0.487,0.696-0.751,1.183-0.587l21.701,7.299c0.487,0.164,0.751,0.696,0.587,1.183l-0.318,0.945
	C66.61,156.421,66.078,156.685,65.591,156.521z"/>
<linearGradient id="SVGID_15_" gradientUnits="userSpaceOnUse" x1="64.7153" y1="113.8516" x2="85.5376" y2="113.8516" gradientTransform="matrix(1.1811 -0.1186 -0.1186 1.4939 -20.032 -2.1615)">
	<stop  offset="0" style="stop-color:#E4E1DE"/>
	<stop  offset="0" style="stop-color:#D5D6D6"/>
	<stop  offset="0" style="stop-color:#D0D2D3"/>
	<stop  offset="0.2495" style="stop-color:#C2C3C5"/>
	<stop  offset="0.5225" style="stop-color:#ADAEB0"/>
	<stop  offset="0.6034" style="stop-color:#A3A5A7"/>
	<stop  offset="0.7397" style="stop-color:#898D90"/>
	<stop  offset="0.9136" style="stop-color:#5F6769"/>
	<stop  offset="1" style="stop-color:#475154"/>
</linearGradient>
<path fill="url(#SVGID_15_)" d="M65.591,164.019L43.89,156.72c-0.487-0.164-0.751-0.696-0.587-1.183l0.318-0.945
	c0.164-0.487,0.696-0.751,1.183-0.587l21.701,7.299c0.487,0.164,0.751,0.696,0.587,1.183l-0.318,0.945
	C66.61,163.918,66.078,164.183,65.591,164.019z"/>
<linearGradient id="SVGID_16_" gradientUnits="userSpaceOnUse" x1="65.2007" y1="118.6836" x2="86.0229" y2="118.6836" gradientTransform="matrix(1.1811 -0.1186 -0.1186 1.4939 -20.032 -2.1615)">
	<stop  offset="0" style="stop-color:#E4E1DE"/>
	<stop  offset="0" style="stop-color:#D5D6D6"/>
	<stop  offset="0" style="stop-color:#D0D2D3"/>
	<stop  offset="0.2495" style="stop-color:#C2C3C5"/>
	<stop  offset="0.5225" style="stop-color:#ADAEB0"/>
	<stop  offset="0.6034" style="stop-color:#A3A5A7"/>
	<stop  offset="0.7397" style="stop-color:#898D90"/>
	<stop  offset="0.9136" style="stop-color:#5F6769"/>
	<stop  offset="1" style="stop-color:#475154"/>
</linearGradient>
<path fill="url(#SVGID_16_)" d="M65.591,171.179L43.89,163.88c-0.487-0.164-0.751-0.696-0.587-1.183l0.318-0.945
	c0.164-0.487,0.696-0.751,1.183-0.587l21.701,7.299c0.487,0.164,0.751,0.696,0.587,1.183l-0.318,0.945
	C66.61,171.079,66.078,171.343,65.591,171.179z"/>
<linearGradient id="SVGID_17_" gradientUnits="userSpaceOnUse" x1="65.7075" y1="123.7344" x2="86.5298" y2="123.7344" gradientTransform="matrix(1.1811 -0.1186 -0.1186 1.4939 -20.032 -2.1615)">
	<stop  offset="0" style="stop-color:#E4E1DE"/>
	<stop  offset="0" style="stop-color:#D5D6D6"/>
	<stop  offset="0" style="stop-color:#D0D2D3"/>
	<stop  offset="0.2495" style="stop-color:#C2C3C5"/>
	<stop  offset="0.5225" style="stop-color:#ADAEB0"/>
	<stop  offset="0.6034" style="stop-color:#A3A5A7"/>
	<stop  offset="0.7397" style="stop-color:#898D90"/>
	<stop  offset="0.9136" style="stop-color:#5F6769"/>
	<stop  offset="1" style="stop-color:#475154"/>
</linearGradient>
<path fill="url(#SVGID_17_)" d="M65.591,178.665l-21.701-7.299c-0.487-0.164-0.751-0.696-0.587-1.183l0.318-0.945
	c0.164-0.487,0.696-0.751,1.183-0.587l21.701,7.299c0.487,0.164,0.751,0.696,0.587,1.183l-0.318,0.945
	C66.61,178.564,66.078,178.828,65.591,178.665z"/>
<linearGradient id="SVGID_18_" gradientUnits="userSpaceOnUse" x1="66.1929" y1="128.5654" x2="87.0151" y2="128.5654" gradientTransform="matrix(1.1811 -0.1186 -0.1186 1.4939 -20.032 -2.1615)">
	<stop  offset="0" style="stop-color:#E4E1DE"/>
	<stop  offset="0" style="stop-color:#D5D6D6"/>
	<stop  offset="0" style="stop-color:#D0D2D3"/>
	<stop  offset="0.2495" style="stop-color:#C2C3C5"/>
	<stop  offset="0.5225" style="stop-color:#ADAEB0"/>
	<stop  offset="0.6034" style="stop-color:#A3A5A7"/>
	<stop  offset="0.7397" style="stop-color:#898D90"/>
	<stop  offset="0.9136" style="stop-color:#5F6769"/>
	<stop  offset="1" style="stop-color:#475154"/>
</linearGradient>
<path fill="url(#SVGID_18_)" d="M65.591,185.825l-21.701-7.299c-0.487-0.164-0.751-0.696-0.587-1.183l0.318-0.945
	c0.164-0.487,0.696-0.751,1.183-0.587l21.701,7.299c0.487,0.164,0.751,0.696,0.587,1.183l-0.318,0.945
	C66.61,185.724,66.078,185.989,65.591,185.825z"/>
<linearGradient id="SVGID_19_" gradientUnits="userSpaceOnUse" x1="66.686" y1="133.4736" x2="87.5083" y2="133.4736" gradientTransform="matrix(1.1811 -0.1186 -0.1186 1.4939 -20.032 -2.1615)">
	<stop  offset="0" style="stop-color:#E4E1DE"/>
	<stop  offset="0" style="stop-color:#D5D6D6"/>
	<stop  offset="0" style="stop-color:#D0D2D3"/>
	<stop  offset="0.2495" style="stop-color:#C2C3C5"/>
	<stop  offset="0.5225" style="stop-color:#ADAEB0"/>
	<stop  offset="0.6034" style="stop-color:#A3A5A7"/>
	<stop  offset="0.7397" style="stop-color:#898D90"/>
	<stop  offset="0.9136" style="stop-color:#5F6769"/>
	<stop  offset="1" style="stop-color:#475154"/>
</linearGradient>
<path fill="url(#SVGID_19_)" d="M65.591,193.099L43.89,185.8c-0.487-0.164-0.751-0.696-0.587-1.183l0.318-0.945
	c0.164-0.487,0.696-0.751,1.183-0.587l21.701,7.299c0.487,0.164,0.751,0.696,0.587,1.183l-0.318,0.945
	C66.61,192.999,66.078,193.263,65.591,193.099z"/>
<linearGradient id="SVGID_20_" gradientUnits="userSpaceOnUse" x1="67.1714" y1="138.3057" x2="87.9937" y2="138.3057" gradientTransform="matrix(1.1811 -0.1186 -0.1186 1.4939 -20.032 -2.1615)">
	<stop  offset="0" style="stop-color:#E4E1DE"/>
	<stop  offset="0" style="stop-color:#D5D6D6"/>
	<stop  offset="0" style="stop-color:#D0D2D3"/>
	<stop  offset="0.2495" style="stop-color:#C2C3C5"/>
	<stop  offset="0.5225" style="stop-color:#ADAEB0"/>
	<stop  offset="0.6034" style="stop-color:#A3A5A7"/>
	<stop  offset="0.7397" style="stop-color:#898D90"/>
	<stop  offset="0.9136" style="stop-color:#5F6769"/>
	<stop  offset="1" style="stop-color:#475154"/>
</linearGradient>
<path fill="url(#SVGID_20_)" d="M65.591,200.259L43.89,192.96c-0.487-0.164-0.751-0.696-0.587-1.183l0.318-0.945
	c0.164-0.487,0.696-0.751,1.183-0.587l21.701,7.299c0.487,0.164,0.751,0.696,0.587,1.183l-0.318,0.945
	C66.61,200.159,66.078,200.423,65.591,200.259z"/>
<linearGradient id="SVGID_21_" gradientUnits="userSpaceOnUse" x1="67.6567" y1="143.1416" x2="88.4785" y2="143.1416" gradientTransform="matrix(1.1811 -0.1186 -0.1186 1.4939 -20.032 -2.1615)">
	<stop  offset="0" style="stop-color:#E4E1DE"/>
	<stop  offset="0" style="stop-color:#D5D6D6"/>
	<stop  offset="0" style="stop-color:#D0D2D3"/>
	<stop  offset="0.2495" style="stop-color:#C2C3C5"/>
	<stop  offset="0.5225" style="stop-color:#ADAEB0"/>
	<stop  offset="0.6034" style="stop-color:#A3A5A7"/>
	<stop  offset="0.7397" style="stop-color:#898D90"/>
	<stop  offset="0.9136" style="stop-color:#5F6769"/>
	<stop  offset="1" style="stop-color:#475154"/>
</linearGradient>
<path fill="url(#SVGID_21_)" d="M65.591,207.426l-21.701-7.299c-0.487-0.164-0.751-0.696-0.587-1.183l0.318-0.945
	c0.164-0.487,0.696-0.751,1.183-0.587l21.701,7.299c0.487,0.164,0.751,0.696,0.587,1.183l-0.318,0.945
	C66.61,207.326,66.078,207.59,65.591,207.426z"/>
<linearGradient id="SVGID_22_" gradientUnits="userSpaceOnUse" x1="68.1421" y1="147.9736" x2="88.9644" y2="147.9736" gradientTransform="matrix(1.1811 -0.1186 -0.1186 1.4939 -20.032 -2.1615)">
	<stop  offset="0" style="stop-color:#E4E1DE"/>
	<stop  offset="0" style="stop-color:#D5D6D6"/>
	<stop  offset="0" style="stop-color:#D0D2D3"/>
	<stop  offset="0.2495" style="stop-color:#C2C3C5"/>
	<stop  offset="0.5225" style="stop-color:#ADAEB0"/>
	<stop  offset="0.6034" style="stop-color:#A3A5A7"/>
	<stop  offset="0.7397" style="stop-color:#898D90"/>
	<stop  offset="0.9136" style="stop-color:#5F6769"/>
	<stop  offset="1" style="stop-color:#475154"/>
</linearGradient>
<path fill="url(#SVGID_22_)" d="M65.591,214.587l-21.701-7.299c-0.487-0.164-0.751-0.696-0.587-1.183l0.318-0.945
	c0.164-0.487,0.696-0.751,1.183-0.587l21.701,7.299c0.487,0.164,0.751,0.696,0.587,1.183l-0.318,0.945
	C66.61,214.486,66.078,214.751,65.591,214.587z"/>
<linearGradient id="SVGID_23_" gradientUnits="userSpaceOnUse" x1="68.645" y1="152.9902" x2="89.4678" y2="152.9902" gradientTransform="matrix(1.1811 -0.1186 -0.1186 1.4939 -20.032 -2.1615)">
	<stop  offset="0" style="stop-color:#E4E1DE"/>
	<stop  offset="0" style="stop-color:#D5D6D6"/>
	<stop  offset="0" style="stop-color:#D0D2D3"/>
	<stop  offset="0.2495" style="stop-color:#C2C3C5"/>
	<stop  offset="0.5225" style="stop-color:#ADAEB0"/>
	<stop  offset="0.6034" style="stop-color:#A3A5A7"/>
	<stop  offset="0.7397" style="stop-color:#898D90"/>
	<stop  offset="0.9136" style="stop-color:#5F6769"/>
	<stop  offset="1" style="stop-color:#475154"/>
</linearGradient>
<path fill="url(#SVGID_23_)" d="M65.591,222.021l-21.701-7.299c-0.487-0.164-0.751-0.696-0.587-1.184l0.318-0.944
	c0.164-0.487,0.696-0.752,1.183-0.588l21.701,7.299c0.487,0.164,0.751,0.696,0.587,1.184l-0.318,0.945
	C66.61,221.921,66.078,222.186,65.591,222.021z"/>
<linearGradient id="SVGID_24_" gradientUnits="userSpaceOnUse" x1="69.1309" y1="157.8218" x2="89.9531" y2="157.8218" gradientTransform="matrix(1.1811 -0.1186 -0.1186 1.4939 -20.032 -2.1615)">
	<stop  offset="0" style="stop-color:#E4E1DE"/>
	<stop  offset="0" style="stop-color:#D5D6D6"/>
	<stop  offset="0" style="stop-color:#D0D2D3"/>
	<stop  offset="0.2495" style="stop-color:#C2C3C5"/>
	<stop  offset="0.5225" style="stop-color:#ADAEB0"/>
	<stop  offset="0.6034" style="stop-color:#A3A5A7"/>
	<stop  offset="0.7397" style="stop-color:#898D90"/>
	<stop  offset="0.9136" style="stop-color:#5F6769"/>
	<stop  offset="1" style="stop-color:#475154"/>
</linearGradient>
<path fill="url(#SVGID_24_)" d="M65.591,229.182l-21.701-7.299c-0.487-0.164-0.751-0.696-0.587-1.183l0.318-0.945
	c0.164-0.487,0.696-0.751,1.183-0.588l21.701,7.3c0.487,0.163,0.751,0.695,0.587,1.183l-0.318,0.945
	C66.61,229.081,66.078,229.346,65.591,229.182z"/>
<linearGradient id="SVGID_25_" gradientUnits="userSpaceOnUse" x1="69.6528" y1="163.0254" x2="90.4756" y2="163.0254" gradientTransform="matrix(1.1811 -0.1186 -0.1186 1.4939 -20.032 -2.1615)">
	<stop  offset="0" style="stop-color:#E4E1DE"/>
	<stop  offset="0" style="stop-color:#D5D6D6"/>
	<stop  offset="0" style="stop-color:#D0D2D3"/>
	<stop  offset="0.2495" style="stop-color:#C2C3C5"/>
	<stop  offset="0.5225" style="stop-color:#ADAEB0"/>
	<stop  offset="0.6034" style="stop-color:#A3A5A7"/>
	<stop  offset="0.7397" style="stop-color:#898D90"/>
	<stop  offset="0.9136" style="stop-color:#5F6769"/>
	<stop  offset="1" style="stop-color:#475154"/>
</linearGradient>
<path fill="url(#SVGID_25_)" d="M65.591,236.894l-21.701-7.299c-0.487-0.164-0.751-0.696-0.587-1.183l0.318-0.945
	c0.164-0.487,0.696-0.751,1.183-0.588l21.701,7.3c0.487,0.163,0.751,0.695,0.587,1.183l-0.318,0.945
	C66.61,236.793,66.078,237.058,65.591,236.894z"/>
<linearGradient id="SVGID_26_" gradientUnits="userSpaceOnUse" x1="70.1382" y1="167.8574" x2="90.9604" y2="167.8574" gradientTransform="matrix(1.1811 -0.1186 -0.1186 1.4939 -20.032 -2.1615)">
	<stop  offset="0" style="stop-color:#E4E1DE"/>
	<stop  offset="0" style="stop-color:#D5D6D6"/>
	<stop  offset="0" style="stop-color:#D0D2D3"/>
	<stop  offset="0.2495" style="stop-color:#C2C3C5"/>
	<stop  offset="0.5225" style="stop-color:#ADAEB0"/>
	<stop  offset="0.6034" style="stop-color:#A3A5A7"/>
	<stop  offset="0.7397" style="stop-color:#898D90"/>
	<stop  offset="0.9136" style="stop-color:#5F6769"/>
	<stop  offset="1" style="stop-color:#475154"/>
</linearGradient>
<path fill="url(#SVGID_26_)" d="M65.591,244.055l-21.701-7.3c-0.487-0.163-0.751-0.696-0.587-1.183l0.318-0.945
	c0.164-0.487,0.696-0.751,1.183-0.588l21.701,7.3c0.487,0.163,0.751,0.696,0.587,1.183l-0.318,0.945
	C66.61,243.953,66.078,244.218,65.591,244.055z"/>
<linearGradient id="SVGID_27_" gradientUnits="userSpaceOnUse" x1="70.6343" y1="172.792" x2="91.4565" y2="172.792" gradientTransform="matrix(1.1811 -0.1186 -0.1186 1.4939 -20.032 -2.1615)">
	<stop  offset="0" style="stop-color:#E4E1DE"/>
	<stop  offset="0" style="stop-color:#D5D6D6"/>
	<stop  offset="0" style="stop-color:#D0D2D3"/>
	<stop  offset="0.2495" style="stop-color:#C2C3C5"/>
	<stop  offset="0.5225" style="stop-color:#ADAEB0"/>
	<stop  offset="0.6034" style="stop-color:#A3A5A7"/>
	<stop  offset="0.7397" style="stop-color:#898D90"/>
	<stop  offset="0.9136" style="stop-color:#5F6769"/>
	<stop  offset="1" style="stop-color:#475154"/>
</linearGradient>
<path fill="url(#SVGID_27_)" d="M65.591,251.368l-21.701-7.299c-0.487-0.164-0.751-0.696-0.587-1.183l0.318-0.945
	c0.164-0.487,0.696-0.751,1.183-0.588l21.701,7.3c0.487,0.163,0.751,0.695,0.587,1.183l-0.318,0.945
	C66.61,251.268,66.078,251.532,65.591,251.368z"/>
<linearGradient id="SVGID_28_" gradientUnits="userSpaceOnUse" x1="71.1196" y1="177.624" x2="91.9414" y2="177.624" gradientTransform="matrix(1.1811 -0.1186 -0.1186 1.4939 -20.032 -2.1615)">
	<stop  offset="0" style="stop-color:#E4E1DE"/>
	<stop  offset="0" style="stop-color:#D5D6D6"/>
	<stop  offset="0" style="stop-color:#D0D2D3"/>
	<stop  offset="0.2495" style="stop-color:#C2C3C5"/>
	<stop  offset="0.5225" style="stop-color:#ADAEB0"/>
	<stop  offset="0.6034" style="stop-color:#A3A5A7"/>
	<stop  offset="0.7397" style="stop-color:#898D90"/>
	<stop  offset="0.9136" style="stop-color:#5F6769"/>
	<stop  offset="1" style="stop-color:#475154"/>
</linearGradient>
<path fill="url(#SVGID_28_)" d="M65.591,258.529l-21.701-7.3c-0.487-0.164-0.751-0.696-0.587-1.183l0.318-0.945
	c0.164-0.487,0.696-0.751,1.183-0.588l21.701,7.3c0.487,0.164,0.751,0.696,0.587,1.183l-0.318,0.945
	C66.61,258.429,66.078,258.692,65.591,258.529z"/>
<linearGradient id="SVGID_29_" gradientUnits="userSpaceOnUse" x1="74.145" y1="207.7568" x2="94.9668" y2="207.7568" gradientTransform="matrix(1.1811 -0.1186 -0.1186 1.4939 -20.032 -2.1615)">
	<stop  offset="0" style="stop-color:#E4E1DE"/>
	<stop  offset="0" style="stop-color:#D5D6D6"/>
	<stop  offset="0" style="stop-color:#D0D2D3"/>
	<stop  offset="0.2495" style="stop-color:#C2C3C5"/>
	<stop  offset="0.5225" style="stop-color:#ADAEB0"/>
	<stop  offset="0.6034" style="stop-color:#A3A5A7"/>
	<stop  offset="0.7397" style="stop-color:#898D90"/>
	<stop  offset="0.9136" style="stop-color:#5F6769"/>
	<stop  offset="1" style="stop-color:#475154"/>
</linearGradient>
<path fill="url(#SVGID_29_)" d="M65.591,303.185l-21.701-7.299c-0.487-0.164-0.751-0.696-0.587-1.183l0.318-0.945
	c0.164-0.487,0.696-0.751,1.183-0.588l21.701,7.3c0.487,0.163,0.751,0.695,0.588,1.183l-0.318,0.945
	C66.61,303.084,66.078,303.349,65.591,303.185z"/>
<linearGradient id="SVGID_30_" gradientUnits="userSpaceOnUse" x1="74.644" y1="212.7275" x2="95.4663" y2="212.7275" gradientTransform="matrix(1.1811 -0.1186 -0.1186 1.4939 -20.032 -2.1615)">
	<stop  offset="0" style="stop-color:#E4E1DE"/>
	<stop  offset="0" style="stop-color:#D5D6D6"/>
	<stop  offset="0" style="stop-color:#D0D2D3"/>
	<stop  offset="0.2495" style="stop-color:#C2C3C5"/>
	<stop  offset="0.5225" style="stop-color:#ADAEB0"/>
	<stop  offset="0.6034" style="stop-color:#A3A5A7"/>
	<stop  offset="0.7397" style="stop-color:#898D90"/>
	<stop  offset="0.9136" style="stop-color:#5F6769"/>
	<stop  offset="1" style="stop-color:#475154"/>
</linearGradient>
<path fill="url(#SVGID_30_)" d="M65.591,310.553l-21.701-7.3c-0.487-0.163-0.751-0.695-0.587-1.183l0.318-0.945
	c0.164-0.486,0.696-0.751,1.183-0.587l21.701,7.299c0.487,0.164,0.751,0.696,0.588,1.183l-0.318,0.945
	C66.61,310.452,66.078,310.716,65.591,310.553z"/>
<linearGradient id="SVGID_31_" gradientUnits="userSpaceOnUse" x1="75.1294" y1="217.5596" x2="95.9512" y2="217.5596" gradientTransform="matrix(1.1811 -0.1186 -0.1186 1.4939 -20.032 -2.1615)">
	<stop  offset="0" style="stop-color:#E4E1DE"/>
	<stop  offset="0" style="stop-color:#D5D6D6"/>
	<stop  offset="0" style="stop-color:#D0D2D3"/>
	<stop  offset="0.2495" style="stop-color:#C2C3C5"/>
	<stop  offset="0.5225" style="stop-color:#ADAEB0"/>
	<stop  offset="0.6034" style="stop-color:#A3A5A7"/>
	<stop  offset="0.7397" style="stop-color:#898D90"/>
	<stop  offset="0.9136" style="stop-color:#5F6769"/>
	<stop  offset="1" style="stop-color:#475154"/>
</linearGradient>
<path fill="url(#SVGID_31_)" d="M65.591,317.713l-21.701-7.299c-0.487-0.164-0.751-0.696-0.587-1.184l0.318-0.945
	c0.164-0.486,0.696-0.751,1.183-0.587l21.701,7.299c0.487,0.164,0.751,0.696,0.588,1.183l-0.318,0.945
	C66.61,317.612,66.078,317.876,65.591,317.713z"/>
<linearGradient id="SVGID_32_" gradientUnits="userSpaceOnUse" x1="75.8887" y1="219.0586" x2="75.8887" y2="219.0586" gradientTransform="matrix(1.1811 -0.1186 -0.1186 1.4939 -20.032 -2.1615)">
	<stop  offset="0" style="stop-color:#475154"/>
	<stop  offset="0.0864" style="stop-color:#5F6769"/>
	<stop  offset="0.2603" style="stop-color:#898D90"/>
	<stop  offset="0.3966" style="stop-color:#A3A5A7"/>
	<stop  offset="0.4775" style="stop-color:#ADAEB0"/>
	<stop  offset="0.7505" style="stop-color:#C2C3C5"/>
	<stop  offset="1" style="stop-color:#D0D2D3"/>
	<stop  offset="1" style="stop-color:#D5D6D6"/>
	<stop  offset="1" style="stop-color:#E4E1DE"/>
</linearGradient>
<path fill="url(#SVGID_32_)" d="M43.62,316.09"/>
<linearGradient id="SVGID_33_" gradientUnits="userSpaceOnUse" x1="76.2627" y1="223.7383" x2="96.4805" y2="223.7383" gradientTransform="matrix(1.1811 -0.1186 -0.1186 1.4939 -20.032 -2.1615)">
	<stop  offset="0" style="stop-color:#475154"/>
	<stop  offset="0.0864" style="stop-color:#5F6769"/>
	<stop  offset="0.2603" style="stop-color:#898D90"/>
	<stop  offset="0.3966" style="stop-color:#A3A5A7"/>
	<stop  offset="0.4775" style="stop-color:#ADAEB0"/>
	<stop  offset="0.7505" style="stop-color:#C2C3C5"/>
	<stop  offset="1" style="stop-color:#D0D2D3"/>
	<stop  offset="1" style="stop-color:#D5D6D6"/>
	<stop  offset="1" style="stop-color:#E4E1DE"/>
</linearGradient>
<path fill="url(#SVGID_33_)" d="M66.504,322.801c0.487,0.164,0.751,0.696,0.587,1.184l-0.318,0.945
	c-0.164,0.486-0.696,0.751-1.183,0.587l-21.701-7.299"/>
<linearGradient id="SVGID_34_" gradientUnits="userSpaceOnUse" x1="75.9268" y1="292.8008" x2="35.8288" y2="252.7029">
	<stop  offset="0" style="stop-color:#1A1A1A"/>
	<stop  offset="0.4775" style="stop-color:#1A1A1A"/>
	<stop  offset="0.5862" style="stop-color:#242424"/>
	<stop  offset="0.7843" style="stop-color:#333333"/>
	<stop  offset="1" style="stop-color:#666666"/>
</linearGradient>
<path fill="url(#SVGID_34_)" stroke="#000000" stroke-width="1.5656" stroke-miterlimit="10" d="M78.744,288.431
	c0,2.581-2.804,4.673-6.263,4.673H39.273c-3.459,0-6.262-2.092-6.262-4.673v-31.357c0-2.582,2.803-4.675,6.262-4.675h33.208
	c3.459,0,6.263,2.093,6.263,4.675V288.431z"/>
<linearGradient id="SVGID_35_" gradientUnits="userSpaceOnUse" x1="69.854" y1="349.5508" x2="41.8204" y2="321.5172">
	<stop  offset="0" style="stop-color:#475154"/>
	<stop  offset="0.0864" style="stop-color:#5F6769"/>
	<stop  offset="0.2603" style="stop-color:#898D90"/>
	<stop  offset="0.3966" style="stop-color:#A3A5A7"/>
	<stop  offset="0.4775" style="stop-color:#ADAEB0"/>
	<stop  offset="0.7505" style="stop-color:#C2C3C5"/>
	<stop  offset="1" style="stop-color:#D0D2D3"/>
	<stop  offset="1" style="stop-color:#D5D6D6"/>
	<stop  offset="1" style="stop-color:#E4E1DE"/>
</linearGradient>
<path fill="url(#SVGID_35_)" stroke="#000000" stroke-width="1.5656" stroke-miterlimit="10" d="M69.927,346.884
	c0,3.458-2.804,6.263-6.263,6.263H48.009c-3.458,0-6.263-2.805-6.263-6.263v-22.699c0-3.459,2.804-6.264,6.263-6.264h15.655
	c3.459,0,6.263,2.805,6.263,6.264V346.884z"/>
<linearGradient id="SVGID_36_" gradientUnits="userSpaceOnUse" x1="69.0059" y1="108.9346" x2="42.4617" y2="82.3904">
	<stop  offset="0.0337" style="stop-color:#A7A8AC"/>
	<stop  offset="0.2325" style="stop-color:#B5B7BA"/>
	<stop  offset="0.382" style="stop-color:#C3C5C7"/>
	<stop  offset="0.5744" style="stop-color:#B5B6B9"/>
	<stop  offset="0.7191" style="stop-color:#A7A8AC"/>
	<stop  offset="1" style="stop-color:#D1D2D3"/>
	<stop  offset="1" style="stop-color:#A7A8AC"/>
</linearGradient>
<path fill="url(#SVGID_36_)" stroke="#000000" stroke-width="1.5656" stroke-miterlimit="10" d="M80.583,95.662
	c0,2.259-1.831,4.089-4.089,4.089H34.971c-2.258,0-4.089-1.83-4.089-4.089l0,0c0-2.258,1.831-4.088,4.089-4.088h41.523
	C78.753,91.573,80.583,93.403,80.583,95.662L80.583,95.662z"/>
<g>
</g>
<g>
</g>
<g>
</g>
<g>
</g>
<g>
</g>
<g>
</g>
<g>
</g>
<g>
</g>
<g>
</g>
<g>
</g>
<g>
</g>
<g>
</g>
<g>
</g>
<g>
</g>
<g>
</g>
</svg>
