<?xml version="1.0" encoding="utf-8"?>
<!-- Generator: Adobe Illustrator 16.0.3, SVG Export Plug-In . SVG Version: 6.00 Build 0)  -->
<!DOCTYPE svg PUBLIC "-//W3C//DTD SVG 1.1//EN" "http://www.w3.org/Graphics/SVG/1.1/DTD/svg11.dtd">
<svg version="1.1" id="Layer_1" xmlns="http://www.w3.org/2000/svg" xmlns:xlink="http://www.w3.org/1999/xlink" x="0px" y="0px"
	 width="59.036px" height="208.329px" viewBox="0 0 59.036 208.329" enable-background="new 0 0 59.036 208.329"
	 xml:space="preserve">
<linearGradient id="SVGID_1_" gradientUnits="userSpaceOnUse" x1="21.9917" y1="35.1245" x2="25.6875" y2="35.1245" gradientTransform="matrix(1.2046 0 0 1 5.3339 0)">
	<stop  offset="0" style="stop-color:#951B1E"/>
	<stop  offset="0.5" style="stop-color:#AF605D"/>
	<stop  offset="0.5961" style="stop-color:#9A4D4B"/>
	<stop  offset="0.7616" style="stop-color:#7B3031"/>
	<stop  offset="0.9021" style="stop-color:#681F21"/>
	<stop  offset="1" style="stop-color:#61191B"/>
</linearGradient>
<ellipse fill="url(#SVGID_1_)" stroke="#000000" stroke-width="0.5936" stroke-miterlimit="10" cx="34.052" cy="35.125" rx="2.226" ry="1.848"/>
<linearGradient id="SVGID_2_" gradientUnits="userSpaceOnUse" x1="25.6875" y1="35.1245" x2="29.3838" y2="35.1245" gradientTransform="matrix(1.2046 0 0 1 5.3339 0)">
	<stop  offset="0" style="stop-color:#951B1E"/>
	<stop  offset="0.5" style="stop-color:#AF605D"/>
	<stop  offset="0.5961" style="stop-color:#9A4D4B"/>
	<stop  offset="0.7616" style="stop-color:#7B3031"/>
	<stop  offset="0.9021" style="stop-color:#681F21"/>
	<stop  offset="1" style="stop-color:#61191B"/>
</linearGradient>
<ellipse fill="url(#SVGID_2_)" stroke="#000000" stroke-width="0.5936" stroke-miterlimit="10" cx="38.504" cy="35.125" rx="2.226" ry="1.848"/>
<linearGradient id="SVGID_3_" gradientUnits="userSpaceOnUse" x1="29.3838" y1="35.1245" x2="33.0786" y2="35.1245" gradientTransform="matrix(1.2046 0 0 1 5.3339 0)">
	<stop  offset="0" style="stop-color:#951B1E"/>
	<stop  offset="0.5" style="stop-color:#AF605D"/>
	<stop  offset="0.5961" style="stop-color:#9A4D4B"/>
	<stop  offset="0.7616" style="stop-color:#7B3031"/>
	<stop  offset="0.9021" style="stop-color:#681F21"/>
	<stop  offset="1" style="stop-color:#61191B"/>
</linearGradient>
<ellipse fill="url(#SVGID_3_)" stroke="#000000" stroke-width="0.5936" stroke-miterlimit="10" cx="42.956" cy="35.125" rx="2.226" ry="1.848"/>
<linearGradient id="SVGID_4_" gradientUnits="userSpaceOnUse" x1="33.0786" y1="35.1245" x2="36.7749" y2="35.1245" gradientTransform="matrix(1.2046 0 0 1 5.3339 0)">
	<stop  offset="0" style="stop-color:#951B1E"/>
	<stop  offset="0.5" style="stop-color:#AF605D"/>
	<stop  offset="0.5961" style="stop-color:#9A4D4B"/>
	<stop  offset="0.7616" style="stop-color:#7B3031"/>
	<stop  offset="0.9021" style="stop-color:#681F21"/>
	<stop  offset="1" style="stop-color:#61191B"/>
</linearGradient>
<ellipse fill="url(#SVGID_4_)" stroke="#000000" stroke-width="0.5936" stroke-miterlimit="10" cx="47.407" cy="35.125" rx="2.226" ry="1.848"/>
<radialGradient id="SVGID_5_" cx="21.9585" cy="61.5815" r="20.9583" gradientUnits="userSpaceOnUse">
	<stop  offset="0.0056" style="stop-color:#C3C5C7"/>
	<stop  offset="0.2978" style="stop-color:#BCBDBF"/>
	<stop  offset="0.6573" style="stop-color:#A7A8AC"/>
	<stop  offset="1" style="stop-color:#9B9DA0"/>
</radialGradient>
<path fill="url(#SVGID_5_)" stroke="#000000" stroke-width="1.0079" stroke-miterlimit="10" d="M29.266,82.747
	c0,4.175-3.271,7.56-7.307,7.56l0,0c-4.035,0-7.307-3.385-7.307-7.56V40.416c0-4.175,3.272-7.559,7.307-7.559l0,0
	c4.036,0,7.307,3.384,7.307,7.559V82.747z"/>
<linearGradient id="SVGID_6_" gradientUnits="userSpaceOnUse" x1="2.0435" y1="49.0073" x2="21.6408" y2="68.6047">
	<stop  offset="0.0056" style="stop-color:#C3C5C7"/>
	<stop  offset="0.5791" style="stop-color:#BCBDBF"/>
</linearGradient>
<path fill="url(#SVGID_6_)" stroke="#000000" stroke-width="1.0106" stroke-miterlimit="10" d="M20.699,65.692
	c0,4.897-2.52,7.766-7.391,7.766L12.649,73.5c-0.792,0-0.769,0.765-2.051,0.755c-3.895-0.028-7.537-4.462-7.537-8.563V51.675
	c0-3.973,2.599-7.334,6.18-8.461c1.066-0.336,1.275,0.604,2.639,0.604l0,0c4.871,0,8.819,2.961,8.819,7.858V65.692z"/>
<linearGradient id="SVGID_7_" gradientUnits="userSpaceOnUse" x1="24.7476" y1="121.312" x2="54.4985" y2="121.312">
	<stop  offset="0" style="stop-color:#EC2226"/>
	<stop  offset="0.173" style="stop-color:#EC2529"/>
	<stop  offset="0.3102" style="stop-color:#EC2F33"/>
	<stop  offset="0.4348" style="stop-color:#EC4044"/>
	<stop  offset="0.52" style="stop-color:#EC5054"/>
	<stop  offset="0.5336" style="stop-color:#EC4B4F"/>
	<stop  offset="0.6015" style="stop-color:#EC393D"/>
	<stop  offset="0.6818" style="stop-color:#EC2C30"/>
	<stop  offset="0.786" style="stop-color:#EC2428"/>
	<stop  offset="1" style="stop-color:#EC2226"/>
</linearGradient>
<path fill="url(#SVGID_7_)" stroke="#000000" stroke-width="0.9694" stroke-miterlimit="10" d="M51.18,163.551
	c-1.38-13.396-1.641-26.878-1.919-40.333c-0.482-23.316-0.886-46.635-1.338-69.952c0-1.157-0.194-4.32,1.375-6.613
	c1.393-2.033,4.572-3.166,4.578-4.813c0.015-4.546-6.134-6.716-8.75-6.716H33.005c-4.635,0-1.865,13.132-1.865,18.142
	c0,2.246-0.088,4.495-0.132,6.739c-0.406,20.654,0.221,41.31-0.189,61.965c-0.052,2.606-0.244,5.221-0.425,7.82
	c-0.545,7.789-1.222,15.565-1.861,23.347c-0.763,9.278-2.524,18.452-3.22,27.727c-0.318,4.244-0.835,8.476-0.397,12.731
	c0.468,4.542,0.566,8.715,4.167,11.503c3.981,3.082,11.795,2.745,16.583,1.492c3.323-0.869,5.444-2.914,6.748-5.565
	c1.615-3.283,2.092-6.989,2.084-10.611C54.482,181.456,52.096,172.444,51.18,163.551z M38.839,198.402
	c-2.922,0-5.291-2.369-5.291-5.291c0-2.923,2.369-5.292,5.291-5.292c2.923,0,5.292,2.369,5.292,5.292
	C44.131,196.033,41.762,198.402,38.839,198.402z"/>
<linearGradient id="SVGID_8_" gradientUnits="userSpaceOnUse" x1="9.5488" y1="42.8721" x2="47.2195" y2="80.5428">
	<stop  offset="0.0056" style="stop-color:#C3C5C7"/>
	<stop  offset="0.2978" style="stop-color:#BCBDBF"/>
	<stop  offset="0.6573" style="stop-color:#A7A8AC"/>
	<stop  offset="1" style="stop-color:#9B9DA0"/>
</linearGradient>
<polyline fill="url(#SVGID_8_)" stroke="#000000" stroke-width="1.0079" stroke-miterlimit="10" points="9.612,74.18 53.582,74.18 
	53.582,71.786 53.582,68.888 53.582,66.243 51.313,65.109 48.542,63.219 46.022,60.321 44.888,57.55 44.762,54.274 44.384,50.873 
	44.132,47.219 43.125,45.203 41.739,44.195 38.967,43.187 9.234,43.187 "/>
<path fill="#262626" d="M41.676,130.596c0,16.031,1.4,30.206,0.69,38.791c-0.45,5.442-2.864,10.369-3.457,10.369
	c-0.584,0-2.989-4.82-3.435-10.098c-0.724-8.558,0.668-22.86,0.668-39.063c0-14.971-1.461-27.457-0.83-36.149
	c0.475-6.517,2.941-11.28,3.597-11.28c0.663,0,3.136,4.864,3.612,11.533C43.144,103.397,41.676,115.77,41.676,130.596z"/>
<radialGradient id="SVGID_9_" cx="29.2661" cy="54.6748" r="4.0234" gradientUnits="userSpaceOnUse">
	<stop  offset="0" style="stop-color:#FFF3DC"/>
	<stop  offset="0.309" style="stop-color:#D6B188"/>
	<stop  offset="0.7508" style="stop-color:#92562C"/>
	<stop  offset="0.7809" style="stop-color:#8D5026"/>
	<stop  offset="1" style="stop-color:#541716"/>
</radialGradient>
<circle fill="url(#SVGID_9_)" stroke="#000000" stroke-width="1.0079" stroke-miterlimit="10" cx="29.266" cy="54.675" r="4.023"/>
<path fill="#494848" d="M38.41,186.559c-3.347,0-6.062,2.935-6.062,6.552s2.715,6.551,6.062,6.551c3.348,0,6.227-2.808,6.227-6.425
	S41.757,186.559,38.41,186.559z M38.869,197.783c-2.599,0-4.706-2.277-4.706-5.087c0-2.808,2.474-4.247,4.552-4.247
	c1.953,0,4.859,1.439,4.859,4.247C43.574,195.505,41.466,197.783,38.869,197.783z"/>
<radialGradient id="SVGID_10_" cx="21.7144" cy="17.4229" r="1.8477" gradientTransform="matrix(1.2046 0 0 1 5.3339 0)" gradientUnits="userSpaceOnUse">
	<stop  offset="0.0056" style="stop-color:#C3C5C7"/>
	<stop  offset="0.2978" style="stop-color:#BCBDBF"/>
	<stop  offset="0.6573" style="stop-color:#A7A8AC"/>
	<stop  offset="1" style="stop-color:#9B9DA0"/>
</radialGradient>
<ellipse fill="url(#SVGID_10_)" stroke="#000000" stroke-width="0.5937" stroke-miterlimit="10" cx="31.491" cy="17.423" rx="2.226" ry="1.847"/>
<radialGradient id="SVGID_11_" cx="25.4097" cy="17.4229" r="1.8477" gradientTransform="matrix(1.2046 0 0 1 5.3339 0)" gradientUnits="userSpaceOnUse">
	<stop  offset="0.0056" style="stop-color:#C3C5C7"/>
	<stop  offset="0.2978" style="stop-color:#BCBDBF"/>
	<stop  offset="0.6573" style="stop-color:#A7A8AC"/>
	<stop  offset="1" style="stop-color:#9B9DA0"/>
</radialGradient>
<ellipse fill="url(#SVGID_11_)" stroke="#000000" stroke-width="0.5937" stroke-miterlimit="10" cx="35.943" cy="17.423" rx="2.226" ry="1.847"/>
<radialGradient id="SVGID_12_" cx="29.105" cy="17.4229" r="1.8477" gradientTransform="matrix(1.2046 0 0 1 5.3339 0)" gradientUnits="userSpaceOnUse">
	<stop  offset="0.0056" style="stop-color:#C3C5C7"/>
	<stop  offset="0.2978" style="stop-color:#BCBDBF"/>
	<stop  offset="0.6573" style="stop-color:#A7A8AC"/>
	<stop  offset="1" style="stop-color:#9B9DA0"/>
</radialGradient>
<ellipse fill="url(#SVGID_12_)" stroke="#000000" stroke-width="0.5937" stroke-miterlimit="10" cx="40.395" cy="17.423" rx="2.226" ry="1.847"/>
<radialGradient id="SVGID_13_" cx="32.8003" cy="17.4229" r="1.8477" gradientTransform="matrix(1.2046 0 0 1 5.3339 0)" gradientUnits="userSpaceOnUse">
	<stop  offset="0.0056" style="stop-color:#C3C5C7"/>
	<stop  offset="0.2978" style="stop-color:#BCBDBF"/>
	<stop  offset="0.6573" style="stop-color:#A7A8AC"/>
	<stop  offset="1" style="stop-color:#9B9DA0"/>
</radialGradient>
<ellipse fill="url(#SVGID_13_)" stroke="#000000" stroke-width="0.5937" stroke-miterlimit="10" cx="44.846" cy="17.423" rx="2.226" ry="1.847"/>
<radialGradient id="SVGID_14_" cx="36.4956" cy="17.4229" r="1.8477" gradientTransform="matrix(1.2046 0 0 1 5.3339 0)" gradientUnits="userSpaceOnUse">
	<stop  offset="0.0056" style="stop-color:#C3C5C7"/>
	<stop  offset="0.2978" style="stop-color:#BCBDBF"/>
	<stop  offset="0.6573" style="stop-color:#A7A8AC"/>
	<stop  offset="1" style="stop-color:#9B9DA0"/>
</radialGradient>
<ellipse fill="url(#SVGID_14_)" stroke="#000000" stroke-width="0.5937" stroke-miterlimit="10" cx="49.297" cy="17.423" rx="2.226" ry="1.847"/>
<radialGradient id="SVGID_15_" cx="40.1909" cy="17.4229" r="1.8481" gradientTransform="matrix(1.2046 0 0 1 5.3339 0)" gradientUnits="userSpaceOnUse">
	<stop  offset="0.0056" style="stop-color:#C3C5C7"/>
	<stop  offset="0.2978" style="stop-color:#BCBDBF"/>
	<stop  offset="0.6573" style="stop-color:#A7A8AC"/>
	<stop  offset="1" style="stop-color:#9B9DA0"/>
</radialGradient>
<ellipse fill="url(#SVGID_15_)" stroke="#000000" stroke-width="0.5937" stroke-miterlimit="10" cx="53.749" cy="17.423" rx="2.226" ry="1.847"/>
<linearGradient id="SVGID_16_" gradientUnits="userSpaceOnUse" x1="15.9272" y1="7.4429" x2="40.9736" y2="32.4892">
	<stop  offset="0.0056" style="stop-color:#C3C5C7"/>
	<stop  offset="0.2978" style="stop-color:#BCBDBF"/>
	<stop  offset="0.6573" style="stop-color:#A7A8AC"/>
	<stop  offset="1" style="stop-color:#9B9DA0"/>
</linearGradient>
<path fill="url(#SVGID_16_)" stroke="#000000" stroke-width="1.0079" stroke-miterlimit="10" d="M14.651,43.187V27.061v-7.055
	c0,0,0-7.033,0-7.055c0-8.356,9.23-12.169,16.325-12.121c6.395,0.044,13.827-0.404,19.117,3.914
	c4.291,3.503,5.882,7.328,5.882,12.743h-2.52h-2.521h-4.031h-4.031h-3.527h-4.032h-3.527h-2.52v25.701H14.651z"/>
<g>
</g>
<g>
</g>
<g>
</g>
<g>
</g>
<g>
</g>
<g>
</g>
</svg>
