<?xml version="1.0" encoding="utf-8"?>
<!-- Generator: Adobe Illustrator 16.0.0, SVG Export Plug-In . SVG Version: 6.00 Build 0)  -->
<!DOCTYPE svg PUBLIC "-//W3C//DTD SVG 1.1//EN" "http://www.w3.org/Graphics/SVG/1.1/DTD/svg11.dtd">
<svg version="1.1" id="Layer_1" xmlns="http://www.w3.org/2000/svg" xmlns:xlink="http://www.w3.org/1999/xlink" x="0px" y="0px"
	 width="59.036px" height="208.329px" viewBox="0 0 59.036 208.329" enable-background="new 0 0 59.036 208.329"
	 xml:space="preserve">
<radialGradient id="SVGID_1_" cx="22.4487" cy="61.9126" r="20.7944" gradientUnits="userSpaceOnUse">
	<stop  offset="0.0056" style="stop-color:#C5C6C8"/>
	<stop  offset="0.2978" style="stop-color:#BDBEC0"/>
	<stop  offset="0.6573" style="stop-color:#A8AAAD"/>
	<stop  offset="0.9969" style="stop-color:#9B9DA0"/>
	<stop  offset="1" style="stop-color:#9B9DA0"/>
</radialGradient>
<path fill="url(#SVGID_1_)" stroke="#010101" stroke-miterlimit="10" d="M29.699,82.913c0,4.142-3.246,7.5-7.25,7.5l0,0
	c-4.004,0-7.25-3.358-7.25-7.5v-42c0-4.142,3.246-7.5,7.25-7.5l0,0c4.004,0,7.25,3.358,7.25,7.5V82.913z"/>
<radialGradient id="SVGID_2_" cx="35.6987" cy="23.6494" r="20.7582" gradientUnits="userSpaceOnUse">
	<stop  offset="0.0056" style="stop-color:#C5C6C8"/>
	<stop  offset="0.2978" style="stop-color:#BDBEC0"/>
	<stop  offset="0.6573" style="stop-color:#A8AAAD"/>
	<stop  offset="0.9969" style="stop-color:#9B9DA0"/>
	<stop  offset="1" style="stop-color:#9B9DA0"/>
</radialGradient>
<path fill="url(#SVGID_2_)" stroke="#010101" stroke-miterlimit="10" d="M15.199,44.663v-16v-7c0,0,0-6.978,0-7
	c0-8.291,9.158-12.074,16.197-12.026C37.74,2.68,45.115,2.236,50.363,6.52c4.258,3.476,5.836,7.271,5.836,12.643h-2.5h-2.5h-4h-4
	h-3.5h-4h-3.5h-2.5v25.5H15.199z"/>
<path fill="#9B9DA0" stroke="#010101" stroke-width="1.0027" stroke-miterlimit="10" d="M21.199,65.991
	c0,4.858-2.5,7.705-7.333,7.705l-0.654,0.042c-0.786,0-0.763,0.759-2.035,0.75c-3.864-0.028-7.478-4.428-7.478-8.497V52.084
	c0-3.941,2.579-7.277,6.132-8.395c1.058-0.333,1.265,0.599,2.618,0.599l0,0c4.833,0,8.75,2.938,8.75,7.796V65.991z"/>
<linearGradient id="SVGID_3_" gradientUnits="userSpaceOnUse" x1="25.2158" y1="121.1763" x2="54.7339" y2="121.1763">
	<stop  offset="0" style="stop-color:#961C1F"/>
	<stop  offset="0.5" style="stop-color:#B0605D"/>
	<stop  offset="0.5623" style="stop-color:#A0524E"/>
	<stop  offset="0.6994" style="stop-color:#823835"/>
	<stop  offset="0.8229" style="stop-color:#6F2725"/>
	<stop  offset="0.9273" style="stop-color:#641D1D"/>
	<stop  offset="1" style="stop-color:#61191B"/>
</linearGradient>
<path fill="url(#SVGID_3_)" stroke="#010101" stroke-width="0.9618" stroke-miterlimit="10" d="M51.442,163.084
	c-1.369-13.292-1.628-26.667-1.904-40.018c-0.479-23.134-0.879-46.27-1.327-69.404c0-1.147-0.193-4.287,1.364-6.562
	c1.382-2.017,4.536-3.141,4.542-4.775c0.015-4.511-6.086-6.663-8.682-6.663H33.409c-4.599,0-1.851,13.029-1.851,18
	c0,2.228-0.087,4.459-0.131,6.687c-0.402,20.493,0.22,40.986-0.188,61.479c-0.052,2.586-0.242,5.181-0.422,7.76
	c-0.541,7.728-1.212,15.443-1.846,23.164c-0.756,9.205-2.504,18.308-3.194,27.509c-0.316,4.211-0.829,8.409-0.394,12.632
	c0.464,4.507,0.562,8.647,4.134,11.413c3.95,3.058,11.703,2.724,16.454,1.48c3.297-0.862,5.401-2.891,6.695-5.521
	c1.603-3.258,2.075-6.935,2.067-10.528C54.717,180.849,52.35,171.908,51.442,163.084z M39.198,197.663
	c-2.899,0-5.25-2.351-5.25-5.25s2.351-5.25,5.25-5.25s5.25,2.351,5.25,5.25S42.097,197.663,39.198,197.663z"/>
<radialGradient id="SVGID_4_" cx="31.8237" cy="59.0376" r="18.9788" gradientUnits="userSpaceOnUse">
	<stop  offset="0.0056" style="stop-color:#C5C6C8"/>
	<stop  offset="0.2978" style="stop-color:#BDBEC0"/>
	<stop  offset="0.6573" style="stop-color:#A8AAAD"/>
	<stop  offset="0.9969" style="stop-color:#9B9DA0"/>
	<stop  offset="1" style="stop-color:#9B9DA0"/>
</radialGradient>
<polyline fill="url(#SVGID_4_)" stroke="#010101" stroke-miterlimit="10" points="10.199,74.413 53.824,74.413 53.824,72.038 
	53.824,69.163 53.824,66.538 51.574,65.413 48.824,63.538 46.324,60.663 45.199,57.913 45.074,54.663 44.699,51.288 44.449,47.663 
	43.449,45.663 42.074,44.663 39.324,43.663 9.824,43.663 "/>
<path fill="#262626" d="M42.012,130.387c0,15.906,1.39,29.97,0.685,38.487c-0.446,5.4-2.842,10.288-3.43,10.288
	c-0.579,0-2.966-4.782-3.407-10.019c-0.719-8.49,0.662-22.682,0.662-38.757c0-14.854-1.449-27.242-0.823-35.866
	c0.471-6.466,2.918-11.192,3.568-11.192c0.658,0,3.111,4.826,3.584,11.442C43.468,103.401,42.012,115.677,42.012,130.387z"/>
<radialGradient id="SVGID_5_" cx="33.1909" cy="50.3218" r="3.9915" gradientUnits="userSpaceOnUse">
	<stop  offset="0" style="stop-color:#FFF3DC"/>
	<stop  offset="0.309" style="stop-color:#D7B18A"/>
	<stop  offset="0.6791" style="stop-color:#9C6338"/>
	<stop  offset="0.7809" style="stop-color:#8E5127"/>
	<stop  offset="1" style="stop-color:#541816"/>
</radialGradient>
<circle fill="url(#SVGID_5_)" stroke="#010101" stroke-miterlimit="10" cx="33.19" cy="50.321" r="3.992"/>
<path fill="#484848" d="M38.771,185.913c-3.32,0-6.014,2.911-6.014,6.5s2.693,6.5,6.014,6.5c3.321,0,6.178-2.786,6.178-6.375
	S42.092,185.913,38.771,185.913z M39.226,197.048c-2.578,0-4.669-2.26-4.669-5.047c0-2.786,2.454-4.214,4.517-4.214
	c1.938,0,4.821,1.428,4.821,4.214C43.895,194.789,41.803,197.048,39.226,197.048z"/>
</svg>
