<?xml version="1.0" encoding="utf-8"?>
<!-- Generator: Adobe Illustrator 15.0.2, SVG Export Plug-In . SVG Version: 6.00 Build 0)  -->
<!DOCTYPE svg PUBLIC "-//W3C//DTD SVG 1.1//EN" "http://www.w3.org/Graphics/SVG/1.1/DTD/svg11.dtd">
<svg version="1.1" id="Layer_1" xmlns="http://www.w3.org/2000/svg" xmlns:xlink="http://www.w3.org/1999/xlink" x="0px" y="0px"
	 width="50px" height="50px" viewBox="0 0 50 50" enable-background="new 0 0 50 50" xml:space="preserve">
<g>
	<g>
		<g enable-background="new    ">
			<g enable-background="new    ">
				<defs>
					<path id="SVGID_1_" enable-background="new    " d="M43.996,25.003c0,10.485-8.505,18.999-19,18.999
						C35.491,44.002,43.996,35.488,43.996,25.003z"/>
				</defs>
				<clipPath id="SVGID_2_">
					<use xlink:href="#SVGID_1_"  overflow="visible"/>
				</clipPath>
				<g clip-path="url(#SVGID_2_)" enable-background="new    ">
					<path fill="#83758E" d="M43.996,25.003c0,0.85-0.056,1.687-0.164,2.507C43.94,26.69,43.996,25.853,43.996,25.003"/>
					<path fill="#7F728B" d="M43.832,27.511c-0.131,0.991-0.338,1.958-0.616,2.895C43.494,29.469,43.701,28.501,43.832,27.511"/>
					<path fill="#7C6F88" d="M43.216,30.405c-0.328,1.11-0.756,2.178-1.272,3.193C42.46,32.583,42.888,31.516,43.216,30.405"/>
					<path fill="#796C84" d="M41.943,33.599c-3.138,6.171-9.548,10.403-16.947,10.403C32.396,44.002,38.806,39.77,41.943,33.599"/>
				</g>
			</g>
			<g enable-background="new    ">
				<defs>
					<path id="SVGID_3_" enable-background="new    " d="M24.997,24.004c0-9.943,0-18,0-18c10.495,0,19,8.505,19,18.999
						c0,10.485-8.505,18.999-19,18.999c-10.494,0-18.999-8.514-18.999-18.999c0-10.494,8.505-18.999,18.999-18.999
						C24.997,6.004,24.997,14.061,24.997,24.004c-0.533-0.011-1.01,0.465-0.999,0.999c-0.014,0.526,0.471,1.011,0.999,0.999
						c0.529,0.013,1.013-0.473,1-0.999C26.007,24.47,25.531,23.994,24.997,24.004z"/>
				</defs>
				<clipPath id="SVGID_4_">
					<use xlink:href="#SVGID_3_"  overflow="visible"/>
				</clipPath>
				<g clip-path="url(#SVGID_4_)" enable-background="new    ">
					<path fill="#D6C8E2" d="M24.997,24.004c0-9.943,0-18,0-18c10.495,0,19,8.505,19,18.999c0,10.485-8.505,18.999-19,18.999
						c-10.494,0-18.999-8.514-18.999-18.999c0-10.494,8.505-18.999,18.999-18.999C24.997,6.004,24.997,14.061,24.997,24.004
						c-0.533-0.011-1.01,0.465-0.999,0.999c-0.014,0.526,0.471,1.011,0.999,0.999c0.529,0.013,1.013-0.473,1-0.999
						C26.007,24.47,25.531,23.994,24.997,24.004"/>
					<path fill="#D6C8E2" d="M24.997,10.41c-0.259,1.957-0.259,1.957,0,2.692c0,3.025,0,6.804,0,10.902
						c-0.533-0.011-1.01,0.465-0.999,0.999c-0.014,0.526,0.471,1.011,0.999,0.999c0.529,0.013,1.013-0.473,1-0.999
						c0.011-0.534-0.465-1.01-1-0.999c0-4.099,0-7.877,0-10.902c0.096,0.252,0.224,0.589,0.32,0.842
						c1.353,2.752,12.748,19.338,16.217,11.512c3.327-7.507-6.37-18.991-14.213-16.833C25.806,9.04,25.101,10.007,24.997,10.41
						c0-2.745,0-4.406,0-4.406c10.495,0,19,8.505,19,18.999c0,10.485-8.505,18.999-19,18.999c-10.494,0-18.999-8.514-18.999-18.999
						c0-10.494,8.505-18.999,18.999-18.999C24.997,6.004,24.997,7.666,24.997,10.41"/>
					<path fill="#D5C6E1" d="M24.997,9.483c-1.194,2.803-1.292,3.031,0,5.571c0,2.636,0,5.692,0,8.951
						c-0.533-0.011-1.01,0.465-0.999,0.999c-0.014,0.526,0.471,1.011,0.999,0.999c0.529,0.013,1.013-0.473,1-0.999
						c0.011-0.534-0.465-1.01-1-0.999c0-3.258,0-6.314,0-8.951c0.151,0.27,0.353,0.629,0.504,0.898
						c6.687,10.236,14.77,16.678,16.582,8.455c2.159-9.8-10.438-19.487-16.626-15.322C25.306,9.187,25.068,9.315,24.997,9.483
						c0-2.187,0-3.479,0-3.479c10.495,0,19,8.505,19,18.999c0,10.485-8.505,18.999-19,18.999c-10.494,0-18.999-8.514-18.999-18.999
						c0-10.494,8.505-18.999,18.999-18.999C24.997,6.004,24.997,7.296,24.997,9.483"/>
					<path fill="#D4C4E1" d="M24.997,8.954c-0.355,0.616-1.04,0.952-1.362,1.596c-0.268,0.536-0.268,1.357-0.268,1.667
						c0,1.104,0.548,2.608,1.63,4.471c0,2.235,0,4.711,0,7.317c-0.533-0.011-1.01,0.465-0.999,0.999
						c-0.014,0.526,0.471,1.011,0.999,0.999c0.529,0.013,1.013-0.473,1-0.999c0.011-0.534-0.465-1.01-1-0.999
						c0-2.605,0-5.082,0-7.317c0.063,0.094,0.147,0.218,0.21,0.312c14.147,19.3,16.647,10.345,17.077,7.14
						c0.758-5.658-2.658-10.345-4.796-12.223C30.822,6.061,25.197,8.606,24.997,8.954c0-1.865,0-2.95,0-2.95
						c10.495,0,19,8.505,19,18.999c0,10.485-8.505,18.999-19,18.999c-10.494,0-18.999-8.514-18.999-18.999
						c0-10.494,8.505-18.999,18.999-18.999C24.997,6.004,24.997,7.089,24.997,8.954"/>
					<path fill="#D3C2DF" d="M24.997,8.584c-0.153,0.267-0.619,0.362-0.884,0.518c-0.015,0.008-1.465,0.884-1.465,3.227
						c0,1.624,0.878,3.821,2.35,5.876c0,1.819,0,3.77,0,5.799c-0.533-0.011-1.01,0.465-0.999,0.999
						c-0.014,0.526,0.471,1.011,0.999,0.999c0.529,0.013,1.013-0.473,1-0.999c0.011-0.534-0.465-1.01-1-0.999
						c0-2.029,0-3.98,0-5.799c0.142,0.164,0.33,0.383,0.471,0.548c14.082,19.564,16.786,6.399,16.895,5.83
						c0.645-3.394-0.59-8.823-4.821-12.721C31.595,6.383,25.28,8.091,24.997,8.584c0-1.638,0-2.58,0-2.58
						c10.495,0,19,8.505,19,18.999c0,10.485-8.505,18.999-19,18.999c-10.494,0-18.999-8.514-18.999-18.999
						c0-10.494,8.505-18.999,18.999-18.999C24.997,6.004,24.997,6.947,24.997,8.584"/>
					<path fill="#D1C0DE" d="M24.997,8.289c-0.086,0.125-0.331,0.125-0.473,0.179c-0.026,0.01-2.618,1.026-2.618,4.02
						c0,1.505,0.536,3.974,3.091,7.189c0,1.386,0,2.835,0,4.327c-0.533-0.011-1.01,0.465-0.999,0.999
						c-0.014,0.526,0.471,1.011,0.999,0.999c0.529,0.013,1.013-0.473,1-0.999c0.011-0.534-0.465-1.01-1-0.999
						c0-1.492,0-2.941,0-4.327c0.116,0.122,0.271,0.285,0.387,0.407c8.219,9.239,8.219,9.239,10.574,9.808
						c5.662,1.365,6.498-4.477,6.608-5.662C43.94,9.419,26.504,6.106,24.997,8.289c0-1.455,0-2.285,0-2.285
						c10.495,0,19,8.505,19,18.999c0,10.485-8.505,18.999-19,18.999c-10.494,0-18.999-8.514-18.999-18.999
						c0-10.494,8.505-18.999,18.999-18.999C24.997,6.004,24.997,6.834,24.997,8.289"/>
					<path fill="#CFBDDD" d="M24.997,8.036c-0.201,0.293-0.773,0.3-1.105,0.429c-0.891,0.345-2.729,1.834-2.729,4.231
						c0,3.633,2.126,6.313,3.834,8.468c0,0.925,0,1.875,0,2.841c-0.533-0.011-1.01,0.465-0.999,0.999
						c-0.014,0.526,0.471,1.011,0.999,0.999c0.529,0.013,1.013-0.473,1-0.999c0.011-0.534-0.465-1.01-1-0.999
						c0-0.967,0-1.916,0-2.841c0.086,0.077,0.202,0.181,0.289,0.258c2.137,2.08,3.57,4.776,5.877,6.707
						c2.85,2.384,4.95,2.651,5.343,2.682c5.805,0.436,6.241-6.073,6.237-8.078c-0.005-2.042-0.614-7.287-6.168-11.886
						C31.507,6.649,25.237,7.684,24.997,8.036c0-1.298,0-2.031,0-2.031c10.495,0,19,8.505,19,18.999
						c0,10.485-8.505,18.999-19,18.999c-10.494,0-18.999-8.514-18.999-18.999c0-10.494,8.505-18.999,18.999-18.999
						C24.997,6.004,24.997,6.738,24.997,8.036"/>
					<path fill="#CDBADB" d="M24.997,7.811c-0.075,0.097-0.277,0.071-0.395,0.102c-1.691,0.434-4.208,2.137-4.208,5.049
						c0,1.967,0.598,5.843,4.603,9.705c0,0.442,0,0.888,0,1.338c-0.533-0.011-1.01,0.465-0.999,0.999
						c-0.014,0.526,0.471,1.011,0.999,0.999c0.529,0.013,1.013-0.473,1-0.999c0.011-0.534-0.465-1.01-1-0.999
						c0-0.45,0-0.896,0-1.338c0.054,0.033,0.126,0.077,0.181,0.11c1.256,0.911,1.256,0.911,2.253,2.784
						c1.512,2.838,6.548,6.325,9.627,6.002c4.805-0.503,6.288-5.697,5.627-10.621c-0.42-3.126-2.532-7.535-6.304-10.335
						C30.456,6.208,25.024,7.774,24.997,7.811c0-1.157,0-1.806,0-1.806c10.495,0,19,8.505,19,18.999
						c0,10.485-8.505,18.999-19,18.999c-10.494,0-18.999-8.514-18.999-18.999c0-10.494,8.505-18.999,18.999-18.999
						C24.997,6.004,24.997,6.653,24.997,7.811"/>
					<path fill="#C7B2D6" d="M24.997,7.613c-0.23,0.303-0.856,0.236-1.223,0.337c-0.04,0.011-3.928,1.198-4.171,5.345
						c-0.177,3.015,1.416,6.233,2.783,8.402c0.714,1.133,1.003,2.449,1.568,3.646c0.008,0.018,7.56,5.477,7.853,5.637
						c2.476,1.354,4.457,1.322,4.829,1.302c7.174-0.39,9.085-13.412,1.111-20.637C31.446,5.936,25.03,7.568,24.997,7.613
						c0-1.033,0-1.609,0-1.609c10.495,0,19,8.505,19,18.999c0,10.485-8.505,18.999-19,18.999c-10.494,0-18.999-8.514-18.999-18.999
						c0-10.494,8.505-18.999,18.999-18.999C24.997,6.004,24.997,6.58,24.997,7.613"/>
					<path fill="#C2ADD1" d="M24.997,7.426c-0.238,0.305-0.875,0.221-1.25,0.316c-1.943,0.491-3.97,2.257-4.518,3.937
						c-0.404,1.239-1.246,3.817,1.354,9.267c2.58,5.407,2.58,5.407,3.738,6.243c5.802,4.186,8.999,6.492,12.828,5.709
						c7.375-1.508,9.008-16.063-1.828-23.23C30.522,6.494,25.195,7.171,24.997,7.426c0-0.916,0-1.422,0-1.422
						c10.495,0,19,8.505,19,18.999c0,10.485-8.505,18.999-19,18.999c-10.494,0-18.999-8.514-18.999-18.999
						c0-10.494,8.505-18.999,18.999-18.999C24.997,6.004,24.997,6.511,24.997,7.426"/>
					<path fill="#BFABCD" d="M24.997,7.249c-0.193,0.234-0.695,0.138-0.993,0.197c-0.926,0.184-4.064,1.053-5.55,4.502
						c-0.422,0.981-1.193,3.793,0.767,8.712c5.329,13.377,16.229,13.111,16.34,13.106c8.846-0.344,10.343-14.886,2.288-22.228
						C31.544,5.792,25.031,7.206,24.997,7.249c0-0.804,0-1.245,0-1.245c10.495,0,19,8.505,19,18.999
						c0,10.485-8.505,18.999-19,18.999c-10.494,0-18.999-8.514-18.999-18.999c0-10.494,8.505-18.999,18.999-18.999
						C24.997,6.004,24.997,6.445,24.997,7.249"/>
					<path fill="#BCA8CA" d="M24.997,7.082c-0.257,0.313-0.926,0.18-1.323,0.257c-1.959,0.38-4.528,1.91-5.645,4.097
						c-1.601,3.133-0.87,6.755,0.024,9.241c4.971,13.815,16.704,13.859,16.821,13.856c9.45-0.279,11.425-15.351,3.018-23.039
						C31.547,5.693,25.031,7.04,24.997,7.082c0-0.697,0-1.078,0-1.078c10.495,0,19,8.505,19,18.999c0,10.485-8.505,18.999-19,18.999
						c-10.494,0-18.999-8.514-18.999-18.999c0-10.494,8.505-18.999,18.999-18.999C24.997,6.004,24.997,6.385,24.997,7.082"/>
					<path fill="#B9A5C7" d="M24.997,6.92c-0.122,0.14-0.429,0.062-0.613,0.088c-3.193,0.459-5.633,2.111-7.253,4.91
						c-0.965,1.667-1.392,5.063-0.169,8.888c4.386,13.724,16.982,14.498,17.107,14.497c9.404-0.062,13.424-14.202,4.08-23.636
						C32.558,6.021,25.178,6.71,24.997,6.92c0-0.594,0-0.916,0-0.916c10.495,0,19,8.505,19,18.999c0,10.485-8.505,18.999-19,18.999
						c-10.494,0-18.999-8.514-18.999-18.999c0-10.494,8.505-18.999,18.999-18.999C24.997,6.004,24.997,6.326,24.997,6.92"/>
					<path fill="#B6A3C4" d="M24.997,6.762c-0.271,0.316-0.959,0.15-1.371,0.214c-0.799,0.125-4.896,0.952-7.119,4.946
						c-2.24,4.027-0.741,8.667-0.177,10.415c3.035,9.391,12.599,14.297,18.119,13.68c9.811-1.097,12.942-16.805,2.429-25.543
						C31.534,6.033,25.138,6.596,24.997,6.762c0-0.493,0-0.758,0-0.758c10.495,0,19,8.505,19,18.999
						c0,10.485-8.505,18.999-19,18.999c-10.494,0-18.999-8.514-18.999-18.999c0-10.494,8.505-18.999,18.999-18.999
						C24.997,6.004,24.997,6.269,24.997,6.762"/>
					<path fill="#B3A0C1" d="M24.997,6.622c-0.06,0.066-0.207,0.02-0.296,0.028c-2.198,0.208-6.272,1.178-8.869,5.329
						c-1.113,1.779-2.129,5.016-0.647,10.328c2.546,9.125,11.655,14.974,18.237,14.517c10.615-0.738,14.563-17.161,3.485-26.385
						C31.592,6.013,25.142,6.462,24.997,6.622c0-0.402,0-0.617,0-0.617c10.495,0,19,8.505,19,18.999
						c0,10.485-8.505,18.999-19,18.999c-10.494,0-18.999-8.514-18.999-18.999c0-10.494,8.505-18.999,18.999-18.999
						C24.997,6.004,24.997,6.219,24.997,6.622"/>
					<path fill="#AF9DBD" d="M24.997,6.504c-0.285,0.321-0.996,0.12-1.422,0.171c-2.424,0.292-5.937,1.88-7.921,4.675
						c-2.053,2.892-2.606,6.467-1.645,10.627c2.206,9.539,11.183,15.785,18.183,15.633c11.91-0.257,15.667-17.183,5.825-26.248
						C31.746,5.589,25.031,6.465,24.997,6.504c0-0.327,0-0.5,0-0.5c10.495,0,19,8.505,19,18.999c0,10.485-8.505,18.999-19,18.999
						c-10.494,0-18.999-8.514-18.999-18.999c0-10.494,8.505-18.999,18.999-18.999C24.997,6.004,24.997,6.178,24.997,6.504"/>
					<path fill="#AC9ABA" d="M24.997,6.399C24.71,6.72,24,6.514,23.572,6.563c-0.562,0.064-5.574,0.754-8.638,5.032
						c-2.197,3.068-2.787,6.87-1.753,11.302c2.331,9.987,12.022,16.14,19.263,15.415c11.64-1.166,16.286-18.054,4.501-27.922
						C31.53,5.854,25.027,6.364,24.997,6.399c0-0.258,0-0.395,0-0.395c10.495,0,19,8.505,19,18.999c0,10.485-8.505,18.999-19,18.999
						c-10.494,0-18.999-8.514-18.999-18.999c0-10.494,8.505-18.999,18.999-18.999C24.997,6.004,24.997,6.141,24.997,6.399"/>
					<path fill="#A998B7" d="M24.997,6.326c-0.185,0.199-0.633,0.046-0.905,0.065c-1.398,0.101-6.229,0.773-9.665,5.174
						c-2.302,2.949-3.069,6.724-2.279,11.221c1.567,8.924,10.26,16.541,18.602,16.299c14.226-0.412,17.021-18.793,7.301-27.757
						C31.786,5.551,25.032,6.288,24.997,6.326c0-0.211,0-0.322,0-0.322c10.495,0,19,8.505,19,18.999
						c0,10.485-8.505,18.999-19,18.999c-10.494,0-18.999-8.514-18.999-18.999c0-10.494,8.505-18.999,18.999-18.999
						C24.997,6.004,24.997,6.115,24.997,6.326"/>
					<path fill="#A695B4" d="M24.997,6.269c-0.302,0.328-1.036,0.087-1.48,0.125c-2.354,0.199-6.786,1.671-9.347,4.917
						c-2.783,3.526-3.655,7.306-2.827,12.257c1.355,8.098,9.417,16.54,19.257,16.198c13.107-0.456,17.92-18.803,7.465-28.452
						C31.769,5.502,25.031,6.23,24.997,6.269c0-0.174,0-0.264,0-0.264c10.495,0,19,8.505,19,18.999c0,10.485-8.505,18.999-19,18.999
						c-10.494,0-18.999-8.514-18.999-18.999c0-10.494,8.505-18.999,18.999-18.999C24.997,6.004,24.997,6.095,24.997,6.269"/>
					<path fill="#A392B0" d="M24.997,6.216c-0.303,0.328-1.039,0.083-1.484,0.119c-1.832,0.146-6.498,0.982-10.255,5.575
						c-2.485,3.039-3.406,7.078-2.736,12.004c1.104,8.127,9.517,16.911,19.122,16.5c14.985-0.642,18.424-19.892,8.435-29.115
						C31.771,5.476,25.031,6.179,24.997,6.216c0-0.14,0-0.212,0-0.212c10.495,0,19,8.505,19,18.999c0,10.485-8.505,18.999-19,18.999
						c-10.494,0-18.999-8.514-18.999-18.999c0-10.494,8.505-18.999,18.999-18.999C24.997,6.004,24.997,6.077,24.997,6.216"/>
					<path fill="#A08FAD" d="M24.997,6.17c-0.305,0.328-1.042,0.079-1.489,0.112c-1.852,0.14-6.589,0.965-10.577,5.604
						c-1.227,1.428-3.995,5.458-3.193,12.034c1.044,8.56,9.131,17.463,19.505,17.074c14.289-0.535,19.91-19.414,8.846-29.706
						C31.944,5.573,25.032,6.132,24.997,6.17c10.495-0.166,19,8.339,19,18.833c0,10.485-8.505,18.999-19,18.999
						c-10.494,0-18.999-8.514-18.999-18.999c0-10.494,8.505-18.999,18.999-18.999C24.997,6.004,24.997,6.061,24.997,6.17"/>
					<path fill="#9D8CAA" d="M24.997,6.139c-0.26,0.275-0.883,0.05-1.261,0.071c-1.487,0.084-6.671,0.727-10.943,5.483
						c-1.325,1.475-4.34,5.615-3.729,12.187c0.903,9.703,9.885,17.934,19.222,17.617c16.077-0.549,20.272-20.544,9.811-30.217
						C31.797,5.456,25.032,6.102,24.997,6.139c10.495-0.135,19,8.37,19,18.864c0,10.485-8.505,18.999-19,18.999
						c-10.494,0-18.999-8.514-18.999-18.999c0-10.494,8.505-18.999,18.999-18.999C24.997,6.004,24.997,6.05,24.997,6.139"/>
					<path fill="#998AA6" d="M24.997,6.112c-0.313,0.333-1.064,0.064-1.521,0.091c-1.024,0.062-6.361,0.609-10.799,5.36
						C11.585,12.731,8.061,17.062,8.5,23.77c0.644,9.819,9.274,18.14,18.845,18.17c15.362,0.047,22.237-19.021,10.979-30.451
						C32.59,5.665,25.036,6.07,24.997,6.112c10.495-0.108,19,8.397,19,18.891c0,10.485-8.505,18.999-19,18.999
						c-10.494,0-18.999-8.514-18.999-18.999c0-10.494,8.505-18.999,18.999-18.999C24.997,6.004,24.997,6.041,24.997,6.112"/>
					<path fill="#9687A3" d="M24.997,6.088c-0.315,0.333-1.069,0.061-1.527,0.086c-0.257,0.015-6.338,0.412-10.913,5.299
						C7.833,16.52,7.938,22.458,8.083,24.158c0.899,10.566,9.68,18.518,19.99,18.101c15.2-0.614,21.578-20.31,10.034-30.991
						C31.793,5.425,25.032,6.051,24.997,6.088c10.495-0.083,19,8.421,19,18.916c0,10.485-8.505,18.999-19,18.999
						c-10.494,0-18.999-8.514-18.999-18.999c0-10.494,8.505-18.999,18.999-18.999C24.997,6.004,24.997,6.033,24.997,6.088"/>
					<path fill="#93849F" d="M24.997,6.067c-0.317,0.334-1.073,0.057-1.532,0.082C15.461,6.575,7.223,13.906,7.714,24.14
						C8.252,35.349,17.99,42.724,26.749,42.579c17.418-0.286,22.452-21.05,11.363-31.315C31.796,5.417,25.032,6.03,24.997,6.067
						c10.495-0.063,19,8.442,19,18.937c0,10.485-8.505,18.999-19,18.999c-10.494,0-18.999-8.514-18.999-18.999
						c0-10.494,8.505-18.999,18.999-18.999C24.997,6.004,24.997,6.025,24.997,6.067"/>
					<path fill="#8F819C" d="M24.997,6.049c-0.318,0.334-1.076,0.054-1.537,0.077c-0.658,0.033-6.563,0.468-11.285,5.444
						c-3.257,3.432-4.991,8.171-4.757,13.003C7.91,34.766,16.773,43.12,26.772,42.818c17.256-0.521,22.299-21.412,11.342-31.557
						C31.796,5.411,25.032,6.012,24.997,6.049c10.495-0.044,19,8.46,19,18.955c0,10.485-8.505,18.999-19,18.999
						c-10.494,0-18.999-8.514-18.999-18.999c0-10.494,8.505-18.999,18.999-18.999C24.997,6.004,24.997,6.02,24.997,6.049"/>
					<path fill="#8C7E99" d="M24.997,6.033c-0.319,0.335-1.079,0.052-1.542,0.074C14.373,6.542,6.761,14.955,7.164,24.112
						C7.7,36.269,17.48,43.273,26.626,43.022c16.206-0.445,23.506-20.631,11.489-31.763C31.797,5.407,25.032,5.997,24.997,6.033
						c10.495-0.029,19,8.476,19,18.97c0,10.485-8.505,18.999-19,18.999c-10.494,0-18.999-8.514-18.999-18.999
						c0-10.494,8.505-18.999,18.999-18.999C24.997,6.004,24.997,6.014,24.997,6.033"/>
					<path fill="#D8C9E3" d="M37.783,26.633c-3.427-1.096-16.166-14.434-10.998-17.456c5.157-3.016,17.28,5.567,14.945,14.965
						C41.189,26.318,39.714,27.25,37.783,26.633"/>
					<path fill="#897B95" d="M24.997,6.021c-0.32,0.335-1.081,0.049-1.544,0.07c-3.326,0.152-8.305,2.044-11.387,5.364
						c-4.833,5.207-5.208,10.46-5.069,13.958c0.298,7.549,7.231,17.928,19.471,17.78c11.337-0.138,21.192-12.138,16.101-25.43
						c0.92,2.231,1.428,4.676,1.428,7.239c0,10.485-8.505,18.999-19,18.999c-10.494,0-18.999-8.514-18.999-18.999
						c0-10.494,8.505-18.999,18.999-18.999C24.997,6.004,24.997,6.01,24.997,6.021"/>
					<path fill="#D9CBE4" d="M37.853,25.928c-3.691-1.354-9.971-10.234-10.025-10.321c-2.076-3.313-2.21-5.33-0.422-6.348
						c5.445-3.101,17.053,7.059,14.111,14.865C40.825,25.958,39.593,26.565,37.853,25.928"/>
					<path fill="#867892" d="M24.997,6.013c-0.321,0.335-1.083,0.047-1.547,0.068c-3.355,0.147-8.358,2.025-11.427,5.33
						c-2.402,2.586-5.554,6.869-5.196,14.168c0.437,8.918,8.756,18.398,19.997,17.746c11.004-0.64,18.721-10.635,16.851-21.827
						c0.212,1.136,0.322,2.308,0.322,3.505c0,10.485-8.505,18.999-19,18.999c-10.494,0-18.999-8.514-18.999-18.999
						c0-10.494,8.505-18.999,18.999-18.999C24.997,6.004,24.997,6.007,24.997,6.013"/>
					<path fill="#DACCE5" d="M37.884,25.206c-3.159-1.351-14.472-13.283-9.866-15.842c5.115-2.842,15.79,6.635,13.451,14.102
						C41.056,24.783,40.099,26.154,37.884,25.206"/>
					<path fill="#83758E" d="M24.997,6.007c-0.322,0.336-1.084,0.046-1.549,0.065c-0.684,0.029-6.826,0.433-11.789,5.633
						c-1.992,2.087-5.293,6.621-5.016,13.533c0.362,9.041,8.056,18.581,19.854,18.228c6.663-0.2,17.304-5.499,17.495-18.867
						c0.003,0.135,0.004,0.27,0.004,0.405c0,10.485-8.505,18.999-19,18.999c-10.494,0-18.999-8.514-18.999-18.999
						c0-10.494,8.505-18.999,18.999-18.999C24.997,6.004,24.997,6.005,24.997,6.007"/>
					<path fill="#DBCEE6" d="M38.724,24.788c-3.231-0.693-14.494-13.175-10.095-15.294c5.27-2.54,14.577,7.171,12.767,13.32
						C41.203,23.47,40.69,25.21,38.724,24.788"/>
					<path fill="#7F728B" d="M24.997,6.004c-0.323,0.336-1.086,0.044-1.551,0.063c-3.873,0.158-8.815,2.421-11.498,5.264
						c-1.575,1.67-5.759,6.104-5.432,14.261c0.36,8.97,8.105,18.396,19.99,17.983c7.528-0.262,15.897-5.864,17.327-16.067
						c-1.227,9.302-9.191,16.493-18.835,16.493c-10.494,0-18.999-8.514-18.999-18.999C5.998,14.509,14.503,6.004,24.997,6.004
						L24.997,6.004"/>
					<path fill="#DBCFE6" d="M38.695,24.093c-2.668-0.719-13.791-12.39-9.465-14.447c4.491-2.135,14.164,6.697,11.923,12.944
						C40.941,23.181,40.445,24.564,38.695,24.093"/>
					<path fill="#DCD0E7" d="M38.631,23.387c-2.51-0.785-12.894-11.914-8.794-13.561c1.62-0.651,5.579,0.447,8.346,3.715
						c3.716,4.387,3.19,8.269,2.579,9.187C40.4,23.27,39.864,23.772,38.631,23.387"/>
					<path fill="#7C6F88" d="M21.28,6.368C2.764,10.831,2.054,33.074,16.136,41.274c9.342,5.439,22.907,1.951,27.078-10.861
						c-2.33,7.854-9.604,13.589-18.217,13.589c-10.494,0-18.999-8.514-18.999-18.999c0-9.704,7.271-17.707,16.664-18.857
						C22.247,6.213,21.691,6.286,21.28,6.368"/>
					<path fill="#DDD1E8" d="M39.344,22.861c-2.807-0.624-6.306-4.951-8.746-8.472c-0.098-0.142-2.378-3.477-0.146-4.353
						c1.445-0.567,5.057,0.517,7.655,3.57c4.122,4.841,2.579,8.395,2.561,8.428C40.332,22.641,39.813,22.965,39.344,22.861"/>
					<path fill="#796C84" d="M17.809,7.412c-16.728,7.214-14.252,29.072,0.107,34.92c7.578,3.087,18.325,1.679,24.014-8.705
						c-3.144,6.155-9.545,10.375-16.933,10.375c-10.494,0-18.999-8.514-18.999-18.999c0-8.506,5.587-15.705,13.292-18.127l0,0
						C18.846,7.036,18.243,7.224,17.809,7.412"/>
					<path fill="#DED2E8" d="M39.235,22.164c-2.373-0.123-10.461-9.374-8.855-11.433c1.65-2.118,9.596,2.012,10.369,8.692
						C40.783,19.713,41.026,22.256,39.235,22.164"/>
					<path fill="#DFD4E9" d="M39.151,21.465c-0.684,0.099-3.021-1.466-5.873-5.138c-2.123-2.735-2.885-4.532-2.263-5.339
						c1.647-2.136,9.194,2.529,9.537,8.375C40.663,21.247,39.717,21.384,39.151,21.465"/>
					<path fill="#E0D5E9" d="M38.862,20.693c-1.723-0.285-8.48-7.586-7.177-9.398c1.498-2.082,8.101,2.724,8.536,7.229
						C40.458,20.957,39.257,20.759,38.862,20.693"/>
					<path fill="#E0D6EA" d="M39.357,19.916c-0.751-0.009-1.779-0.021-4.616-3.382c-1.969-2.333-2.848-4.153-2.35-4.87
						c1.035-1.492,6.299,1.694,7.397,5.926c0.05,0.193,0.465,1.901-0.403,2.316C39.378,19.91,39.366,19.915,39.357,19.916"/>
					<path fill="#E1D7EA" d="M38.202,18.967c-0.643-0.203-2.464-1.893-3.847-3.769c-1.26-1.709-1.438-2.73-1.207-3.085
						c0.582-0.898,2.65,0.353,3.33,0.862c1.349,1.011,2.579,3.069,2.76,3.705c0.588,2.062,0.21,2.219-0.19,2.387
						C38.813,19.165,38.446,19.044,38.202,18.967"/>
					<path fill="#E2D8EB" d="M37.604,17.805c-0.689-0.309-4.127-4.113-3.559-5.077c0.649-1.102,4.029,1.126,4.854,4.149
						c0.101,0.367,0.059,1.097-0.297,1.234C38.312,18.224,37.891,17.933,37.604,17.805"/>
					<path fill="#E3D9EB" d="M37.045,16.359c-1.356-1.023-1.878-2.634-1.847-2.69c0.122-0.214,0.605-0.342,0.798-0.189
						c0.352,0.279,0.844,0.634,1.135,0.976c0.01,0.012,0.993,1.266,1.006,1.546c0.011,0.258-0.03,0.723-0.271,0.816
						C37.603,16.921,37.271,16.529,37.045,16.359"/>
					<path fill="#897B95" d="M33.808,8.166c-1.781-0.846-4.473-2.125-8.811-2.145c3.677-0.017,7.111,1.027,10.019,2.835
						C34.653,8.649,34.178,8.359,33.808,8.166"/>
					<path fill="#867892" d="M30.484,6.809c-1.56-0.401-3.032-0.781-5.488-0.796c2.293-0.008,4.492,0.398,6.527,1.142
						C31.212,7.051,30.8,6.902,30.484,6.809"/>
					<path fill="#83758E" d="M26.881,6.097c-0.564-0.045-1.319-0.086-1.885-0.09c1.215-0.002,2.403,0.111,3.554,0.329
						c-0.452-0.066-1.055-0.155-1.507-0.222C26.995,6.109,26.93,6.101,26.881,6.097"/>
					<path fill="#7F728B" d="M24.997,6.004c0.228,0,0.454,0.004,0.679,0.012C25.472,6.013,25.14,6.15,24.997,6.004"/>
				</g>
			</g>
			<g>
				<path fill="#B19EBF" d="M24.997,24.004c0.535-0.011,1.01,0.465,1,0.999c0.014,0.525-0.47,1.011-1,0.999
					c-0.528,0.013-1.012-0.473-0.999-0.999C23.987,24.47,24.463,23.993,24.997,24.004z"/>
			</g>
		</g>
	</g>
</g>
<g>
	<rect x="17.3" y="16.953" width="5.361" height="16.094"/>
	<polygon points="25.214,16.93 36.7,25 25.214,33.07 	"/>
</g>
</svg>
