<?xml version="1.0" encoding="utf-8"?>
<!-- Generator: Adobe Illustrator 15.0.2, SVG Export Plug-In . SVG Version: 6.00 Build 0)  -->
<!DOCTYPE svg PUBLIC "-//W3C//DTD SVG 1.1//EN" "http://www.w3.org/Graphics/SVG/1.1/DTD/svg11.dtd">
<svg version="1.1" id="Layer_1" xmlns="http://www.w3.org/2000/svg" xmlns:xlink="http://www.w3.org/1999/xlink" x="0px" y="0px"
	 width="50px" height="50px" viewBox="0 0 50 50" enable-background="new 0 0 50 50" xml:space="preserve">
<g>
	<g>
		<g>
			<g enable-background="new    ">
				<g>
					<path fill="#8E8E8E" d="M14.164,7.936h23.004H14.164z"/>
				</g>
				<g enable-background="new    ">
					<defs>
						<path id="SVGID_1_" enable-background="new    " d="M43.162,37.941c0,3.313-2.682,5.994-5.994,5.994
							C40.48,43.936,43.162,41.254,43.162,37.941z"/>
					</defs>
					<clipPath id="SVGID_2_">
						<use xlink:href="#SVGID_1_"  overflow="visible"/>
					</clipPath>
					<g clip-path="url(#SVGID_2_)" enable-background="new    ">
						<path fill="#949494" d="M43.162,37.941c0,0.269-0.018,0.533-0.052,0.793C43.145,38.475,43.162,38.21,43.162,37.941"/>
						<path fill="#8F8F8F" d="M43.11,38.734c-0.041,0.313-0.107,0.619-0.194,0.915C43.003,39.354,43.069,39.048,43.11,38.734"/>
						<path fill="#8A8A8A" d="M42.916,39.649c-0.104,0.35-0.239,0.687-0.401,1.007C42.677,40.336,42.812,39.999,42.916,39.649"/>
						<path fill="#858585" d="M42.515,40.656c-0.99,1.947-3.012,3.279-5.347,3.279C39.503,43.936,41.524,42.604,42.515,40.656"/>
					</g>
				</g>
				<g enable-background="new    ">
					<defs>
						<path id="SVGID_3_" enable-background="new    " d="M39.162,37.941c2.21,0,4,0,4,0c0,3.313-2.682,5.994-5.994,5.994
							c0,0,0-1.79,0-4C38.268,39.938,39.164,39.041,39.162,37.941z"/>
					</defs>
					<clipPath id="SVGID_4_">
						<use xlink:href="#SVGID_3_"  overflow="visible"/>
					</clipPath>
					<g clip-path="url(#SVGID_4_)" enable-background="new    ">
						<path fill="#FFFFFF" d="M39.162,37.941c2.21,0,4,0,4,0c0,3.313-2.682,5.994-5.994,5.994c0,0,0-1.79,0-4
							C38.268,39.938,39.164,39.041,39.162,37.941"/>
						<path fill="#FFFFFF" d="M37.168,39.936c1.1,0.002,1.996-0.895,1.994-1.994c0.249,0,0.492,0,0.728,0
							c0.023,0.021,0.055,0.049,0.078,0.07c0.073,0.022,0.246,0.076,0.389-0.07c1.626,0,2.806,0,2.806,0
							c0,3.313-2.682,5.994-5.994,5.994C37.168,43.936,37.168,42.146,37.168,39.936"/>
						<path fill="#FFFFFF" d="M37.168,39.936c1.1,0.002,1.996-0.895,1.994-1.994c0.208,0,0.413,0,0.612,0
							c0.019,0.03,0.043,0.071,0.062,0.102c0.229,0.203,0.354,0.184,0.637-0.102c1.565,0,2.689,0,2.689,0
							c0,3.313-2.682,5.994-5.994,5.994C37.168,43.936,37.168,42.146,37.168,39.936"/>
						<path fill="#FFFFFF" d="M37.168,39.936c1.1,0.002,1.996-0.895,1.994-1.994c0.177,0,0.352,0,0.522,0
							c0.006,0.016,0.014,0.036,0.02,0.053c0.111,0.206,0.343,0.635,0.861-0.053c1.517,0,2.597,0,2.597,0
							c0,3.313-2.682,5.994-5.994,5.994C37.168,43.936,37.168,42.146,37.168,39.936"/>
						<path fill="#FFFFFF" d="M37.168,39.936c1.1,0.002,1.996-0.895,1.994-1.994c0.151,0,0.3,0,0.446,0
							c0.013,0.038,0.03,0.09,0.043,0.128c0.271,0.815,0.855,0.106,0.997-0.128c1.474,0,2.514,0,2.514,0
							c0,3.313-2.682,5.994-5.994,5.994C37.168,43.936,37.168,42.146,37.168,39.936"/>
						<path fill="#FFFFFF" d="M37.168,39.936c1.1,0.002,1.996-0.895,1.994-1.994c0.127,0,0.252,0,0.375,0
							c0.009,0.037,0.02,0.086,0.028,0.123c0.325,1.26,1.146-0.094,1.154-0.108c0.002-0.005,0.005-0.011,0.007-0.015
							c1.432,0,2.436,0,2.436,0c0,3.313-2.682,5.994-5.994,5.994C37.168,43.936,37.168,42.146,37.168,39.936"/>
						<path fill="#FFFFFF" d="M37.168,39.936c1.1,0.002,1.996-0.895,1.994-1.994c0.104,0,0.207,0,0.309,0
							c0.007,0.036,0.016,0.084,0.021,0.119c0.194,1.27,0.94,0.421,1.089,0.237c0.078-0.098,0.161-0.246,0.222-0.356
							c1.391,0,2.359,0,2.359,0c0,3.313-2.682,5.994-5.994,5.994C37.168,43.936,37.168,42.146,37.168,39.936"/>
						<path fill="#FFFFFF" d="M37.168,39.936c1.1,0.002,1.996-0.895,1.994-1.994c0.082,0,0.163,0,0.244,0
							c0.004,0.035,0.01,0.081,0.015,0.116c0.123,1.396,0.84,0.731,1.143,0.382c0.178-0.206,0.26-0.382,0.314-0.498
							c1.351,0,2.284,0,2.284,0c0,3.313-2.682,5.994-5.994,5.994C37.168,43.936,37.168,42.146,37.168,39.936"/>
						<path fill="#FFFFFF" d="M37.168,39.936c1.1,0.002,1.996-0.895,1.994-1.994c0.061,0,0.121,0,0.182,0
							c0.003,0.034,0.007,0.079,0.01,0.112c0.038,0.884,0.038,0.884,0.131,0.925c0.375,0.167,0.84-0.171,1.055-0.396
							c0.227-0.237,0.318-0.434,0.415-0.641c1.31,0,2.208,0,2.208,0c0,3.313-2.682,5.994-5.994,5.994
							C37.168,43.936,37.168,42.146,37.168,39.936"/>
						<path fill="#FFFFFF" d="M37.168,39.936c1.1,0.002,1.996-0.895,1.994-1.994c0.04,0,0.079,0,0.119,0
							c0.001,0.033,0.003,0.076,0.005,0.109c-0.001,0.285-0.09,0.563-0.063,0.852c0.017,0.18,0.058,0.203,0.167,0.264
							c0.114,0.063,0.632,0.024,1.118-0.438c0.298-0.284,0.424-0.563,0.525-0.786c1.266,0,2.128,0,2.128,0
							c0,3.313-2.682,5.994-5.994,5.994C37.168,43.936,37.168,42.146,37.168,39.936"/>
						<path fill="#FFFFFF" d="M37.168,39.936c1.1,0.002,1.996-0.895,1.994-1.994c0.019,0,0.038,0,0.057,0
							c0.001,0.031,0.001,0.074,0.001,0.105c-0.006,0.149-0.016,0.398-0.143,0.812c-0.113,0.364-0.03,0.413,0.059,0.464
							c0.163,0.095,0.839,0.035,1.405-0.511c0.354-0.342,0.505-0.698,0.577-0.87c1.22,0,2.044,0,2.044,0
							c0,3.313-2.682,5.994-5.994,5.994C37.168,43.936,37.168,42.146,37.168,39.936"/>
						<path fill="#FFFFFF" d="M37.168,39.942c0.124-0.126,0.271-0.012,0.403-0.038c0.326-0.066,0.578-0.31,0.904-0.377
							c0.386-0.08,0.785,0.02,1.169-0.085c0.253-0.068,1.111-0.378,1.563-1.501c1.171,0,1.954,0,1.954,0
							c0,3.313-2.682,5.994-5.994,5.994C37.168,43.936,37.168,42.148,37.168,39.942"/>
						<path fill="#FAFAFA" d="M37.168,40.018c0.022-0.022,0.075,0.002,0.106,0.003c0.04,0,0.188,0,0.42-0.037
							c0.25-0.039,0.49-0.116,0.737-0.167c1.445-0.296,2.316-0.475,2.877-1.875c1.114,0,1.854,0,1.854,0
							c0,3.313-2.682,5.994-5.994,5.994C37.168,43.936,37.168,42.189,37.168,40.018"/>
						<path fill="#F5F5F5" d="M37.168,40.094c0.024-0.023,0.078,0.004,0.111,0.006c0.061,0.004,0.198,0.006,0.44-0.018
							c0.229-0.023,0.453-0.073,0.679-0.11c0.994-0.162,2.354-0.385,3.023-2.03c1.051,0,1.74,0,1.74,0
							c0,3.313-2.682,5.994-5.994,5.994C37.168,43.936,37.168,42.23,37.168,40.094"/>
						<path fill="#F0F0F0" d="M37.168,40.17c0.025-0.023,0.081,0.008,0.115,0.011c0.131,0.012,3.215,0.263,4.271-2.239
							c0.976,0,1.607,0,1.607,0c0,3.313-2.682,5.994-5.994,5.994C37.168,43.936,37.168,42.271,37.168,40.17"/>
						<path fill="#EBEBEB" d="M37.168,40.249c0.027-0.023,0.084,0.011,0.119,0.015c0.218,0.026,1.661,0.038,2.811-0.546
							c0.358-0.183,0.689-0.44,0.985-0.767c0.27-0.298,0.404-0.681,0.624-1.01c0.889,0,1.455,0,1.455,0
							c0,3.313-2.682,5.994-5.994,5.994C37.168,43.936,37.168,42.313,37.168,40.249"/>
						<path fill="#E5E5E5" d="M37.168,40.331c0.02-0.017,0.06,0.009,0.086,0.012c0.033,0.005,3.396,0.448,4.623-2.401
							c0.79,0,1.285,0,1.285,0c0,3.313-2.682,5.994-5.994,5.994C37.168,43.936,37.168,42.355,37.168,40.331"/>
						<path fill="#E0E0E0" d="M37.168,40.42c0.029-0.025,0.09,0.014,0.129,0.02c1.159,0.18,3.845-0.195,4.749-2.498
							c0.691,0,1.116,0,1.116,0c0,3.313-2.682,5.994-5.994,5.994C37.168,43.936,37.168,42.4,37.168,40.42"/>
						<path fill="#DBDBDB" d="M37.168,40.513c0.031-0.026,0.094,0.017,0.134,0.023c1.323,0.232,4.119-0.29,4.899-2.595
							c0.6,0,0.961,0,0.961,0c0,3.313-2.682,5.994-5.994,5.994C37.168,43.936,37.168,42.448,37.168,40.513"/>
						<path fill="#D6D6D6" d="M37.168,40.611c0.033-0.027,0.097,0.019,0.139,0.027c1.367,0.27,4.346-0.257,5.033-2.697
							c0.516,0,0.822,0,0.822,0c0,3.313-2.682,5.994-5.994,5.994C37.168,43.936,37.168,42.499,37.168,40.611"/>
						<path fill="#D1D1D1" d="M37.168,40.722c0.022-0.019,0.066,0.013,0.095,0.019c0.105,0.021,0.284,0.049,0.537,0.063
							c0.391,0.021,3.84,0.132,4.662-2.862c0.441,0,0.7,0,0.7,0c0,3.313-2.682,5.994-5.994,5.994
							C37.168,43.936,37.168,42.555,37.168,40.722"/>
						<path fill="#CCCCCC" d="M37.168,40.843c0.03-0.025,0.091,0.018,0.129,0.025c1.385,0.281,4.636-0.066,5.274-2.927
							c0.375,0,0.591,0,0.591,0c0,3.313-2.682,5.994-5.994,5.994C37.168,43.936,37.168,42.615,37.168,40.843"/>
						<path fill="#C7C7C7" d="M37.168,40.974c0.025-0.021,0.075,0.017,0.108,0.023c1.169,0.252,4.67,0.231,5.392-3.056
							c0.315,0,0.494,0,0.494,0c0,3.313-2.682,5.994-5.994,5.994C37.168,43.936,37.168,42.68,37.168,40.974"/>
						<path fill="#C2C2C2" d="M37.168,41.117c0.009-0.007,0.024,0.006,0.035,0.008c2,0.467,5.045-0.213,5.552-3.184
							c0.261,0,0.407,0,0.407,0c0,3.313-2.682,5.994-5.994,5.994C37.168,43.936,37.168,42.75,37.168,41.117"/>
						<path fill="#BDBDBD" d="M37.168,41.27c0.042-0.033,0.121,0.027,0.174,0.039c1.835,0.417,4.948-0.129,5.491-3.367
							c0.212,0,0.329,0,0.329,0c0,3.313-2.682,5.994-5.994,5.994C37.168,43.936,37.168,42.823,37.168,41.27"/>
						<path fill="#B8B8B8" d="M37.168,41.429c0.044-0.034,0.127,0.029,0.182,0.041c2.396,0.54,5.2-0.655,5.553-3.528
							c0.168,0,0.26,0,0.26,0c0,3.313-2.682,5.994-5.994,5.994C37.168,43.936,37.168,42.898,37.168,41.429"/>
						<path fill="#B2B2B2" d="M37.168,41.592c0.02-0.016,0.056,0.013,0.08,0.019c2.125,0.505,5.303-0.3,5.716-3.669
							c0.129,0,0.198,0,0.198,0c0,3.313-2.682,5.994-5.994,5.994C37.168,43.936,37.168,42.975,37.168,41.592"/>
						<path fill="#ADADAD" d="M37.168,41.756c0.048-0.038,0.14,0.031,0.199,0.044c2.111,0.472,5.26-0.414,5.65-3.858
							c0.095,0,0.145,0,0.145,0c0,3.313-2.682,5.994-5.994,5.994C37.168,43.936,37.168,43.05,37.168,41.756"/>
						<path fill="#A8A8A8" d="M37.168,41.921c0.034-0.027,0.099,0.021,0.141,0.031c2.558,0.577,5.486-0.792,5.756-4.011
							c0.063,0,0.098,0,0.098,0c0,3.313-2.682,5.994-5.994,5.994C37.168,43.936,37.168,43.125,37.168,41.921"/>
						<path fill="#A3A3A3" d="M37.168,42.087c0.052-0.042,0.151,0.032,0.216,0.046c2.199,0.471,5.427-0.518,5.719-4.191
							c0.039,0,0.06,0,0.06,0c0,3.313-2.682,5.994-5.994,5.994C37.168,43.936,37.168,43.198,37.168,42.087"/>
						<path fill="#9E9E9E" d="M37.168,42.255c0.023-0.02,0.069,0.015,0.099,0.021c2.681,0.586,5.686-0.905,5.866-4.335
							c0.029,3.313-2.652,5.994-5.965,5.994C37.168,43.936,37.168,43.272,37.168,42.255"/>
						<path fill="#999999" d="M37.168,42.426c0.056-0.045,0.163,0.032,0.233,0.046c2.672,0.526,5.691-1.205,5.752-4.53
							c0.009,3.313-2.673,5.994-5.985,5.994C37.168,43.936,37.168,43.346,37.168,42.426"/>
						<path fill="#949494" d="M37.168,42.603c0.057-0.047,0.17,0.032,0.242,0.046c2.249,0.425,5.632-0.778,5.752-4.707
							c0,3.313-2.682,5.994-5.994,5.994C37.168,43.936,37.168,43.421,37.168,42.603"/>
						<path fill="#8F8F8F" d="M37.168,42.788c0.059-0.049,0.177,0.031,0.252,0.045c2.444,0.432,5.241-0.983,5.69-4.099
							c-0.388,2.937-2.898,5.201-5.942,5.201C37.168,43.936,37.168,43.498,37.168,42.788"/>
						<path fill="#8A8A8A" d="M37.168,42.989c0.042-0.035,0.125,0.021,0.179,0.03c2.147,0.361,4.75-0.681,5.57-3.373
							c-0.734,2.48-3.029,4.289-5.749,4.289C37.168,43.936,37.168,43.58,37.168,42.989"/>
						<path fill="#858585" d="M37.168,43.221c0.044-0.038,0.134,0.02,0.191,0.028c1.618,0.24,3.939-0.295,5.154-2.593
							c-0.989,1.947-3.011,3.279-5.346,3.279C37.168,43.936,37.168,43.672,37.168,43.221"/>
					</g>
				</g>
				<g enable-background="new    ">
					<defs>
						<path id="SVGID_5_" enable-background="new    " d="M37.168,39.936c0,2.21,0,4,0,4H14.164c0,0,0-1.79,0-4H37.168z"/>
					</defs>
					<clipPath id="SVGID_6_">
						<use xlink:href="#SVGID_5_"  overflow="visible"/>
					</clipPath>
					<g clip-path="url(#SVGID_6_)" enable-background="new    ">
						<polyline fill="#FFFFFF" points="14.164,39.936 37.168,39.936 37.168,39.942 14.164,39.942 14.164,39.936 						"/>
						<path fill="#FFFFFF" d="M14.164,39.942h23.004c0,0.026,0,0.052,0,0.077H14.164C14.164,39.994,14.164,39.969,14.164,39.942"/>
						<path fill="#FAFAFA" d="M14.164,40.02h23.004c0,0.026,0,0.052,0,0.077H14.164C14.164,40.071,14.164,40.046,14.164,40.02"/>
						<path fill="#F5F5F5" d="M14.164,40.097h23.004c0,0.025,0,0.052,0,0.077H14.164C14.164,40.148,14.164,40.122,14.164,40.097"/>
						<path fill="#F0F0F0" d="M14.164,40.174h23.004c0,0.025,0,0.051,0,0.076H14.164C14.164,40.225,14.164,40.199,14.164,40.174"/>
						<path fill="#EBEBEB" d="M14.164,40.25h23.004c0,0.029,0,0.059,0,0.088H14.164C14.164,40.309,14.164,40.279,14.164,40.25"/>
						<path fill="#E5E5E5" d="M14.164,40.338h23.004c0,0.03,0,0.061,0,0.091H14.164C14.164,40.398,14.164,40.368,14.164,40.338"/>
						<path fill="#E0E0E0" d="M14.164,40.429h23.004c0,0.03,0,0.061,0,0.09H14.164C14.164,40.489,14.164,40.459,14.164,40.429"/>
						<path fill="#DBDBDB" d="M14.164,40.519h23.004c0,0.032,0,0.064,0,0.097H14.164C14.164,40.583,14.164,40.551,14.164,40.519"/>
						<path fill="#D6D6D6" d="M14.164,40.615h23.004c0,0.039,0,0.078,0,0.117H14.164C14.164,40.693,14.164,40.654,14.164,40.615"/>
						<path fill="#D1D1D1" d="M14.164,40.732h23.004c0,0.038,0,0.077,0,0.115H14.164C14.164,40.81,14.164,40.771,14.164,40.732"/>
						<path fill="#CCCCCC" d="M14.164,40.848h23.004c0,0.044,0,0.088,0,0.132H14.164C14.164,40.936,14.164,40.892,14.164,40.848"/>
						<path fill="#C7C7C7" d="M14.164,40.979h23.004c0,0.048,0,0.096,0,0.143H14.164C14.164,41.075,14.164,41.027,14.164,40.979"/>
						<path fill="#C2C2C2" d="M14.164,41.122h23.004c0,0.051,0,0.101,0,0.15H14.164C14.164,41.223,14.164,41.173,14.164,41.122"/>
						<path fill="#BDBDBD" d="M14.164,41.272h23.004c0,0.054,0,0.106,0,0.159H14.164C14.164,41.379,14.164,41.326,14.164,41.272"/>
						<path fill="#B8B8B8" d="M14.164,41.432h23.004c0,0.055,0,0.108,0,0.162H14.164C14.164,41.54,14.164,41.486,14.164,41.432"/>
						<path fill="#B2B2B2" d="M14.164,41.594h23.004c0,0.055,0,0.109,0,0.163H14.164C14.164,41.703,14.164,41.648,14.164,41.594"/>
						<path fill="#ADADAD" d="M14.164,41.757h23.004c0,0.056,0,0.111,0,0.166H14.164C14.164,41.868,14.164,41.813,14.164,41.757"/>
						<path fill="#A8A8A8" d="M14.164,41.923h23.004c0,0.056,0,0.111,0,0.165H14.164C14.164,42.034,14.164,41.979,14.164,41.923"/>
						<path fill="#A3A3A3" d="M14.164,42.088h23.004c0,0.058,0,0.113,0,0.168H14.164C14.164,42.201,14.164,42.146,14.164,42.088"/>
						<path fill="#9E9E9E" d="M14.164,42.256h23.004c0,0.059,0,0.117,0,0.173H14.164C14.164,42.373,14.164,42.314,14.164,42.256"/>
						<path fill="#999999" d="M14.164,42.429h23.004c0,0.061,0,0.119,0,0.177H14.164C14.164,42.548,14.164,42.489,14.164,42.429"/>
						<path fill="#949494" d="M14.164,42.605h23.004c0,0.063,0,0.125,0,0.185H14.164C14.164,42.73,14.164,42.669,14.164,42.605"/>
						<path fill="#8F8F8F" d="M14.164,42.79h23.004c0,0.069,0,0.136,0,0.2H14.164C14.164,42.926,14.164,42.859,14.164,42.79"/>
						<path fill="#8A8A8A" d="M14.164,42.99h23.004c0,0.084,0,0.162,0,0.236H14.164C14.164,43.152,14.164,43.074,14.164,42.99"/>
						<path fill="#858585" d="M14.164,43.227h23.004c0,0.447,0,0.709,0,0.709H14.164C14.164,43.936,14.164,43.674,14.164,43.227"/>
					</g>
				</g>
				<g enable-background="new    ">
					<defs>
						<path id="SVGID_7_" enable-background="new    " d="M37.168,11.936c0-2.209,0-4,0-4c3.313,0,5.994,2.691,5.994,6.003
							c0,0-1.79,0-4,0C39.164,12.836,38.263,11.932,37.168,11.936z"/>
					</defs>
					<clipPath id="SVGID_8_">
						<use xlink:href="#SVGID_7_"  overflow="visible"/>
					</clipPath>
					<g clip-path="url(#SVGID_8_)" enable-background="new    ">
						<path fill="#FFFFFF" d="M37.168,11.936c0-2.209,0-4,0-4c3.313,0,5.994,2.691,5.994,6.003c0,0-1.79,0-4,0
							C39.164,12.836,38.263,11.932,37.168,11.936"/>
						<path fill="#FFFFFF" d="M40.35,13.938c1.078-1.243-0.195-3.457-1.947-3.385c-0.486,0.02-1.122,0.354-0.714,0.757
							c0.411,0.407,0.965,0.638,1.342,1.087c0.385,0.459,0.511,1.064,0.865,1.541c-0.238,0-0.483,0-0.733,0
							c0.002-1.103-0.899-2.006-1.994-2.003c0-2.209,0-4,0-4c3.313,0,5.994,2.691,5.994,6.003
							C43.162,13.938,41.979,13.938,40.35,13.938"/>
						<path fill="#FFFFFF" d="M40.467,13.938c1.077-1.646-0.651-3.739-2.306-3.419c-0.212,0.041-1.199,0.379-0.477,0.891
							c1.478,1.048,1.478,1.048,2.093,2.528c-0.2,0-0.406,0-0.615,0c0.002-1.103-0.899-2.006-1.994-2.003c0-2.209,0-4,0-4
							c3.313,0,5.994,2.691,5.994,6.003C43.162,13.938,42.036,13.938,40.467,13.938"/>
						<path fill="#FFFFFF" d="M40.562,13.938c0.931-1.429-0.483-3.845-2.503-3.463c-0.313,0.059-1.213,0.493-0.511,0.946
							c1.508,0.972,1.739,1.121,2.138,2.518c-0.172,0-0.347,0-0.523,0c0.002-1.103-0.899-2.006-1.994-2.003c0-2.209,0-4,0-4
							c3.313,0,5.994,2.691,5.994,6.003C43.162,13.938,42.08,13.938,40.562,13.938"/>
						<path fill="#FFFFFF" d="M40.646,13.938c0.999-1.896-1.026-4-2.76-3.487c-0.195,0.058-0.548,0.2-0.719,0.507
							c0-1.737,0-3.023,0-3.023c3.313,0,5.994,2.691,5.994,6.003C43.162,13.938,42.121,13.938,40.646,13.938"/>
						<path fill="#FFFFFF" d="M40.726,13.938c1.015-2.233-1.427-4.142-3.021-3.498c-0.326,0.131-0.484,0.278-0.537,0.335
							c0-1.644,0-2.84,0-2.84c3.313,0,5.994,2.691,5.994,6.003C43.162,13.938,42.158,13.938,40.726,13.938"/>
						<path fill="#FFFFFF" d="M40.802,13.938c0.999-2.193-1.326-4.285-3.199-3.534c-0.216,0.086-0.365,0.194-0.435,0.251
							c0-1.582,0-2.72,0-2.72c3.313,0,5.994,2.691,5.994,6.003C43.162,13.938,42.193,13.938,40.802,13.938"/>
						<path fill="#FFFFFF" d="M40.877,13.938c0.92-2.292-1.434-4.341-3.342-3.583c-0.114,0.045-0.237,0.111-0.367,0.197
							c0-1.528,0-2.617,0-2.617c3.313,0,5.994,2.691,5.994,6.003C43.162,13.938,42.229,13.938,40.877,13.938"/>
						<path fill="#FFFFFF" d="M40.952,13.938c0.963-2.461-1.6-4.516-3.601-3.582c-0.057,0.027-0.129,0.07-0.184,0.101
							c0-1.478,0-2.522,0-2.522c3.313,0,5.994,2.691,5.994,6.003C43.162,13.938,42.263,13.938,40.952,13.938"/>
						<path fill="#FFFFFF" d="M41.032,13.938c0.953-2.471-1.651-4.586-3.664-3.673c-0.062,0.028-0.141,0.071-0.2,0.101
							c0-1.429,0-2.431,0-2.431c3.313,0,5.994,2.691,5.994,6.003C43.162,13.938,42.3,13.938,41.032,13.938"/>
						<path fill="#FFFFFF" d="M41.117,13.938c-0.031-0.044,0.042-0.118,0.061-0.168c0.214-0.591,0.318-1.986-0.813-3.035
							c-0.732-0.679-2.005-1.085-3.197-0.46c0-1.381,0-2.34,0-2.34c3.313,0,5.994,2.691,5.994,6.003
							C43.162,13.938,42.338,13.938,41.117,13.938"/>
						<path fill="#FFFFFF" d="M41.207,13.938c-0.039-0.055,0.053-0.148,0.075-0.212c0.209-0.597,0.304-2.006-0.839-3.069
							c-0.673-0.626-1.935-1.126-3.275-0.477c0-1.33,0-2.245,0-2.245c3.313,0,5.994,2.691,5.994,6.003
							C43.162,13.938,42.378,13.938,41.207,13.938"/>
						<path fill="#FAFAFA" d="M41.307,13.938c-0.04-0.057,0.054-0.152,0.077-0.217c0.219-0.615,0.324-2.066-0.847-3.157
							c-0.149-0.139-1.515-1.337-3.369-0.482c0-1.276,0-2.146,0-2.146c3.313,0,5.994,2.691,5.994,6.003
							C43.162,13.938,42.422,13.938,41.307,13.938"/>
						<path fill="#F5F5F5" d="M41.421,13.938c-0.04-0.057,0.055-0.153,0.078-0.219c0.244-0.687,0.339-2.146-0.856-3.261
							c-0.687-0.64-2.009-1.15-3.475-0.485c0-1.217,0-2.039,0-2.039c3.313,0,5.994,2.691,5.994,6.003
							C43.162,13.938,42.473,13.938,41.421,13.938"/>
						<path fill="#F0F0F0" d="M41.554,13.938c1.033-2.792-1.672-5.311-4.386-4.084c0-1.151,0-1.919,0-1.919
							c3.313,0,5.994,2.691,5.994,6.003C43.162,13.938,42.53,13.938,41.554,13.938"/>
						<path fill="#EBEBEB" d="M41.706,13.938c1.045-2.837-1.797-5.48-4.538-4.22c0-1.075,0-1.783,0-1.783
							c3.313,0,5.994,2.691,5.994,6.003C43.162,13.938,42.595,13.938,41.706,13.938"/>
						<path fill="#E5E5E5" d="M41.876,13.938c0.981-2.638-1.714-5.744-4.708-4.377c0-0.986,0-1.625,0-1.625
							c3.313,0,5.994,2.691,5.994,6.003C43.162,13.938,42.667,13.938,41.876,13.938"/>
						<path fill="#E0E0E0" d="M42.045,13.938c-0.019-0.026,0.023-0.071,0.034-0.101c0.417-1.251-0.014-2.755-1.071-3.743
							c-0.649-0.606-2.012-1.503-3.84-0.707c0-0.887,0-1.452,0-1.452c3.313,0,5.994,2.691,5.994,6.003
							C43.162,13.938,42.737,13.938,42.045,13.938"/>
						<path fill="#DBDBDB" d="M42.201,13.938c-0.03-0.04,0.031-0.113,0.045-0.161c0.353-1.251-0.119-2.757-1.173-3.748
							c-1.143-1.074-2.603-1.381-3.905-0.821c0-0.783,0-1.272,0-1.272c3.313,0,5.994,2.691,5.994,6.003
							C43.162,13.938,42.8,13.938,42.201,13.938"/>
						<path fill="#D6D6D6" d="M42.34,13.938c-0.051-0.063,0.042-0.183,0.06-0.262c0.226-0.991-0.075-2.573-1.27-3.705
							c-1.146-1.086-2.628-1.435-3.962-0.932c0-0.684,0-1.104,0-1.104c3.313,0,5.994,2.691,5.994,6.003
							C43.162,13.938,42.855,13.938,42.34,13.938"/>
						<path fill="#D1D1D1" d="M42.462,13.938c-0.015-0.018,0.012-0.053,0.017-0.075c0.3-1.356-0.21-2.904-1.298-3.942
							c-0.546-0.521-2.03-1.665-4.013-1.033c0-0.594,0-0.952,0-0.952c3.313,0,5.994,2.691,5.994,6.003
							C43.162,13.938,42.903,13.938,42.462,13.938"/>
						<path fill="#CCCCCC" d="M42.57,13.938c-0.046-0.055,0.028-0.165,0.041-0.235c0.184-1.067-0.174-2.664-1.386-3.827
							c-0.67-0.643-2.088-1.644-4.058-1.124c0-0.513,0-0.817,0-0.817c3.313,0,5.994,2.691,5.994,6.003
							C43.162,13.938,42.946,13.938,42.57,13.938"/>
						<path fill="#C7C7C7" d="M42.668,13.938c-0.013-0.016,0.008-0.047,0.011-0.066c0.238-1.417-0.304-2.963-1.414-4.035
							c-1.17-1.129-2.663-1.569-4.097-1.207c0-0.439,0-0.695,0-0.695c3.313,0,5.994,2.691,5.994,6.003
							C43.162,13.938,42.983,13.938,42.668,13.938"/>
						<path fill="#C2C2C2" d="M42.755,13.938c-0.056-0.063,0.023-0.195,0.034-0.279c0.13-1.075-0.28-2.684-1.49-3.857
							c-0.675-0.655-2.11-1.692-4.131-1.281c0-0.372,0-0.586,0-0.586c3.313,0,5.994,2.691,5.994,6.003
							C43.162,13.938,43.016,13.938,42.755,13.938"/>
						<path fill="#BDBDBD" d="M42.833,13.938c-0.024-0.026,0.01-0.083,0.014-0.118c0.169-1.42-0.412-2.971-1.518-4.047
							c-1.178-1.146-2.694-1.639-4.161-1.35c0-0.311,0-0.488,0-0.488c3.313,0,5.994,2.691,5.994,6.003
							C43.162,13.938,43.045,13.938,42.833,13.938"/>
						<path fill="#FFFFFF" d="M39.967,13.852c-0.103-0.082-0.176-0.231-0.354-0.594c-0.109-0.223-0.293-0.597-0.629-0.976
							c-0.288-0.325-0.592-0.541-0.722-0.633c-0.402-0.286-0.487-0.358-0.534-0.453c-0.11-0.225,0.047-0.502,0.651-0.58
							c1.608-0.206,2.839,1.99,2.086,3.049C40.345,13.835,40.161,14.005,39.967,13.852"/>
						<path fill="#B8B8B8" d="M42.902,13.938c-0.061-0.066,0.017-0.208,0.024-0.297c0.082-1.006-0.279-2.63-1.572-3.894
							c-0.678-0.662-2.122-1.726-4.187-1.414c0-0.255,0-0.398,0-0.398c3.313,0,5.994,2.691,5.994,6.003
							C43.162,13.938,43.07,13.938,42.902,13.938"/>
						<path fill="#FFFFFF" d="M39.958,13.692c-0.085-0.069-0.193-0.272-0.265-0.406c-0.195-0.366-0.382-0.695-0.679-1.031
							c-0.243-0.275-0.477-0.461-0.83-0.736c-0.066-0.052-0.27-0.209-0.318-0.301c-0.169-0.317,0.234-0.504,0.488-0.534
							c1.745-0.203,2.77,2.031,2.043,2.922C40.203,13.846,40.054,13.77,39.958,13.692"/>
						<path fill="#B2B2B2" d="M42.964,13.938c-0.041-0.044,0.011-0.141,0.015-0.201c0.083-1.097-0.295-2.726-1.604-4.01
							c-1.176-1.154-2.709-1.691-4.206-1.474c0-0.205,0-0.318,0-0.318c3.313,0,5.994,2.691,5.994,6.003
							C43.162,13.938,43.093,13.938,42.964,13.938"/>
						<path fill="#FFFFFF" d="M40.082,13.628c-0.062-0.017-0.153-0.043-0.397-0.475c-0.143-0.25-0.339-0.577-0.595-0.875
							c-0.207-0.24-0.417-0.438-0.777-0.731c-0.177-0.143-0.296-0.286-0.296-0.287c-0.117-0.167-0.078-0.316,0.111-0.419
							c1.051-0.572,2.835,0.901,2.393,2.366C40.433,13.497,40.249,13.674,40.082,13.628"/>
						<path fill="#FFFFFF" d="M40.093,13.487c-0.129-0.006-0.287-0.239-0.425-0.466c-0.095-0.155-0.237-0.389-0.431-0.633
							c-0.252-0.318-0.494-0.543-0.699-0.721c-0.248-0.216-0.367-0.352-0.367-0.353c-0.149-0.201-0.072-0.329,0.019-0.401
							c0.675-0.535,2.484,0.514,2.324,1.982C40.483,13.173,40.386,13.501,40.093,13.487"/>
						<path fill="#ADADAD" d="M43.018,13.938c-0.063-0.066,0.011-0.212,0.016-0.302c0.05-1.015-0.35-2.652-1.643-3.924
							c-0.826-0.813-2.229-1.738-4.223-1.53c0-0.16,0-0.247,0-0.247c3.313,0,5.994,2.691,5.994,6.003
							C43.162,13.938,43.112,13.938,43.018,13.938"/>
						<path fill="#FFFFFF" d="M40.06,13.343c-0.104-0.015-0.232-0.2-0.41-0.455c-0.323-0.463-0.323-0.463-0.457-0.624
							c-0.262-0.315-0.612-0.545-0.856-0.879c-0.083-0.113-0.209-0.285-0.022-0.426c0.274-0.208,0.977-0.098,1.472,0.356
							c0.769,0.706,0.686,1.458,0.661,1.602C40.366,13.387,40.151,13.356,40.06,13.343"/>
						<path fill="#A8A8A8" d="M43.064,13.938c-0.059-0.06,0.007-0.195,0.01-0.278c0.038-1.027-0.378-2.68-1.673-3.959
							c-1.193-1.177-2.696-1.74-4.233-1.583c0-0.119,0-0.183,0-0.183c3.313,0,5.994,2.691,5.994,6.003
							C43.162,13.938,43.128,13.938,43.064,13.938"/>
						<path fill="#FFFFFF" d="M40.039,13.196c-0.065-0.015-0.172-0.126-0.229-0.191c-0.218-0.246-0.385-0.53-0.594-0.783
							c-0.222-0.268-0.506-0.478-0.712-0.76c-0.122-0.167-0.237-0.324-0.063-0.451c0.546-0.396,2.057,0.56,1.953,1.744
							C40.364,13.101,40.248,13.245,40.039,13.196"/>
						<path fill="#FFFFFF" d="M40.022,13.048c-0.091-0.031-0.091-0.031-0.672-0.745c-0.2-0.246-0.435-0.46-0.635-0.706
							c-0.172-0.21-0.25-0.307-0.221-0.422c0.081-0.315,1.15-0.186,1.648,0.752C40.433,12.47,40.357,13.161,40.022,13.048"/>
						<path fill="#FFFFFF" d="M39.162,13.938c0.002-1.103-0.899-2.006-1.994-2.003c0-0.233,0-0.462,0-0.685
							c0.001,0.003,0.003,0.007,0.005,0.01c0.205,0.17,0.205,0.17,0.553,0.331c0.504,0.233,0.834,0.465,1.139,0.8
							c0.496,0.545,0.658,1.197,0.745,1.547C39.462,13.938,39.313,13.938,39.162,13.938"/>
						<path fill="#A3A3A3" d="M43.103,13.938c-0.012-0.012,0.002-0.04,0.003-0.057c0.063-1.506-0.572-3.07-1.699-4.187
							c-0.826-0.818-2.232-1.766-4.238-1.633c0-0.083,0-0.126,0-0.126c3.313,0,5.994,2.691,5.994,6.003
							C43.162,13.938,43.142,13.938,43.103,13.938"/>
						<path fill="#FFFFFF" d="M40.002,12.899c-0.131-0.058-0.176-0.078-1.049-1.135c-0.309-0.374-0.334-0.404-0.313-0.514
							c0.062-0.33,0.952-0.109,1.372,0.56c0.323,0.515,0.3,1.1,0.041,1.108C40.036,12.919,40.017,12.906,40.002,12.899"/>
						<path fill="#FFFFFF" d="M39.162,13.938c0.002-1.103-0.899-2.006-1.994-2.003c0-0.175,0-0.348,0-0.517
							c0.038,0.017,0.088,0.04,0.126,0.057c1.169,0.537,1.169,0.537,1.54,0.944c0.526,0.579,0.66,1.287,0.704,1.52
							C39.414,13.938,39.289,13.938,39.162,13.938"/>
						<path fill="#FFFFFF" d="M39.162,13.938c0.002-1.103-0.899-2.006-1.994-2.003c0-0.136,0-0.27,0-0.401
							c0.036,0.01,0.085,0.023,0.121,0.034c0.669,0.223,1.913,0.637,2.182,2.371C39.369,13.938,39.266,13.938,39.162,13.938"/>
						<path fill="#FFFFFF" d="M39.987,12.751c-0.115-0.008-0.194-0.102-0.633-0.621c-0.492-0.582-0.568-0.671-0.556-0.786
							c0.005-0.038,0.034-0.086,0.066-0.108c0.049-0.033,0.421-0.11,0.885,0.351c0.364,0.362,0.435,0.788,0.411,0.938
							c-0.008,0.055-0.017,0.138-0.057,0.178C40.078,12.731,40.025,12.752,39.987,12.751"/>
						<path fill="#FFFFFF" d="M39.162,13.938c0.002-1.103-0.899-2.006-1.994-2.003c0-0.104,0-0.208,0-0.311
							c0.035,0.008,0.082,0.018,0.117,0.026c0.471,0.128,1.905,0.521,2.121,2.288C39.325,13.938,39.244,13.938,39.162,13.938"/>
						<path fill="#FFFFFF" d="M39.162,13.938c0.002-1.103-0.899-2.006-1.994-2.003c0-0.076,0-0.151,0-0.226
							c0.034,0.005,0.079,0.012,0.113,0.017c1.634,0.339,1.993,1.531,2.063,2.211C39.283,13.938,39.223,13.938,39.162,13.938"/>
						<path fill="#FFFFFF" d="M39.894,12.548c-0.11-0.018-0.296-0.238-0.667-0.676c-0.192-0.228-0.244-0.4-0.244-0.402
							c0-0.039,0.021-0.095,0.054-0.117c0.088-0.062,0.412,0.031,0.661,0.281c0.365,0.368,0.352,0.736,0.352,0.739
							c-0.007,0.042-0.001,0.109-0.031,0.141C39.991,12.542,39.932,12.555,39.894,12.548"/>
						<path fill="#9E9E9E" d="M40.277,8.805c-1.064-0.612-1.937-0.833-3.109-0.791c0-0.052,0-0.079,0-0.079
							c1.155,0,2.233,0.327,3.148,0.894C40.305,8.822,40.289,8.813,40.277,8.805"/>
						<path fill="#FFFFFF" d="M39.162,13.938c0.002-1.103-0.899-2.006-1.994-2.003c0-0.049,0-0.097,0-0.146
							c0.025,0.003,0.06,0.007,0.085,0.009c0.867,0.108,1.918,0.733,2.028,2.139C39.241,13.938,39.202,13.938,39.162,13.938"/>
						<path fill="#999999" d="M38.951,8.206c-0.417-0.116-0.937-0.261-1.783-0.229c0-0.027,0-0.041,0-0.041
							c0.72,0,1.409,0.127,2.048,0.359C39.137,8.269,39.031,8.231,38.951,8.206"/>
						<path fill="#FFFFFF" d="M39.731,12.268c-0.069-0.028-0.498-0.531-0.51-0.599c-0.007-0.042-0.002-0.116,0.034-0.14
							c0.063-0.042,0.179,0.03,0.244,0.07c0.096,0.059,0.152,0.126,0.231,0.22c0.188,0.223,0.156,0.457,0.155,0.458
							C39.854,12.312,39.774,12.286,39.731,12.268"/>
						<path fill="#9E9E9E" d="M43.133,13.938c-0.062-0.062,0.001-0.203,0.002-0.29c0.002-0.406-0.068-1.08-0.418-1.985
							c0.287,0.702,0.445,1.47,0.445,2.274C43.162,13.938,43.152,13.938,43.133,13.938"/>
						<path fill="#FFFFFF" d="M39.162,13.938c0.002-1.103-0.899-2.006-1.994-2.003c0-0.023,0-0.045,0-0.068
							c0.031,0.002,0.073,0.005,0.105,0.007c1.125,0.126,1.888,0.937,1.944,2.064C39.199,13.938,39.181,13.938,39.162,13.938"/>
						<path fill="#949494" d="M38.081,8.005c-0.292-0.036-0.484-0.059-0.913-0.056c0-0.009,0-0.014,0-0.014
							c0.383,0,0.757,0.036,1.119,0.104C38.226,8.029,38.144,8.014,38.081,8.005"/>
						<path fill="#999999" d="M43.153,13.938c-0.066-0.065-0.002-0.216-0.003-0.309c-0.001-0.105-0.015-0.348-0.089-0.793
							c0.066,0.357,0.101,0.726,0.101,1.102C43.162,13.938,43.159,13.938,43.153,13.938"/>
						<path fill="#8F8F8F" d="M37.168,7.936c0.071,0,0.144,0.001,0.215,0.003C37.318,7.938,37.213,7.982,37.168,7.936"/>
						<path fill="#949494" d="M43.162,13.938c-0.027-0.027-0.001-0.088-0.001-0.126C43.162,13.854,43.162,13.896,43.162,13.938
							L43.162,13.938"/>
					</g>
				</g>
				<g enable-background="new    ">
					<defs>
						<path id="SVGID_9_" enable-background="new    " d="M12.161,37.941c-2.209,0-4,0-4,0V13.938c0,0,1.791,0,4,0V37.941z"/>
					</defs>
					<clipPath id="SVGID_10_">
						<use xlink:href="#SVGID_9_"  overflow="visible"/>
					</clipPath>
					<g clip-path="url(#SVGID_10_)" enable-background="new    ">
						<polyline fill="#FFFFFF" points="12.161,13.938 12.161,37.941 12.155,37.941 12.155,13.938 12.161,13.938 						"/>
						<path fill="#FFFFFF" d="M12.155,13.938v24.003c-0.023,0-0.046,0-0.069,0V13.938C12.109,13.938,12.132,13.938,12.155,13.938"/>
						<path fill="#FAFAFA" d="M12.086,13.938v24.003c-0.023,0-0.046,0-0.068,0V13.938C12.041,13.938,12.063,13.938,12.086,13.938"/>
						<path fill="#F5F5F5" d="M12.018,13.938v24.003c-0.023,0-0.045,0-0.068,0V13.938C11.973,13.938,11.995,13.938,12.018,13.938"/>
						<path fill="#F0F0F0" d="M11.95,13.938v24.003c-0.022,0-0.045,0-0.068,0V13.938C11.904,13.938,11.927,13.938,11.95,13.938"/>
						<path fill="#EBEBEB" d="M11.882,13.938v24.003c-0.024,0-0.049,0-0.073,0V13.938C11.833,13.938,11.857,13.938,11.882,13.938"/>
						<path fill="#E5E5E5" d="M11.809,13.938v24.003c-0.029,0-0.058,0-0.087,0V13.938C11.75,13.938,11.78,13.938,11.809,13.938"/>
						<path fill="#E0E0E0" d="M11.722,13.938v24.003c-0.029,0-0.058,0-0.087,0V13.938C11.664,13.938,11.692,13.938,11.722,13.938"/>
						<path fill="#DBDBDB" d="M11.635,13.938v24.003c-0.029,0-0.058,0-0.086,0V13.938C11.577,13.938,11.606,13.938,11.635,13.938"/>
						<path fill="#D6D6D6" d="M11.549,13.938v24.003c-0.035,0-0.069,0-0.104,0V13.938C11.479,13.938,11.514,13.938,11.549,13.938"/>
						<path fill="#D1D1D1" d="M11.445,13.938v24.003c-0.039,0-0.077,0-0.115,0V13.938C11.368,13.938,11.407,13.938,11.445,13.938"/>
						<path fill="#CCCCCC" d="M11.33,13.938v24.003c-0.038,0-0.076,0-0.114,0V13.938C11.254,13.938,11.292,13.938,11.33,13.938"/>
						<path fill="#C7C7C7" d="M11.216,13.938v24.003c-0.046,0-0.092,0-0.138,0V13.938C11.124,13.938,11.169,13.938,11.216,13.938"/>
						<path fill="#C2C2C2" d="M11.078,13.938v24.003c-0.047,0-0.094,0-0.14,0V13.938C10.984,13.938,11.031,13.938,11.078,13.938"/>
						<path fill="#BDBDBD" d="M10.938,13.938v24.003c-0.051,0-0.102,0-0.151,0V13.938C10.836,13.938,10.887,13.938,10.938,13.938"/>
						<path fill="#B8B8B8" d="M10.786,13.938v24.003c-0.052,0-0.103,0-0.154,0V13.938C10.683,13.938,10.734,13.938,10.786,13.938"/>
						<path fill="#B2B2B2" d="M10.632,13.938v24.003c-0.054,0-0.107,0-0.16,0V13.938C10.525,13.938,10.579,13.938,10.632,13.938"/>
						<path fill="#ADADAD" d="M10.473,13.938v24.003c-0.054,0-0.106,0-0.159,0V13.938C10.366,13.938,10.419,13.938,10.473,13.938"/>
						<path fill="#A8A8A8" d="M10.314,13.938v24.003c-0.056,0-0.11,0-0.165,0V13.938C10.204,13.938,10.258,13.938,10.314,13.938"/>
						<path fill="#A3A3A3" d="M10.149,13.938v24.003c-0.056,0-0.111,0-0.166,0V13.938C10.038,13.938,10.093,13.938,10.149,13.938"/>
						<path fill="#9E9E9E" d="M9.984,13.938v24.003c-0.057,0-0.113,0-0.168,0V13.938C9.871,13.938,9.927,13.938,9.984,13.938"/>
						<path fill="#999999" d="M9.815,13.938v24.003c-0.061,0-0.121,0-0.18,0V13.938C9.694,13.938,9.754,13.938,9.815,13.938"/>
						<path fill="#949494" d="M9.636,13.938v24.003c-0.064,0-0.127,0-0.188,0V13.938C9.509,13.938,9.571,13.938,9.636,13.938"/>
						<path fill="#8F8F8F" d="M9.447,13.938v24.003c-0.071,0-0.139,0-0.206,0V13.938C9.308,13.938,9.376,13.938,9.447,13.938"/>
						<path fill="#8A8A8A" d="M9.242,13.938v24.003c-0.084,0-0.165,0-0.241,0V13.938C9.077,13.938,9.157,13.938,9.242,13.938"/>
						<path fill="#858585" d="M9,13.938v24.003c-0.526,0-0.839,0-0.839,0V13.938C8.161,13.938,8.475,13.938,9,13.938"/>
					</g>
				</g>
				<g enable-background="new    ">
					<defs>
						<path id="SVGID_11_" enable-background="new    " d="M12.161,13.938c-2.209,0-4,0-4,0c0-3.312,2.691-6.003,6.003-6.003
							c0,0,0,1.791,0,4C13.066,11.932,12.157,12.841,12.161,13.938z"/>
					</defs>
					<clipPath id="SVGID_12_">
						<use xlink:href="#SVGID_11_"  overflow="visible"/>
					</clipPath>
					<g clip-path="url(#SVGID_12_)" enable-background="new    ">
						<path fill="#FFFFFF" d="M12.161,13.938c-2.209,0-4,0-4,0c0-3.312,2.691-6.003,6.003-6.003c0,0,0,1.791,0,4
							C13.066,11.932,12.157,12.841,12.161,13.938"/>
						<path fill="#FFFFFF" d="M14.164,10.936c-0.063,0.259-0.063,0.259,0,0.33c0,0.218,0,0.441,0,0.67
							c-1.098-0.004-2.007,0.905-2.003,2.003c-2.209,0-4,0-4,0c0-3.312,2.691-6.003,6.003-6.003
							C14.164,7.936,14.164,9.21,14.164,10.936"/>
						<path fill="#FFFFFF" d="M14.164,10.764c-0.048,0.132-0.191,0.215-0.191,0.372c0,0.141,0.104,0.235,0.191,0.288
							c0,0.167,0,0.338,0,0.512c-1.098-0.004-2.007,0.905-2.003,2.003c-2.209,0-4,0-4,0c0-3.312,2.691-6.003,6.003-6.003
							C14.164,7.936,14.164,9.126,14.164,10.764"/>
						<path fill="#FFFFFF" d="M14.164,10.649c-0.085,0.187-0.34,0.256-0.34,0.5c0,0.103,0,0.259,0.34,0.386c0,0.132,0,0.265,0,0.4
							c-1.098-0.004-2.007,0.905-2.003,2.003c-2.209,0-4,0-4,0c0-3.312,2.691-6.003,6.003-6.003
							C14.164,7.936,14.164,9.071,14.164,10.649"/>
						<path fill="#FFFFFF" d="M14.164,10.548c-0.07,0.136-0.225,0.18-0.317,0.292c-0.18,0.218-0.18,0.373-0.18,0.466
							c0,0.168,0.253,0.247,0.497,0.322c0,0.102,0,0.204,0,0.308c-1.098-0.004-2.007,0.905-2.003,2.003c-2.209,0-4,0-4,0
							c0-3.312,2.691-6.003,6.003-6.003C14.164,7.936,14.164,9.022,14.164,10.548"/>
						<path fill="#FFFFFF" d="M14.164,10.454c-0.013,0.023-0.051,0.032-0.073,0.046c-0.246,0.154-0.592,0.518-0.592,0.844
							c0,0.242,0.088,0.259,0.665,0.369c0,0.074,0,0.148,0,0.223c-1.098-0.004-2.007,0.905-2.003,2.003c-2.209,0-4,0-4,0
							c0-3.312,2.691-6.003,6.003-6.003C14.164,7.936,14.164,8.978,14.164,10.454"/>
						<path fill="#FFFFFF" d="M14.164,10.363c-0.005,0.008-0.02,0.011-0.028,0.016c-0.033,0.019-0.813,0.461-0.813,1.157
							c0,0.156,0,0.156,0.84,0.257c0,0.047,0,0.095,0,0.143c-1.098-0.004-2.007,0.905-2.003,2.003c-2.209,0-4,0-4,0
							c0-3.312,2.691-6.003,6.003-6.003C14.164,7.936,14.164,8.936,14.164,10.363"/>
						<path fill="#FFFFFF" d="M14.164,10.272c-0.032,0.055-0.128,0.074-0.183,0.105c-0.476,0.274-0.859,0.902-0.859,1.239
							c0,0.241,0.062,0.256,0.186,0.286c0.289,0.069,0.57-0.047,0.857-0.035c0,0.023,0,0.045,0,0.068
							c-1.098-0.004-2.007,0.905-2.003,2.003c-2.209,0-4,0-4,0c0-3.312,2.691-6.003,6.003-6.003
							C14.164,7.936,14.164,8.893,14.164,10.272"/>
						<path fill="#FFFFFF" d="M14.164,10.178c-0.028,0.046-0.111,0.06-0.159,0.085c-0.092,0.049-0.567,0.326-0.89,0.931
							c-0.027,0.051-0.061,0.121-0.083,0.174c-0.126,0.309-0.109,0.646-0.192,0.962c-0.095,0.364-0.444,0.572-0.565,0.92
							c-0.112,0.319-0.116,0.542-0.119,0.688c-2.207,0-3.994,0-3.994,0c0-3.312,2.691-6.003,6.003-6.003
							C14.164,7.936,14.164,8.85,14.164,10.178"/>
						<path fill="#FAFAFA" d="M14.164,10.078c-0.023,0.038-0.092,0.047-0.132,0.067c-0.2,0.102-0.705,0.414-1.083,1.118
							c-0.009,0.016-0.871,1.752-0.859,2.675c-2.177,0-3.929,0-3.929,0c0-3.312,2.691-6.003,6.003-6.003
							C14.164,7.936,14.164,8.804,14.164,10.078"/>
						<path fill="#F5F5F5" d="M14.164,9.971c-0.021,0.034-0.084,0.042-0.121,0.06c-0.758,0.375-1.14,1.085-1.266,1.318
							c-0.008,0.015-0.811,1.63-0.752,2.59c-2.146,0-3.864,0-3.864,0c0-3.312,2.691-6.003,6.003-6.003
							C14.164,7.936,14.164,8.755,14.164,9.971"/>
						<path fill="#F0F0F0" d="M14.164,9.851c-0.024,0.039-0.096,0.047-0.137,0.067c-0.193,0.095-0.858,0.471-1.318,1.322
							c-0.008,0.016-0.825,1.542-0.753,2.698c-2.114,0-3.794,0-3.794,0c0-3.312,2.691-6.003,6.003-6.003
							C14.164,7.936,14.164,8.702,14.164,9.851"/>
						<path fill="#EBEBEB" d="M14.164,9.716c-0.033,0.054-0.133,0.066-0.189,0.095c-0.257,0.129-0.908,0.53-1.417,1.474
							c-0.008,0.014-0.777,1.457-0.67,2.654c-2.082,0-3.726,0-3.726,0c0-3.312,2.691-6.003,6.003-6.003
							C14.164,7.936,14.164,8.642,14.164,9.716"/>
						<path fill="#E5E5E5" d="M14.164,9.559c-0.013,0.021-0.05,0.025-0.071,0.036c-1.036,0.517-1.497,1.374-1.648,1.656
							c-0.031,0.058-0.758,1.427-0.635,2.688c-2.045,0-3.649,0-3.649,0c0-3.312,2.691-6.003,6.003-6.003
							C14.164,7.936,14.164,8.574,14.164,9.559"/>
						<path fill="#E0E0E0" d="M14.164,9.385c-0.038,0.063-0.152,0.078-0.217,0.111c-0.162,0.083-0.996,0.55-1.59,1.663
							c-0.08,0.15-0.779,1.503-0.625,2.779c-2.007,0-3.57,0-3.57,0c0-3.312,2.691-6.003,6.003-6.003
							C14.164,7.936,14.164,8.5,14.164,9.385"/>
						<path fill="#DBDBDB" d="M14.164,9.207c-0.034,0.053-0.133,0.063-0.19,0.091c-0.243,0.116-1.085,0.589-1.721,1.783
							c-0.183,0.343-0.766,1.563-0.607,2.858c-1.966,0-3.485,0-3.485,0c0-3.312,2.691-6.003,6.003-6.003
							C14.164,7.936,14.164,8.424,14.164,9.207"/>
						<path fill="#D6D6D6" d="M14.164,9.038c-0.03,0.046-0.117,0.05-0.167,0.072c-0.332,0.141-1.174,0.604-1.839,1.851
							c-0.391,0.733-0.755,1.901-0.605,2.978c-1.921,0-3.392,0-3.392,0c0-3.312,2.691-6.003,6.003-6.003
							C14.164,7.936,14.164,8.355,14.164,9.038"/>
						<path fill="#D1D1D1" d="M14.164,8.887c-0.023,0.033-0.089,0.033-0.127,0.047c-0.548,0.201-1.335,0.69-1.976,1.883
							c-0.41,0.764-0.785,1.985-0.609,3.122c-1.871,0-3.291,0-3.291,0c0-3.312,2.691-6.003,6.003-6.003
							C14.164,7.936,14.164,8.293,14.164,8.887"/>
						<path fill="#CCCCCC" d="M14.164,8.751c-0.011,0.015-0.04,0.012-0.057,0.018c-0.893,0.275-1.616,0.913-2.15,1.894
							c-0.43,0.79-0.817,2.064-0.616,3.275c-1.816,0-3.18,0-3.18,0c0-3.312,2.691-6.003,6.003-6.003
							C14.164,7.936,14.164,8.239,14.164,8.751"/>
						<path fill="#C7C7C7" d="M14.164,8.63c-0.042,0.056-0.156,0.046-0.223,0.066c-0.392,0.117-1.38,0.527-2.091,1.809
							c-0.583,1.051-0.819,2.334-0.632,3.433c-1.755,0-3.058,0-3.058,0c0-3.312,2.691-6.003,6.003-6.003
							C14.164,7.936,14.164,8.192,14.164,8.63"/>
						<path fill="#C2C2C2" d="M14.164,8.521c-0.022,0.027-0.08,0.02-0.114,0.028c-0.934,0.231-1.795,0.904-2.304,1.8
							c-0.625,1.1-0.866,2.408-0.661,3.589c-1.687,0-2.924,0-2.924,0c0-3.312,2.691-6.003,6.003-6.003
							C14.164,7.936,14.164,8.149,14.164,8.521"/>
						<path fill="#BDBDBD" d="M14.164,8.423c-0.052,0.066-0.191,0.046-0.273,0.065c-0.341,0.082-1.515,0.456-2.325,1.843
							c-0.291,0.497-0.933,1.843-0.625,3.607c-1.612,0-2.779,0-2.779,0c0-3.312,2.691-6.003,6.003-6.003
							C14.164,7.936,14.164,8.112,14.164,8.423"/>
						<path fill="#B8B8B8" d="M14.164,8.334c-0.026,0.032-0.094,0.018-0.135,0.026c-0.618,0.12-1.778,0.526-2.608,1.904
							c-0.296,0.493-0.953,1.838-0.632,3.675c-1.534,0-2.628,0-2.628,0c0-3.312,2.691-6.003,6.003-6.003
							C14.164,7.936,14.164,8.079,14.164,8.334"/>
						<path fill="#B2B2B2" d="M14.164,8.254c-0.057,0.068-0.203,0.038-0.29,0.054c-0.268,0.05-1.651,0.375-2.567,1.851
							c-0.391,0.629-0.997,1.956-0.673,3.779c-1.452,0-2.473,0-2.473,0c0-3.312,2.691-6.003,6.003-6.003
							C14.164,7.936,14.164,8.049,14.164,8.254"/>
						<path fill="#ADADAD" d="M14.164,8.182c-0.028,0.033-0.101,0.015-0.144,0.021c-1.111,0.163-2.181,0.854-2.79,1.805
							c-0.754,1.177-1.008,2.5-0.755,3.93c-1.367,0-2.314,0-2.314,0c0-3.312,2.691-6.003,6.003-6.003
							C14.164,7.936,14.164,8.022,14.164,8.182"/>
						<path fill="#A8A8A8" d="M14.164,8.118c-0.059,0.068-0.208,0.029-0.297,0.042c-0.292,0.041-1.799,0.325-2.812,1.856
							c-0.514,0.777-1.059,2.087-0.74,3.922c-1.28,0-2.154,0-2.154,0c0-3.312,2.691-6.003,6.003-6.003
							C14.164,7.936,14.164,8,14.164,8.118"/>
						<path fill="#A3A3A3" d="M14.164,8.062c-0.036,0.04-0.124,0.013-0.177,0.019c-0.576,0.061-2.03,0.37-3.079,1.907
							c-0.737,1.079-1.019,2.556-0.756,3.951c-1.191,0-1.991,0-1.991,0c0-3.312,2.691-6.003,6.003-6.003
							C14.164,7.936,14.164,7.979,14.164,8.062"/>
						<path fill="#9E9E9E" d="M14.164,8.015c-0.062,0.068-0.212,0.021-0.303,0.03c-0.314,0.031-1.935,0.265-3.042,1.835
							c-0.557,0.79-1.154,2.136-0.833,4.059c-1.099,0-1.825,0-1.825,0c0-3.312,2.691-6.003,6.003-6.003
							C14.164,7.936,14.164,7.963,14.164,8.015"/>
						<path fill="#999999" d="M14.164,7.977C14.104,8.042,13.957,7.993,13.868,8c-0.899,0.069-2.26,0.576-3.135,1.776
							c-0.869,1.191-1.177,2.592-0.917,4.163c-1.003,0-1.656,0-1.656,0c0-3.312,2.691-6.003,6.003-6.003
							C14.164,7.936,14.164,7.95,14.164,7.977"/>
						<path fill="#949494" d="M14.164,7.949c-0.046,0.049-0.156,0.008-0.223,0.011c-1.259,0.061-2.55,0.734-3.291,1.715
							c-0.935,1.237-1.274,2.671-1.011,4.263c-0.902,0-1.479,0-1.479,0c0-3.312,2.691-6.003,6.003-6.003
							C14.164,7.936,14.164,7.94,14.164,7.949"/>
						<path fill="#8F8F8F" d="M14.164,7.936c-0.046,0.047-0.153,0.004-0.218,0.006c-0.799,0.021-2.322,0.289-3.548,1.85
							c-0.399,0.508-1.289,1.929-0.946,4.146c-0.794,0-1.291,0-1.291,0C8.161,10.626,10.852,7.936,14.164,7.936
							C14.164,7.936,14.164,7.936,14.164,7.936"/>
						<path fill="#8A8A8A" d="M13.251,8.005c-3.124,0.561-4.394,3.475-4.003,5.933c-0.674,0-1.086,0-1.086,0
							c0-3.064,2.303-5.597,5.271-5.958C13.377,7.987,13.305,7.997,13.251,8.005"/>
						<path fill="#858585" d="M12.102,8.302c-2.203,0.854-3.446,3.119-3.095,5.637c-0.53,0-0.846,0-0.846,0
							c0-2.688,1.771-4.966,4.209-5.729C12.29,8.236,12.182,8.272,12.102,8.302"/>
					</g>
				</g>
				<g enable-background="new    ">
					<defs>
						<path id="SVGID_13_" enable-background="new    " d="M14.164,11.936c0-2.209,0-4,0-4h23.004c0,0,0,1.791,0,4H14.164z"/>
					</defs>
					<clipPath id="SVGID_14_">
						<use xlink:href="#SVGID_13_"  overflow="visible"/>
					</clipPath>
					<g clip-path="url(#SVGID_14_)" enable-background="new    ">
						<path fill="#FFFFFF" d="M37.168,11.936H14.164c0-0.024,0-0.048,0-0.073h23.004C37.168,11.887,37.168,11.911,37.168,11.936"/>
						<path fill="#FFFFFF" d="M37.168,11.863H14.164c0-0.026,0-0.053,0-0.079h23.004C37.168,11.81,37.168,11.836,37.168,11.863"/>
						<path fill="#FFFFFF" d="M37.168,11.784H14.164c0-0.027,0-0.053,0-0.079h23.004C37.168,11.73,37.168,11.757,37.168,11.784"/>
						<path fill="#FFFFFF" d="M37.168,11.705H14.164c0-0.026,0-0.053,0-0.079h23.004C37.168,11.652,37.168,11.678,37.168,11.705"/>
						<path fill="#FFFFFF" d="M37.168,11.626H14.164c0-0.038,0-0.075,0-0.112h23.004C37.168,11.551,37.168,11.588,37.168,11.626"/>
						<path fill="#FFFFFF" d="M37.168,11.514H14.164c0-0.04,0-0.081,0-0.121h23.004C37.168,11.434,37.168,11.474,37.168,11.514"/>
						<path fill="#FFFFFF" d="M37.168,11.394H14.164c0-0.085,0-0.169,0-0.252h23.004C37.168,11.225,37.168,11.309,37.168,11.394"/>
						<path fill="#FFFFFF" d="M37.168,11.142H14.164c0-0.063,0-0.125,0-0.187h23.004C37.168,11.017,37.168,11.079,37.168,11.142"/>
						<path fill="#FFFFFF" d="M37.168,10.955H14.164c0-0.053,0-0.105,0-0.157h23.004C37.168,10.849,37.168,10.902,37.168,10.955"/>
						<path fill="#FFFFFF" d="M37.168,10.797H14.164c0-0.049,0-0.097,0-0.145h23.004C37.168,10.701,37.168,10.749,37.168,10.797"/>
						<path fill="#FFFFFF" d="M37.168,10.653H14.164c0-0.033,0-0.065,0-0.097h23.004C37.168,10.588,37.168,10.62,37.168,10.653"/>
						<path fill="#FFFFFF" d="M37.168,10.556H14.164c0-0.032,0-0.064,0-0.096h23.004C37.168,10.492,37.168,10.523,37.168,10.556"/>
						<path fill="#FFFFFF" d="M37.168,10.46H14.164c0-0.032,0-0.063,0-0.095h23.004C37.168,10.396,37.168,10.428,37.168,10.46"/>
						<path fill="#FFFFFF" d="M37.168,10.365H14.164c0-0.032,0-0.064,0-0.095h23.004C37.168,10.301,37.168,10.333,37.168,10.365"/>
						<path fill="#FFFFFF" d="M37.168,10.27H14.164c0-0.032,0-0.063,0-0.094h23.004C37.168,10.207,37.168,10.238,37.168,10.27"/>
						<path fill="#FFFFFF" d="M37.168,10.176H14.164c0-0.032,0-0.064,0-0.096h23.004C37.168,10.111,37.168,10.144,37.168,10.176"/>
						<path fill="#FAFAFA" d="M37.168,10.08H14.164c0-0.039,0-0.077,0-0.115h23.004C37.168,10.002,37.168,10.041,37.168,10.08"/>
						<path fill="#F5F5F5" d="M37.168,9.964H14.164c0-0.038,0-0.076,0-0.113h23.004C37.168,9.889,37.168,9.926,37.168,9.964"/>
						<path fill="#F0F0F0" d="M37.168,9.851H14.164c0-0.048,0-0.096,0-0.143h23.004C37.168,9.755,37.168,9.803,37.168,9.851"/>
						<path fill="#EBEBEB" d="M37.168,9.708H14.164c0-0.05,0-0.1,0-0.149h23.004C37.168,9.608,37.168,9.658,37.168,9.708"/>
						<path fill="#E5E5E5" d="M37.168,9.56H14.164c0-0.06,0-0.119,0-0.176h23.004C37.168,9.441,37.168,9.5,37.168,9.56"/>
						<path fill="#E0E0E0" d="M37.168,9.384H14.164c0-0.061,0-0.119,0-0.176h23.004C37.168,9.265,37.168,9.323,37.168,9.384"/>
						<path fill="#DBDBDB" d="M37.168,9.208H14.164c0-0.057,0-0.113,0-0.167h23.004C37.168,9.094,37.168,9.15,37.168,9.208"/>
						<path fill="#D6D6D6" d="M37.168,9.041H14.164c0-0.053,0-0.104,0-0.153h23.004C37.168,8.937,37.168,8.988,37.168,9.041"/>
						<path fill="#D1D1D1" d="M37.168,8.887H14.164c0-0.046,0-0.091,0-0.134h23.004C37.168,8.796,37.168,8.841,37.168,8.887"/>
						<path fill="#CCCCCC" d="M37.168,8.753H14.164c0-0.042,0-0.083,0-0.122h23.004C37.168,8.67,37.168,8.711,37.168,8.753"/>
						<path fill="#C7C7C7" d="M37.168,8.631H14.164c0-0.038,0-0.075,0-0.11h23.004C37.168,8.557,37.168,8.593,37.168,8.631"/>
						<path fill="#C2C2C2" d="M37.168,8.521H14.164c0-0.034,0-0.067,0-0.098h23.004C37.168,8.455,37.168,8.487,37.168,8.521"/>
						<path fill="#BDBDBD" d="M37.168,8.423H14.164c0-0.031,0-0.061,0-0.089h23.004C37.168,8.362,37.168,8.392,37.168,8.423"/>
						<path fill="#B8B8B8" d="M37.168,8.334H14.164c0-0.028,0-0.055,0-0.08h23.004C37.168,8.279,37.168,8.306,37.168,8.334"/>
						<path fill="#B2B2B2" d="M37.168,8.254H14.164c0-0.025,0-0.049,0-0.072h23.004C37.168,8.205,37.168,8.229,37.168,8.254"/>
						<path fill="#ADADAD" d="M37.168,8.182H14.164c0-0.022,0-0.044,0-0.064h23.004C37.168,8.138,37.168,8.159,37.168,8.182"/>
						<path fill="#A8A8A8" d="M37.168,8.118H14.164c0-0.02,0-0.039,0-0.056h23.004C37.168,8.079,37.168,8.098,37.168,8.118"/>
						<path fill="#A3A3A3" d="M37.168,8.062H14.164c0-0.018,0-0.034,0-0.048h23.004C37.168,8.028,37.168,8.044,37.168,8.062"/>
						<path fill="#9E9E9E" d="M37.168,8.014H14.164c0-0.015,0-0.027,0-0.038h23.004C37.168,7.987,37.168,8,37.168,8.014"/>
						<path fill="#999999" d="M37.168,7.977H14.164c0-0.012,0-0.021,0-0.027h23.004C37.168,7.956,37.168,7.965,37.168,7.977"/>
						<path fill="#949494" d="M37.168,7.949H14.164c0-0.007,0-0.012,0-0.013h23.004C37.168,7.938,37.168,7.942,37.168,7.949"/>
						<polyline fill="#8F8F8F" points="37.168,7.936 14.164,7.936 14.164,7.936 37.168,7.936 37.168,7.936 						"/>
					</g>
				</g>
				<g enable-background="new    ">
					<defs>
						<path id="SVGID_15_" enable-background="new    " d="M14.164,39.936c0,2.21,0,4,0,4c-3.312,0-6.003-2.682-6.003-5.994
							c0,0,1.791,0,4,0C12.158,39.036,13.062,39.938,14.164,39.936z"/>
					</defs>
					<clipPath id="SVGID_16_">
						<use xlink:href="#SVGID_15_"  overflow="visible"/>
					</clipPath>
					<g clip-path="url(#SVGID_16_)" enable-background="new    ">
						<path fill="#FFFFFF" d="M14.164,39.936c0,2.21,0,4,0,4c-3.312,0-6.003-2.682-6.003-5.994c0,0,1.791,0,4,0
							C12.158,39.036,13.062,39.938,14.164,39.936"/>
						<path fill="#FFFFFF" d="M12.155,37.941c0.022,0.021,0.002,0.071,0.002,0.103c0.019,0.767,0.653,1.863,2.006,1.898
							c0,2.206,0,3.993,0,3.993c-3.312,0-6.003-2.682-6.003-5.994C8.161,37.941,9.948,37.941,12.155,37.941"/>
						<path fill="#FAFAFA" d="M12.09,37.941c0.023,0.021,0.003,0.074,0.004,0.105c0.029,0.773,0.69,1.896,2.07,1.971
							c0,2.172,0,3.918,0,3.918c-3.312,0-6.003-2.682-6.003-5.994C8.161,37.941,9.913,37.941,12.09,37.941"/>
						<path fill="#F5F5F5" d="M12.025,37.941c0.024,0.022,0.004,0.076,0.005,0.109c0.036,0.726,0.647,1.922,2.134,2.043
							c0,2.137,0,3.842,0,3.842c-3.312,0-6.003-2.682-6.003-5.994C8.161,37.941,9.878,37.941,12.025,37.941"/>
						<path fill="#F0F0F0" d="M11.956,37.941c0.024,0.023,0.005,0.079,0.007,0.112c0.045,0.737,0.684,1.964,2.202,2.117
							c0,2.101,0,3.765,0,3.765c-3.312,0-6.003-2.682-6.003-5.994C8.161,37.941,9.841,37.941,11.956,37.941"/>
						<path fill="#EBEBEB" d="M11.886,37.941c0.025,0.023,0.006,0.081,0.008,0.116c0.056,0.776,0.707,2.002,2.27,2.192
							c0,2.063,0,3.686,0,3.686c-3.312,0-6.003-2.682-6.003-5.994C8.161,37.941,9.805,37.941,11.886,37.941"/>
						<path fill="#E5E5E5" d="M11.809,37.941c0.027,0.024,0.007,0.084,0.011,0.12c0.069,0.798,0.751,2.061,2.344,2.271
							c0,2.023,0,3.604,0,3.604c-3.312,0-6.003-2.682-6.003-5.994C8.161,37.941,9.765,37.941,11.809,37.941"/>
						<path fill="#E0E0E0" d="M11.73,37.941c0.027,0.025,0.009,0.087,0.013,0.124c0.074,0.702,0.676,2.099,2.421,2.355
							c0,1.98,0,3.515,0,3.515c-3.312,0-6.003-2.682-6.003-5.994C8.161,37.941,9.724,37.941,11.73,37.941"/>
						<path fill="#DBDBDB" d="M11.645,37.941c0.029,0.025,0.01,0.09,0.014,0.128c0.079,0.716,0.704,2.147,2.505,2.443
							c0,1.937,0,3.423,0,3.423c-3.312,0-6.003-2.682-6.003-5.994C8.161,37.941,9.679,37.941,11.645,37.941"/>
						<path fill="#D6D6D6" d="M11.551,37.941c0.03,0.026,0.012,0.093,0.017,0.133c0.134,1.076,1.069,2.293,2.596,2.538
							c0,1.888,0,3.323,0,3.323c-3.312,0-6.003-2.682-6.003-5.994C8.161,37.941,9.631,37.941,11.551,37.941"/>
						<path fill="#D1D1D1" d="M11.451,37.941c0.031,0.027,0.013,0.097,0.019,0.138c0.115,0.82,0.813,2.301,2.694,2.644
							c0,1.833,0,3.213,0,3.213c-3.312,0-6.003-2.682-6.003-5.994C8.161,37.941,9.58,37.941,11.451,37.941"/>
						<path fill="#CCCCCC" d="M11.34,37.941c0.026,0.022,0.012,0.08,0.017,0.114c0.172,1.146,1.107,2.451,2.807,2.788
							c0,1.771,0,3.092,0,3.092c-3.312,0-6.003-2.682-6.003-5.994C8.161,37.941,9.524,37.941,11.34,37.941"/>
						<path fill="#C7C7C7" d="M11.217,37.941c0.013,0.011,0.006,0.039,0.008,0.056c0.18,1.175,1.046,2.573,2.938,2.979
							c0,1.705,0,2.96,0,2.96c-3.312,0-6.003-2.682-6.003-5.994C8.161,37.941,9.463,37.941,11.217,37.941"/>
						<path fill="#C2C2C2" d="M11.083,37.941c0.021,0.018,0.011,0.064,0.016,0.092c0.205,1.202,1.117,2.645,3.065,3.085
							c0,1.632,0,2.817,0,2.817c-3.312,0-6.003-2.682-6.003-5.994C8.161,37.941,9.397,37.941,11.083,37.941"/>
						<path fill="#BDBDBD" d="M10.939,37.941c0.039,0.032,0.022,0.114,0.031,0.164c0.232,1.223,1.193,2.696,3.194,3.165
							c0,1.553,0,2.665,0,2.665c-3.312,0-6.003-2.682-6.003-5.994C8.161,37.941,9.327,37.941,10.939,37.941"/>
						<path fill="#B8B8B8" d="M10.788,37.941c0.041,0.033,0.023,0.12,0.033,0.172c0.085,0.436,0.648,2.644,3.343,3.317
							c0,1.469,0,2.505,0,2.505c-3.312,0-6.003-2.682-6.003-5.994C8.161,37.941,9.255,37.941,10.788,37.941"/>
						<path fill="#B2B2B2" d="M10.632,37.941c0.042,0.035,0.025,0.126,0.036,0.18c0.091,0.456,0.685,2.77,3.496,3.472
							c0,1.382,0,2.343,0,2.343c-3.312,0-6.003-2.682-6.003-5.994C8.161,37.941,9.182,37.941,10.632,37.941"/>
						<path fill="#ADADAD" d="M10.474,37.941c0.015,0.013,0.008,0.044,0.012,0.063c0.268,1.448,1.375,3.193,3.678,3.753
							c0,1.294,0,2.179,0,2.179c-3.312,0-6.003-2.682-6.003-5.994C8.161,37.941,9.108,37.941,10.474,37.941"/>
						<path fill="#A8A8A8" d="M10.313,37.941c0.046,0.038,0.027,0.137,0.04,0.195c0.1,0.5,0.756,3.031,3.811,3.785
							c0,1.203,0,2.014,0,2.014c-3.312,0-6.003-2.682-6.003-5.994C8.161,37.941,9.034,37.941,10.313,37.941"/>
						<path fill="#A3A3A3" d="M10.151,37.941c0.048,0.04,0.028,0.143,0.04,0.204c0.288,1.463,1.5,3.373,3.973,3.942
							c0,1.111,0,1.848,0,1.848c-3.312,0-6.003-2.682-6.003-5.994C8.161,37.941,8.961,37.941,10.151,37.941"/>
						<path fill="#9E9E9E" d="M9.985,37.941c0.05,0.041,0.029,0.148,0.042,0.213c0.296,1.513,1.558,3.495,4.137,4.101
							c0,1.018,0,1.681,0,1.681c-3.312,0-6.003-2.682-6.003-5.994C8.161,37.941,8.887,37.941,9.985,37.941"/>
						<path fill="#999999" d="M9.816,37.941c0.052,0.043,0.029,0.155,0.042,0.222c0.065,0.35,0.743,3.443,4.307,4.264
							c0,0.92,0,1.509,0,1.509c-3.312,0-6.003-2.682-6.003-5.994C8.161,37.941,8.813,37.941,9.816,37.941"/>
						<path fill="#949494" d="M9.639,37.941c0.054,0.045,0.029,0.161,0.042,0.23c0.319,1.751,1.858,3.884,4.483,4.432
							c0,0.817,0,1.332,0,1.332c-3.312,0-6.003-2.682-6.003-5.994C8.161,37.941,8.737,37.941,9.639,37.941"/>
						<path fill="#8F8F8F" d="M9.451,37.941c0.056,0.047,0.03,0.168,0.042,0.24c0.322,1.84,1.921,4.066,4.671,4.607
							c0,0.709,0,1.146,0,1.146c-3.312,0-6.003-2.682-6.003-5.994C8.161,37.941,8.658,37.941,9.451,37.941"/>
						<path fill="#8A8A8A" d="M9.247,37.941c0.058,0.05,0.028,0.176,0.041,0.251c0.222,1.375,1.527,4.148,4.876,4.797
							c0,0.591,0,0.946,0,0.946c-3.312,0-6.003-2.682-6.003-5.994C8.161,37.941,8.574,37.941,9.247,37.941"/>
						<path fill="#858585" d="M9.007,37.941c0.061,0.052,0.027,0.185,0.039,0.264c0.249,1.698,1.817,4.436,5.118,5.016
							c0,0.451,0,0.715,0,0.715c-3.312,0-6.003-2.682-6.003-5.994C8.161,37.941,8.477,37.941,9.007,37.941"/>
					</g>
				</g>
				<g enable-background="new    ">
					<defs>
						<path id="SVGID_17_" enable-background="new    " d="M39.162,13.938c2.21,0,4,0,4,0v24.003c0,0-1.79,0-4,0V13.938z"/>
					</defs>
					<clipPath id="SVGID_18_">
						<use xlink:href="#SVGID_17_"  overflow="visible"/>
					</clipPath>
					<g clip-path="url(#SVGID_18_)" enable-background="new    ">
						<path fill="#FFFFFF" d="M39.162,37.941V13.938c0.02,0,0.038,0,0.058,0v24.003C39.2,37.941,39.182,37.941,39.162,37.941"/>
						<path fill="#FFFFFF" d="M39.22,37.941V13.938c0.021,0,0.042,0,0.063,0v24.003C39.262,37.941,39.241,37.941,39.22,37.941"/>
						<path fill="#FFFFFF" d="M39.283,37.941V13.938c0.021,0,0.042,0,0.063,0v24.003C39.325,37.941,39.304,37.941,39.283,37.941"/>
						<path fill="#FFFFFF" d="M39.346,37.941V13.938c0.021,0,0.042,0,0.063,0v24.003C39.388,37.941,39.367,37.941,39.346,37.941"/>
						<path fill="#FFFFFF" d="M39.409,37.941V13.938c0.021,0,0.041,0,0.063,0v24.003C39.45,37.941,39.43,37.941,39.409,37.941"/>
						<path fill="#FFFFFF" d="M39.472,37.941V13.938c0.024,0,0.049,0,0.073,0v24.003C39.521,37.941,39.496,37.941,39.472,37.941"/>
						<path fill="#FFFFFF" d="M39.545,37.941V13.938c0.026,0,0.053,0,0.079,0v24.003C39.598,37.941,39.571,37.941,39.545,37.941"/>
						<path fill="#FFFFFF" d="M39.624,37.941V13.938c0.026,0,0.052,0,0.078,0v24.003C39.676,37.941,39.65,37.941,39.624,37.941"/>
						<path fill="#FFFFFF" d="M39.702,37.941V13.938c0.025,0,0.052,0,0.077,0v24.003C39.754,37.941,39.728,37.941,39.702,37.941"/>
						<path fill="#FFFFFF" d="M39.779,37.941V13.938c0.054,0,0.106,0,0.158,0v24.003C39.886,37.941,39.833,37.941,39.779,37.941"/>
						<path fill="#FFFFFF" d="M39.938,37.941V13.938c0.125,0,0.248,0,0.368,0v24.003C40.186,37.941,40.063,37.941,39.938,37.941"/>
						<path fill="#FFFFFF" d="M40.306,37.941V13.938c0.053,0,0.105,0,0.157,0v24.003C40.411,37.941,40.358,37.941,40.306,37.941"/>
						<path fill="#FFFFFF" d="M40.463,37.941V13.938c0.03,0,0.06,0,0.089,0v24.003C40.522,37.941,40.493,37.941,40.463,37.941"/>
						<path fill="#FFFFFF" d="M40.552,37.941V13.938c0.03,0,0.06,0,0.089,0v24.003C40.611,37.941,40.582,37.941,40.552,37.941"/>
						<path fill="#FFFFFF" d="M40.641,37.941V13.938c0.028,0,0.058,0,0.086,0v24.003C40.698,37.941,40.669,37.941,40.641,37.941"/>
						<path fill="#FFFFFF" d="M40.727,37.941V13.938c0.026,0,0.052,0,0.077,0v24.003C40.778,37.941,40.753,37.941,40.727,37.941"/>
						<path fill="#FFFFFF" d="M40.804,37.941V13.938c0.025,0,0.051,0,0.076,0v24.003C40.854,37.941,40.829,37.941,40.804,37.941"/>
						<path fill="#FFFFFF" d="M40.88,37.941V13.938c0.025,0,0.051,0,0.076,0v24.003C40.931,37.941,40.905,37.941,40.88,37.941"/>
						<path fill="#FFFFFF" d="M40.956,37.941V13.938c0.027,0,0.054,0,0.081,0v24.003C41.01,37.941,40.983,37.941,40.956,37.941"/>
						<path fill="#FFFFFF" d="M41.037,37.941V13.938c0.029,0,0.06,0,0.089,0v24.003C41.097,37.941,41.066,37.941,41.037,37.941"/>
						<path fill="#FFFFFF" d="M41.126,37.941V13.938c0.029,0,0.059,0,0.088,0v24.003C41.185,37.941,41.155,37.941,41.126,37.941"/>
						<path fill="#FFFFFF" d="M41.214,37.941V13.938c0.033,0,0.065,0,0.099,0v24.003C41.279,37.941,41.247,37.941,41.214,37.941"/>
						<path fill="#FAFAFA" d="M41.313,37.941V13.938c0.04,0,0.079,0,0.119,0v24.003C41.392,37.941,41.353,37.941,41.313,37.941"/>
						<path fill="#F5F5F5" d="M41.432,37.941V13.938c0.042,0,0.083,0,0.124,0v24.003C41.515,37.941,41.474,37.941,41.432,37.941"/>
						<path fill="#F0F0F0" d="M41.556,37.941V13.938c0.053,0,0.105,0,0.156,0v24.003C41.661,37.941,41.608,37.941,41.556,37.941"/>
						<path fill="#EBEBEB" d="M41.712,37.941V13.938c0.057,0,0.112,0,0.166,0v24.003C41.824,37.941,41.769,37.941,41.712,37.941"/>
						<path fill="#E5E5E5" d="M41.878,37.941V13.938c0.057,0,0.112,0,0.167,0v24.003C41.99,37.941,41.935,37.941,41.878,37.941"/>
						<path fill="#E0E0E0" d="M42.045,37.941V13.938c0.054,0,0.106,0,0.156,0v24.003C42.151,37.941,42.099,37.941,42.045,37.941"/>
						<path fill="#DBDBDB" d="M42.201,37.941V13.938c0.048,0,0.093,0,0.137,0v24.003C42.294,37.941,42.249,37.941,42.201,37.941"/>
						<path fill="#D6D6D6" d="M42.338,37.941V13.938c0.043,0,0.083,0,0.123,0v24.003C42.421,37.941,42.381,37.941,42.338,37.941"/>
						<path fill="#D1D1D1" d="M42.461,37.941V13.938c0.038,0,0.074,0,0.11,0v24.003C42.535,37.941,42.499,37.941,42.461,37.941"/>
						<path fill="#CCCCCC" d="M42.571,37.941V13.938c0.033,0,0.065,0,0.096,0v24.003C42.637,37.941,42.604,37.941,42.571,37.941"/>
						<path fill="#C7C7C7" d="M42.667,37.941V13.938c0.03,0,0.06,0,0.088,0v24.003C42.727,37.941,42.697,37.941,42.667,37.941"/>
						<path fill="#C2C2C2" d="M42.755,37.941V13.938c0.027,0,0.053,0,0.078,0v24.003C42.808,37.941,42.782,37.941,42.755,37.941"/>
						<path fill="#BDBDBD" d="M42.833,37.941V13.938c0.024,0,0.047,0,0.069,0v24.003C42.88,37.941,42.857,37.941,42.833,37.941"/>
						<path fill="#B8B8B8" d="M42.902,37.941V13.938c0.021,0,0.042,0,0.062,0v24.003C42.944,37.941,42.924,37.941,42.902,37.941"/>
						<path fill="#B2B2B2" d="M42.964,37.941V13.938c0.02,0,0.037,0,0.054,0v24.003C43.001,37.941,42.983,37.941,42.964,37.941"/>
						<path fill="#ADADAD" d="M43.018,37.941V13.938c0.018,0,0.033,0,0.047,0v24.003C43.051,37.941,43.035,37.941,43.018,37.941"/>
						<path fill="#A8A8A8" d="M43.064,37.941V13.938c0.015,0,0.027,0,0.038,0v24.003C43.092,37.941,43.079,37.941,43.064,37.941"/>
						<path fill="#A3A3A3" d="M43.103,37.941V13.938c0.012,0,0.022,0,0.03,0v24.003C43.125,37.941,43.114,37.941,43.103,37.941"/>
						<path fill="#9E9E9E" d="M43.133,37.941V13.938c0.009,0,0.016,0,0.021,0v24.003C43.148,37.941,43.142,37.941,43.133,37.941"/>
						<polyline fill="#999999" points="43.153,37.941 43.153,13.938 43.162,13.938 43.162,37.941 43.153,37.941 						"/>
						<polyline fill="#949494" points="43.162,37.941 43.162,13.938 43.162,13.938 43.162,37.941 43.162,37.941 						"/>
					</g>
				</g>
				<g>
					<path fill="#DDDDDD" d="M37.168,11.936c1.095-0.003,1.996,0.9,1.994,2.003c0,8.001,0,16.002,0,24.003
						c0.002,1.1-0.895,1.996-1.994,1.994c-7.668,0-15.336,0-23.004,0c-1.103,0.002-2.006-0.899-2.003-1.994
						c0-8.001,0-16.002,0-24.003c-0.004-1.098,0.905-2.007,2.003-2.003C21.832,11.936,29.5,11.936,37.168,11.936z"/>
				</g>
			</g>
		</g>
	</g>
	<g>
		<rect x="15.836" y="17.006" fill="#231F20" stroke="#231F20" stroke-miterlimit="10" width="7.096" height="17.739"/>
		<rect x="28.397" y="17.131" fill="#231F20" stroke="#231F20" stroke-miterlimit="10" width="7.097" height="17.739"/>
	</g>
</g>
</svg>
