<?xml version="1.0" encoding="utf-8"?>
<!-- Generator: Adobe Illustrator 15.0.2, SVG Export Plug-In . SVG Version: 6.00 Build 0)  -->
<!DOCTYPE svg PUBLIC "-//W3C//DTD SVG 1.1//EN" "http://www.w3.org/Graphics/SVG/1.1/DTD/svg11.dtd">
<svg version="1.1" id="Layer_1" xmlns="http://www.w3.org/2000/svg" xmlns:xlink="http://www.w3.org/1999/xlink" x="0px" y="0px"
	 width="80px" height="40px" viewBox="0 0 80 40" enable-background="new 0 0 80 40" xml:space="preserve">
<g>
	<g>
		<g enable-background="new    ">
			<g>
				<path fill="#9A9517" d="M10.493,3.139h59.013H10.493z"/>
			</g>
			<g enable-background="new    ">
				<defs>
					<path id="SVGID_1_" enable-background="new    " d="M75.122,31.237c0,3.104-2.511,5.625-5.616,5.625
						C72.611,36.862,75.122,34.342,75.122,31.237z"/>
				</defs>
				<clipPath id="SVGID_2_">
					<use xlink:href="#SVGID_1_"  overflow="visible"/>
				</clipPath>
				<g clip-path="url(#SVGID_2_)" enable-background="new    ">
					<path fill="#9F9A18" d="M75.122,31.237c0,0.252-0.017,0.501-0.049,0.744C75.105,31.738,75.122,31.489,75.122,31.237"/>
					<path fill="#9B9617" d="M75.073,31.981c-0.039,0.294-0.101,0.581-0.183,0.859C74.972,32.563,75.034,32.275,75.073,31.981"/>
					<path fill="#979216" d="M74.89,32.841c-0.098,0.329-0.225,0.646-0.377,0.946C74.666,33.486,74.792,33.17,74.89,32.841"/>
					<path fill="#938F14" d="M74.513,33.787c-0.928,1.824-2.82,3.075-5.008,3.075C71.693,36.862,73.585,35.611,74.513,33.787"/>
				</g>
			</g>
			<g enable-background="new    ">
				<defs>
					<path id="SVGID_3_" enable-background="new    " d="M71.122,31.237c2.21,0,4,0,4,0c0,3.104-2.511,5.625-5.616,5.625
						c0,0,0-1.79,0-4C70.393,32.865,71.124,32.133,71.122,31.237z"/>
				</defs>
				<clipPath id="SVGID_4_">
					<use xlink:href="#SVGID_3_"  overflow="visible"/>
				</clipPath>
				<g clip-path="url(#SVGID_4_)" enable-background="new    ">
					<path fill="#FDF38A" d="M71.122,31.237c2.21,0,4,0,4,0c0,3.104-2.511,5.625-5.616,5.625c0,0,0-1.79,0-4
						C70.393,32.865,71.124,32.133,71.122,31.237"/>
					<path fill="#FDF38A" d="M69.505,32.862c0.888,0.003,1.618-0.729,1.616-1.625c0.249,0,0.492,0,0.728,0
						c0.023,0.019,0.055,0.043,0.078,0.061c0.074,0.021,0.247,0.067,0.389-0.061c1.626,0,2.806,0,2.806,0
						c0,3.104-2.511,5.625-5.616,5.625C69.505,36.862,69.505,35.072,69.505,32.862"/>
					<path fill="#FDF386" d="M69.505,32.862c0.888,0.003,1.618-0.729,1.616-1.625c0.208,0,0.413,0,0.612,0
						c0.019,0.026,0.043,0.062,0.062,0.087c0.232,0.18,0.357,0.162,0.637-0.087c1.565,0,2.689,0,2.689,0
						c0,3.104-2.511,5.625-5.616,5.625C69.505,36.862,69.505,35.072,69.505,32.862"/>
					<path fill="#FDF282" d="M69.505,32.862c0.888,0.003,1.618-0.729,1.616-1.625c0.177,0,0.352,0,0.522,0
						c0.006,0.014,0.014,0.031,0.02,0.045c0.115,0.181,0.354,0.556,0.861-0.045c1.518,0,2.597,0,2.597,0
						c0,3.104-2.511,5.625-5.616,5.625C69.505,36.862,69.505,35.072,69.505,32.862"/>
					<path fill="#FCF27E" d="M69.505,32.862c0.888,0.003,1.618-0.729,1.616-1.625c0.151,0,0.3,0,0.446,0
						c0.013,0.032,0.03,0.076,0.043,0.108c0.281,0.701,0.828,0.143,0.997-0.108c1.474,0,2.514,0,2.514,0
						c0,3.104-2.511,5.625-5.616,5.625C69.505,36.862,69.505,35.072,69.505,32.862"/>
					<path fill="#FCF279" d="M69.505,32.862c0.888,0.003,1.618-0.729,1.616-1.625c0.127,0,0.252,0,0.375,0
						c0.009,0.031,0.021,0.073,0.028,0.104c0.352,1.111,1.153-0.091,1.161-0.104c1.432,0,2.436,0,2.436,0
						c0,3.104-2.511,5.625-5.616,5.625C69.505,36.862,69.505,35.072,69.505,32.862"/>
					<path fill="#FCF173" d="M69.505,32.862c0.888,0.003,1.618-0.729,1.616-1.625c0.104,0,0.207,0,0.309,0
						c0.007,0.03,0.016,0.07,0.022,0.101c0.256,1.313,1.202,0.076,1.211,0.063c0.032-0.047,0.068-0.114,0.099-0.163
						c1.391,0,2.359,0,2.359,0c0,3.104-2.511,5.625-5.616,5.625C69.505,36.862,69.505,35.072,69.505,32.862"/>
					<path fill="#FCF16D" d="M69.505,32.862c0.888,0.003,1.618-0.729,1.616-1.625c0.082,0,0.163,0,0.244,0
						c0.004,0.029,0.011,0.067,0.015,0.097c0.186,1.561,1.275,0.198,1.286,0.184c0.084-0.113,0.12-0.184,0.171-0.28
						c1.351,0,2.284,0,2.284,0c0,3.104-2.511,5.625-5.616,5.625C69.505,36.862,69.505,35.072,69.505,32.862"/>
					<path fill="#FCF065" d="M69.505,32.862c0.888,0.003,1.618-0.729,1.616-1.625c0.061,0,0.121,0,0.182,0
						c0.003,0.028,0.007,0.065,0.01,0.094c0.054,0.787,0.054,0.787,0.286,0.843c0.214,0.052,0.682-0.076,1.053-0.521
						c0.123-0.146,0.163-0.226,0.262-0.416c1.31,0,2.208,0,2.208,0c0,3.104-2.511,5.625-5.616,5.625
						C69.505,36.862,69.505,35.072,69.505,32.862"/>
					<path fill="#FCF05B" d="M69.505,32.862c0.888,0.003,1.618-0.729,1.616-1.625c0.04,0,0.079,0,0.119,0
						c0.002,0.027,0.004,0.063,0.005,0.09c0.013,0.914,0.013,0.914,0.149,0.96c0.285,0.096,0.815-0.045,1.236-0.495
						c0.185-0.198,0.271-0.371,0.362-0.555c1.266,0,2.128,0,2.128,0c0,3.104-2.511,5.625-5.616,5.625
						C69.505,36.862,69.505,35.072,69.505,32.862"/>
					<path fill="#FCEF4D" d="M69.505,32.862c0.888,0.003,1.618-0.729,1.616-1.625c0.019,0,0.038,0,0.057,0
						c0.001,0.026,0.001,0.061,0.002,0.087c-0.009,0.289-0.134,0.559-0.14,0.849c-0.002,0.106-0.003,0.183,0.12,0.236
						c0.263,0.112,0.903,0.04,1.442-0.475c0.275-0.264,0.41-0.557,0.475-0.697c1.22,0,2.044,0,2.044,0
						c0,3.104-2.511,5.625-5.616,5.625C69.505,36.862,69.505,35.072,69.505,32.862"/>
					<path fill="#FCEE23" d="M69.505,32.869c0.077-0.078,0.165-0.005,0.246-0.017c0.191-0.028,0.191-0.028,0.741-0.282
						c0.023-0.011,0.054-0.03,0.078-0.031c0.363-0.006,0.727,0.082,1.09,0.01c0.238-0.048,1.052-0.283,1.507-1.312
						c1.171,0,1.954,0,1.954,0c0,3.104-2.511,5.625-5.616,5.625C69.505,36.862,69.505,35.075,69.505,32.869"/>
					<path fill="#F5E824" d="M69.505,32.944c0.112-0.108,0.23,0.004,0.346-0.011c0.237-0.03,0.47-0.093,0.706-0.126
						c1.388-0.19,2.152-0.296,2.711-1.57c1.114,0,1.854,0,1.854,0c0,3.104-2.511,5.625-5.616,5.625
						C69.505,36.862,69.505,35.116,69.505,32.944"/>
					<path fill="#F0E324" d="M69.505,33.021c0.124-0.114,0.243,0.014,0.365,0.006c0.224-0.015,0.445-0.051,0.669-0.072
						c0.865-0.083,2.172-0.208,2.842-1.717c1.051,0,1.74,0,1.74,0c0,3.104-2.511,5.625-5.616,5.625
						C69.505,36.862,69.505,35.156,69.505,33.021"/>
					<path fill="#ECE024" d="M69.505,33.097c0.021-0.02,0.066,0.008,0.096,0.011c0.484,0.057,2.948,0.229,3.913-1.87
						c0.976,0,1.607,0,1.607,0c0,3.104-2.511,5.625-5.616,5.625C69.505,36.862,69.505,35.197,69.505,33.097"/>
					<path fill="#E8DC24" d="M69.505,33.176c0.023-0.02,0.07,0.011,0.1,0.016c0.162,0.024,1.537,0.084,2.509-0.369
						c0.99-0.461,1.356-1.192,1.553-1.585c0.889,0,1.455,0,1.455,0c0,3.104-2.511,5.625-5.616,5.625
						C69.505,36.862,69.505,35.239,69.505,33.176"/>
					<path fill="#E3D824" d="M69.505,33.258c0.017-0.015,0.051,0.009,0.072,0.013c0.125,0.021,3.078,0.499,4.259-2.033
						c0.79,0,1.285,0,1.285,0c0,3.104-2.511,5.625-5.616,5.625C69.505,36.862,69.505,35.281,69.505,33.258"/>
					<path fill="#DFD424" d="M69.505,33.346c0.025-0.021,0.076,0.015,0.109,0.021c0.837,0.16,3.439,0.113,4.391-2.13
						c0.691,0,1.116,0,1.116,0c0,3.104-2.511,5.625-5.616,5.625C69.505,36.862,69.505,35.327,69.505,33.346"/>
					<path fill="#DBD023" d="M69.505,33.438c0.027-0.022,0.08,0.018,0.114,0.024c1.205,0.261,3.774-0.125,4.541-2.226
						c0.6,0,0.961,0,0.961,0c0,3.104-2.511,5.625-5.616,5.625C69.505,36.862,69.505,35.375,69.505,33.438"/>
					<path fill="#D6CC23" d="M69.505,33.538c0.029-0.023,0.083,0.02,0.119,0.027c1.252,0.294,3.998-0.097,4.675-2.328
						c0.516,0,0.822,0,0.822,0c0,3.104-2.511,5.625-5.616,5.625C69.505,36.862,69.505,35.426,69.505,33.538"/>
					<path fill="#D2C922" d="M69.505,33.648c0.095-0.075,0.167,0.039,0.252,0.053c0.098,0.017,0.197,0.028,0.296,0.038
						c0.31,0.03,0.568,0.027,0.695,0.022c0.892-0.035,3.034-0.351,3.673-2.524c0.441,0,0.7,0,0.7,0c0,3.104-2.511,5.625-5.616,5.625
						C69.505,36.862,69.505,35.481,69.505,33.648"/>
					<path fill="#CEC522" d="M69.505,33.769c0.027-0.021,0.079,0.019,0.113,0.027c1.274,0.305,4.28,0.083,4.912-2.559
						c0.375,0,0.591,0,0.591,0c0,3.104-2.511,5.625-5.616,5.625C69.505,36.862,69.505,35.541,69.505,33.769"/>
					<path fill="#CAC121" d="M69.505,33.9c0.023-0.018,0.066,0.017,0.096,0.023c1.077,0.271,4.314,0.357,5.026-2.687
						c0.315,0,0.494,0,0.494,0c0,3.104-2.511,5.625-5.616,5.625C69.505,36.862,69.505,35.606,69.505,33.9"/>
					<path fill="#C5BD21" d="M69.505,34.043c0.008-0.006,0.022,0.006,0.032,0.009c1.847,0.492,4.674-0.056,5.177-2.814
						c0.261,0,0.407,0,0.407,0c0,3.104-2.511,5.625-5.616,5.625C69.505,36.862,69.505,35.676,69.505,34.043"/>
					<path fill="#C1B920" d="M69.505,34.196c0.038-0.029,0.107,0.028,0.154,0.04c1.824,0.476,4.624-0.141,5.133-2.999
						c0.212,0,0.329,0,0.329,0c0,3.104-2.511,5.625-5.616,5.625C69.505,36.862,69.505,35.75,69.505,34.196"/>
					<path fill="#BDB51F" d="M69.505,34.355c0.04-0.03,0.113,0.029,0.162,0.042c2.224,0.571,4.842-0.475,5.194-3.16
						c0.168,0,0.26,0,0.26,0c0,3.104-2.511,5.625-5.616,5.625C69.505,36.862,69.505,35.825,69.505,34.355"/>
					<path fill="#B9B11E" d="M69.505,34.518c0.018-0.014,0.051,0.014,0.072,0.02c2.336,0.625,4.975-0.438,5.346-3.3
						c0.129,0,0.198,0,0.198,0c0,3.104-2.511,5.625-5.616,5.625C69.505,36.862,69.505,35.901,69.505,34.518"/>
					<path fill="#B4AD1D" d="M69.505,34.683c0.044-0.034,0.126,0.031,0.18,0.045c1.966,0.494,4.907-0.262,5.292-3.49
						c0.095,0,0.145,0,0.145,0c0,3.104-2.511,5.625-5.616,5.625C69.505,36.862,69.505,35.977,69.505,34.683"/>
					<path fill="#B0A91D" d="M69.505,34.848c0.031-0.024,0.089,0.021,0.128,0.031c2.385,0.601,5.124-0.621,5.391-3.642
						c0.063,0,0.098,0,0.098,0c0,3.104-2.511,5.625-5.616,5.625C69.505,36.862,69.505,36.051,69.505,34.848"/>
					<path fill="#ACA51C" d="M69.505,35.014c0.048-0.038,0.138,0.032,0.196,0.047c1.994,0.476,5.076-0.41,5.36-3.823
						c0.039,0,0.06,0,0.06,0c0,3.104-2.511,5.625-5.616,5.625C69.505,36.862,69.505,36.125,69.505,35.014"/>
					<path fill="#A8A21A" d="M69.505,35.182c0.022-0.018,0.063,0.015,0.091,0.021c2.505,0.605,5.318-0.738,5.496-3.966
						c0.02,0,0.029,0,0.029,0c0,3.104-2.511,5.625-5.616,5.625C69.505,36.862,69.505,36.199,69.505,35.182"/>
					<path fill="#A39E19" d="M69.505,35.353c0.051-0.041,0.149,0.033,0.214,0.047c2.502,0.545,5.333-1.03,5.394-4.162
						c0.009,3.104-2.502,5.625-5.607,5.625C69.505,36.862,69.505,36.272,69.505,35.353"/>
					<path fill="#9F9A18" d="M69.505,35.529c0.053-0.043,0.156,0.032,0.224,0.047c2.107,0.438,5.278-0.637,5.393-4.339
						c0,3.104-2.511,5.625-5.616,5.625C69.505,36.862,69.505,36.348,69.505,35.529"/>
					<path fill="#9B9617" d="M69.505,35.715c0.055-0.045,0.163,0.032,0.232,0.045c2.291,0.445,4.913-0.846,5.335-3.778
						c-0.363,2.753-2.714,4.881-5.567,4.881C69.505,36.862,69.505,36.425,69.505,35.715"/>
					<path fill="#979216" d="M69.505,35.916c0.039-0.032,0.115,0.021,0.165,0.03c2.012,0.369,4.451-0.58,5.221-3.108
						c-0.688,2.326-2.837,4.024-5.386,4.024C69.505,36.862,69.505,36.506,69.505,35.916"/>
					<path fill="#938F14" d="M69.505,36.147c0.041-0.035,0.124,0.021,0.178,0.028c1.516,0.245,3.69-0.234,4.83-2.389
						c-0.928,1.824-2.82,3.075-5.008,3.075C69.505,36.862,69.505,36.598,69.505,36.147"/>
				</g>
			</g>
			<g enable-background="new    ">
				<defs>
					<path id="SVGID_5_" enable-background="new    " d="M69.505,32.862c0,2.21,0,4,0,4H10.493c0,0,0-1.79,0-4H69.505z"/>
				</defs>
				<clipPath id="SVGID_6_">
					<use xlink:href="#SVGID_5_"  overflow="visible"/>
				</clipPath>
				<g clip-path="url(#SVGID_6_)" enable-background="new    ">
					<polyline fill="#FCEF4D" points="10.493,32.862 69.505,32.862 69.505,32.869 10.493,32.869 10.493,32.862 					"/>
					<path fill="#FCEE23" d="M10.493,32.869h59.013c0,0.026,0,0.052,0,0.077H10.493C10.493,32.921,10.493,32.896,10.493,32.869"/>
					<path fill="#F5E824" d="M10.493,32.946h59.013c0,0.026,0,0.052,0,0.077H10.493C10.493,32.998,10.493,32.973,10.493,32.946"/>
					<path fill="#F0E324" d="M10.493,33.023h59.013c0,0.025,0,0.052,0,0.077H10.493C10.493,33.075,10.493,33.049,10.493,33.023"/>
					<path fill="#ECE024" d="M10.493,33.101h59.013c0,0.025,0,0.051,0,0.076H10.493C10.493,33.151,10.493,33.126,10.493,33.101"/>
					<path fill="#E8DC24" d="M10.493,33.177h59.013c0,0.029,0,0.059,0,0.088H10.493C10.493,33.235,10.493,33.206,10.493,33.177"/>
					<path fill="#E3D824" d="M10.493,33.265h59.013c0,0.03,0,0.061,0,0.091H10.493C10.493,33.325,10.493,33.295,10.493,33.265"/>
					<path fill="#DFD424" d="M10.493,33.355h59.013c0,0.03,0,0.061,0,0.09H10.493C10.493,33.416,10.493,33.386,10.493,33.355"/>
					<path fill="#DBD023" d="M10.493,33.445h59.013c0,0.032,0,0.064,0,0.097H10.493C10.493,33.51,10.493,33.478,10.493,33.445"/>
					<path fill="#D6CC23" d="M10.493,33.542h59.013c0,0.039,0,0.078,0,0.117H10.493C10.493,33.62,10.493,33.581,10.493,33.542"/>
					<path fill="#D2C922" d="M10.493,33.659h59.013c0,0.038,0,0.077,0,0.115H10.493C10.493,33.736,10.493,33.697,10.493,33.659"/>
					<path fill="#CEC522" d="M10.493,33.774h59.013c0,0.044,0,0.088,0,0.132H10.493C10.493,33.862,10.493,33.818,10.493,33.774"/>
					<path fill="#CAC121" d="M10.493,33.906h59.013c0,0.048,0,0.096,0,0.143H10.493C10.493,34.002,10.493,33.954,10.493,33.906"/>
					<path fill="#C5BD21" d="M10.493,34.049h59.013c0,0.051,0,0.101,0,0.15H10.493C10.493,34.149,10.493,34.1,10.493,34.049"/>
					<path fill="#C1B920" d="M10.493,34.199h59.013c0,0.054,0,0.106,0,0.159H10.493C10.493,34.306,10.493,34.253,10.493,34.199"/>
					<path fill="#BDB51F" d="M10.493,34.358h59.013c0,0.055,0,0.108,0,0.162H10.493C10.493,34.467,10.493,34.413,10.493,34.358"/>
					<path fill="#B9B11E" d="M10.493,34.521h59.013c0,0.055,0,0.109,0,0.163H10.493C10.493,34.63,10.493,34.575,10.493,34.521"/>
					<path fill="#B4AD1D" d="M10.493,34.684h59.013c0,0.056,0,0.111,0,0.166H10.493C10.493,34.795,10.493,34.739,10.493,34.684"/>
					<path fill="#B0A91D" d="M10.493,34.85h59.013c0,0.056,0,0.111,0,0.165H10.493C10.493,34.961,10.493,34.905,10.493,34.85"/>
					<path fill="#ACA51C" d="M10.493,35.015h59.013c0,0.058,0,0.113,0,0.168H10.493C10.493,35.128,10.493,35.072,10.493,35.015"/>
					<path fill="#A8A21A" d="M10.493,35.183h59.013c0,0.06,0,0.116,0,0.173H10.493C10.493,35.299,10.493,35.242,10.493,35.183"/>
					<path fill="#A39E19" d="M10.493,35.355h59.013c0,0.061,0,0.119,0,0.177H10.493C10.493,35.475,10.493,35.416,10.493,35.355"/>
					<path fill="#9F9A18" d="M10.493,35.532h59.013c0,0.063,0,0.125,0,0.185H10.493C10.493,35.657,10.493,35.596,10.493,35.532"/>
					<path fill="#9B9617" d="M10.493,35.717h59.013c0,0.069,0,0.136,0,0.2H10.493C10.493,35.853,10.493,35.786,10.493,35.717"/>
					<path fill="#979216" d="M10.493,35.917h59.013c0,0.083,0,0.162,0,0.236H10.493C10.493,36.079,10.493,36,10.493,35.917"/>
					<path fill="#938F14" d="M10.493,36.153h59.013c0,0.447,0,0.709,0,0.709H10.493C10.493,36.862,10.493,36.601,10.493,36.153"/>
				</g>
			</g>
			<g enable-background="new    ">
				<defs>
					<path id="SVGID_7_" enable-background="new    " d="M69.505,7.139c0-2.209,0-4,0-4c3.105,0,5.616,2.52,5.616,5.625
						c0,0-1.79,0-4,0C71.124,7.868,70.393,7.137,69.505,7.139z"/>
				</defs>
				<clipPath id="SVGID_8_">
					<use xlink:href="#SVGID_7_"  overflow="visible"/>
				</clipPath>
				<g clip-path="url(#SVGID_8_)" enable-background="new    ">
					<path fill="#FDF38A" d="M69.505,7.139c0-2.209,0-4,0-4c3.105,0,5.616,2.52,5.616,5.625c0,0-1.79,0-4,0
						C71.124,7.868,70.393,7.137,69.505,7.139"/>
					<path fill="#FDF38A" d="M72.309,8.764c1.079-1.104-0.107-3.015-1.512-3.038c-0.646-0.01-1.192,0.381-0.845,0.781
						c0.348,0.398,0.857,0.611,1.186,1.032c0.293,0.376,0.402,0.86,0.716,1.225c-0.237,0-0.482,0-0.732,0
						c0.002-0.896-0.729-1.627-1.616-1.625c0-2.209,0-4,0-4c3.105,0,5.616,2.52,5.616,5.625C75.122,8.764,73.939,8.764,72.309,8.764
						"/>
					<path fill="#FDF386" d="M72.427,8.764c1.045-1.422-0.448-3.309-1.97-3.069c-0.305,0.048-1.163,0.459-0.445,0.961
						c1.069,0.748,1.069,0.748,1.725,2.108c-0.2,0-0.406,0-0.615,0c0.002-0.896-0.729-1.627-1.616-1.625c0-2.209,0-4,0-4
						c3.105,0,5.616,2.52,5.616,5.625C75.122,8.764,73.996,8.764,72.427,8.764"/>
					<path fill="#FDF282" d="M72.521,8.764c0.948-1.298-0.427-3.406-2.043-3.133C69.909,5.727,69.258,6.2,69.83,6.62
						c0.224,0.164,0.48,0.273,0.702,0.441c0.239,0.181,0.373,0.325,0.482,0.453c0.152,0.181,0.385,0.508,0.63,1.25
						c-0.171,0-0.346,0-0.522,0c0.002-0.896-0.729-1.627-1.616-1.625c0-2.209,0-4,0-4c3.105,0,5.616,2.52,5.616,5.625
						C75.122,8.764,74.041,8.764,72.521,8.764"/>
					<path fill="#FCF27E" d="M72.606,8.764c0.953-1.617-0.743-3.541-2.286-3.166c-0.507,0.123-0.723,0.375-0.814,0.563
						c0-1.737,0-3.023,0-3.023c3.105,0,5.616,2.52,5.616,5.625C75.122,8.764,74.081,8.764,72.606,8.764"/>
					<path fill="#FCF279" d="M72.685,8.764c0.918-1.806-0.915-3.69-2.526-3.188c-0.271,0.085-0.517,0.236-0.653,0.404
						c0-1.644,0-2.84,0-2.84c3.105,0,5.616,2.52,5.616,5.625C75.122,8.764,74.118,8.764,72.685,8.764"/>
					<path fill="#FCF173" d="M72.761,8.764c0.949-1.866-0.967-3.779-2.643-3.244c-0.309,0.099-0.504,0.239-0.613,0.339
						c0-1.582,0-2.72,0-2.72c3.105,0,5.616,2.52,5.616,5.625C75.122,8.764,74.153,8.764,72.761,8.764"/>
					<path fill="#FCF16D" d="M72.836,8.764c0.97-2.167-1.3-3.875-2.857-3.267c-0.148,0.058-0.278,0.114-0.474,0.259
						c0-1.528,0-2.617,0-2.617c3.105,0,5.616,2.52,5.616,5.625C75.122,8.764,74.188,8.764,72.836,8.764"/>
					<path fill="#FCF065" d="M72.912,8.764c0.919-2.11-1.307-4.045-3.069-3.288c-0.141,0.061-0.187,0.089-0.337,0.185
						c0-1.478,0-2.522,0-2.522c3.105,0,5.616,2.52,5.616,5.625C75.122,8.764,74.222,8.764,72.912,8.764"/>
					<path fill="#FCF05B" d="M72.992,8.764c0.925-2.166-1.323-4.121-3.141-3.371c-0.108,0.044-0.244,0.12-0.346,0.177
						c0-1.429,0-2.431,0-2.431c3.105,0,5.616,2.52,5.616,5.625C75.122,8.764,74.259,8.764,72.992,8.764"/>
					<path fill="#FCEF4D" d="M73.077,8.764c0.919-2.3-1.428-4.233-3.332-3.409c-0.026,0.011-0.105,0.045-0.239,0.124
						c0-1.38,0-2.339,0-2.339c3.105,0,5.616,2.52,5.616,5.625C75.122,8.764,74.297,8.764,73.077,8.764"/>
					<path fill="#FCEE23" d="M73.167,8.764c0.942-2.425-1.508-4.382-3.482-3.473c-0.055,0.025-0.126,0.064-0.179,0.093
						c0-1.33,0-2.245,0-2.245c3.105,0,5.616,2.52,5.616,5.625C75.122,8.764,74.337,8.764,73.167,8.764"/>
					<path fill="#F5E824" d="M73.266,8.764c0.985-2.509-1.502-4.49-3.577-3.572c-0.057,0.025-0.129,0.064-0.184,0.092
						c0-1.275,0-2.146,0-2.146c3.105,0,5.616,2.52,5.616,5.625C75.122,8.764,74.381,8.764,73.266,8.764"/>
					<path fill="#F0E324" d="M73.38,8.764c1.026-2.623-1.504-4.628-3.686-3.68c-0.059,0.025-0.133,0.065-0.189,0.093
						c0-1.216,0-2.038,0-2.038c3.105,0,5.616,2.52,5.616,5.625C75.122,8.764,74.432,8.764,73.38,8.764"/>
					<path fill="#ECE024" d="M73.513,8.764c1.078-2.676-1.576-4.784-3.813-3.802c-0.06,0.026-0.137,0.066-0.195,0.096
						c0-1.151,0-1.918,0-1.918c3.105,0,5.616,2.52,5.616,5.625C75.122,8.764,74.49,8.764,73.513,8.764"/>
					<path fill="#E8DC24" d="M73.666,8.764c1.1-2.735-1.688-4.959-3.957-3.942c-0.063,0.028-0.143,0.069-0.203,0.1
						c0-1.075,0-1.782,0-1.782c3.105,0,5.616,2.52,5.616,5.625C75.122,8.764,74.554,8.764,73.666,8.764"/>
					<path fill="#E3D824" d="M73.835,8.764c1.031-2.557-1.625-5.203-4.119-4.103c-0.064,0.028-0.147,0.072-0.211,0.104
						c0-0.986,0-1.625,0-1.625c3.105,0,5.616,2.52,5.616,5.625C75.122,8.764,74.626,8.764,73.835,8.764"/>
					<path fill="#DFD424" d="M74.004,8.764c-0.017-0.024,0.023-0.065,0.034-0.093c0.42-1.162,0.034-2.562-0.96-3.484
						c-0.611-0.566-1.888-1.397-3.573-0.596c0-0.887,0-1.452,0-1.452c3.105,0,5.616,2.52,5.616,5.625
						C75.122,8.764,74.697,8.764,74.004,8.764"/>
					<path fill="#DBD023" d="M74.161,8.764c-0.028-0.038,0.032-0.104,0.046-0.149c0.349-1.145-0.088-2.582-1.063-3.494
						c-1.074-1.003-2.434-1.269-3.639-0.709c0-0.783,0-1.272,0-1.272c3.105,0,5.616,2.52,5.616,5.625
						C75.122,8.764,74.759,8.764,74.161,8.764"/>
					<path fill="#D6CC23" d="M74.299,8.764c-0.047-0.059,0.042-0.17,0.06-0.243c0.229-0.924-0.037-2.4-1.158-3.458
						c-1.078-1.017-2.459-1.323-3.695-0.821c0-0.684,0-1.104,0-1.104c3.105,0,5.616,2.52,5.616,5.625
						C75.122,8.764,74.815,8.764,74.299,8.764"/>
					<path fill="#D2C922" d="M74.421,8.764c-0.014-0.017,0.012-0.049,0.017-0.07c0.301-1.265-0.165-2.709-1.187-3.681
						c-0.514-0.488-1.906-1.555-3.746-0.922c0-0.594,0-0.952,0-0.952c3.105,0,5.616,2.52,5.616,5.625
						C75.122,8.764,74.863,8.764,74.421,8.764"/>
					<path fill="#CEC522" d="M74.531,8.764c-0.043-0.051,0.028-0.153,0.04-0.219c0.186-0.996-0.137-2.488-1.274-3.577
						c-0.63-0.603-1.96-1.536-3.791-1.013c0-0.513,0-0.817,0-0.817c3.105,0,5.616,2.52,5.616,5.625
						C75.122,8.764,74.906,8.764,74.531,8.764"/>
					<path fill="#CAC121" d="M74.627,8.764c-0.013-0.015,0.008-0.043,0.011-0.062c0.239-1.324-0.261-2.77-1.303-3.772
						c-1.084-1.044-2.516-1.453-3.83-1.095c0-0.439,0-0.695,0-0.695c3.105,0,5.616,2.52,5.616,5.625
						C75.122,8.764,74.943,8.764,74.627,8.764"/>
					<path fill="#C5BD21" d="M74.714,8.764c-0.052-0.059,0.023-0.182,0.034-0.26c0.132-1.005-0.243-2.51-1.379-3.609
						c-0.635-0.614-1.981-1.583-3.864-1.17c0-0.372,0-0.586,0-0.586c3.105,0,5.616,2.52,5.616,5.625
						C75.122,8.764,74.975,8.764,74.714,8.764"/>
					<path fill="#C1B920" d="M74.792,8.764c-0.022-0.025,0.01-0.077,0.014-0.11c0.17-1.329-0.369-2.78-1.406-3.789
						c-1.105-1.074-2.524-1.525-3.895-1.239c0-0.311,0-0.488,0-0.488c3.105,0,5.616,2.52,5.616,5.625
						C75.122,8.764,75.004,8.764,74.792,8.764"/>
					<path fill="#FDF38E" d="M71.927,8.688c-0.052-0.036-0.101-0.106-0.142-0.154c0,0-0.114-0.188-0.23-0.411
						c-0.167-0.317-0.32-0.545-0.513-0.763c-0.284-0.322-0.683-0.514-0.961-0.843c-0.03-0.036-0.071-0.083-0.091-0.126
						c-0.072-0.156-0.041-0.481,0.597-0.594c1.353-0.239,2.658,1.696,1.839,2.725C72.306,8.673,72.122,8.824,71.927,8.688"/>
					<path fill="#BDB51F" d="M74.862,8.764c-0.057-0.062,0.018-0.194,0.024-0.278c0.085-0.941-0.247-2.461-1.461-3.646
						c-0.637-0.621-1.992-1.616-3.92-1.303c0-0.255,0-0.398,0-0.398c3.105,0,5.616,2.52,5.616,5.625
						C75.122,8.764,75.03,8.764,74.862,8.764"/>
					<path fill="#FDF391" d="M71.918,8.55c-0.088-0.063-0.192-0.239-0.254-0.345c-0.213-0.361-0.329-0.561-0.525-0.794
						c-0.278-0.333-0.66-0.556-0.94-0.887c-0.027-0.033-0.069-0.076-0.089-0.115c-0.129-0.255,0.136-0.491,0.453-0.544
						c1.447-0.24,2.537,1.601,1.852,2.543C72.326,8.529,72.144,8.709,71.918,8.55"/>
					<path fill="#B9B11E" d="M74.923,8.764c-0.038-0.042,0.011-0.132,0.016-0.188c0.083-1.027-0.266-2.553-1.494-3.756
						c-1.105-1.083-2.542-1.58-3.939-1.362c0-0.205,0-0.318,0-0.318c3.105,0,5.616,2.52,5.616,5.625
						C75.122,8.764,75.052,8.764,74.923,8.764"/>
					<path fill="#FDF494" d="M72.043,8.49c-0.054-0.013-0.12-0.053-0.156-0.094c-0.285-0.323-0.466-0.72-0.746-1.046
						c-0.252-0.294-0.576-0.514-0.826-0.81c-0.023-0.027-0.055-0.064-0.075-0.094c-0.017-0.025-0.159-0.249,0.114-0.418
						c0.896-0.557,2.485,0.625,2.17,1.955C72.455,8.276,72.267,8.544,72.043,8.49"/>
					<path fill="#FDF497" d="M72.06,8.37C72,8.368,71.922,8.319,71.881,8.274c-0.255-0.284-0.433-0.625-0.677-0.917
						c-0.257-0.307-0.594-0.538-0.831-0.864c-0.007-0.009-0.161-0.226,0.034-0.395c0.569-0.493,2.183,0.338,2.095,1.618
						C72.492,7.871,72.428,8.378,72.06,8.37"/>
					<path fill="#B4AD1D" d="M74.977,8.764c-0.059-0.062,0.011-0.198,0.016-0.283c0.052-0.95-0.317-2.484-1.531-3.677
						c-0.777-0.763-2.094-1.629-3.956-1.418c0-0.16,0-0.247,0-0.247c3.105,0,5.616,2.52,5.616,5.625
						C75.122,8.764,75.072,8.764,74.977,8.764"/>
					<path fill="#FDF49A" d="M72.028,8.244c-0.053-0.005-0.185-0.124-0.186-0.125c-0.246-0.274-0.436-0.592-0.673-0.873
						c-0.205-0.242-0.467-0.432-0.653-0.692c-0.153-0.214-0.084-0.344,0.001-0.416c0.525-0.439,2.008,0.371,1.925,1.549
						C72.423,7.958,72.335,8.275,72.028,8.244"/>
					<path fill="#B0A91D" d="M75.024,8.764c-0.055-0.057,0.007-0.183,0.011-0.261c0.039-0.962-0.347-2.511-1.563-3.709
						c-1.121-1.105-2.529-1.628-3.967-1.472c0-0.119,0-0.183,0-0.183c3.105,0,5.616,2.52,5.616,5.625
						C75.122,8.764,75.087,8.764,75.024,8.764"/>
					<path fill="#FDF59D" d="M72.011,8.116c-0.085-0.015-0.219-0.159-0.221-0.161c-0.211-0.234-0.385-0.499-0.588-0.739
						c-0.171-0.201-0.379-0.368-0.533-0.584c-0.087-0.122-0.218-0.306-0.041-0.448c0.503-0.403,1.894,0.452,1.749,1.526
						C72.315,8.169,72.086,8.129,72.011,8.116"/>
					<path fill="#FDF5A0" d="M72,7.985c-0.061-0.017-0.108-0.029-0.285-0.22c-0.171-0.184-0.312-0.393-0.474-0.584
						C71.113,7.03,70.96,6.9,70.844,6.738c-0.148-0.207-0.266-0.37-0.099-0.499c0.385-0.296,1.617,0.332,1.573,1.334
						C72.302,7.936,72.143,8.024,72,7.985"/>
					<path fill="#FCF27E" d="M71.122,8.764c0.002-0.896-0.729-1.627-1.616-1.625c0-0.233,0-0.462,0-0.685
						c0.001,0.003,0.003,0.006,0.004,0.009c0.181,0.175,0.185,0.178,0.467,0.321c0.294,0.149,0.634,0.337,0.946,0.686
						c0.401,0.449,0.549,0.958,0.646,1.294C71.421,8.764,71.273,8.764,71.122,8.764"/>
					<path fill="#ACA51C" d="M75.062,8.764c-0.011-0.012,0.002-0.037,0.003-0.053c0.063-1.411-0.53-2.877-1.588-3.923
						c-0.776-0.769-2.096-1.656-3.972-1.522c0-0.083,0-0.126,0-0.126c3.105,0,5.616,2.52,5.616,5.625
						C75.122,8.764,75.101,8.764,75.062,8.764"/>
					<path fill="#FDF5A2" d="M71.986,7.854c-0.121-0.044-0.194-0.07-0.909-0.94c-0.199-0.242-0.309-0.375-0.281-0.506
						c0.068-0.315,0.871-0.164,1.251,0.454c0.289,0.469,0.239,0.993-0.014,1.007C72.018,7.87,72,7.859,71.986,7.854"/>
					<path fill="#FCF279" d="M71.122,8.764c0.002-0.896-0.729-1.627-1.616-1.625c0-0.175,0-0.348,0-0.517
						c0.032,0.017,0.074,0.04,0.106,0.056c0.264,0.14,0.545,0.246,0.797,0.408c0.099,0.063,0.291,0.2,0.483,0.412
						c0.291,0.322,0.488,0.736,0.605,1.266C71.374,8.764,71.249,8.764,71.122,8.764"/>
					<path fill="#FCF173" d="M71.122,8.764c0.002-0.896-0.729-1.627-1.616-1.625c0-0.136,0-0.27,0-0.402
						c0.03,0.01,0.071,0.023,0.102,0.034c0.664,0.254,1.573,0.603,1.823,1.993C71.329,8.764,71.225,8.764,71.122,8.764"/>
					<path fill="#FDF5A5" d="M71.971,7.719C71.785,7.634,71.76,7.623,71.4,7.196c-0.402-0.478-0.48-0.597-0.465-0.706
						c0.006-0.038,0.036-0.085,0.066-0.107c0.049-0.036,0.385-0.128,0.807,0.284c0.329,0.322,0.377,0.714,0.349,0.844
						c-0.019,0.081-0.098,0.212-0.181,0.21C71.974,7.721,71.973,7.72,71.971,7.719"/>
					<path fill="#FCF16D" d="M71.122,8.764c0.002-0.896-0.729-1.627-1.616-1.625c0-0.104,0-0.208,0-0.311
						c0.029,0.008,0.068,0.018,0.098,0.025c0.507,0.16,1.563,0.492,1.763,1.91C71.285,8.764,71.204,8.764,71.122,8.764"/>
					<path fill="#FCF065" d="M71.122,8.764c0.002-0.896-0.729-1.627-1.616-1.625c0-0.076,0-0.151,0-0.226
						c0.028,0.005,0.065,0.012,0.094,0.017c1.016,0.239,1.589,0.855,1.704,1.834C71.243,8.764,71.182,8.764,71.122,8.764"/>
					<path fill="#FDF5A7" d="M71.893,7.542C71.865,7.539,71.75,7.5,71.455,7.151C71.318,6.99,71.089,6.72,71.096,6.6
						c0.002-0.038,0.024-0.092,0.056-0.115c0.054-0.039,0.314-0.057,0.604,0.229c0.33,0.328,0.299,0.662,0.298,0.665
						c-0.008,0.039-0.008,0.1-0.036,0.128C71.99,7.535,71.931,7.547,71.893,7.542"/>
					<path fill="#A8A21A" d="M72.419,3.954c-0.999-0.574-1.816-0.78-2.914-0.736c0-0.052,0-0.079,0-0.079
						c1.083,0,2.094,0.307,2.951,0.837C72.445,3.97,72.43,3.96,72.419,3.954"/>
					<path fill="#FCF05B" d="M71.122,8.764c0.002-0.896-0.729-1.627-1.616-1.625c0-0.049,0-0.097,0-0.145
						c0.021,0.002,0.049,0.006,0.07,0.009c0.737,0.106,1.563,0.625,1.665,1.761C71.201,8.764,71.162,8.764,71.122,8.764"/>
					<path fill="#A39E19" d="M71.176,3.393c-0.392-0.108-0.878-0.244-1.671-0.212c0-0.027,0-0.041,0-0.041
						c0.675,0,1.321,0.119,1.921,0.337C71.351,3.451,71.252,3.416,71.176,3.393"/>
					<path fill="#FDF6AA" d="M71.751,7.297c-0.084-0.029-0.438-0.461-0.445-0.523c-0.006-0.042,0.005-0.111,0.04-0.134
						c0.058-0.039,0.164,0.018,0.225,0.052c0.085,0.048,0.137,0.109,0.207,0.193c0.169,0.2,0.125,0.413,0.124,0.415
						C71.87,7.331,71.794,7.313,71.751,7.297"/>
					<path fill="#A8A21A" d="M75.092,8.764c-0.058-0.058,0.002-0.19,0.002-0.271c0.003-0.38-0.062-1.012-0.391-1.861
						c0.27,0.658,0.418,1.378,0.418,2.133C75.122,8.764,75.112,8.764,75.092,8.764"/>
					<path fill="#FCEF4D" d="M71.122,8.764c0.002-0.896-0.729-1.627-1.616-1.625c0-0.023,0-0.045,0-0.068
						c0.025,0.002,0.061,0.004,0.086,0.006c0.912,0.11,1.535,0.772,1.586,1.687C71.159,8.764,71.14,8.764,71.122,8.764"/>
					<path fill="#9F9A18" d="M70.362,3.205c-0.299-0.037-0.473-0.055-0.856-0.052c0-0.009,0-0.014,0-0.014
						c0.358,0,0.71,0.034,1.05,0.098C70.497,3.228,70.419,3.213,70.362,3.205"/>
					<path fill="#A39E19" d="M75.113,8.764c-0.062-0.061-0.002-0.203-0.003-0.289c-0.001-0.099-0.013-0.327-0.083-0.745
						c0.063,0.335,0.095,0.681,0.095,1.034C75.122,8.764,75.119,8.764,75.113,8.764"/>
					<path fill="#9B9617" d="M69.505,3.14c0.067,0,0.135,0,0.201,0.003C69.646,3.142,69.547,3.183,69.505,3.14"/>
					<path fill="#9F9A18" d="M75.122,8.764c-0.025-0.025-0.001-0.083-0.001-0.119C75.122,8.685,75.122,8.725,75.122,8.764
						L75.122,8.764"/>
				</g>
			</g>
			<g enable-background="new    ">
				<defs>
					<path id="SVGID_9_" enable-background="new    " d="M8.876,31.237c-2.209,0-4,0-4,0V8.764c0,0,1.791,0,4,0V31.237z"/>
				</defs>
				<clipPath id="SVGID_10_">
					<use xlink:href="#SVGID_9_"  overflow="visible"/>
				</clipPath>
				<g clip-path="url(#SVGID_10_)" enable-background="new    ">
					<polyline fill="#FCEF4D" points="8.876,8.764 8.876,31.237 8.87,31.237 8.87,8.764 8.876,8.764 					"/>
					<path fill="#FCEE23" d="M8.871,8.764l0,22.473c-0.023,0-0.045,0-0.068,0V8.764C8.825,8.764,8.847,8.764,8.871,8.764"/>
					<path fill="#F5E824" d="M8.802,8.764v22.473c-0.023,0-0.046,0-0.068,0V8.764C8.756,8.764,8.779,8.764,8.802,8.764"/>
					<path fill="#F0E324" d="M8.733,8.764v22.473c-0.023,0-0.045,0-0.068,0V8.764C8.688,8.764,8.71,8.764,8.733,8.764"/>
					<path fill="#ECE024" d="M8.665,8.764v22.473c-0.022,0-0.045,0-0.068,0V8.764C8.62,8.764,8.643,8.764,8.665,8.764"/>
					<path fill="#E8DC24" d="M8.597,8.764v22.473c-0.024,0-0.049,0-0.073,0V8.764C8.548,8.764,8.573,8.764,8.597,8.764"/>
					<path fill="#E3D824" d="M8.524,8.764v22.473c-0.029,0-0.058,0-0.087,0V8.764C8.466,8.764,8.495,8.764,8.524,8.764"/>
					<path fill="#DFD424" d="M8.437,8.764v22.473c-0.029,0-0.058,0-0.087,0V8.764C8.379,8.764,8.408,8.764,8.437,8.764"/>
					<path fill="#DBD023" d="M8.35,8.764v22.473c-0.029,0-0.058,0-0.086,0V8.764C8.292,8.764,8.321,8.764,8.35,8.764"/>
					<path fill="#D6CC23" d="M8.264,8.764v22.473c-0.035,0-0.069,0-0.104,0V8.764C8.195,8.764,8.229,8.764,8.264,8.764"/>
					<path fill="#D2C922" d="M8.161,8.764v22.473c-0.039,0-0.077,0-0.115,0V8.764C8.083,8.764,8.122,8.764,8.161,8.764"/>
					<path fill="#CEC522" d="M8.045,8.764v22.473c-0.038,0-0.076,0-0.114,0V8.764C7.969,8.764,8.007,8.764,8.045,8.764"/>
					<path fill="#CAC121" d="M7.931,8.764v22.473c-0.046,0-0.092,0-0.138,0V8.764C7.839,8.764,7.885,8.764,7.931,8.764"/>
					<path fill="#C5BD21" d="M7.793,8.764v22.473c-0.047,0-0.094,0-0.14,0V8.764C7.699,8.764,7.746,8.764,7.793,8.764"/>
					<path fill="#C1B920" d="M7.653,8.764v22.473c-0.051,0-0.102,0-0.151,0V8.764C7.551,8.764,7.602,8.764,7.653,8.764"/>
					<path fill="#BDB51F" d="M7.501,8.764v22.473c-0.052,0-0.103,0-0.154,0V8.764C7.398,8.764,7.45,8.764,7.501,8.764"/>
					<path fill="#B9B11E" d="M7.348,8.764v22.473c-0.054,0-0.107,0-0.16,0V8.764C7.241,8.764,7.294,8.764,7.348,8.764"/>
					<path fill="#B4AD1D" d="M7.188,8.764v22.473c-0.054,0-0.106,0-0.159,0V8.764C7.082,8.764,7.134,8.764,7.188,8.764"/>
					<path fill="#B0A91D" d="M7.029,8.764v22.473c-0.056,0-0.11,0-0.165,0V8.764C6.919,8.764,6.974,8.764,7.029,8.764"/>
					<path fill="#ACA51C" d="M6.865,8.764v22.473c-0.056,0-0.111,0-0.166,0V8.764C6.753,8.764,6.809,8.764,6.865,8.764"/>
					<path fill="#A8A21A" d="M6.699,8.764v22.473c-0.057,0-0.113,0-0.168,0V8.764C6.586,8.764,6.642,8.764,6.699,8.764"/>
					<path fill="#A39E19" d="M6.531,8.764v22.473c-0.061,0-0.121,0-0.18,0V8.764C6.41,8.764,6.47,8.764,6.531,8.764"/>
					<path fill="#9F9A18" d="M6.351,8.764v22.473c-0.064,0-0.127,0-0.188,0V8.764C6.224,8.764,6.287,8.764,6.351,8.764"/>
					<path fill="#9B9617" d="M6.163,8.764v22.473c-0.071,0-0.139,0-0.206,0V8.764C6.023,8.764,6.092,8.764,6.163,8.764"/>
					<path fill="#979216" d="M5.957,8.764v22.473c-0.084,0-0.165,0-0.241,0V8.764C5.792,8.764,5.873,8.764,5.957,8.764"/>
					<path fill="#938F14" d="M5.716,8.764v22.473c-0.526,0-0.839,0-0.839,0V8.764C4.876,8.764,5.19,8.764,5.716,8.764"/>
				</g>
			</g>
			<g enable-background="new    ">
				<defs>
					<path id="SVGID_11_" enable-background="new    " d="M8.876,8.764c-2.209,0-4,0-4,0c0-3.105,2.511-5.625,5.616-5.625
						c0,0,0,1.791,0,4C9.605,7.136,8.875,7.868,8.876,8.764z"/>
				</defs>
				<clipPath id="SVGID_12_">
					<use xlink:href="#SVGID_11_"  overflow="visible"/>
				</clipPath>
				<g clip-path="url(#SVGID_12_)" enable-background="new    ">
					<path fill="#FCF27E" d="M8.876,8.764c-2.209,0-4,0-4,0c0-3.105,2.511-5.625,5.616-5.625c0,0,0,1.791,0,4
						C9.605,7.136,8.875,7.868,8.876,8.764"/>
					<path fill="#FCF27E" d="M10.493,6.144c-0.057,0.251-0.057,0.251,0,0.325c0,0.218,0,0.442,0,0.67
						C9.605,7.136,8.875,7.868,8.876,8.764c-2.209,0-4,0-4,0c0-3.105,2.511-5.625,5.616-5.625
						C10.493,3.139,10.493,4.416,10.493,6.144"/>
					<path fill="#FCF279" d="M10.493,5.972c-0.177,0.527-0.177,0.527,0,0.655c0,0.167,0,0.339,0,0.512
						C9.605,7.136,8.875,7.868,8.876,8.764c-2.209,0-4,0-4,0c0-3.105,2.511-5.625,5.616-5.625
						C10.493,3.139,10.493,4.332,10.493,5.972"/>
					<path fill="#FCF173" d="M10.493,5.854c-0.075,0.18-0.294,0.273-0.294,0.497c0,0.095,0,0.255,0.294,0.389c0,0.131,0,0.265,0,0.4
						C9.605,7.136,8.875,7.868,8.876,8.764c-2.209,0-4,0-4,0c0-3.105,2.511-5.625,5.616-5.625
						C10.493,3.139,10.493,4.275,10.493,5.854"/>
					<path fill="#FCF16D" d="M10.493,5.752c-0.015,0.032-0.064,0.052-0.091,0.074c-0.079,0.064-0.335,0.302-0.335,0.677
						c0,0.166,0.227,0.252,0.426,0.329c0,0.102,0,0.204,0,0.308C9.605,7.136,8.875,7.868,8.876,8.764c-2.209,0-4,0-4,0
						c0-3.105,2.511-5.625,5.616-5.625C10.493,3.139,10.493,4.227,10.493,5.752"/>
					<path fill="#FCF065" d="M10.493,5.658c-0.011,0.021-0.045,0.032-0.065,0.045c-0.141,0.099-0.505,0.44-0.505,0.832
						c0,0.247,0.132,0.277,0.57,0.381c0,0.074,0,0.148,0,0.223C9.605,7.136,8.875,7.868,8.876,8.764c-2.209,0-4,0-4,0
						c0-3.105,2.511-5.625,5.616-5.625C10.493,3.139,10.493,4.182,10.493,5.658"/>
					<path fill="#FCF05B" d="M10.493,5.567c-0.004,0.007-0.017,0.011-0.024,0.015C9.977,5.889,9.773,6.383,9.773,6.579
						c0,0.308,0,0.308,0.72,0.417c0,0.047,0,0.095,0,0.143C9.605,7.136,8.875,7.868,8.876,8.764c-2.209,0-4,0-4,0
						c0-3.105,2.511-5.625,5.616-5.625C10.493,3.139,10.493,4.139,10.493,5.567"/>
					<path fill="#FCEF4D" d="M10.493,5.476c-0.028,0.051-0.114,0.074-0.164,0.105C9.981,5.804,9.608,6.342,9.608,6.786
						c0,0.232,0.098,0.264,0.177,0.289c0.236,0.076,0.472-0.018,0.708-0.004c0,0.022,0,0.045,0,0.068
						C9.605,7.136,8.875,7.868,8.876,8.764c-2.209,0-4,0-4,0c0-3.105,2.511-5.625,5.616-5.625
						C10.493,3.139,10.493,4.097,10.493,5.476"/>
					<path fill="#FCEE23" d="M10.493,5.381c-0.024,0.043-0.1,0.06-0.143,0.085c-0.214,0.127-0.521,0.387-0.77,0.905
						C9.557,6.42,9.533,6.487,9.516,6.539C9.485,6.63,9.413,6.846,9.414,7.153c0,0.003-0.002,0.317-0.035,0.375
						c-0.146,0.25-0.353,0.465-0.437,0.75C8.876,8.5,8.873,8.646,8.871,8.764c-2.207,0-3.994,0-3.994,0
						c0-3.105,2.511-5.625,5.616-5.625C10.493,3.139,10.493,4.053,10.493,5.381"/>
					<path fill="#F5E824" d="M10.493,5.282c-0.021,0.035-0.083,0.046-0.118,0.066c-0.33,0.186-0.689,0.568-0.854,0.909
						C9.474,6.353,8.792,8.076,8.805,8.764c-2.177,0-3.929,0-3.929,0c0-3.105,2.511-5.625,5.616-5.625
						C10.493,3.139,10.493,4.008,10.493,5.282"/>
					<path fill="#F0E324" d="M10.493,5.174c-0.019,0.032-0.076,0.042-0.109,0.06C10.067,5.407,9.636,5.783,9.373,6.32
						C9.366,6.335,8.683,7.983,8.74,8.764c-2.146,0-3.864,0-3.864,0c0-3.105,2.511-5.625,5.616-5.625
						C10.493,3.139,10.493,3.959,10.493,5.174"/>
					<path fill="#ECE024" d="M10.493,5.055c-0.021,0.036-0.087,0.047-0.124,0.067C9.897,5.377,9.511,5.806,9.22,6.397
						C9.214,6.41,8.597,7.858,8.671,8.764c-2.114,0-3.794,0-3.794,0c0-3.105,2.511-5.625,5.616-5.625
						C10.493,3.139,10.493,3.906,10.493,5.055"/>
					<path fill="#E8DC24" d="M10.493,4.919c-0.03,0.051-0.121,0.066-0.172,0.094c-0.124,0.068-0.76,0.448-1.166,1.273
						c-0.221,0.45-0.648,1.647-0.554,2.477c-2.081,0-3.725,0-3.725,0c0-3.105,2.511-5.625,5.616-5.625
						C10.493,3.139,10.493,3.846,10.493,4.919"/>
					<path fill="#E3D824" d="M10.493,4.762c-0.011,0.019-0.045,0.025-0.065,0.036C9.521,5.292,9.141,6.065,9.016,6.319
						c-0.164,0.334-0.607,1.5-0.49,2.445c-2.045,0-3.649,0-3.649,0c0-3.105,2.511-5.625,5.616-5.625
						C10.493,3.139,10.493,3.777,10.493,4.762"/>
					<path fill="#DFD424" d="M10.493,4.589c-0.035,0.059-0.139,0.077-0.199,0.11c-0.086,0.048-0.86,0.499-1.351,1.5
						C8.619,6.861,8.326,7.946,8.447,8.764c-2.007,0-3.57,0-3.57,0c0-3.105,2.511-5.625,5.616-5.625
						C10.493,3.139,10.493,3.703,10.493,4.589"/>
					<path fill="#DBD023" d="M10.493,4.41c-0.031,0.05-0.122,0.063-0.174,0.09C9.863,4.737,9.237,5.314,8.866,6.073
						C8.433,6.958,8.244,7.965,8.361,8.764c-1.966,0-3.485,0-3.485,0c0-3.105,2.511-5.625,5.616-5.625
						C10.493,3.139,10.493,3.628,10.493,4.41"/>
					<path fill="#D6CC23" d="M10.493,4.242c-0.027,0.043-0.108,0.05-0.154,0.071c-0.595,0.273-1.206,0.91-1.556,1.622
						C8.101,7.32,8.216,8.451,8.268,8.764c-1.921,0-3.392,0-3.392,0c0-3.105,2.511-5.625,5.616-5.625
						C10.493,3.139,10.493,3.559,10.493,4.242"/>
					<path fill="#D2C922" d="M10.493,4.09c-0.021,0.032-0.082,0.033-0.117,0.046C9.883,4.332,9.182,4.795,8.631,5.9
						C8.273,6.622,7.99,7.787,8.167,8.764c-1.871,0-3.291,0-3.291,0c0-3.105,2.511-5.625,5.616-5.625
						C10.493,3.139,10.493,3.497,10.493,4.09"/>
					<path fill="#CEC522" d="M10.493,3.955c-0.01,0.014-0.037,0.012-0.052,0.018C9.654,4.234,8.989,4.838,8.565,5.673
						C7.824,7.138,7.988,8.409,8.056,8.764c-1.816,0-3.18,0-3.18,0c0-3.105,2.511-5.625,5.616-5.625
						C10.493,3.139,10.493,3.443,10.493,3.955"/>
					<path fill="#CAC121" d="M10.493,3.834C10.454,3.886,10.348,3.88,10.286,3.9C9.844,4.041,9.011,4.456,8.395,5.645
						c-0.36,0.692-0.696,1.925-0.46,3.12c-1.755,0-3.058,0-3.058,0c0-3.105,2.511-5.625,5.616-5.625
						C10.493,3.139,10.493,3.396,10.493,3.834"/>
					<path fill="#C5BD21" d="M10.493,3.725c-0.02,0.026-0.074,0.02-0.106,0.028c-0.41,0.108-1.434,0.495-2.097,1.736
						C7.769,6.462,7.586,7.687,7.8,8.764c-1.687,0-2.923,0-2.923,0c0-3.105,2.511-5.625,5.616-5.625
						C10.493,3.139,10.493,3.354,10.493,3.725"/>
					<path fill="#C1B920" d="M10.493,3.626c-0.048,0.062-0.178,0.045-0.254,0.065C9.839,3.793,8.833,4.17,8.121,5.46
						C7.983,5.709,7.314,7.04,7.656,8.764c-1.612,0-2.779,0-2.779,0c0-3.105,2.511-5.625,5.616-5.625
						C10.493,3.139,10.493,3.316,10.493,3.626"/>
					<path fill="#BDB51F" d="M10.493,3.538c-0.024,0.03-0.088,0.018-0.126,0.026C9.429,3.757,8.542,4.41,8.052,5.267
						c-0.76,1.33-0.718,2.636-0.548,3.498c-1.534,0-2.628,0-2.628,0c0-3.105,2.511-5.625,5.616-5.625
						C10.493,3.139,10.493,3.282,10.493,3.538"/>
					<path fill="#B9B11E" d="M10.493,3.458c-0.053,0.064-0.189,0.038-0.271,0.054c-0.247,0.049-1.519,0.364-2.34,1.75
						C7.538,5.843,7.011,7.07,7.349,8.764c-1.451,0-2.472,0-2.472,0c0-3.105,2.511-5.625,5.616-5.625
						C10.493,3.139,10.493,3.252,10.493,3.458"/>
					<path fill="#B4AD1D" d="M10.493,3.386c-0.026,0.031-0.094,0.015-0.134,0.021c-1.027,0.16-2.012,0.823-2.569,1.73
						C7.138,6.197,6.931,7.451,7.19,8.764c-1.367,0-2.314,0-2.314,0c0-3.105,2.511-5.625,5.616-5.625
						C10.493,3.139,10.493,3.226,10.493,3.386"/>
					<path fill="#B0A91D" d="M10.493,3.322c-0.055,0.064-0.195,0.029-0.278,0.042C9.835,3.42,8.528,3.715,7.625,5.135
						C7.253,5.719,6.682,6.966,7.03,8.764c-1.28,0-2.153,0-2.153,0c0-3.105,2.511-5.625,5.616-5.625
						C10.493,3.139,10.493,3.203,10.493,3.322"/>
					<path fill="#ACA51C" d="M10.493,3.266c-0.033,0.038-0.116,0.013-0.166,0.019c-0.664,0.075-1.917,0.411-2.846,1.82
						C7.237,5.476,6.47,6.836,6.868,8.764c-1.191,0-1.991,0-1.991,0c0-3.105,2.511-5.625,5.616-5.625
						C10.493,3.139,10.493,3.183,10.493,3.266"/>
					<path fill="#A8A21A" d="M10.493,3.218c-0.058,0.064-0.199,0.021-0.284,0.03c-0.291,0.03-1.796,0.256-2.816,1.749
						C6.894,5.726,6.37,6.97,6.702,8.764c-1.099,0-1.825,0-1.825,0c0-3.105,2.511-5.625,5.616-5.625
						C10.493,3.139,10.493,3.167,10.493,3.218"/>
					<path fill="#A39E19" d="M10.493,3.18c-0.057,0.062-0.194,0.016-0.277,0.022c-0.837,0.068-2.101,0.551-2.909,1.69
						C6.769,5.65,6.199,6.937,6.532,8.764c-1.003,0-1.655,0-1.655,0c0-3.105,2.511-5.625,5.616-5.625
						C10.493,3.139,10.493,3.153,10.493,3.18"/>
					<path fill="#9F9A18" d="M10.493,3.153c-0.043,0.045-0.146,0.008-0.209,0.011C9.11,3.223,7.909,3.863,7.223,4.792
						C6.377,5.939,6.085,7.275,6.354,8.764c-0.902,0-1.478,0-1.478,0c0-3.105,2.511-5.625,5.616-5.625
						C10.493,3.139,10.493,3.144,10.493,3.153"/>
					<path fill="#9B9617" d="M10.493,3.14c-0.043,0.044-0.143,0.004-0.205,0.005C9.075,3.177,7.82,3.811,7.091,4.758
						C6.22,5.891,5.909,7.239,6.167,8.764c-0.793,0-1.291,0-1.291,0C4.876,5.659,7.388,3.139,10.493,3.14
						C10.493,3.139,10.493,3.139,10.493,3.14"/>
					<path fill="#979216" d="M9.637,3.205c-2.525,0.405-4.139,2.847-3.674,5.56c-0.674,0-1.086,0-1.086,0
						c0-2.873,2.149-5.245,4.93-5.583l0,0C9.755,3.188,9.688,3.196,9.637,3.205"/>
					<path fill="#938F14" d="M8.561,3.482C6.51,4.278,5.37,6.401,5.723,8.764c-0.53,0-0.846,0-0.846,0
						c0-2.52,1.654-4.654,3.937-5.369C8.737,3.421,8.636,3.455,8.561,3.482"/>
				</g>
			</g>
			<g enable-background="new    ">
				<defs>
					<path id="SVGID_13_" enable-background="new    " d="M10.493,7.139c0-2.209,0-4,0-4h59.013c0,0,0,1.791,0,4H10.493z"/>
				</defs>
				<clipPath id="SVGID_14_">
					<use xlink:href="#SVGID_13_"  overflow="visible"/>
				</clipPath>
				<g clip-path="url(#SVGID_14_)" enable-background="new    ">
					<path fill="#FCEF4D" d="M69.505,7.139H10.493c0-0.024,0-0.048,0-0.073h59.013C69.505,7.091,69.505,7.115,69.505,7.139"/>
					<path fill="#FCF05B" d="M69.505,7.066H10.493c0-0.026,0-0.053,0-0.079h59.013C69.505,7.014,69.505,7.04,69.505,7.066"/>
					<path fill="#FCF065" d="M69.505,6.987H10.493c0-0.026,0-0.053,0-0.079h59.013C69.505,6.935,69.505,6.961,69.505,6.987"/>
					<path fill="#FCF16D" d="M69.505,6.908H10.493c0-0.026,0-0.053,0-0.079h59.013C69.505,6.855,69.505,6.882,69.505,6.908"/>
					<path fill="#FCF173" d="M69.505,6.83H10.493c0-0.038,0-0.075,0-0.112h59.013C69.505,6.755,69.505,6.792,69.505,6.83"/>
					<path fill="#FCF279" d="M69.505,6.718H10.493c0-0.04,0-0.081,0-0.121h59.013C69.505,6.637,69.505,6.678,69.505,6.718"/>
					<path fill="#FCF27E" d="M69.505,6.597H10.493c0-0.085,0-0.169,0-0.252h59.013C69.505,6.428,69.505,6.512,69.505,6.597"/>
					<path fill="#FDF282" d="M69.505,6.345H10.493c0-0.063,0-0.125,0-0.187h59.013C69.505,6.22,69.505,6.282,69.505,6.345"/>
					<path fill="#FCF27E" d="M69.505,6.158H10.493c0-0.053,0-0.105,0-0.157h59.013C69.505,6.053,69.505,6.105,69.505,6.158"/>
					<path fill="#FCF279" d="M69.505,6.001H10.493c0-0.049,0-0.097,0-0.145h59.013C69.505,5.904,69.505,5.952,69.505,6.001"/>
					<path fill="#FCF173" d="M69.505,5.856H10.493c0-0.032,0-0.065,0-0.097h59.013C69.505,5.792,69.505,5.824,69.505,5.856"/>
					<path fill="#FCF16D" d="M69.505,5.759H10.493c0-0.032,0-0.064,0-0.096h59.013C69.505,5.695,69.505,5.728,69.505,5.759"/>
					<path fill="#FCF065" d="M69.505,5.664H10.493c0-0.032,0-0.063,0-0.095h59.013C69.505,5.6,69.505,5.632,69.505,5.664"/>
					<path fill="#FCF05B" d="M69.505,5.569H10.493c0-0.032,0-0.064,0-0.095h59.013C69.505,5.505,69.505,5.537,69.505,5.569"/>
					<path fill="#FCEF4D" d="M69.505,5.474H10.493c0-0.032,0-0.063,0-0.094h59.013C69.505,5.411,69.505,5.442,69.505,5.474"/>
					<path fill="#FCEE23" d="M69.505,5.379H10.493c0-0.032,0-0.064,0-0.096h59.013C69.505,5.315,69.505,5.347,69.505,5.379"/>
					<path fill="#F5E824" d="M69.505,5.283H10.493c0-0.039,0-0.077,0-0.115h59.013C69.505,5.206,69.505,5.245,69.505,5.283"/>
					<path fill="#F0E324" d="M69.505,5.168H10.493c0-0.038,0-0.076,0-0.113h59.013C69.505,5.092,69.505,5.13,69.505,5.168"/>
					<path fill="#ECE024" d="M69.505,5.055H10.493c0-0.048,0-0.096,0-0.143h59.013C69.505,4.959,69.505,5.006,69.505,5.055"/>
					<path fill="#E8DC24" d="M69.505,4.912H10.493c0-0.05,0-0.1,0-0.149h59.013C69.505,4.812,69.505,4.862,69.505,4.912"/>
					<path fill="#E3D824" d="M69.505,4.763H10.493c0-0.06,0-0.119,0-0.176h59.013C69.505,4.645,69.505,4.703,69.505,4.763"/>
					<path fill="#DFD424" d="M69.505,4.587H10.493c0-0.06,0-0.119,0-0.176h59.013C69.505,4.468,69.505,4.527,69.505,4.587"/>
					<path fill="#DBD023" d="M69.505,4.411H10.493c0-0.058,0-0.113,0-0.167h59.013C69.505,4.298,69.505,4.354,69.505,4.411"/>
					<path fill="#D6CC23" d="M69.505,4.244H10.493c0-0.053,0-0.104,0-0.153h59.013C69.505,4.141,69.505,4.191,69.505,4.244"/>
					<path fill="#D2C922" d="M69.505,4.091H10.493c0-0.046,0-0.091,0-0.134h59.013C69.505,4,69.505,4.045,69.505,4.091"/>
					<path fill="#CEC522" d="M69.505,3.957H10.493c0-0.042,0-0.083,0-0.122h59.013C69.505,3.874,69.505,3.915,69.505,3.957"/>
					<path fill="#CAC121" d="M69.505,3.835H10.493c0-0.038,0-0.075,0-0.11h59.013C69.505,3.76,69.505,3.797,69.505,3.835"/>
					<path fill="#C5BD21" d="M69.505,3.725H10.493c0-0.034,0-0.067,0-0.098h59.013C69.505,3.658,69.505,3.691,69.505,3.725"/>
					<path fill="#C1B920" d="M69.505,3.627H10.493c0-0.031,0-0.061,0-0.089h59.013C69.505,3.566,69.505,3.596,69.505,3.627"/>
					<path fill="#BDB51F" d="M69.505,3.538H10.493c0-0.028,0-0.055,0-0.08h59.013C69.505,3.483,69.505,3.51,69.505,3.538"/>
					<path fill="#B9B11E" d="M69.505,3.458H10.493c0-0.025,0-0.049,0-0.072h59.013C69.505,3.408,69.505,3.432,69.505,3.458"/>
					<path fill="#B4AD1D" d="M69.505,3.385H10.493c0-0.023,0-0.044,0-0.064h59.013C69.505,3.341,69.505,3.362,69.505,3.385"/>
					<path fill="#B0A91D" d="M69.505,3.321H10.493c0-0.02,0-0.039,0-0.056h59.013C69.505,3.283,69.505,3.301,69.505,3.321"/>
					<path fill="#ACA51C" d="M69.505,3.266H10.493c0-0.018,0-0.034,0-0.048h59.013C69.505,3.232,69.505,3.248,69.505,3.266"/>
					<path fill="#A8A21A" d="M69.505,3.218H10.493c0-0.015,0-0.027,0-0.038h59.013C69.505,3.19,69.505,3.203,69.505,3.218"/>
					<path fill="#A39E19" d="M69.505,3.18H10.493c0-0.011,0-0.021,0-0.027h59.013C69.505,3.16,69.505,3.169,69.505,3.18"/>
					<path fill="#9F9A18" d="M69.505,3.153H10.493c0-0.008,0-0.012,0-0.014h59.013C69.505,3.141,69.505,3.146,69.505,3.153"/>
					<polyline fill="#9B9617" points="69.505,3.14 10.493,3.14 10.493,3.139 69.505,3.139 69.505,3.14 					"/>
				</g>
			</g>
			<g enable-background="new    ">
				<defs>
					<path id="SVGID_15_" enable-background="new    " d="M10.493,32.862c0,2.21,0,4,0,4c-3.105,0-5.616-2.521-5.616-5.625
						c0,0,1.791,0,4,0C8.875,32.133,9.605,32.865,10.493,32.862z"/>
				</defs>
				<clipPath id="SVGID_16_">
					<use xlink:href="#SVGID_15_"  overflow="visible"/>
				</clipPath>
				<g clip-path="url(#SVGID_16_)" enable-background="new    ">
					<path fill="#FCEE23" d="M10.493,32.862c0,2.21,0,4,0,4c-3.105,0-5.616-2.521-5.616-5.625c0,0,1.791,0,4,0
						C8.875,32.133,9.605,32.865,10.493,32.862"/>
					<path fill="#FCEE23" d="M8.871,31.237c0.018,0.018,0.001,0.059,0.002,0.084c0.016,0.625,0.528,1.519,1.62,1.548
						c0,2.206,0,3.993,0,3.993c-3.105,0-5.616-2.521-5.616-5.625C4.876,31.237,6.664,31.237,8.871,31.237"/>
					<path fill="#F5E824" d="M8.805,31.237c0.019,0.019,0.003,0.061,0.004,0.087c0.024,0.588,0.502,1.548,1.684,1.62
						c0,2.172,0,3.918,0,3.918c-3.105,0-5.616-2.521-5.616-5.625C4.876,31.237,6.628,31.237,8.805,31.237"/>
					<path fill="#F0E324" d="M8.74,31.237c0.02,0.019,0.003,0.063,0.005,0.091c0.033,0.594,0.537,1.578,1.748,1.692
						c0,2.137,0,3.842,0,3.842c-3.105,0-5.616-2.521-5.616-5.625C4.876,31.237,6.594,31.237,8.74,31.237"/>
					<path fill="#ECE024" d="M8.671,31.237c0.021,0.02,0.004,0.065,0.006,0.094c0.044,0.63,0.563,1.62,1.815,1.767
						c0,2.101,0,3.765,0,3.765c-3.105,0-5.616-2.521-5.616-5.625C4.876,31.237,6.557,31.237,8.671,31.237"/>
					<path fill="#E8DC24" d="M8.602,31.237c0.021,0.02,0.005,0.068,0.008,0.098c0.045,0.551,0.497,1.645,1.883,1.843
						c0,2.062,0,3.685,0,3.685c-3.105,0-5.616-2.521-5.616-5.625C4.876,31.237,6.52,31.237,8.602,31.237"/>
					<path fill="#E3D824" d="M8.525,31.237c0.023,0.021,0.007,0.071,0.01,0.102c0.063,0.661,0.636,1.718,1.958,1.92
						c0,2.023,0,3.604,0,3.604c-3.105,0-5.616-2.521-5.616-5.625C4.876,31.237,6.48,31.237,8.525,31.237"/>
					<path fill="#DFD424" d="M8.446,31.237c0.024,0.021,0.008,0.073,0.012,0.105c0.066,0.585,0.577,1.757,2.034,2.005
						c0,1.98,0,3.515,0,3.515c-3.105,0-5.616-2.521-5.616-5.625C4.876,31.237,6.439,31.237,8.446,31.237"/>
					<path fill="#DBD023" d="M8.36,31.237c0.025,0.021,0.009,0.077,0.013,0.109c0.074,0.599,0.611,1.807,2.119,2.094
						c0,1.936,0,3.422,0,3.422c-3.105,0-5.616-2.521-5.616-5.625C4.876,31.237,6.395,31.237,8.36,31.237"/>
					<path fill="#D6CC23" d="M8.267,31.237c0.026,0.022,0.011,0.08,0.016,0.114c0.124,0.873,0.868,1.93,2.21,2.188
						c0,1.888,0,3.323,0,3.323c-3.105,0-5.616-2.521-5.616-5.625C4.876,31.237,6.347,31.237,8.267,31.237"/>
					<path fill="#D2C922" d="M8.166,31.237c0.028,0.023,0.013,0.083,0.019,0.119c0.109,0.695,0.718,1.962,2.308,2.293
						c0,1.833,0,3.213,0,3.213c-3.105,0-5.616-2.521-5.616-5.625C4.876,31.237,6.295,31.237,8.166,31.237"/>
					<path fill="#CEC522" d="M8.055,31.237c0.023,0.02,0.012,0.069,0.017,0.099c0.152,0.904,0.877,2.083,2.42,2.435
						c0,1.771,0,3.092,0,3.092c-3.105,0-5.616-2.521-5.616-5.625C4.876,31.237,6.24,31.237,8.055,31.237"/>
					<path fill="#CAC121" d="M7.933,31.237c0.011,0.01,0.005,0.033,0.008,0.048c0.175,1.009,0.938,2.226,2.552,2.617
						c0,1.705,0,2.96,0,2.96c-3.105,0-5.616-2.521-5.616-5.625C4.876,31.237,6.179,31.237,7.933,31.237"/>
					<path fill="#C5BD21" d="M7.799,31.237c0.019,0.016,0.011,0.057,0.015,0.08c0.198,1.039,1.005,2.301,2.679,2.728
						c0,1.632,0,2.817,0,2.817c-3.105,0-5.616-2.521-5.616-5.625C4.876,31.237,6.113,31.237,7.799,31.237"/>
					<path fill="#C1B920" d="M7.655,31.237c0.034,0.028,0.021,0.102,0.03,0.145c0.223,1.062,1.078,2.358,2.808,2.816
						c0,1.552,0,2.664,0,2.664c-3.105,0-5.616-2.521-5.616-5.625C4.876,31.237,6.043,31.237,7.655,31.237"/>
					<path fill="#BDB51F" d="M7.503,31.237c0.037,0.029,0.023,0.106,0.033,0.152c0.115,0.535,0.669,2.33,2.956,2.968
						c0,1.469,0,2.505,0,2.505c-3.105,0-5.616-2.521-5.616-5.625C4.876,31.237,5.97,31.237,7.503,31.237"/>
					<path fill="#B9B11E" d="M7.348,31.237c0.038,0.031,0.024,0.112,0.035,0.16c0.123,0.564,0.71,2.456,3.11,3.122
						c0,1.382,0,2.343,0,2.343c-3.105,0-5.616-2.521-5.616-5.625C4.876,31.237,5.897,31.237,7.348,31.237"/>
					<path fill="#B4AD1D" d="M7.189,31.237c0.013,0.011,0.008,0.039,0.012,0.056c0.126,0.622,0.739,2.704,3.292,3.391
						c0,1.294,0,2.179,0,2.179c-3.105,0-5.616-2.521-5.616-5.625C4.876,31.237,5.823,31.237,7.189,31.237"/>
					<path fill="#B0A91D" d="M7.029,31.237c0.399,1.831,1.629,3.113,3.463,3.611c0,1.203,0,2.014,0,2.014
						c-3.105,0-5.616-2.521-5.616-5.625C4.876,31.237,5.75,31.237,7.029,31.237"/>
					<path fill="#ACA51C" d="M6.867,31.237c0.044,0.036,0.028,0.13,0.04,0.185c0.278,1.309,1.384,3.033,3.586,3.593
						c0,1.111,0,1.848,0,1.848c-3.105,0-5.616-2.521-5.616-5.625C4.876,31.237,5.676,31.237,6.867,31.237"/>
					<path fill="#A8A21A" d="M6.701,31.237c0.046,0.037,0.029,0.136,0.041,0.193c0.288,1.36,1.443,3.159,3.751,3.752
						c0,1.017,0,1.68,0,1.68c-3.105,0-5.616-2.521-5.616-5.625C4.876,31.237,5.603,31.237,6.701,31.237"/>
					<path fill="#A39E19" d="M6.531,31.237c0.048,0.039,0.029,0.142,0.041,0.202c0.063,0.316,0.715,3.111,3.92,3.914
						c0,0.92,0,1.509,0,1.509c-3.105,0-5.616-2.521-5.616-5.625C4.876,31.237,5.529,31.237,6.531,31.237"/>
					<path fill="#9F9A18" d="M6.354,31.237c0.05,0.041,0.029,0.147,0.042,0.211c0.239,1.226,1.371,3.464,4.097,4.082
						c0,0.817,0,1.332,0,1.332c-3.105,0-5.616-2.521-5.616-5.625C4.876,31.237,5.453,31.237,6.354,31.237"/>
					<path fill="#9B9617" d="M6.167,31.237c0.052,0.043,0.029,0.154,0.042,0.221c0.313,1.678,1.788,3.726,4.285,4.258
						c0,0.709,0,1.146,0,1.146c-3.105,0-5.616-2.521-5.616-5.625C4.876,31.237,5.374,31.237,6.167,31.237"/>
					<path fill="#979216" d="M5.962,31.237c0.054,0.046,0.028,0.162,0.04,0.231c0.216,1.26,1.434,3.811,4.49,4.447
						c0,0.591,0,0.946,0,0.946c-3.105,0-5.616-2.521-5.616-5.625C4.876,31.237,5.289,31.237,5.962,31.237"/>
					<path fill="#938F14" d="M5.723,31.237c0.056,0.048,0.026,0.171,0.038,0.244c0.243,1.564,1.704,4.099,4.732,4.666
						c0,0.451,0,0.715,0,0.715c-3.105,0-5.616-2.521-5.616-5.625C4.876,31.237,5.192,31.237,5.723,31.237"/>
				</g>
			</g>
			<g enable-background="new    ">
				<defs>
					<path id="SVGID_17_" enable-background="new    " d="M71.122,8.764c2.21,0,4,0,4,0v22.473c0,0-1.79,0-4,0V8.764z"/>
				</defs>
				<clipPath id="SVGID_18_">
					<use xlink:href="#SVGID_17_"  overflow="visible"/>
				</clipPath>
				<g clip-path="url(#SVGID_18_)" enable-background="new    ">
					<path fill="#FCEF4D" d="M71.122,31.237V8.764c0.02,0,0.038,0,0.058,0v22.473C71.16,31.237,71.141,31.237,71.122,31.237"/>
					<path fill="#FCF05B" d="M71.179,31.237V8.764c0.021,0,0.042,0,0.063,0v22.473C71.221,31.237,71.201,31.237,71.179,31.237"/>
					<path fill="#FCF065" d="M71.243,31.237V8.764c0.021,0,0.042,0,0.063,0v22.473C71.285,31.237,71.263,31.237,71.243,31.237"/>
					<path fill="#FCF16D" d="M71.305,31.237V8.764c0.021,0,0.042,0,0.063,0v22.473C71.347,31.237,71.327,31.237,71.305,31.237"/>
					<path fill="#FCF173" d="M71.369,31.237V8.764c0.021,0,0.041,0,0.063,0v22.473C71.41,31.237,71.389,31.237,71.369,31.237"/>
					<path fill="#FCF279" d="M71.431,31.237V8.764c0.024,0,0.049,0,0.073,0v22.473C71.48,31.237,71.456,31.237,71.431,31.237"/>
					<path fill="#FCF27E" d="M71.504,31.237V8.764c0.026,0,0.053,0,0.079,0v22.473C71.557,31.237,71.531,31.237,71.504,31.237"/>
					<path fill="#FDF282" d="M71.583,31.237V8.764c0.026,0,0.052,0,0.078,0v22.473C71.635,31.237,71.61,31.237,71.583,31.237"/>
					<path fill="#FDF386" d="M71.662,31.237V8.764c0.025,0,0.052,0,0.077,0v22.473C71.713,31.237,71.687,31.237,71.662,31.237"/>
					<path fill="#FDF38A" d="M71.739,31.237V8.764c0.054,0,0.106,0,0.158,0v22.473C71.845,31.237,71.792,31.237,71.739,31.237"/>
					<path fill="#FDF38E" d="M71.897,31.237V8.764c0.125,0,0.248,0,0.368,0v22.473C72.145,31.237,72.022,31.237,71.897,31.237"/>
					<path fill="#FDF38A" d="M72.265,31.237V8.764c0.053,0,0.105,0,0.157,0v22.473C72.371,31.237,72.318,31.237,72.265,31.237"/>
					<path fill="#FDF386" d="M72.422,31.237V8.764c0.03,0,0.06,0,0.089,0v22.473C72.482,31.237,72.453,31.237,72.422,31.237"/>
					<path fill="#FDF282" d="M72.511,31.237V8.764c0.03,0,0.06,0,0.089,0v22.473C72.571,31.237,72.542,31.237,72.511,31.237"/>
					<path fill="#FCF27E" d="M72.6,31.237V8.764c0.028,0,0.058,0,0.086,0v22.473C72.658,31.237,72.628,31.237,72.6,31.237"/>
					<path fill="#FCF279" d="M72.686,31.237V8.764c0.026,0,0.052,0,0.077,0v22.473C72.738,31.237,72.712,31.237,72.686,31.237"/>
					<path fill="#FCF173" d="M72.763,31.237V8.764c0.025,0,0.051,0,0.076,0v22.473C72.814,31.237,72.789,31.237,72.763,31.237"/>
					<path fill="#FCF16D" d="M72.839,31.237V8.764c0.025,0,0.051,0,0.076,0v22.473C72.89,31.237,72.865,31.237,72.839,31.237"/>
					<path fill="#FCF065" d="M72.916,31.237V8.764c0.027,0,0.054,0,0.081,0v22.473C72.969,31.237,72.943,31.237,72.916,31.237"/>
					<path fill="#FCF05B" d="M72.997,31.237V8.764c0.029,0,0.06,0,0.089,0v22.473C73.056,31.237,73.026,31.237,72.997,31.237"/>
					<path fill="#FCEF4D" d="M73.085,31.237V8.764c0.029,0,0.059,0,0.088,0v22.473C73.144,31.237,73.115,31.237,73.085,31.237"/>
					<path fill="#FCEE23" d="M73.173,31.237V8.764c0.033,0,0.065,0,0.099,0v22.473C73.239,31.237,73.207,31.237,73.173,31.237"/>
					<path fill="#F5E824" d="M73.272,31.237V8.764c0.04,0,0.079,0,0.119,0v22.473C73.351,31.237,73.312,31.237,73.272,31.237"/>
					<path fill="#F0E324" d="M73.391,31.237V8.764c0.042,0,0.083,0,0.124,0v22.473C73.474,31.237,73.433,31.237,73.391,31.237"/>
					<path fill="#ECE024" d="M73.515,31.237V8.764c0.053,0,0.105,0,0.156,0v22.473C73.621,31.237,73.568,31.237,73.515,31.237"/>
					<path fill="#E8DC24" d="M73.671,31.237V8.764c0.057,0,0.112,0,0.166,0v22.473C73.784,31.237,73.728,31.237,73.671,31.237"/>
					<path fill="#E3D824" d="M73.837,31.237V8.764c0.057,0,0.112,0,0.167,0v22.473C73.95,31.237,73.894,31.237,73.837,31.237"/>
					<path fill="#DFD424" d="M74.004,31.237V8.764c0.054,0,0.106,0,0.156,0v22.473C74.111,31.237,74.058,31.237,74.004,31.237"/>
					<path fill="#DBD023" d="M74.161,31.237V8.764c0.048,0,0.093,0,0.137,0v22.473C74.253,31.237,74.208,31.237,74.161,31.237"/>
					<path fill="#D6CC23" d="M74.297,31.237V8.764c0.043,0,0.083,0,0.123,0v22.473C74.38,31.237,74.34,31.237,74.297,31.237"/>
					<path fill="#D2C922" d="M74.42,31.237V8.764c0.038,0,0.074,0,0.11,0v22.473C74.495,31.237,74.458,31.237,74.42,31.237"/>
					<path fill="#CEC522" d="M74.531,31.237V8.764c0.033,0,0.065,0,0.096,0v22.473C74.596,31.237,74.564,31.237,74.531,31.237"/>
					<path fill="#CAC121" d="M74.626,31.237V8.764c0.03,0,0.06,0,0.088,0v22.473C74.686,31.237,74.657,31.237,74.626,31.237"/>
					<path fill="#C5BD21" d="M74.714,31.237V8.764c0.027,0,0.053,0,0.078,0v22.473C74.767,31.237,74.742,31.237,74.714,31.237"/>
					<path fill="#C1B920" d="M74.792,31.237V8.764c0.024,0,0.047,0,0.069,0v22.473C74.839,31.237,74.817,31.237,74.792,31.237"/>
					<path fill="#BDB51F" d="M74.862,31.237V8.764c0.021,0,0.042,0,0.062,0v22.473C74.904,31.237,74.883,31.237,74.862,31.237"/>
					<path fill="#B9B11E" d="M74.923,31.237V8.764c0.02,0,0.037,0,0.054,0v22.473C74.96,31.237,74.943,31.237,74.923,31.237"/>
					<path fill="#B4AD1D" d="M74.977,31.237V8.764c0.018,0,0.033,0,0.047,0v22.473C75.01,31.237,74.995,31.237,74.977,31.237"/>
					<path fill="#B0A91D" d="M75.024,31.237V8.764c0.015,0,0.027,0,0.038,0v22.473C75.051,31.237,75.039,31.237,75.024,31.237"/>
					<path fill="#ACA51C" d="M75.062,31.237V8.764c0.012,0,0.022,0,0.03,0v22.473C75.084,31.237,75.074,31.237,75.062,31.237"/>
					<path fill="#A8A21A" d="M75.092,31.237V8.764c0.009,0,0.016,0,0.021,0v22.473C75.108,31.237,75.101,31.237,75.092,31.237"/>
					<polyline fill="#A39E19" points="75.113,31.237 75.113,8.764 75.122,8.764 75.122,31.237 75.113,31.237 					"/>
					<polyline fill="#9F9A18" points="75.122,31.237 75.122,8.764 75.122,8.764 75.122,31.237 75.122,31.237 					"/>
				</g>
			</g>
			<g>
				<path fill="#DCD223" d="M69.505,7.139c0.888-0.002,1.618,0.729,1.616,1.625c0,7.491,0,14.982,0,22.473
					c0.002,0.896-0.729,1.628-1.616,1.625c-19.671,0-39.342,0-59.013,0c-0.887,0.003-1.618-0.729-1.616-1.625
					c0-7.491,0-14.982,0-22.473c-0.002-0.896,0.729-1.628,1.616-1.625C30.164,7.139,49.834,7.139,69.505,7.139z"/>
			</g>
		</g>
	</g>
</g>
</svg>
