<?xml version="1.0" encoding="utf-8"?>
<!-- Generator: Adobe Illustrator 15.0.2, SVG Export Plug-In . SVG Version: 6.00 Build 0)  -->
<!DOCTYPE svg PUBLIC "-//W3C//DTD SVG 1.1//EN" "http://www.w3.org/Graphics/SVG/1.1/DTD/svg11.dtd">
<svg version="1.1" id="Layer_1" xmlns="http://www.w3.org/2000/svg" xmlns:xlink="http://www.w3.org/1999/xlink" x="0px" y="0px"
	 width="50px" height="50px" viewBox="0 0 50 50" enable-background="new 0 0 50 50" xml:space="preserve">
<g>
	<g>
		<g enable-background="new    ">
			<g>
				<path fill="#808081" d="M14.161,8.001h23.004H14.161z"/>
			</g>
			<g enable-background="new    ">
				<defs>
					<path id="SVGID_1_" enable-background="new    " d="M43.159,37.998c0,3.312-2.683,6.003-5.994,6.003
						C40.477,44.001,43.159,41.31,43.159,37.998z"/>
				</defs>
				<clipPath id="SVGID_2_">
					<use xlink:href="#SVGID_1_"  overflow="visible"/>
				</clipPath>
				<g clip-path="url(#SVGID_2_)" enable-background="new    ">
					<path fill="#858687" d="M43.159,37.998c0,0.269-0.018,0.533-0.052,0.793C43.142,38.531,43.159,38.267,43.159,37.998"/>
					<path fill="#818182" d="M43.107,38.791c-0.041,0.313-0.107,0.619-0.195,0.916C43,39.41,43.066,39.104,43.107,38.791"/>
					<path fill="#7C7D7D" d="M42.912,39.707c-0.104,0.351-0.239,0.688-0.402,1.01l0,0C42.673,40.396,42.809,40.058,42.912,39.707"/>
					<path fill="#787879" d="M42.51,40.717L42.51,40.717c-0.99,1.947-3.012,3.284-5.345,3.284
						C39.498,44.001,41.52,42.665,42.51,40.717"/>
				</g>
			</g>
			<g enable-background="new    ">
				<defs>
					<path id="SVGID_3_" enable-background="new    " d="M39.159,37.998c2.21,0,4,0,4,0c0,3.312-2.683,6.003-5.994,6.003
						c0,0,0-1.79,0-4C38.259,40.005,39.162,39.1,39.159,37.998z"/>
				</defs>
				<clipPath id="SVGID_4_">
					<use xlink:href="#SVGID_3_"  overflow="visible"/>
				</clipPath>
				<g clip-path="url(#SVGID_4_)" enable-background="new    ">
					<path fill="#EFF0F1" d="M39.159,37.998c2.21,0,4,0,4,0c0,3.312-2.683,6.003-5.994,6.003c0,0,0-1.79,0-4
						C38.259,40.005,39.162,39.1,39.159,37.998"/>
					<path fill="#EFF0F1" d="M37.165,40.001c1.094,0.004,1.997-0.901,1.994-2.003c0.247,0,0.49,0,0.725,0
						c0.024,0.022,0.057,0.052,0.081,0.073c0.068,0.02,0.249,0.071,0.389-0.073c1.626,0,2.806,0,2.806,0
						c0,3.312-2.683,6.003-5.994,6.003C37.165,44.001,37.165,42.211,37.165,40.001"/>
					<path fill="#EFF0F0" d="M37.165,40.001c1.094,0.004,1.997-0.901,1.994-2.003c0.208,0,0.413,0,0.612,0
						c0.019,0.03,0.043,0.071,0.062,0.102c0.226,0.202,0.356,0.182,0.638-0.102c1.564,0,2.688,0,2.688,0
						c0,3.312-2.683,6.003-5.994,6.003C37.165,44.001,37.165,42.211,37.165,40.001"/>
					<path fill="#EEEFF0" d="M37.165,40.001c1.094,0.004,1.997-0.901,1.994-2.003c0.177,0,0.352,0,0.522,0
						c0.006,0.016,0.014,0.037,0.02,0.053c0.104,0.191,0.346,0.641,0.861-0.053c1.518,0,2.597,0,2.597,0
						c0,3.312-2.683,6.003-5.994,6.003C37.165,44.001,37.165,42.211,37.165,40.001"/>
					<path fill="#EEEFEF" d="M37.165,40.001c1.094,0.004,1.997-0.901,1.994-2.003c0.151,0,0.3,0,0.446,0
						c0.013,0.038,0.03,0.09,0.043,0.128c0.264,0.794,0.823,0.157,0.998-0.128c1.473,0,2.513,0,2.513,0
						c0,3.312-2.683,6.003-5.994,6.003C37.165,44.001,37.165,42.211,37.165,40.001"/>
					<path fill="#EDEEEF" d="M37.165,40.001c1.094,0.004,1.997-0.901,1.994-2.003c0.127,0,0.252,0,0.375,0
						c0.009,0.037,0.02,0.087,0.028,0.124c0.328,1.272,1.146-0.091,1.154-0.105c0.003-0.005,0.006-0.013,0.009-0.019
						c1.431,0,2.434,0,2.434,0c0,3.312-2.683,6.003-5.994,6.003C37.165,44.001,37.165,42.211,37.165,40.001"/>
					<path fill="#EDEDEE" d="M37.165,40.001c1.094,0.004,1.997-0.901,1.994-2.003c0.104,0,0.207,0,0.309,0
						c0.007,0.036,0.016,0.084,0.021,0.12c0.19,1.236,0.881,0.494,1.089,0.237c0.079-0.099,0.162-0.246,0.222-0.357
						c1.392,0,2.359,0,2.359,0c0,3.312-2.683,6.003-5.994,6.003C37.165,44.001,37.165,42.211,37.165,40.001"/>
					<path fill="#ECEDEE" d="M37.165,40.001c1.094,0.004,1.997-0.901,1.994-2.003c0.082,0,0.163,0,0.244,0
						c0.004,0.035,0.01,0.081,0.015,0.116c0.112,1.279,0.684,0.914,1.143,0.382c0.178-0.207,0.264-0.389,0.315-0.498
						c1.35,0,2.283,0,2.283,0c0,3.312-2.683,6.003-5.994,6.003C37.165,44.001,37.165,42.211,37.165,40.001"/>
					<path fill="#EBECED" d="M37.165,40.001c1.094,0.004,1.997-0.901,1.994-2.003c0.061,0,0.121,0,0.182,0
						c0.003,0.034,0.007,0.079,0.01,0.112c0.038,0.887,0.038,0.887,0.13,0.927c0.375,0.167,0.84-0.172,1.056-0.398
						c0.227-0.237,0.318-0.434,0.415-0.641c1.31,0,2.208,0,2.208,0c0,3.312-2.683,6.003-5.994,6.003
						C37.165,44.001,37.165,42.211,37.165,40.001"/>
					<path fill="#EAEBEC" d="M37.165,40.001c1.094,0.004,1.997-0.901,1.994-2.003c0.04,0,0.079,0,0.119,0
						c0.001,0.033,0.003,0.076,0.005,0.109c-0.001,0.286-0.09,0.565-0.063,0.854c0.009,0.094,0.085,0.22,0.167,0.266
						c0.114,0.063,0.631,0.023,1.119-0.441c0.298-0.285,0.425-0.563,0.526-0.787c1.266,0,2.127,0,2.127,0
						c0,3.312-2.683,6.003-5.994,6.003C37.165,44.001,37.165,42.211,37.165,40.001"/>
					<path fill="#E9EAEB" d="M37.165,40.001c1.094,0.004,1.997-0.901,1.994-2.003c0.019,0,0.038,0,0.057,0
						c0.001,0.031,0.001,0.074,0.001,0.105c-0.006,0.15-0.016,0.401-0.144,0.814c-0.114,0.368-0.031,0.416,0.057,0.467
						c0.163,0.095,0.839,0.033,1.408-0.516c0.357-0.345,0.512-0.714,0.577-0.871c1.22,0,2.044,0,2.044,0
						c0,3.312-2.683,6.003-5.994,6.003C37.165,44.001,37.165,42.211,37.165,40.001"/>
					<path fill="#E6E7E8" d="M37.165,40.008c0.123-0.125,0.269-0.011,0.401-0.038c0.029-0.006,0.068-0.016,0.097-0.021
						c0.293-0.065,0.513-0.297,0.808-0.357c0.387-0.079,0.787,0.021,1.172-0.087c0.323-0.091,1.124-0.419,1.563-1.506
						c1.171,0,1.954,0,1.954,0c0,3.312-2.683,6.003-5.994,6.003C37.165,44.001,37.165,42.214,37.165,40.008"/>
					<path fill="#E1E2E3" d="M37.165,40.083c0.022-0.022,0.074,0.002,0.106,0.003c0.051,0.001,0.193-0.001,0.418-0.036
						c0.25-0.04,0.491-0.115,0.738-0.168c1.498-0.321,2.323-0.499,2.878-1.884c1.114,0,1.854,0,1.854,0
						c0,3.312-2.683,6.003-5.994,6.003C37.165,44.001,37.165,42.255,37.165,40.083"/>
					<path fill="#DDDEDF" d="M37.165,40.159c0.024-0.023,0.077,0.005,0.11,0.007c0.249,0.015,0.573-0.034,0.748-0.06
						c0.008-0.002,1.037-0.188,1.355-0.277c0.971-0.273,1.657-0.89,2.041-1.831c1.051,0,1.739,0,1.739,0
						c0,3.312-2.683,6.003-5.994,6.003C37.165,44.001,37.165,42.295,37.165,40.159"/>
					<path fill="#D8D9DA" d="M37.165,40.235c0.025-0.023,0.08,0.008,0.114,0.011c0.131,0.012,3.211,0.267,4.272-2.248
						c0.976,0,1.607,0,1.607,0c0,3.312-2.683,6.003-5.994,6.003C37.165,44.001,37.165,42.336,37.165,40.235"/>
					<path fill="#D4D5D5" d="M37.165,40.314c0.027-0.023,0.083,0.01,0.119,0.015c0.229,0.028,1.64,0.046,2.811-0.552
						c1.042-0.531,1.439-1.406,1.609-1.779c0.889,0,1.455,0,1.455,0c0,3.312-2.683,6.003-5.994,6.003
						C37.165,44.001,37.165,42.378,37.165,40.314"/>
					<path fill="#CFD0D1" d="M37.165,40.396c0.02-0.018,0.061,0.009,0.086,0.012c0.034,0.006,3.409,0.407,4.623-2.41
						c0.79,0,1.285,0,1.285,0c0,3.312-2.683,6.003-5.994,6.003C37.165,44.001,37.165,42.42,37.165,40.396"/>
					<path fill="#CACBCC" d="M37.165,40.484c0.029-0.025,0.09,0.015,0.128,0.021c1.156,0.185,3.837-0.185,4.75-2.507
						c0.691,0,1.116,0,1.116,0c0,3.312-2.683,6.003-5.994,6.003C37.165,44.001,37.165,42.466,37.165,40.484"/>
					<path fill="#C6C7C8" d="M37.165,40.577c0.031-0.026,0.093,0.017,0.133,0.024c1.319,0.24,4.112-0.277,4.9-2.604
						c0.6,0,0.961,0,0.961,0c0,3.312-2.683,6.003-5.994,6.003C37.165,44.001,37.165,42.514,37.165,40.577"/>
					<path fill="#C1C2C3" d="M37.165,40.676c0.032-0.026,0.097,0.02,0.139,0.028c1.19,0.237,4.329-0.205,5.033-2.706
						c0.516,0,0.822,0,0.822,0c0,3.312-2.683,6.003-5.994,6.003C37.165,44.001,37.165,42.564,37.165,40.676"/>
					<path fill="#BDBDBE" d="M37.165,40.787c0.022-0.019,0.066,0.013,0.096,0.019c0.887,0.176,4.367,0.214,5.198-2.808
						c0.441,0,0.7,0,0.7,0c0,3.312-2.683,6.003-5.994,6.003C37.165,44.001,37.165,42.62,37.165,40.787"/>
					<path fill="#B8B9BA" d="M37.165,40.907c0.031-0.025,0.091,0.019,0.13,0.026c1.383,0.285,4.63-0.058,5.273-2.936
						c0.375,0,0.591,0,0.591,0c0,3.312-2.683,6.003-5.994,6.003C37.165,44.001,37.165,42.68,37.165,40.907"/>
					<path fill="#B3B4B5" d="M37.165,41.039c0.026-0.021,0.076,0.017,0.108,0.023c1.168,0.255,4.666,0.239,5.392-3.064
						c0.315,0,0.494,0,0.494,0c0,3.312-2.683,6.003-5.994,6.003C37.165,44.001,37.165,42.745,37.165,41.039"/>
					<path fill="#AFB0B0" d="M37.165,41.182c0.009-0.007,0.026,0.006,0.037,0.009c1.998,0.472,5.04-0.207,5.55-3.192
						c0.261,0,0.407,0,0.407,0c0,3.312-2.683,6.003-5.994,6.003C37.165,44.001,37.165,42.814,37.165,41.182"/>
					<path fill="#AAABAC" d="M37.165,41.335c0.042-0.033,0.121,0.027,0.173,0.039c1.548,0.355,4.926-0.002,5.492-3.376
						c0.212,0,0.329,0,0.329,0c0,3.312-2.683,6.003-5.994,6.003C37.165,44.001,37.165,42.889,37.165,41.335"/>
					<path fill="#A6A6A7" d="M37.165,41.494c0.044-0.035,0.127,0.029,0.182,0.041c2.395,0.546,5.199-0.651,5.553-3.537
						c0.168,0,0.26,0,0.26,0c0,3.312-2.683,6.003-5.994,6.003C37.165,44.001,37.165,42.964,37.165,41.494"/>
					<path fill="#A1A2A2" d="M37.165,41.656c0.02-0.015,0.057,0.014,0.081,0.02c2.123,0.51,5.3-0.295,5.715-3.678
						c0.129,0,0.198,0,0.198,0c0,3.312-2.683,6.003-5.994,6.003C37.165,44.001,37.165,43.04,37.165,41.656"/>
					<path fill="#9C9D9E" d="M37.165,41.821c0.048-0.038,0.139,0.031,0.198,0.044c2.111,0.476,5.26-0.41,5.651-3.867
						c0.095,0,0.145,0,0.145,0c0,3.312-2.683,6.003-5.994,6.003C37.165,44.001,37.165,43.115,37.165,41.821"/>
					<path fill="#989899" d="M37.165,41.985c0.034-0.026,0.099,0.022,0.141,0.032c2.558,0.582,5.485-0.79,5.756-4.02
						c0.063,0,0.098,0,0.098,0c0,3.312-2.683,6.003-5.994,6.003C37.165,44.001,37.165,43.189,37.165,41.985"/>
					<path fill="#939494" d="M37.165,42.151c0.052-0.041,0.151,0.033,0.216,0.047c2.135,0.461,5.429-0.556,5.719-4.2
						c0.039,0,0.06,0,0.06,0c0,3.312-2.683,6.003-5.994,6.003C37.165,44.001,37.165,43.264,37.165,42.151"/>
					<path fill="#8F8F90" d="M37.165,42.319c0.023-0.019,0.069,0.016,0.1,0.022c2.68,0.59,5.684-0.902,5.865-4.344
						c0.029,3.312-2.653,6.003-5.965,6.003C37.165,44.001,37.165,43.338,37.165,42.319"/>
					<path fill="#8A8B8B" d="M37.165,42.491c0.055-0.045,0.163,0.032,0.233,0.046c2.672,0.53,5.69-1.204,5.752-4.539
						c0.009,3.312-2.674,6.003-5.985,6.003C37.165,44.001,37.165,43.411,37.165,42.491"/>
					<path fill="#858687" d="M37.165,42.668c0.057-0.047,0.17,0.032,0.242,0.046c2.249,0.428,5.632-0.775,5.752-4.716
						c0,3.312-2.683,6.003-5.994,6.003C37.165,44.001,37.165,43.486,37.165,42.668"/>
					<path fill="#818182" d="M37.165,42.854c0.059-0.049,0.177,0.031,0.252,0.045c2.444,0.435,5.241-0.983,5.69-4.108
						c-0.388,2.938-2.899,5.211-5.942,5.211C37.165,44.001,37.165,43.563,37.165,42.854"/>
					<path fill="#7C7D7D" d="M37.165,43.055c0.042-0.035,0.125,0.021,0.179,0.03c2.146,0.363,4.749-0.682,5.569-3.381
						c-0.733,2.482-3.029,4.297-5.748,4.297C37.165,44.001,37.165,43.645,37.165,43.055"/>
					<path fill="#787879" d="M37.165,43.286c0.044-0.038,0.134,0.02,0.191,0.028c1.616,0.24,3.936-0.295,5.153-2.598
						c-0.99,1.948-3.012,3.284-5.345,3.284C37.165,44.001,37.165,43.736,37.165,43.286"/>
				</g>
			</g>
			<g enable-background="new    ">
				<defs>
					<path id="SVGID_5_" enable-background="new    " d="M37.165,40.001c0,2.21,0,4,0,4H14.161c0,0,0-1.79,0-4H37.165z"/>
				</defs>
				<clipPath id="SVGID_6_">
					<use xlink:href="#SVGID_5_"  overflow="visible"/>
				</clipPath>
				<g clip-path="url(#SVGID_6_)" enable-background="new    ">
					<polyline fill="#E9EAEB" points="14.161,40.001 37.165,40.001 37.165,40.008 14.161,40.008 14.161,40.001 					"/>
					<path fill="#E6E7E8" d="M14.161,40.008h23.004c0,0.026,0,0.052,0,0.077H14.161C14.161,40.06,14.161,40.034,14.161,40.008"/>
					<path fill="#E1E2E3" d="M14.161,40.085h23.004c0,0.026,0,0.052,0,0.077H14.161C14.161,40.137,14.161,40.111,14.161,40.085"/>
					<path fill="#DDDEDF" d="M14.161,40.162h23.004c0,0.025,0,0.052,0,0.077H14.161C14.161,40.214,14.161,40.188,14.161,40.162"/>
					<path fill="#D8D9DA" d="M14.161,40.239h23.004c0,0.025,0,0.051,0,0.076H14.161C14.161,40.29,14.161,40.265,14.161,40.239"/>
					<path fill="#D4D5D5" d="M14.161,40.315h23.004c0,0.029,0,0.059,0,0.088H14.161C14.161,40.374,14.161,40.345,14.161,40.315"/>
					<path fill="#CFD0D1" d="M14.161,40.403h23.004c0,0.03,0,0.061,0,0.091H14.161C14.161,40.464,14.161,40.434,14.161,40.403"/>
					<path fill="#CACBCC" d="M14.161,40.494h23.004c0,0.03,0,0.061,0,0.09H14.161C14.161,40.555,14.161,40.524,14.161,40.494"/>
					<path fill="#C6C7C8" d="M14.161,40.584h23.004c0,0.032,0,0.064,0,0.097H14.161C14.161,40.648,14.161,40.616,14.161,40.584"/>
					<path fill="#C1C2C3" d="M14.161,40.681h23.004c0,0.039,0,0.078,0,0.117H14.161C14.161,40.759,14.161,40.72,14.161,40.681"/>
					<path fill="#BDBDBE" d="M14.161,40.798h23.004c0,0.038,0,0.077,0,0.115H14.161C14.161,40.875,14.161,40.836,14.161,40.798"/>
					<path fill="#B8B9BA" d="M14.161,40.913h23.004c0,0.044,0,0.088,0,0.132H14.161C14.161,41.001,14.161,40.957,14.161,40.913"/>
					<path fill="#B3B4B5" d="M14.161,41.045h23.004c0,0.048,0,0.096,0,0.143H14.161C14.161,41.141,14.161,41.093,14.161,41.045"/>
					<path fill="#AFB0B0" d="M14.161,41.188h23.004c0,0.051,0,0.101,0,0.15H14.161C14.161,41.288,14.161,41.238,14.161,41.188"/>
					<path fill="#AAABAC" d="M14.161,41.338h23.004c0,0.054,0,0.106,0,0.159H14.161C14.161,41.444,14.161,41.392,14.161,41.338"/>
					<path fill="#A6A6A7" d="M14.161,41.497h23.004c0,0.055,0,0.108,0,0.162H14.161C14.161,41.605,14.161,41.552,14.161,41.497"/>
					<path fill="#A1A2A2" d="M14.161,41.659h23.004c0,0.055,0,0.109,0,0.163H14.161C14.161,41.769,14.161,41.714,14.161,41.659"/>
					<path fill="#9C9D9E" d="M14.161,41.822h23.004c0,0.056,0,0.111,0,0.166H14.161C14.161,41.934,14.161,41.878,14.161,41.822"/>
					<path fill="#989899" d="M14.161,41.988h23.004c0,0.056,0,0.111,0,0.165H14.161C14.161,42.1,14.161,42.044,14.161,41.988"/>
					<path fill="#939494" d="M14.161,42.153h23.004c0,0.058,0,0.113,0,0.168H14.161C14.161,42.267,14.161,42.211,14.161,42.153"/>
					<path fill="#8F8F90" d="M14.161,42.321h23.004c0,0.06,0,0.116,0,0.173H14.161C14.161,42.438,14.161,42.381,14.161,42.321"/>
					<path fill="#8A8B8B" d="M14.161,42.494h23.004c0,0.061,0,0.119,0,0.177H14.161C14.161,42.613,14.161,42.555,14.161,42.494"/>
					<path fill="#858687" d="M14.161,42.671h23.004c0,0.063,0,0.125,0,0.185H14.161C14.161,42.796,14.161,42.734,14.161,42.671"/>
					<path fill="#818182" d="M14.161,42.855h23.004c0,0.069,0,0.136,0,0.2H14.161C14.161,42.991,14.161,42.925,14.161,42.855"/>
					<path fill="#7C7D7D" d="M14.161,43.056h23.004c0,0.083,0,0.162,0,0.236H14.161C14.161,43.218,14.161,43.139,14.161,43.056"/>
					<path fill="#787879" d="M14.161,43.292h23.004c0,0.447,0,0.709,0,0.709H14.161C14.161,44.001,14.161,43.739,14.161,43.292"/>
				</g>
			</g>
			<g enable-background="new    ">
				<defs>
					<path id="SVGID_7_" enable-background="new    " d="M37.165,12.001c0-2.209,0-4,0-4c3.312,0,5.994,2.682,5.994,6.003
						c0,0-1.79,0-4,0C39.16,12.894,38.263,11.999,37.165,12.001z"/>
				</defs>
				<clipPath id="SVGID_8_">
					<use xlink:href="#SVGID_7_"  overflow="visible"/>
				</clipPath>
				<g clip-path="url(#SVGID_8_)" enable-background="new    ">
					<path fill="#EFF0F1" d="M37.165,12.001c0-2.209,0-4,0-4c3.312,0,5.994,2.682,5.994,6.003c0,0-1.79,0-4,0
						C39.16,12.894,38.263,11.999,37.165,12.001"/>
					<path fill="#EFF0F1" d="M40.348,14.004c1.081-1.248-0.193-3.462-1.948-3.384c-0.428,0.019-1.139,0.325-0.708,0.758
						c0.407,0.408,0.961,0.635,1.336,1.083c0.385,0.46,0.512,1.065,0.864,1.543c-0.237,0-0.482,0-0.732,0
						c0.001-1.11-0.896-2.005-1.994-2.003c0-2.209,0-4,0-4c3.312,0,5.994,2.682,5.994,6.003
						C43.159,14.004,41.977,14.004,40.348,14.004"/>
					<path fill="#EFF0F0" d="M40.469,14.004c1.092-1.742-0.744-3.83-2.432-3.39c-0.014,0.003-1.209,0.366-0.242,0.933
						c1.272,0.746,1.451,1.177,1.979,2.457c-0.2,0-0.406,0-0.615,0c0.001-1.11-0.896-2.005-1.994-2.003c0-2.209,0-4,0-4
						c3.312,0,5.994,2.682,5.994,6.003C43.159,14.004,42.035,14.004,40.469,14.004"/>
					<path fill="#EEEFF0" d="M40.56,14.004c1.094-1.736-0.854-3.888-2.535-3.456c-0.307,0.079-1.17,0.496-0.477,0.938
						c1.47,0.937,1.734,1.105,2.134,2.518c-0.171,0-0.346,0-0.522,0c0.001-1.11-0.896-2.005-1.994-2.003c0-2.209,0-4,0-4
						c3.312,0,5.994,2.682,5.994,6.003C43.159,14.004,42.078,14.004,40.56,14.004"/>
					<path fill="#EEEFEF" d="M40.644,14.004c0.994-1.899-1.03-4.001-2.759-3.487c-0.234,0.07-0.549,0.213-0.72,0.501
						c0-1.734,0-3.017,0-3.017c3.312,0,5.994,2.682,5.994,6.003C43.159,14.004,42.118,14.004,40.644,14.004"/>
					<path fill="#EDEEEF" d="M40.724,14.004c0.944-2.093-1.171-4.125-2.979-3.513c-0.229,0.077-0.479,0.242-0.579,0.35
						c0-1.644,0-2.84,0-2.84c3.312,0,5.994,2.682,5.994,6.003C43.159,14.004,42.155,14.004,40.724,14.004"/>
					<path fill="#EDEDEE" d="M40.799,14.004c0.995-2.197-1.329-4.288-3.198-3.534c-0.227,0.091-0.38,0.206-0.436,0.25
						c0-1.582,0-2.72,0-2.72c3.312,0,5.994,2.682,5.994,6.003C43.159,14.004,42.19,14.004,40.799,14.004"/>
					<path fill="#ECEDEE" d="M40.875,14.004c0.934-2.351-1.534-4.43-3.422-3.549c-0.141,0.065-0.232,0.126-0.288,0.163
						c0-1.528,0-2.617,0-2.617c3.312,0,5.994,2.682,5.994,6.003C43.159,14.004,42.226,14.004,40.875,14.004"/>
					<path fill="#EBECED" d="M40.951,14.004c0.94-2.446-1.62-4.502-3.603-3.582c-0.057,0.027-0.129,0.07-0.184,0.101
						c0-1.478,0-2.522,0-2.522c3.312,0,5.994,2.682,5.994,6.003C43.159,14.004,42.261,14.004,40.951,14.004"/>
					<path fill="#EAEBEC" d="M41.03,14.004c0.962-2.525-1.612-4.601-3.665-3.673c-0.062,0.027-0.141,0.071-0.2,0.101
						c0-1.429,0-2.431,0-2.431c3.312,0,5.994,2.682,5.994,6.003C43.159,14.004,42.297,14.004,41.03,14.004"/>
					<path fill="#E9EAEB" d="M41.114,14.004c-0.03-0.044,0.042-0.118,0.061-0.168c0.213-0.593,0.316-1.99-0.813-3.038
						c-0.73-0.677-2.002-1.082-3.197-0.458c0-1.38,0-2.339,0-2.339c3.312,0,5.994,2.682,5.994,6.003
						C43.159,14.004,42.335,14.004,41.114,14.004"/>
					<path fill="#E6E7E8" d="M41.205,14.004c0.961-2.759-1.826-4.826-4.04-3.758c0-1.33,0-2.245,0-2.245
						c3.312,0,5.994,2.682,5.994,6.003C43.159,14.004,42.375,14.004,41.205,14.004"/>
					<path fill="#E1E2E3" d="M41.304,14.004c-0.04-0.057,0.055-0.153,0.077-0.218c0.219-0.616,0.322-2.07-0.847-3.159
						c-0.149-0.139-1.511-1.333-3.369-0.48c0-1.275,0-2.146,0-2.146c3.312,0,5.994,2.682,5.994,6.003
						C43.159,14.004,42.42,14.004,41.304,14.004"/>
					<path fill="#DDDEDF" d="M41.418,14.004c-0.04-0.057,0.055-0.153,0.078-0.219c0.243-0.688,0.337-2.15-0.857-3.264
						c-0.682-0.635-2-1.143-3.474-0.483c0-1.216,0-2.038,0-2.038c3.312,0,5.994,2.682,5.994,6.003
						C43.159,14.004,42.47,14.004,41.418,14.004"/>
					<path fill="#D8D9DA" d="M41.551,14.004c1.038-2.836-1.627-5.318-4.386-4.085c0-1.15,0-1.918,0-1.918
						c3.312,0,5.994,2.682,5.994,6.003C43.159,14.004,42.527,14.004,41.551,14.004"/>
					<path fill="#D4D5D5" d="M41.703,14.004c1.059-2.896-1.74-5.499-4.538-4.221c0-1.075,0-1.782,0-1.782
						c3.312,0,5.994,2.682,5.994,6.003C43.159,14.004,42.593,14.004,41.703,14.004"/>
					<path fill="#CFD0D1" d="M41.873,14.004c0.969-2.624-1.729-5.728-4.708-4.378c0-0.986,0-1.625,0-1.625
						c3.312,0,5.994,2.682,5.994,6.003C43.159,14.004,42.664,14.004,41.873,14.004"/>
					<path fill="#CACBCC" d="M42.042,14.004c-0.019-0.026,0.023-0.07,0.034-0.101c0.415-1.255-0.016-2.761-1.072-3.747
						c-0.647-0.604-2.007-1.5-3.839-0.705c0-0.886,0-1.451,0-1.451c3.312,0,5.994,2.682,5.994,6.003
						C43.159,14.004,42.734,14.004,42.042,14.004"/>
					<path fill="#C6C7C8" d="M42.198,14.004c-0.03-0.04,0.031-0.113,0.045-0.161c0.352-1.254-0.12-2.761-1.174-3.751
						c-1.139-1.071-2.599-1.376-3.904-0.818c0-0.783,0-1.272,0-1.272c3.312,0,5.994,2.682,5.994,6.003
						C43.159,14.004,42.797,14.004,42.198,14.004"/>
					<path fill="#C1C2C3" d="M42.337,14.004c-0.051-0.063,0.042-0.184,0.06-0.262c0.225-0.993-0.076-2.577-1.27-3.708
						c-1.144-1.083-2.624-1.43-3.962-0.929c0-0.684,0-1.104,0-1.104c3.312,0,5.994,2.682,5.994,6.003
						C43.159,14.004,42.853,14.004,42.337,14.004"/>
					<path fill="#BDBDBE" d="M42.459,14.004c-0.015-0.018,0.012-0.053,0.017-0.075c0.299-1.359-0.21-2.908-1.298-3.945
						c-0.545-0.52-2.026-1.661-4.013-1.03c0-0.594,0-0.952,0-0.952c3.312,0,5.994,2.682,5.994,6.003
						C43.159,14.004,42.9,14.004,42.459,14.004"/>
					<path fill="#B8B9BA" d="M42.568,14.004c-0.047-0.055,0.027-0.165,0.04-0.235c0.183-1.068-0.175-2.667-1.386-3.83
						c-0.669-0.641-2.085-1.64-4.058-1.121c0-0.512,0-0.816,0-0.816c3.312,0,5.994,2.682,5.994,6.003
						C43.159,14.004,42.943,14.004,42.568,14.004"/>
					<path fill="#B3B4B5" d="M42.665,14.004c-0.013-0.016,0.008-0.046,0.011-0.066c0.237-1.42-0.305-2.967-1.414-4.038
						c-0.552-0.532-2.056-1.715-4.097-1.203c0-0.439,0-0.695,0-0.695c3.312,0,5.994,2.682,5.994,6.003
						C43.159,14.004,42.98,14.004,42.665,14.004"/>
					<path fill="#AFB0B0" d="M42.752,14.004c-0.056-0.063,0.023-0.196,0.034-0.279c0.097-0.803-0.108-2.52-1.49-3.859
						c-0.674-0.653-2.106-1.688-4.131-1.278c0-0.372,0-0.586,0-0.586c3.312,0,5.994,2.682,5.994,6.003
						C43.159,14.004,43.013,14.004,42.752,14.004"/>
					<path fill="#AAABAC" d="M42.83,14.004c-0.024-0.027,0.01-0.083,0.014-0.118c0.169-1.422-0.413-2.975-1.519-4.05
						c-1.174-1.144-2.69-1.634-4.16-1.347c0-0.311,0-0.487,0-0.487c3.312,0,5.994,2.682,5.994,6.003
						C43.159,14.004,43.042,14.004,42.83,14.004"/>
					<path fill="#F0F1F1" d="M39.964,13.917c-0.103-0.082-0.176-0.232-0.354-0.597c-0.108-0.223-0.291-0.597-0.628-0.976
						c-0.199-0.225-0.422-0.419-0.72-0.633c-0.359-0.256-0.48-0.342-0.535-0.453c-0.109-0.223,0.048-0.498,0.649-0.576
						c1.603-0.207,2.835,1.987,2.086,3.047C40.342,13.901,40.158,14.072,39.964,13.917"/>
					<path fill="#A6A6A7" d="M42.899,14.004c-0.061-0.066,0.017-0.208,0.024-0.298c0.082-1.007-0.28-2.632-1.573-3.896
						c-0.676-0.661-2.118-1.722-4.186-1.411c0-0.255,0-0.398,0-0.398c3.312,0,5.994,2.682,5.994,6.003
						C43.159,14.004,43.067,14.004,42.899,14.004"/>
					<path fill="#F0F1F2" d="M39.955,13.756c-0.085-0.069-0.193-0.273-0.266-0.408c-0.14-0.264-0.332-0.624-0.6-0.94
						c-0.24-0.286-0.436-0.463-0.907-0.827c-0.238-0.184-0.3-0.27-0.314-0.298c-0.168-0.315,0.231-0.501,0.483-0.531
						c1.742-0.208,2.767,2.024,2.043,2.918C40.2,13.911,40.051,13.835,39.955,13.756"/>
					<path fill="#A1A2A2" d="M42.961,14.004c-0.041-0.044,0.011-0.141,0.015-0.202c0.082-1.098-0.296-2.729-1.604-4.012
						c-1.175-1.153-2.708-1.689-4.206-1.471c0-0.205,0-0.318,0-0.318c3.312,0,5.994,2.682,5.994,6.003
						C43.159,14.004,43.09,14.004,42.961,14.004"/>
					<path fill="#F1F1F2" d="M40.079,13.692c-0.062-0.017-0.153-0.043-0.397-0.476c-0.083-0.147-0.304-0.536-0.593-0.873
						c-0.175-0.204-0.374-0.407-0.778-0.734c-0.185-0.149-0.292-0.282-0.293-0.283c-0.164-0.234,0.021-0.369,0.107-0.417
						c1.048-0.569,2.832,0.9,2.393,2.359C40.43,13.561,40.245,13.739,40.079,13.692"/>
					<path fill="#F1F2F2" d="M40.091,13.551c-0.129-0.006-0.281-0.228-0.427-0.467c-0.088-0.146-0.236-0.39-0.43-0.633
						c-0.281-0.355-0.542-0.583-0.698-0.719c-0.22-0.191-0.361-0.349-0.362-0.35c-0.158-0.214-0.057-0.344,0.018-0.401
						c0.673-0.523,2.477,0.529,2.318,1.978C40.479,13.236,40.382,13.565,40.091,13.551"/>
					<path fill="#9C9D9E" d="M43.015,14.004c-0.063-0.066,0.011-0.212,0.016-0.303c0.05-1.016-0.351-2.654-1.644-3.927
						c-0.824-0.811-2.227-1.735-4.222-1.526c0-0.16,0-0.247,0-0.247c3.312,0,5.994,2.682,5.994,6.003
						C43.159,14.004,43.109,14.004,43.015,14.004"/>
					<path fill="#F2F2F3" d="M40.058,13.406c-0.104-0.015-0.227-0.19-0.411-0.456c-0.32-0.46-0.32-0.46-0.456-0.624
						c-0.262-0.314-0.611-0.543-0.854-0.875c-0.077-0.106-0.207-0.284-0.02-0.425c0.648-0.49,2.354,0.616,2.126,1.954
						C40.362,13.45,40.148,13.419,40.058,13.406"/>
					<path fill="#989899" d="M43.062,14.004c-0.059-0.061,0.007-0.196,0.01-0.279c0.038-1.028-0.378-2.683-1.674-3.961
						c-1.173-1.159-2.716-1.734-4.232-1.58c0-0.119,0-0.183,0-0.183c3.312,0,5.994,2.682,5.994,6.003
						C43.159,14.004,43.125,14.004,43.062,14.004"/>
					<path fill="#F2F3F3" d="M40.037,13.259c-0.063-0.015-0.16-0.113-0.23-0.192c-0.218-0.246-0.385-0.529-0.593-0.782
						c-0.222-0.268-0.506-0.477-0.712-0.759c-0.12-0.165-0.234-0.32-0.059-0.448c0.544-0.396,2.052,0.558,1.948,1.74
						C40.361,13.159,40.242,13.307,40.037,13.259"/>
					<path fill="#F2F3F3" d="M40.021,13.11c-0.091-0.03-0.091-0.03-0.673-0.744c-0.199-0.245-0.434-0.459-0.634-0.704
						c-0.171-0.209-0.249-0.305-0.219-0.421c0.083-0.321,1.132-0.218,1.646,0.749C40.43,12.532,40.354,13.224,40.021,13.11"/>
					<path fill="#EEEFEF" d="M39.159,14.004c0.001-1.11-0.896-2.005-1.994-2.003c0-0.233,0-0.461,0-0.684
						c0.001,0.002,0.003,0.006,0.004,0.008c0.207,0.171,0.207,0.171,0.557,0.332c0.367,0.169,0.759,0.382,1.136,0.797
						c0.496,0.545,0.658,1.199,0.744,1.55C39.459,14.004,39.311,14.004,39.159,14.004"/>
					<path fill="#939494" d="M43.1,14.004c-0.012-0.012,0.002-0.04,0.003-0.057c0.063-1.508-0.572-3.074-1.699-4.189
						c-0.824-0.816-2.229-1.762-4.238-1.63c0-0.083,0-0.126,0-0.126c3.312,0,5.994,2.682,5.994,6.003
						C43.159,14.004,43.139,14.004,43.1,14.004"/>
					<path fill="#F3F3F4" d="M39.999,12.961c-0.124-0.055-0.176-0.078-1.049-1.134c-0.313-0.38-0.333-0.403-0.312-0.512
						c0.057-0.29,0.927-0.148,1.37,0.557c0.323,0.515,0.3,1.1,0.04,1.108C40.033,12.981,40.014,12.968,39.999,12.961"/>
					<path fill="#EDEEEF" d="M39.159,14.004c0.001-1.11-0.896-2.005-1.994-2.003c0-0.175,0-0.348,0-0.517
						c0.038,0.017,0.088,0.04,0.126,0.057c1.172,0.536,1.172,0.536,1.54,0.94c0.527,0.579,0.66,1.289,0.703,1.522
						C39.411,14.004,39.286,14.004,39.159,14.004"/>
					<path fill="#EDEDEE" d="M39.159,14.004c0.001-1.11-0.896-2.005-1.994-2.003c0-0.136,0-0.27,0-0.401
						c0.036,0.01,0.085,0.024,0.121,0.034c0.669,0.22,1.913,0.63,2.182,2.37C39.366,14.004,39.263,14.004,39.159,14.004"/>
					<path fill="#F3F4F4" d="M39.984,12.813c-0.118-0.01-0.237-0.151-0.633-0.619c-0.492-0.582-0.567-0.671-0.553-0.783
						c0.004-0.038,0.037-0.085,0.068-0.106c0.082-0.054,0.457-0.074,0.88,0.346c0.363,0.361,0.434,0.788,0.411,0.937
						c-0.009,0.056-0.018,0.139-0.057,0.178C40.074,12.792,40.021,12.813,39.984,12.813"/>
					<path fill="#ECEDEE" d="M39.159,14.004c0.001-1.11-0.896-2.005-1.994-2.003c0-0.104,0-0.208,0-0.311
						c0.035,0.008,0.082,0.019,0.117,0.027c0.471,0.124,1.903,0.501,2.121,2.287C39.322,14.004,39.241,14.004,39.159,14.004"/>
					<path fill="#EBECED" d="M39.159,14.004c0.001-1.11-0.896-2.005-1.994-2.003c0-0.076,0-0.151,0-0.226
						c0.034,0.005,0.079,0.013,0.113,0.018c1.633,0.33,1.993,1.526,2.063,2.21C39.28,14.004,39.22,14.004,39.159,14.004"/>
					<path fill="#F3F4F4" d="M39.89,12.608c-0.051-0.008-0.176-0.095-0.484-0.46c-0.171-0.201-0.429-0.506-0.424-0.613
						c0.001-0.039,0.026-0.093,0.058-0.114c0.091-0.061,0.42,0.039,0.655,0.276c0.364,0.368,0.352,0.735,0.351,0.739
						c-0.006,0.042-0.001,0.109-0.03,0.14C39.987,12.604,39.928,12.615,39.89,12.608"/>
					<path fill="#8F8F90" d="M40.273,8.869c-1.063-0.61-1.936-0.832-3.108-0.789c0-0.052,0-0.079,0-0.079
						c1.156,0,2.236,0.327,3.152,0.895C40.304,8.887,40.287,8.876,40.273,8.869"/>
					<path fill="#EAEBEC" d="M39.159,14.004c0.001-1.11-0.896-2.005-1.994-2.003c0-0.049,0-0.097,0-0.145
						c0.025,0.002,0.059,0.006,0.084,0.009c0.908,0.113,1.919,0.734,2.029,2.139C39.238,14.004,39.199,14.004,39.159,14.004"/>
					<path fill="#8A8B8B" d="M38.947,8.271c-0.417-0.116-0.937-0.26-1.782-0.229c0-0.027,0-0.041,0-0.041
						c0.721,0,1.412,0.127,2.052,0.36C39.136,8.334,39.029,8.296,38.947,8.271"/>
					<path fill="#F4F4F5" d="M39.728,12.329c-0.069-0.028-0.496-0.53-0.508-0.597c-0.007-0.042,0-0.114,0.036-0.137
						c0.063-0.042,0.177,0.029,0.241,0.068c0.096,0.058,0.153,0.126,0.231,0.219c0.188,0.223,0.156,0.457,0.155,0.458
						C39.851,12.373,39.771,12.346,39.728,12.329"/>
					<path fill="#8F8F90" d="M43.13,14.004c-0.062-0.062,0.001-0.204,0.002-0.291c0.002-0.407-0.068-1.082-0.419-1.988
						c0.288,0.703,0.446,1.472,0.446,2.279C43.159,14.004,43.149,14.004,43.13,14.004"/>
					<path fill="#E9EAEB" d="M39.159,14.004c0.001-1.11-0.896-2.005-1.994-2.003c0-0.023,0-0.045,0-0.068
						c0.031,0.002,0.074,0.005,0.105,0.007c1.124,0.126,1.888,0.936,1.944,2.064C39.196,14.004,39.178,14.004,39.159,14.004"/>
					<path fill="#858687" d="M38.078,8.07c-0.291-0.035-0.483-0.059-0.913-0.056c0-0.009,0-0.014,0-0.014
						c0.384,0,0.758,0.036,1.121,0.104C38.224,8.095,38.141,8.08,38.078,8.07"/>
					<path fill="#8A8B8B" d="M43.15,14.004c-0.066-0.065-0.002-0.216-0.003-0.309c-0.001-0.085-0.012-0.333-0.089-0.796
						c0.066,0.358,0.101,0.728,0.101,1.105C43.159,14.004,43.156,14.004,43.15,14.004"/>
					<path fill="#818182" d="M37.165,8.001c0.072,0,0.144,0.001,0.215,0.003C37.315,8.004,37.21,8.047,37.165,8.001"/>
					<path fill="#858687" d="M43.159,14.004c-0.027-0.027-0.001-0.089-0.001-0.127C43.159,13.919,43.159,13.961,43.159,14.004
						L43.159,14.004"/>
				</g>
			</g>
			<g enable-background="new    ">
				<defs>
					<path id="SVGID_9_" enable-background="new    " d="M12.158,37.998c-2.209,0-4,0-4,0V14.004c0,0,1.791,0,4,0V37.998z"/>
				</defs>
				<clipPath id="SVGID_10_">
					<use xlink:href="#SVGID_9_"  overflow="visible"/>
				</clipPath>
				<g clip-path="url(#SVGID_10_)" enable-background="new    ">
					<polyline fill="#E9EAEB" points="12.158,14.004 12.158,37.998 12.152,37.998 12.152,14.004 12.158,14.004 					"/>
					<path fill="#E6E7E8" d="M12.152,14.004v23.994c-0.023,0-0.046,0-0.069,0V14.004C12.106,14.004,12.129,14.004,12.152,14.004"/>
					<path fill="#E1E2E3" d="M12.083,14.004v23.994c-0.023,0-0.046,0-0.068,0V14.004C12.038,14.004,12.061,14.004,12.083,14.004"/>
					<path fill="#DDDEDF" d="M12.015,14.004v23.994c-0.023,0-0.045,0-0.068,0V14.004C11.97,14.004,11.992,14.004,12.015,14.004"/>
					<path fill="#D8D9DA" d="M11.947,14.004v23.994c-0.022,0-0.045,0-0.068,0V14.004C11.901,14.004,11.924,14.004,11.947,14.004"/>
					<path fill="#D4D5D5" d="M11.879,14.004v23.994c-0.024,0-0.049,0-0.073,0V14.004C11.83,14.004,11.854,14.004,11.879,14.004"/>
					<path fill="#CFD0D1" d="M11.806,14.004v23.994c-0.029,0-0.058,0-0.087,0V14.004C11.748,14.004,11.777,14.004,11.806,14.004"/>
					<path fill="#CACBCC" d="M11.719,14.004v23.994c-0.029,0-0.058,0-0.087,0V14.004C11.661,14.004,11.689,14.004,11.719,14.004"/>
					<path fill="#C6C7C8" d="M11.632,14.004v23.994c-0.029,0-0.058,0-0.086,0V14.004C11.574,14.004,11.603,14.004,11.632,14.004"/>
					<path fill="#C1C2C3" d="M11.546,14.004v23.994c-0.035,0-0.069,0-0.104,0V14.004C11.477,14.004,11.511,14.004,11.546,14.004"/>
					<path fill="#BDBDBE" d="M11.442,14.004v23.994c-0.039,0-0.077,0-0.115,0V14.004C11.365,14.004,11.404,14.004,11.442,14.004"/>
					<path fill="#B8B9BA" d="M11.327,14.004v23.994c-0.038,0-0.076,0-0.114,0V14.004C11.251,14.004,11.289,14.004,11.327,14.004"/>
					<path fill="#B3B4B5" d="M11.213,14.004v23.994c-0.046,0-0.092,0-0.138,0V14.004C11.121,14.004,11.167,14.004,11.213,14.004"/>
					<path fill="#AFB0B0" d="M11.075,14.004v23.994c-0.047,0-0.094,0-0.14,0V14.004C10.981,14.004,11.028,14.004,11.075,14.004"/>
					<path fill="#AAABAC" d="M10.935,14.004v23.994c-0.051,0-0.102,0-0.151,0V14.004C10.833,14.004,10.884,14.004,10.935,14.004"/>
					<path fill="#A6A6A7" d="M10.783,14.004v23.994c-0.052,0-0.103,0-0.154,0V14.004C10.68,14.004,10.731,14.004,10.783,14.004"/>
					<path fill="#A1A2A2" d="M10.629,14.004v23.994c-0.054,0-0.107,0-0.16,0V14.004C10.522,14.004,10.576,14.004,10.629,14.004"/>
					<path fill="#9C9D9E" d="M10.47,14.004v23.994c-0.054,0-0.106,0-0.159,0V14.004C10.363,14.004,10.416,14.004,10.47,14.004"/>
					<path fill="#989899" d="M10.311,14.004v23.994c-0.056,0-0.11,0-0.165,0V14.004C10.201,14.004,10.255,14.004,10.311,14.004"/>
					<path fill="#939494" d="M10.146,14.004v23.994c-0.056,0-0.111,0-0.166,0V14.004C10.035,14.004,10.09,14.004,10.146,14.004"/>
					<path fill="#8F8F90" d="M9.981,14.004v23.994c-0.057,0-0.113,0-0.168,0V14.004C9.868,14.004,9.924,14.004,9.981,14.004"/>
					<path fill="#8A8B8B" d="M9.813,14.004v23.994c-0.061,0-0.121,0-0.18,0V14.004C9.691,14.004,9.751,14.004,9.813,14.004"/>
					<path fill="#858687" d="M9.633,14.004v23.994c-0.064,0-0.127,0-0.188,0V14.004C9.506,14.004,9.568,14.004,9.633,14.004"/>
					<path fill="#818182" d="M9.444,14.004v23.994c-0.071,0-0.139,0-0.206,0V14.004C9.305,14.004,9.374,14.004,9.444,14.004"/>
					<path fill="#7C7D7D" d="M9.239,14.004v23.994c-0.084,0-0.165,0-0.241,0V14.004C9.074,14.004,9.154,14.004,9.239,14.004"/>
					<path fill="#787879" d="M8.998,14.004v23.994c-0.526,0-0.839,0-0.839,0V14.004C8.158,14.004,8.472,14.004,8.998,14.004"/>
				</g>
			</g>
			<g enable-background="new    ">
				<defs>
					<path id="SVGID_11_" enable-background="new    " d="M12.158,14.004c-2.209,0-4,0-4,0c0-3.321,2.691-6.003,6.003-6.003
						c0,0,0,1.791,0,4C13.06,11.999,12.156,12.898,12.158,14.004z"/>
				</defs>
				<clipPath id="SVGID_12_">
					<use xlink:href="#SVGID_11_"  overflow="visible"/>
				</clipPath>
				<g clip-path="url(#SVGID_12_)" enable-background="new    ">
					<path fill="#EEEFEF" d="M12.158,14.004c-2.209,0-4,0-4,0c0-3.321,2.691-6.003,6.003-6.003c0,0,0,1.791,0,4
						C13.06,11.999,12.156,12.898,12.158,14.004"/>
					<path fill="#EEEFEF" d="M14.161,11.006c-0.064,0.252-0.064,0.252,0,0.324c0,0.218,0,0.442,0,0.671
						c-1.101-0.002-2.005,0.897-2.003,2.003c-2.209,0-4,0-4,0c0-3.321,2.691-6.003,6.003-6.003
						C14.161,8.001,14.161,9.278,14.161,11.006"/>
					<path fill="#EDEEEF" d="M14.161,10.834c-0.049,0.13-0.191,0.211-0.191,0.367c0,0.141,0.104,0.234,0.191,0.287
						c0,0.168,0,0.339,0,0.513c-1.101-0.002-2.005,0.897-2.003,2.003c-2.209,0-4,0-4,0c0-3.321,2.691-6.003,6.003-6.003
						C14.161,8.001,14.161,9.194,14.161,10.834"/>
					<path fill="#EDEDEE" d="M14.161,10.716c-0.085,0.186-0.342,0.255-0.342,0.499c0,0.108,0,0.256,0.342,0.386
						c0,0.131,0,0.265,0,0.4c-1.101-0.002-2.005,0.897-2.003,2.003c-2.209,0-4,0-4,0c0-3.321,2.691-6.003,6.003-6.003
						C14.161,8.001,14.161,9.137,14.161,10.716"/>
					<path fill="#ECEDEE" d="M14.161,10.614c-0.018,0.034-0.072,0.052-0.104,0.074c-0.04,0.029-0.396,0.296-0.396,0.683
						c0,0.165,0.242,0.241,0.499,0.322c0,0.102,0,0.204,0,0.308c-1.101-0.002-2.005,0.897-2.003,2.003c-2.209,0-4,0-4,0
						c0-3.321,2.691-6.003,6.003-6.003C14.161,8.001,14.161,9.088,14.161,10.614"/>
					<path fill="#EBECED" d="M14.161,10.52c-0.013,0.022-0.051,0.032-0.073,0.045c-0.24,0.15-0.596,0.521-0.596,0.84
						c0,0.249,0.102,0.267,0.669,0.372c0,0.074,0,0.149,0,0.224c-1.101-0.002-2.005,0.897-2.003,2.003c-2.209,0-4,0-4,0
						c0-3.321,2.691-6.003,6.003-6.003C14.161,8.001,14.161,9.043,14.161,10.52"/>
					<path fill="#EAEBEC" d="M14.161,10.429c-0.005,0.008-0.019,0.011-0.027,0.015c-0.083,0.046-0.816,0.474-0.816,1.157
						c0,0.167,0,0.167,0.844,0.255c0,0.048,0,0.097,0,0.145c-1.101-0.002-2.005,0.897-2.003,2.003c-2.209,0-4,0-4,0
						c0-3.321,2.691-6.003,6.003-6.003C14.161,8.001,14.161,9.001,14.161,10.429"/>
					<path fill="#E9EAEB" d="M14.161,10.338c-0.032,0.055-0.128,0.073-0.183,0.105c-0.643,0.369-1.065,1.299-0.786,1.5
						c0,0,0.133,0.048,0.337,0.024c0.322-0.039,0.419-0.042,0.632-0.035c0,0.023,0,0.046,0,0.069
						c-1.101-0.002-2.005,0.897-2.003,2.003c-2.209,0-4,0-4,0c0-3.321,2.691-6.003,6.003-6.003
						C14.161,8.001,14.161,8.958,14.161,10.338"/>
					<path fill="#E6E7E8" d="M14.161,10.244c-0.028,0.046-0.111,0.059-0.159,0.085c-0.093,0.049-0.573,0.327-0.895,0.931
						c-0.027,0.051-0.061,0.121-0.083,0.174c-0.124,0.306-0.13,0.635-0.193,0.953c-0.012,0.063-0.039,0.096-0.168,0.253
						c-0.181,0.222-0.313,0.448-0.391,0.672c-0.111,0.321-0.116,0.544-0.119,0.691c-2.207,0-3.994,0-3.994,0
						c0-3.321,2.691-6.003,6.003-6.003C14.161,8.001,14.161,8.915,14.161,10.244"/>
					<path fill="#E1E2E3" d="M14.161,10.144c-0.023,0.038-0.092,0.046-0.132,0.067c-0.201,0.102-0.709,0.415-1.088,1.119
						c-0.009,0.016-0.865,1.742-0.854,2.674c-2.177,0-3.929,0-3.929,0c0-3.321,2.691-6.003,6.003-6.003
						C14.161,8.001,14.161,8.87,14.161,10.144"/>
					<path fill="#DDDEDF" d="M14.161,10.037c-0.021,0.034-0.084,0.042-0.121,0.059c-0.351,0.172-0.874,0.583-1.192,1.174
						c-0.009,0.017-0.885,1.73-0.826,2.734c-2.146,0-3.864,0-3.864,0c0-3.321,2.691-6.003,6.003-6.003
						C14.161,8.001,14.161,8.821,14.161,10.037"/>
					<path fill="#D8D9DA" d="M14.161,9.917c-0.024,0.039-0.096,0.046-0.137,0.066c-0.194,0.095-0.863,0.471-1.323,1.323
						c-0.008,0.015-0.822,1.556-0.749,2.697c-2.114,0-3.794,0-3.794,0c0-3.321,2.691-6.003,6.003-6.003
						C14.161,8.001,14.161,8.768,14.161,9.917"/>
					<path fill="#D4D5D5" d="M14.161,9.781c-0.033,0.054-0.133,0.066-0.19,0.095c-0.257,0.129-0.912,0.53-1.419,1.47
						c-0.008,0.015-0.777,1.479-0.669,2.658c-2.081,0-3.725,0-3.725,0c0-3.321,2.691-6.003,6.003-6.003
						C14.161,8.001,14.161,8.708,14.161,9.781"/>
					<path fill="#CFD0D1" d="M14.161,9.625c-0.013,0.02-0.05,0.024-0.071,0.035c-1.04,0.517-1.501,1.375-1.652,1.656
						c-0.007,0.014-0.757,1.426-0.63,2.688c-2.045,0-3.649,0-3.649,0c0-3.321,2.691-6.003,6.003-6.003
						C14.161,8.001,14.161,8.64,14.161,9.625"/>
					<path fill="#CACBCC" d="M14.161,9.451c-0.038,0.063-0.152,0.078-0.218,0.111c-0.227,0.116-1.014,0.578-1.594,1.663
						c-0.36,0.675-0.739,1.807-0.621,2.779c-2.007,0-3.57,0-3.57,0c0-3.321,2.691-6.003,6.003-6.003
						C14.161,8.001,14.161,8.565,14.161,9.451"/>
					<path fill="#C6C7C8" d="M14.161,9.272c-0.034,0.054-0.133,0.063-0.19,0.091c-0.243,0.116-1.088,0.587-1.725,1.784
						c-0.129,0.242-0.765,1.52-0.604,2.857c-1.966,0-3.484,0-3.484,0c0-3.321,2.691-6.003,6.003-6.003
						C14.161,8.001,14.161,8.49,14.161,9.272"/>
					<path fill="#C1C2C3" d="M14.161,9.104c-0.03,0.045-0.118,0.05-0.168,0.071c-0.333,0.141-1.177,0.603-1.84,1.847
						c-0.389,0.73-0.752,1.897-0.604,2.982c-1.92,0-3.391,0-3.391,0c0-3.321,2.691-6.003,6.003-6.003
						C14.161,8.001,14.161,8.42,14.161,9.104"/>
					<path fill="#BDBDBE" d="M14.161,8.952c-0.023,0.034-0.089,0.033-0.127,0.047c-0.55,0.201-1.339,0.69-1.978,1.88
						c-0.408,0.76-0.782,1.98-0.608,3.125c-1.871,0-3.291,0-3.291,0c0-3.321,2.691-6.003,6.003-6.003
						C14.161,8.001,14.161,8.359,14.161,8.952"/>
					<path fill="#B8B9BA" d="M14.161,8.817c-0.011,0.014-0.04,0.012-0.057,0.017c-0.895,0.275-1.619,0.911-2.152,1.891
						c-0.428,0.786-0.814,2.06-0.615,3.279c-1.816,0-3.18,0-3.18,0c0-3.321,2.691-6.003,6.003-6.003
						C14.161,8.001,14.161,8.305,14.161,8.817"/>
					<path fill="#B3B4B5" d="M14.161,8.696c-0.042,0.056-0.156,0.046-0.223,0.066c-0.393,0.117-1.382,0.527-2.092,1.805
						c-0.581,1.047-0.817,2.332-0.63,3.437c-1.755,0-3.058,0-3.058,0c0-3.321,2.691-6.003,6.003-6.003
						C14.161,8.001,14.161,8.257,14.161,8.696"/>
					<path fill="#AFB0B0" d="M14.161,8.587c-0.022,0.028-0.08,0.02-0.115,0.028c-0.935,0.23-1.797,0.902-2.305,1.796
						c-0.623,1.095-0.863,2.404-0.66,3.593c-1.687,0-2.923,0-2.923,0c0-3.321,2.691-6.003,6.003-6.003
						C14.161,8.001,14.161,8.215,14.161,8.587"/>
					<path fill="#AAABAC" d="M14.161,8.488c-0.052,0.066-0.192,0.046-0.274,0.065c-0.341,0.082-1.517,0.455-2.328,1.843
						c-0.289,0.494-0.927,1.835-0.622,3.607c-1.612,0-2.779,0-2.779,0c0-3.321,2.691-6.003,6.003-6.003
						C14.161,8.001,14.161,8.178,14.161,8.488"/>
					<path fill="#A6A6A7" d="M14.161,8.399c-0.026,0.032-0.095,0.018-0.135,0.026c-0.619,0.119-1.78,0.524-2.608,1.9
						c-0.296,0.491-0.949,1.832-0.631,3.678c-1.534,0-2.628,0-2.628,0c0-3.321,2.691-6.003,6.003-6.003
						C14.161,8.001,14.161,8.144,14.161,8.399"/>
					<path fill="#A1A2A2" d="M14.161,8.319c-0.057,0.068-0.203,0.038-0.29,0.054c-0.268,0.05-1.654,0.375-2.571,1.851
						c-0.389,0.625-0.992,1.948-0.67,3.779c-1.451,0-2.472,0-2.472,0c0-3.321,2.691-6.003,6.003-6.003
						C14.161,8.001,14.161,8.114,14.161,8.319"/>
					<path fill="#9C9D9E" d="M14.161,8.248c-0.028,0.033-0.101,0.015-0.144,0.021c-1.113,0.162-2.182,0.852-2.791,1.802
						c-0.752,1.173-1.006,2.497-0.754,3.934c-1.367,0-2.314,0-2.314,0c0-3.321,2.691-6.003,6.003-6.003
						C14.161,8.001,14.161,8.088,14.161,8.248"/>
					<path fill="#989899" d="M14.161,8.184c-0.059,0.068-0.208,0.029-0.297,0.042c-0.292,0.041-1.802,0.324-2.815,1.856
						c-0.512,0.772-1.054,2.081-0.737,3.922c-1.28,0-2.153,0-2.153,0c0-3.321,2.691-6.003,6.003-6.003
						C14.161,8.001,14.161,8.065,14.161,8.184"/>
					<path fill="#939494" d="M14.161,8.127c-0.036,0.04-0.124,0.013-0.177,0.019c-0.577,0.062-2.033,0.37-3.08,1.903
						c-0.734,1.075-1.017,2.554-0.755,3.954c-1.191,0-1.991,0-1.991,0c0-3.321,2.691-6.003,6.003-6.003
						C14.161,8.001,14.161,8.045,14.161,8.127"/>
					<path fill="#8F8F90" d="M14.161,8.08c-0.062,0.068-0.212,0.021-0.303,0.03c-0.314,0.031-1.938,0.264-3.042,1.831
						c-0.556,0.789-1.152,2.133-0.832,4.063c-1.099,0-1.825,0-1.825,0c0-3.321,2.691-6.003,6.003-6.003
						C14.161,8.001,14.161,8.028,14.161,8.08"/>
					<path fill="#8A8B8B" d="M14.161,8.042c-0.061,0.065-0.208,0.016-0.296,0.023c-0.901,0.069-2.262,0.575-3.135,1.773
						c-0.867,1.188-1.175,2.59-0.916,4.166c-1.003,0-1.655,0-1.655,0c0-3.321,2.691-6.003,6.003-6.003
						C14.161,8.001,14.161,8.015,14.161,8.042"/>
					<path fill="#858687" d="M14.161,8.015c-0.046,0.049-0.156,0.008-0.224,0.011c-1.26,0.061-2.561,0.743-3.312,1.738
						c-0.919,1.217-1.252,2.644-0.989,4.24c-0.902,0-1.478,0-1.478,0c0-3.321,2.691-6.003,6.003-6.003
						C14.161,8.001,14.161,8.006,14.161,8.015"/>
					<path fill="#818182" d="M14.161,8.001c-0.046,0.047-0.153,0.004-0.219,0.006c-0.8,0.021-2.324,0.288-3.548,1.847
						c-0.398,0.507-1.288,1.928-0.946,4.15c-0.793,0-1.291,0-1.291,0C8.158,10.683,10.849,8.001,14.161,8.001
						C14.161,8.001,14.161,8.001,14.161,8.001"/>
					<path fill="#7C7D7D" d="M13.248,8.07c-3.158,0.566-4.404,3.414-4.003,5.934c-0.674,0-1.086,0-1.086,0
						c0-3.072,2.302-5.597,5.269-5.958C13.373,8.053,13.301,8.062,13.248,8.07"/>
					<path fill="#787879" d="M12.099,8.366C9.9,9.216,8.656,11.482,9.004,14.004c-0.53,0-0.846,0-0.846,0
						c0-2.693,1.77-4.966,4.205-5.729C12.284,8.302,12.178,8.337,12.099,8.366"/>
				</g>
			</g>
			<g enable-background="new    ">
				<defs>
					<path id="SVGID_13_" enable-background="new    " d="M14.161,12.001c0-2.209,0-4,0-4h23.004c0,0,0,1.791,0,4H14.161z"/>
				</defs>
				<clipPath id="SVGID_14_">
					<use xlink:href="#SVGID_13_"  overflow="visible"/>
				</clipPath>
				<g clip-path="url(#SVGID_14_)" enable-background="new    ">
					<path fill="#E9EAEB" d="M37.165,12.001H14.161c0-0.024,0-0.048,0-0.073h23.004C37.165,11.953,37.165,11.977,37.165,12.001"/>
					<path fill="#EAEBEC" d="M37.165,11.928H14.161c0-0.026,0-0.053,0-0.079h23.004C37.165,11.875,37.165,11.902,37.165,11.928"/>
					<path fill="#EBECED" d="M37.165,11.849H14.161c0-0.027,0-0.053,0-0.079h23.004C37.165,11.796,37.165,11.822,37.165,11.849"/>
					<path fill="#ECEDEE" d="M37.165,11.77H14.161c0-0.026,0-0.053,0-0.079h23.004C37.165,11.717,37.165,11.744,37.165,11.77"/>
					<path fill="#EDEDEE" d="M37.165,11.691H14.161c0-0.038,0-0.075,0-0.112h23.004C37.165,11.617,37.165,11.654,37.165,11.691"/>
					<path fill="#EDEEEF" d="M37.165,11.58H14.161c0-0.04,0-0.081,0-0.121h23.004C37.165,11.499,37.165,11.54,37.165,11.58"/>
					<path fill="#EEEFEF" d="M37.165,11.459H14.161c0-0.085,0-0.169,0-0.252h23.004C37.165,11.29,37.165,11.374,37.165,11.459"/>
					<path fill="#EEEFF0" d="M37.165,11.207H14.161c0-0.063,0-0.125,0-0.187h23.004C37.165,11.082,37.165,11.144,37.165,11.207"/>
					<path fill="#EEEFEF" d="M37.165,11.02H14.161c0-0.053,0-0.105,0-0.157h23.004C37.165,10.915,37.165,10.967,37.165,11.02"/>
					<path fill="#EDEEEF" d="M37.165,10.863H14.161c0-0.049,0-0.097,0-0.145h23.004C37.165,10.766,37.165,10.814,37.165,10.863"/>
					<path fill="#EDEDEE" d="M37.165,10.718H14.161c0-0.033,0-0.065,0-0.097h23.004C37.165,10.653,37.165,10.686,37.165,10.718"/>
					<path fill="#ECEDEE" d="M37.165,10.621H14.161c0-0.032,0-0.064,0-0.096h23.004C37.165,10.557,37.165,10.589,37.165,10.621"/>
					<path fill="#EBECED" d="M37.165,10.525H14.161c0-0.032,0-0.063,0-0.095h23.004C37.165,10.462,37.165,10.494,37.165,10.525"/>
					<path fill="#EAEBEC" d="M37.165,10.431H14.161c0-0.032,0-0.064,0-0.095h23.004C37.165,10.367,37.165,10.398,37.165,10.431"/>
					<path fill="#E9EAEB" d="M37.165,10.335H14.161c0-0.032,0-0.063,0-0.094h23.004C37.165,10.272,37.165,10.304,37.165,10.335"/>
					<path fill="#E6E7E8" d="M37.165,10.241H14.161c0-0.032,0-0.064,0-0.096h23.004C37.165,10.177,37.165,10.209,37.165,10.241"/>
					<path fill="#E1E2E3" d="M37.165,10.145H14.161c0-0.039,0-0.077,0-0.115h23.004C37.165,10.068,37.165,10.106,37.165,10.145"/>
					<path fill="#DDDEDF" d="M37.165,10.03H14.161c0-0.038,0-0.076,0-0.113h23.004C37.165,9.954,37.165,9.992,37.165,10.03"/>
					<path fill="#D8D9DA" d="M37.165,9.917H14.161c0-0.048,0-0.096,0-0.143h23.004C37.165,9.821,37.165,9.868,37.165,9.917"/>
					<path fill="#D4D5D5" d="M37.165,9.774H14.161c0-0.05,0-0.1,0-0.149h23.004C37.165,9.674,37.165,9.724,37.165,9.774"/>
					<path fill="#CFD0D1" d="M37.165,9.625H14.161c0-0.06,0-0.119,0-0.176h23.004C37.165,9.506,37.165,9.565,37.165,9.625"/>
					<path fill="#CACBCC" d="M37.165,9.449H14.161c0-0.061,0-0.119,0-0.176h23.004C37.165,9.33,37.165,9.389,37.165,9.449"/>
					<path fill="#C6C7C8" d="M37.165,9.273H14.161c0-0.057,0-0.113,0-0.167h23.004C37.165,9.16,37.165,9.216,37.165,9.273"/>
					<path fill="#C1C2C3" d="M37.165,9.106H14.161c0-0.053,0-0.104,0-0.153h23.004C37.165,9.002,37.165,9.053,37.165,9.106"/>
					<path fill="#BDBDBE" d="M37.165,8.953H14.161c0-0.046,0-0.091,0-0.134h23.004C37.165,8.862,37.165,8.906,37.165,8.953"/>
					<path fill="#B8B9BA" d="M37.165,8.818H14.161c0-0.042,0-0.083,0-0.122h23.004C37.165,8.736,37.165,8.776,37.165,8.818"/>
					<path fill="#B3B4B5" d="M37.165,8.697H14.161c0-0.038,0-0.075,0-0.11h23.004C37.165,8.622,37.165,8.659,37.165,8.697"/>
					<path fill="#AFB0B0" d="M37.165,8.587H14.161c0-0.034,0-0.067,0-0.098h23.004C37.165,8.52,37.165,8.553,37.165,8.587"/>
					<path fill="#AAABAC" d="M37.165,8.489H14.161c0-0.031,0-0.061,0-0.089h23.004C37.165,8.428,37.165,8.458,37.165,8.489"/>
					<path fill="#A6A6A7" d="M37.165,8.399H14.161c0-0.028,0-0.055,0-0.08h23.004C37.165,8.345,37.165,8.372,37.165,8.399"/>
					<path fill="#A1A2A2" d="M37.165,8.319H14.161c0-0.025,0-0.049,0-0.072h23.004C37.165,8.27,37.165,8.294,37.165,8.319"/>
					<path fill="#9C9D9E" d="M37.165,8.247H14.161c0-0.022,0-0.044,0-0.064h23.004C37.165,8.203,37.165,8.225,37.165,8.247"/>
					<path fill="#989899" d="M37.165,8.183H14.161c0-0.02,0-0.039,0-0.056h23.004C37.165,8.145,37.165,8.163,37.165,8.183"/>
					<path fill="#939494" d="M37.165,8.127H14.161c0-0.018,0-0.034,0-0.048h23.004C37.165,8.094,37.165,8.11,37.165,8.127"/>
					<path fill="#8F8F90" d="M37.165,8.08H14.161c0-0.015,0-0.027,0-0.038h23.004C37.165,8.052,37.165,8.065,37.165,8.08"/>
					<path fill="#8A8B8B" d="M37.165,8.042H14.161c0-0.012,0-0.021,0-0.027h23.004C37.165,8.021,37.165,8.03,37.165,8.042"/>
					<path fill="#858687" d="M37.165,8.015H14.161c0-0.007,0-0.012,0-0.013h23.004C37.165,8.003,37.165,8.007,37.165,8.015"/>
					<polyline fill="#818182" points="37.165,8.001 14.161,8.001 14.161,8.001 37.165,8.001 37.165,8.001 					"/>
				</g>
			</g>
			<g enable-background="new    ">
				<defs>
					<path id="SVGID_15_" enable-background="new    " d="M14.161,40.001c0,2.21,0,4,0,4c-3.312,0-6.003-2.691-6.003-6.003
						c0,0,1.791,0,4,0C12.154,39.095,13.064,40.005,14.161,40.001z"/>
				</defs>
				<clipPath id="SVGID_16_">
					<use xlink:href="#SVGID_15_"  overflow="visible"/>
				</clipPath>
				<g clip-path="url(#SVGID_16_)" enable-background="new    ">
					<path fill="#E6E7E8" d="M14.161,40.001c0,2.21,0,4,0,4c-3.312,0-6.003-2.691-6.003-6.003c0,0,1.791,0,4,0
						C12.154,39.095,13.064,40.005,14.161,40.001"/>
					<path fill="#E6E7E8" d="M12.152,37.998c0.022,0.021,0.002,0.072,0.002,0.103c0.018,0.749,0.668,1.874,2.006,1.907
						c0,2.206,0,3.993,0,3.993c-3.312,0-6.003-2.691-6.003-6.003C8.158,37.998,9.945,37.998,12.152,37.998"/>
					<path fill="#E1E2E3" d="M12.087,37.998c0.023,0.022,0.003,0.074,0.004,0.105c0.029,0.777,0.69,1.904,2.07,1.979
						c0,2.172,0,3.918,0,3.918c-3.312,0-6.003-2.691-6.003-6.003C8.158,37.998,9.91,37.998,12.087,37.998"/>
					<path fill="#DDDEDF" d="M12.022,37.998c0.024,0.022,0.004,0.076,0.005,0.109c0.036,0.729,0.647,1.931,2.134,2.052
						c0,2.137,0,3.842,0,3.842c-3.312,0-6.003-2.691-6.003-6.003C8.158,37.998,9.875,37.998,12.022,37.998"/>
					<path fill="#D8D9DA" d="M11.953,37.998c0.024,0.023,0.005,0.079,0.007,0.112c0.045,0.741,0.683,1.974,2.202,2.126
						c0,2.101,0,3.765,0,3.765c-3.312,0-6.003-2.691-6.003-6.003C8.158,37.998,9.838,37.998,11.953,37.998"/>
					<path fill="#D4D5D5" d="M11.883,37.998c0.025,0.023,0.006,0.081,0.008,0.116c0.056,0.78,0.707,2.011,2.27,2.202
						c0,2.062,0,3.685,0,3.685c-3.312,0-6.003-2.691-6.003-6.003C8.158,37.998,9.802,37.998,11.883,37.998"/>
					<path fill="#CFD0D1" d="M11.806,37.998c0.027,0.024,0.007,0.084,0.011,0.12c0.069,0.801,0.751,2.069,2.344,2.279
						c0,2.023,0,3.604,0,3.604c-3.312,0-6.003-2.691-6.003-6.003C8.158,37.998,9.762,37.998,11.806,37.998"/>
					<path fill="#CACBCC" d="M11.728,37.998c0.027,0.025,0.009,0.087,0.013,0.124c0.074,0.705,0.675,2.106,2.421,2.364
						c0,1.98,0,3.515,0,3.515c-3.312,0-6.003-2.691-6.003-6.003C8.158,37.998,9.721,37.998,11.728,37.998"/>
					<path fill="#C6C7C8" d="M11.642,37.998c0.029,0.025,0.01,0.09,0.014,0.128c0.079,0.719,0.703,2.156,2.505,2.453
						c0,1.936,0,3.422,0,3.422c-3.312,0-6.003-2.691-6.003-6.003C8.158,37.998,9.676,37.998,11.642,37.998"/>
					<path fill="#C1C2C3" d="M11.548,37.998c0.03,0.026,0.012,0.093,0.017,0.133c0.129,1.041,0.997,2.282,2.596,2.547
						c0,1.888,0,3.323,0,3.323c-3.312,0-6.003-2.691-6.003-6.003C8.158,37.998,9.628,37.998,11.548,37.998"/>
					<path fill="#BDBDBE" d="M11.448,37.998c0.031,0.027,0.013,0.097,0.019,0.138c0.115,0.823,0.813,2.308,2.694,2.653
						c0,1.832,0,3.212,0,3.212c-3.312,0-6.003-2.691-6.003-6.003C8.158,37.998,9.577,37.998,11.448,37.998"/>
					<path fill="#B8B9BA" d="M11.337,37.998c0.026,0.022,0.012,0.08,0.017,0.115c0.128,0.854,0.864,2.406,2.807,2.796
						c0,1.772,0,3.092,0,3.092c-3.312,0-6.003-2.691-6.003-6.003C8.158,37.998,9.521,37.998,11.337,37.998"/>
					<path fill="#B3B4B5" d="M11.214,37.998c0.013,0.011,0.006,0.039,0.008,0.057c0.18,1.176,1.046,2.578,2.938,2.986
						c0,1.705,0,2.96,0,2.96c-3.312,0-6.003-2.691-6.003-6.003C8.158,37.998,9.46,37.998,11.214,37.998"/>
					<path fill="#AFB0B0" d="M11.08,37.998c0.021,0.019,0.011,0.064,0.016,0.093c0.206,1.204,1.119,2.648,3.065,3.093
						c0,1.632,0,2.817,0,2.817c-3.312,0-6.003-2.691-6.003-6.003C8.158,37.998,9.395,37.998,11.08,37.998"/>
					<path fill="#AAABAC" d="M10.936,37.998c0.039,0.032,0.022,0.115,0.031,0.164c0.081,0.423,0.613,2.563,3.194,3.175
						c0,1.553,0,2.664,0,2.664c-3.312,0-6.003-2.691-6.003-6.003C8.158,37.998,9.324,37.998,10.936,37.998"/>
					<path fill="#A6A6A7" d="M10.785,37.998c0.04,0.033,0.023,0.12,0.033,0.172c0.085,0.437,0.648,2.648,3.343,3.326
						c0,1.469,0,2.505,0,2.505c-3.312,0-6.003-2.691-6.003-6.003C8.158,37.998,9.252,37.998,10.785,37.998"/>
					<path fill="#A1A2A2" d="M10.629,37.998c0.042,0.035,0.025,0.126,0.036,0.18c0.091,0.457,0.686,2.772,3.496,3.48
						c0,1.383,0,2.343,0,2.343c-3.312,0-6.003-2.691-6.003-6.003C8.158,37.998,9.179,37.998,10.629,37.998"/>
					<path fill="#9C9D9E" d="M10.471,37.998c0.015,0.013,0.008,0.045,0.012,0.063c0.269,1.448,1.376,3.197,3.678,3.761
						c0,1.294,0,2.179,0,2.179c-3.312,0-6.003-2.691-6.003-6.003C8.158,37.998,9.105,37.998,10.471,37.998"/>
					<path fill="#989899" d="M10.311,37.998c0.046,0.038,0.027,0.137,0.039,0.195c0.101,0.501,0.757,3.035,3.812,3.794
						c0,1.203,0,2.014,0,2.014c-3.312,0-6.003-2.691-6.003-6.003C8.158,37.998,9.031,37.998,10.311,37.998"/>
					<path fill="#939494" d="M10.148,37.998c0.048,0.04,0.028,0.143,0.04,0.204c0.288,1.464,1.5,3.378,3.973,3.951
						c0,1.111,0,1.848,0,1.848c-3.312,0-6.003-2.691-6.003-6.003C8.158,37.998,8.958,37.998,10.148,37.998"/>
					<path fill="#8F8F90" d="M9.982,37.998c0.05,0.041,0.029,0.148,0.042,0.213c0.297,1.515,1.559,3.5,4.137,4.11
						c0,1.017,0,1.68,0,1.68c-3.312,0-6.003-2.691-6.003-6.003C8.158,37.998,8.884,37.998,9.982,37.998"/>
					<path fill="#8A8B8B" d="M9.813,37.998c0.052,0.043,0.029,0.155,0.042,0.222c0.065,0.351,0.746,3.448,4.307,4.272
						c0,0.92,0,1.509,0,1.509c-3.312,0-6.003-2.691-6.003-6.003C8.158,37.998,8.81,37.998,9.813,37.998"/>
					<path fill="#858687" d="M9.636,37.998c0.054,0.045,0.029,0.161,0.042,0.23c0.319,1.754,1.859,3.892,4.483,4.44
						c0,0.817,0,1.332,0,1.332c-3.312,0-6.003-2.691-6.003-6.003C8.158,37.998,8.734,37.998,9.636,37.998"/>
					<path fill="#818182" d="M9.448,37.998c0.056,0.047,0.029,0.168,0.042,0.24c0.323,1.843,1.922,4.073,4.671,4.616
						c0,0.709,0,1.146,0,1.146c-3.312,0-6.003-2.691-6.003-6.003C8.158,37.998,8.655,37.998,9.448,37.998"/>
					<path fill="#7C7D7D" d="M9.244,37.998c0.058,0.05,0.028,0.176,0.041,0.251c0.223,1.377,1.528,4.153,4.876,4.806
						c0,0.591,0,0.946,0,0.946c-3.312,0-6.003-2.691-6.003-6.003C8.158,37.998,8.571,37.998,9.244,37.998"/>
					<path fill="#787879" d="M9.004,37.998c0.061,0.052,0.027,0.185,0.039,0.264c0.25,1.701,1.818,4.442,5.118,5.024
						c0,0.451,0,0.715,0,0.715c-3.312,0-6.003-2.691-6.003-6.003C8.158,37.998,8.474,37.998,9.004,37.998"/>
				</g>
			</g>
			<g enable-background="new    ">
				<defs>
					<path id="SVGID_17_" enable-background="new    " d="M39.159,14.004c2.21,0,4,0,4,0v23.994c0,0-1.79,0-4,0V14.004z"/>
				</defs>
				<clipPath id="SVGID_18_">
					<use xlink:href="#SVGID_17_"  overflow="visible"/>
				</clipPath>
				<g clip-path="url(#SVGID_18_)" enable-background="new    ">
					<path fill="#E9EAEB" d="M39.159,37.998V14.004c0.02,0,0.038,0,0.058,0v23.994C39.197,37.998,39.179,37.998,39.159,37.998"/>
					<path fill="#EAEBEC" d="M39.217,37.998V14.004c0.021,0,0.042,0,0.063,0v23.994C39.259,37.998,39.238,37.998,39.217,37.998"/>
					<path fill="#EBECED" d="M39.28,37.998V14.004c0.021,0,0.042,0,0.063,0v23.994C39.322,37.998,39.301,37.998,39.28,37.998"/>
					<path fill="#ECEDEE" d="M39.343,37.998V14.004c0.021,0,0.042,0,0.063,0v23.994C39.385,37.998,39.364,37.998,39.343,37.998"/>
					<path fill="#EDEDEE" d="M39.406,37.998V14.004c0.021,0,0.041,0,0.063,0v23.994C39.447,37.998,39.427,37.998,39.406,37.998"/>
					<path fill="#EDEEEF" d="M39.469,37.998V14.004c0.024,0,0.049,0,0.073,0v23.994C39.518,37.998,39.493,37.998,39.469,37.998"/>
					<path fill="#EEEFEF" d="M39.542,37.998V14.004c0.026,0,0.053,0,0.079,0v23.994C39.595,37.998,39.568,37.998,39.542,37.998"/>
					<path fill="#EEEFF0" d="M39.621,37.998V14.004c0.026,0,0.052,0,0.078,0v23.994C39.673,37.998,39.647,37.998,39.621,37.998"/>
					<path fill="#EFF0F0" d="M39.699,37.998V14.004c0.025,0,0.052,0,0.077,0v23.994C39.751,37.998,39.725,37.998,39.699,37.998"/>
					<path fill="#EFF0F1" d="M39.776,37.998V14.004c0.054,0,0.106,0,0.158,0v23.994C39.883,37.998,39.83,37.998,39.776,37.998"/>
					<path fill="#F0F1F1" d="M39.935,37.998V14.004c0.125,0,0.248,0,0.368,0v23.994C40.183,37.998,40.06,37.998,39.935,37.998"/>
					<path fill="#EFF0F1" d="M40.303,37.998V14.004c0.053,0,0.105,0,0.157,0v23.994C40.408,37.998,40.355,37.998,40.303,37.998"/>
					<path fill="#EFF0F0" d="M40.46,37.998V14.004c0.03,0,0.06,0,0.089,0v23.994C40.52,37.998,40.49,37.998,40.46,37.998"/>
					<path fill="#EEEFF0" d="M40.549,37.998V14.004c0.03,0,0.06,0,0.089,0v23.994C40.608,37.998,40.579,37.998,40.549,37.998"/>
					<path fill="#EEEFEF" d="M40.638,37.998V14.004c0.028,0,0.058,0,0.086,0v23.994C40.695,37.998,40.666,37.998,40.638,37.998"/>
					<path fill="#EDEEEF" d="M40.724,37.998V14.004c0.026,0,0.052,0,0.077,0v23.994C40.775,37.998,40.75,37.998,40.724,37.998"/>
					<path fill="#EDEDEE" d="M40.801,37.998V14.004c0.025,0,0.051,0,0.076,0v23.994C40.852,37.998,40.826,37.998,40.801,37.998"/>
					<path fill="#ECEDEE" d="M40.877,37.998V14.004c0.025,0,0.051,0,0.076,0v23.994C40.928,37.998,40.902,37.998,40.877,37.998"/>
					<path fill="#EBECED" d="M40.953,37.998V14.004c0.027,0,0.054,0,0.081,0v23.994C41.007,37.998,40.98,37.998,40.953,37.998"/>
					<path fill="#EAEBEC" d="M41.034,37.998V14.004c0.029,0,0.06,0,0.089,0v23.994C41.094,37.998,41.063,37.998,41.034,37.998"/>
					<path fill="#E9EAEB" d="M41.123,37.998V14.004c0.029,0,0.059,0,0.088,0v23.994C41.182,37.998,41.152,37.998,41.123,37.998"/>
					<path fill="#E6E7E8" d="M41.211,37.998V14.004c0.033,0,0.065,0,0.099,0v23.994C41.276,37.998,41.244,37.998,41.211,37.998"/>
					<path fill="#E1E2E3" d="M41.31,37.998V14.004c0.04,0,0.079,0,0.119,0v23.994C41.389,37.998,41.35,37.998,41.31,37.998"/>
					<path fill="#DDDEDF" d="M41.429,37.998V14.004c0.042,0,0.083,0,0.124,0v23.994C41.512,37.998,41.471,37.998,41.429,37.998"/>
					<path fill="#D8D9DA" d="M41.553,37.998V14.004c0.053,0,0.105,0,0.156,0v23.994C41.658,37.998,41.605,37.998,41.553,37.998"/>
					<path fill="#D4D5D5" d="M41.709,37.998V14.004c0.057,0,0.112,0,0.166,0v23.994C41.821,37.998,41.766,37.998,41.709,37.998"/>
					<path fill="#CFD0D1" d="M41.875,37.998V14.004c0.057,0,0.112,0,0.167,0v23.994C41.987,37.998,41.932,37.998,41.875,37.998"/>
					<path fill="#CACBCC" d="M42.042,37.998V14.004c0.054,0,0.106,0,0.156,0v23.994C42.148,37.998,42.096,37.998,42.042,37.998"/>
					<path fill="#C6C7C8" d="M42.198,37.998V14.004c0.048,0,0.093,0,0.137,0v23.994C42.291,37.998,42.246,37.998,42.198,37.998"/>
					<path fill="#C1C2C3" d="M42.335,37.998V14.004c0.043,0,0.083,0,0.123,0v23.994C42.418,37.998,42.378,37.998,42.335,37.998"/>
					<path fill="#BDBDBE" d="M42.458,37.998V14.004c0.038,0,0.074,0,0.11,0v23.994C42.532,37.998,42.496,37.998,42.458,37.998"/>
					<path fill="#B8B9BA" d="M42.568,37.998V14.004c0.033,0,0.065,0,0.096,0v23.994C42.634,37.998,42.602,37.998,42.568,37.998"/>
					<path fill="#B3B4B5" d="M42.664,37.998V14.004c0.03,0,0.06,0,0.088,0v23.994C42.724,37.998,42.694,37.998,42.664,37.998"/>
					<path fill="#AFB0B0" d="M42.752,37.998V14.004c0.027,0,0.053,0,0.078,0v23.994C42.805,37.998,42.779,37.998,42.752,37.998"/>
					<path fill="#AAABAC" d="M42.83,37.998V14.004c0.024,0,0.047,0,0.069,0v23.994C42.877,37.998,42.854,37.998,42.83,37.998"/>
					<path fill="#A6A6A7" d="M42.899,37.998V14.004c0.021,0,0.042,0,0.062,0v23.994C42.941,37.998,42.921,37.998,42.899,37.998"/>
					<path fill="#A1A2A2" d="M42.961,37.998V14.004c0.02,0,0.037,0,0.054,0v23.994C42.998,37.998,42.98,37.998,42.961,37.998"/>
					<path fill="#9C9D9E" d="M43.015,37.998V14.004c0.018,0,0.033,0,0.047,0v23.994C43.048,37.998,43.032,37.998,43.015,37.998"/>
					<path fill="#989899" d="M43.062,37.998V14.004c0.015,0,0.027,0,0.038,0v23.994C43.089,37.998,43.076,37.998,43.062,37.998"/>
					<path fill="#939494" d="M43.1,37.998V14.004c0.012,0,0.022,0,0.03,0v23.994C43.122,37.998,43.111,37.998,43.1,37.998"/>
					<path fill="#8F8F90" d="M43.13,37.998V14.004c0.009,0,0.016,0,0.021,0v23.994C43.146,37.998,43.139,37.998,43.13,37.998"/>
					<polyline fill="#8A8B8B" points="43.15,37.998 43.15,14.004 43.159,14.004 43.159,37.998 43.15,37.998 					"/>
					<polyline fill="#858687" points="43.159,37.998 43.159,14.004 43.159,14.004 43.159,37.998 43.159,37.998 					"/>
				</g>
			</g>
			<g>
				<path fill="#C7C8C9" d="M37.165,12.001c1.098-0.002,1.995,0.893,1.994,2.003c0,7.998,0,15.996,0,23.994
					c0.003,1.102-0.9,2.007-1.994,2.003c-7.668,0-15.336,0-23.004,0c-1.097,0.004-2.007-0.906-2.003-2.003
					c0-7.998,0-15.996,0-23.994c-0.002-1.105,0.902-2.005,2.003-2.003C21.829,12.001,29.497,12.001,37.165,12.001z"/>
			</g>
		</g>
	</g>
</g>
<g>
	<rect x="15.833" y="17.068" fill="#231F20" stroke="#231F20" stroke-miterlimit="10" width="7.096" height="17.739"/>
	<rect x="28.395" y="17.193" fill="#231F20" stroke="#231F20" stroke-miterlimit="10" width="7.097" height="17.739"/>
</g>
</svg>
