<?xml version="1.0" encoding="utf-8"?>
<!-- Generator: Adobe Illustrator 15.0.2, SVG Export Plug-In . SVG Version: 6.00 Build 0)  -->
<!DOCTYPE svg PUBLIC "-//W3C//DTD SVG 1.1//EN" "http://www.w3.org/Graphics/SVG/1.1/DTD/svg11.dtd">
<svg version="1.1" id="Layer_1" xmlns="http://www.w3.org/2000/svg" xmlns:xlink="http://www.w3.org/1999/xlink" x="0px" y="0px"
	 width="80px" height="40px" viewBox="0 0 80 40" enable-background="new 0 0 80 40" xml:space="preserve">
<g>
	<g>
		<g enable-background="new    ">
			<g>
				<path fill="#547E25" d="M8.503,1.996h63H8.503z"/>
			</g>
			<g enable-background="new    ">
				<defs>
					<path id="SVGID_1_" enable-background="new    " d="M77.498,32.002c0,3.313-2.682,5.994-5.994,5.994
						C74.816,37.996,77.498,35.314,77.498,32.002z"/>
				</defs>
				<clipPath id="SVGID_2_">
					<use xlink:href="#SVGID_1_"  overflow="visible"/>
				</clipPath>
				<g clip-path="url(#SVGID_2_)" enable-background="new    ">
					<path fill="#578127" d="M77.498,32.002c0,0.269-0.018,0.533-0.052,0.793C77.48,32.535,77.498,32.271,77.498,32.002"/>
					<path fill="#547E26" d="M77.446,32.795c-0.042,0.313-0.106,0.619-0.194,0.915C77.339,33.414,77.404,33.108,77.446,32.795"/>
					<path fill="#527B24" d="M77.251,33.71c-0.104,0.35-0.239,0.687-0.401,1.007C77.012,34.396,77.147,34.06,77.251,33.71"/>
					<path fill="#4F7823" d="M76.85,34.717c-0.99,1.947-3.012,3.279-5.347,3.279C73.838,37.996,75.86,36.664,76.85,34.717"/>
				</g>
			</g>
			<g enable-background="new    ">
				<defs>
					<path id="SVGID_3_" enable-background="new    " d="M73.498,32.002c2.209,0,4,0,4,0c0,3.313-2.682,5.994-5.994,5.994
						c0,0,0-1.791,0-4C72.603,33.998,73.5,33.102,73.498,32.002z"/>
				</defs>
				<clipPath id="SVGID_4_">
					<use xlink:href="#SVGID_3_"  overflow="visible"/>
				</clipPath>
				<g clip-path="url(#SVGID_4_)" enable-background="new    ">
					<path fill="#B7D887" d="M73.498,32.002c2.209,0,4,0,4,0c0,3.313-2.682,5.994-5.994,5.994c0,0,0-1.791,0-4
						C72.603,33.998,73.5,33.102,73.498,32.002"/>
					<path fill="#B7D887" d="M71.503,33.996c1.1,0.002,1.996-0.895,1.994-1.994c0.248,0,0.492,0,0.728,0l0,0
						c0.204,0.185,0.366,0.102,0.467,0c1.626,0,2.806,0,2.806,0c0,3.313-2.682,5.994-5.994,5.994
						C71.503,37.996,71.503,36.205,71.503,33.996"/>
					<path fill="#B5D784" d="M71.503,33.996c1.1,0.002,1.996-0.895,1.994-1.994c0.208,0,0.413,0,0.612,0
						c0.019,0.03,0.043,0.071,0.062,0.102c0.229,0.203,0.354,0.184,0.637-0.102c1.565,0,2.689,0,2.689,0
						c0,3.313-2.682,5.994-5.994,5.994C71.503,37.996,71.503,36.205,71.503,33.996"/>
					<path fill="#B3D680" d="M71.503,33.996c1.1,0.002,1.996-0.895,1.994-1.994c0.177,0,0.352,0,0.522,0
						c0.006,0.016,0.014,0.037,0.02,0.053c0.111,0.206,0.343,0.635,0.861-0.053c1.517,0,2.597,0,2.597,0
						c0,3.313-2.682,5.994-5.994,5.994C71.503,37.996,71.503,36.205,71.503,33.996"/>
					<path fill="#B0D57C" d="M71.503,33.996c1.1,0.002,1.996-0.895,1.994-1.994c0.151,0,0.3,0,0.446,0
						c0.013,0.038,0.03,0.09,0.043,0.128c0.271,0.815,0.855,0.106,0.997-0.128c1.474,0,2.514,0,2.514,0
						c0,3.313-2.682,5.994-5.994,5.994C71.503,37.996,71.503,36.205,71.503,33.996"/>
					<path fill="#AED378" d="M71.503,33.996c1.1,0.002,1.996-0.895,1.994-1.994c0.127,0,0.252,0,0.375,0
						c0.009,0.037,0.02,0.086,0.028,0.123c0.325,1.262,1.146-0.094,1.153-0.108c0.003-0.005,0.006-0.011,0.008-0.015
						c1.432,0,2.436,0,2.436,0c0,3.313-2.682,5.994-5.994,5.994C71.503,37.996,71.503,36.205,71.503,33.996"/>
					<path fill="#ABD273" d="M71.503,33.996c1.1,0.002,1.996-0.895,1.994-1.994c0.104,0,0.207,0,0.309,0
						c0.007,0.036,0.016,0.084,0.021,0.119c0.195,1.269,0.94,0.42,1.088,0.237c0.079-0.098,0.162-0.246,0.223-0.356
						c1.391,0,2.359,0,2.359,0c0,3.313-2.682,5.994-5.994,5.994C71.503,37.996,71.503,36.205,71.503,33.996"/>
					<path fill="#A8D16D" d="M71.503,33.996c1.1,0.002,1.996-0.895,1.994-1.994c0.082,0,0.163,0,0.244,0l0,0
						c0.11,0.873,0.11,0.873,0.284,0.923c0.185,0.053,0.598-0.054,0.981-0.563c0.098-0.13,0.16-0.264,0.206-0.36
						c1.351,0,2.284,0,2.284,0c0,3.313-2.682,5.994-5.994,5.994C71.503,37.996,71.503,36.205,71.503,33.996"/>
					<path fill="#A4CF66" d="M71.503,33.996c1.1,0.002,1.996-0.895,1.994-1.994c0.061,0,0.121,0,0.182,0
						c0.003,0.034,0.007,0.079,0.01,0.112c0.038,0.884,0.038,0.884,0.131,0.925c0.375,0.167,0.839-0.171,1.055-0.396
						c0.227-0.237,0.318-0.434,0.415-0.641c1.31,0,2.208,0,2.208,0c0,3.313-2.682,5.994-5.994,5.994
						C71.503,37.996,71.503,36.205,71.503,33.996"/>
					<path fill="#A0CD5F" d="M71.503,33.996c1.1,0.002,1.996-0.895,1.994-1.994c0.04,0,0.08,0,0.119,0
						c0.001,0.033,0.003,0.076,0.005,0.109c-0.001,0.285-0.09,0.563-0.063,0.852c0.009,0.093,0.085,0.218,0.167,0.264
						c0.114,0.063,0.631,0.024,1.118-0.438c0.298-0.284,0.424-0.563,0.525-0.786c1.266,0,2.128,0,2.128,0
						c0,3.313-2.682,5.994-5.994,5.994C71.503,37.996,71.503,36.205,71.503,33.996"/>
					<path fill="#9BCB55" d="M71.503,33.996c1.1,0.002,1.996-0.895,1.994-1.994c0.019,0,0.038,0,0.057,0
						c0,0.031,0.001,0.074,0.001,0.105c-0.006,0.149-0.015,0.398-0.144,0.812c-0.112,0.364-0.029,0.413,0.06,0.464
						c0.163,0.095,0.839,0.035,1.405-0.511c0.354-0.342,0.505-0.698,0.577-0.87c1.22,0,2.044,0,2.044,0
						c0,3.313-2.682,5.994-5.994,5.994C71.503,37.996,71.503,36.205,71.503,33.996"/>
					<path fill="#8DC641" d="M71.503,34.003c0.124-0.126,0.271-0.012,0.403-0.038c0.326-0.066,0.578-0.309,0.903-0.377
						c0.387-0.08,0.786,0.02,1.17-0.085c0.253-0.068,1.111-0.379,1.563-1.501c1.171,0,1.954,0,1.954,0
						c0,3.313-2.682,5.994-5.994,5.994C71.503,37.996,71.503,36.209,71.503,34.003"/>
					<path fill="#8AC13F" d="M71.503,34.078c0.022-0.022,0.075,0.002,0.107,0.003c0.039,0,0.188,0,0.419-0.037
						c0.25-0.039,0.491-0.116,0.737-0.167c1.444-0.295,2.316-0.473,2.877-1.875c1.114,0,1.854,0,1.854,0
						c0,3.313-2.682,5.994-5.994,5.994C71.503,37.996,71.503,36.25,71.503,34.078"/>
					<path fill="#87BD3E" d="M71.503,34.154c0.024-0.023,0.078,0.004,0.111,0.006c0.049,0.003,0.189,0.007,0.44-0.018
						c0.229-0.023,0.452-0.073,0.679-0.11c0.994-0.162,2.354-0.385,3.023-2.03c1.051,0,1.74,0,1.74,0
						c0,3.313-2.682,5.994-5.994,5.994C71.503,37.996,71.503,36.29,71.503,34.154"/>
					<path fill="#85BA3D" d="M71.503,34.23c0.025-0.023,0.081,0.008,0.115,0.011c0.131,0.012,3.216,0.261,4.271-2.239
						c0.976,0,1.607,0,1.607,0c0,3.313-2.682,5.994-5.994,5.994C71.503,37.996,71.503,36.331,71.503,34.23"/>
					<path fill="#82B73C" d="M71.503,34.31c0.027-0.023,0.084,0.011,0.119,0.015c0.218,0.026,1.661,0.038,2.811-0.546
						c0.717-0.365,1.304-1.013,1.609-1.776c0.889,0,1.455,0,1.455,0c0,3.313-2.682,5.994-5.994,5.994
						C71.503,37.996,71.503,36.372,71.503,34.31"/>
					<path fill="#80B43B" d="M71.503,34.392c0.02-0.017,0.06,0.009,0.086,0.012c0.033,0.005,3.396,0.447,4.623-2.401
						c0.79,0,1.285,0,1.285,0c0,3.313-2.682,5.994-5.994,5.994C71.503,37.996,71.503,36.415,71.503,34.392"/>
					<path fill="#7EB13A" d="M71.503,34.48c0.029-0.025,0.09,0.014,0.129,0.02c1.159,0.18,3.845-0.194,4.749-2.498
						c0.691,0,1.116,0,1.116,0c0,3.313-2.682,5.994-5.994,5.994C71.503,37.996,71.503,36.461,71.503,34.48"/>
					<path fill="#7BAE39" d="M71.503,34.573c0.031-0.026,0.094,0.017,0.134,0.023c1.323,0.232,4.119-0.29,4.899-2.595
						c0.6,0,0.961,0,0.961,0c0,3.313-2.682,5.994-5.994,5.994C71.503,37.996,71.503,36.509,71.503,34.573"/>
					<path fill="#79AB37" d="M71.503,34.672c0.033-0.027,0.098,0.019,0.139,0.027c1.367,0.27,4.345-0.257,5.033-2.697
						c0.516,0,0.822,0,0.822,0c0,3.313-2.682,5.994-5.994,5.994C71.503,37.996,71.503,36.56,71.503,34.672"/>
					<path fill="#76A836" d="M71.503,34.782c0.022-0.019,0.066,0.013,0.095,0.019c0.888,0.174,4.372,0.21,5.199-2.799
						c0.441,0,0.7,0,0.7,0c0,3.313-2.682,5.994-5.994,5.994C71.503,37.996,71.503,36.615,71.503,34.782"/>
					<path fill="#74A535" d="M71.503,34.903c0.03-0.025,0.091,0.018,0.129,0.025c1.385,0.28,4.635-0.067,5.274-2.927
						c0.375,0,0.591,0,0.591,0c0,3.313-2.682,5.994-5.994,5.994C71.503,37.996,71.503,36.676,71.503,34.903"/>
					<path fill="#71A134" d="M71.503,35.034c0.025-0.021,0.076,0.017,0.108,0.023c1.169,0.252,4.67,0.23,5.392-3.056
						c0.315,0,0.494,0,0.494,0c0,3.313-2.682,5.994-5.994,5.994C71.503,37.996,71.503,36.74,71.503,35.034"/>
					<path fill="#6F9E33" d="M71.503,35.178c0.009-0.008,0.025,0.005,0.036,0.008c1.999,0.465,5.044-0.216,5.551-3.184
						c0.261,0,0.407,0,0.407,0c0,3.313-2.682,5.994-5.994,5.994C71.503,37.996,71.503,36.81,71.503,35.178"/>
					<path fill="#6C9B32" d="M71.503,35.33c0.042-0.033,0.121,0.027,0.174,0.039c1.835,0.417,4.948-0.129,5.491-3.367
						c0.212,0,0.329,0,0.329,0c0,3.313-2.682,5.994-5.994,5.994C71.503,37.996,71.503,36.884,71.503,35.33"/>
					<path fill="#699830" d="M71.503,35.489c0.044-0.034,0.127,0.029,0.182,0.041c2.395,0.54,5.198-0.656,5.553-3.528
						c0.168,0,0.26,0,0.26,0c0,3.313-2.682,5.994-5.994,5.994C71.503,37.996,71.503,36.959,71.503,35.489"/>
					<path fill="#67952F" d="M71.503,35.652c0.02-0.016,0.056,0.013,0.08,0.019c2.125,0.504,5.303-0.301,5.716-3.669
						c0.129,0,0.198,0,0.198,0c0,3.313-2.682,5.994-5.994,5.994C71.503,37.996,71.503,37.035,71.503,35.652"/>
					<path fill="#64912E" d="M71.503,35.816c0.048-0.038,0.14,0.031,0.199,0.044c2.111,0.472,5.26-0.414,5.65-3.858
						c0.095,0,0.145,0,0.145,0c0,3.313-2.682,5.994-5.994,5.994C71.503,37.996,71.503,37.11,71.503,35.816"/>
					<path fill="#618E2C" d="M71.503,35.981c0.034-0.027,0.099,0.021,0.141,0.031c2.559,0.577,5.486-0.792,5.756-4.011
						c0.063,0,0.098,0,0.098,0c0,3.313-2.682,5.994-5.994,5.994C71.503,37.996,71.503,37.186,71.503,35.981"/>
					<path fill="#5F8B2B" d="M71.503,36.147c0.052-0.042,0.151,0.032,0.216,0.046c2.199,0.471,5.427-0.52,5.719-4.191
						c0.039,0,0.06,0,0.06,0c0,3.313-2.682,5.994-5.994,5.994C71.503,37.996,71.503,37.259,71.503,36.147"/>
					<path fill="#5C882A" d="M71.503,36.315c0.023-0.02,0.069,0.015,0.099,0.021c2.681,0.586,5.686-0.904,5.866-4.335
						c0.029,3.313-2.652,5.994-5.965,5.994C71.503,37.996,71.503,37.333,71.503,36.315"/>
					<path fill="#598529" d="M71.503,36.486c0.055-0.045,0.163,0.032,0.233,0.046c2.672,0.526,5.691-1.205,5.752-4.53
						c0.009,3.313-2.673,5.994-5.985,5.994C71.503,37.996,71.503,37.406,71.503,36.486"/>
					<path fill="#578127" d="M71.503,36.663c0.057-0.047,0.17,0.032,0.242,0.046c2.249,0.424,5.632-0.778,5.752-4.707
						c0,3.313-2.682,5.994-5.994,5.994C71.503,37.996,71.503,37.481,71.503,36.663"/>
					<path fill="#547E26" d="M71.503,36.849c0.059-0.049,0.177,0.031,0.252,0.045c2.444,0.433,5.241-0.982,5.69-4.099
						c-0.388,2.937-2.898,5.201-5.942,5.201C71.503,37.996,71.503,37.559,71.503,36.849"/>
					<path fill="#527B24" d="M71.503,37.05c0.041-0.035,0.125,0.021,0.179,0.03c2.147,0.361,4.75-0.682,5.57-3.373
						c-0.734,2.48-3.029,4.289-5.749,4.289C71.503,37.996,71.503,37.641,71.503,37.05"/>
					<path fill="#4F7823" d="M71.503,37.281c0.044-0.038,0.134,0.02,0.191,0.028c1.618,0.24,3.939-0.295,5.154-2.593
						c-0.989,1.947-3.011,3.279-5.346,3.279C71.503,37.996,71.503,37.732,71.503,37.281"/>
				</g>
			</g>
			<g enable-background="new    ">
				<defs>
					<path id="SVGID_5_" enable-background="new    " d="M71.503,33.996c0,2.209,0,4,0,4h-63c0,0,0-1.791,0-4H71.503z"/>
				</defs>
				<clipPath id="SVGID_6_">
					<use xlink:href="#SVGID_5_"  overflow="visible"/>
				</clipPath>
				<g clip-path="url(#SVGID_6_)" enable-background="new    ">
					<polyline fill="#9BCB55" points="8.503,33.996 71.503,33.996 71.503,34.003 8.503,34.003 8.503,33.996 					"/>
					<path fill="#8DC641" d="M8.503,34.003h63c0,0.026,0,0.052,0,0.077h-63C8.503,34.055,8.503,34.029,8.503,34.003"/>
					<path fill="#8AC13F" d="M8.503,34.08h63c0,0.026,0,0.052,0,0.077h-63C8.503,34.132,8.503,34.106,8.503,34.08"/>
					<path fill="#87BD3E" d="M8.503,34.157h63c0,0.025,0,0.052,0,0.077h-63C8.503,34.209,8.503,34.183,8.503,34.157"/>
					<path fill="#85BA3D" d="M8.503,34.234h63c0,0.025,0,0.051,0,0.076h-63C8.503,34.285,8.503,34.26,8.503,34.234"/>
					<path fill="#82B73C" d="M8.503,34.311h63c0,0.029,0,0.059,0,0.088h-63C8.503,34.369,8.503,34.34,8.503,34.311"/>
					<path fill="#80B43B" d="M8.503,34.398h63c0,0.03,0,0.061,0,0.091h-63C8.503,34.459,8.503,34.429,8.503,34.398"/>
					<path fill="#7EB13A" d="M8.503,34.489h63c0,0.03,0,0.06,0,0.09h-63C8.503,34.549,8.503,34.52,8.503,34.489"/>
					<path fill="#7BAE39" d="M8.503,34.579h63c0,0.032,0,0.064,0,0.097h-63C8.503,34.644,8.503,34.611,8.503,34.579"/>
					<path fill="#79AB37" d="M8.503,34.676h63c0,0.039,0,0.078,0,0.117h-63C8.503,34.754,8.503,34.715,8.503,34.676"/>
					<path fill="#76A836" d="M8.503,34.793h63c0,0.038,0,0.077,0,0.115h-63C8.503,34.87,8.503,34.831,8.503,34.793"/>
					<path fill="#74A535" d="M8.503,34.908h63c0,0.044,0,0.088,0,0.132h-63C8.503,34.996,8.503,34.952,8.503,34.908"/>
					<path fill="#71A134" d="M8.503,35.04h63c0,0.048,0,0.096,0,0.143h-63C8.503,35.136,8.503,35.088,8.503,35.04"/>
					<path fill="#6F9E33" d="M8.503,35.183h63c0,0.051,0,0.101,0,0.15h-63C8.503,35.283,8.503,35.233,8.503,35.183"/>
					<path fill="#6C9B32" d="M8.503,35.333h63c0,0.054,0,0.106,0,0.159h-63C8.503,35.439,8.503,35.387,8.503,35.333"/>
					<path fill="#699830" d="M8.503,35.492h63c0,0.055,0,0.108,0,0.162h-63C8.503,35.601,8.503,35.547,8.503,35.492"/>
					<path fill="#67952F" d="M8.503,35.654h63c0,0.055,0,0.109,0,0.162h-63C8.503,35.764,8.503,35.709,8.503,35.654"/>
					<path fill="#64912E" d="M8.503,35.816h63c0,0.057,0,0.112,0,0.167h-63C8.503,35.929,8.503,35.873,8.503,35.816"/>
					<path fill="#618E2C" d="M8.503,35.983h63c0,0.056,0,0.111,0,0.165h-63C8.503,36.095,8.503,36.039,8.503,35.983"/>
					<path fill="#5F8B2B" d="M8.503,36.148h63c0,0.057,0,0.113,0,0.168h-63C8.503,36.262,8.503,36.205,8.503,36.148"/>
					<path fill="#5C882A" d="M8.503,36.316h63c0,0.059,0,0.116,0,0.173h-63C8.503,36.433,8.503,36.375,8.503,36.316"/>
					<path fill="#598529" d="M8.503,36.489h63c0,0.061,0,0.119,0,0.177h-63C8.503,36.608,8.503,36.55,8.503,36.489"/>
					<path fill="#578127" d="M8.503,36.666h63c0,0.063,0,0.125,0,0.185h-63C8.503,36.791,8.503,36.729,8.503,36.666"/>
					<path fill="#547E26" d="M8.503,36.851h63c0,0.069,0,0.136,0,0.2h-63C8.503,36.986,8.503,36.92,8.503,36.851"/>
					<path fill="#527B24" d="M8.503,37.051h63c0,0.084,0,0.162,0,0.236h-63C8.503,37.213,8.503,37.135,8.503,37.051"/>
					<path fill="#4F7823" d="M8.503,37.287h63c0,0.447,0,0.709,0,0.709h-63C8.503,37.996,8.503,37.734,8.503,37.287"/>
				</g>
			</g>
			<g enable-background="new    ">
				<defs>
					<path id="SVGID_7_" enable-background="new    " d="M71.503,5.996c0-2.209,0-4,0-4c3.313,0,5.994,2.691,5.994,6.003
						c0,0-1.791,0-4,0C73.5,6.896,72.598,5.993,71.503,5.996z"/>
				</defs>
				<clipPath id="SVGID_8_">
					<use xlink:href="#SVGID_7_"  overflow="visible"/>
				</clipPath>
				<g clip-path="url(#SVGID_8_)" enable-background="new    ">
					<path fill="#B7D887" d="M71.503,5.996c0-2.209,0-4,0-4c3.313,0,5.994,2.691,5.994,6.003c0,0-1.791,0-4,0
						C73.5,6.896,72.598,5.993,71.503,5.996"/>
					<path fill="#B7D887" d="M74.685,7.999c1.078-1.242-0.195-3.457-1.947-3.385c-0.486,0.02-1.122,0.354-0.714,0.757
						c0.411,0.407,0.964,0.638,1.342,1.087c0.385,0.459,0.511,1.064,0.864,1.541c-0.237,0-0.482,0-0.732,0
						c0.002-1.103-0.899-2.006-1.994-2.003c0-2.209,0-4,0-4c3.313,0,5.994,2.691,5.994,6.003
						C77.498,7.999,76.314,7.999,74.685,7.999"/>
					<path fill="#B5D784" d="M74.802,7.999c1.077-1.646-0.651-3.738-2.306-3.419c-0.212,0.041-1.198,0.378-0.477,0.891
						c1.478,1.049,1.478,1.049,2.093,2.528c-0.2,0-0.406,0-0.615,0c0.002-1.103-0.899-2.006-1.994-2.003c0-2.209,0-4,0-4
						c3.313,0,5.994,2.691,5.994,6.003C77.498,7.999,76.371,7.999,74.802,7.999"/>
					<path fill="#B3D680" d="M74.896,7.999c0.931-1.428-0.483-3.844-2.502-3.463c-0.314,0.059-1.214,0.492-0.511,0.946
						c1.508,0.972,1.739,1.121,2.138,2.518c-0.172,0-0.346,0-0.523,0c0.002-1.103-0.899-2.006-1.994-2.003c0-2.209,0-4,0-4
						c3.313,0,5.994,2.691,5.994,6.003C77.498,7.999,76.416,7.999,74.896,7.999"/>
					<path fill="#B0D57C" d="M74.982,7.999c0.999-1.896-1.026-4-2.76-3.487c-0.195,0.058-0.549,0.2-0.719,0.507
						c0-1.737,0-3.023,0-3.023c3.313,0,5.994,2.691,5.994,6.003C77.498,7.999,76.457,7.999,74.982,7.999"/>
					<path fill="#AED378" d="M75.061,7.999c1.016-2.234-1.427-4.142-3.021-3.498c-0.326,0.132-0.484,0.278-0.537,0.335
						c0-1.644,0-2.84,0-2.84c3.313,0,5.994,2.691,5.994,6.003C77.498,7.999,76.494,7.999,75.061,7.999"/>
					<path fill="#ABD273" d="M75.137,7.999c1.001-2.194-1.325-4.286-3.199-3.534c-0.216,0.087-0.365,0.194-0.435,0.251
						c0-1.581,0-2.72,0-2.72c3.313,0,5.994,2.691,5.994,6.003C77.498,7.999,76.529,7.999,75.137,7.999"/>
					<path fill="#A8D16D" d="M75.212,7.999c0.92-2.292-1.434-4.341-3.342-3.583c-0.113,0.045-0.237,0.111-0.367,0.197
						c0-1.528,0-2.617,0-2.617c3.313,0,5.994,2.691,5.994,6.003C77.498,7.999,76.564,7.999,75.212,7.999"/>
					<path fill="#A4CF66" d="M75.288,7.999c0.963-2.459-1.6-4.514-3.601-3.582c-0.057,0.027-0.129,0.07-0.184,0.102
						c0-1.478,0-2.522,0-2.522c3.313,0,5.994,2.691,5.994,6.003C77.498,7.999,76.598,7.999,75.288,7.999"/>
					<path fill="#A0CD5F" d="M75.368,7.999c0.953-2.471-1.651-4.585-3.664-3.673c-0.062,0.028-0.141,0.071-0.2,0.102
						c0-1.43,0-2.431,0-2.431c3.313,0,5.994,2.691,5.994,6.003C77.498,7.999,76.634,7.999,75.368,7.999"/>
					<path fill="#9BCB55" d="M75.453,7.999c-0.031-0.044,0.042-0.118,0.061-0.168c0.213-0.591,0.318-1.986-0.813-3.035
						c-0.731-0.679-2.004-1.084-3.197-0.46c0-1.381,0-2.34,0-2.34c3.313,0,5.994,2.691,5.994,6.003
						C77.498,7.999,76.673,7.999,75.453,7.999"/>
					<path fill="#8DC641" d="M75.542,7.999c-0.039-0.055,0.053-0.148,0.074-0.212c0.21-0.597,0.305-2.006-0.838-3.069
						c-0.673-0.626-1.935-1.126-3.275-0.477c0-1.33,0-2.245,0-2.245c3.313,0,5.994,2.691,5.994,6.003
						C77.498,7.999,76.713,7.999,75.542,7.999"/>
					<path fill="#8AC13F" d="M75.642,7.999c-0.04-0.057,0.054-0.152,0.077-0.217c0.219-0.615,0.323-2.066-0.847-3.157
						c-0.149-0.139-1.515-1.337-3.369-0.482c0-1.276,0-2.146,0-2.146c3.313,0,5.994,2.691,5.994,6.003
						C77.498,7.999,76.757,7.999,75.642,7.999"/>
					<path fill="#87BD3E" d="M75.756,7.999c-0.04-0.057,0.055-0.153,0.077-0.219c0.245-0.687,0.34-2.146-0.855-3.261
						c-0.687-0.64-2.009-1.15-3.475-0.484c0-1.217,0-2.039,0-2.039c3.313,0,5.994,2.691,5.994,6.003
						C77.498,7.999,76.808,7.999,75.756,7.999"/>
					<path fill="#85BA3D" d="M75.889,7.999c1.032-2.792-1.672-5.311-4.386-4.084c0-1.151,0-1.919,0-1.919
						c3.313,0,5.994,2.691,5.994,6.003C77.498,7.999,76.866,7.999,75.889,7.999"/>
					<path fill="#82B73C" d="M76.041,7.999c1.07-2.904-1.729-5.507-4.537-4.22c0-1.075,0-1.783,0-1.783
						c3.313,0,5.994,2.691,5.994,6.003C77.498,7.999,76.93,7.999,76.041,7.999"/>
					<path fill="#80B43B" d="M76.211,7.999c0.98-2.639-1.715-5.745-4.708-4.377c0-0.986,0-1.625,0-1.625
						c3.313,0,5.994,2.691,5.994,6.003C77.498,7.999,77.002,7.999,76.211,7.999"/>
					<path fill="#7EB13A" d="M76.38,7.999c-0.019-0.026,0.023-0.071,0.034-0.101c0.417-1.251-0.014-2.756-1.071-3.743
						c-0.649-0.606-2.012-1.503-3.84-0.707c0-0.887,0-1.452,0-1.452c3.313,0,5.994,2.691,5.994,6.003
						C77.498,7.999,77.072,7.999,76.38,7.999"/>
					<path fill="#7BAE39" d="M76.537,7.999c-0.03-0.04,0.031-0.113,0.045-0.161c0.353-1.251-0.119-2.757-1.173-3.748
						c-1.144-1.075-2.604-1.382-3.905-0.821c0-0.783,0-1.272,0-1.272c3.313,0,5.994,2.691,5.994,6.003
						C77.498,7.999,77.135,7.999,76.537,7.999"/>
					<path fill="#79AB37" d="M76.675,7.999c-0.051-0.063,0.041-0.183,0.06-0.261c0.226-0.992-0.075-2.574-1.27-3.706
						c-1.146-1.086-2.628-1.435-3.962-0.932c0-0.684,0-1.104,0-1.104c3.313,0,5.994,2.691,5.994,6.003
						C77.498,7.999,77.191,7.999,76.675,7.999"/>
					<path fill="#76A836" d="M76.797,7.999c-0.015-0.018,0.012-0.053,0.017-0.075c0.301-1.356-0.209-2.903-1.298-3.942
						c-0.546-0.521-2.03-1.664-4.013-1.033c0-0.594,0-0.952,0-0.952c3.313,0,5.994,2.691,5.994,6.003
						C77.498,7.999,77.239,7.999,76.797,7.999"/>
					<path fill="#74A535" d="M76.906,7.999c-0.046-0.055,0.028-0.164,0.041-0.234c0.184-1.067-0.174-2.665-1.386-3.828
						c-0.67-0.643-2.089-1.645-4.058-1.124c0-0.513,0-0.817,0-0.817c3.313,0,5.994,2.691,5.994,6.003
						C77.498,7.999,77.281,7.999,76.906,7.999"/>
					<path fill="#71A134" d="M77.003,7.999c-0.013-0.016,0.008-0.046,0.011-0.066c0.237-1.418-0.304-2.964-1.414-4.035
						c-1.171-1.13-2.664-1.57-4.097-1.207c0-0.439,0-0.695,0-0.695c3.313,0,5.994,2.691,5.994,6.003
						C77.498,7.999,77.318,7.999,77.003,7.999"/>
					<path fill="#6F9E33" d="M77.09,7.999c-0.056-0.063,0.023-0.195,0.034-0.278c0.13-1.075-0.279-2.684-1.49-3.857
						c-0.675-0.655-2.11-1.692-4.131-1.281c0-0.372,0-0.586,0-0.586c3.313,0,5.994,2.691,5.994,6.003
						C77.498,7.999,77.351,7.999,77.09,7.999"/>
					<path fill="#6C9B32" d="M77.168,7.999c-0.024-0.026,0.01-0.082,0.014-0.118c0.169-1.42-0.413-2.972-1.518-4.047
						c-1.174-1.143-2.69-1.635-4.161-1.351c0-0.311,0-0.487,0-0.487c3.313,0,5.994,2.691,5.994,6.003
						C77.498,7.999,77.38,7.999,77.168,7.999"/>
					<path fill="#B9D98B" d="M74.302,7.912c-0.103-0.081-0.171-0.221-0.354-0.594c-0.109-0.224-0.293-0.598-0.629-0.976
						c-0.288-0.325-0.592-0.541-0.722-0.633c-0.402-0.286-0.487-0.358-0.534-0.453c-0.11-0.225,0.047-0.502,0.651-0.58
						c1.608-0.206,2.839,1.99,2.085,3.049C74.68,7.896,74.497,8.065,74.302,7.912"/>
					<path fill="#699830" d="M77.238,7.999c-0.061-0.066,0.017-0.208,0.024-0.297c0.083-1.006-0.279-2.629-1.573-3.894
						c-0.677-0.662-2.121-1.726-4.186-1.414c0-0.255,0-0.398,0-0.398c3.313,0,5.994,2.691,5.994,6.003
						C77.498,7.999,77.406,7.999,77.238,7.999"/>
					<path fill="#BBDA8E" d="M74.293,7.752C74.208,7.684,74.1,7.48,74.029,7.346c-0.134-0.249-0.335-0.626-0.601-0.94
						c-0.257-0.304-0.452-0.473-0.908-0.827c-0.066-0.052-0.27-0.209-0.318-0.301c-0.169-0.317,0.234-0.504,0.488-0.533
						c1.69-0.197,2.723,1.882,2.098,2.853C74.68,7.765,74.507,7.927,74.293,7.752"/>
					<path fill="#67952F" d="M77.299,7.999c-0.041-0.044,0.011-0.141,0.015-0.201c0.083-1.097-0.295-2.726-1.604-4.01
						c-1.179-1.156-2.712-1.693-4.207-1.474c0-0.205,0-0.318,0-0.318c3.313,0,5.994,2.691,5.994,6.003
						C77.498,7.999,77.428,7.999,77.299,7.999"/>
					<path fill="#BDDB91" d="M74.417,7.688c-0.062-0.017-0.153-0.043-0.397-0.475c-0.143-0.251-0.339-0.578-0.598-0.879
						c-0.206-0.239-0.416-0.436-0.774-0.728c-0.177-0.143-0.296-0.285-0.297-0.287c-0.117-0.167-0.077-0.316,0.112-0.419
						c1.01-0.55,2.824,0.936,2.393,2.366C74.768,7.558,74.583,7.735,74.417,7.688"/>
					<path fill="#BFDC93" d="M74.428,7.548c-0.129-0.006-0.287-0.239-0.425-0.466c-0.095-0.155-0.237-0.389-0.431-0.633
						c-0.252-0.319-0.495-0.543-0.699-0.721c-0.248-0.215-0.367-0.352-0.368-0.353c-0.148-0.201-0.071-0.329,0.02-0.401
						c0.675-0.535,2.484,0.514,2.324,1.982C74.819,7.233,74.721,7.562,74.428,7.548"/>
					<path fill="#64912E" d="M77.353,7.999c-0.063-0.066,0.011-0.212,0.016-0.302c0.05-1.015-0.35-2.652-1.643-3.924
						c-0.826-0.813-2.229-1.739-4.223-1.53c0-0.16,0-0.247,0-0.247c3.313,0,5.994,2.691,5.994,6.003
						C77.498,7.999,77.448,7.999,77.353,7.999"/>
					<path fill="#C0DD96" d="M74.395,7.403c-0.104-0.015-0.232-0.2-0.41-0.455c-0.323-0.464-0.323-0.464-0.457-0.624
						c-0.262-0.315-0.612-0.545-0.856-0.879c-0.083-0.113-0.209-0.285-0.022-0.426c0.274-0.208,0.977-0.098,1.472,0.356
						c0.769,0.706,0.686,1.458,0.661,1.602C74.701,7.448,74.487,7.417,74.395,7.403"/>
					<path fill="#618E2C" d="M77.4,7.999c-0.059-0.06,0.007-0.195,0.01-0.278c0.038-1.027-0.377-2.68-1.673-3.959
						c-1.177-1.162-2.72-1.739-4.233-1.583c0-0.119,0-0.183,0-0.183c3.313,0,5.994,2.691,5.994,6.003
						C77.498,7.999,77.463,7.999,77.4,7.999"/>
					<path fill="#C2DD99" d="M74.375,7.257c-0.065-0.015-0.172-0.126-0.229-0.191c-0.218-0.246-0.385-0.53-0.595-0.783
						c-0.221-0.268-0.505-0.477-0.711-0.759c-0.122-0.167-0.237-0.324-0.063-0.451c0.545-0.396,2.057,0.56,1.953,1.744
						C74.7,7.162,74.583,7.306,74.375,7.257"/>
					<path fill="#C4DE9B" d="M74.358,7.109c-0.091-0.031-0.091-0.031-0.672-0.745c-0.2-0.246-0.435-0.46-0.636-0.706
						c-0.171-0.21-0.25-0.306-0.22-0.422c0.081-0.315,1.15-0.186,1.648,0.752C74.767,6.531,74.693,7.222,74.358,7.109"/>
					<path fill="#B0D57C" d="M73.498,7.999c0.002-1.103-0.899-2.006-1.994-2.003c0-0.233,0-0.462,0-0.685
						c0.001,0.002,0.003,0.006,0.004,0.009c0.205,0.169,0.205,0.169,0.554,0.331c0.505,0.234,0.835,0.466,1.139,0.8
						c0.496,0.545,0.658,1.197,0.745,1.547C73.797,7.999,73.649,7.999,73.498,7.999"/>
					<path fill="#5F8B2B" d="M77.438,7.999c-0.012-0.012,0.002-0.04,0.003-0.057c0.063-1.505-0.572-3.07-1.699-4.187
						c-0.825-0.817-2.231-1.765-4.238-1.633c0-0.083,0-0.126,0-0.126c3.313,0,5.994,2.691,5.994,6.003
						C77.498,7.999,77.477,7.999,77.438,7.999"/>
					<path fill="#C5DF9E" d="M74.337,6.96c-0.132-0.058-0.176-0.078-1.049-1.135c-0.309-0.374-0.334-0.404-0.313-0.514
						c0.062-0.33,0.952-0.109,1.372,0.56c0.322,0.515,0.3,1.1,0.041,1.108C74.372,6.98,74.352,6.966,74.337,6.96"/>
					<path fill="#AED378" d="M73.498,7.999c0.002-1.103-0.899-2.006-1.994-2.003c0-0.175,0-0.348,0-0.517
						c0.038,0.017,0.088,0.04,0.126,0.057c1.17,0.538,1.17,0.538,1.54,0.944c0.526,0.579,0.66,1.287,0.704,1.52
						C73.75,7.999,73.625,7.999,73.498,7.999"/>
					<path fill="#ABD273" d="M73.498,7.999c0.002-1.103-0.899-2.006-1.994-2.003c0-0.136,0-0.27,0-0.401
						c0.036,0.01,0.085,0.023,0.121,0.034c0.669,0.223,1.913,0.638,2.182,2.371C73.705,7.999,73.601,7.999,73.498,7.999"/>
					<path fill="#C7E0A0" d="M74.323,6.812c-0.112-0.004-0.138-0.035-0.81-0.83c-0.228-0.269-0.392-0.463-0.379-0.577
						c0.004-0.038,0.035-0.086,0.066-0.108c0.049-0.033,0.421-0.11,0.885,0.351c0.363,0.361,0.435,0.788,0.411,0.938
						c-0.008,0.055-0.017,0.138-0.057,0.178C74.414,6.792,74.361,6.813,74.323,6.812"/>
					<path fill="#A8D16D" d="M73.498,7.999c0.002-1.103-0.899-2.006-1.994-2.003c0-0.104,0-0.208,0-0.311
						c0.035,0.008,0.082,0.018,0.117,0.026c0.472,0.128,1.906,0.52,2.121,2.288C73.661,7.999,73.58,7.999,73.498,7.999"/>
					<path fill="#A4CF66" d="M73.498,7.999c0.002-1.103-0.899-2.006-1.994-2.003c0-0.076,0-0.151,0-0.226
						c0.034,0.005,0.079,0.012,0.113,0.017c1.634,0.339,1.993,1.531,2.063,2.211C73.619,7.999,73.558,7.999,73.498,7.999"/>
					<path fill="#C8E1A3" d="M74.229,6.609c-0.11-0.018-0.296-0.238-0.667-0.676c-0.193-0.228-0.244-0.4-0.244-0.402
						c0-0.039,0.021-0.095,0.054-0.117c0.088-0.063,0.412,0.03,0.661,0.281c0.365,0.368,0.352,0.736,0.352,0.739
						c-0.007,0.042-0.001,0.109-0.031,0.141C74.327,6.604,74.267,6.615,74.229,6.609"/>
					<path fill="#5C882A" d="M74.613,2.866c-1.064-0.612-1.936-0.833-3.109-0.791c0-0.052,0-0.079,0-0.079
						c1.155,0,2.233,0.327,3.148,0.894C74.64,2.883,74.625,2.873,74.613,2.866"/>
					<path fill="#A0CD5F" d="M73.498,7.999c0.002-1.103-0.899-2.006-1.994-2.003c0-0.049,0-0.097,0-0.146
						c0.025,0.003,0.06,0.007,0.085,0.009c0.867,0.108,1.918,0.733,2.028,2.139C73.577,7.999,73.538,7.999,73.498,7.999"/>
					<path fill="#598529" d="M73.287,2.267C72.87,2.15,72.35,2.006,71.503,2.037c0-0.027,0-0.041,0-0.041
						c0.72,0,1.409,0.127,2.048,0.359C73.472,2.329,73.367,2.292,73.287,2.267"/>
					<path fill="#CAE1A5" d="M74.067,6.329c-0.069-0.028-0.498-0.531-0.509-0.599c-0.008-0.042-0.003-0.116,0.033-0.14
						c0.063-0.042,0.18,0.03,0.244,0.07c0.096,0.058,0.152,0.126,0.231,0.22c0.188,0.223,0.157,0.457,0.155,0.458
						C74.19,6.372,74.111,6.346,74.067,6.329"/>
					<path fill="#5C882A" d="M77.468,7.999c-0.062-0.062,0.001-0.203,0.002-0.289c0.002-0.406-0.068-1.08-0.418-1.985
						c0.287,0.702,0.445,1.47,0.445,2.274C77.498,7.999,77.488,7.999,77.468,7.999"/>
					<path fill="#9BCB55" d="M73.498,7.999c0.002-1.103-0.899-2.006-1.994-2.003c0-0.023,0-0.045,0-0.068
						c0.031,0.002,0.074,0.005,0.105,0.007c1.125,0.126,1.888,0.937,1.944,2.064C73.535,7.999,73.516,7.999,73.498,7.999"/>
					<path fill="#578127" d="M72.417,2.066c-0.292-0.036-0.485-0.059-0.913-0.056c0-0.009,0-0.014,0-0.014
						c0.383,0,0.757,0.036,1.119,0.104C72.561,2.09,72.479,2.075,72.417,2.066"/>
					<path fill="#598529" d="M77.489,7.999c-0.065-0.065-0.002-0.216-0.003-0.309c-0.002-0.105-0.015-0.348-0.089-0.793
						c0.066,0.357,0.101,0.726,0.101,1.102C77.498,7.999,77.495,7.999,77.489,7.999"/>
					<path fill="#547E26" d="M71.503,1.997c0.072,0,0.144,0.001,0.215,0.003C71.654,1.999,71.548,2.042,71.503,1.997"/>
					<path fill="#578127" d="M77.498,7.999c-0.027-0.027-0.001-0.088-0.001-0.126C77.498,7.915,77.498,7.957,77.498,7.999
						L77.498,7.999"/>
				</g>
			</g>
			<g enable-background="new    ">
				<defs>
					<path id="SVGID_9_" enable-background="new    " d="M6.5,32.002c-2.209,0-4,0-4,0V7.999c0,0,1.791,0,4,0V32.002z"/>
				</defs>
				<clipPath id="SVGID_10_">
					<use xlink:href="#SVGID_9_"  overflow="visible"/>
				</clipPath>
				<g clip-path="url(#SVGID_10_)" enable-background="new    ">
					<polyline fill="#9BCB55" points="6.5,7.999 6.5,32.002 6.494,32.002 6.494,7.999 6.5,7.999 					"/>
					<path fill="#8DC641" d="M6.495,7.999l0,24.003c-0.023,0-0.045,0-0.068,0V7.999C6.449,7.999,6.471,7.999,6.495,7.999"/>
					<path fill="#8AC13F" d="M6.426,7.999v24.003c-0.023,0-0.046,0-0.068,0V7.999C6.38,7.999,6.403,7.999,6.426,7.999"/>
					<path fill="#87BD3E" d="M6.357,7.999v24.003c-0.023,0-0.045,0-0.068,0V7.999C6.312,7.999,6.334,7.999,6.357,7.999"/>
					<path fill="#85BA3D" d="M6.289,7.999v24.003c-0.022,0-0.045,0-0.068,0V7.999C6.244,7.999,6.267,7.999,6.289,7.999"/>
					<path fill="#82B73C" d="M6.221,7.999v24.003c-0.024,0-0.049,0-0.073,0V7.999C6.172,7.999,6.197,7.999,6.221,7.999"/>
					<path fill="#80B43B" d="M6.148,7.999v24.003c-0.029,0-0.059,0-0.087,0V7.999C6.09,7.999,6.119,7.999,6.148,7.999"/>
					<path fill="#7EB13A" d="M6.061,7.999v24.003c-0.029,0-0.058,0-0.087,0V7.999C6.003,7.999,6.032,7.999,6.061,7.999"/>
					<path fill="#7BAE39" d="M5.974,7.999v24.003c-0.029,0-0.058,0-0.086,0V7.999C5.917,7.999,5.945,7.999,5.974,7.999"/>
					<path fill="#79AB37" d="M5.888,7.999v24.003c-0.035,0-0.069,0-0.104,0V7.999C5.819,7.999,5.854,7.999,5.888,7.999"/>
					<path fill="#76A836" d="M5.785,7.999v24.003c-0.039,0-0.077,0-0.115,0V7.999C5.708,7.999,5.746,7.999,5.785,7.999"/>
					<path fill="#74A535" d="M5.669,7.999v24.003c-0.038,0-0.076,0-0.114,0V7.999C5.593,7.999,5.631,7.999,5.669,7.999"/>
					<path fill="#71A134" d="M5.555,7.999v24.003c-0.046,0-0.092,0-0.138,0V7.999C5.463,7.999,5.509,7.999,5.555,7.999"/>
					<path fill="#6F9E33" d="M5.417,7.999v24.003c-0.047,0-0.094,0-0.141,0V7.999C5.323,7.999,5.37,7.999,5.417,7.999"/>
					<path fill="#6C9B32" d="M5.277,7.999v24.003c-0.051,0-0.101,0-0.151,0V7.999C5.176,7.999,5.226,7.999,5.277,7.999"/>
					<path fill="#699830" d="M5.125,7.999v24.003c-0.052,0-0.103,0-0.154,0V7.999C5.022,7.999,5.074,7.999,5.125,7.999"/>
					<path fill="#67952F" d="M4.972,7.999v24.003c-0.054,0-0.107,0-0.16,0V7.999C4.865,7.999,4.918,7.999,4.972,7.999"/>
					<path fill="#64912E" d="M4.812,7.999v24.003c-0.054,0-0.106,0-0.159,0V7.999C4.706,7.999,4.758,7.999,4.812,7.999"/>
					<path fill="#618E2C" d="M4.653,7.999v24.003c-0.055,0-0.11,0-0.165,0V7.999C4.543,7.999,4.598,7.999,4.653,7.999"/>
					<path fill="#5F8B2B" d="M4.489,7.999v24.003c-0.056,0-0.111,0-0.166,0V7.999C4.377,7.999,4.433,7.999,4.489,7.999"/>
					<path fill="#5C882A" d="M4.323,7.999v24.003c-0.057,0-0.113,0-0.168,0V7.999C4.21,7.999,4.266,7.999,4.323,7.999"/>
					<path fill="#598529" d="M4.155,7.999v24.003c-0.061,0-0.121,0-0.18,0V7.999C4.034,7.999,4.094,7.999,4.155,7.999"/>
					<path fill="#578127" d="M3.975,7.999v24.003c-0.064,0-0.127,0-0.188,0V7.999C3.848,7.999,3.911,7.999,3.975,7.999"/>
					<path fill="#547E26" d="M3.787,7.999v24.003c-0.071,0-0.139,0-0.206,0V7.999C3.647,7.999,3.716,7.999,3.787,7.999"/>
					<path fill="#527B24" d="M3.581,7.999v24.003c-0.084,0-0.165,0-0.241,0V7.999C3.416,7.999,3.497,7.999,3.581,7.999"/>
					<path fill="#4F7823" d="M3.34,7.999v24.003c-0.526,0-0.839,0-0.839,0V7.999C2.5,7.999,2.814,7.999,3.34,7.999"/>
				</g>
			</g>
			<g enable-background="new    ">
				<defs>
					<path id="SVGID_11_" enable-background="new    " d="M6.5,7.999c-2.209,0-4,0-4,0c0-3.312,2.682-6.003,6.003-6.003
						c0,0,0,1.791,0,4C7.398,5.994,6.498,6.898,6.5,7.999z"/>
				</defs>
				<clipPath id="SVGID_12_">
					<use xlink:href="#SVGID_11_"  overflow="visible"/>
				</clipPath>
				<g clip-path="url(#SVGID_12_)" enable-background="new    ">
					<path fill="#B0D57C" d="M6.5,7.999c-2.209,0-4,0-4,0c0-3.312,2.682-6.003,6.003-6.003c0,0,0,1.791,0,4
						C7.398,5.994,6.498,6.898,6.5,7.999"/>
					<path fill="#B0D57C" d="M8.503,5.007c-0.062,0.25-0.062,0.25,0,0.318c0,0.218,0,0.442,0,0.671
						C7.398,5.994,6.498,6.898,6.5,7.999c-2.209,0-4,0-4,0c0-3.312,2.682-6.003,6.003-6.003C8.503,1.996,8.503,3.276,8.503,5.007"/>
					<path fill="#AED378" d="M8.503,4.83c-0.048,0.13-0.189,0.211-0.189,0.366c0,0.114,0.063,0.211,0.189,0.288
						c0,0.168,0,0.339,0,0.513C7.398,5.994,6.498,6.898,6.5,7.999c-2.209,0-4,0-4,0c0-3.312,2.682-6.003,6.003-6.003
						C8.503,1.996,8.503,3.189,8.503,4.83"/>
					<path fill="#ABD273" d="M8.503,4.711C8.418,4.897,8.162,4.966,8.162,5.21c0,0.103,0,0.258,0.342,0.385c0,0.132,0,0.266,0,0.401
						C7.398,5.994,6.498,6.898,6.5,7.999c-2.209,0-4,0-4,0c0-3.312,2.682-6.003,6.003-6.003C8.503,1.996,8.503,3.132,8.503,4.711"/>
					<path fill="#A8D16D" d="M8.503,4.609c-0.07,0.137-0.226,0.18-0.318,0.292C8.004,5.12,8.004,5.274,8.004,5.367
						c0,0.17,0.265,0.249,0.5,0.319c0,0.103,0,0.206,0,0.31C7.398,5.994,6.498,6.898,6.5,7.999c-2.209,0-4,0-4,0
						c0-3.312,2.682-6.003,6.003-6.003C8.503,1.996,8.503,3.083,8.503,4.609"/>
					<path fill="#A4CF66" d="M8.503,4.515C8.491,4.538,8.452,4.547,8.431,4.561C8.143,4.739,7.833,5.112,7.833,5.403
						c0,0.252,0.128,0.274,0.67,0.368c0,0.075,0,0.15,0,0.226C7.398,5.994,6.498,6.898,6.5,7.999c-2.209,0-4,0-4,0
						c0-3.312,2.682-6.003,6.003-6.003C8.503,1.996,8.503,3.039,8.503,4.515"/>
					<path fill="#A0CD5F" d="M8.503,4.424c-0.005,0.008-0.019,0.01-0.027,0.015C8.443,4.458,7.659,4.896,7.659,5.596
						c0,0.167,0,0.167,0.844,0.255c0,0.048,0,0.096,0,0.145C7.398,5.994,6.498,6.898,6.5,7.999c-2.209,0-4,0-4,0
						c0-3.312,2.682-6.003,6.003-6.003C8.503,1.996,8.503,2.997,8.503,4.424"/>
					<path fill="#9BCB55" d="M8.503,4.334C8.472,4.389,8.375,4.407,8.32,4.438c-0.479,0.271-0.864,0.9-0.864,1.24
						c0,0.241,0.063,0.255,0.188,0.285c0.29,0.069,0.572-0.046,0.86-0.037c0,0.023,0,0.046,0,0.069
						C7.398,5.994,6.498,6.898,6.5,7.999c-2.209,0-4,0-4,0c0-3.312,2.682-6.003,6.003-6.003C8.503,1.996,8.503,2.955,8.503,4.334"/>
					<path fill="#8DC641" d="M8.503,4.239C8.476,4.286,8.393,4.298,8.345,4.324c-0.057,0.03-0.567,0.314-0.897,0.932
						C7.421,5.307,7.388,5.376,7.366,5.43c-0.125,0.308-0.108,0.644-0.19,0.96C7.082,6.754,6.734,6.962,6.613,7.309
						c-0.111,0.32-0.116,0.542-0.119,0.69c-2.207,0-3.994,0-3.994,0c0-3.312,2.682-6.003,6.003-6.003
						C8.503,1.996,8.503,2.911,8.503,4.239"/>
					<path fill="#8AC13F" d="M8.503,4.14C8.48,4.178,8.412,4.186,8.372,4.206C8.171,4.307,7.664,4.618,7.283,5.325
						C7.275,5.341,6.418,7.067,6.429,7.999c-2.177,0-3.929,0-3.929,0c0-3.312,2.682-6.003,6.003-6.003
						C8.503,1.996,8.503,2.865,8.503,4.14"/>
					<path fill="#87BD3E" d="M8.503,4.033C8.482,4.066,8.42,4.074,8.384,4.091c-0.368,0.18-0.875,0.583-1.195,1.177
						C7.18,5.284,6.305,6.996,6.364,7.999c-2.146,0-3.864,0-3.864,0c0-3.312,2.682-6.003,6.003-6.003
						C8.503,1.996,8.503,2.817,8.503,4.033"/>
					<path fill="#85BA3D" d="M8.503,3.913C8.479,3.951,8.408,3.959,8.367,3.979C8.119,4.101,7.492,4.473,7.043,5.302
						C7.035,5.317,6.224,6.853,6.295,7.999c-2.114,0-3.794,0-3.794,0c0-3.312,2.682-6.003,6.003-6.003
						C8.503,1.996,8.503,2.763,8.503,3.913"/>
					<path fill="#82B73C" d="M8.503,3.777C8.47,3.831,8.371,3.843,8.314,3.871C8.056,4,7.401,4.401,6.893,5.344
						C6.885,5.358,6.121,6.791,6.226,7.999c-2.082,0-3.726,0-3.726,0c0-3.312,2.682-6.003,6.003-6.003
						C8.503,1.996,8.503,2.703,8.503,3.777"/>
					<path fill="#80B43B" d="M8.503,3.62c-0.013,0.02-0.05,0.025-0.071,0.035c-0.905,0.45-1.397,1.18-1.609,1.575
						C6.69,5.478,6.032,6.776,6.149,7.999c-2.045,0-3.649,0-3.649,0c0-3.312,2.682-6.003,6.003-6.003
						C8.503,1.996,8.503,2.635,8.503,3.62"/>
					<path fill="#7EB13A" d="M8.503,3.446c-0.038,0.063-0.152,0.077-0.218,0.11C8.059,3.672,7.273,4.133,6.692,5.22
						c-0.08,0.149-0.774,1.494-0.621,2.779c-2.007,0-3.57,0-3.57,0c0-3.312,2.682-6.003,6.003-6.003
						C8.503,1.996,8.503,2.561,8.503,3.446"/>
					<path fill="#7BAE39" d="M8.503,3.268c-0.034,0.053-0.133,0.063-0.19,0.09C8.07,3.474,7.225,3.945,6.588,5.142
						C6.459,5.384,5.823,6.663,5.985,7.999c-1.966,0-3.485,0-3.485,0c0-3.312,2.682-6.003,6.003-6.003
						C8.503,1.996,8.503,2.485,8.503,3.268"/>
					<path fill="#79AB37" d="M8.503,3.099c-0.03,0.046-0.118,0.05-0.168,0.071c-0.332,0.141-1.177,0.602-1.842,1.85
						C6.105,5.75,5.743,6.916,5.892,7.999c-1.921,0-3.392,0-3.392,0c0-3.312,2.682-6.003,6.003-6.003
						C8.503,1.996,8.503,2.416,8.503,3.099"/>
					<path fill="#76A836" d="M8.503,2.948C8.48,2.981,8.415,2.98,8.376,2.994c-0.55,0.2-1.339,0.689-1.979,1.883
						C5.989,5.636,5.616,6.855,5.792,7.999c-1.871,0-3.291,0-3.291,0c0-3.312,2.682-6.003,6.003-6.003
						C8.503,1.996,8.503,2.354,8.503,2.948"/>
					<path fill="#74A535" d="M8.503,2.813C8.493,2.827,8.464,2.824,8.447,2.83C7.552,3.105,6.828,3.742,6.293,4.724
						C5.866,5.508,5.481,6.781,5.681,7.999c-1.816,0-3.18,0-3.18,0c0-3.312,2.682-6.003,6.003-6.003
						C8.503,1.996,8.503,2.3,8.503,2.813"/>
					<path fill="#71A134" d="M8.503,2.691C8.461,2.747,8.347,2.737,8.28,2.757C7.887,2.874,6.898,3.283,6.187,4.565
						c-0.581,1.046-0.815,2.33-0.628,3.434c-1.754,0-3.058,0-3.058,0c0-3.312,2.682-6.003,6.003-6.003
						C8.503,1.996,8.503,2.252,8.503,2.691"/>
					<path fill="#6F9E33" d="M8.503,2.582C8.481,2.61,8.423,2.602,8.389,2.61C7.454,2.84,6.591,3.513,6.081,4.41
						C5.459,5.504,5.22,6.812,5.424,7.999c-1.687,0-2.923,0-2.923,0c0-3.312,2.682-6.003,6.003-6.003
						C8.503,1.996,8.503,2.21,8.503,2.582"/>
					<path fill="#6C9B32" d="M8.503,2.483C8.451,2.55,8.311,2.529,8.229,2.549C7.888,2.63,6.713,3.003,5.902,4.392
						C5.676,4.777,4.965,6.178,5.28,7.999c-1.612,0-2.779,0-2.779,0c0-3.312,2.682-6.003,6.003-6.003
						C8.503,1.996,8.503,2.173,8.503,2.483"/>
					<path fill="#699830" d="M8.503,2.395C8.477,2.427,8.409,2.413,8.368,2.42C7.75,2.539,6.588,2.944,5.757,4.325
						c-0.295,0.49-0.948,1.83-0.629,3.674c-1.533,0-2.628,0-2.628,0c0-3.312,2.682-6.003,6.003-6.003
						C8.503,1.996,8.503,2.139,8.503,2.395"/>
					<path fill="#67952F" d="M8.503,2.314C8.447,2.383,8.3,2.353,8.213,2.369c-0.268,0.05-1.653,0.375-2.57,1.851
						c-0.389,0.626-0.993,1.95-0.67,3.78c-1.452,0-2.473,0-2.473,0c0-3.312,2.682-6.003,6.003-6.003
						C8.503,1.996,8.503,2.109,8.503,2.314"/>
					<path fill="#64912E" d="M8.503,2.243C8.475,2.275,8.402,2.257,8.359,2.264C7.247,2.425,6.177,3.117,5.566,4.069
						c-0.751,1.172-1.004,2.495-0.751,3.93c-1.367,0-2.314,0-2.314,0c0-3.312,2.682-6.003,6.003-6.003
						C8.503,1.996,8.503,2.083,8.503,2.243"/>
					<path fill="#618E2C" d="M8.503,2.179C8.444,2.247,8.294,2.208,8.205,2.221c-0.292,0.041-1.8,0.323-2.814,1.856
						C4.879,4.851,4.336,6.159,4.654,7.999c-1.28,0-2.153,0-2.153,0c0-3.312,2.682-6.003,6.003-6.003
						C8.503,1.996,8.503,2.06,8.503,2.179"/>
					<path fill="#5F8B2B" d="M8.503,2.123c-0.036,0.04-0.125,0.013-0.178,0.019C7.749,2.203,6.293,2.511,5.244,4.048
						C4.51,5.123,4.229,6.6,4.492,7.999c-1.191,0-1.991,0-1.991,0c0-3.312,2.682-6.003,6.003-6.003
						C8.503,1.996,8.503,2.04,8.503,2.123"/>
					<path fill="#5C882A" d="M8.503,2.075c-0.062,0.068-0.213,0.021-0.304,0.03C7.885,2.136,6.263,2.369,5.155,3.94
						C4.6,4.728,4.005,6.071,4.326,7.999c-1.099,0-1.825,0-1.825,0c0-3.312,2.682-6.003,6.003-6.003
						C8.503,1.996,8.503,2.023,8.503,2.075"/>
					<path fill="#598529" d="M8.503,2.037C8.443,2.103,8.295,2.053,8.206,2.06c-0.9,0.069-2.262,0.576-3.137,1.776
						C4.204,5.023,3.896,6.424,4.156,7.999c-1.003,0-1.655,0-1.655,0c0-3.312,2.682-6.003,6.003-6.003
						C8.503,1.996,8.503,2.01,8.503,2.037"/>
					<path fill="#578127" d="M8.503,2.01C8.457,2.059,8.347,2.018,8.279,2.021C7.02,2.083,5.727,2.755,4.986,3.736
						C4.055,4.969,3.716,6.403,3.979,7.999c-0.902,0-1.479,0-1.479,0c0-3.312,2.682-6.003,6.003-6.003
						C8.503,1.996,8.503,2.001,8.503,2.01"/>
					<path fill="#547E26" d="M8.503,1.997C8.458,2.044,8.35,2,8.284,2.002c-1.3,0.034-2.649,0.703-3.437,1.706
						C3.895,4.922,3.54,6.366,3.792,7.999c-0.794,0-1.291,0-1.291,0C2.5,4.687,5.183,1.996,8.503,1.997
						C8.503,1.996,8.503,1.996,8.503,1.997"/>
					<path fill="#527B24" d="M7.588,2.066c-3.154,0.567-4.4,3.414-4.001,5.933c-0.674,0-1.086,0-1.086,0
						c0-3.063,2.295-5.596,5.268-5.958C7.714,2.048,7.642,2.057,7.588,2.066"/>
					<path fill="#4F7823" d="M6.438,2.362c-2.198,0.851-3.44,3.116-3.091,5.637c-0.53,0-0.846,0-0.846,0
						c0-2.687,1.765-4.965,4.205-5.729C6.625,2.297,6.517,2.333,6.438,2.362"/>
				</g>
			</g>
			<g enable-background="new    ">
				<defs>
					<path id="SVGID_13_" enable-background="new    " d="M8.503,5.996c0-2.209,0-4,0-4h63c0,0,0,1.791,0,4H8.503z"/>
				</defs>
				<clipPath id="SVGID_14_">
					<use xlink:href="#SVGID_13_"  overflow="visible"/>
				</clipPath>
				<g clip-path="url(#SVGID_14_)" enable-background="new    ">
					<path fill="#9BCB55" d="M71.503,5.996h-63c0-0.024,0-0.048,0-0.073h63C71.503,5.948,71.503,5.972,71.503,5.996"/>
					<path fill="#A0CD5F" d="M71.503,5.923h-63c0-0.026,0-0.053,0-0.079h63C71.503,5.871,71.503,5.897,71.503,5.923"/>
					<path fill="#A4CF66" d="M71.503,5.844h-63c0-0.027,0-0.053,0-0.079h63C71.503,5.792,71.503,5.817,71.503,5.844"/>
					<path fill="#A8D16D" d="M71.503,5.765h-63c0-0.026,0-0.053,0-0.079h63C71.503,5.712,71.503,5.739,71.503,5.765"/>
					<path fill="#ABD273" d="M71.503,5.687h-63c0-0.038,0-0.075,0-0.112h63C71.503,5.612,71.503,5.649,71.503,5.687"/>
					<path fill="#AED378" d="M71.503,5.575h-63c0-0.04,0-0.081,0-0.121h63C71.503,5.494,71.503,5.535,71.503,5.575"/>
					<path fill="#B0D57C" d="M71.503,5.454h-63c0-0.085,0-0.169,0-0.252h63C71.503,5.285,71.503,5.369,71.503,5.454"/>
					<path fill="#B3D680" d="M71.503,5.202h-63c0-0.063,0-0.125,0-0.187h63C71.503,5.077,71.503,5.14,71.503,5.202"/>
					<path fill="#B0D57C" d="M71.503,5.015h-63c0-0.053,0-0.105,0-0.157h63C71.503,4.91,71.503,4.962,71.503,5.015"/>
					<path fill="#AED378" d="M71.503,4.858h-63c0-0.048,0-0.097,0-0.145h63C71.503,4.761,71.503,4.81,71.503,4.858"/>
					<path fill="#ABD273" d="M71.503,4.713h-63c0-0.032,0-0.065,0-0.097h63C71.503,4.648,71.503,4.681,71.503,4.713"/>
					<path fill="#A8D16D" d="M71.503,4.616h-63c0-0.032,0-0.064,0-0.096h63C71.503,4.552,71.503,4.584,71.503,4.616"/>
					<path fill="#A4CF66" d="M71.503,4.521h-63c0-0.032,0-0.063,0-0.095h63C71.503,4.457,71.503,4.489,71.503,4.521"/>
					<path fill="#A0CD5F" d="M71.503,4.426h-63c0-0.032,0-0.064,0-0.095h63C71.503,4.362,71.503,4.394,71.503,4.426"/>
					<path fill="#9BCB55" d="M71.503,4.331h-63c0-0.032,0-0.063,0-0.094h63C71.503,4.268,71.503,4.299,71.503,4.331"/>
					<path fill="#8DC641" d="M71.503,4.237h-63c0-0.033,0-0.064,0-0.096h63C71.503,4.172,71.503,4.204,71.503,4.237"/>
					<path fill="#8AC13F" d="M71.503,4.141h-63c0-0.039,0-0.078,0-0.116h63C71.503,4.063,71.503,4.102,71.503,4.141"/>
					<path fill="#87BD3E" d="M71.503,4.025h-63c0-0.038,0-0.076,0-0.113h63C71.503,3.949,71.503,3.987,71.503,4.025"/>
					<path fill="#85BA3D" d="M71.503,3.912h-63c0-0.048,0-0.096,0-0.143h63C71.503,3.816,71.503,3.863,71.503,3.912"/>
					<path fill="#82B73C" d="M71.503,3.769h-63c0-0.05,0-0.1,0-0.149h63C71.503,3.669,71.503,3.719,71.503,3.769"/>
					<path fill="#80B43B" d="M71.503,3.62h-63c0-0.06,0-0.119,0-0.176h63C71.503,3.501,71.503,3.561,71.503,3.62"/>
					<path fill="#7EB13A" d="M71.503,3.444h-63c0-0.061,0-0.119,0-0.176h63C71.503,3.325,71.503,3.384,71.503,3.444"/>
					<path fill="#7BAE39" d="M71.503,3.268h-63c0-0.057,0-0.113,0-0.167h63C71.503,3.155,71.503,3.211,71.503,3.268"/>
					<path fill="#79AB37" d="M71.503,3.101h-63c0-0.053,0-0.104,0-0.153h63C71.503,2.997,71.503,3.048,71.503,3.101"/>
					<path fill="#76A836" d="M71.503,2.948h-63c0-0.047,0-0.091,0-0.135h63C71.503,2.857,71.503,2.901,71.503,2.948"/>
					<path fill="#74A535" d="M71.503,2.813h-63c0-0.042,0-0.083,0-0.122h63C71.503,2.731,71.503,2.771,71.503,2.813"/>
					<path fill="#71A134" d="M71.503,2.692h-63c0-0.038,0-0.075,0-0.11h63C71.503,2.617,71.503,2.654,71.503,2.692"/>
					<path fill="#6F9E33" d="M71.503,2.582h-63c0-0.034,0-0.067,0-0.098h63C71.503,2.515,71.503,2.548,71.503,2.582"/>
					<path fill="#6C9B32" d="M71.503,2.484h-63c0-0.031,0-0.061,0-0.089h63C71.503,2.423,71.503,2.453,71.503,2.484"/>
					<path fill="#699830" d="M71.503,2.395h-63c0-0.028,0-0.055,0-0.08h63C71.503,2.34,71.503,2.367,71.503,2.395"/>
					<path fill="#67952F" d="M71.503,2.314h-63c0-0.025,0-0.05,0-0.072h63C71.503,2.265,71.503,2.289,71.503,2.314"/>
					<path fill="#64912E" d="M71.503,2.242h-63c0-0.022,0-0.044,0-0.064h63C71.503,2.198,71.503,2.22,71.503,2.242"/>
					<path fill="#618E2C" d="M71.503,2.178h-63c0-0.02,0-0.039,0-0.056h63C71.503,2.14,71.503,2.158,71.503,2.178"/>
					<path fill="#5F8B2B" d="M71.503,2.123h-63c0-0.018,0-0.034,0-0.048h63C71.503,2.089,71.503,2.105,71.503,2.123"/>
					<path fill="#5C882A" d="M71.503,2.075h-63c0-0.015,0-0.027,0-0.038h63C71.503,2.047,71.503,2.06,71.503,2.075"/>
					<path fill="#598529" d="M71.503,2.037h-63c0-0.012,0-0.021,0-0.027h63C71.503,2.017,71.503,2.025,71.503,2.037"/>
					<path fill="#578127" d="M71.503,2.01h-63c0-0.007,0-0.012,0-0.013h63C71.503,1.998,71.503,2.002,71.503,2.01"/>
					<polyline fill="#547E26" points="71.503,1.997 8.503,1.997 8.503,1.996 71.503,1.996 71.503,1.997 					"/>
				</g>
			</g>
			<g enable-background="new    ">
				<defs>
					<path id="SVGID_15_" enable-background="new    " d="M8.503,33.996c0,2.209,0,4,0,4c-3.321,0-6.003-2.682-6.003-5.994
						c0,0,1.791,0,4,0C6.499,33.101,7.393,33.996,8.503,33.996z"/>
				</defs>
				<clipPath id="SVGID_16_">
					<use xlink:href="#SVGID_15_"  overflow="visible"/>
				</clipPath>
				<g clip-path="url(#SVGID_16_)" enable-background="new    ">
					<path fill="#8DC641" d="M8.503,33.996c0,2.209,0,4,0,4c-3.321,0-6.003-2.682-6.003-5.994c0,0,1.791,0,4,0
						C6.499,33.101,7.393,33.996,8.503,33.996"/>
					<path fill="#8DC641" d="M6.495,32.002c0.022,0.021,0.002,0.072,0.002,0.103c0.019,0.766,0.654,1.861,2.006,1.898
						c0,2.206,0,3.993,0,3.993c-3.321,0-6.003-2.682-6.003-5.994C2.5,32.002,4.288,32.002,6.495,32.002"/>
					<path fill="#8AC13F" d="M6.429,32.002c0.023,0.022,0.003,0.074,0.004,0.105c0.027,0.717,0.613,1.885,2.07,1.971
						c0,2.172,0,3.918,0,3.918c-3.321,0-6.003-2.682-6.003-5.994C2.5,32.002,4.252,32.002,6.429,32.002"/>
					<path fill="#87BD3E" d="M6.364,32.002c0.024,0.022,0.004,0.076,0.005,0.109c0.038,0.749,0.637,1.911,2.134,2.043
						c0,2.136,0,3.842,0,3.842c-3.321,0-6.003-2.682-6.003-5.994C2.5,32.002,4.218,32.002,6.364,32.002"/>
					<path fill="#85BA3D" d="M6.295,32.002c0.025,0.023,0.005,0.079,0.007,0.112c0.048,0.764,0.673,1.957,2.202,2.117
						c0,2.1,0,3.765,0,3.765c-3.321,0-6.003-2.682-6.003-5.994C2.5,32.002,4.181,32.002,6.295,32.002"/>
					<path fill="#82B73C" d="M6.226,32.002c0.025,0.023,0.006,0.081,0.008,0.116c0.057,0.777,0.708,2.003,2.27,2.192
						c0,2.063,0,3.686,0,3.686c-3.321,0-6.003-2.682-6.003-5.994C2.5,32.002,4.145,32.002,6.226,32.002"/>
					<path fill="#80B43B" d="M6.149,32.002c0.027,0.024,0.007,0.084,0.01,0.12c0.068,0.803,0.748,2.069,2.344,2.27
						c0,2.023,0,3.604,0,3.604c-3.321,0-6.003-2.682-6.003-5.994C2.5,32.002,4.104,32.002,6.149,32.002"/>
					<path fill="#7EB13A" d="M6.071,32.002c0.027,0.025,0.008,0.087,0.012,0.124c0.069,0.703,0.665,2.101,2.42,2.354
						c0,1.98,0,3.516,0,3.516c-3.321,0-6.003-2.682-6.003-5.994C2.5,32.002,4.063,32.002,6.071,32.002"/>
					<path fill="#7BAE39" d="M5.985,32.002c0.029,0.026,0.009,0.09,0.014,0.129c0.075,0.714,0.695,2.144,2.505,2.442
						c0,1.936,0,3.423,0,3.423c-3.321,0-6.003-2.682-6.003-5.994C2.5,32.002,4.019,32.002,5.985,32.002"/>
					<path fill="#79AB37" d="M5.891,32.002c0.171,1.397,1.196,2.445,2.612,2.67c0,1.888,0,3.324,0,3.324
						c-3.321,0-6.003-2.682-6.003-5.994C2.5,32.002,3.971,32.002,5.891,32.002"/>
					<path fill="#76A836" d="M5.79,32.002c0.032,0.027,0.014,0.097,0.02,0.139c0.114,0.819,0.811,2.3,2.694,2.643
						c0,1.832,0,3.213,0,3.213c-3.321,0-6.003-2.682-6.003-5.994C2.5,32.002,3.919,32.002,5.79,32.002"/>
					<path fill="#74A535" d="M5.68,32.002c0.026,0.022,0.012,0.079,0.017,0.113c0.158,1.063,0.988,2.43,2.807,2.788
						c0,1.772,0,3.093,0,3.093c-3.321,0-6.003-2.682-6.003-5.994C2.5,32.002,3.864,32.002,5.68,32.002"/>
					<path fill="#71A134" d="M5.557,32.002c0.012,0.011,0.006,0.038,0.008,0.055c0.178,1.178,1.044,2.579,2.938,2.979
						c0,1.705,0,2.961,0,2.961c-3.321,0-6.003-2.682-6.003-5.994C2.5,32.002,3.803,32.002,5.557,32.002"/>
					<path fill="#6F9E33" d="M5.423,32.002c0.021,0.018,0.011,0.063,0.016,0.091c0.204,1.206,1.116,2.649,3.065,3.085
						c0,1.633,0,2.818,0,2.818c-3.321,0-6.003-2.682-6.003-5.994C2.5,32.002,3.737,32.002,5.423,32.002"/>
					<path fill="#6C9B32" d="M5.279,32.002c0.039,0.032,0.021,0.115,0.031,0.164c0.231,1.226,1.192,2.7,3.194,3.165
						c0,1.553,0,2.665,0,2.665c-3.321,0-6.003-2.682-6.003-5.994C2.5,32.002,3.667,32.002,5.279,32.002"/>
					<path fill="#699830" d="M5.127,32.002c0.041,0.033,0.023,0.12,0.034,0.172c0.085,0.437,0.645,2.649,3.342,3.316
						c0,1.469,0,2.506,0,2.506c-3.321,0-6.003-2.682-6.003-5.994C2.5,32.002,3.595,32.002,5.127,32.002"/>
					<path fill="#67952F" d="M4.972,32.002c0.042,0.035,0.025,0.126,0.035,0.18c0.091,0.457,0.684,2.773,3.496,3.471
						c0,1.383,0,2.344,0,2.344c-3.321,0-6.003-2.682-6.003-5.994C2.5,32.002,3.521,32.002,4.972,32.002"/>
					<path fill="#64912E" d="M4.814,32.002c0.014,0.012,0.008,0.043,0.011,0.063c0.267,1.45,1.373,3.197,3.678,3.752
						c0,1.294,0,2.18,0,2.18c-3.321,0-6.003-2.682-6.003-5.994C2.5,32.002,3.447,32.002,4.814,32.002"/>
					<path fill="#618E2C" d="M4.653,32.002c0.046,0.038,0.027,0.137,0.039,0.196c0.1,0.5,0.752,3.035,3.811,3.783
						c0,1.204,0,2.015,0,2.015c-3.321,0-6.003-2.682-6.003-5.994C2.5,32.002,3.374,32.002,4.653,32.002"/>
					<path fill="#5F8B2B" d="M4.491,32.002c0.048,0.04,0.028,0.143,0.04,0.204c0.287,1.466,1.499,3.377,3.973,3.941
						c0,1.111,0,1.849,0,1.849c-3.321,0-6.003-2.682-6.003-5.994C2.5,32.002,3.3,32.002,4.491,32.002"/>
					<path fill="#5C882A" d="M4.325,32.002c0.05,0.041,0.029,0.148,0.042,0.213c0.295,1.515,1.556,3.498,4.137,4.101
						c0,1.018,0,1.681,0,1.681c-3.321,0-6.003-2.682-6.003-5.994C2.5,32.002,3.227,32.002,4.325,32.002"/>
					<path fill="#598529" d="M4.155,32.002c0.052,0.043,0.029,0.155,0.042,0.222c0.065,0.351,0.741,3.448,4.307,4.264
						c0,0.919,0,1.509,0,1.509c-3.321,0-6.003-2.682-6.003-5.994C2.5,32.002,3.153,32.002,4.155,32.002"/>
					<path fill="#578127" d="M3.978,32.002c0.518,2.854,2.677,4.278,4.525,4.662c0,0.817,0,1.332,0,1.332
						c-3.321,0-6.003-2.682-6.003-5.994C2.5,32.002,3.077,32.002,3.978,32.002"/>
					<path fill="#547E26" d="M3.791,32.002c0.056,0.047,0.029,0.168,0.042,0.24c0.321,1.842,1.919,4.069,4.671,4.607
						c0,0.709,0,1.146,0,1.146c-3.321,0-6.003-2.682-6.003-5.994C2.5,32.002,2.998,32.002,3.791,32.002"/>
					<path fill="#527B24" d="M3.587,32.002c0.058,0.05,0.028,0.176,0.04,0.251c0.221,1.377,1.525,4.151,4.876,4.797
						c0,0.591,0,0.946,0,0.946c-3.321,0-6.003-2.682-6.003-5.994C2.5,32.002,2.913,32.002,3.587,32.002"/>
					<path fill="#4F7823" d="M3.347,32.002c0.06,0.053,0.027,0.185,0.038,0.264c0.249,1.699,1.816,4.438,5.119,5.016
						c0,0.451,0,0.715,0,0.715c-3.321,0-6.003-2.682-6.003-5.994C2.5,32.002,2.816,32.002,3.347,32.002"/>
				</g>
			</g>
			<g enable-background="new    ">
				<defs>
					<path id="SVGID_17_" enable-background="new    " d="M73.498,7.999c2.209,0,4,0,4,0v24.003c0,0-1.791,0-4,0V7.999z"/>
				</defs>
				<clipPath id="SVGID_18_">
					<use xlink:href="#SVGID_17_"  overflow="visible"/>
				</clipPath>
				<g clip-path="url(#SVGID_18_)" enable-background="new    ">
					<path fill="#9BCB55" d="M73.498,32.002V7.999c0.02,0,0.038,0,0.058,0v24.003C73.536,32.002,73.517,32.002,73.498,32.002"/>
					<path fill="#A0CD5F" d="M73.555,32.002V7.999c0.021,0,0.042,0,0.063,0v24.003C73.597,32.002,73.577,32.002,73.555,32.002"/>
					<path fill="#A4CF66" d="M73.619,32.002V7.999c0.021,0,0.042,0,0.063,0v24.003C73.661,32.002,73.639,32.002,73.619,32.002"/>
					<path fill="#A8D16D" d="M73.681,32.002V7.999c0.021,0,0.042,0,0.063,0v24.003C73.723,32.002,73.703,32.002,73.681,32.002"/>
					<path fill="#ABD273" d="M73.745,32.002V7.999c0.021,0,0.041,0,0.063,0v24.003C73.786,32.002,73.765,32.002,73.745,32.002"/>
					<path fill="#AED378" d="M73.807,32.002V7.999c0.024,0,0.049,0,0.073,0v24.003C73.856,32.002,73.832,32.002,73.807,32.002"/>
					<path fill="#B0D57C" d="M73.88,32.002V7.999c0.026,0,0.053,0,0.079,0v24.003C73.933,32.002,73.907,32.002,73.88,32.002"/>
					<path fill="#B3D680" d="M73.959,32.002V7.999c0.026,0,0.052,0,0.078,0v24.003C74.011,32.002,73.986,32.002,73.959,32.002"/>
					<path fill="#B5D784" d="M74.038,32.002V7.999c0.025,0,0.052,0,0.077,0v24.003C74.089,32.002,74.063,32.002,74.038,32.002"/>
					<path fill="#B7D887" d="M74.115,32.002V7.999c0.054,0,0.105,0,0.158,0v24.003C74.22,32.002,74.168,32.002,74.115,32.002"/>
					<path fill="#B9D98B" d="M74.273,32.002V7.999c0.125,0,0.248,0,0.368,0v24.003C74.521,32.002,74.398,32.002,74.273,32.002"/>
					<path fill="#B7D887" d="M74.641,32.002V7.999c0.053,0,0.105,0,0.157,0v24.003C74.747,32.002,74.694,32.002,74.641,32.002"/>
					<path fill="#B5D784" d="M74.798,32.002V7.999c0.03,0,0.06,0,0.089,0v24.003C74.858,32.002,74.829,32.002,74.798,32.002"/>
					<path fill="#B3D680" d="M74.887,32.002V7.999c0.03,0,0.06,0,0.089,0v24.003C74.947,32.002,74.917,32.002,74.887,32.002"/>
					<path fill="#B0D57C" d="M74.976,32.002V7.999c0.028,0,0.058,0,0.086,0v24.003C75.034,32.002,75.004,32.002,74.976,32.002"/>
					<path fill="#AED378" d="M75.062,32.002V7.999c0.025,0,0.052,0,0.077,0v24.003C75.114,32.002,75.087,32.002,75.062,32.002"/>
					<path fill="#ABD273" d="M75.139,32.002V7.999c0.025,0,0.051,0,0.076,0v24.003C75.19,32.002,75.165,32.002,75.139,32.002"/>
					<path fill="#A8D16D" d="M75.215,32.002V7.999c0.025,0,0.051,0,0.076,0v24.003C75.266,32.002,75.241,32.002,75.215,32.002"/>
					<path fill="#A4CF66" d="M75.292,32.002V7.999c0.027,0,0.054,0,0.081,0v24.003C75.345,32.002,75.319,32.002,75.292,32.002"/>
					<path fill="#A0CD5F" d="M75.373,32.002V7.999c0.029,0,0.06,0,0.089,0v24.003C75.432,32.002,75.402,32.002,75.373,32.002"/>
					<path fill="#9BCB55" d="M75.461,32.002V7.999c0.029,0,0.059,0,0.088,0v24.003C75.52,32.002,75.491,32.002,75.461,32.002"/>
					<path fill="#8DC641" d="M75.549,32.002V7.999c0.033,0,0.065,0,0.099,0v24.003C75.615,32.002,75.583,32.002,75.549,32.002"/>
					<path fill="#8AC13F" d="M75.648,32.002V7.999c0.04,0,0.079,0,0.119,0v24.003C75.727,32.002,75.688,32.002,75.648,32.002"/>
					<path fill="#87BD3E" d="M75.767,32.002V7.999c0.042,0,0.083,0,0.124,0v24.003C75.85,32.002,75.809,32.002,75.767,32.002"/>
					<path fill="#85BA3D" d="M75.891,32.002V7.999c0.053,0,0.105,0,0.156,0v24.003C75.997,32.002,75.944,32.002,75.891,32.002"/>
					<path fill="#82B73C" d="M76.047,32.002V7.999c0.057,0,0.112,0,0.166,0v24.003C76.16,32.002,76.104,32.002,76.047,32.002"/>
					<path fill="#80B43B" d="M76.213,32.002V7.999c0.057,0,0.112,0,0.167,0v24.003C76.326,32.002,76.27,32.002,76.213,32.002"/>
					<path fill="#7EB13A" d="M76.38,32.002V7.999c0.054,0,0.105,0,0.156,0v24.003C76.486,32.002,76.434,32.002,76.38,32.002"/>
					<path fill="#7BAE39" d="M76.537,32.002V7.999c0.048,0,0.093,0,0.137,0v24.003C76.629,32.002,76.584,32.002,76.537,32.002"/>
					<path fill="#79AB37" d="M76.673,32.002V7.999c0.043,0,0.084,0,0.123,0v24.003C76.757,32.002,76.716,32.002,76.673,32.002"/>
					<path fill="#76A836" d="M76.796,32.002V7.999c0.038,0,0.074,0,0.11,0v24.003C76.871,32.002,76.834,32.002,76.796,32.002"/>
					<path fill="#74A535" d="M76.907,32.002V7.999c0.033,0,0.065,0,0.096,0v24.003C76.972,32.002,76.94,32.002,76.907,32.002"/>
					<path fill="#71A134" d="M77.002,32.002V7.999c0.03,0,0.06,0,0.088,0v24.003C77.062,32.002,77.033,32.002,77.002,32.002"/>
					<path fill="#6F9E33" d="M77.09,32.002V7.999c0.027,0,0.053,0,0.078,0v24.003C77.143,32.002,77.118,32.002,77.09,32.002"/>
					<path fill="#6C9B32" d="M77.168,32.002V7.999c0.024,0,0.047,0,0.069,0v24.003C77.215,32.002,77.193,32.002,77.168,32.002"/>
					<path fill="#699830" d="M77.238,32.002V7.999c0.021,0,0.042,0,0.062,0v24.003C77.28,32.002,77.259,32.002,77.238,32.002"/>
					<path fill="#67952F" d="M77.299,32.002V7.999c0.02,0,0.037,0,0.054,0v24.003C77.336,32.002,77.319,32.002,77.299,32.002"/>
					<path fill="#64912E" d="M77.353,32.002V7.999c0.018,0,0.033,0,0.047,0v24.003C77.386,32.002,77.371,32.002,77.353,32.002"/>
					<path fill="#618E2C" d="M77.4,32.002V7.999c0.015,0,0.027,0,0.038,0v24.003C77.427,32.002,77.415,32.002,77.4,32.002"/>
					<path fill="#5F8B2B" d="M77.438,32.002V7.999c0.012,0,0.022,0,0.03,0v24.003C77.46,32.002,77.45,32.002,77.438,32.002"/>
					<path fill="#5C882A" d="M77.468,32.002V7.999c0.009,0,0.016,0,0.021,0v24.003C77.484,32.002,77.477,32.002,77.468,32.002"/>
					<polyline fill="#598529" points="77.489,32.002 77.489,7.999 77.498,7.999 77.498,32.002 77.489,32.002 					"/>
					<polyline fill="#578127" points="77.498,32.002 77.498,7.999 77.498,7.999 77.498,32.002 77.498,32.002 					"/>
				</g>
			</g>
			<g>
				<path fill="#7CAF39" d="M71.503,5.996c1.095-0.003,1.996,0.9,1.994,2.003c0,8.001,0,16.002,0,24.003
					c0.002,1.1-0.895,1.996-1.994,1.994c-21,0-42,0-63,0c-1.11,0-2.005-0.896-2.003-1.994c0-8.001,0-16.002,0-24.003
					C6.498,6.898,7.398,5.994,8.503,5.996C29.503,5.996,50.503,5.996,71.503,5.996z"/>
			</g>
		</g>
	</g>
</g>
</svg>
