<?xml version="1.0" encoding="utf-8"?>
<!-- Generator: Adobe Illustrator 15.0.2, SVG Export Plug-In . SVG Version: 6.00 Build 0)  -->
<!DOCTYPE svg PUBLIC "-//W3C//DTD SVG 1.1//EN" "http://www.w3.org/Graphics/SVG/1.1/DTD/svg11.dtd">
<svg version="1.1" id="Layer_1" xmlns="http://www.w3.org/2000/svg" xmlns:xlink="http://www.w3.org/1999/xlink" x="0px" y="0px"
	 width="80px" height="40px" viewBox="0 0 80 40" enable-background="new 0 0 80 40" xml:space="preserve">
<g>
	<g>
		<g enable-background="new    ">
			<g>
				<path fill="#547E25" d="M10.466,3.121h59.067H10.466z"/>
			</g>
			<g enable-background="new    ">
				<defs>
					<path id="SVGID_1_" enable-background="new    " d="M75.158,31.246c0,3.114-2.521,5.625-5.625,5.625
						C72.637,36.871,75.158,34.36,75.158,31.246z"/>
				</defs>
				<clipPath id="SVGID_2_">
					<use xlink:href="#SVGID_1_"  overflow="visible"/>
				</clipPath>
				<g clip-path="url(#SVGID_2_)" enable-background="new    ">
					<path fill="#578127" d="M75.158,31.246c0,0.253-0.017,0.502-0.049,0.745C75.141,31.748,75.158,31.499,75.158,31.246"/>
					<path fill="#547E26" d="M75.109,31.991c-0.039,0.294-0.101,0.581-0.183,0.858C75.008,32.572,75.07,32.285,75.109,31.991"/>
					<path fill="#527B24" d="M74.926,32.85c-0.098,0.329-0.224,0.645-0.376,0.945C74.703,33.494,74.829,33.179,74.926,32.85"/>
					<path fill="#4F7823" d="M74.55,33.795c-0.93,1.828-2.828,3.076-5.018,3.076C71.722,36.871,73.621,35.623,74.55,33.795"/>
				</g>
			</g>
			<g enable-background="new    ">
				<defs>
					<path id="SVGID_3_" enable-background="new    " d="M71.158,31.246c2.209,0,4,0,4,0c0,3.114-2.521,5.625-5.625,5.625
						c0,0,0-1.791,0-4C70.427,32.873,71.159,32.145,71.158,31.246z"/>
				</defs>
				<clipPath id="SVGID_4_">
					<use xlink:href="#SVGID_3_"  overflow="visible"/>
				</clipPath>
				<g clip-path="url(#SVGID_4_)" enable-background="new    ">
					<path fill="#B7D887" d="M71.158,31.246c2.209,0,4,0,4,0c0,3.114-2.521,5.625-5.625,5.625c0,0,0-1.791,0-4
						C70.427,32.873,71.159,32.145,71.158,31.246"/>
					<path fill="#B7D887" d="M69.533,32.871c0.895,0.002,1.626-0.727,1.625-1.625c0.249,0,0.492,0,0.729,0
						c0.022,0.019,0.054,0.043,0.077,0.061c0.073,0.021,0.246,0.067,0.389-0.061c1.626,0,2.806,0,2.806,0
						c0,3.114-2.521,5.625-5.625,5.625C69.533,36.871,69.533,35.08,69.533,32.871"/>
					<path fill="#B5D784" d="M69.533,32.871c0.895,0.002,1.626-0.727,1.625-1.625c0.208,0,0.413,0,0.612,0
						c0.019,0.026,0.043,0.062,0.062,0.087c0.231,0.18,0.356,0.163,0.637-0.087c1.565,0,2.689,0,2.689,0
						c0,3.114-2.521,5.625-5.625,5.625C69.533,36.871,69.533,35.08,69.533,32.871"/>
					<path fill="#B3D680" d="M69.533,32.871c0.895,0.002,1.626-0.727,1.625-1.625c0.177,0,0.352,0,0.522,0
						c0.006,0.014,0.014,0.031,0.02,0.045c0.115,0.181,0.353,0.557,0.861-0.045c1.517,0,2.597,0,2.597,0
						c0,3.114-2.521,5.625-5.625,5.625C69.533,36.871,69.533,35.08,69.533,32.871"/>
					<path fill="#B0D57C" d="M69.533,32.871c0.895,0.002,1.626-0.727,1.625-1.625c0.151,0,0.3,0,0.446,0
						c0.013,0.033,0.03,0.076,0.043,0.109c0.259,0.649,0.783,0.207,0.997-0.109c1.474,0,2.514,0,2.514,0
						c0,3.114-2.521,5.625-5.625,5.625C69.533,36.871,69.533,35.08,69.533,32.871"/>
					<path fill="#AED378" d="M69.533,32.871c0.895,0.002,1.626-0.727,1.625-1.625c0.127,0,0.252,0,0.375,0
						c0.009,0.031,0.021,0.073,0.028,0.104c0.351,1.113,1.153-0.091,1.161-0.104c1.432,0,2.436,0,2.436,0
						c0,3.114-2.521,5.625-5.625,5.625C69.533,36.871,69.533,35.08,69.533,32.871"/>
					<path fill="#ABD273" d="M69.533,32.871c0.895,0.002,1.626-0.727,1.625-1.625c0.104,0,0.207,0,0.309,0
						c0.007,0.03,0.016,0.07,0.022,0.101c0.255,1.315,1.201,0.076,1.211,0.063c0.032-0.047,0.068-0.114,0.098-0.163
						c1.392,0,2.36,0,2.36,0c0,3.114-2.521,5.625-5.625,5.625C69.533,36.871,69.533,35.08,69.533,32.871"/>
					<path fill="#A8D16D" d="M69.533,32.871c0.895,0.002,1.626-0.727,1.625-1.625c0.082,0,0.163,0,0.244,0
						c0.004,0.029,0.01,0.068,0.015,0.098c0.183,1.564,1.275,0.198,1.286,0.183c0.083-0.112,0.124-0.19,0.171-0.28
						c1.351,0,2.284,0,2.284,0c0,3.114-2.521,5.625-5.625,5.625C69.533,36.871,69.533,35.08,69.533,32.871"/>
					<path fill="#A4CF66" d="M69.533,32.871c0.895,0.002,1.626-0.727,1.625-1.625c0.061,0,0.121,0,0.182,0
						c0.003,0.028,0.007,0.065,0.01,0.094c0.052,0.784,0.052,0.784,0.287,0.841c0.214,0.052,0.682-0.075,1.052-0.518
						c0.122-0.146,0.163-0.226,0.262-0.417c1.31,0,2.208,0,2.208,0c0,3.114-2.521,5.625-5.625,5.625
						C69.533,36.871,69.533,35.08,69.533,32.871"/>
					<path fill="#A0CD5F" d="M69.533,32.871c0.895,0.002,1.626-0.727,1.625-1.625c0.04,0,0.08,0,0.119,0
						c0.002,0.027,0.004,0.063,0.005,0.09c0.012,0.911,0.012,0.911,0.15,0.957c0.292,0.099,0.811-0.039,1.234-0.492
						c0.185-0.196,0.271-0.37,0.363-0.555c1.266,0,2.128,0,2.128,0c0,3.114-2.521,5.625-5.625,5.625
						C69.533,36.871,69.533,35.08,69.533,32.871"/>
					<path fill="#9BCB55" d="M69.533,32.871c0.895,0.002,1.626-0.727,1.625-1.625c0.019,0,0.038,0,0.057,0
						c0.001,0.026,0.001,0.061,0.002,0.087c-0.01,0.29-0.135,0.56-0.14,0.851c-0.002,0.104-0.003,0.179,0.121,0.232
						c0.213,0.091,0.845,0.096,1.44-0.474c0.274-0.261,0.41-0.555,0.476-0.696c1.22,0,2.044,0,2.044,0
						c0,3.114-2.521,5.625-5.625,5.625C69.533,36.871,69.533,35.08,69.533,32.871"/>
					<path fill="#8DC641" d="M69.533,32.878c0.018-0.018,0.059-0.001,0.084-0.002c0.378-0.007,0.7-0.184,0.839-0.259
						c0.363-0.199,0.739,0.036,1.107-0.031c0.234-0.044,0.417-0.113,0.528-0.164c0.491-0.223,0.866-0.619,1.112-1.176
						c1.17,0,1.954,0,1.954,0c0,3.114-2.521,5.625-5.625,5.625C69.533,36.871,69.533,35.084,69.533,32.878"/>
					<path fill="#8AC13F" d="M69.533,32.953c0.112-0.109,0.232,0.004,0.348-0.011c0.238-0.031,0.471-0.093,0.709-0.126
						c1.392-0.195,2.158-0.303,2.715-1.57c1.114,0,1.854,0,1.854,0c0,3.114-2.521,5.625-5.625,5.625
						C69.533,36.871,69.533,35.125,69.533,32.953"/>
					<path fill="#87BD3E" d="M69.533,33.029c0.124-0.115,0.244,0.014,0.367,0.006c0.225-0.015,0.447-0.052,0.671-0.074
						c0.92-0.09,2.18-0.214,2.847-1.715c1.051,0,1.74,0,1.74,0c0,3.114-2.521,5.625-5.625,5.625
						C69.533,36.871,69.533,35.165,69.533,33.029"/>
					<path fill="#85BA3D" d="M69.533,33.105c0.021-0.02,0.067,0.008,0.096,0.011c0.486,0.056,2.96,0.227,3.922-1.87
						c0.976,0,1.607,0,1.607,0c0,3.114-2.521,5.625-5.625,5.625C69.533,36.871,69.533,35.206,69.533,33.105"/>
					<path fill="#82B73C" d="M69.533,33.185c0.023-0.02,0.07,0.011,0.101,0.015c0.299,0.045,2.956,0.371,4.069-1.953
						c0.889,0,1.455,0,1.455,0c0,3.114-2.521,5.625-5.625,5.625C69.533,36.871,69.533,35.247,69.533,33.185"/>
					<path fill="#80B43B" d="M69.533,33.267c0.017-0.015,0.051,0.009,0.072,0.013c0.126,0.021,3.092,0.495,4.267-2.033
						c0.791,0,1.286,0,1.286,0c0,3.114-2.521,5.625-5.625,5.625C69.533,36.871,69.533,35.29,69.533,33.267"/>
					<path fill="#7EB13A" d="M69.533,33.355c0.025-0.021,0.076,0.014,0.109,0.02c0.842,0.157,3.455,0.104,4.399-2.129
						c0.691,0,1.116,0,1.116,0c0,3.114-2.521,5.625-5.625,5.625C69.533,36.871,69.533,35.336,69.533,33.355"/>
					<path fill="#7BAE39" d="M69.533,33.448c0.027-0.022,0.08,0.017,0.114,0.023c1.211,0.253,3.789-0.14,4.55-2.226
						c0.6,0,0.961,0,0.961,0c0,3.114-2.521,5.625-5.625,5.625C69.533,36.871,69.533,35.384,69.533,33.448"/>
					<path fill="#79AB37" d="M69.533,33.547c0.029-0.023,0.084,0.02,0.12,0.027c1.255,0.292,4.007-0.101,4.683-2.328
						c0.516,0,0.822,0,0.822,0c0,3.114-2.521,5.625-5.625,5.625C69.533,36.871,69.533,35.435,69.533,33.547"/>
					<path fill="#76A836" d="M69.533,33.657c0.095-0.076,0.168,0.038,0.253,0.052c0.1,0.017,0.2,0.028,0.301,0.038
						c0.361,0.035,3.561,0.263,4.371-2.501c0.441,0,0.7,0,0.7,0c0,3.114-2.521,5.625-5.625,5.625
						C69.533,36.871,69.533,35.49,69.533,33.657"/>
					<path fill="#74A535" d="M69.533,33.777c0.027-0.021,0.079,0.02,0.113,0.027c1.332,0.312,4.286,0.097,4.921-2.559
						c0.375,0,0.591,0,0.591,0c0,3.114-2.521,5.625-5.625,5.625C69.533,36.871,69.533,35.551,69.533,33.777"/>
					<path fill="#71A134" d="M69.533,33.909c0.023-0.018,0.066,0.017,0.096,0.023c1.081,0.267,4.327,0.346,5.035-2.687
						c0.315,0,0.494,0,0.494,0c0,3.114-2.521,5.625-5.625,5.625C69.533,36.871,69.533,35.615,69.533,33.909"/>
					<path fill="#6F9E33" d="M69.533,34.052c0.008-0.006,0.022,0.006,0.032,0.009c1.852,0.487,4.685-0.063,5.186-2.814
						c0.261,0,0.407,0,0.407,0c0,3.114-2.521,5.625-5.625,5.625C69.533,36.871,69.533,35.685,69.533,34.052"/>
					<path fill="#6C9B32" d="M69.533,34.205c0.038-0.029,0.108,0.027,0.154,0.04c1.438,0.37,4.586,0.125,5.142-2.999
						c0.212,0,0.329,0,0.329,0c0,3.114-2.521,5.625-5.625,5.625C69.533,36.871,69.533,35.759,69.533,34.205"/>
					<path fill="#699830" d="M69.533,34.364c0.04-0.03,0.114,0.029,0.162,0.042c2.23,0.567,4.854-0.479,5.203-3.16
						c0.168,0,0.26,0,0.26,0c0,3.114-2.521,5.625-5.625,5.625C69.533,36.871,69.533,35.834,69.533,34.364"/>
					<path fill="#67952F" d="M69.533,34.527c0.018-0.014,0.051,0.013,0.072,0.019c2.341,0.62,4.984-0.444,5.354-3.3
						c0.129,0,0.198,0,0.198,0c0,3.114-2.521,5.625-5.625,5.625C69.533,36.871,69.533,35.91,69.533,34.527"/>
					<path fill="#64912E" d="M69.533,34.691c0.044-0.034,0.126,0.031,0.18,0.045c1.97,0.491,4.917-0.267,5.301-3.49
						c0.095,0,0.145,0,0.145,0c0,3.114-2.521,5.625-5.625,5.625C69.533,36.871,69.533,35.985,69.533,34.691"/>
					<path fill="#618E2C" d="M69.533,34.856c0.031-0.024,0.09,0.022,0.128,0.031c2.389,0.599,5.133-0.624,5.399-3.642
						c0.063,0,0.098,0,0.098,0c0,3.114-2.521,5.625-5.625,5.625C69.533,36.871,69.533,36.06,69.533,34.856"/>
					<path fill="#5F8B2B" d="M69.533,35.022c0.048-0.038,0.138,0.032,0.197,0.046c1.998,0.474,5.086-0.414,5.368-3.822
						c0.039,0,0.06,0,0.06,0c0,3.114-2.521,5.625-5.625,5.625C69.533,36.871,69.533,36.134,69.533,35.022"/>
					<path fill="#5C882A" d="M69.533,35.19c0.022-0.018,0.063,0.015,0.091,0.021c2.51,0.602,5.327-0.743,5.505-3.966
						c0.02,0,0.029,0,0.029,0c0,3.114-2.521,5.625-5.625,5.625C69.533,36.871,69.533,36.208,69.533,35.19"/>
					<path fill="#598529" d="M69.533,35.361c0.051-0.041,0.15,0.032,0.214,0.047c2.507,0.542,5.342-1.034,5.402-4.162
						c0.009,3.114-2.512,5.625-5.616,5.625C69.533,36.871,69.533,36.281,69.533,35.361"/>
					<path fill="#578127" d="M69.533,35.538c0.053-0.043,0.156,0.032,0.224,0.046c2.111,0.438,5.288-0.639,5.401-4.338
						c0,3.114-2.521,5.625-5.625,5.625C69.533,36.871,69.533,36.356,69.533,35.538"/>
					<path fill="#547E26" d="M69.533,35.724c0.055-0.045,0.163,0.032,0.232,0.045c2.296,0.443,4.922-0.849,5.344-3.777
						c-0.364,2.76-2.724,4.88-5.576,4.88C69.533,36.871,69.533,36.434,69.533,35.724"/>
					<path fill="#527B24" d="M69.533,35.925c0.039-0.032,0.116,0.021,0.166,0.03c2.016,0.367,4.458-0.582,5.229-3.107
						c-0.689,2.33-2.845,4.023-5.395,4.023C69.533,36.871,69.533,36.516,69.533,35.925"/>
					<path fill="#4F7823" d="M69.533,36.156c0.041-0.035,0.125,0.021,0.178,0.028c1.52,0.244,3.698-0.235,4.839-2.39
						c-0.929,1.828-2.827,3.076-5.017,3.076C69.533,36.871,69.533,36.607,69.533,36.156"/>
				</g>
			</g>
			<g enable-background="new    ">
				<defs>
					<path id="SVGID_5_" enable-background="new    " d="M69.533,32.871c0,2.209,0,4,0,4H10.466c0,0,0-1.791,0-4H69.533z"/>
				</defs>
				<clipPath id="SVGID_6_">
					<use xlink:href="#SVGID_5_"  overflow="visible"/>
				</clipPath>
				<g clip-path="url(#SVGID_6_)" enable-background="new    ">
					<polyline fill="#9BCB55" points="10.466,32.871 69.533,32.871 69.533,32.878 10.466,32.878 10.466,32.871 					"/>
					<path fill="#8DC641" d="M10.466,32.878h59.067c0,0.026,0,0.052,0,0.077H10.466C10.466,32.93,10.466,32.904,10.466,32.878"/>
					<path fill="#8AC13F" d="M10.466,32.955h59.067c0,0.026,0,0.052,0,0.077H10.466C10.466,33.007,10.466,32.981,10.466,32.955"/>
					<path fill="#87BD3E" d="M10.466,33.032h59.067c0,0.025,0,0.052,0,0.077H10.466C10.466,33.084,10.466,33.058,10.466,33.032"/>
					<path fill="#85BA3D" d="M10.466,33.109h59.067c0,0.025,0,0.051,0,0.076H10.466C10.466,33.16,10.466,33.135,10.466,33.109"/>
					<path fill="#82B73C" d="M10.466,33.186h59.067c0,0.029,0,0.059,0,0.088H10.466C10.466,33.244,10.466,33.215,10.466,33.186"/>
					<path fill="#80B43B" d="M10.466,33.273h59.067c0,0.03,0,0.061,0,0.091H10.466C10.466,33.334,10.466,33.304,10.466,33.273"/>
					<path fill="#7EB13A" d="M10.466,33.364h59.067c0,0.03,0,0.06,0,0.09H10.466C10.466,33.424,10.466,33.395,10.466,33.364"/>
					<path fill="#7BAE39" d="M10.466,33.454h59.067c0,0.032,0,0.064,0,0.097H10.466C10.466,33.519,10.466,33.486,10.466,33.454"/>
					<path fill="#79AB37" d="M10.466,33.551h59.067c0,0.039,0,0.078,0,0.117H10.466C10.466,33.629,10.466,33.59,10.466,33.551"/>
					<path fill="#76A836" d="M10.466,33.668h59.067c0,0.038,0,0.077,0,0.115H10.466C10.466,33.745,10.466,33.706,10.466,33.668"/>
					<path fill="#74A535" d="M10.466,33.783h59.067c0,0.044,0,0.088,0,0.132H10.466C10.466,33.871,10.466,33.827,10.466,33.783"/>
					<path fill="#71A134" d="M10.466,33.915h59.067c0,0.048,0,0.096,0,0.143H10.466C10.466,34.011,10.466,33.963,10.466,33.915"/>
					<path fill="#6F9E33" d="M10.466,34.058h59.067c0,0.051,0,0.101,0,0.15H10.466C10.466,34.158,10.466,34.108,10.466,34.058"/>
					<path fill="#6C9B32" d="M10.466,34.208h59.067c0,0.054,0,0.106,0,0.159H10.466C10.466,34.314,10.466,34.262,10.466,34.208"/>
					<path fill="#699830" d="M10.466,34.367h59.067c0,0.055,0,0.108,0,0.162H10.466C10.466,34.476,10.466,34.422,10.466,34.367"/>
					<path fill="#67952F" d="M10.466,34.529h59.067c0,0.055,0,0.109,0,0.162H10.466C10.466,34.639,10.466,34.584,10.466,34.529"/>
					<path fill="#64912E" d="M10.466,34.691h59.067c0,0.057,0,0.112,0,0.167H10.466C10.466,34.804,10.466,34.748,10.466,34.691"/>
					<path fill="#618E2C" d="M10.466,34.858h59.067c0,0.056,0,0.111,0,0.165H10.466C10.466,34.97,10.466,34.914,10.466,34.858"/>
					<path fill="#5F8B2B" d="M10.466,35.023h59.067c0,0.057,0,0.113,0,0.168H10.466C10.466,35.137,10.466,35.08,10.466,35.023"/>
					<path fill="#5C882A" d="M10.466,35.191h59.067c0,0.059,0,0.116,0,0.173H10.466C10.466,35.308,10.466,35.25,10.466,35.191"/>
					<path fill="#598529" d="M10.466,35.364h59.067c0,0.061,0,0.119,0,0.177H10.466C10.466,35.483,10.466,35.425,10.466,35.364"/>
					<path fill="#578127" d="M10.466,35.541h59.067c0,0.063,0,0.125,0,0.185H10.466C10.466,35.666,10.466,35.604,10.466,35.541"/>
					<path fill="#547E26" d="M10.466,35.726h59.067c0,0.069,0,0.136,0,0.2H10.466C10.466,35.861,10.466,35.795,10.466,35.726"/>
					<path fill="#527B24" d="M10.466,35.926h59.067c0,0.084,0,0.162,0,0.236H10.466C10.466,36.088,10.466,36.01,10.466,35.926"/>
					<path fill="#4F7823" d="M10.466,36.162h59.067c0,0.447,0,0.709,0,0.709H10.466C10.466,36.871,10.466,36.609,10.466,36.162"/>
				</g>
			</g>
			<g enable-background="new    ">
				<defs>
					<path id="SVGID_7_" enable-background="new    " d="M69.533,7.121c0-2.209,0-4,0-4c3.104,0,5.625,2.52,5.625,5.625
						c0,0-1.791,0-4,0C71.161,7.855,70.423,7.118,69.533,7.121z"/>
				</defs>
				<clipPath id="SVGID_8_">
					<use xlink:href="#SVGID_7_"  overflow="visible"/>
				</clipPath>
				<g clip-path="url(#SVGID_8_)" enable-background="new    ">
					<path fill="#B7D887" d="M69.533,7.121c0-2.209,0-4,0-4c3.104,0,5.625,2.52,5.625,5.625c0,0-1.791,0-4,0
						C71.161,7.855,70.423,7.118,69.533,7.121"/>
					<path fill="#B7D887" d="M72.344,8.746c1.101-1.132-0.079-3.011-1.517-3.036c-0.641-0.011-1.187,0.39-0.847,0.779
						c0.35,0.399,0.861,0.612,1.191,1.034c0.294,0.375,0.404,0.859,0.719,1.223c-0.237,0-0.483,0-0.733,0
						c0.003-0.891-0.734-1.628-1.625-1.625c0-2.209,0-4,0-4c3.104,0,5.625,2.52,5.625,5.625C75.158,8.746,73.974,8.746,72.344,8.746
						"/>
					<path fill="#B5D784" d="M72.462,8.746c1.052-1.426-0.447-3.312-1.976-3.068c-0.346,0.055-1.16,0.461-0.446,0.96
						c1.073,0.75,1.073,0.75,1.732,2.108c-0.2,0-0.406,0-0.615,0c0.003-0.891-0.734-1.628-1.625-1.625c0-2.209,0-4,0-4
						c3.104,0,5.625,2.52,5.625,5.625C75.158,8.746,74.031,8.746,72.462,8.746"/>
					<path fill="#B3D680" d="M72.556,8.746c0.944-1.292-0.435-3.399-2.05-3.133c-0.572,0.095-1.225,0.566-0.648,0.989
						c0.224,0.165,0.482,0.274,0.705,0.442c0.24,0.181,0.375,0.325,0.484,0.454c0.167,0.196,0.39,0.515,0.634,1.248
						c-0.172,0-0.346,0-0.523,0c0.003-0.891-0.734-1.628-1.625-1.625c0-2.209,0-4,0-4c3.104,0,5.625,2.52,5.625,5.625
						C75.158,8.746,74.076,8.746,72.556,8.746"/>
					<path fill="#B0D57C" d="M72.64,8.746c0.974-1.658-0.71-3.548-2.292-3.165c-0.507,0.123-0.724,0.374-0.815,0.563
						c0-1.737,0-3.023,0-3.023c3.104,0,5.625,2.52,5.625,5.625C75.158,8.746,74.116,8.746,72.64,8.746"/>
					<path fill="#AED378" d="M72.719,8.746c0.944-1.814-0.896-3.697-2.532-3.188c-0.272,0.085-0.518,0.236-0.654,0.404
						c0-1.644,0-2.841,0-2.841c3.104,0,5.625,2.52,5.625,5.625C75.158,8.746,74.153,8.746,72.719,8.746"/>
					<path fill="#ABD273" d="M72.795,8.746c0.948-1.824-0.994-3.771-2.648-3.244c-0.31,0.098-0.505,0.239-0.614,0.339
						c0-1.582,0-2.72,0-2.72c3.104,0,5.625,2.52,5.625,5.625C75.158,8.746,74.188,8.746,72.795,8.746"/>
					<path fill="#A8D16D" d="M72.872,8.746c0.968-2.121-1.328-3.867-2.865-3.267c-0.2,0.078-0.307,0.137-0.474,0.261
						c0-1.529,0-2.619,0-2.619c3.104,0,5.625,2.52,5.625,5.625C75.158,8.746,74.223,8.746,72.872,8.746"/>
					<path fill="#A4CF66" d="M72.948,8.746c0.925-2.114-1.307-4.05-3.078-3.288c-0.144,0.062-0.192,0.093-0.337,0.187
						c0-1.479,0-2.524,0-2.524c3.104,0,5.625,2.52,5.625,5.625C75.158,8.746,74.258,8.746,72.948,8.746"/>
					<path fill="#A0CD5F" d="M73.028,8.746c0.93-2.169-1.324-4.124-3.149-3.371c-0.107,0.044-0.244,0.12-0.346,0.177
						c0-1.429,0-2.431,0-2.431c3.104,0,5.625,2.52,5.625,5.625C75.158,8.746,74.294,8.746,73.028,8.746"/>
					<path fill="#9BCB55" d="M73.112,8.746c0.931-2.308-1.423-4.239-3.34-3.409c-0.039,0.017-0.099,0.042-0.239,0.125
						c0-1.381,0-2.341,0-2.341c3.104,0,5.625,2.52,5.625,5.625C75.158,8.746,74.333,8.746,73.112,8.746"/>
					<path fill="#8DC641" d="M73.202,8.746c0.962-2.436-1.496-4.391-3.49-3.472c-0.055,0.025-0.126,0.064-0.179,0.093
						c0-1.33,0-2.246,0-2.246c3.104,0,5.625,2.52,5.625,5.625C75.158,8.746,74.374,8.746,73.202,8.746"/>
					<path fill="#8AC13F" d="M73.302,8.746c0.995-2.519-1.499-4.498-3.586-3.571C69.66,5.2,69.587,5.239,69.533,5.268
						c0-1.276,0-2.146,0-2.146c3.104,0,5.625,2.52,5.625,5.625C75.158,8.746,74.417,8.746,73.302,8.746"/>
					<path fill="#87BD3E" d="M73.416,8.746c1.04-2.638-1.498-4.641-3.693-3.68c-0.059,0.025-0.133,0.065-0.189,0.094
						c0-1.217,0-2.039,0-2.039c3.104,0,5.625,2.52,5.625,5.625C75.158,8.746,74.467,8.746,73.416,8.746"/>
					<path fill="#85BA3D" d="M73.548,8.746c1.096-2.687-1.566-4.793-3.82-3.802c-0.06,0.026-0.137,0.067-0.195,0.096
						c0-1.151,0-1.919,0-1.919c3.104,0,5.625,2.52,5.625,5.625C75.158,8.746,74.525,8.746,73.548,8.746"/>
					<path fill="#82B73C" d="M73.701,8.746c1.109-2.741-1.686-4.964-3.965-3.942c-0.063,0.028-0.143,0.069-0.203,0.1
						c0-1.075,0-1.783,0-1.783c3.104,0,5.625,2.52,5.625,5.625C75.158,8.746,74.59,8.746,73.701,8.746"/>
					<path fill="#80B43B" d="M73.871,8.746c1.046-2.565-1.616-5.211-4.127-4.103c-0.064,0.029-0.147,0.072-0.211,0.104
						c0-0.986,0-1.626,0-1.626c3.104,0,5.625,2.52,5.625,5.625C75.158,8.746,74.663,8.746,73.871,8.746"/>
					<path fill="#7EB13A" d="M74.041,8.746c0.939-2.581-1.886-5.37-4.319-4.263c-0.057,0.026-0.132,0.063-0.188,0.089
						c0-0.887,0-1.452,0-1.452c3.104,0,5.625,2.52,5.625,5.625C75.158,8.746,74.732,8.746,74.041,8.746"/>
					<path fill="#7BAE39" d="M74.197,8.746c-0.028-0.038,0.031-0.104,0.045-0.149c0.352-1.143-0.088-2.58-1.066-3.493
						c-0.832-0.776-2.227-1.371-3.643-0.709c0-0.783,0-1.273,0-1.273c3.104,0,5.625,2.52,5.625,5.625
						C75.158,8.746,74.795,8.746,74.197,8.746"/>
					<path fill="#79AB37" d="M74.335,8.746c-0.047-0.059,0.042-0.169,0.06-0.242c0.229-0.922-0.037-2.397-1.163-3.458
						c-1.08-1.018-2.463-1.324-3.699-0.821c0-0.685,0-1.104,0-1.104c3.104,0,5.625,2.52,5.625,5.625
						C75.158,8.746,74.851,8.746,74.335,8.746"/>
					<path fill="#76A836" d="M74.458,8.746c-0.014-0.017,0.012-0.049,0.017-0.07c0.302-1.263-0.166-2.708-1.191-3.681
						c-0.514-0.488-1.909-1.555-3.75-0.922c0-0.594,0-0.952,0-0.952c3.104,0,5.625,2.52,5.625,5.625
						C75.158,8.746,74.899,8.746,74.458,8.746"/>
					<path fill="#74A535" d="M74.566,8.746c0.555-2.961-2.222-5.613-5.033-4.808c0-0.513,0-0.817,0-0.817
						c3.104,0,5.625,2.52,5.625,5.625C75.158,8.746,74.941,8.746,74.566,8.746"/>
					<path fill="#71A134" d="M74.664,8.746c-0.012-0.015,0.008-0.043,0.011-0.062c0.239-1.323-0.262-2.768-1.308-3.772
						c-1.086-1.043-2.52-1.453-3.834-1.095c0-0.439,0-0.695,0-0.695c3.104,0,5.625,2.52,5.625,5.625
						C75.158,8.746,74.978,8.746,74.664,8.746"/>
					<path fill="#6F9E33" d="M74.75,8.746c-0.052-0.059,0.024-0.182,0.034-0.259c0.133-1.004-0.244-2.509-1.383-3.61
						c-0.637-0.614-1.985-1.583-3.869-1.17c0-0.372,0-0.586,0-0.586c3.104,0,5.625,2.52,5.625,5.625
						C75.158,8.746,75.011,8.746,74.75,8.746"/>
					<path fill="#6C9B32" d="M74.829,8.746c-0.022-0.025,0.01-0.077,0.014-0.109c0.171-1.327-0.37-2.779-1.411-3.789
						c-1.107-1.074-2.528-1.526-3.898-1.239c0-0.311,0-0.488,0-0.488c3.104,0,5.625,2.52,5.625,5.625
						C75.158,8.746,75.041,8.746,74.829,8.746"/>
					<path fill="#B9D98B" d="M71.963,8.67c-0.052-0.036-0.101-0.105-0.142-0.153c-0.003-0.003-0.096-0.15-0.231-0.41
						c-0.162-0.309-0.321-0.544-0.515-0.763C70.79,7.022,70.39,6.83,70.111,6.5c-0.03-0.036-0.072-0.083-0.092-0.126
						c-0.072-0.156-0.041-0.48,0.598-0.593c1.368-0.24,2.679,1.694,1.846,2.723C72.286,8.722,72.118,8.778,71.963,8.67"/>
					<path fill="#699830" d="M74.898,8.746c-0.057-0.062,0.018-0.194,0.024-0.277c0.085-0.941-0.248-2.46-1.466-3.646
						c-0.639-0.621-1.996-1.616-3.924-1.303c0-0.255,0-0.398,0-0.398c3.104,0,5.625,2.52,5.625,5.625
						C75.158,8.746,75.066,8.746,74.898,8.746"/>
					<path fill="#BBDA8E" d="M71.955,8.533C71.866,8.47,71.778,8.321,71.7,8.189c-0.212-0.36-0.328-0.558-0.526-0.794
						c-0.28-0.333-0.664-0.557-0.945-0.889c-0.028-0.033-0.07-0.076-0.09-0.115c-0.129-0.253,0.135-0.489,0.453-0.542
						c1.562-0.258,2.482,1.691,1.859,2.542C72.342,8.539,72.168,8.684,71.955,8.533"/>
					<path fill="#67952F" d="M74.959,8.746c-0.038-0.042,0.011-0.131,0.016-0.188c0.083-1.026-0.266-2.552-1.498-3.757
						c-1.109-1.084-2.547-1.581-3.944-1.362c0-0.205,0-0.318,0-0.318c3.104,0,5.625,2.52,5.625,5.625
						C75.158,8.746,75.088,8.746,74.959,8.746"/>
					<path fill="#BDDB91" d="M72.08,8.476c-0.054-0.013-0.12-0.055-0.157-0.097c-0.286-0.324-0.471-0.72-0.75-1.048
						c-0.251-0.295-0.577-0.514-0.827-0.81c-0.023-0.027-0.055-0.063-0.075-0.092c-0.018-0.025-0.161-0.25,0.112-0.418
						c0.897-0.551,2.492,0.631,2.18,1.956C72.481,8.309,72.278,8.523,72.08,8.476"/>
					<path fill="#BFDC93" d="M72.091,8.353c-0.06-0.001-0.135-0.051-0.175-0.096c-0.255-0.284-0.433-0.625-0.678-0.917
						c-0.258-0.308-0.596-0.538-0.833-0.864c-0.018-0.023-0.16-0.231,0.031-0.396c0.568-0.489,2.186,0.347,2.103,1.622
						C72.526,7.9,72.457,8.361,72.091,8.353"/>
					<path fill="#64912E" d="M75.013,8.746c-0.059-0.062,0.011-0.198,0.016-0.283c0.053-0.949-0.318-2.482-1.536-3.677
						c-0.778-0.764-2.097-1.629-3.96-1.418c0-0.16,0-0.247,0-0.247c3.104,0,5.625,2.52,5.625,5.625
						C75.158,8.746,75.108,8.746,75.013,8.746"/>
					<path fill="#C0DD96" d="M72.06,8.228c-0.044-0.004-0.181-0.122-0.182-0.123c-0.246-0.275-0.438-0.594-0.676-0.875
						c-0.206-0.243-0.469-0.432-0.656-0.693c-0.154-0.215-0.085-0.345,0.001-0.417c0.521-0.434,2.007,0.379,1.933,1.549
						C72.465,7.892,72.392,8.261,72.06,8.228"/>
					<path fill="#618E2C" d="M75.06,8.746c-0.055-0.056,0.007-0.182,0.011-0.26c0.039-0.961-0.348-2.51-1.567-3.711
						c-1.107-1.091-2.555-1.627-3.971-1.472c0-0.119,0-0.183,0-0.183c3.104,0,5.625,2.52,5.625,5.625
						C75.158,8.746,75.124,8.746,75.06,8.746"/>
					<path fill="#C2DD99" d="M72.042,8.101c-0.071-0.014-0.213-0.158-0.214-0.16c-0.213-0.235-0.388-0.5-0.592-0.741
						c-0.172-0.202-0.381-0.369-0.535-0.585c-0.087-0.122-0.219-0.306-0.042-0.448c0.493-0.395,1.939,0.486,1.755,1.543
						C72.335,8.157,72.144,8.12,72.042,8.101"/>
					<path fill="#C4DE9B" d="M72.03,7.971c-0.046-0.013-0.104-0.029-0.278-0.219c-0.172-0.186-0.313-0.395-0.478-0.587
						c-0.128-0.151-0.281-0.281-0.397-0.443c-0.155-0.216-0.267-0.372-0.1-0.5c0.382-0.293,1.618,0.337,1.58,1.333
						C72.342,7.926,72.178,8.013,72.03,7.971"/>
					<path fill="#B0D57C" d="M71.158,8.746c0.003-0.891-0.734-1.628-1.625-1.625c0-0.234,0-0.463,0-0.686
						c0.001,0.003,0.003,0.007,0.004,0.01c0.182,0.175,0.185,0.178,0.468,0.321c0.296,0.149,0.637,0.338,0.951,0.688
						c0.404,0.449,0.552,0.956,0.649,1.292C71.458,8.746,71.309,8.746,71.158,8.746"/>
					<path fill="#5F8B2B" d="M75.098,8.746c-0.011-0.012,0.002-0.037,0.003-0.053c0.063-1.409-0.532-2.876-1.592-3.924
						c-0.778-0.768-2.1-1.656-3.977-1.522c0-0.083,0-0.126,0-0.126c3.104,0,5.625,2.52,5.625,5.625
						C75.158,8.746,75.137,8.746,75.098,8.746"/>
					<path fill="#C5DF9E" d="M72.016,7.839c-0.122-0.044-0.189-0.069-0.934-0.975c-0.177-0.215-0.283-0.346-0.256-0.474
						c0.068-0.313,0.873-0.159,1.254,0.455c0.29,0.469,0.242,0.995-0.011,1.011C72.053,7.857,72.032,7.845,72.016,7.839"/>
					<path fill="#AED378" d="M71.158,8.746c0.003-0.891-0.734-1.628-1.625-1.625c0-0.175,0-0.348,0-0.517
						c0.032,0.017,0.075,0.04,0.107,0.056c0.264,0.14,0.546,0.247,0.8,0.409c0.099,0.063,0.292,0.2,0.485,0.413
						c0.293,0.323,0.492,0.737,0.608,1.265C71.41,8.746,71.285,8.746,71.158,8.746"/>
					<path fill="#ABD273" d="M71.158,8.746c0.003-0.891-0.734-1.628-1.625-1.625c0-0.136,0-0.27,0-0.402
						c0.03,0.01,0.071,0.023,0.103,0.034c0.667,0.255,1.58,0.604,1.831,1.993C71.365,8.746,71.261,8.746,71.158,8.746"/>
					<path fill="#C7E0A0" d="M72.013,7.708c-0.107,0-0.216-0.098-0.579-0.528c-0.423-0.499-0.482-0.604-0.467-0.706
						c0.044-0.275,0.623-0.151,0.973,0.289C72.25,7.15,72.292,7.706,72.013,7.708"/>
					<path fill="#A8D16D" d="M71.158,8.746c0.003-0.891-0.734-1.628-1.625-1.625c0-0.104,0-0.208,0-0.311
						c0.029,0.008,0.068,0.018,0.098,0.025c0.47,0.147,1.57,0.492,1.771,1.91C71.321,8.746,71.24,8.746,71.158,8.746"/>
					<path fill="#A4CF66" d="M71.158,8.746c0.003-0.891-0.734-1.628-1.625-1.625c0-0.076,0-0.151,0-0.226
						c0.028,0.005,0.065,0.012,0.094,0.017c1.021,0.239,1.598,0.856,1.713,1.834C71.279,8.746,71.218,8.746,71.158,8.746"/>
					<path fill="#C8E1A3" d="M71.93,7.529c-0.036-0.004-0.151-0.051-0.442-0.394c-0.101-0.119-0.368-0.435-0.359-0.551
						c0.003-0.038,0.028-0.09,0.061-0.112c0.059-0.042,0.328-0.042,0.6,0.226c0.298,0.294,0.312,0.617,0.302,0.664
						c-0.009,0.041-0.009,0.103-0.038,0.132C72.026,7.521,71.968,7.534,71.93,7.529"/>
					<path fill="#5C882A" d="M72.449,3.936c-1-0.574-1.818-0.78-2.916-0.736c0-0.052,0-0.079,0-0.079
						c1.084,0,2.098,0.308,2.956,0.84C72.477,3.953,72.46,3.943,72.449,3.936"/>
					<path fill="#A0CD5F" d="M71.158,8.746c0.003-0.891-0.734-1.628-1.625-1.625c0-0.049,0-0.097,0-0.146
						c0.021,0.003,0.049,0.006,0.07,0.009c0.742,0.106,1.572,0.625,1.674,1.761C71.237,8.746,71.198,8.746,71.158,8.746"/>
					<path fill="#598529" d="M71.205,3.375c-0.392-0.109-0.88-0.244-1.672-0.212c0-0.027,0-0.041,0-0.041
						c0.675,0,1.322,0.119,1.923,0.338C71.38,3.434,71.281,3.398,71.205,3.375"/>
					<path fill="#CAE1A5" d="M71.795,7.295c-0.068-0.022-0.447-0.469-0.456-0.539c-0.006-0.041,0.006-0.109,0.041-0.132
						c0.057-0.038,0.163,0.018,0.223,0.051c0.089,0.051,0.137,0.107,0.208,0.192c0.173,0.204,0.129,0.417,0.128,0.419
						C71.91,7.319,71.836,7.309,71.795,7.295"/>
					<path fill="#5C882A" d="M75.128,8.746c-0.058-0.058,0.002-0.189,0.002-0.271c0.003-0.379-0.062-1.01-0.39-1.857
						c0.269,0.656,0.417,1.375,0.417,2.127C75.158,8.746,75.148,8.746,75.128,8.746"/>
					<path fill="#9BCB55" d="M71.158,8.746c0.003-0.891-0.734-1.628-1.625-1.625c0-0.023,0-0.045,0-0.068
						c0.025,0.002,0.061,0.004,0.086,0.006c0.919,0.11,1.545,0.772,1.595,1.687C71.195,8.746,71.176,8.746,71.158,8.746"/>
					<path fill="#578127" d="M70.389,3.187c-0.299-0.036-0.473-0.055-0.856-0.052c0-0.009,0-0.014,0-0.014
						c0.358,0,0.71,0.034,1.05,0.098C70.525,3.209,70.447,3.195,70.389,3.187"/>
					<path fill="#598529" d="M75.149,8.746c-0.062-0.061-0.002-0.202-0.003-0.289c-0.001-0.098-0.013-0.325-0.082-0.741
						c0.062,0.333,0.094,0.678,0.094,1.03C75.158,8.746,75.155,8.746,75.149,8.746"/>
					<path fill="#547E26" d="M69.533,3.122c0.067,0,0.135,0,0.201,0.003C69.673,3.124,69.575,3.165,69.533,3.122"/>
					<path fill="#578127" d="M75.158,8.746c-0.025-0.025-0.001-0.083-0.001-0.118C75.158,8.667,75.158,8.707,75.158,8.746
						L75.158,8.746"/>
				</g>
			</g>
			<g enable-background="new    ">
				<defs>
					<path id="SVGID_9_" enable-background="new    " d="M8.841,31.246c-2.209,0-4,0-4,0v-22.5c0,0,1.791,0,4,0V31.246z"/>
				</defs>
				<clipPath id="SVGID_10_">
					<use xlink:href="#SVGID_9_"  overflow="visible"/>
				</clipPath>
				<g clip-path="url(#SVGID_10_)" enable-background="new    ">
					<polyline fill="#9BCB55" points="8.841,8.746 8.841,31.246 8.834,31.246 8.834,8.746 8.841,8.746 					"/>
					<path fill="#8DC641" d="M8.834,8.746v22.5c-0.022,0-0.046,0-0.068,0v-22.5C8.789,8.746,8.812,8.746,8.834,8.746"/>
					<path fill="#8AC13F" d="M8.766,8.746v22.5c-0.023,0-0.046,0-0.068,0v-22.5C8.72,8.746,8.743,8.746,8.766,8.746"/>
					<path fill="#87BD3E" d="M8.698,8.746v22.5c-0.023,0-0.046,0-0.068,0v-22.5C8.652,8.746,8.675,8.746,8.698,8.746"/>
					<path fill="#85BA3D" d="M8.629,8.746v22.5c-0.022,0-0.045,0-0.068,0v-22.5C8.584,8.746,8.607,8.746,8.629,8.746"/>
					<path fill="#82B73C" d="M8.562,8.746v22.5c-0.024,0-0.049,0-0.073,0v-22.5C8.513,8.746,8.537,8.746,8.562,8.746"/>
					<path fill="#80B43B" d="M8.489,8.746v22.5c-0.029,0-0.059,0-0.087,0v-22.5C8.43,8.746,8.459,8.746,8.489,8.746"/>
					<path fill="#7EB13A" d="M8.401,8.746v22.5c-0.029,0-0.058,0-0.087,0v-22.5C8.343,8.746,8.372,8.746,8.401,8.746"/>
					<path fill="#7BAE39" d="M8.314,8.746v22.5c-0.029,0-0.058,0-0.086,0v-22.5C8.257,8.746,8.286,8.746,8.314,8.746"/>
					<path fill="#79AB37" d="M8.229,8.746v22.5c-0.035,0-0.069,0-0.104,0v-22.5C8.159,8.746,8.194,8.746,8.229,8.746"/>
					<path fill="#76A836" d="M8.125,8.746v22.5c-0.039,0-0.077,0-0.115,0v-22.5C8.048,8.746,8.086,8.746,8.125,8.746"/>
					<path fill="#74A535" d="M8.01,8.746v22.5c-0.038,0-0.076,0-0.114,0v-22.5C7.934,8.746,7.972,8.746,8.01,8.746"/>
					<path fill="#71A134" d="M7.896,8.746v22.5c-0.047,0-0.093,0-0.139,0v-22.5C7.803,8.746,7.849,8.746,7.896,8.746"/>
					<path fill="#6F9E33" d="M7.757,8.746v22.5c-0.047,0-0.094,0-0.14,0v-22.5C7.664,8.746,7.71,8.746,7.757,8.746"/>
					<path fill="#6C9B32" d="M7.617,8.746v22.5c-0.051,0-0.101,0-0.151,0v-22.5C7.516,8.746,7.566,8.746,7.617,8.746"/>
					<path fill="#699830" d="M7.466,8.746v22.5c-0.052,0-0.103,0-0.154,0v-22.5C7.363,8.746,7.414,8.746,7.466,8.746"/>
					<path fill="#67952F" d="M7.312,8.746v22.5c-0.054,0-0.107,0-0.16,0v-22.5C7.205,8.746,7.258,8.746,7.312,8.746"/>
					<path fill="#64912E" d="M7.152,8.746v22.5c-0.053,0-0.106,0-0.159,0v-22.5C7.046,8.746,7.099,8.746,7.152,8.746"/>
					<path fill="#618E2C" d="M6.994,8.746v22.5c-0.056,0-0.11,0-0.165,0v-22.5C6.883,8.746,6.938,8.746,6.994,8.746"/>
					<path fill="#5F8B2B" d="M6.829,8.746v22.5c-0.056,0-0.111,0-0.166,0v-22.5C6.718,8.746,6.773,8.746,6.829,8.746"/>
					<path fill="#5C882A" d="M6.664,8.746v22.5c-0.057,0-0.113,0-0.168,0v-22.5C6.55,8.746,6.606,8.746,6.664,8.746"/>
					<path fill="#598529" d="M6.495,8.746v22.5c-0.061,0-0.121,0-0.179,0v-22.5C6.374,8.746,6.434,8.746,6.495,8.746"/>
					<path fill="#578127" d="M6.316,8.746v22.5c-0.065,0-0.127,0-0.188,0v-22.5C6.188,8.746,6.251,8.746,6.316,8.746"/>
					<path fill="#547E26" d="M6.127,8.746v22.5c-0.071,0-0.14,0-0.206,0v-22.5C5.988,8.746,6.056,8.746,6.127,8.746"/>
					<path fill="#527B24" d="M5.921,8.746v22.5c-0.084,0-0.165,0-0.241,0v-22.5C5.756,8.746,5.837,8.746,5.921,8.746"/>
					<path fill="#4F7823" d="M5.68,8.746v22.5c-0.526,0-0.839,0-0.839,0v-22.5C4.841,8.746,5.154,8.746,5.68,8.746"/>
				</g>
			</g>
			<g enable-background="new    ">
				<defs>
					<path id="SVGID_11_" enable-background="new    " d="M8.841,8.746c-2.209,0-4,0-4,0c0-3.105,2.52-5.625,5.625-5.625
						c0,0,0,1.791,0,4C9.575,7.118,8.837,7.855,8.841,8.746z"/>
				</defs>
				<clipPath id="SVGID_12_">
					<use xlink:href="#SVGID_11_"  overflow="visible"/>
				</clipPath>
				<g clip-path="url(#SVGID_12_)" enable-background="new    ">
					<path fill="#B0D57C" d="M8.841,8.746c-2.209,0-4,0-4,0c0-3.105,2.52-5.625,5.625-5.625c0,0,0,1.791,0,4
						C9.575,7.118,8.837,7.855,8.841,8.746"/>
					<path fill="#B0D57C" d="M10.466,6.126c-0.057,0.251-0.057,0.251,0,0.325c0,0.218,0,0.441,0,0.67
						C9.575,7.118,8.837,7.855,8.841,8.746c-2.209,0-4,0-4,0c0-3.105,2.52-5.625,5.625-5.625
						C10.466,3.121,10.466,4.398,10.466,6.126"/>
					<path fill="#AED378" d="M10.466,5.95C10.423,6.079,10.3,6.172,10.3,6.32c0,0.147,0.104,0.244,0.166,0.289
						c0,0.167,0,0.339,0,0.512C9.575,7.118,8.837,7.855,8.841,8.746c-2.209,0-4,0-4,0c0-3.105,2.52-5.625,5.625-5.625
						C10.466,3.121,10.466,4.312,10.466,5.95"/>
					<path fill="#ABD273" d="M10.466,5.835c-0.075,0.179-0.295,0.273-0.295,0.497c0,0.091,0,0.259,0.295,0.389
						c0,0.132,0,0.265,0,0.4C9.575,7.118,8.837,7.855,8.841,8.746c-2.209,0-4,0-4,0c0-3.105,2.52-5.625,5.625-5.625
						C10.466,3.121,10.466,4.256,10.466,5.835"/>
					<path fill="#A8D16D" d="M10.466,5.734c-0.061,0.127-0.2,0.18-0.279,0.29c-0.148,0.206-0.149,0.341-0.149,0.461
						c0,0.169,0.248,0.261,0.428,0.328c0,0.102,0,0.204,0,0.308C9.575,7.118,8.837,7.855,8.841,8.746c-2.209,0-4,0-4,0
						c0-3.105,2.52-5.625,5.625-5.625C10.466,3.121,10.466,4.208,10.466,5.734"/>
					<path fill="#A4CF66" d="M10.466,5.64C10.455,5.661,10.42,5.671,10.4,5.685c-0.204,0.143-0.508,0.483-0.508,0.831
						c0,0.248,0.145,0.281,0.574,0.382c0,0.074,0,0.148,0,0.223C9.575,7.118,8.837,7.855,8.841,8.746c-2.209,0-4,0-4,0
						c0-3.105,2.52-5.625,5.625-5.625C10.466,3.121,10.466,4.164,10.466,5.64"/>
					<path fill="#A0CD5F" d="M10.466,5.549c-0.004,0.007-0.017,0.011-0.025,0.015C9.948,5.871,9.744,6.365,9.744,6.562
						c0,0.308,0,0.308,0.722,0.417c0,0.047,0,0.095,0,0.143C9.575,7.118,8.837,7.855,8.841,8.746c-2.209,0-4,0-4,0
						c0-3.105,2.52-5.625,5.625-5.625C10.466,3.121,10.466,4.121,10.466,5.549"/>
					<path fill="#9BCB55" d="M10.466,5.458c-0.028,0.051-0.115,0.074-0.164,0.105C9.909,5.814,9.576,6.367,9.576,6.77
						c0,0.231,0.095,0.262,0.179,0.289c0.237,0.076,0.474-0.019,0.71-0.005c0,0.023,0,0.045,0,0.068
						C9.575,7.118,8.837,7.855,8.841,8.746c-2.209,0-4,0-4,0c0-3.105,2.52-5.625,5.625-5.625
						C10.466,3.121,10.466,4.079,10.466,5.458"/>
					<path fill="#8DC641" d="M10.466,5.363c-0.025,0.043-0.1,0.06-0.143,0.085c-0.175,0.104-0.509,0.36-0.772,0.906
						C9.527,6.403,9.502,6.47,9.485,6.521C9.434,6.675,9.381,6.867,9.381,7.135c0,0.003-0.003,0.316-0.037,0.375
						C9.198,7.761,8.991,7.977,8.906,8.263C8.84,8.483,8.837,8.629,8.835,8.746c-2.207,0-3.994,0-3.994,0
						c0-3.105,2.52-5.625,5.625-5.625C10.466,3.121,10.466,4.035,10.466,5.363"/>
					<path fill="#8AC13F" d="M10.466,5.264c-0.021,0.035-0.083,0.046-0.119,0.066c-0.33,0.186-0.69,0.568-0.857,0.91
						C9.444,6.336,8.756,8.063,8.77,8.746c-2.176,0-3.929,0-3.929,0c0-3.105,2.52-5.625,5.625-5.625
						C10.466,3.121,10.466,3.99,10.466,5.264"/>
					<path fill="#87BD3E" d="M10.466,5.156c-0.019,0.032-0.077,0.042-0.109,0.06c-0.317,0.173-0.75,0.55-1.014,1.087
						C9.285,6.421,8.65,8.005,8.705,8.746c-2.146,0-3.864,0-3.864,0c0-3.105,2.52-5.625,5.625-5.625
						C10.466,3.121,10.466,3.941,10.466,5.156"/>
					<path fill="#85BA3D" d="M10.466,5.037c-0.022,0.036-0.087,0.047-0.125,0.067C9.869,5.359,9.481,5.789,9.189,6.38
						C9.183,6.394,8.561,7.824,8.635,8.746c-2.114,0-3.794,0-3.794,0c0-3.105,2.52-5.625,5.625-5.625
						C10.466,3.121,10.466,3.888,10.466,5.037"/>
					<path fill="#82B73C" d="M10.466,4.901c-0.03,0.051-0.121,0.066-0.172,0.095C10.17,5.064,9.532,5.444,9.125,6.269
						C8.903,6.718,8.475,7.914,8.566,8.746c-2.082,0-3.726,0-3.726,0c0-3.105,2.52-5.625,5.625-5.625
						C10.466,3.121,10.466,3.828,10.466,4.901"/>
					<path fill="#80B43B" d="M10.466,4.744C10.455,4.764,10.42,4.769,10.4,4.78C9.491,5.275,9.11,6.047,8.985,6.3
						C8.82,6.634,8.375,7.799,8.49,8.746c-2.045,0-3.649,0-3.649,0c0-3.105,2.52-5.625,5.625-5.625
						C10.466,3.121,10.466,3.759,10.466,4.744"/>
					<path fill="#7EB13A" d="M10.466,4.571c-0.035,0.059-0.139,0.078-0.199,0.111c-0.087,0.048-0.862,0.5-1.354,1.5
						C8.576,6.865,8.291,7.923,8.412,8.746c-2.008,0-3.571,0-3.571,0c0-3.105,2.52-5.625,5.625-5.625
						C10.466,3.121,10.466,3.685,10.466,4.571"/>
					<path fill="#7BAE39" d="M10.466,4.392c-0.031,0.05-0.122,0.063-0.175,0.09C9.834,4.719,9.208,5.297,8.835,6.054
						c-0.437,0.888-0.627,1.895-0.51,2.692c-1.966,0-3.485,0-3.485,0c0-3.105,2.52-5.625,5.625-5.625
						C10.466,3.121,10.466,3.61,10.466,4.392"/>
					<path fill="#79AB37" d="M10.466,4.224c-0.028,0.043-0.108,0.05-0.155,0.071C9.863,4.501,9.214,4.979,8.67,6.081
						C8.442,6.542,8.057,7.693,8.232,8.746c-1.92,0-3.392,0-3.392,0c0-3.105,2.52-5.625,5.625-5.625
						C10.466,3.121,10.466,3.541,10.466,4.224"/>
					<path fill="#76A836" d="M10.466,4.072c-0.021,0.031-0.083,0.033-0.118,0.047c-0.493,0.195-1.197,0.659-1.75,1.766
						c-0.334,0.669-0.657,1.82-0.467,2.861c-1.871,0-3.291,0-3.291,0c0-3.105,2.52-5.625,5.625-5.625
						C10.466,3.121,10.466,3.479,10.466,4.072"/>
					<path fill="#74A535" d="M10.466,3.937c-0.01,0.014-0.037,0.012-0.053,0.018c-0.788,0.263-1.456,0.868-1.88,1.703
						c-0.746,1.468-0.58,2.735-0.512,3.088c-1.816,0-3.18,0-3.18,0c0-3.105,2.52-5.625,5.625-5.625
						C10.466,3.121,10.466,3.425,10.466,3.937"/>
					<path fill="#71A134" d="M10.466,3.816c-0.039,0.052-0.145,0.046-0.207,0.066C9.816,4.023,8.981,4.438,8.363,5.625
						C8,6.321,7.662,7.556,7.898,8.746c-1.754,0-3.058,0-3.058,0c0-3.105,2.52-5.625,5.625-5.625
						C10.466,3.121,10.466,3.377,10.466,3.816"/>
					<path fill="#6F9E33" d="M10.466,3.707c-0.02,0.026-0.075,0.02-0.107,0.028C9.949,3.844,8.922,4.23,8.258,5.47
						C7.733,6.448,7.549,7.672,7.765,8.746c-1.687,0-2.924,0-2.924,0c0-3.105,2.52-5.625,5.625-5.625
						C10.466,3.121,10.466,3.335,10.466,3.707"/>
					<path fill="#6C9B32" d="M10.466,3.608c-0.048,0.063-0.178,0.045-0.255,0.065c-0.4,0.102-1.408,0.479-2.124,1.772
						c-0.139,0.25-0.811,1.582-0.467,3.301c-1.613,0-2.78,0-2.78,0c0-3.105,2.52-5.625,5.625-5.625
						C10.466,3.121,10.466,3.298,10.466,3.608"/>
					<path fill="#699830" d="M10.466,3.52c-0.024,0.03-0.088,0.018-0.126,0.026C9.771,3.663,8.704,4.056,7.949,5.374
						c-0.201,0.35-0.827,1.625-0.479,3.373c-1.534,0-2.628,0-2.628,0c0-3.105,2.52-5.625,5.625-5.625
						C10.466,3.121,10.466,3.264,10.466,3.52"/>
					<path fill="#67952F" d="M10.466,3.439c-0.052,0.064-0.189,0.038-0.271,0.054c-0.347,0.069-1.544,0.401-2.36,1.775
						C7.561,5.73,6.961,6.993,7.313,8.746c-1.452,0-2.473,0-2.473,0c0-3.105,2.52-5.625,5.625-5.625
						C10.466,3.121,10.466,3.234,10.466,3.439"/>
					<path fill="#64912E" d="M10.466,3.367c-0.026,0.031-0.094,0.015-0.134,0.021c-1.029,0.16-2.016,0.823-2.574,1.73
						c-0.664,1.08-0.867,2.3-0.602,3.628c-1.367,0-2.314,0-2.314,0c0-3.105,2.52-5.625,5.625-5.625
						C10.466,3.121,10.466,3.208,10.466,3.367"/>
					<path fill="#618E2C" d="M10.466,3.304c-0.055,0.064-0.195,0.029-0.278,0.042C9.808,3.402,8.498,3.697,7.59,5.12
						C7.218,5.704,6.645,6.952,6.995,8.746c-1.28,0-2.154,0-2.154,0c0-3.105,2.52-5.625,5.625-5.625
						C10.466,3.121,10.466,3.185,10.466,3.304"/>
					<path fill="#5F8B2B" d="M10.466,3.248C10.433,3.285,10.35,3.261,10.3,3.267C9.635,3.342,8.38,3.678,7.449,5.086
						c-0.246,0.372-1.017,1.735-0.617,3.66c-1.191,0-1.991,0-1.991,0c0-3.105,2.52-5.625,5.625-5.625
						C10.466,3.121,10.466,3.165,10.466,3.248"/>
					<path fill="#5C882A" d="M10.466,3.2c-0.057,0.064-0.199,0.021-0.284,0.03C9.89,3.26,8.382,3.486,7.36,4.979
						c-0.5,0.73-1.027,1.978-0.694,3.768c-1.099,0-1.825,0-1.825,0c0-3.105,2.52-5.625,5.625-5.625
						C10.466,3.121,10.466,3.148,10.466,3.2"/>
					<path fill="#598529" d="M10.466,3.162c-0.057,0.062-0.194,0.016-0.277,0.022C9.35,3.252,8.084,3.735,7.274,4.874
						c-0.54,0.76-1.113,2.048-0.778,3.872c-1.003,0-1.656,0-1.656,0c0-3.105,2.52-5.625,5.625-5.625
						C10.466,3.121,10.466,3.135,10.466,3.162"/>
					<path fill="#578127" d="M10.466,3.135c-0.043,0.046-0.146,0.008-0.209,0.011C9.063,3.206,7.882,3.839,7.174,4.796
						C6.13,6.209,6.133,7.724,6.319,8.746c-0.902,0-1.479,0-1.479,0c0-3.105,2.52-5.625,5.625-5.625
						C10.466,3.121,10.466,3.126,10.466,3.135"/>
					<path fill="#547E26" d="M10.466,3.122c-0.043,0.044-0.143,0.004-0.205,0.005C9.046,3.159,7.789,3.794,7.057,4.744
						C6.184,5.876,5.873,7.223,6.132,8.746c-0.794,0-1.291,0-1.291,0C4.841,5.641,7.361,3.121,10.466,3.122
						C10.466,3.121,10.466,3.121,10.466,3.122"/>
					<path fill="#527B24" d="M9.61,3.187c-2.923,0.526-4.079,3.257-3.683,5.56c-0.674,0-1.086,0-1.086,0
						c0-2.873,2.157-5.244,4.938-5.583C9.728,3.17,9.66,3.178,9.61,3.187"/>
					<path fill="#4F7823" d="M8.533,3.464c-2.059,0.8-3.202,2.922-2.846,5.282c-0.53,0-0.846,0-0.846,0
						c0-2.519,1.659-4.653,3.943-5.369C8.708,3.403,8.607,3.437,8.533,3.464"/>
				</g>
			</g>
			<g enable-background="new    ">
				<defs>
					<path id="SVGID_13_" enable-background="new    " d="M10.466,7.121c0-2.209,0-4,0-4h59.067c0,0,0,1.791,0,4H10.466z"/>
				</defs>
				<clipPath id="SVGID_14_">
					<use xlink:href="#SVGID_13_"  overflow="visible"/>
				</clipPath>
				<g clip-path="url(#SVGID_14_)" enable-background="new    ">
					<path fill="#9BCB55" d="M69.533,7.121H10.466c0-0.024,0-0.048,0-0.073h59.067C69.533,7.073,69.533,7.097,69.533,7.121"/>
					<path fill="#A0CD5F" d="M69.533,7.048H10.466c0-0.026,0-0.053,0-0.079h59.067C69.533,6.996,69.533,7.022,69.533,7.048"/>
					<path fill="#A4CF66" d="M69.533,6.969H10.466c0-0.027,0-0.053,0-0.079h59.067C69.533,6.917,69.533,6.942,69.533,6.969"/>
					<path fill="#A8D16D" d="M69.533,6.89H10.466c0-0.026,0-0.053,0-0.079h59.067C69.533,6.837,69.533,6.864,69.533,6.89"/>
					<path fill="#ABD273" d="M69.533,6.812H10.466c0-0.038,0-0.075,0-0.112h59.067C69.533,6.737,69.533,6.774,69.533,6.812"/>
					<path fill="#AED378" d="M69.533,6.7H10.466c0-0.04,0-0.081,0-0.121h59.067C69.533,6.619,69.533,6.66,69.533,6.7"/>
					<path fill="#B0D57C" d="M69.533,6.579H10.466c0-0.085,0-0.169,0-0.252h59.067C69.533,6.41,69.533,6.494,69.533,6.579"/>
					<path fill="#B3D680" d="M69.533,6.327H10.466c0-0.063,0-0.125,0-0.187h59.067C69.533,6.202,69.533,6.265,69.533,6.327"/>
					<path fill="#B0D57C" d="M69.533,6.14H10.466c0-0.053,0-0.105,0-0.157h59.067C69.533,6.035,69.533,6.087,69.533,6.14"/>
					<path fill="#AED378" d="M69.533,5.983H10.466c0-0.048,0-0.097,0-0.145h59.067C69.533,5.886,69.533,5.935,69.533,5.983"/>
					<path fill="#ABD273" d="M69.533,5.838H10.466c0-0.032,0-0.065,0-0.097h59.067C69.533,5.773,69.533,5.806,69.533,5.838"/>
					<path fill="#A8D16D" d="M69.533,5.741H10.466c0-0.032,0-0.064,0-0.096h59.067C69.533,5.677,69.533,5.709,69.533,5.741"/>
					<path fill="#A4CF66" d="M69.533,5.646H10.466c0-0.032,0-0.063,0-0.095h59.067C69.533,5.582,69.533,5.614,69.533,5.646"/>
					<path fill="#A0CD5F" d="M69.533,5.551H10.466c0-0.032,0-0.064,0-0.095h59.067C69.533,5.487,69.533,5.519,69.533,5.551"/>
					<path fill="#9BCB55" d="M69.533,5.456H10.466c0-0.032,0-0.063,0-0.094h59.067C69.533,5.393,69.533,5.424,69.533,5.456"/>
					<path fill="#8DC641" d="M69.533,5.362H10.466c0-0.033,0-0.064,0-0.096h59.067C69.533,5.297,69.533,5.329,69.533,5.362"/>
					<path fill="#8AC13F" d="M69.533,5.266H10.466c0-0.039,0-0.078,0-0.116h59.067C69.533,5.188,69.533,5.227,69.533,5.266"/>
					<path fill="#87BD3E" d="M69.533,5.15H10.466c0-0.038,0-0.076,0-0.113h59.067C69.533,5.074,69.533,5.112,69.533,5.15"/>
					<path fill="#85BA3D" d="M69.533,5.037H10.466c0-0.048,0-0.096,0-0.143h59.067C69.533,4.941,69.533,4.988,69.533,5.037"/>
					<path fill="#82B73C" d="M69.533,4.894H10.466c0-0.05,0-0.1,0-0.149h59.067C69.533,4.794,69.533,4.844,69.533,4.894"/>
					<path fill="#80B43B" d="M69.533,4.745H10.466c0-0.06,0-0.119,0-0.176h59.067C69.533,4.626,69.533,4.686,69.533,4.745"/>
					<path fill="#7EB13A" d="M69.533,4.569H10.466c0-0.061,0-0.119,0-0.176h59.067C69.533,4.45,69.533,4.509,69.533,4.569"/>
					<path fill="#7BAE39" d="M69.533,4.393H10.466c0-0.057,0-0.113,0-0.167h59.067C69.533,4.28,69.533,4.336,69.533,4.393"/>
					<path fill="#79AB37" d="M69.533,4.226H10.466c0-0.053,0-0.104,0-0.153h59.067C69.533,4.122,69.533,4.173,69.533,4.226"/>
					<path fill="#76A836" d="M69.533,4.073H10.466c0-0.047,0-0.091,0-0.135h59.067C69.533,3.982,69.533,4.026,69.533,4.073"/>
					<path fill="#74A535" d="M69.533,3.938H10.466c0-0.042,0-0.083,0-0.122h59.067C69.533,3.856,69.533,3.896,69.533,3.938"/>
					<path fill="#71A134" d="M69.533,3.817H10.466c0-0.038,0-0.075,0-0.11h59.067C69.533,3.742,69.533,3.779,69.533,3.817"/>
					<path fill="#6F9E33" d="M69.533,3.707H10.466c0-0.034,0-0.067,0-0.098h59.067C69.533,3.64,69.533,3.673,69.533,3.707"/>
					<path fill="#6C9B32" d="M69.533,3.609H10.466c0-0.031,0-0.061,0-0.089h59.067C69.533,3.548,69.533,3.578,69.533,3.609"/>
					<path fill="#699830" d="M69.533,3.52H10.466c0-0.028,0-0.055,0-0.08h59.067C69.533,3.465,69.533,3.492,69.533,3.52"/>
					<path fill="#67952F" d="M69.533,3.439H10.466c0-0.025,0-0.05,0-0.072h59.067C69.533,3.39,69.533,3.414,69.533,3.439"/>
					<path fill="#64912E" d="M69.533,3.367H10.466c0-0.022,0-0.044,0-0.064h59.067C69.533,3.323,69.533,3.345,69.533,3.367"/>
					<path fill="#618E2C" d="M69.533,3.303H10.466c0-0.02,0-0.039,0-0.056h59.067C69.533,3.265,69.533,3.283,69.533,3.303"/>
					<path fill="#5F8B2B" d="M69.533,3.248H10.466c0-0.018,0-0.034,0-0.048h59.067C69.533,3.214,69.533,3.23,69.533,3.248"/>
					<path fill="#5C882A" d="M69.533,3.2H10.466c0-0.015,0-0.027,0-0.038h59.067C69.533,3.172,69.533,3.185,69.533,3.2"/>
					<path fill="#598529" d="M69.533,3.162H10.466c0-0.012,0-0.021,0-0.027h59.067C69.533,3.142,69.533,3.15,69.533,3.162"/>
					<path fill="#578127" d="M69.533,3.135H10.466c0-0.007,0-0.012,0-0.013h59.067C69.533,3.123,69.533,3.127,69.533,3.135"/>
					<polyline fill="#547E26" points="69.533,3.122 10.466,3.122 10.466,3.121 69.533,3.121 69.533,3.122 					"/>
				</g>
			</g>
			<g enable-background="new    ">
				<defs>
					<path id="SVGID_15_" enable-background="new    " d="M10.466,32.871c0,2.209,0,4,0,4c-3.105,0-5.625-2.511-5.625-5.625
						c0,0,1.791,0,4,0C8.84,32.146,9.571,32.873,10.466,32.871z"/>
				</defs>
				<clipPath id="SVGID_16_">
					<use xlink:href="#SVGID_15_"  overflow="visible"/>
				</clipPath>
				<g clip-path="url(#SVGID_16_)" enable-background="new    ">
					<path fill="#8DC641" d="M10.466,32.871c0,2.209,0,4,0,4c-3.105,0-5.625-2.511-5.625-5.625c0,0,1.791,0,4,0
						C8.84,32.146,9.571,32.873,10.466,32.871"/>
					<path fill="#8DC641" d="M8.835,31.246c0.018,0.018,0.001,0.059,0.002,0.084c0.016,0.625,0.532,1.519,1.628,1.548
						c0,2.206,0,3.993,0,3.993c-3.105,0-5.625-2.511-5.625-5.625C4.841,31.246,6.628,31.246,8.835,31.246"/>
					<path fill="#8AC13F" d="M8.77,31.246c0.019,0.019,0.003,0.062,0.004,0.087c0.024,0.588,0.506,1.548,1.692,1.62
						c0,2.172,0,3.918,0,3.918c-3.105,0-5.625-2.511-5.625-5.625C4.841,31.246,6.593,31.246,8.77,31.246"/>
					<path fill="#87BD3E" d="M8.705,31.246c0.02,0.019,0.003,0.063,0.005,0.091c0.035,0.617,0.531,1.578,1.756,1.692
						c0,2.136,0,3.842,0,3.842c-3.105,0-5.625-2.511-5.625-5.625C4.841,31.246,6.558,31.246,8.705,31.246"/>
					<path fill="#85BA3D" d="M8.635,31.246c0.021,0.02,0.005,0.066,0.007,0.094c0.044,0.631,0.567,1.621,1.824,1.767
						c0,2.1,0,3.765,0,3.765c-3.105,0-5.625-2.511-5.625-5.625C4.841,31.246,6.521,31.246,8.635,31.246"/>
					<path fill="#82B73C" d="M8.566,31.246c0.021,0.02,0.006,0.068,0.008,0.098c0.045,0.551,0.499,1.646,1.892,1.842
						c0,2.063,0,3.686,0,3.686c-3.105,0-5.625-2.511-5.625-5.625C4.841,31.246,6.485,31.246,8.566,31.246"/>
					<path fill="#80B43B" d="M8.49,31.246c0.022,0.021,0.007,0.071,0.01,0.102c0.064,0.661,0.641,1.719,1.966,1.92
						c0,2.023,0,3.604,0,3.604c-3.105,0-5.625-2.511-5.625-5.625C4.841,31.246,6.445,31.246,8.49,31.246"/>
					<path fill="#7EB13A" d="M8.411,31.246c0.024,0.021,0.008,0.074,0.012,0.105c0.068,0.586,0.583,1.758,2.042,2.004
						c0,1.981,0,3.516,0,3.516c-3.105,0-5.625-2.511-5.625-5.625C4.841,31.246,6.404,31.246,8.411,31.246"/>
					<path fill="#7BAE39" d="M8.325,31.246c0.025,0.022,0.009,0.077,0.013,0.109c0.072,0.6,0.61,1.809,2.127,2.093
						c0,1.937,0,3.423,0,3.423c-3.105,0-5.625-2.511-5.625-5.625C4.841,31.246,6.359,31.246,8.325,31.246"/>
					<path fill="#79AB37" d="M8.232,31.246c0.026,0.022,0.011,0.08,0.016,0.114c0.122,0.877,0.868,1.936,2.218,2.188
						c0,1.887,0,3.323,0,3.323c-3.105,0-5.625-2.511-5.625-5.625C4.841,31.246,6.312,31.246,8.232,31.246"/>
					<path fill="#76A836" d="M8.131,31.246c0.027,0.023,0.013,0.084,0.019,0.119c0.11,0.697,0.721,1.963,2.316,2.293
						c0,1.832,0,3.213,0,3.213c-3.105,0-5.625-2.511-5.625-5.625C4.841,31.246,6.26,31.246,8.131,31.246"/>
					<path fill="#74A535" d="M8.02,31.246c0.022,0.02,0.012,0.068,0.017,0.098c0.153,0.907,0.881,2.09,2.429,2.435
						c0,1.772,0,3.093,0,3.093c-3.105,0-5.625-2.511-5.625-5.625C4.841,31.246,6.205,31.246,8.02,31.246"/>
					<path fill="#71A134" d="M7.897,31.246c0.011,0.009,0.006,0.032,0.008,0.047c0.173,1.01,0.937,2.228,2.56,2.617
						c0,1.706,0,2.961,0,2.961c-3.105,0-5.625-2.511-5.625-5.625C4.841,31.246,6.144,31.246,7.897,31.246"/>
					<path fill="#6F9E33" d="M7.763,31.246c0.269,1.418,1.254,2.44,2.703,2.808c0,1.632,0,2.817,0,2.817
						c-3.105,0-5.625-2.511-5.625-5.625C4.841,31.246,6.078,31.246,7.763,31.246"/>
					<path fill="#6C9B32" d="M7.62,31.246c0.034,0.028,0.021,0.102,0.03,0.146c0.222,1.063,1.078,2.359,2.816,2.814
						c0,1.553,0,2.665,0,2.665c-3.105,0-5.625-2.511-5.625-5.625C4.841,31.246,6.007,31.246,7.62,31.246"/>
					<path fill="#699830" d="M7.468,31.246c0.037,0.029,0.023,0.107,0.033,0.153c0.115,0.535,0.669,2.331,2.965,2.966
						c0,1.47,0,2.506,0,2.506c-3.105,0-5.625-2.511-5.625-5.625C4.841,31.246,5.935,31.246,7.468,31.246"/>
					<path fill="#67952F" d="M7.313,31.246c0.039,0.031,0.024,0.112,0.035,0.161c0.123,0.564,0.709,2.457,3.118,3.121
						c0,1.382,0,2.343,0,2.343c-3.105,0-5.625-2.511-5.625-5.625C4.841,31.246,5.862,31.246,7.313,31.246"/>
					<path fill="#64912E" d="M7.154,31.246c0.013,0.011,0.008,0.039,0.011,0.055c0.26,1.283,1.264,2.848,3.3,3.392
						c0,1.294,0,2.179,0,2.179c-3.105,0-5.625-2.511-5.625-5.625C4.841,31.246,5.788,31.246,7.154,31.246"/>
					<path fill="#618E2C" d="M6.994,31.246c0.042,0.034,0.027,0.124,0.039,0.178c0.097,0.444,0.717,2.701,3.434,3.433
						c0,1.204,0,2.015,0,2.015c-3.105,0-5.625-2.511-5.625-5.625C4.841,31.246,5.714,31.246,6.994,31.246"/>
					<path fill="#5F8B2B" d="M6.832,31.246c0.044,0.036,0.027,0.13,0.039,0.186c0.278,1.31,1.386,3.036,3.595,3.591
						c0,1.112,0,1.849,0,1.849c-3.105,0-5.625-2.511-5.625-5.625C4.841,31.246,5.641,31.246,6.832,31.246"/>
					<path fill="#5C882A" d="M6.666,31.246c0.046,0.037,0.028,0.136,0.041,0.194c0.287,1.361,1.443,3.16,3.759,3.75
						c0,1.018,0,1.681,0,1.681c-3.105,0-5.625-2.511-5.625-5.625C4.841,31.246,5.567,31.246,6.666,31.246"/>
					<path fill="#598529" d="M6.496,31.246c0.048,0.039,0.029,0.143,0.041,0.203c0.063,0.316,0.714,3.113,3.929,3.913
						c0,0.92,0,1.509,0,1.509c-3.105,0-5.625-2.511-5.625-5.625C4.841,31.246,5.493,31.246,6.496,31.246"/>
					<path fill="#578127" d="M6.319,31.246c0.05,0.041,0.029,0.148,0.041,0.212c0.239,1.226,1.373,3.465,4.106,4.081
						c0,0.817,0,1.332,0,1.332c-3.105,0-5.625-2.511-5.625-5.625C4.841,31.246,5.417,31.246,6.319,31.246"/>
					<path fill="#547E26" d="M6.131,31.246c0.052,0.043,0.029,0.155,0.041,0.222c0.313,1.679,1.79,3.727,4.293,4.257
						c0,0.709,0,1.146,0,1.146c-3.105,0-5.625-2.511-5.625-5.625C4.841,31.246,5.338,31.246,6.131,31.246"/>
					<path fill="#527B24" d="M5.927,31.246c0.054,0.046,0.028,0.163,0.04,0.232c0.216,1.261,1.434,3.812,4.499,4.446
						c0,0.591,0,0.946,0,0.946c-3.105,0-5.625-2.511-5.625-5.625C4.841,31.246,5.253,31.246,5.927,31.246"/>
					<path fill="#4F7823" d="M5.687,31.246c0.056,0.049,0.026,0.172,0.038,0.245c0.242,1.564,1.705,4.098,4.741,4.665
						c0,0.451,0,0.715,0,0.715c-3.105,0-5.625-2.511-5.625-5.625C4.841,31.246,5.157,31.246,5.687,31.246"/>
				</g>
			</g>
			<g enable-background="new    ">
				<defs>
					<path id="SVGID_17_" enable-background="new    " d="M71.158,8.746c2.209,0,4,0,4,0v22.5c0,0-1.791,0-4,0V8.746z"/>
				</defs>
				<clipPath id="SVGID_18_">
					<use xlink:href="#SVGID_17_"  overflow="visible"/>
				</clipPath>
				<g clip-path="url(#SVGID_18_)" enable-background="new    ">
					<path fill="#9BCB55" d="M71.158,31.246v-22.5c0.02,0,0.038,0,0.058,0v22.5C71.196,31.246,71.177,31.246,71.158,31.246"/>
					<path fill="#A0CD5F" d="M71.215,31.246v-22.5c0.021,0,0.042,0,0.063,0v22.5C71.257,31.246,71.237,31.246,71.215,31.246"/>
					<path fill="#A4CF66" d="M71.279,31.246v-22.5c0.021,0,0.042,0,0.063,0v22.5C71.321,31.246,71.299,31.246,71.279,31.246"/>
					<path fill="#A8D16D" d="M71.341,31.246v-22.5c0.021,0,0.042,0,0.063,0v22.5C71.383,31.246,71.363,31.246,71.341,31.246"/>
					<path fill="#ABD273" d="M71.405,31.246v-22.5c0.021,0,0.041,0,0.063,0v22.5C71.446,31.246,71.425,31.246,71.405,31.246"/>
					<path fill="#AED378" d="M71.467,31.246v-22.5c0.024,0,0.049,0,0.073,0v22.5C71.516,31.246,71.492,31.246,71.467,31.246"/>
					<path fill="#B0D57C" d="M71.541,31.246v-22.5c0.026,0,0.053,0,0.079,0v22.5C71.593,31.246,71.567,31.246,71.541,31.246"/>
					<path fill="#B3D680" d="M71.62,31.246v-22.5c0.026,0,0.052,0,0.078,0v22.5C71.671,31.246,71.646,31.246,71.62,31.246"/>
					<path fill="#B5D784" d="M71.698,31.246v-22.5c0.025,0,0.052,0,0.077,0v22.5C71.75,31.246,71.723,31.246,71.698,31.246"/>
					<path fill="#B7D887" d="M71.775,31.246v-22.5c0.054,0,0.105,0,0.158,0v22.5C71.88,31.246,71.829,31.246,71.775,31.246"/>
					<path fill="#B9D98B" d="M71.933,31.246v-22.5c0.125,0,0.248,0,0.368,0v22.5C72.181,31.246,72.058,31.246,71.933,31.246"/>
					<path fill="#B7D887" d="M72.301,31.246v-22.5c0.053,0,0.105,0,0.157,0v22.5C72.407,31.246,72.354,31.246,72.301,31.246"/>
					<path fill="#B5D784" d="M72.458,31.246v-22.5c0.03,0,0.06,0,0.089,0v22.5C72.518,31.246,72.489,31.246,72.458,31.246"/>
					<path fill="#B3D680" d="M72.547,31.246v-22.5c0.03,0,0.06,0,0.089,0v22.5C72.607,31.246,72.578,31.246,72.547,31.246"/>
					<path fill="#B0D57C" d="M72.636,31.246v-22.5c0.028,0,0.058,0,0.086,0v22.5C72.694,31.246,72.665,31.246,72.636,31.246"/>
					<path fill="#AED378" d="M72.722,31.246v-22.5c0.025,0,0.052,0,0.077,0v22.5C72.774,31.246,72.748,31.246,72.722,31.246"/>
					<path fill="#ABD273" d="M72.799,31.246v-22.5c0.025,0,0.051,0,0.076,0v22.5C72.85,31.246,72.825,31.246,72.799,31.246"/>
					<path fill="#A8D16D" d="M72.875,31.246v-22.5c0.025,0,0.051,0,0.076,0v22.5C72.926,31.246,72.901,31.246,72.875,31.246"/>
					<path fill="#A4CF66" d="M72.952,31.246v-22.5c0.027,0,0.054,0,0.081,0v22.5C73.005,31.246,72.979,31.246,72.952,31.246"/>
					<path fill="#A0CD5F" d="M73.033,31.246v-22.5c0.029,0,0.06,0,0.089,0v22.5C73.092,31.246,73.062,31.246,73.033,31.246"/>
					<path fill="#9BCB55" d="M73.122,31.246v-22.5c0.029,0,0.059,0,0.088,0v22.5C73.18,31.246,73.151,31.246,73.122,31.246"/>
					<path fill="#8DC641" d="M73.209,31.246v-22.5c0.033,0,0.065,0,0.099,0v22.5C73.275,31.246,73.243,31.246,73.209,31.246"/>
					<path fill="#8AC13F" d="M73.308,31.246v-22.5c0.04,0,0.079,0,0.119,0v22.5C73.387,31.246,73.348,31.246,73.308,31.246"/>
					<path fill="#87BD3E" d="M73.427,31.246v-22.5c0.042,0,0.083,0,0.124,0v22.5C73.51,31.246,73.469,31.246,73.427,31.246"/>
					<path fill="#85BA3D" d="M73.551,31.246v-22.5c0.053,0,0.105,0,0.156,0v22.5C73.657,31.246,73.604,31.246,73.551,31.246"/>
					<path fill="#82B73C" d="M73.708,31.246v-22.5c0.057,0,0.112,0,0.166,0v22.5C73.82,31.246,73.764,31.246,73.708,31.246"/>
					<path fill="#80B43B" d="M73.874,31.246v-22.5c0.057,0,0.112,0,0.167,0v22.5C73.986,31.246,73.93,31.246,73.874,31.246"/>
					<path fill="#7EB13A" d="M74.041,31.246v-22.5c0.054,0,0.105,0,0.156,0v22.5C74.146,31.246,74.094,31.246,74.041,31.246"/>
					<path fill="#7BAE39" d="M74.197,31.246v-22.5c0.048,0,0.093,0,0.137,0v22.5C74.29,31.246,74.245,31.246,74.197,31.246"/>
					<path fill="#79AB37" d="M74.333,31.246v-22.5c0.043,0,0.084,0,0.123,0v22.5C74.417,31.246,74.376,31.246,74.333,31.246"/>
					<path fill="#76A836" d="M74.457,31.246v-22.5c0.038,0,0.074,0,0.11,0v22.5C74.531,31.246,74.495,31.246,74.457,31.246"/>
					<path fill="#74A535" d="M74.567,31.246v-22.5c0.033,0,0.065,0,0.096,0v22.5C74.632,31.246,74.6,31.246,74.567,31.246"/>
					<path fill="#71A134" d="M74.663,31.246v-22.5c0.03,0,0.06,0,0.088,0v22.5C74.722,31.246,74.693,31.246,74.663,31.246"/>
					<path fill="#6F9E33" d="M74.75,31.246v-22.5c0.027,0,0.053,0,0.078,0v22.5C74.803,31.246,74.778,31.246,74.75,31.246"/>
					<path fill="#6C9B32" d="M74.829,31.246v-22.5c0.024,0,0.047,0,0.069,0v22.5C74.875,31.246,74.853,31.246,74.829,31.246"/>
					<path fill="#699830" d="M74.898,31.246v-22.5c0.021,0,0.042,0,0.062,0v22.5C74.94,31.246,74.919,31.246,74.898,31.246"/>
					<path fill="#67952F" d="M74.959,31.246v-22.5c0.02,0,0.037,0,0.054,0v22.5C74.997,31.246,74.979,31.246,74.959,31.246"/>
					<path fill="#64912E" d="M75.013,31.246v-22.5c0.018,0,0.033,0,0.047,0v22.5C75.046,31.246,75.031,31.246,75.013,31.246"/>
					<path fill="#618E2C" d="M75.06,31.246v-22.5c0.015,0,0.027,0,0.038,0v22.5C75.087,31.246,75.075,31.246,75.06,31.246"/>
					<path fill="#5F8B2B" d="M75.098,31.246v-22.5c0.012,0,0.022,0,0.03,0v22.5C75.121,31.246,75.11,31.246,75.098,31.246"/>
					<path fill="#5C882A" d="M75.128,31.246v-22.5c0.009,0,0.016,0,0.021,0v22.5C75.144,31.246,75.137,31.246,75.128,31.246"/>
					<polyline fill="#598529" points="75.149,31.246 75.149,8.746 75.158,8.746 75.158,31.246 75.149,31.246 					"/>
					<polyline fill="#578127" points="75.158,31.246 75.158,8.746 75.158,8.746 75.158,31.246 75.158,31.246 					"/>
				</g>
			</g>
			<g>
				<path fill="#7CAF39" d="M69.533,7.121c0.891-0.003,1.628,0.734,1.625,1.625c0,7.5,0,15,0,22.5
					c0.001,0.898-0.73,1.627-1.625,1.625c-19.689,0-39.378,0-59.067,0c-0.895,0.002-1.626-0.726-1.625-1.625c0-7.5,0-15,0-22.5
					c-0.003-0.891,0.734-1.628,1.625-1.625C30.155,7.121,49.843,7.121,69.533,7.121z"/>
			</g>
		</g>
	</g>
</g>
</svg>
