<?xml version="1.0" encoding="utf-8"?>
<!-- Generator: Adobe Illustrator 15.0.2, SVG Export Plug-In . SVG Version: 6.00 Build 0)  -->
<!DOCTYPE svg PUBLIC "-//W3C//DTD SVG 1.1//EN" "http://www.w3.org/Graphics/SVG/1.1/DTD/svg11.dtd">
<svg version="1.1" id="Layer_1" xmlns="http://www.w3.org/2000/svg" xmlns:xlink="http://www.w3.org/1999/xlink" x="0px" y="0px"
	 width="50px" height="50px" viewBox="0 0 50 50" enable-background="new 0 0 50 50" xml:space="preserve">
<g>
	<g>
		<g>
			<g enable-background="new    ">
				<g>
					<path fill="#8E8E8E" d="M15.154,9.942h21.024H15.154z"/>
				</g>
				<g enable-background="new    ">
					<defs>
						<path id="SVGID_1_" enable-background="new    " d="M36.179,13.942c0-2.209,0-4,0-4c3.032,0,5.489,2.385,5.489,5.328
							c0,0-1.79,0-4,0C37.675,14.583,37.039,13.944,36.179,13.942z"/>
					</defs>
					<clipPath id="SVGID_2_">
						<use xlink:href="#SVGID_1_"  overflow="visible"/>
					</clipPath>
					<g clip-path="url(#SVGID_2_)" enable-background="new    ">
						<path fill="#FFFFFF" d="M36.179,13.942c0-2.209,0-4,0-4c3.032,0,5.489,2.385,5.489,5.328c0,0-1.79,0-4,0
							C37.675,14.583,37.039,13.944,36.179,13.942"/>
						<path fill="#FFFFFF" d="M38.844,15.271c1.008-0.822,0.179-2.611-1.267-2.735c-0.601-0.051-1.322,0.321-0.951,0.764
							c0.314,0.374,0.786,0.564,1.096,0.943c0.262,0.321,0.372,0.744,0.688,1.028c-0.24,0-0.488,0-0.742,0
							c0.007-0.687-0.629-1.326-1.489-1.328c0-2.209,0-4,0-4c3.032,0,5.489,2.385,5.489,5.328
							C41.668,15.271,40.479,15.271,38.844,15.271"/>
						<path fill="#FFFFFF" d="M38.967,15.271c1.034-1.149-0.207-2.863-1.623-2.794c-0.756,0.038-1.153,0.544-0.831,0.834
							c0.335,0.302,0.759,0.49,1.065,0.828c0.304,0.335,0.473,0.755,0.711,1.132c-0.202,0-0.41,0-0.621,0
							c0.007-0.687-0.629-1.326-1.489-1.328c0-2.209,0-4,0-4c3.032,0,5.489,2.385,5.489,5.328
							C41.668,15.271,40.538,15.271,38.967,15.271"/>
						<path fill="#FFFFFF" d="M39.063,15.271c0.872-0.989-0.095-2.944-1.775-2.849c-0.676,0.038-1.28,0.553-0.888,0.911
							c0.353,0.32,0.821,0.48,1.148,0.833c0.28,0.303,0.412,0.569,0.647,1.104c-0.173,0-0.349,0-0.527,0
							c0.007-0.687-0.629-1.326-1.489-1.328c0-2.209,0-4,0-4c3.032,0,5.489,2.385,5.489,5.328
							C41.668,15.271,40.584,15.271,39.063,15.271"/>
						<path fill="#FFFFFF" d="M39.148,15.271c0.988-1.41-0.568-3.17-2.075-2.882c-0.414,0.079-0.749,0.288-0.895,0.559
							c0-1.729,0-3.005,0-3.005c3.032,0,5.489,2.385,5.489,5.328C41.668,15.271,40.625,15.271,39.148,15.271"/>
						<path fill="#FFFFFF" d="M39.229,15.271c0.959-1.583-0.722-3.316-2.29-2.917c-0.461,0.118-0.685,0.334-0.76,0.422
							c0-1.64,0-2.833,0-2.833c3.032,0,5.489,2.385,5.489,5.328C41.668,15.271,40.662,15.271,39.229,15.271"/>
						<path fill="#FFFFFF" d="M39.305,15.271c0.902-1.491-0.719-3.423-2.479-2.954c-0.173,0.046-0.445,0.163-0.647,0.341
							c0-1.579,0-2.715,0-2.715c3.032,0,5.489,2.385,5.489,5.328C41.668,15.271,40.698,15.271,39.305,15.271"/>
						<path fill="#FFFFFF" d="M39.38,15.271c0.929-1.746-0.87-3.479-2.539-3.027c-0.364,0.099-0.558,0.237-0.662,0.312
							c0-1.525,0-2.613,0-2.613c3.032,0,5.489,2.385,5.489,5.328C41.668,15.271,40.732,15.271,39.38,15.271"/>
						<path fill="#FFFFFF" d="M39.455,15.271c0.948-1.85-1.059-3.636-2.776-3.052c-0.236,0.081-0.408,0.186-0.5,0.242
							c0-1.476,0-2.519,0-2.519c3.032,0,5.489,2.385,5.489,5.328C41.668,15.271,40.768,15.271,39.455,15.271"/>
						<path fill="#FFFFFF" d="M39.536,15.271c0.879-1.753-0.902-3.714-2.846-3.132c-0.202,0.061-0.353,0.144-0.512,0.231
							c0-1.428,0-2.428,0-2.428c3.032,0,5.489,2.385,5.489,5.328C41.668,15.271,40.804,15.271,39.536,15.271"/>
						<path fill="#FFFFFF" d="M39.62,15.271c0.892-1.903-1.077-3.909-3.097-3.156c-0.159,0.059-0.275,0.125-0.345,0.165
							c0-1.379,0-2.337,0-2.337c3.032,0,5.489,2.385,5.489,5.328C41.668,15.271,40.843,15.271,39.62,15.271"/>
						<path fill="#FFFFFF" d="M39.711,15.271c0.958-2.132-1.235-3.927-3.179-3.246c-0.14,0.049-0.211,0.086-0.354,0.161
							c0-1.329,0-2.243,0-2.243c3.032,0,5.489,2.385,5.489,5.328C41.668,15.271,40.883,15.271,39.711,15.271"/>
						<path fill="#FAFAFA" d="M39.811,15.271c1.009-2.237-1.219-4.053-3.269-3.344c-0.14,0.048-0.152,0.054-0.363,0.159
							c0-1.274,0-2.144,0-2.144c3.032,0,5.489,2.385,5.489,5.328C41.668,15.271,40.927,15.271,39.811,15.271"/>
						<path fill="#F5F5F5" d="M39.925,15.271c1.059-2.354-1.294-4.244-3.403-3.442c-0.163,0.062-0.163,0.062-0.343,0.15
							c0-1.215,0-2.036,0-2.036c3.032,0,5.489,2.385,5.489,5.328C41.668,15.271,40.978,15.271,39.925,15.271"/>
						<path fill="#F0F0F0" d="M40.058,15.271c1.011-2.194-1.144-4.402-3.492-3.58c-0.15,0.053-0.159,0.057-0.387,0.168
							c0-1.149,0-1.917,0-1.917c3.032,0,5.489,2.385,5.489,5.328C41.668,15.271,41.035,15.271,40.058,15.271"/>
						<path fill="#EBEBEB" d="M40.21,15.271c1.029-2.258-1.243-4.59-3.629-3.725c-0.163,0.06-0.195,0.075-0.402,0.177
							c0-1.073,0-1.78,0-1.78c3.032,0,5.489,2.385,5.489,5.328C41.668,15.271,41.101,15.271,40.21,15.271"/>
						<path fill="#E5E5E5" d="M40.38,15.271c1.036-2.275-1.367-4.747-3.783-3.888c-0.158,0.056-0.219,0.086-0.418,0.184
							c0-0.985,0-1.624,0-1.624c3.032,0,5.489,2.385,5.489,5.328C41.668,15.271,41.172,15.271,40.38,15.271"/>
						<path fill="#E0E0E0" d="M40.55,15.271c0.978-2.41-1.703-4.975-4.156-3.978c-0.066,0.027-0.15,0.069-0.215,0.099
							c0-0.886,0-1.45,0-1.45c3.032,0,5.489,2.385,5.489,5.328C41.668,15.271,41.242,15.271,40.55,15.271"/>
						<path fill="#DBDBDB" d="M40.706,15.271c-0.025-0.035,0.032-0.096,0.047-0.137c0.364-1.07-0.058-2.424-1.026-3.293
							c-1.043-0.934-2.369-1.169-3.548-0.627c0-0.783,0-1.271,0-1.271c3.032,0,5.489,2.385,5.489,5.328
							C41.668,15.271,41.306,15.271,40.706,15.271"/>
						<path fill="#D6D6D6" d="M40.845,15.271c-0.042-0.055,0.043-0.155,0.062-0.222c0.239-0.867-0.01-2.258-1.123-3.266
							c-1.047-0.948-2.395-1.224-3.604-0.738c0-0.684,0-1.103,0-1.103c3.032,0,5.489,2.385,5.489,5.328
							C41.668,15.271,41.361,15.271,40.845,15.271"/>
						<path fill="#D1D1D1" d="M40.968,15.271c-0.013-0.016,0.012-0.046,0.017-0.065c0.314-1.184-0.138-2.548-1.15-3.473
							c-0.499-0.456-1.854-1.451-3.655-0.838c0-0.594,0-0.952,0-0.952c3.032,0,5.489,2.385,5.489,5.328
							C41.668,15.271,41.409,15.271,40.968,15.271"/>
						<path fill="#CCCCCC" d="M41.076,15.271c-0.039-0.048,0.029-0.14,0.042-0.2c0.193-0.938-0.114-2.347-1.239-3.384
							c-0.612-0.564-1.907-1.435-3.7-0.928c0-0.512,0-0.816,0-0.816c3.032,0,5.489,2.385,5.489,5.328
							C41.668,15.271,41.451,15.271,41.076,15.271"/>
						<path fill="#C7C7C7" d="M41.174,15.271c-0.012-0.014,0.008-0.041,0.011-0.058c0.247-1.246-0.238-2.612-1.267-3.566
							c-1.056-0.979-2.453-1.356-3.739-1.01c0-0.438,0-0.695,0-0.695c3.032,0,5.489,2.385,5.489,5.328
							C41.668,15.271,41.488,15.271,41.174,15.271"/>
						<path fill="#C2C2C2" d="M41.261,15.271c-0.048-0.055,0.024-0.167,0.035-0.239c0.139-0.948-0.223-2.374-1.344-3.419
							c-0.617-0.577-1.93-1.484-3.773-1.084c0-0.372,0-0.586,0-0.586c3.032,0,5.489,2.385,5.489,5.328
							C41.668,15.271,41.521,15.271,41.261,15.271"/>
						<path fill="#BDBDBD" d="M41.339,15.271c-0.021-0.023,0.01-0.071,0.014-0.102c0.177-1.253-0.349-2.628-1.371-3.586
							c-1.075-1.01-2.462-1.43-3.803-1.153c0-0.311,0-0.487,0-0.487c3.032,0,5.489,2.385,5.489,5.328
							C41.668,15.271,41.551,15.271,41.339,15.271"/>
						<path fill="#B8B8B8" d="M41.408,15.271c-0.054-0.059,0.018-0.184,0.025-0.262c0.071-0.715-0.149-2.247-1.427-3.451
							c-0.62-0.585-1.942-1.52-3.828-1.216c0-0.255,0-0.398,0-0.398c3.032,0,5.489,2.385,5.489,5.328
							C41.668,15.271,41.576,15.271,41.408,15.271"/>
						<path fill="#FFFFFF" d="M38.474,15.203c-0.048-0.027-0.103-0.079-0.139-0.12c-0.293-0.327-0.45-0.75-0.759-1.065
							c-0.175-0.179-0.323-0.293-0.421-0.37c-0.413-0.321-0.424-0.34-0.49-0.464c-0.104-0.192,0.093-0.445,0.422-0.542
							c1.373-0.404,2.595,1.292,1.995,2.277C38.94,15.151,38.697,15.329,38.474,15.203"/>
						<path fill="#FFFFFF" d="M38.467,15.093c-0.005-0.002-0.11-0.094-0.149-0.138c-0.247-0.277-0.398-0.625-0.649-0.9
							c-0.165-0.181-0.358-0.345-0.487-0.454c-0.253-0.214-0.33-0.279-0.388-0.388c-0.116-0.221,0.048-0.44,0.4-0.532
							c1.182-0.308,2.406,1.088,1.872,2.135C39.056,14.837,38.817,15.293,38.467,15.093"/>
						<path fill="#B2B2B2" d="M41.47,15.271c-0.035-0.039,0.011-0.121,0.016-0.173c0.084-0.927-0.248-2.416-1.458-3.562
							c-1.078-1.021-2.481-1.486-3.849-1.275c0-0.205,0-0.318,0-0.318c3.032,0,5.489,2.385,5.489,5.328
							C41.668,15.271,41.599,15.271,41.47,15.271"/>
						<path fill="#FFFFFF" d="M38.593,15.045c-0.113-0.021-0.167-0.078-0.256-0.174c-0.016-0.016-0.034-0.038-0.049-0.054
							c-0.236-0.271-0.404-0.596-0.653-0.857c-0.23-0.242-0.51-0.436-0.71-0.708c-0.002-0.002-0.139-0.207,0.059-0.383
							c0.605-0.542,2.265,0.221,2.141,1.544C39.106,14.599,39.02,15.033,38.593,15.045"/>
						<path fill="#ADADAD" d="M41.523,15.271c-0.055-0.059,0.012-0.188,0.017-0.268c0.055-0.898-0.305-2.349-1.497-3.483
							C39.286,10.8,38,9.984,36.179,10.189c0-0.16,0-0.247,0-0.247c3.032,0,5.489,2.385,5.489,5.328
							C41.668,15.271,41.618,15.271,41.523,15.271"/>
						<path fill="#FFFFFF" d="M38.579,14.944c-0.102-0.021-0.184-0.111-0.244-0.176c-0.223-0.24-0.389-0.524-0.604-0.771
							c-0.179-0.206-0.395-0.375-0.573-0.58c-0.03-0.035-0.072-0.081-0.1-0.119c-0.017-0.023-0.157-0.228,0.031-0.396
							c0.548-0.489,2.097,0.267,1.983,1.465C39.043,14.688,38.846,15.001,38.579,14.944"/>
						<path fill="#FFFFFF" d="M38.561,14.841c-0.093-0.024-0.187-0.127-0.232-0.176c-0.181-0.196-0.327-0.42-0.5-0.624
							c-0.202-0.236-0.451-0.43-0.634-0.685c-0.083-0.116-0.149-0.282,0.005-0.415c0.496-0.424,1.915,0.289,1.82,1.357
							C38.982,14.72,38.755,14.892,38.561,14.841"/>
						<path fill="#A8A8A8" d="M41.57,15.271c-0.05-0.052,0.008-0.168,0.011-0.24c0.042-0.912-0.332-2.381-1.526-3.521
							c-1.094-1.044-2.471-1.536-3.876-1.384c0-0.119,0-0.183,0-0.183c3.032,0,5.489,2.385,5.489,5.328
							C41.668,15.271,41.634,15.271,41.57,15.271"/>
						<path fill="#FFFFFF" d="M38.535,14.73c-0.001,0-0.115-0.058-0.219-0.17l-0.971-1.127c-0.084-0.12-0.211-0.301-0.036-0.446
							c0.401-0.333,1.737,0.25,1.646,1.335C38.947,14.435,38.848,14.834,38.535,14.73"/>
						<path fill="#FFFFFF" d="M38.5,14.613c-0.186-0.08-0.972-1.044-1.08-1.218c-0.049-0.077-0.177-0.283,0.079-0.388
							c0.682-0.28,1.664,0.777,1.348,1.45C38.73,14.705,38.557,14.636,38.5,14.613"/>
						<path fill="#FFFFFF" d="M37.668,15.271c0.007-0.687-0.629-1.326-1.489-1.328c0-0.229,0-0.453,0-0.67
							c0.033,0.03,0.076,0.069,0.109,0.099c0.035,0.031,0.075,0.067,0.462,0.266c0.406,0.209,0.624,0.407,0.768,0.557
							c0.307,0.318,0.437,0.653,0.602,1.077C37.971,15.271,37.82,15.271,37.668,15.271"/>
						<path fill="#A3A3A3" d="M41.608,15.271c-0.01-0.011,0.002-0.034,0.003-0.049c0.066-1.334-0.514-2.724-1.552-3.718
							c-0.758-0.726-2.047-1.564-3.881-1.435c0-0.083,0-0.126,0-0.126c3.032,0,5.489,2.385,5.489,5.328
							C41.668,15.271,41.647,15.271,41.608,15.271"/>
						<path fill="#FFFFFF" d="M38.494,14.495c-0.172-0.052-0.742-0.75-0.893-0.97c-0.083-0.121-0.208-0.304-0.059-0.421
							c0.298-0.235,1.386,0.308,1.278,1.128C38.791,14.463,38.682,14.551,38.494,14.495"/>
						<path fill="#FFFFFF" d="M37.668,15.271c0.007-0.687-0.629-1.326-1.489-1.328c0-0.174,0-0.345,0-0.512
							c0.031,0.015,0.072,0.036,0.104,0.051c0.226,0.118,0.467,0.204,0.687,0.334c0.259,0.153,0.41,0.295,0.463,0.349
							c0.299,0.303,0.466,0.603,0.615,1.106C37.922,15.271,37.796,15.271,37.668,15.271"/>
						<path fill="#FFFFFF" d="M37.668,15.271c0.007-0.687-0.629-1.326-1.489-1.328c0-0.135,0-0.269,0-0.4
							c0.029,0.01,0.069,0.022,0.099,0.032c0.799,0.296,1.432,0.61,1.702,1.696C37.877,15.271,37.772,15.271,37.668,15.271"/>
						<path fill="#FFFFFF" d="M38.554,14.394c-0.224,0.005-0.748-0.711-0.771-0.742c-0.143-0.196-0.25-0.367-0.112-0.472
							c0.11-0.084,0.479-0.024,0.723,0.208c0.441,0.421,0.354,0.797,0.35,0.813C38.729,14.258,38.695,14.39,38.554,14.394"/>
						<path fill="#FFFFFF" d="M37.668,15.271c0.007-0.687-0.629-1.326-1.489-1.328c0-0.104,0-0.206,0-0.308
							c0.028,0.007,0.066,0.016,0.095,0.022c0.492,0.147,1.409,0.421,1.641,1.613C37.833,15.271,37.751,15.271,37.668,15.271"/>
						<path fill="#FFFFFF" d="M37.668,15.271c0.007-0.687-0.629-1.326-1.489-1.328c0-0.075,0-0.149,0-0.223
							c0.027,0.004,0.063,0.01,0.091,0.014c0.925,0.203,1.457,0.72,1.581,1.537C37.79,15.271,37.729,15.271,37.668,15.271"/>
						<path fill="#FFFFFF" d="M38.519,14.233c-0.01,0.003-0.023,0.012-0.034,0.011c-0.128-0.013-0.302-0.217-0.442-0.381
							c-0.057-0.067-0.119-0.13-0.165-0.206c-0.081-0.134-0.119-0.264-0.119-0.264c0.002-0.039,0.025-0.093,0.057-0.115
							c0.086-0.06,0.356,0.007,0.525,0.16c0.344,0.311,0.32,0.6,0.319,0.603c-0.006,0.052-0.016,0.129-0.054,0.164
							C38.585,14.223,38.545,14.225,38.519,14.233"/>
						<path fill="#9E9E9E" d="M39.025,10.714c-0.976-0.542-1.773-0.736-2.847-0.692c0-0.052,0-0.079,0-0.079
							c1.086,0,2.099,0.306,2.951,0.834C39.099,10.758,39.057,10.732,39.025,10.714"/>
						<path fill="#FFFFFF" d="M37.668,15.271c0.007-0.687-0.629-1.326-1.489-1.328c0-0.048,0-0.096,0-0.143
							c0.019,0.002,0.043,0.005,0.062,0.007c0.65,0.079,1.445,0.509,1.547,1.464C37.748,15.271,37.708,15.271,37.668,15.271"/>
						<path fill="#999999" d="M38.066,10.266c-0.495-0.161-1.048-0.315-1.888-0.282c0-0.027,0-0.041,0-0.041
							c0.679,0,1.329,0.12,1.929,0.338C38.096,10.276,38.079,10.27,38.066,10.266"/>
						<path fill="#FFFFFF" d="M38.378,14.041c-0.008,0.001-0.195-0.113-0.396-0.435c-0.029-0.047-0.038-0.156,0.009-0.187
							c0.002-0.001,0.212-0.015,0.373,0.173c0.063,0.074,0.107,0.126,0.139,0.221c0.019,0.058,0.042,0.16-0.001,0.204
							C38.476,14.045,38.416,14.038,38.378,14.041"/>
						<path fill="#9E9E9E" d="M41.639,15.271c-0.053-0.053,0.002-0.175,0.003-0.25c0.003-0.292-0.039-0.902-0.36-1.718
							c0.25,0.608,0.387,1.272,0.387,1.968C41.668,15.271,41.658,15.271,41.639,15.271"/>
						<path fill="#FFFFFF" d="M37.668,15.271c0.007-0.687-0.629-1.326-1.489-1.328c0-0.022,0-0.045,0-0.067
							c0.025,0.002,0.059,0.004,0.083,0.006c0.842,0.094,1.415,0.64,1.463,1.39C37.705,15.271,37.687,15.271,37.668,15.271"/>
						<path fill="#949494" d="M37.015,10.004c-0.278-0.033-0.454-0.052-0.836-0.048c0-0.009,0-0.014,0-0.014
							c0.361,0,0.714,0.034,1.056,0.099C37.169,10.03,37.081,10.014,37.015,10.004"/>
						<path fill="#999999" d="M41.659,15.271c-0.059-0.058-0.002-0.192-0.003-0.274c0-0.057-0.007-0.275-0.075-0.676
							c0.057,0.309,0.087,0.626,0.087,0.95C41.668,15.271,41.665,15.271,41.659,15.271"/>
						<path fill="#8F8F8F" d="M36.179,9.943c0.068,0,0.136,0,0.203,0.003C36.32,9.945,36.222,9.986,36.179,9.943"/>
						<path fill="#949494" d="M41.668,15.271c-0.023-0.023-0.001-0.076-0.001-0.109C41.668,15.198,41.668,15.234,41.668,15.271
							L41.668,15.271"/>
					</g>
				</g>
				<g enable-background="new    ">
					<defs>
						<path id="SVGID_3_" enable-background="new    " d="M37.668,15.271c2.21,0,4,0,4,0v21.339c0,0-1.79,0-4,0V15.271z"/>
					</defs>
					<clipPath id="SVGID_4_">
						<use xlink:href="#SVGID_3_"  overflow="visible"/>
					</clipPath>
					<g clip-path="url(#SVGID_4_)" enable-background="new    ">
						<path fill="#FFFFFF" d="M37.668,36.609V15.271c0.02,0,0.038,0,0.058,0v21.339C37.706,36.609,37.688,36.609,37.668,36.609"/>
						<path fill="#FFFFFF" d="M37.726,36.609V15.271c0.021,0,0.042,0,0.063,0v21.339C37.768,36.609,37.747,36.609,37.726,36.609"/>
						<path fill="#FFFFFF" d="M37.789,36.609V15.271c0.021,0,0.042,0,0.063,0v21.339C37.831,36.609,37.81,36.609,37.789,36.609"/>
						<path fill="#FFFFFF" d="M37.852,36.609V15.271c0.021,0,0.042,0,0.063,0v21.339C37.894,36.609,37.873,36.609,37.852,36.609"/>
						<path fill="#FFFFFF" d="M37.915,36.609V15.271c0.021,0,0.041,0,0.063,0v21.339C37.956,36.609,37.936,36.609,37.915,36.609"/>
						<path fill="#FFFFFF" d="M37.978,36.609V15.271c0.024,0,0.049,0,0.073,0v21.339C38.026,36.609,38.002,36.609,37.978,36.609"/>
						<path fill="#FFFFFF" d="M38.051,36.609V15.271c0.026,0,0.053,0,0.079,0v21.339C38.104,36.609,38.077,36.609,38.051,36.609"/>
						<path fill="#FFFFFF" d="M38.13,36.609V15.271c0.026,0,0.052,0,0.078,0v21.339C38.182,36.609,38.156,36.609,38.13,36.609"/>
						<path fill="#FFFFFF" d="M38.208,36.609V15.271c0.025,0,0.052,0,0.077,0v21.339C38.26,36.609,38.233,36.609,38.208,36.609"/>
						<path fill="#FFFFFF" d="M38.285,36.609V15.271c0.054,0,0.106,0,0.158,0v21.339C38.392,36.609,38.339,36.609,38.285,36.609"/>
						<path fill="#FFFFFF" d="M38.443,36.609V15.271c0.125,0,0.248,0,0.368,0v21.339C38.691,36.609,38.568,36.609,38.443,36.609"/>
						<path fill="#FFFFFF" d="M38.812,36.609V15.271c0.053,0,0.105,0,0.157,0v21.339C38.917,36.609,38.864,36.609,38.812,36.609"/>
						<path fill="#FFFFFF" d="M38.969,36.609V15.271c0.03,0,0.06,0,0.089,0v21.339C39.028,36.609,38.999,36.609,38.969,36.609"/>
						<path fill="#FFFFFF" d="M39.058,36.609V15.271c0.03,0,0.06,0,0.089,0v21.339C39.117,36.609,39.088,36.609,39.058,36.609"/>
						<path fill="#FFFFFF" d="M39.146,36.609V15.271c0.028,0,0.058,0,0.086,0v21.339C39.204,36.609,39.175,36.609,39.146,36.609"/>
						<path fill="#FFFFFF" d="M39.232,36.609V15.271c0.026,0,0.052,0,0.077,0v21.339C39.284,36.609,39.259,36.609,39.232,36.609"/>
						<path fill="#FFFFFF" d="M39.31,36.609V15.271c0.025,0,0.051,0,0.076,0v21.339C39.36,36.609,39.335,36.609,39.31,36.609"/>
						<path fill="#FFFFFF" d="M39.386,36.609V15.271c0.025,0,0.051,0,0.076,0v21.339C39.437,36.609,39.411,36.609,39.386,36.609"/>
						<path fill="#FFFFFF" d="M39.462,36.609V15.271c0.027,0,0.054,0,0.081,0v21.339C39.516,36.609,39.489,36.609,39.462,36.609"/>
						<path fill="#FFFFFF" d="M39.543,36.609V15.271c0.029,0,0.06,0,0.089,0v21.339C39.603,36.609,39.572,36.609,39.543,36.609"/>
						<path fill="#FFFFFF" d="M39.632,36.609V15.271c0.029,0,0.059,0,0.088,0v21.339C39.69,36.609,39.661,36.609,39.632,36.609"/>
						<path fill="#FFFFFF" d="M39.72,36.609V15.271c0.033,0,0.065,0,0.099,0v21.339C39.785,36.609,39.753,36.609,39.72,36.609"/>
						<path fill="#FAFAFA" d="M39.818,36.609V15.271c0.04,0,0.079,0,0.119,0v21.339C39.897,36.609,39.858,36.609,39.818,36.609"/>
						<path fill="#F5F5F5" d="M39.938,36.609V15.271c0.042,0,0.083,0,0.124,0v21.339C40.021,36.609,39.979,36.609,39.938,36.609"/>
						<path fill="#F0F0F0" d="M40.062,36.609V15.271c0.053,0,0.105,0,0.156,0v21.339C40.167,36.609,40.114,36.609,40.062,36.609"/>
						<path fill="#EBEBEB" d="M40.218,36.609V15.271c0.057,0,0.112,0,0.166,0v21.339C40.33,36.609,40.274,36.609,40.218,36.609"/>
						<path fill="#E5E5E5" d="M40.384,36.609V15.271c0.057,0,0.112,0,0.167,0v21.339C40.496,36.609,40.44,36.609,40.384,36.609"/>
						<path fill="#E0E0E0" d="M40.551,36.609V15.271c0.054,0,0.106,0,0.156,0v21.339C40.657,36.609,40.604,36.609,40.551,36.609"/>
						<path fill="#DBDBDB" d="M40.707,36.609V15.271c0.048,0,0.093,0,0.137,0v21.339C40.8,36.609,40.755,36.609,40.707,36.609"/>
						<path fill="#D6D6D6" d="M40.844,36.609V15.271c0.043,0,0.083,0,0.123,0v21.339C40.927,36.609,40.887,36.609,40.844,36.609"/>
						<path fill="#D1D1D1" d="M40.967,36.609V15.271c0.038,0,0.074,0,0.11,0v21.339C41.041,36.609,41.005,36.609,40.967,36.609"/>
						<path fill="#CCCCCC" d="M41.077,36.609V15.271c0.033,0,0.065,0,0.096,0v21.339C41.143,36.609,41.11,36.609,41.077,36.609"/>
						<path fill="#C7C7C7" d="M41.173,36.609V15.271c0.03,0,0.06,0,0.088,0v21.339C41.232,36.609,41.203,36.609,41.173,36.609"/>
						<path fill="#C2C2C2" d="M41.261,36.609V15.271c0.027,0,0.053,0,0.078,0v21.339C41.313,36.609,41.288,36.609,41.261,36.609"/>
						<path fill="#BDBDBD" d="M41.339,36.609V15.271c0.024,0,0.047,0,0.069,0v21.339C41.386,36.609,41.363,36.609,41.339,36.609"/>
						<path fill="#B8B8B8" d="M41.408,36.609V15.271c0.021,0,0.042,0,0.062,0v21.339C41.45,36.609,41.43,36.609,41.408,36.609"/>
						<path fill="#B2B2B2" d="M41.47,36.609V15.271c0.02,0,0.037,0,0.054,0v21.339C41.507,36.609,41.489,36.609,41.47,36.609"/>
						<path fill="#ADADAD" d="M41.523,36.609V15.271c0.018,0,0.033,0,0.047,0v21.339C41.557,36.609,41.541,36.609,41.523,36.609"/>
						<path fill="#A8A8A8" d="M41.57,36.609V15.271c0.015,0,0.027,0,0.038,0v21.339C41.598,36.609,41.585,36.609,41.57,36.609"/>
						<path fill="#A3A3A3" d="M41.608,36.609V15.271c0.012,0,0.022,0,0.03,0v21.339C41.631,36.609,41.62,36.609,41.608,36.609"/>
						<path fill="#9E9E9E" d="M41.639,36.609V15.271c0.009,0,0.016,0,0.021,0v21.339C41.654,36.609,41.647,36.609,41.639,36.609"/>
						<polyline fill="#999999" points="41.659,36.609 41.659,15.271 41.668,15.271 41.668,36.609 41.659,36.609 						"/>
						<polyline fill="#949494" points="41.668,36.609 41.668,15.271 41.668,15.271 41.668,36.609 41.668,36.609 						"/>
					</g>
				</g>
				<g enable-background="new    ">
					<defs>
						<path id="SVGID_5_" enable-background="new    " d="M37.668,36.609c2.21,0,4,0,4,0c0,2.943-2.457,5.328-5.489,5.328
							c0,0,0-1.79,0-4C37.04,37.936,37.675,37.297,37.668,36.609z"/>
					</defs>
					<clipPath id="SVGID_6_">
						<use xlink:href="#SVGID_5_"  overflow="visible"/>
					</clipPath>
					<g clip-path="url(#SVGID_6_)" enable-background="new    ">
						<path fill="#FFFFFF" d="M37.668,36.609c2.21,0,4,0,4,0c0,2.943-2.457,5.328-5.489,5.328c0,0,0-1.79,0-4
							C37.04,37.936,37.675,37.297,37.668,36.609"/>
						<path fill="#FFFFFF" d="M36.179,37.938c0.861-0.002,1.496-0.641,1.489-1.328c0.244,0,0.483,0,0.716,0
							c0.027,0.018,0.063,0.04,0.09,0.057c0.075,0.016,0.251,0.053,0.396-0.057c1.623,0,2.799,0,2.799,0
							c0,2.943-2.457,5.328-5.489,5.328C36.179,41.938,36.179,40.147,36.179,37.938"/>
						<path fill="#FFFFFF" d="M36.179,37.938c0.861-0.002,1.496-0.641,1.489-1.328c0.206,0,0.409,0,0.606,0
							c0.021,0.022,0.048,0.053,0.067,0.075c0.088,0.055,0.355,0.219,0.643-0.075c1.563,0,2.684,0,2.684,0
							c0,2.943-2.457,5.328-5.489,5.328C36.179,41.938,36.179,40.147,36.179,37.938"/>
						<path fill="#FFFFFF" d="M36.179,37.938c0.861-0.002,1.496-0.641,1.489-1.328c0.176,0,0.349,0,0.519,0
							c0.007,0.013,0.017,0.029,0.024,0.041c0.12,0.147,0.372,0.452,0.865-0.041c1.515,0,2.592,0,2.592,0
							c0,2.943-2.457,5.328-5.489,5.328C36.179,41.938,36.179,40.147,36.179,37.938"/>
						<path fill="#FFFFFF" d="M36.179,37.938c0.861-0.002,1.496-0.641,1.489-1.328c0.149,0,0.297,0,0.442,0
							c0.015,0.027,0.033,0.063,0.048,0.09c0.271,0.507,0.748,0.225,1.001-0.09c1.471,0,2.509,0,2.509,0
							c0,2.943-2.457,5.328-5.489,5.328C36.179,41.938,36.179,40.147,36.179,37.938"/>
						<path fill="#FFFFFF" d="M36.179,37.938c0.861-0.002,1.496-0.641,1.489-1.328c0.126,0,0.25,0,0.372,0
							c0.01,0.025,0.022,0.06,0.032,0.086c0.401,0.908,1.158-0.075,1.166-0.086c1.429,0,2.43,0,2.43,0
							c0,2.943-2.457,5.328-5.489,5.328C36.179,41.938,36.179,40.147,36.179,37.938"/>
						<path fill="#FFFFFF" d="M36.179,37.938c0.861-0.002,1.496-0.641,1.489-1.328c0.103,0,0.205,0,0.306,0
							c0.008,0.024,0.018,0.058,0.025,0.082c0.272,0.952,1.059,0.273,1.314-0.082c1.389,0,2.354,0,2.354,0
							c0,2.943-2.457,5.328-5.489,5.328C36.179,41.938,36.179,40.147,36.179,37.938"/>
						<path fill="#FFFFFF" d="M36.179,37.938c0.861-0.002,1.496-0.641,1.489-1.328c0.081,0,0.161,0,0.241,0
							c0.006,0.023,0.013,0.055,0.019,0.078c0.229,1.281,1.321,0.139,1.415-0.005c0.015-0.021,0.032-0.051,0.046-0.073
							c1.348,0,2.279,0,2.279,0c0,2.943-2.457,5.328-5.489,5.328C36.179,41.938,36.179,40.147,36.179,37.938"/>
						<path fill="#FFFFFF" d="M36.179,37.938c0.861-0.002,1.496-0.641,1.489-1.328c0.061,0,0.12,0,0.18,0
							c0.004,0.022,0.009,0.052,0.013,0.074c0.179,1.57,1.464,0.142,1.477,0.125c0.054-0.069,0.125-0.198,0.126-0.199
							c1.308,0,2.205,0,2.205,0c0,2.943-2.457,5.328-5.489,5.328C36.179,41.938,36.179,40.147,36.179,37.938"/>
						<path fill="#FFFFFF" d="M36.179,37.938c0.861-0.002,1.496-0.641,1.489-1.328c0.039,0,0.078,0,0.117,0
							c0.003,0.021,0.005,0.05,0.008,0.071c0.032,0.755,0.032,0.755,0.332,0.805c0.026,0.004,0.632,0.097,1.201-0.549
							c0.081-0.093,0.109-0.142,0.217-0.327c1.265,0,2.125,0,2.125,0c0,2.943-2.457,5.328-5.489,5.328
							C36.179,41.938,36.179,40.147,36.179,37.938"/>
						<path fill="#FFFFFF" d="M36.179,37.938c0.861-0.002,1.496-0.641,1.489-1.328c0.019,0,0.037,0,0.056,0
							c0.001,0.021,0.002,0.047,0.003,0.067c-0.004,0.24-0.124,0.469-0.075,0.715c0.014,0.068,0.046,0.146,0.257,0.198
							c0.283,0.069,0.914-0.011,1.399-0.522c0.172-0.182,0.264-0.354,0.319-0.458c1.218,0,2.041,0,2.041,0
							c0,2.943-2.457,5.328-5.489,5.328C36.179,41.938,36.179,40.147,36.179,37.938"/>
						<path fill="#FFFFFF" d="M36.179,37.944c0.017-0.018,0.057-0.001,0.08-0.002c0.002,0,0.189-0.006,0.381-0.06
							c0.169-0.048,0.22-0.074,0.466-0.2c0.311-0.159,0.601,0.062,0.903,0.046c0.436-0.021,1.236-0.195,1.708-1.119
							c1.169,0,1.951,0,1.951,0c0,2.943-2.457,5.328-5.489,5.328C36.179,41.938,36.179,40.15,36.179,37.944"/>
						<path fill="#FAFAFA" d="M36.179,38.021c0.107-0.105,0.222,0,0.332-0.011l1.642-0.183c0.424-0.063,1.205-0.305,1.664-1.218
							c1.113,0,1.852,0,1.852,0c0,2.943-2.457,5.328-5.489,5.328C36.179,41.938,36.179,40.191,36.179,38.021"/>
						<path fill="#F5F5F5" d="M36.179,38.096c0.119-0.11,0.233,0.013,0.351,0.006c0.241-0.015,0.481-0.05,0.722-0.072
							c1.058-0.098,2.056-0.189,2.68-1.42c1.049,0,1.737,0,1.737,0c0,2.943-2.457,5.328-5.489,5.328
							C36.179,41.938,36.179,40.232,36.179,38.096"/>
						<path fill="#F0F0F0" d="M36.179,38.173c0.021-0.019,0.064,0.007,0.093,0.01c0.257,0.027,0.657-0.006,0.949-0.03
							c0.947-0.078,2.127-0.177,2.842-1.543c0.975,0,1.605,0,1.605,0c0,2.943-2.457,5.328-5.489,5.328
							C36.179,41.938,36.179,40.273,36.179,38.173"/>
						<path fill="#EBEBEB" d="M36.179,38.253c0.022-0.02,0.067,0.009,0.097,0.013c0.229,0.032,1.596,0.057,2.446-0.29
							c0.665-0.271,1.181-0.743,1.492-1.366c0.889,0,1.454,0,1.454,0c0,2.943-2.457,5.328-5.489,5.328
							C36.179,41.938,36.179,40.314,36.179,38.253"/>
						<path fill="#E5E5E5" d="M36.179,38.334c0.016-0.013,0.048,0.008,0.068,0.012c0.305,0.049,3.013,0.415,4.137-1.736
							c0.79,0,1.284,0,1.284,0c0,2.943-2.457,5.328-5.489,5.328C36.179,41.938,36.179,40.357,36.179,38.334"/>
						<path fill="#E0E0E0" d="M36.179,38.423c0.024-0.021,0.074,0.013,0.105,0.019s3.169,0.496,4.269-1.832c0.69,0,1.115,0,1.115,0
							c0,2.943-2.457,5.328-5.489,5.328C36.179,41.938,36.179,40.403,36.179,38.423"/>
						<path fill="#DBDBDB" d="M36.179,38.516c0.026-0.021,0.077,0.016,0.11,0.022c1.052,0.215,3.625,0.027,4.419-1.929
							c0.599,0,0.96,0,0.96,0c0,2.943-2.457,5.328-5.489,5.328C36.179,41.938,36.179,40.451,36.179,38.516"/>
						<path fill="#D6D6D6" d="M36.179,38.614c0.056-0.044,0.162,0.035,0.232,0.046c0.092,0.014,0.186,0.022,0.277,0.03
							c1.669,0.148,3.602-0.438,4.158-2.081c0.516,0,0.821,0,0.821,0c0,2.943-2.457,5.328-5.489,5.328
							C36.179,41.938,36.179,40.502,36.179,38.614"/>
						<path fill="#D1D1D1" d="M36.179,38.725c0.092-0.073,0.162,0.037,0.244,0.05c0.104,0.017,0.208,0.028,0.313,0.038
							c0.153,0.016,0.37,0.031,0.693,0.024c1.062-0.026,2.933-0.35,3.54-2.228c0.441,0,0.699,0,0.699,0
							c0,2.943-2.457,5.328-5.489,5.328C36.179,41.938,36.179,40.558,36.179,38.725"/>
						<path fill="#CCCCCC" d="M36.179,38.846c0.026-0.021,0.077,0.018,0.11,0.025c1.291,0.293,4.159,0.125,4.788-2.262
							c0.375,0,0.591,0,0.591,0c0,2.943-2.457,5.328-5.489,5.328C36.179,41.938,36.179,40.617,36.179,38.846"/>
						<path fill="#C7C7C7" d="M36.179,38.978c0.022-0.018,0.064,0.016,0.093,0.021c0.04,0.01,4.065,0.876,4.902-2.39
							c0.315,0,0.494,0,0.494,0c0,2.943-2.457,5.328-5.489,5.328C36.179,41.938,36.179,40.683,36.179,38.978"/>
						<path fill="#C2C2C2" d="M36.179,39.12c0.007-0.005,0.02,0.005,0.027,0.007c1.675,0.429,4.528,0.125,5.055-2.518
							c0.261,0,0.407,0,0.407,0c0,2.943-2.457,5.328-5.489,5.328C36.179,41.938,36.179,40.752,36.179,39.12"/>
						<path fill="#BDBDBD" d="M36.179,39.273c0.036-0.029,0.104,0.026,0.149,0.037c1.655,0.418,4.479,0.054,5.011-2.701
							c0.212,0,0.329,0,0.329,0c0,2.943-2.457,5.328-5.489,5.328C36.179,41.938,36.179,40.826,36.179,39.273"/>
						<path fill="#B8B8B8" d="M36.179,39.433c0.038-0.03,0.11,0.027,0.158,0.039c2.21,0.551,4.711-0.369,5.071-2.862
							c0.168,0,0.26,0,0.26,0c0,2.943-2.457,5.328-5.489,5.328C36.179,41.938,36.179,40.901,36.179,39.433"/>
						<path fill="#B2B2B2" d="M36.179,39.595c0.017-0.013,0.049,0.013,0.069,0.018c2.276,0.591,4.853-0.371,5.222-3.003
							c0.129,0,0.198,0,0.198,0c0,2.943-2.457,5.328-5.489,5.328C36.179,41.938,36.179,40.977,36.179,39.595"/>
						<path fill="#ADADAD" d="M36.179,39.759c0.042-0.033,0.122,0.03,0.175,0.043c1.915,0.47,4.786-0.21,5.17-3.192
							c0.095,0,0.145,0,0.145,0c0,2.943-2.457,5.328-5.489,5.328C36.179,41.938,36.179,41.053,36.179,39.759"/>
						<path fill="#A8A8A8" d="M36.179,39.924c0.03-0.024,0.088,0.021,0.126,0.03c2.325,0.573,4.999-0.543,5.266-3.345
							c0.063,0,0.098,0,0.098,0c0,2.943-2.457,5.328-5.489,5.328C36.179,41.938,36.179,41.127,36.179,39.924"/>
						<path fill="#A3A3A3" d="M36.179,40.09c0.046-0.037,0.134,0.031,0.191,0.045c2.002,0.469,4.951-0.314,5.238-3.525
							c0.039,0,0.06,0,0.06,0c0,2.943-2.457,5.328-5.489,5.328C36.179,41.938,36.179,41.201,36.179,40.09"/>
						<path fill="#9E9E9E" d="M36.179,40.257c0.021-0.017,0.063,0.015,0.089,0.021c2.445,0.579,5.194-0.658,5.371-3.669
							c0.02,0,0.029,0,0.029,0c0,2.943-2.457,5.328-5.489,5.328C36.179,41.938,36.179,41.274,36.179,40.257"/>
						<path fill="#999999" d="M36.179,40.429c0.05-0.04,0.146,0.031,0.209,0.045c2.443,0.523,5.209-0.935,5.271-3.864
							c0.009,2.943-2.448,5.328-5.48,5.328C36.179,41.938,36.179,41.349,36.179,40.429"/>
						<path fill="#949494" d="M36.179,40.605c0.052-0.042,0.152,0.031,0.218,0.045c2.06,0.423,5.16-0.568,5.271-4.041
							c0,2.943-2.457,5.328-5.489,5.328C36.179,41.938,36.179,41.423,36.179,40.605"/>
						<path fill="#8F8F8F" d="M36.179,40.791c0.054-0.045,0.159,0.03,0.227,0.043c2.247,0.433,4.813-0.774,5.218-3.541
							c-0.346,2.62-2.65,4.645-5.444,4.645C36.179,41.938,36.179,41.5,36.179,40.791"/>
						<path fill="#8A8A8A" d="M36.179,40.991c0.039-0.032,0.115,0.021,0.165,0.03c1.976,0.358,4.365-0.536,5.111-2.938
							c-0.658,2.227-2.771,3.854-5.276,3.854C36.179,41.938,36.179,41.582,36.179,40.991"/>
						<path fill="#858585" d="M36.179,41.223c0.041-0.035,0.125,0.021,0.178,0.028c0.332,0.053,3.278,0.436,4.748-2.287
							c-0.896,1.762-2.765,2.974-4.926,2.974C36.179,41.938,36.179,41.674,36.179,41.223"/>
					</g>
				</g>
				<g enable-background="new    ">
					<defs>
						<path id="SVGID_7_" enable-background="new    " d="M36.179,37.938c0,2.21,0,4,0,4H15.154c0,0,0-1.79,0-4H36.179z"/>
					</defs>
					<clipPath id="SVGID_8_">
						<use xlink:href="#SVGID_7_"  overflow="visible"/>
					</clipPath>
					<g clip-path="url(#SVGID_8_)" enable-background="new    ">
						<polyline fill="#FFFFFF" points="15.154,37.938 36.179,37.938 36.179,37.944 15.154,37.944 15.154,37.938 						"/>
						<path fill="#FFFFFF" d="M15.154,37.944h21.024c0,0.026,0,0.052,0,0.077H15.154C15.154,37.996,15.154,37.971,15.154,37.944"/>
						<path fill="#FAFAFA" d="M15.154,38.021h21.024c0,0.026,0,0.052,0,0.077H15.154C15.154,38.073,15.154,38.048,15.154,38.021"/>
						<path fill="#F5F5F5" d="M15.154,38.099h21.024c0,0.025,0,0.052,0,0.077H15.154C15.154,38.15,15.154,38.124,15.154,38.099"/>
						<path fill="#F0F0F0" d="M15.154,38.176h21.024c0,0.025,0,0.051,0,0.076H15.154C15.154,38.227,15.154,38.201,15.154,38.176"/>
						<path fill="#EBEBEB" d="M15.154,38.252h21.024c0,0.029,0,0.059,0,0.088H15.154C15.154,38.311,15.154,38.281,15.154,38.252"/>
						<path fill="#E5E5E5" d="M15.154,38.34h21.024c0,0.03,0,0.061,0,0.091H15.154C15.154,38.4,15.154,38.37,15.154,38.34"/>
						<path fill="#E0E0E0" d="M15.154,38.431h21.024c0,0.03,0,0.061,0,0.09H15.154C15.154,38.491,15.154,38.461,15.154,38.431"/>
						<path fill="#DBDBDB" d="M15.154,38.521h21.024c0,0.032,0,0.064,0,0.097H15.154C15.154,38.585,15.154,38.553,15.154,38.521"/>
						<path fill="#D6D6D6" d="M15.154,38.617h21.024c0,0.039,0,0.078,0,0.117H15.154C15.154,38.695,15.154,38.656,15.154,38.617"/>
						<path fill="#D1D1D1" d="M15.154,38.734h21.024c0,0.038,0,0.077,0,0.115H15.154C15.154,38.812,15.154,38.772,15.154,38.734"/>
						<path fill="#CCCCCC" d="M15.154,38.85h21.024c0,0.044,0,0.088,0,0.132H15.154C15.154,38.938,15.154,38.894,15.154,38.85"/>
						<path fill="#C7C7C7" d="M15.154,38.981h21.024c0,0.048,0,0.096,0,0.143H15.154C15.154,39.077,15.154,39.029,15.154,38.981"/>
						<path fill="#C2C2C2" d="M15.154,39.124h21.024c0,0.051,0,0.101,0,0.15H15.154C15.154,39.225,15.154,39.175,15.154,39.124"/>
						<path fill="#BDBDBD" d="M15.154,39.274h21.024c0,0.054,0,0.106,0,0.159H15.154C15.154,39.381,15.154,39.328,15.154,39.274"/>
						<path fill="#B8B8B8" d="M15.154,39.434h21.024c0,0.055,0,0.108,0,0.162H15.154C15.154,39.542,15.154,39.488,15.154,39.434"/>
						<path fill="#B2B2B2" d="M15.154,39.596h21.024c0,0.055,0,0.109,0,0.163H15.154C15.154,39.705,15.154,39.65,15.154,39.596"/>
						<path fill="#ADADAD" d="M15.154,39.759h21.024c0,0.056,0,0.111,0,0.166H15.154C15.154,39.87,15.154,39.814,15.154,39.759"/>
						<path fill="#A8A8A8" d="M15.154,39.925h21.024c0,0.056,0,0.111,0,0.165H15.154C15.154,40.036,15.154,39.98,15.154,39.925"/>
						<path fill="#A3A3A3" d="M15.154,40.09h21.024c0,0.058,0,0.113,0,0.168H15.154C15.154,40.203,15.154,40.147,15.154,40.09"/>
						<path fill="#9E9E9E" d="M15.154,40.258h21.024c0,0.059,0,0.117,0,0.173H15.154C15.154,40.375,15.154,40.316,15.154,40.258"/>
						<path fill="#999999" d="M15.154,40.431h21.024c0,0.061,0,0.119,0,0.177H15.154C15.154,40.55,15.154,40.491,15.154,40.431"/>
						<path fill="#949494" d="M15.154,40.607h21.024c0,0.063,0,0.125,0,0.185H15.154C15.154,40.732,15.154,40.671,15.154,40.607"/>
						<path fill="#8F8F8F" d="M15.154,40.792h21.024c0,0.069,0,0.136,0,0.2H15.154C15.154,40.928,15.154,40.861,15.154,40.792"/>
						<path fill="#8A8A8A" d="M15.154,40.992h21.024c0,0.084,0,0.162,0,0.236H15.154C15.154,41.154,15.154,41.076,15.154,40.992"/>
						<path fill="#858585" d="M15.154,41.229h21.024c0,0.447,0,0.709,0,0.709H15.154C15.154,41.938,15.154,41.676,15.154,41.229"/>
					</g>
				</g>
				<g enable-background="new    ">
					<defs>
						<path id="SVGID_9_" enable-background="new    " d="M15.154,37.938c0,2.21,0,4,0,4c-3.033,0-5.49-2.385-5.49-5.328
							c0,0,1.791,0,4,0C13.657,37.297,14.292,37.936,15.154,37.938z"/>
					</defs>
					<clipPath id="SVGID_10_">
						<use xlink:href="#SVGID_9_"  overflow="visible"/>
					</clipPath>
					<g clip-path="url(#SVGID_10_)" enable-background="new    ">
						<path fill="#FFFFFF" d="M15.154,37.938c0,2.21,0,4,0,4c-3.033,0-5.49-2.385-5.49-5.328c0,0,1.791,0,4,0
							C13.657,37.297,14.292,37.936,15.154,37.938"/>
						<path fill="#FFFFFF" d="M13.658,36.609c0.014,0.014,0.001,0.045,0.001,0.064c0.006,0.296,0.175,0.641,0.42,0.859
							c0.394,0.353,0.802,0.403,1.074,0.411c0,2.206,0,3.993,0,3.993c-3.033,0-5.49-2.385-5.49-5.328
							C9.664,36.609,11.451,36.609,13.658,36.609"/>
						<path fill="#FAFAFA" d="M13.593,36.609c0.015,0.014,0.002,0.048,0.003,0.068c0.011,0.254,0.154,0.63,0.447,0.894
							c0.311,0.281,0.664,0.423,1.112,0.447c0,2.173,0,3.919,0,3.919c-3.033,0-5.49-2.385-5.49-5.328
							C9.664,36.609,11.416,36.609,13.593,36.609"/>
						<path fill="#F5F5F5" d="M13.527,36.609c0.016,0.015,0.003,0.05,0.005,0.071c0.012,0.183,0.125,0.611,0.473,0.929
							c0.316,0.289,0.692,0.447,1.149,0.484c0,2.138,0,3.844,0,3.844c-3.033,0-5.49-2.385-5.49-5.328
							C9.664,36.609,11.381,36.609,13.527,36.609"/>
						<path fill="#F0F0F0" d="M13.458,36.609c0.017,0.016,0.005,0.053,0.007,0.075c0.047,0.53,0.536,1.364,1.69,1.487
							c0,2.101,0,3.766,0,3.766c-3.033,0-5.49-2.385-5.49-5.328C9.664,36.609,11.344,36.609,13.458,36.609"/>
						<path fill="#EBEBEB" d="M13.388,36.609c0.018,0.016,0.006,0.055,0.009,0.078c0.052,0.468,0.486,1.396,1.758,1.563
							c0,2.063,0,3.687,0,3.687c-3.033,0-5.49-2.385-5.49-5.328C9.664,36.609,11.307,36.609,13.388,36.609"/>
						<path fill="#E5E5E5" d="M13.311,36.609c0.019,0.017,0.007,0.058,0.01,0.082c0.07,0.564,0.616,1.467,1.833,1.642
							c0,2.023,0,3.604,0,3.604c-3.033,0-5.49-2.385-5.49-5.328C9.664,36.609,11.267,36.609,13.311,36.609"/>
						<path fill="#E0E0E0" d="M13.232,36.609c0.02,0.018,0.009,0.061,0.013,0.086c0.103,0.7,0.744,1.539,1.909,1.726
							c0,1.981,0,3.517,0,3.517c-3.033,0-5.49-2.385-5.49-5.328C9.664,36.609,11.226,36.609,13.232,36.609"/>
						<path fill="#DBDBDB" d="M13.146,36.609c0.021,0.018,0.01,0.063,0.014,0.091c0.081,0.518,0.601,1.563,1.994,1.813
							c0,1.937,0,3.424,0,3.424c-3.033,0-5.49-2.385-5.49-5.328C9.664,36.609,11.182,36.609,13.146,36.609"/>
						<path fill="#D6D6D6" d="M13.053,36.609c0.022,0.019,0.012,0.066,0.017,0.096c0.001,0.007,0.134,0.688,0.656,1.187
							c0.094,0.09,0.315,0.301,0.708,0.489c0.229,0.11,0.492,0.118,0.721,0.232c0,1.888,0,3.324,0,3.324
							c-3.033,0-5.49-2.385-5.49-5.328C9.664,36.609,11.133,36.609,13.053,36.609"/>
						<path fill="#D1D1D1" d="M12.952,36.609c0.024,0.02,0.014,0.07,0.02,0.101c0.161,0.817,0.897,1.756,2.183,2.014
							c0,1.833,0,3.214,0,3.214c-3.033,0-5.49-2.385-5.49-5.328C9.664,36.609,11.082,36.609,12.952,36.609"/>
						<path fill="#CCCCCC" d="M12.841,36.609c0.021,0.017,0.013,0.06,0.018,0.085c0.167,0.799,0.869,1.841,2.295,2.149
							c0,1.773,0,3.094,0,3.094c-3.033,0-5.49-2.385-5.49-5.328C9.664,36.609,11.026,36.609,12.841,36.609"/>
						<path fill="#C7C7C7" d="M12.719,36.609c0.011,0.009,0.007,0.032,0.01,0.046c0.191,0.893,0.929,1.972,2.426,2.32
							c0,1.706,0,2.962,0,2.962c-3.033,0-5.49-2.385-5.49-5.328C9.664,36.609,10.966,36.609,12.719,36.609"/>
						<path fill="#C2C2C2" d="M12.584,36.609c0.018,0.014,0.012,0.051,0.017,0.072c0.104,0.45,0.597,1.954,2.553,2.437
							c0,1.633,0,2.819,0,2.819c-3.033,0-5.49-2.385-5.49-5.328C9.664,36.609,10.899,36.609,12.584,36.609"/>
						<path fill="#BDBDBD" d="M12.44,36.609c0.031,0.024,0.022,0.089,0.032,0.127c0.116,0.463,0.653,2.016,2.682,2.535
							c0,1.554,0,2.666,0,2.666c-3.033,0-5.49-2.385-5.49-5.328C9.664,36.609,10.83,36.609,12.44,36.609"/>
						<path fill="#B8B8B8" d="M12.29,36.609c0.033,0.025,0.024,0.095,0.035,0.135c0.123,0.484,0.692,2.108,2.83,2.687
							c0,1.47,0,2.507,0,2.507c-3.033,0-5.49-2.385-5.49-5.328C9.664,36.609,10.757,36.609,12.29,36.609"/>
						<path fill="#B2B2B2" d="M12.134,36.609c0.035,0.027,0.025,0.1,0.036,0.143c0.13,0.513,0.731,2.231,2.984,2.842
							c0,1.383,0,2.344,0,2.344c-3.033,0-5.49-2.385-5.49-5.328C9.664,36.609,10.684,36.609,12.134,36.609"/>
						<path fill="#ADADAD" d="M11.976,36.609c0.013,0.01,0.009,0.037,0.013,0.053c0.135,0.567,0.763,2.465,3.166,3.096
							c0,1.294,0,2.18,0,2.18c-3.033,0-5.49-2.385-5.49-5.328C9.664,36.609,10.61,36.609,11.976,36.609"/>
						<path fill="#A8A8A8" d="M11.815,36.609c0.039,0.03,0.028,0.111,0.04,0.159c0.144,0.573,0.807,2.493,3.299,3.153
							c0,1.205,0,2.016,0,2.016c-3.033,0-5.49-2.385-5.49-5.328C9.664,36.609,10.537,36.609,11.815,36.609"/>
						<path fill="#A3A3A3" d="M11.653,36.609c0.041,0.032,0.028,0.117,0.041,0.168c0.293,1.205,1.375,2.795,3.46,3.311
							c0,1.112,0,1.85,0,1.85c-3.033,0-5.49-2.385-5.49-5.328C9.664,36.609,10.463,36.609,11.653,36.609"/>
						<path fill="#9E9E9E" d="M11.487,36.609c0.043,0.033,0.03,0.123,0.042,0.177c0.109,0.455,0.797,2.761,3.625,3.471
							c0,1.018,0,1.681,0,1.681c-3.033,0-5.49-2.385-5.49-5.328C9.664,36.609,10.39,36.609,11.487,36.609"/>
						<path fill="#999999" d="M11.318,36.609c0.045,0.035,0.03,0.13,0.042,0.186c0.066,0.293,0.739,2.883,3.794,3.633
							c0,0.92,0,1.51,0,1.51c-3.033,0-5.49-2.385-5.49-5.328C9.664,36.609,10.316,36.609,11.318,36.609"/>
						<path fill="#949494" d="M11.141,36.609c0.046,0.037,0.03,0.137,0.042,0.194c0.249,1.139,1.365,3.22,3.971,3.801
							c0,0.818,0,1.333,0,1.333c-3.033,0-5.49-2.385-5.49-5.328C9.664,36.609,10.24,36.609,11.141,36.609"/>
						<path fill="#8F8F8F" d="M10.954,36.609c0.049,0.039,0.03,0.144,0.042,0.205c0.325,1.563,1.765,3.475,4.158,3.976
							c0,0.71,0,1.147,0,1.147c-3.033,0-5.49-2.385-5.49-5.328C9.664,36.609,10.161,36.609,10.954,36.609"/>
						<path fill="#8A8A8A" d="M10.75,36.609c0.05,0.042,0.028,0.15,0.041,0.216c0.224,1.178,1.424,3.564,4.363,4.166
							c0,0.591,0,0.946,0,0.946c-3.033,0-5.49-2.385-5.49-5.328C9.664,36.609,10.077,36.609,10.75,36.609"/>
						<path fill="#858585" d="M10.51,36.609c0.053,0.045,0.027,0.16,0.039,0.229c0.215,1.261,1.455,3.8,4.605,4.385
							c0,0.451,0,0.715,0,0.715c-3.033,0-5.49-2.385-5.49-5.328C9.664,36.609,9.98,36.609,10.51,36.609"/>
					</g>
				</g>
				<g enable-background="new    ">
					<defs>
						<path id="SVGID_11_" enable-background="new    " d="M13.664,36.609c-2.209,0-4,0-4,0V15.271c0,0,1.791,0,4,0V36.609z"/>
					</defs>
					<clipPath id="SVGID_12_">
						<use xlink:href="#SVGID_11_"  overflow="visible"/>
					</clipPath>
					<g clip-path="url(#SVGID_12_)" enable-background="new    ">
						<polyline fill="#FFFFFF" points="13.664,15.271 13.664,36.609 13.658,36.609 13.658,15.271 13.664,15.271 						"/>
						<path fill="#FFFFFF" d="M13.658,15.271v21.339c-0.023,0-0.046,0-0.069,0V15.271C13.612,15.271,13.635,15.271,13.658,15.271"/>
						<path fill="#FAFAFA" d="M13.589,15.271v21.339c-0.023,0-0.046,0-0.068,0V15.271C13.543,15.271,13.566,15.271,13.589,15.271"/>
						<path fill="#F5F5F5" d="M13.521,15.271v21.339c-0.023,0-0.045,0-0.068,0V15.271C13.476,15.271,13.498,15.271,13.521,15.271"/>
						<path fill="#F0F0F0" d="M13.453,15.271v21.339c-0.022,0-0.045,0-0.068,0V15.271C13.407,15.271,13.43,15.271,13.453,15.271"/>
						<path fill="#EBEBEB" d="M13.385,15.271v21.339c-0.024,0-0.049,0-0.073,0V15.271C13.336,15.271,13.36,15.271,13.385,15.271"/>
						<path fill="#E5E5E5" d="M13.312,15.271v21.339c-0.029,0-0.058,0-0.087,0V15.271C13.253,15.271,13.283,15.271,13.312,15.271"/>
						<path fill="#E0E0E0" d="M13.225,15.271v21.339c-0.029,0-0.058,0-0.087,0V15.271C13.167,15.271,13.195,15.271,13.225,15.271"/>
						<path fill="#DBDBDB" d="M13.138,15.271v21.339c-0.029,0-0.058,0-0.086,0V15.271C13.08,15.271,13.109,15.271,13.138,15.271"/>
						<path fill="#D6D6D6" d="M13.052,15.271v21.339c-0.035,0-0.069,0-0.104,0V15.271C12.982,15.271,13.017,15.271,13.052,15.271"/>
						<path fill="#D1D1D1" d="M12.948,15.271v21.339c-0.039,0-0.077,0-0.115,0V15.271C12.871,15.271,12.91,15.271,12.948,15.271"/>
						<path fill="#CCCCCC" d="M12.833,15.271v21.339c-0.038,0-0.076,0-0.114,0V15.271C12.757,15.271,12.795,15.271,12.833,15.271"/>
						<path fill="#C7C7C7" d="M12.719,15.271v21.339c-0.046,0-0.092,0-0.138,0V15.271C12.626,15.271,12.672,15.271,12.719,15.271"/>
						<path fill="#C2C2C2" d="M12.581,15.271v21.339c-0.047,0-0.094,0-0.14,0V15.271C12.487,15.271,12.534,15.271,12.581,15.271"/>
						<path fill="#BDBDBD" d="M12.44,15.271v21.339c-0.051,0-0.102,0-0.151,0V15.271C12.339,15.271,12.39,15.271,12.44,15.271"/>
						<path fill="#B8B8B8" d="M12.289,15.271v21.339c-0.052,0-0.103,0-0.154,0V15.271C12.186,15.271,12.237,15.271,12.289,15.271"/>
						<path fill="#B2B2B2" d="M12.135,15.271v21.339c-0.054,0-0.107,0-0.16,0V15.271C12.028,15.271,12.082,15.271,12.135,15.271"/>
						<path fill="#ADADAD" d="M11.976,15.271v21.339c-0.054,0-0.106,0-0.159,0V15.271C11.869,15.271,11.922,15.271,11.976,15.271"/>
						<path fill="#A8A8A8" d="M11.817,15.271v21.339c-0.056,0-0.11,0-0.165,0V15.271C11.707,15.271,11.761,15.271,11.817,15.271"/>
						<path fill="#A3A3A3" d="M11.652,15.271v21.339c-0.056,0-0.111,0-0.166,0V15.271C11.541,15.271,11.596,15.271,11.652,15.271"/>
						<path fill="#9E9E9E" d="M11.487,15.271v21.339c-0.057,0-0.113,0-0.168,0V15.271C11.374,15.271,11.43,15.271,11.487,15.271"/>
						<path fill="#999999" d="M11.318,15.271v21.339c-0.061,0-0.121,0-0.18,0V15.271C11.197,15.271,11.257,15.271,11.318,15.271"/>
						<path fill="#949494" d="M11.139,15.271v21.339c-0.064,0-0.127,0-0.188,0V15.271C11.012,15.271,11.074,15.271,11.139,15.271"/>
						<path fill="#8F8F8F" d="M10.95,15.271v21.339c-0.071,0-0.139,0-0.206,0V15.271C10.811,15.271,10.879,15.271,10.95,15.271"/>
						<path fill="#8A8A8A" d="M10.745,15.271v21.339c-0.084,0-0.165,0-0.241,0V15.271C10.58,15.271,10.66,15.271,10.745,15.271"/>
						<path fill="#858585" d="M10.503,15.271v21.339c-0.526,0-0.839,0-0.839,0V15.271C9.664,15.271,9.978,15.271,10.503,15.271"/>
					</g>
				</g>
				<g enable-background="new    ">
					<defs>
						<path id="SVGID_13_" enable-background="new    " d="M13.664,15.271c-2.209,0-4,0-4,0c0-2.943,2.457-5.328,5.49-5.328
							c0,0,0,1.791,0,4C14.292,13.944,13.657,14.583,13.664,15.271z"/>
					</defs>
					<clipPath id="SVGID_14_">
						<use xlink:href="#SVGID_13_"  overflow="visible"/>
					</clipPath>
					<g clip-path="url(#SVGID_14_)" enable-background="new    ">
						<path fill="#FFFFFF" d="M13.664,15.271c-2.209,0-4,0-4,0c0-2.943,2.457-5.328,5.49-5.328c0,0,0,1.791,0,4
							C14.292,13.944,13.657,14.583,13.664,15.271"/>
						<path fill="#FFFFFF" d="M15.154,12.965c-0.038,0.169-0.038,0.169,0,0.292c0,0.223,0,0.452,0,0.685
							c-0.862,0.002-1.498,0.641-1.49,1.328c-2.209,0-4,0-4,0c0-2.943,2.457-5.328,5.49-5.328
							C15.154,9.942,15.154,11.228,15.154,12.965"/>
						<path fill="#FFFFFF" d="M15.154,12.783c-0.178,0.516-0.178,0.516,0,0.643c0,0.169,0,0.342,0,0.517
							c-0.862,0.002-1.498,0.641-1.49,1.328c-2.209,0-4,0-4,0c0-2.943,2.457-5.328,5.49-5.328
							C15.154,9.942,15.154,11.139,15.154,12.783"/>
						<path fill="#FFFFFF" d="M15.154,12.662c-0.075,0.178-0.297,0.268-0.297,0.492c0,0.077,0,0.259,0.297,0.386
							c0,0.132,0,0.266,0,0.402c-0.862,0.002-1.498,0.641-1.49,1.328c-2.209,0-4,0-4,0c0-2.943,2.457-5.328,5.49-5.328
							C15.154,9.942,15.154,11.081,15.154,12.662"/>
						<path fill="#FFFFFF" d="M15.154,12.56c-0.015,0.03-0.062,0.049-0.088,0.07c-0.058,0.045-0.346,0.293-0.346,0.678
							c0,0.171,0.261,0.264,0.434,0.324c0,0.103,0,0.206,0,0.311c-0.862,0.002-1.498,0.641-1.49,1.328c-2.209,0-4,0-4,0
							c0-2.943,2.457-5.328,5.49-5.328C15.154,9.942,15.154,11.032,15.154,12.56"/>
						<path fill="#FFFFFF" d="M15.154,12.464c-0.01,0.02-0.043,0.029-0.062,0.042c-0.145,0.099-0.52,0.441-0.52,0.834
							c0,0.254,0.17,0.29,0.581,0.376c0,0.075,0,0.15,0,0.226c-0.862,0.002-1.498,0.641-1.49,1.328c-2.209,0-4,0-4,0
							c0-2.943,2.457-5.328,5.49-5.328C15.154,9.942,15.154,10.987,15.154,12.464"/>
						<path fill="#FFFFFF" d="M15.154,12.373c-0.026,0.05-0.108,0.073-0.154,0.105c-0.267,0.181-0.576,0.616-0.576,0.906
							c0,0.319,0,0.319,0.73,0.413c0,0.048,0,0.097,0,0.146c-0.862,0.002-1.498,0.641-1.49,1.328c-2.209,0-4,0-4,0
							c0-2.943,2.457-5.328,5.49-5.328C15.154,9.942,15.154,10.944,15.154,12.373"/>
						<path fill="#FFFFFF" d="M15.154,12.282c-0.027,0.049-0.111,0.07-0.159,0.1c-0.354,0.221-0.736,0.746-0.736,1.209
							c0,0.225,0.107,0.27,0.128,0.276c0.255,0.08,0.511-0.005,0.767,0.006c0,0.023,0,0.046,0,0.069
							c-0.862,0.002-1.498,0.641-1.49,1.328c-2.209,0-4,0-4,0c0-2.943,2.457-5.328,5.49-5.328
							C15.154,9.942,15.154,10.901,15.154,12.282"/>
						<path fill="#FFFFFF" d="M15.154,12.188c-0.024,0.042-0.099,0.058-0.142,0.082c-0.315,0.183-0.578,0.488-0.781,0.907
							c-0.166,0.342-0.075,0.719-0.145,1.075c-0.05,0.255-0.297,0.397-0.37,0.639c-0.005,0.019-0.013,0.043-0.019,0.062
							c-0.038,0.14-0.04,0.256-0.041,0.318c-2.207,0-3.994,0-3.994,0c0-2.943,2.457-5.328,5.49-5.328
							C15.154,9.942,15.154,10.858,15.154,12.188"/>
						<path fill="#FAFAFA" d="M15.154,12.088c-0.021,0.034-0.082,0.045-0.116,0.064c-0.286,0.158-0.665,0.5-0.866,0.911
							c-0.167,0.339-0.597,1.801-0.579,2.208c-2.177,0-3.93,0-3.93,0c0-2.943,2.457-5.328,5.49-5.328
							C15.154,9.942,15.154,10.813,15.154,12.088"/>
						<path fill="#F5F5F5" d="M15.154,11.98c-0.019,0.031-0.075,0.04-0.106,0.057c-0.198,0.106-0.692,0.423-1.017,1.079
							c-0.18,0.365-0.551,1.71-0.502,2.154c-2.147,0-3.865,0-3.865,0c0-2.943,2.457-5.328,5.49-5.328
							C15.154,9.942,15.154,10.764,15.154,11.98"/>
						<path fill="#F0F0F0" d="M15.154,11.86c-0.021,0.036-0.085,0.045-0.122,0.065c-0.324,0.172-0.783,0.522-1.127,1.215
							c-0.195,0.392-0.516,1.561-0.445,2.13c-2.115,0-3.796,0-3.796,0c0-2.943,2.457-5.328,5.49-5.328
							C15.154,9.942,15.154,10.71,15.154,11.86"/>
						<path fill="#EBEBEB" d="M15.154,11.725c-0.03,0.05-0.12,0.065-0.171,0.093c-0.221,0.119-0.778,0.482-1.172,1.275
							c-0.243,0.489-0.521,1.554-0.42,2.178c-2.082,0-3.727,0-3.727,0c0-2.943,2.457-5.328,5.49-5.328
							C15.154,9.942,15.154,10.65,15.154,11.725"/>
						<path fill="#E5E5E5" d="M15.154,11.568c-0.011,0.018-0.043,0.023-0.063,0.033c-0.786,0.421-1.185,1.051-1.353,1.388
							c-0.352,0.707-0.53,1.667-0.425,2.281c-2.046,0-3.65,0-3.65,0c0-2.943,2.457-5.328,5.49-5.328
							C15.154,9.942,15.154,10.582,15.154,11.568"/>
						<path fill="#E0E0E0" d="M15.154,11.394c-0.035,0.059-0.139,0.077-0.199,0.109c-0.311,0.169-0.938,0.662-1.318,1.432
							c-0.425,0.86-0.506,1.814-0.4,2.336c-2.009,0-3.572,0-3.572,0c0-2.943,2.457-5.328,5.49-5.328
							C15.154,9.942,15.154,10.507,15.154,11.394"/>
						<path fill="#DBDBDB" d="M15.154,11.215c-0.031,0.05-0.122,0.063-0.174,0.089c-0.45,0.23-1.064,0.785-1.419,1.504
							c-0.595,1.205-0.464,2.189-0.41,2.463c-1.967,0-3.486,0-3.486,0c0-2.943,2.457-5.328,5.49-5.328
							C15.154,9.942,15.154,10.432,15.154,11.215"/>
						<path fill="#D6D6D6" d="M15.154,11.046c-0.027,0.043-0.108,0.049-0.154,0.07c-0.228,0.104-1.015,0.526-1.563,1.63
							c-0.394,0.792-0.543,1.783-0.38,2.524c-1.921,0-3.393,0-3.393,0c0-2.943,2.457-5.328,5.49-5.328
							C15.154,9.942,15.154,10.362,15.154,11.046"/>
						<path fill="#D1D1D1" d="M15.154,10.895c-0.021,0.031-0.082,0.032-0.117,0.045c-0.788,0.307-1.366,1.009-1.645,1.564
							c-0.669,1.332-0.528,2.378-0.436,2.766c-1.872,0-3.292,0-3.292,0c0-2.943,2.457-5.328,5.49-5.328
							C15.154,9.942,15.154,10.301,15.154,10.895"/>
						<path fill="#CCCCCC" d="M15.154,10.759c-0.01,0.013-0.036,0.012-0.051,0.017c-0.552,0.182-1.326,0.623-1.875,1.697
							c-0.44,0.859-0.59,1.958-0.382,2.798c-1.817,0-3.182,0-3.182,0c0-2.943,2.457-5.328,5.49-5.328
							C15.154,9.942,15.154,10.247,15.154,10.759"/>
						<path fill="#C7C7C7" d="M15.154,10.638c-0.039,0.053-0.146,0.046-0.208,0.065c-0.438,0.139-1.259,0.539-1.852,1.667
							c-0.451,0.86-0.597,1.999-0.372,2.9c-1.755,0-3.059,0-3.059,0c0-2.943,2.457-5.328,5.49-5.328
							C15.154,9.942,15.154,10.199,15.154,10.638"/>
						<path fill="#C2C2C2" d="M15.154,10.528c-0.02,0.026-0.074,0.02-0.106,0.028c-0.504,0.132-1.444,0.528-2.077,1.698
							c-0.375,0.693-0.672,1.85-0.382,3.016c-1.687,0-2.925,0-2.925,0c0-2.943,2.457-5.328,5.49-5.328
							C15.154,9.942,15.154,10.157,15.154,10.528"/>
						<path fill="#BDBDBD" d="M15.154,10.43c-0.048,0.063-0.179,0.045-0.255,0.064c-0.784,0.198-1.587,0.827-2,1.565
							c-0.714,1.275-0.641,2.45-0.454,3.211c-1.613,0-2.781,0-2.781,0c0-2.943,2.457-5.328,5.49-5.328
							C15.154,9.942,15.154,10.119,15.154,10.43"/>
						<path fill="#B8B8B8" d="M15.154,10.341c-0.024,0.03-0.088,0.018-0.126,0.026c-0.452,0.092-1.581,0.442-2.309,1.696
							c-0.316,0.545-0.792,1.687-0.426,3.208c-1.534,0-2.629,0-2.629,0c0-2.943,2.457-5.328,5.49-5.328
							C15.154,9.942,15.154,10.085,15.154,10.341"/>
						<path fill="#B2B2B2" d="M15.154,10.261c-0.051,0.063-0.185,0.036-0.264,0.052c-0.244,0.048-1.502,0.354-2.296,1.672
							c-0.333,0.553-0.835,1.715-0.457,3.286c-1.452,0-2.474,0-2.474,0c0-2.943,2.457-5.328,5.49-5.328
							C15.154,9.942,15.154,10.056,15.154,10.261"/>
						<path fill="#ADADAD" d="M15.154,10.189c-0.027,0.031-0.095,0.014-0.135,0.021c-0.386,0.06-1.707,0.356-2.537,1.684
							c-0.431,0.689-0.868,1.835-0.503,3.377c-1.368,0-2.315,0-2.315,0c0-2.943,2.457-5.328,5.49-5.328
							C15.154,9.942,15.154,10.029,15.154,10.189"/>
						<path fill="#A8A8A8" d="M15.154,10.125c-0.054,0.063-0.19,0.028-0.271,0.04c-0.479,0.07-1.691,0.383-2.584,1.76
							c-0.277,0.427-0.877,1.608-0.48,3.345c-1.281,0-2.155,0-2.155,0c0-2.943,2.457-5.328,5.49-5.328
							C15.154,9.942,15.154,10.006,15.154,10.125"/>
						<path fill="#A3A3A3" d="M15.154,10.069c-0.034,0.038-0.117,0.013-0.167,0.019c-0.411,0.046-1.821,0.302-2.744,1.674
							c-0.669,0.995-0.883,2.274-0.587,3.509c-1.191,0-1.992,0-1.992,0c0-2.943,2.457-5.328,5.49-5.328
							C15.154,9.942,15.154,9.986,15.154,10.069"/>
						<path fill="#9E9E9E" d="M15.154,10.021c-0.056,0.063-0.194,0.02-0.277,0.028c-0.288,0.029-1.771,0.247-2.762,1.667
							c-0.484,0.694-0.986,1.874-0.625,3.554c-1.099,0-1.826,0-1.826,0c0-2.943,2.457-5.328,5.49-5.328
							C15.154,9.942,15.154,9.97,15.154,10.021"/>
						<path fill="#999999" d="M15.154,9.983c-0.057,0.062-0.196,0.016-0.279,0.022c-0.822,0.066-2.06,0.527-2.843,1.608
							c-0.524,0.722-1.072,1.943-0.711,3.657c-1.003,0-1.656,0-1.656,0c0-2.943,2.457-5.328,5.49-5.328
							C15.154,9.942,15.154,9.957,15.154,9.983"/>
						<path fill="#949494" d="M15.154,9.956c-0.043,0.046-0.147,0.008-0.21,0.011c-0.446,0.022-1.982,0.207-3.059,1.633
							c-0.44,0.583-1.122,1.835-0.742,3.671c-0.902,0-1.479,0-1.479,0c0-2.943,2.457-5.328,5.49-5.328
							C15.154,9.942,15.154,9.947,15.154,9.956"/>
						<path fill="#8F8F8F" d="M15.154,9.943c-0.043,0.044-0.145,0.004-0.206,0.005c-0.46,0.012-2.048,0.163-3.179,1.597
							c-0.459,0.583-1.176,1.842-0.814,3.725c-0.794,0-1.292,0-1.292,0C9.664,12.328,12.121,9.942,15.154,9.943
							C15.154,9.942,15.154,9.942,15.154,9.943"/>
						<path fill="#8A8A8A" d="M14.318,10.004c-2.907,0.516-3.995,3.04-3.567,5.267c-0.674,0-1.087,0-1.087,0
							c0-2.716,2.092-4.957,4.799-5.286C14.419,9.99,14.361,9.997,14.318,10.004"/>
						<path fill="#858585" d="M13.267,10.267c-2.02,0.77-3.127,2.781-2.756,5.004c-0.531,0-0.847,0-0.847,0
							c0-2.371,1.594-4.379,3.799-5.071C13.404,10.22,13.325,10.245,13.267,10.267"/>
					</g>
				</g>
				<g enable-background="new    ">
					<defs>
						<path id="SVGID_15_" enable-background="new    " d="M15.154,13.942c0-2.209,0-4,0-4h21.024c0,0,0,1.791,0,4H15.154z"/>
					</defs>
					<clipPath id="SVGID_16_">
						<use xlink:href="#SVGID_15_"  overflow="visible"/>
					</clipPath>
					<g clip-path="url(#SVGID_16_)" enable-background="new    ">
						<path fill="#FFFFFF" d="M36.179,13.942H15.154c0-0.024,0-0.048,0-0.073h21.024C36.179,13.894,36.179,13.918,36.179,13.942"/>
						<path fill="#FFFFFF" d="M36.179,13.87H15.154c0-0.026,0-0.053,0-0.079h21.024C36.179,13.817,36.179,13.843,36.179,13.87"/>
						<path fill="#FFFFFF" d="M36.179,13.791H15.154c0-0.027,0-0.053,0-0.079h21.024C36.179,13.737,36.179,13.764,36.179,13.791"/>
						<path fill="#FFFFFF" d="M36.179,13.711H15.154c0-0.026,0-0.053,0-0.079h21.024C36.179,13.659,36.179,13.685,36.179,13.711"/>
						<path fill="#FFFFFF" d="M36.179,13.633H15.154c0-0.038,0-0.075,0-0.112h21.024C36.179,13.558,36.179,13.595,36.179,13.633"/>
						<path fill="#FFFFFF" d="M36.179,13.521H15.154c0-0.04,0-0.081,0-0.121h21.024C36.179,13.44,36.179,13.481,36.179,13.521"/>
						<path fill="#FFFFFF" d="M36.179,13.4H15.154c0-0.085,0-0.169,0-0.252h21.024C36.179,13.231,36.179,13.315,36.179,13.4"/>
						<path fill="#FFFFFF" d="M36.179,13.148H15.154c0-0.063,0-0.125,0-0.187h21.024C36.179,13.023,36.179,13.085,36.179,13.148"/>
						<path fill="#FFFFFF" d="M36.179,12.961H15.154c0-0.053,0-0.105,0-0.157h21.024C36.179,12.856,36.179,12.909,36.179,12.961"/>
						<path fill="#FFFFFF" d="M36.179,12.804H15.154c0-0.049,0-0.097,0-0.145h21.024C36.179,12.708,36.179,12.755,36.179,12.804"/>
						<path fill="#FFFFFF" d="M36.179,12.66H15.154c0-0.033,0-0.065,0-0.097h21.024C36.179,12.595,36.179,12.627,36.179,12.66"/>
						<path fill="#FFFFFF" d="M36.179,12.563H15.154c0-0.032,0-0.064,0-0.096h21.024C36.179,12.499,36.179,12.53,36.179,12.563"/>
						<path fill="#FFFFFF" d="M36.179,12.467H15.154c0-0.032,0-0.063,0-0.095h21.024C36.179,12.403,36.179,12.435,36.179,12.467"/>
						<path fill="#FFFFFF" d="M36.179,12.372H15.154c0-0.032,0-0.064,0-0.095h21.024C36.179,12.308,36.179,12.34,36.179,12.372"/>
						<path fill="#FFFFFF" d="M36.179,12.277H15.154c0-0.032,0-0.063,0-0.094h21.024C36.179,12.214,36.179,12.245,36.179,12.277"/>
						<path fill="#FFFFFF" d="M36.179,12.183H15.154c0-0.032,0-0.064,0-0.096h21.024C36.179,12.118,36.179,12.15,36.179,12.183"/>
						<path fill="#FAFAFA" d="M36.179,12.086H15.154c0-0.039,0-0.077,0-0.115h21.024C36.179,12.009,36.179,12.048,36.179,12.086"/>
						<path fill="#F5F5F5" d="M36.179,11.971H15.154c0-0.038,0-0.076,0-0.113h21.024C36.179,11.896,36.179,11.933,36.179,11.971"/>
						<path fill="#F0F0F0" d="M36.179,11.858H15.154c0-0.048,0-0.096,0-0.143h21.024C36.179,11.762,36.179,11.81,36.179,11.858"/>
						<path fill="#EBEBEB" d="M36.179,11.715H15.154c0-0.05,0-0.1,0-0.149h21.024C36.179,11.615,36.179,11.665,36.179,11.715"/>
						<path fill="#E5E5E5" d="M36.179,11.566H15.154c0-0.06,0-0.119,0-0.176h21.024C36.179,11.448,36.179,11.506,36.179,11.566"/>
						<path fill="#E0E0E0" d="M36.179,11.391H15.154c0-0.061,0-0.119,0-0.176h21.024C36.179,11.271,36.179,11.33,36.179,11.391"/>
						<path fill="#DBDBDB" d="M36.179,11.214H15.154c0-0.057,0-0.113,0-0.167h21.024C36.179,11.101,36.179,11.157,36.179,11.214"/>
						<path fill="#D6D6D6" d="M36.179,11.047H15.154c0-0.053,0-0.104,0-0.153h21.024C36.179,10.943,36.179,10.995,36.179,11.047"/>
						<path fill="#D1D1D1" d="M36.179,10.894H15.154c0-0.046,0-0.091,0-0.134h21.024C36.179,10.803,36.179,10.848,36.179,10.894"/>
						<path fill="#CCCCCC" d="M36.179,10.76H15.154c0-0.042,0-0.083,0-0.122h21.024C36.179,10.677,36.179,10.718,36.179,10.76"/>
						<path fill="#C7C7C7" d="M36.179,10.638H15.154c0-0.038,0-0.075,0-0.11h21.024C36.179,10.563,36.179,10.6,36.179,10.638"/>
						<path fill="#C2C2C2" d="M36.179,10.528H15.154c0-0.034,0-0.067,0-0.098h21.024C36.179,10.461,36.179,10.494,36.179,10.528"/>
						<path fill="#BDBDBD" d="M36.179,10.43H15.154c0-0.031,0-0.061,0-0.089h21.024C36.179,10.369,36.179,10.399,36.179,10.43"/>
						<path fill="#B8B8B8" d="M36.179,10.341H15.154c0-0.028,0-0.055,0-0.08h21.024C36.179,10.286,36.179,10.313,36.179,10.341"/>
						<path fill="#B2B2B2" d="M36.179,10.261H15.154c0-0.025,0-0.049,0-0.072h21.024C36.179,10.211,36.179,10.235,36.179,10.261"/>
						<path fill="#ADADAD" d="M36.179,10.188H15.154c0-0.022,0-0.044,0-0.064h21.024C36.179,10.145,36.179,10.166,36.179,10.188"/>
						<path fill="#A8A8A8" d="M36.179,10.125H15.154c0-0.02,0-0.039,0-0.056h21.024C36.179,10.086,36.179,10.104,36.179,10.125"/>
						<path fill="#A3A3A3" d="M36.179,10.069H15.154c0-0.018,0-0.034,0-0.048h21.024C36.179,10.035,36.179,10.051,36.179,10.069"/>
						<path fill="#9E9E9E" d="M36.179,10.021H15.154c0-0.015,0-0.027,0-0.038h21.024C36.179,9.994,36.179,10.006,36.179,10.021"/>
						<path fill="#999999" d="M36.179,9.983H15.154c0-0.012,0-0.021,0-0.027h21.024C36.179,9.963,36.179,9.972,36.179,9.983"/>
						<path fill="#949494" d="M36.179,9.956H15.154c0-0.007,0-0.012,0-0.013h21.024C36.179,9.944,36.179,9.949,36.179,9.956"/>
						<polyline fill="#8F8F8F" points="36.179,9.943 15.154,9.943 15.154,9.942 36.179,9.942 36.179,9.943 						"/>
					</g>
				</g>
				<g>
					<path fill="#DDDDDD" d="M36.179,13.942c0.86,0.002,1.496,0.641,1.489,1.328c0,7.113,0,14.226,0,21.339
						c0.007,0.688-0.628,1.326-1.489,1.328c-7.008,0-14.016,0-21.024,0c-0.862-0.002-1.497-0.641-1.49-1.328
						c0-7.113,0-14.226,0-21.339c-0.007-0.687,0.628-1.326,1.49-1.328C22.163,13.942,29.171,13.942,36.179,13.942z"/>
				</g>
			</g>
		</g>
	</g>
	<g>
		<rect x="16.678" y="17.999" fill="#231F20" stroke="#231F20" stroke-miterlimit="10" width="6.488" height="15.768"/>
		<rect x="28.163" y="18.109" fill="#231F20" stroke="#231F20" stroke-miterlimit="10" width="6.488" height="15.769"/>
	</g>
</g>
</svg>
