<?xml version="1.0" encoding="utf-8"?>
<!-- Generator: Adobe Illustrator 15.0.2, SVG Export Plug-In . SVG Version: 6.00 Build 0)  -->
<!DOCTYPE svg PUBLIC "-//W3C//DTD SVG 1.1//EN" "http://www.w3.org/Graphics/SVG/1.1/DTD/svg11.dtd">
<svg version="1.1" id="Layer_1" xmlns="http://www.w3.org/2000/svg" xmlns:xlink="http://www.w3.org/1999/xlink" x="0px" y="0px"
	 width="80px" height="40px" viewBox="0 0 80 40" enable-background="new 0 0 80 40" xml:space="preserve">
<g>
	<g>
		<g enable-background="new    ">
			<g>
				<path fill="#868686" d="M8.497,1.993h63H8.497z"/>
			</g>
			<g enable-background="new    ">
				<defs>
					<path id="SVGID_1_" enable-background="new    " d="M77.5,31.999c0,3.312-2.691,5.994-6.003,5.994
						C74.809,37.993,77.5,35.311,77.5,31.999z"/>
				</defs>
				<clipPath id="SVGID_2_">
					<use xlink:href="#SVGID_1_"  overflow="visible"/>
				</clipPath>
				<g clip-path="url(#SVGID_2_)" enable-background="new    ">
					<path fill="#8C8C8C" d="M77.5,31.999c0,0.268-0.018,0.531-0.052,0.79C77.482,32.53,77.5,32.267,77.5,31.999"/>
					<path fill="#878888" d="M77.448,32.789c-0.041,0.313-0.106,0.617-0.194,0.912C77.342,33.406,77.407,33.102,77.448,32.789"/>
					<path fill="#828383" d="M77.254,33.701c-0.104,0.35-0.238,0.687-0.4,1.007C77.016,34.388,77.15,34.051,77.254,33.701"/>
					<path fill="#7D7E7E" d="M76.854,34.708c-0.992,1.949-3.02,3.285-5.356,3.285C73.834,37.993,75.861,36.657,76.854,34.708"/>
				</g>
			</g>
			<g enable-background="new    ">
				<defs>
					<path id="SVGID_3_" enable-background="new    " d="M73.5,31.999c2.21,0,4,0,4,0c0,3.312-2.691,5.994-6.003,5.994
						c0,0,0-1.79,0-4C72.599,33.996,73.504,33.093,73.5,31.999z"/>
				</defs>
				<clipPath id="SVGID_4_">
					<use xlink:href="#SVGID_3_"  overflow="visible"/>
				</clipPath>
				<g clip-path="url(#SVGID_4_)" enable-background="new    ">
					<path fill="#F6F7F7" d="M73.5,31.999c2.21,0,4,0,4,0c0,3.312-2.691,5.994-6.003,5.994c0,0,0-1.79,0-4
						C72.599,33.996,73.504,33.093,73.5,31.999"/>
					<path fill="#F6F7F7" d="M71.497,33.993c1.102,0.003,2.007-0.9,2.003-1.994c0.247,0,0.489,0,0.725,0
						c0.024,0.022,0.057,0.052,0.081,0.073c0.074,0.021,0.248,0.071,0.39-0.073c1.625,0,2.805,0,2.805,0
						c0,3.312-2.691,5.994-6.003,5.994C71.497,37.993,71.497,36.203,71.497,33.993"/>
					<path fill="#F6F7F7" d="M71.497,33.993c1.102,0.003,2.007-0.9,2.003-1.994c0.208,0,0.412,0,0.612,0
						c0.019,0.03,0.043,0.071,0.062,0.102c0.226,0.201,0.356,0.18,0.638-0.102c1.565,0,2.688,0,2.688,0
						c0,3.312-2.691,5.994-6.003,5.994C71.497,37.993,71.497,36.203,71.497,33.993"/>
					<path fill="#F6F6F6" d="M71.497,33.993c1.102,0.003,2.007-0.9,2.003-1.994c0.177,0,0.351,0,0.521,0
						c0.007,0.016,0.015,0.037,0.021,0.053c0.104,0.19,0.346,0.637,0.861-0.053c1.518,0,2.597,0,2.597,0
						c0,3.312-2.691,5.994-6.003,5.994C71.497,37.993,71.497,36.203,71.497,33.993"/>
					<path fill="#F5F6F6" d="M71.497,33.993c1.102,0.003,2.007-0.9,2.003-1.994c0.15,0,0.299,0,0.444,0
						c0.014,0.038,0.031,0.089,0.044,0.127c0.266,0.789,0.824,0.156,1-0.127c1.472,0,2.512,0,2.512,0
						c0,3.312-2.691,5.994-6.003,5.994C71.497,37.993,71.497,36.203,71.497,33.993"/>
					<path fill="#F5F6F6" d="M71.497,33.993c1.102,0.003,2.007-0.9,2.003-1.994c0.126,0,0.25,0,0.373,0
						c0.009,0.037,0.021,0.086,0.03,0.123c0.328,1.257,1.146-0.09,1.153-0.104c0.004-0.005,0.008-0.013,0.011-0.019
						c1.43,0,2.433,0,2.433,0c0,3.312-2.691,5.994-6.003,5.994C71.497,37.993,71.497,36.203,71.497,33.993"/>
					<path fill="#F5F5F5" d="M71.497,33.993c1.102,0.003,2.007-0.9,2.003-1.994c0.104,0,0.206,0,0.308,0
						c0.007,0.036,0.016,0.083,0.022,0.119c0.191,1.226,0.882,0.491,1.089,0.236c0.079-0.098,0.162-0.245,0.224-0.355
						c1.39,0,2.357,0,2.357,0c0,3.312-2.691,5.994-6.003,5.994C71.497,37.993,71.497,36.203,71.497,33.993"/>
					<path fill="#F4F5F5" d="M71.497,33.993c1.102,0.003,2.007-0.9,2.003-1.994c0.082,0,0.163,0,0.244,0
						c0.004,0.034,0.01,0.081,0.015,0.115c0.121,1.331,0.768,0.809,1.143,0.379c0.179-0.205,0.265-0.386,0.316-0.494
						c1.35,0,2.282,0,2.282,0c0,3.312-2.691,5.994-6.003,5.994C71.497,37.993,71.497,36.203,71.497,33.993"/>
					<path fill="#F4F5F5" d="M71.497,33.993c1.102,0.003,2.007-0.9,2.003-1.994c0.061,0,0.121,0,0.182,0
						c0.003,0.033,0.007,0.078,0.01,0.112c0.039,0.875,0.039,0.875,0.133,0.917c0.468,0.206,1.03-0.368,1.054-0.394
						c0.292-0.303,0.414-0.633,0.415-0.636c1.309,0,2.207,0,2.207,0c0,3.312-2.691,5.994-6.003,5.994
						C71.497,37.993,71.497,36.203,71.497,33.993"/>
					<path fill="#F3F4F4" d="M71.497,33.993c1.102,0.003,2.007-0.9,2.003-1.994c0.04,0,0.079,0,0.119,0
						c0.001,0.032,0.003,0.076,0.005,0.108c-0.001,0.282-0.087,0.559-0.061,0.843c0.019,0.187,0.062,0.21,0.166,0.268
						c0.114,0.063,0.631,0.023,1.118-0.438c0.299-0.283,0.424-0.56,0.525-0.781c1.266,0,2.127,0,2.127,0
						c0,3.312-2.691,5.994-6.003,5.994C71.497,37.993,71.497,36.203,71.497,33.993"/>
					<path fill="#F3F4F4" d="M71.497,33.993c1.102,0.003,2.007-0.9,2.003-1.994c0.019,0,0.038,0,0.057,0
						c0.001,0.031,0.001,0.073,0.001,0.105c-0.006,0.156-0.015,0.392-0.144,0.81c-0.11,0.36-0.031,0.406,0.061,0.459
						c0.162,0.095,0.835,0.035,1.402-0.506c0.355-0.34,0.513-0.71,0.58-0.868c1.219,0,2.043,0,2.043,0
						c0,3.312-2.691,5.994-6.003,5.994C71.497,37.993,71.497,36.203,71.497,33.993"/>
					<path fill="#F1F2F2" d="M71.497,34c0.021-0.022,0.072-0.001,0.103-0.002c0.43-0.009,0.703-0.153,1.116-0.374
						c0.363-0.193,0.758-0.001,1.13-0.09c0.261-0.063,0.482-0.176,0.556-0.213c0.286-0.145,0.816-0.51,1.146-1.322
						c1.17,0,1.953,0,1.953,0c0,3.312-2.691,5.994-6.003,5.994C71.497,37.993,71.497,36.206,71.497,34"/>
					<path fill="#ECEDED" d="M71.497,34.075c0.022-0.022,0.075,0.002,0.107,0.003c0.04,0,0.189,0,0.421-0.037
						c0.25-0.04,0.492-0.116,0.739-0.168c1.449-0.303,2.323-0.484,2.882-1.874c1.114,0,1.854,0,1.854,0
						c0,3.312-2.691,5.994-6.003,5.994C71.497,37.993,71.497,36.247,71.497,34.075"/>
					<path fill="#E7E8E8" d="M71.497,34.151c0.024-0.023,0.078,0.004,0.111,0.006c0.049,0.003,0.189,0.007,0.441-0.018
						c0.229-0.023,0.454-0.074,0.682-0.111c0.995-0.165,2.359-0.391,3.029-2.029c1.051,0,1.739,0,1.739,0
						c0,3.312-2.691,5.994-6.003,5.994C71.497,37.993,71.497,36.287,71.497,34.151"/>
					<path fill="#E3E3E3" d="M71.497,34.228c0.025-0.023,0.081,0.008,0.115,0.011c0.131,0.012,3.218,0.265,4.28-2.239
						c0.977,0,1.607,0,1.607,0c0,3.312-2.691,5.994-6.003,5.994C71.497,37.993,71.497,36.328,71.497,34.228"/>
					<path fill="#DEDFDF" d="M71.497,34.307c0.027-0.023,0.084,0.01,0.12,0.015c0.217,0.026,1.657,0.037,2.813-0.55
						c1.059-0.537,1.462-1.435,1.614-1.772c0.889,0,1.455,0,1.455,0c0,3.312-2.691,5.994-6.003,5.994
						C71.497,37.993,71.497,36.37,71.497,34.307"/>
					<path fill="#D9DADA" d="M71.497,34.389c0.02-0.018,0.061,0.009,0.086,0.012c0.034,0.005,3.417,0.404,4.632-2.401
						c0.79,0,1.285,0,1.285,0c0,3.312-2.691,5.994-6.003,5.994C71.497,37.993,71.497,36.412,71.497,34.389"/>
					<path fill="#D4D5D5" d="M71.497,34.478c0.029-0.026,0.09,0.014,0.129,0.02c1.159,0.181,3.849-0.193,4.758-2.498
						c0.691,0,1.116,0,1.116,0c0,3.312-2.691,5.994-6.003,5.994C71.497,37.993,71.497,36.458,71.497,34.478"/>
					<path fill="#CFD0D0" d="M71.497,34.57c0.031-0.026,0.094,0.016,0.134,0.023c1.324,0.233,4.123-0.289,4.909-2.595
						c0.599,0,0.96,0,0.96,0c0,3.312-2.691,5.994-6.003,5.994C71.497,37.993,71.497,36.506,71.497,34.57"/>
					<path fill="#CACBCB" d="M71.497,34.669c0.033-0.027,0.098,0.019,0.139,0.027c1.192,0.235,4.337-0.206,5.042-2.697
						c0.516,0,0.822,0,0.822,0c0,3.312-2.691,5.994-6.003,5.994C71.497,37.993,71.497,36.557,71.497,34.669"/>
					<path fill="#C6C6C6" d="M71.497,34.779c0.022-0.019,0.066,0.013,0.096,0.019c0.889,0.175,4.376,0.213,5.207-2.799
						c0.442,0,0.7,0,0.7,0c0,3.312-2.691,5.994-6.003,5.994C71.497,37.993,71.497,36.612,71.497,34.779"/>
					<path fill="#C1C2C2" d="M71.497,34.899c0.031-0.025,0.091,0.019,0.13,0.026c1.386,0.283,4.639-0.061,5.282-2.927
						c0.375,0,0.591,0,0.591,0c0,3.312-2.691,5.994-6.003,5.994C71.497,37.993,71.497,36.673,71.497,34.899"/>
					<path fill="#BCBDBD" d="M71.497,35.031c0.026-0.021,0.076,0.017,0.108,0.023c1.171,0.253,4.675,0.234,5.4-3.056
						c0.315,0,0.494,0,0.494,0c0,3.312-2.691,5.994-6.003,5.994C71.497,37.993,71.497,36.737,71.497,35.031"/>
					<path fill="#B7B8B8" d="M71.497,35.174c0.009-0.007,0.025,0.006,0.036,0.009c2.002,0.467,5.05-0.212,5.56-3.184
						c0.261,0,0.407,0,0.407,0c0,3.312-2.691,5.994-6.003,5.994C71.497,37.993,71.497,36.807,71.497,35.174"/>
					<path fill="#B2B3B3" d="M71.497,35.327c0.042-0.033,0.121,0.027,0.174,0.039c1.55,0.354,4.935-0.006,5.5-3.367
						c0.212,0,0.329,0,0.329,0c0,3.312-2.691,5.994-6.003,5.994C71.497,37.993,71.497,36.881,71.497,35.327"/>
					<path fill="#AEAEAE" d="M71.497,35.486c0.044-0.035,0.127,0.029,0.182,0.041c2.397,0.541,5.205-0.654,5.562-3.528
						c0.168,0,0.26,0,0.26,0c0,3.312-2.691,5.994-6.003,5.994C71.497,37.993,71.497,36.956,71.497,35.486"/>
					<path fill="#A9A9A9" d="M71.497,35.649c0.02-0.016,0.057,0.013,0.081,0.019c2.127,0.506,5.309-0.298,5.724-3.669
						c0.129,0,0.198,0,0.198,0c0,3.312-2.691,5.994-6.003,5.994C71.497,37.993,71.497,37.032,71.497,35.649"/>
					<path fill="#A4A5A5" d="M71.497,35.813c0.048-0.038,0.14,0.031,0.199,0.044c2.113,0.473,5.268-0.412,5.659-3.858
						c0.095,0,0.145,0,0.145,0c0,3.312-2.691,5.994-6.003,5.994C71.497,37.993,71.497,37.107,71.497,35.813"/>
					<path fill="#9FA0A0" d="M71.497,35.979c0.034-0.027,0.099,0.021,0.141,0.031c2.562,0.578,5.493-0.791,5.765-4.011
						c0.063,0,0.098,0,0.098,0c0,3.312-2.691,5.994-6.003,5.994C71.497,37.993,71.497,37.182,71.497,35.979"/>
					<path fill="#9A9B9B" d="M71.497,36.145c0.052-0.042,0.151,0.032,0.216,0.046c2.139,0.458,5.438-0.558,5.728-4.191
						c0.039,0,0.06,0,0.06,0c0,3.312-2.691,5.994-6.003,5.994C71.497,37.993,71.497,37.256,71.497,36.145"/>
					<path fill="#959696" d="M71.497,36.313c0.023-0.02,0.069,0.015,0.1,0.021c2.684,0.587,5.692-0.903,5.874-4.335
						c0.029,3.312-2.662,5.994-5.974,5.994C71.497,37.993,71.497,37.33,71.497,36.313"/>
					<path fill="#919191" d="M71.497,36.483c0.056-0.045,0.163,0.032,0.233,0.046c2.676,0.527,5.7-1.203,5.761-4.53
						c0.009,3.312-2.683,5.994-5.994,5.994C71.497,37.993,71.497,37.403,71.497,36.483"/>
					<path fill="#8C8C8C" d="M71.497,36.66c0.057-0.047,0.17,0.032,0.242,0.046c2.253,0.426,5.641-0.776,5.761-4.707
						c0,3.312-2.691,5.994-6.003,5.994C71.497,37.993,71.497,37.479,71.497,36.66"/>
					<path fill="#878888" d="M71.497,36.846c0.059-0.049,0.177,0.031,0.252,0.045c2.448,0.434,5.249-0.982,5.699-4.103
						c-0.388,2.938-2.907,5.205-5.951,5.205C71.497,37.993,71.497,37.556,71.497,36.846"/>
					<path fill="#828383" d="M71.497,37.047c0.042-0.035,0.125,0.021,0.179,0.03c2.149,0.362,4.756-0.683,5.579-3.379
						c-0.734,2.483-3.036,4.295-5.758,4.295C71.497,37.993,71.497,37.637,71.497,37.047"/>
					<path fill="#7D7E7E" d="M71.497,37.278c0.044-0.038,0.134,0.021,0.191,0.028c1.62,0.24,3.945-0.297,5.165-2.599
						c-0.992,1.949-3.02,3.285-5.356,3.285C71.497,37.993,71.497,37.729,71.497,37.278"/>
				</g>
			</g>
			<g enable-background="new    ">
				<defs>
					<path id="SVGID_5_" enable-background="new    " d="M71.497,33.993c0,2.21,0,4,0,4h-63c0,0,0-1.79,0-4H71.497z"/>
				</defs>
				<clipPath id="SVGID_6_">
					<use xlink:href="#SVGID_5_"  overflow="visible"/>
				</clipPath>
				<g clip-path="url(#SVGID_6_)" enable-background="new    ">
					<polyline fill="#F3F4F4" points="8.497,33.993 71.497,33.993 71.497,34 8.497,34 8.497,33.993 					"/>
					<path fill="#F1F2F2" d="M8.497,34h63c0,0.026,0,0.052,0,0.077h-63C8.497,34.052,8.497,34.026,8.497,34"/>
					<path fill="#ECEDED" d="M8.497,34.077h63c0,0.026,0,0.052,0,0.077h-63C8.497,34.129,8.497,34.104,8.497,34.077"/>
					<path fill="#E7E8E8" d="M8.497,34.154h63c0,0.025,0,0.052,0,0.077h-63C8.497,34.206,8.497,34.18,8.497,34.154"/>
					<path fill="#E3E3E3" d="M8.497,34.231h63c0,0.025,0,0.051,0,0.076h-63C8.497,34.282,8.497,34.257,8.497,34.231"/>
					<path fill="#DEDFDF" d="M8.497,34.308h63c0,0.029,0,0.059,0,0.088h-63C8.497,34.366,8.497,34.337,8.497,34.308"/>
					<path fill="#D9DADA" d="M8.497,34.396h63c0,0.03,0,0.061,0,0.091h-63C8.497,34.456,8.497,34.426,8.497,34.396"/>
					<path fill="#D4D5D5" d="M8.497,34.486h63c0,0.03,0,0.061,0,0.09h-63C8.497,34.547,8.497,34.517,8.497,34.486"/>
					<path fill="#CFD0D0" d="M8.497,34.576h63c0,0.032,0,0.064,0,0.097h-63C8.497,34.641,8.497,34.608,8.497,34.576"/>
					<path fill="#CACBCB" d="M8.497,34.673h63c0,0.039,0,0.078,0,0.117h-63C8.497,34.751,8.497,34.712,8.497,34.673"/>
					<path fill="#C6C6C6" d="M8.497,34.79h63c0,0.038,0,0.077,0,0.115h-63C8.497,34.867,8.497,34.828,8.497,34.79"/>
					<path fill="#C1C2C2" d="M8.497,34.905h63c0,0.044,0,0.088,0,0.132h-63C8.497,34.993,8.497,34.949,8.497,34.905"/>
					<path fill="#BCBDBD" d="M8.497,35.037h63c0,0.048,0,0.096,0,0.143h-63C8.497,35.133,8.497,35.085,8.497,35.037"/>
					<path fill="#B7B8B8" d="M8.497,35.18h63c0,0.051,0,0.101,0,0.15h-63C8.497,35.28,8.497,35.23,8.497,35.18"/>
					<path fill="#B2B3B3" d="M8.497,35.33h63c0,0.054,0,0.106,0,0.159h-63C8.497,35.437,8.497,35.384,8.497,35.33"/>
					<path fill="#AEAEAE" d="M8.497,35.489h63c0,0.055,0,0.108,0,0.162h-63C8.497,35.598,8.497,35.544,8.497,35.489"/>
					<path fill="#A9A9A9" d="M8.497,35.651h63c0,0.055,0,0.109,0,0.163h-63C8.497,35.761,8.497,35.706,8.497,35.651"/>
					<path fill="#A4A5A5" d="M8.497,35.814h63c0,0.056,0,0.111,0,0.166h-63C8.497,35.926,8.497,35.87,8.497,35.814"/>
					<path fill="#9FA0A0" d="M8.497,35.98h63c0,0.056,0,0.111,0,0.165h-63C8.497,36.092,8.497,36.036,8.497,35.98"/>
					<path fill="#9A9B9B" d="M8.497,36.146h63c0,0.058,0,0.113,0,0.168h-63C8.497,36.259,8.497,36.203,8.497,36.146"/>
					<path fill="#959696" d="M8.497,36.313h63c0,0.06,0,0.116,0,0.173h-63C8.497,36.43,8.497,36.373,8.497,36.313"/>
					<path fill="#919191" d="M8.497,36.486h63c0,0.061,0,0.119,0,0.177h-63C8.497,36.605,8.497,36.547,8.497,36.486"/>
					<path fill="#8C8C8C" d="M8.497,36.663h63c0,0.063,0,0.125,0,0.185h-63C8.497,36.788,8.497,36.727,8.497,36.663"/>
					<path fill="#878888" d="M8.497,36.848h63c0,0.069,0,0.136,0,0.2h-63C8.497,36.983,8.497,36.917,8.497,36.848"/>
					<path fill="#828383" d="M8.497,37.048h63c0,0.083,0,0.162,0,0.236h-63C8.497,37.21,8.497,37.131,8.497,37.048"/>
					<path fill="#7D7E7E" d="M8.497,37.284h63c0,0.447,0,0.709,0,0.709h-63C8.497,37.993,8.497,37.731,8.497,37.284"/>
				</g>
			</g>
			<g enable-background="new    ">
				<defs>
					<path id="SVGID_7_" enable-background="new    " d="M71.497,5.993c0-2.209,0-4,0-4c3.312,0,6.003,2.691,6.003,6.003
						c0,0-1.79,0-4,0C73.504,6.899,72.594,5.989,71.497,5.993z"/>
				</defs>
				<clipPath id="SVGID_8_">
					<use xlink:href="#SVGID_7_"  overflow="visible"/>
				</clipPath>
				<g clip-path="url(#SVGID_8_)" enable-background="new    ">
					<path fill="#F6F7F7" d="M71.497,5.993c0-2.209,0-4,0-4c3.312,0,6.003,2.691,6.003,6.003c0,0-1.79,0-4,0
						C73.504,6.899,72.594,5.989,71.497,5.993"/>
					<path fill="#F6F7F7" d="M74.687,7.996c1.066-1.239-0.211-3.454-1.953-3.385c-0.476,0.019-1.118,0.359-0.715,0.757
						c0.412,0.408,0.968,0.64,1.347,1.089c0.387,0.458,0.513,1.063,0.868,1.539c-0.237,0-0.482,0-0.733,0
						c0.004-1.097-0.906-2.007-2.003-2.003c0-2.209,0-4,0-4c3.312,0,6.003,2.691,6.003,6.003C77.5,7.996,76.316,7.996,74.687,7.996"
						/>
					<path fill="#F6F7F7" d="M74.805,7.996c1.149-1.757-0.804-3.709-2.313-3.419c-0.212,0.041-1.2,0.378-0.477,0.891
						c1.483,1.05,1.483,1.05,2.102,2.528c-0.201,0-0.407,0-0.616,0c0.004-1.097-0.906-2.007-2.003-2.003c0-2.209,0-4,0-4
						c3.312,0,6.003,2.691,6.003,6.003C77.5,7.996,76.373,7.996,74.805,7.996"/>
					<path fill="#F6F6F6" d="M74.898,7.996c0.932-1.428-0.487-3.844-2.51-3.463c-0.314,0.059-1.215,0.492-0.511,0.946
						c1.514,0.974,1.746,1.124,2.146,2.518c-0.172,0-0.346,0-0.523,0c0.004-1.097-0.906-2.007-2.003-2.003c0-2.209,0-4,0-4
						c3.312,0,6.003,2.691,6.003,6.003C77.5,7.996,76.418,7.996,74.898,7.996"/>
					<path fill="#F5F6F6" d="M74.982,7.996C76,6.052,73.99,3.986,72.216,4.509c-0.195,0.058-0.548,0.2-0.719,0.508
						c0-1.737,0-3.023,0-3.023c3.312,0,6.003,2.691,6.003,6.003C77.5,7.996,76.458,7.996,74.982,7.996"/>
					<path fill="#F5F6F6" d="M75.062,7.996c0.976-2.097-1.149-4.128-2.986-3.514c-0.25,0.084-0.493,0.259-0.578,0.352
						c0-1.644,0-2.841,0-2.841c3.312,0,6.003,2.691,6.003,6.003C77.5,7.996,76.495,7.996,75.062,7.996"/>
					<path fill="#F5F5F5" d="M75.138,7.996c0.968-2.074-1.253-4.18-3.092-3.576c-0.285,0.094-0.479,0.236-0.549,0.293
						c0-1.582,0-2.72,0-2.72c3.312,0,6.003,2.691,6.003,6.003C77.5,7.996,76.53,7.996,75.138,7.996"/>
					<path fill="#F4F5F5" d="M75.214,7.996c0.941-2.301-1.42-4.349-3.35-3.583c-0.166,0.065-0.302,0.155-0.367,0.199
						c0-1.529,0-2.619,0-2.619c3.312,0,6.003,2.691,6.003,6.003C77.5,7.996,76.565,7.996,75.214,7.996"/>
					<path fill="#F4F5F5" d="M75.29,7.996c0.969-2.464-1.601-4.518-3.609-3.582c-0.057,0.026-0.129,0.071-0.184,0.103
						c0-1.479,0-2.524,0-2.524c3.312,0,6.003,2.691,6.003,6.003C77.5,7.996,76.601,7.996,75.29,7.996"/>
					<path fill="#F3F4F4" d="M75.37,7.996c0.957-2.475-1.653-4.589-3.673-3.674c-0.062,0.028-0.14,0.071-0.2,0.102
						c0-1.43,0-2.431,0-2.431c3.312,0,6.003,2.691,6.003,6.003C77.5,7.996,76.637,7.996,75.37,7.996"/>
					<path fill="#F3F4F4" d="M75.454,7.996c0.947-2.602-1.656-4.691-3.764-3.757c-0.06,0.026-0.136,0.065-0.193,0.095
						c0-1.381,0-2.341,0-2.341c3.312,0,6.003,2.691,6.003,6.003C77.5,7.996,76.675,7.996,75.454,7.996"/>
					<path fill="#F1F2F2" d="M75.544,7.996c-0.039-0.055,0.053-0.148,0.076-0.212c0.212-0.594,0.309-1.999-0.844-3.068
						c-0.731-0.68-2.029-1.091-3.279-0.477c0-1.33,0-2.246,0-2.246c3.312,0,6.003,2.691,6.003,6.003
						C77.5,7.996,76.716,7.996,75.544,7.996"/>
					<path fill="#ECEDED" d="M75.645,7.996c-0.04-0.057,0.054-0.152,0.077-0.217c0.22-0.613,0.325-2.063-0.852-3.156
						c-0.149-0.14-1.519-1.338-3.373-0.483c0-1.276,0-2.146,0-2.146c3.312,0,6.003,2.691,6.003,6.003
						C77.5,7.996,76.76,7.996,75.645,7.996"/>
					<path fill="#E7E8E8" d="M75.758,7.996c-0.04-0.057,0.055-0.153,0.079-0.219c0.245-0.685,0.34-2.142-0.861-3.26
						c-0.687-0.639-2.01-1.15-3.479-0.485c0-1.217,0-2.039,0-2.039c3.312,0,6.003,2.691,6.003,6.003
						C77.5,7.996,76.811,7.996,75.758,7.996"/>
					<path fill="#E3E3E3" d="M75.891,7.996c1.041-2.795-1.67-5.314-4.394-4.084c0-1.151,0-1.919,0-1.919
						c3.312,0,6.003,2.691,6.003,6.003C77.5,7.996,76.867,7.996,75.891,7.996"/>
					<path fill="#DEDFDF" d="M76.043,7.996c1.051-2.838-1.795-5.481-4.546-4.22c0-1.075,0-1.783,0-1.783
						c3.312,0,6.003,2.691,6.003,6.003C77.5,7.996,76.933,7.996,76.043,7.996"/>
					<path fill="#D9DADA" d="M76.213,7.996c1.034-2.759-1.911-5.626-4.567-4.445c-0.045,0.02-0.104,0.048-0.148,0.068
						c0-0.986,0-1.625,0-1.625c3.312,0,6.003,2.691,6.003,6.003C77.5,7.996,77.005,7.996,76.213,7.996"/>
					<path fill="#D4D5D5" d="M76.383,7.996c-0.019-0.026,0.023-0.071,0.034-0.102c0.419-1.249-0.014-2.752-1.076-3.742
						c-0.651-0.606-2.016-1.504-3.844-0.708c0-0.887,0-1.452,0-1.452c3.312,0,6.003,2.691,6.003,6.003
						C77.5,7.996,77.074,7.996,76.383,7.996"/>
					<path fill="#CFD0D0" d="M76.539,7.996c-0.031-0.04,0.031-0.113,0.045-0.161c0.354-1.249-0.119-2.754-1.178-3.748
						c-1.144-1.073-2.604-1.379-3.909-0.821c0-0.783,0-1.273,0-1.273c3.312,0,6.003,2.691,6.003,6.003
						C77.5,7.996,77.138,7.996,76.539,7.996"/>
					<path fill="#CACBCB" d="M76.678,7.996c-0.051-0.063,0.041-0.183,0.06-0.261c0.227-0.99-0.075-2.572-1.274-3.706
						c-1.148-1.087-2.631-1.435-3.966-0.932c0-0.685,0-1.104,0-1.104c3.312,0,6.003,2.691,6.003,6.003
						C77.5,7.996,77.193,7.996,76.678,7.996"/>
					<path fill="#C6C6C6" d="M76.8,7.996c-0.015-0.018,0.012-0.053,0.017-0.076c0.301-1.354-0.21-2.901-1.303-3.941
						c-0.547-0.521-2.034-1.666-4.017-1.034c0-0.594,0-0.952,0-0.952c3.312,0,6.003,2.691,6.003,6.003
						C77.5,7.996,77.241,7.996,76.8,7.996"/>
					<path fill="#C1C2C2" d="M76.908,7.996c-0.046-0.055,0.028-0.164,0.041-0.234c0.185-1.065-0.174-2.662-1.391-3.827
						c-0.671-0.644-2.092-1.645-4.062-1.125c0-0.513,0-0.817,0-0.817c3.312,0,6.003,2.691,6.003,6.003
						C77.5,7.996,77.283,7.996,76.908,7.996"/>
					<path fill="#BCBDBD" d="M77.006,7.996c-0.014-0.016,0.008-0.047,0.011-0.066c0.237-1.417-0.306-2.963-1.419-4.035
						c-0.555-0.534-2.063-1.722-4.101-1.207c0-0.439,0-0.695,0-0.695c3.312,0,6.003,2.691,6.003,6.003
						C77.5,7.996,77.32,7.996,77.006,7.996"/>
					<path fill="#B7B8B8" d="M77.093,7.996c-0.056-0.063,0.023-0.194,0.034-0.278c0.131-1.074-0.281-2.683-1.494-3.858
						c-0.677-0.655-2.114-1.692-4.136-1.281c0-0.372,0-0.586,0-0.586c3.312,0,6.003,2.691,6.003,6.003
						C77.5,7.996,77.354,7.996,77.093,7.996"/>
					<path fill="#B2B3B3" d="M77.171,7.996c-0.024-0.026,0.01-0.082,0.014-0.118c0.17-1.419-0.414-2.97-1.522-4.047
						c-1.178-1.146-2.696-1.638-4.165-1.35c0-0.311,0-0.488,0-0.488c3.312,0,6.003,2.691,6.003,6.003
						C77.5,7.996,77.383,7.996,77.171,7.996"/>
					<path fill="#F7F7F7" d="M74.305,7.909c-0.105-0.083-0.188-0.252-0.353-0.589c-0.109-0.223-0.291-0.595-0.633-0.979
						c-0.074-0.083-0.301-0.338-0.725-0.635c-0.437-0.307-0.494-0.368-0.536-0.453c-0.111-0.226,0.045-0.504,0.651-0.579
						c1.614-0.201,2.849,1.993,2.093,3.048C74.627,7.968,74.46,8.031,74.305,7.909"/>
					<path fill="#AEAEAE" d="M77.24,7.996c-0.061-0.066,0.017-0.208,0.024-0.297c0.083-1.005-0.28-2.628-1.577-3.894
						c-0.679-0.662-2.125-1.726-4.19-1.414c0-0.255,0-0.398,0-0.398c3.312,0,6.003,2.691,6.003,6.003
						C77.5,7.996,77.408,7.996,77.24,7.996"/>
					<path fill="#F7F7F7" d="M74.296,7.75c-0.087-0.07-0.182-0.249-0.266-0.405c-0.194-0.364-0.379-0.693-0.681-1.031
						c-0.213-0.24-0.393-0.399-0.834-0.738c-0.178-0.137-0.285-0.238-0.319-0.301c-0.17-0.318,0.234-0.504,0.489-0.533
						c1.695-0.192,2.73,1.886,2.104,2.853C74.683,7.762,74.51,7.923,74.296,7.75"/>
					<path fill="#A9A9A9" d="M77.302,7.996c-0.041-0.044,0.011-0.14,0.015-0.2c0.083-1.096-0.296-2.725-1.608-4.011
						c-1.181-1.156-2.716-1.693-4.211-1.474c0-0.205,0-0.318,0-0.318c3.312,0,6.003,2.691,6.003,6.003
						C77.5,7.996,77.431,7.996,77.302,7.996"/>
					<path fill="#F7F8F8" d="M74.42,7.687c-0.061-0.017-0.152-0.042-0.399-0.473c-0.126-0.22-0.316-0.551-0.596-0.876
						c-0.261-0.303-0.508-0.511-0.78-0.732c-0.182-0.147-0.296-0.286-0.297-0.287c-0.017-0.022-0.153-0.221,0.051-0.385
						c0.726-0.585,2.681,0.489,2.514,2.055C74.853,7.547,74.588,7.733,74.42,7.687"/>
					<path fill="#F7F8F8" d="M74.429,7.546c-0.127-0.006-0.279-0.227-0.424-0.465c-0.088-0.145-0.235-0.386-0.432-0.633
						c-0.285-0.36-0.557-0.595-0.702-0.722c-0.25-0.217-0.368-0.353-0.369-0.353c-0.157-0.213-0.055-0.342,0.021-0.401
						c0.674-0.523,2.487,0.531,2.33,1.981C74.828,7.181,74.74,7.561,74.429,7.546"/>
					<path fill="#A4A5A5" d="M77.355,7.996c-0.063-0.066,0.011-0.212,0.016-0.302c0.051-1.014-0.351-2.65-1.647-3.924
						c-0.828-0.813-2.232-1.738-4.227-1.53c0-0.16,0-0.247,0-0.247c3.312,0,6.003,2.691,6.003,6.003
						C77.5,7.996,77.45,7.996,77.355,7.996"/>
					<path fill="#F8F8F8" d="M74.394,7.402c-0.101-0.014-0.209-0.17-0.407-0.455c-0.311-0.446-0.316-0.455-0.458-0.625
						c-0.264-0.316-0.616-0.545-0.86-0.88c-0.078-0.106-0.208-0.284-0.021-0.425c0.27-0.203,0.986-0.089,1.473,0.356
						c0.79,0.723,0.683,1.513,0.667,1.601C74.706,7.446,74.495,7.417,74.394,7.402"/>
					<path fill="#9FA0A0" d="M77.402,7.996c-0.058-0.06,0.007-0.194,0.01-0.277c0.038-1.026-0.379-2.68-1.678-3.96
						c-1.178-1.161-2.722-1.737-4.237-1.583c0-0.119,0-0.183,0-0.183c3.312,0,6.003,2.691,6.003,6.003
						C77.5,7.996,77.466,7.996,77.402,7.996"/>
					<path fill="#F8F8F8" d="M74.371,7.257c-0.066-0.017-0.222-0.188-0.223-0.19c-0.219-0.248-0.388-0.533-0.598-0.786
						c-0.223-0.268-0.508-0.477-0.715-0.76c-0.127-0.174-0.236-0.324-0.063-0.45c0.55-0.399,2.103,0.617,1.961,1.762
						C74.672,7.331,74.477,7.283,74.371,7.257"/>
					<path fill="#F8F8F8" d="M74.354,7.109c-0.081-0.029-0.081-0.029-0.667-0.746c-0.201-0.246-0.438-0.46-0.638-0.707
						c-0.178-0.218-0.251-0.308-0.222-0.422c0.082-0.321,1.135-0.214,1.653,0.752c0.33,0.618,0.168,1.13-0.039,1.15
						C74.414,7.139,74.38,7.118,74.354,7.109"/>
					<path fill="#F5F6F6" d="M73.5,7.996c0.004-1.097-0.906-2.007-2.003-2.003c0-0.234,0-0.463,0-0.686
						c0.001,0.003,0.003,0.007,0.005,0.01c0.205,0.17,0.205,0.17,0.554,0.331c0.506,0.234,0.837,0.466,1.144,0.802
						c0.498,0.545,0.66,1.196,0.748,1.545C73.801,7.996,73.651,7.996,73.5,7.996"/>
					<path fill="#9A9B9B" d="M77.44,7.996c-0.012-0.012,0.002-0.04,0.003-0.057c0.063-1.504-0.573-3.069-1.703-4.187
						c-0.828-0.817-2.235-1.765-4.243-1.633c0-0.083,0-0.126,0-0.126c3.312,0,6.003,2.691,6.003,6.003
						C77.5,7.996,77.479,7.996,77.44,7.996"/>
					<path fill="#F8F9F9" d="M74.336,6.96c-0.052-0.023-0.173-0.076-1.049-1.137c-0.322-0.391-0.335-0.406-0.315-0.515
						c0.055-0.291,0.927-0.149,1.376,0.561c0.331,0.525,0.309,1.102,0.043,1.112C74.373,6.982,74.352,6.967,74.336,6.96"/>
					<path fill="#F5F6F6" d="M73.5,7.996c0.004-1.097-0.906-2.007-2.003-2.003c0-0.175,0-0.348,0-0.517
						c0.038,0.017,0.088,0.04,0.126,0.057c1.173,0.538,1.173,0.538,1.546,0.945c0.529,0.58,0.663,1.286,0.707,1.518
						C73.752,7.996,73.627,7.996,73.5,7.996"/>
					<path fill="#F5F5F5" d="M73.5,7.996c0.004-1.097-0.906-2.007-2.003-2.003c0-0.136,0-0.27,0-0.402
						c0.036,0.01,0.085,0.024,0.121,0.034c0.672,0.224,1.923,0.639,2.19,2.371C73.707,7.996,73.604,7.996,73.5,7.996"/>
					<path fill="#F8F9F9" d="M74.325,6.813c-0.111-0.003-0.212-0.123-0.636-0.623c-0.494-0.583-0.57-0.672-0.558-0.786
						c0.005-0.038,0.035-0.086,0.066-0.108c0.11-0.075,0.513-0.02,0.886,0.351C74.421,5.98,74.53,6.398,74.5,6.588
						c-0.009,0.055-0.019,0.137-0.058,0.176C74.416,6.791,74.363,6.813,74.325,6.813"/>
					<path fill="#F4F5F5" d="M73.5,7.996c0.004-1.097-0.906-2.007-2.003-2.003c0-0.104,0-0.208,0-0.311
						c0.035,0.008,0.082,0.018,0.117,0.025c0.474,0.129,1.915,0.521,2.13,2.288C73.663,7.996,73.582,7.996,73.5,7.996"/>
					<path fill="#F4F5F5" d="M73.5,7.996c0.004-1.097-0.906-2.007-2.003-2.003c0-0.076,0-0.151,0-0.226
						c0.034,0.005,0.079,0.012,0.113,0.017c1.56,0.329,1.987,1.384,2.071,2.212C73.621,7.996,73.561,7.996,73.5,7.996"/>
					<path fill="#F9F9F9" d="M74.231,6.609c-0.109-0.018-0.395-0.354-0.488-0.464c-0.171-0.202-0.429-0.506-0.427-0.616
						c0-0.039,0.021-0.095,0.054-0.117c0.077-0.054,0.409,0.028,0.662,0.281c0.331,0.332,0.363,0.686,0.355,0.738
						c-0.007,0.043-0.002,0.112-0.032,0.144C74.329,6.604,74.27,6.615,74.231,6.609"/>
					<path fill="#959696" d="M74.608,2.863c-1.066-0.612-1.938-0.833-3.111-0.791c0-0.052,0-0.079,0-0.079
						c1.156,0,2.237,0.328,3.153,0.896C74.638,2.881,74.621,2.871,74.608,2.863"/>
					<path fill="#F3F4F4" d="M73.5,7.996c0.004-1.097-0.906-2.007-2.003-2.003c0-0.049,0-0.097,0-0.146
						c0.028,0.003,0.066,0.007,0.096,0.01c0.934,0.11,1.923,0.813,2.026,2.139C73.579,7.996,73.54,7.996,73.5,7.996"/>
					<path fill="#919191" d="M73.28,2.264c-0.417-0.116-0.937-0.261-1.783-0.229c0-0.027,0-0.041,0-0.041
						c0.72,0,1.41,0.127,2.05,0.36C73.468,2.327,73.361,2.289,73.28,2.264"/>
					<path fill="#F9F9F9" d="M74.077,6.342c-0.066-0.024-0.509-0.547-0.521-0.614c-0.007-0.042-0.001-0.114,0.035-0.138
						c0.063-0.041,0.178,0.03,0.242,0.069c0.099,0.061,0.152,0.124,0.233,0.22c0.191,0.228,0.16,0.461,0.158,0.463
						C74.196,6.375,74.119,6.357,74.077,6.342"/>
					<path fill="#959696" d="M77.471,7.996c-0.061-0.062,0.001-0.202,0.002-0.289c0.002-0.405-0.068-1.078-0.417-1.98
						c0.286,0.7,0.444,1.466,0.444,2.269C77.5,7.996,77.49,7.996,77.471,7.996"/>
					<path fill="#F3F4F4" d="M73.5,7.996c0.004-1.097-0.906-2.007-2.003-2.003c0-0.023,0-0.045,0-0.068
						c0.031,0.002,0.074,0.004,0.105,0.006c1.131,0.13,1.898,0.941,1.953,2.065C73.537,7.996,73.519,7.996,73.5,7.996"/>
					<path fill="#8C8C8C" d="M72.41,2.063c-0.292-0.036-0.484-0.059-0.913-0.056c0-0.009,0-0.014,0-0.014
						c0.383,0,0.757,0.036,1.119,0.104C72.555,2.087,72.473,2.072,72.41,2.063"/>
					<path fill="#919191" d="M77.491,7.996c-0.065-0.065-0.002-0.216-0.003-0.309c-0.001-0.084-0.012-0.33-0.089-0.789
						C77.466,7.254,77.5,7.621,77.5,7.996C77.5,7.996,77.497,7.996,77.491,7.996"/>
					<path fill="#878888" d="M71.497,1.994c0.071,0,0.144,0.001,0.214,0.003C71.647,1.996,71.542,2.04,71.497,1.994"/>
					<path fill="#8C8C8C" d="M77.5,7.996c-0.027-0.026-0.001-0.088-0.001-0.126C77.5,7.912,77.5,7.954,77.5,7.996L77.5,7.996"/>
				</g>
			</g>
			<g enable-background="new    ">
				<defs>
					<path id="SVGID_9_" enable-background="new    " d="M6.494,31.999c-2.209,0-4,0-4,0V7.996c0,0,1.791,0,4,0V31.999z"/>
				</defs>
				<clipPath id="SVGID_10_">
					<use xlink:href="#SVGID_9_"  overflow="visible"/>
				</clipPath>
				<g clip-path="url(#SVGID_10_)" enable-background="new    ">
					<polyline fill="#F3F4F4" points="6.494,7.996 6.494,31.999 6.488,31.999 6.488,7.996 6.494,7.996 					"/>
					<path fill="#F1F2F2" d="M6.488,7.996v24.003c-0.023,0-0.045,0-0.068,0V7.996C6.442,7.996,6.465,7.996,6.488,7.996"/>
					<path fill="#ECEDED" d="M6.419,7.996v24.003c-0.023,0-0.046,0-0.068,0V7.996C6.374,7.996,6.396,7.996,6.419,7.996"/>
					<path fill="#E7E8E8" d="M6.351,7.996v24.003c-0.023,0-0.045,0-0.068,0V7.996C6.306,7.996,6.328,7.996,6.351,7.996"/>
					<path fill="#E3E3E3" d="M6.283,7.996v24.003c-0.022,0-0.045,0-0.068,0V7.996C6.237,7.996,6.26,7.996,6.283,7.996"/>
					<path fill="#DEDFDF" d="M6.215,7.996v24.003c-0.024,0-0.049,0-0.073,0V7.996C6.166,7.996,6.19,7.996,6.215,7.996"/>
					<path fill="#D9DADA" d="M6.142,7.996v24.003c-0.029,0-0.058,0-0.087,0V7.996C6.083,7.996,6.113,7.996,6.142,7.996"/>
					<path fill="#D4D5D5" d="M6.055,7.996v24.003c-0.029,0-0.058,0-0.087,0V7.996C5.997,7.996,6.025,7.996,6.055,7.996"/>
					<path fill="#CFD0D0" d="M5.968,7.996v24.003c-0.029,0-0.058,0-0.086,0V7.996C5.91,7.996,5.939,7.996,5.968,7.996"/>
					<path fill="#CACBCB" d="M5.882,7.996v24.003c-0.035,0-0.069,0-0.104,0V7.996C5.813,7.996,5.847,7.996,5.882,7.996"/>
					<path fill="#C6C6C6" d="M5.778,7.996v24.003c-0.039,0-0.077,0-0.115,0V7.996C5.701,7.996,5.74,7.996,5.778,7.996"/>
					<path fill="#C1C2C2" d="M5.663,7.996v24.003c-0.038,0-0.076,0-0.114,0V7.996C5.587,7.996,5.625,7.996,5.663,7.996"/>
					<path fill="#BCBDBD" d="M5.549,7.996v24.003c-0.046,0-0.092,0-0.138,0V7.996C5.457,7.996,5.502,7.996,5.549,7.996"/>
					<path fill="#B7B8B8" d="M5.411,7.996v24.003c-0.047,0-0.094,0-0.14,0V7.996C5.317,7.996,5.364,7.996,5.411,7.996"/>
					<path fill="#B2B3B3" d="M5.271,7.996v24.003c-0.051,0-0.102,0-0.151,0V7.996C5.169,7.996,5.22,7.996,5.271,7.996"/>
					<path fill="#AEAEAE" d="M5.119,7.996v24.003c-0.052,0-0.103,0-0.154,0V7.996C5.016,7.996,5.067,7.996,5.119,7.996"/>
					<path fill="#A9A9A9" d="M4.965,7.996v24.003c-0.054,0-0.107,0-0.16,0V7.996C4.858,7.996,4.912,7.996,4.965,7.996"/>
					<path fill="#A4A5A5" d="M4.806,7.996v24.003c-0.054,0-0.106,0-0.159,0V7.996C4.699,7.996,4.752,7.996,4.806,7.996"/>
					<path fill="#9FA0A0" d="M4.647,7.996v24.003c-0.056,0-0.11,0-0.165,0V7.996C4.537,7.996,4.591,7.996,4.647,7.996"/>
					<path fill="#9A9B9B" d="M4.482,7.996v24.003c-0.056,0-0.111,0-0.166,0V7.996C4.371,7.996,4.426,7.996,4.482,7.996"/>
					<path fill="#959696" d="M4.317,7.996v24.003c-0.057,0-0.113,0-0.168,0V7.996C4.204,7.996,4.26,7.996,4.317,7.996"/>
					<path fill="#919191" d="M4.148,7.996v24.003c-0.061,0-0.121,0-0.18,0V7.996C4.027,7.996,4.087,7.996,4.148,7.996"/>
					<path fill="#8C8C8C" d="M3.969,7.996v24.003c-0.064,0-0.127,0-0.188,0V7.996C3.842,7.996,3.904,7.996,3.969,7.996"/>
					<path fill="#878888" d="M3.78,7.996v24.003c-0.071,0-0.14,0-0.206,0V7.996C3.641,7.996,3.709,7.996,3.78,7.996"/>
					<path fill="#828383" d="M3.575,7.996v24.003c-0.084,0-0.165,0-0.241,0V7.996C3.41,7.996,3.49,7.996,3.575,7.996"/>
					<path fill="#7D7E7E" d="M3.333,7.996v24.003c-0.526,0-0.839,0-0.839,0V7.996C2.494,7.996,2.808,7.996,3.333,7.996"/>
				</g>
			</g>
			<g enable-background="new    ">
				<defs>
					<path id="SVGID_11_" enable-background="new    " d="M6.494,7.996c-2.209,0-4,0-4,0c0-3.312,2.691-6.003,6.003-6.003
						c0,0,0,1.791,0,4C7.399,5.989,6.49,6.898,6.494,7.996z"/>
				</defs>
				<clipPath id="SVGID_12_">
					<use xlink:href="#SVGID_11_"  overflow="visible"/>
				</clipPath>
				<g clip-path="url(#SVGID_12_)" enable-background="new    ">
					<path fill="#F5F6F6" d="M6.494,7.996c-2.209,0-4,0-4,0c0-3.312,2.691-6.003,6.003-6.003c0,0,0,1.791,0,4
						C7.399,5.989,6.49,6.898,6.494,7.996"/>
					<path fill="#F5F6F6" d="M8.497,4.994c-0.063,0.259-0.063,0.259,0,0.33c0,0.218,0,0.441,0,0.67
						C7.399,5.989,6.49,6.898,6.494,7.996c-2.209,0-4,0-4,0c0-3.312,2.691-6.003,6.003-6.003C8.497,1.993,8.497,3.268,8.497,4.994"
						/>
					<path fill="#F5F6F6" d="M8.497,4.821C8.449,4.953,8.306,5.036,8.306,5.193c0,0.141,0.104,0.235,0.191,0.288
						c0,0.167,0,0.338,0,0.512C7.399,5.989,6.49,6.898,6.494,7.996c-2.209,0-4,0-4,0c0-3.312,2.691-6.003,6.003-6.003
						C8.497,1.993,8.497,3.184,8.497,4.821"/>
					<path fill="#F5F5F5" d="M8.497,4.707c-0.085,0.187-0.34,0.256-0.34,0.5c0,0.104,0,0.259,0.34,0.386c0,0.132,0,0.265,0,0.4
						C7.399,5.989,6.49,6.898,6.494,7.996c-2.209,0-4,0-4,0c0-3.312,2.691-6.003,6.003-6.003C8.497,1.993,8.497,3.128,8.497,4.707"
						/>
					<path fill="#F4F5F5" d="M8.497,4.606c-0.07,0.136-0.225,0.18-0.317,0.292C8,5.116,8,5.271,8,5.364
						C8,5.532,8.253,5.61,8.497,5.686c0,0.102,0,0.204,0,0.308C7.399,5.989,6.49,6.898,6.494,7.996c-2.209,0-4,0-4,0
						c0-3.312,2.691-6.003,6.003-6.003C8.497,1.993,8.497,3.08,8.497,4.606"/>
					<path fill="#F4F5F5" d="M8.497,4.511C8.484,4.534,8.446,4.543,8.424,4.557C8.178,4.711,7.832,5.075,7.832,5.401
						c0,0.242,0.088,0.259,0.665,0.369c0,0.074,0,0.148,0,0.223C7.399,5.989,6.49,6.898,6.494,7.996c-2.209,0-4,0-4,0
						c0-3.312,2.691-6.003,6.003-6.003C8.497,1.993,8.497,3.036,8.497,4.511"/>
					<path fill="#F3F4F4" d="M8.497,4.42c-0.005,0.008-0.02,0.011-0.028,0.016c-0.033,0.019-0.813,0.46-0.813,1.157
						c0,0.156,0,0.156,0.84,0.257c0,0.047,0,0.095,0,0.143C7.399,5.989,6.49,6.898,6.494,7.996c-2.209,0-4,0-4,0
						c0-3.312,2.691-6.003,6.003-6.003C8.497,1.993,8.497,2.993,8.497,4.42"/>
					<path fill="#F3F4F4" d="M8.497,4.33C8.465,4.384,8.369,4.403,8.314,4.435C7.838,4.709,7.455,5.337,7.455,5.674
						c0,0.241,0.062,0.256,0.186,0.286c0.289,0.069,0.57-0.047,0.857-0.035c0,0.023,0,0.045,0,0.068
						C7.399,5.989,6.49,6.898,6.494,7.996c-2.209,0-4,0-4,0c0-3.312,2.691-6.003,6.003-6.003C8.497,1.993,8.497,2.951,8.497,4.33"/>
					<path fill="#F1F2F2" d="M8.497,4.235C8.469,4.282,8.386,4.295,8.338,4.32C8.246,4.37,7.771,4.646,7.448,5.251
						C7.42,5.302,7.387,5.372,7.365,5.425c-0.126,0.309-0.11,0.646-0.192,0.962C7.078,6.752,6.729,6.96,6.607,7.308
						C6.496,7.627,6.491,7.849,6.488,7.996c-2.207,0-3.994,0-3.994,0c0-3.312,2.691-6.003,6.003-6.003
						C8.497,1.993,8.497,2.907,8.497,4.235"/>
					<path fill="#ECEDED" d="M8.497,4.136C8.474,4.174,8.405,4.183,8.365,4.203c-0.2,0.102-0.705,0.414-1.083,1.118
						c-0.009,0.016-0.87,1.751-0.859,2.675c-2.177,0-3.929,0-3.929,0c0-3.312,2.691-6.003,6.003-6.003
						C8.497,1.993,8.497,2.862,8.497,4.136"/>
					<path fill="#E7E8E8" d="M8.497,4.028C8.476,4.063,8.413,4.07,8.376,4.088C7.619,4.463,7.236,5.173,7.11,5.406
						C7.102,5.421,6.3,7.036,6.358,7.996c-2.146,0-3.864,0-3.864,0c0-3.312,2.691-6.003,6.003-6.003
						C8.497,1.993,8.497,2.813,8.497,4.028"/>
					<path fill="#E3E3E3" d="M8.497,3.909C8.473,3.948,8.401,3.956,8.36,3.976c-0.193,0.095-0.858,0.47-1.318,1.322
						C7.033,5.313,6.217,6.84,6.289,7.996c-2.114,0-3.794,0-3.794,0c0-3.312,2.691-6.003,6.003-6.003
						C8.497,1.993,8.497,2.76,8.497,3.909"/>
					<path fill="#DEDFDF" d="M8.497,3.773C8.464,3.827,8.364,3.84,8.308,3.868C8.051,3.997,7.399,4.398,6.89,5.342
						C6.882,5.356,6.114,6.798,6.22,7.996c-2.082,0-3.726,0-3.726,0c0-3.312,2.691-6.003,6.003-6.003
						C8.497,1.993,8.497,2.7,8.497,3.773"/>
					<path fill="#D9DADA" d="M8.497,3.616c-0.013,0.021-0.05,0.025-0.071,0.036C7.39,4.169,6.929,5.026,6.778,5.308
						C6.747,5.365,6.02,6.736,6.143,7.996c-2.045,0-3.649,0-3.649,0c0-3.312,2.691-6.003,6.003-6.003
						C8.497,1.993,8.497,2.631,8.497,3.616"/>
					<path fill="#D4D5D5" d="M8.497,3.442C8.459,3.505,8.345,3.521,8.28,3.554c-0.162,0.083-0.996,0.55-1.59,1.663
						c-0.08,0.15-0.779,1.503-0.625,2.779c-2.007,0-3.57,0-3.57,0c0-3.312,2.691-6.003,6.003-6.003
						C8.497,1.993,8.497,2.557,8.497,3.442"/>
					<path fill="#CFD0D0" d="M8.497,3.264c-0.034,0.053-0.133,0.063-0.19,0.091C8.064,3.471,7.222,3.943,6.586,5.138
						C6.403,5.481,5.82,6.701,5.979,7.996c-1.966,0-3.485,0-3.485,0c0-3.312,2.691-6.003,6.003-6.003
						C8.497,1.993,8.497,2.482,8.497,3.264"/>
					<path fill="#CACBCB" d="M8.497,3.096C8.467,3.142,8.38,3.146,8.33,3.167C7.998,3.309,7.155,3.771,6.491,5.018
						C6.1,5.751,5.735,6.919,5.886,7.996c-1.921,0-3.392,0-3.392,0c0-3.312,2.691-6.003,6.003-6.003
						C8.497,1.993,8.497,2.413,8.497,3.096"/>
					<path fill="#C6C6C6" d="M8.497,2.944C8.474,2.978,8.408,2.977,8.37,2.991c-0.548,0.201-1.336,0.69-1.976,1.883
						c-0.41,0.764-0.785,1.985-0.609,3.122c-1.871,0-3.291,0-3.291,0c0-3.312,2.691-6.003,6.003-6.003
						C8.497,1.993,8.497,2.351,8.497,2.944"/>
					<path fill="#C1C2C2" d="M8.497,2.809C8.486,2.824,8.458,2.821,8.44,2.827c-0.893,0.275-1.616,0.913-2.15,1.894
						c-0.43,0.79-0.817,2.064-0.616,3.275c-1.816,0-3.18,0-3.18,0c0-3.312,2.691-6.003,6.003-6.003
						C8.497,1.993,8.497,2.297,8.497,2.809"/>
					<path fill="#BCBDBD" d="M8.497,2.688C8.456,2.744,8.341,2.734,8.274,2.754c-0.392,0.117-1.38,0.527-2.091,1.809
						C5.6,5.615,5.364,6.898,5.552,7.996c-1.755,0-3.058,0-3.058,0c0-3.312,2.691-6.003,6.003-6.003
						C8.497,1.993,8.497,2.25,8.497,2.688"/>
					<path fill="#B7B8B8" d="M8.497,2.579c-0.022,0.027-0.08,0.02-0.114,0.028c-0.934,0.23-1.795,0.903-2.304,1.8
						c-0.625,1.1-0.866,2.408-0.661,3.589c-1.687,0-2.924,0-2.924,0c0-3.312,2.691-6.003,6.003-6.003
						C8.497,1.993,8.497,2.207,8.497,2.579"/>
					<path fill="#B2B3B3" d="M8.497,2.48C8.445,2.546,8.306,2.526,8.224,2.546C7.883,2.627,6.709,3.001,5.899,4.389
						C5.608,4.886,4.966,6.232,5.273,7.996c-1.612,0-2.779,0-2.779,0c0-3.312,2.691-6.003,6.003-6.003
						C8.497,1.993,8.497,2.17,8.497,2.48"/>
					<path fill="#AEAEAE" d="M8.497,2.392C8.471,2.423,8.403,2.41,8.362,2.417c-0.618,0.12-1.778,0.526-2.608,1.904
						C5.458,4.814,4.802,6.159,5.123,7.996c-1.534,0-2.628,0-2.628,0c0-3.312,2.691-6.003,6.003-6.003
						C8.497,1.993,8.497,2.136,8.497,2.392"/>
					<path fill="#A9A9A9" d="M8.497,2.312C8.44,2.379,8.294,2.35,8.207,2.366C7.939,2.416,6.556,2.741,5.64,4.217
						C5.249,4.846,4.643,6.173,4.967,7.996c-1.452,0-2.473,0-2.473,0c0-3.312,2.691-6.003,6.003-6.003
						C8.497,1.993,8.497,2.106,8.497,2.312"/>
					<path fill="#A4A5A5" d="M8.497,2.239C8.469,2.272,8.396,2.254,8.354,2.261c-1.111,0.163-2.181,0.854-2.79,1.805
						c-0.754,1.177-1.008,2.5-0.755,3.93c-1.367,0-2.314,0-2.314,0c0-3.312,2.691-6.003,6.003-6.003
						C8.497,1.993,8.497,2.08,8.497,2.239"/>
					<path fill="#9FA0A0" d="M8.497,2.176C8.438,2.244,8.289,2.205,8.2,2.218C7.908,2.259,6.401,2.542,5.388,4.074
						c-0.514,0.777-1.059,2.087-0.74,3.922c-1.28,0-2.154,0-2.154,0c0-3.312,2.691-6.003,6.003-6.003
						C8.497,1.993,8.497,2.057,8.497,2.176"/>
					<path fill="#9A9B9B" d="M8.497,2.12C8.461,2.16,8.373,2.133,8.32,2.139C7.744,2.2,6.29,2.508,5.241,4.045
						C4.506,5.122,4.223,6.599,4.485,7.996c-1.191,0-1.991,0-1.991,0c0-3.312,2.691-6.003,6.003-6.003
						C8.497,1.993,8.497,2.037,8.497,2.12"/>
					<path fill="#959696" d="M8.497,2.072C8.436,2.14,8.285,2.093,8.194,2.103C7.88,2.133,6.259,2.368,5.152,3.938
						c-0.557,0.79-1.154,2.136-0.833,4.059c-1.099,0-1.825,0-1.825,0c0-3.312,2.691-6.003,6.003-6.003
						C8.497,1.993,8.497,2.021,8.497,2.072"/>
					<path fill="#919191" d="M8.497,2.034C8.437,2.1,8.29,2.05,8.201,2.057c-0.899,0.069-2.26,0.576-3.135,1.776
						C4.197,5.024,3.889,6.425,4.15,7.996c-1.003,0-1.656,0-1.656,0c0-3.312,2.691-6.003,6.003-6.003
						C8.497,1.993,8.497,2.007,8.497,2.034"/>
					<path fill="#8C8C8C" d="M8.497,2.007C8.451,2.056,8.341,2.015,8.274,2.018c-1.259,0.061-2.55,0.734-3.291,1.715
						C4.048,4.97,3.708,6.405,3.973,7.996c-0.902,0-1.479,0-1.479,0c0-3.312,2.691-6.003,6.003-6.003
						C8.497,1.993,8.497,1.998,8.497,2.007"/>
					<path fill="#878888" d="M8.497,1.994C8.451,2.041,8.344,1.998,8.279,2C7.48,2.02,5.957,2.288,4.731,3.85
						c-0.399,0.509-1.29,1.93-0.946,4.146c-0.794,0-1.291,0-1.291,0C2.494,4.684,5.185,1.993,8.497,1.994
						C8.497,1.993,8.497,1.993,8.497,1.994"/>
					<path fill="#828383" d="M7.583,2.063C4.459,2.624,3.189,5.539,3.581,7.996c-0.674,0-1.086,0-1.086,0
						c0-3.064,2.303-5.597,5.271-5.958C7.71,2.045,7.638,2.054,7.583,2.063"/>
					<path fill="#7D7E7E" d="M6.435,2.359C4.234,3.212,2.99,5.477,3.34,7.996c-0.53,0-0.846,0-0.846,0
						c0-2.688,1.771-4.966,4.209-5.729C6.623,2.294,6.515,2.33,6.435,2.359"/>
				</g>
			</g>
			<g enable-background="new    ">
				<defs>
					<path id="SVGID_13_" enable-background="new    " d="M8.497,5.993c0-2.209,0-4,0-4h63c0,0,0,1.791,0,4H8.497z"/>
				</defs>
				<clipPath id="SVGID_14_">
					<use xlink:href="#SVGID_13_"  overflow="visible"/>
				</clipPath>
				<g clip-path="url(#SVGID_14_)" enable-background="new    ">
					<path fill="#F3F4F4" d="M71.497,5.993h-63c0-0.024,0-0.048,0-0.073h63C71.497,5.945,71.497,5.969,71.497,5.993"/>
					<path fill="#F3F4F4" d="M71.497,5.92h-63c0-0.026,0-0.053,0-0.079h63C71.497,5.868,71.497,5.894,71.497,5.92"/>
					<path fill="#F4F5F5" d="M71.497,5.841h-63c0-0.027,0-0.053,0-0.079h63C71.497,5.788,71.497,5.814,71.497,5.841"/>
					<path fill="#F4F5F5" d="M71.497,5.762h-63c0-0.026,0-0.053,0-0.079h63C71.497,5.709,71.497,5.736,71.497,5.762"/>
					<path fill="#F5F5F5" d="M71.497,5.684h-63c0-0.038,0-0.075,0-0.112h63C71.497,5.609,71.497,5.646,71.497,5.684"/>
					<path fill="#F5F6F6" d="M71.497,5.572h-63c0-0.04,0-0.081,0-0.121h63C71.497,5.491,71.497,5.532,71.497,5.572"/>
					<path fill="#F5F6F6" d="M71.497,5.451h-63c0-0.085,0-0.169,0-0.252h63C71.497,5.282,71.497,5.366,71.497,5.451"/>
					<path fill="#F6F6F6" d="M71.497,5.199h-63c0-0.063,0-0.125,0-0.187h63C71.497,5.074,71.497,5.136,71.497,5.199"/>
					<path fill="#F5F6F6" d="M71.497,5.012h-63c0-0.053,0-0.105,0-0.157h63C71.497,4.907,71.497,4.959,71.497,5.012"/>
					<path fill="#F5F6F6" d="M71.497,4.855h-63c0-0.049,0-0.097,0-0.145h63C71.497,4.758,71.497,4.806,71.497,4.855"/>
					<path fill="#F5F5F5" d="M71.497,4.71h-63c0-0.033,0-0.065,0-0.097h63C71.497,4.646,71.497,4.678,71.497,4.71"/>
					<path fill="#F4F5F5" d="M71.497,4.613h-63c0-0.032,0-0.064,0-0.096h63C71.497,4.549,71.497,4.581,71.497,4.613"/>
					<path fill="#F4F5F5" d="M71.497,4.518h-63c0-0.032,0-0.063,0-0.095h63C71.497,4.454,71.497,4.486,71.497,4.518"/>
					<path fill="#F3F4F4" d="M71.497,4.423h-63c0-0.032,0-0.064,0-0.095h63C71.497,4.359,71.497,4.391,71.497,4.423"/>
					<path fill="#F3F4F4" d="M71.497,4.328h-63c0-0.032,0-0.063,0-0.094h63C71.497,4.265,71.497,4.296,71.497,4.328"/>
					<path fill="#F1F2F2" d="M71.497,4.233h-63c0-0.032,0-0.064,0-0.096h63C71.497,4.169,71.497,4.201,71.497,4.233"/>
					<path fill="#ECEDED" d="M71.497,4.137h-63c0-0.039,0-0.077,0-0.115h63C71.497,4.06,71.497,4.099,71.497,4.137"/>
					<path fill="#E7E8E8" d="M71.497,4.022h-63c0-0.038,0-0.076,0-0.113h63C71.497,3.946,71.497,3.984,71.497,4.022"/>
					<path fill="#E3E3E3" d="M71.497,3.909h-63c0-0.048,0-0.096,0-0.143h63C71.497,3.813,71.497,3.86,71.497,3.909"/>
					<path fill="#DEDFDF" d="M71.497,3.766h-63c0-0.05,0-0.1,0-0.149h63C71.497,3.666,71.497,3.716,71.497,3.766"/>
					<path fill="#D9DADA" d="M71.497,3.617h-63c0-0.06,0-0.119,0-0.176h63C71.497,3.499,71.497,3.557,71.497,3.617"/>
					<path fill="#D4D5D5" d="M71.497,3.441h-63c0-0.061,0-0.119,0-0.176h63C71.497,3.322,71.497,3.381,71.497,3.441"/>
					<path fill="#CFD0D0" d="M71.497,3.265h-63c0-0.057,0-0.113,0-0.167h63C71.497,3.152,71.497,3.208,71.497,3.265"/>
					<path fill="#CACBCB" d="M71.497,3.098h-63c0-0.053,0-0.104,0-0.153h63C71.497,2.994,71.497,3.045,71.497,3.098"/>
					<path fill="#C6C6C6" d="M71.497,2.945h-63c0-0.046,0-0.091,0-0.134h63C71.497,2.854,71.497,2.898,71.497,2.945"/>
					<path fill="#C1C2C2" d="M71.497,2.811h-63c0-0.042,0-0.083,0-0.122h63C71.497,2.728,71.497,2.769,71.497,2.811"/>
					<path fill="#BCBDBD" d="M71.497,2.689h-63c0-0.038,0-0.075,0-0.11h63C71.497,2.614,71.497,2.651,71.497,2.689"/>
					<path fill="#B7B8B8" d="M71.497,2.579h-63c0-0.034,0-0.067,0-0.098h63C71.497,2.512,71.497,2.545,71.497,2.579"/>
					<path fill="#B2B3B3" d="M71.497,2.481h-63c0-0.031,0-0.061,0-0.089h63C71.497,2.42,71.497,2.45,71.497,2.481"/>
					<path fill="#AEAEAE" d="M71.497,2.392h-63c0-0.028,0-0.055,0-0.08h63C71.497,2.337,71.497,2.364,71.497,2.392"/>
					<path fill="#A9A9A9" d="M71.497,2.312h-63c0-0.025,0-0.049,0-0.072h63C71.497,2.262,71.497,2.286,71.497,2.312"/>
					<path fill="#A4A5A5" d="M71.497,2.239h-63c0-0.022,0-0.044,0-0.064h63C71.497,2.195,71.497,2.217,71.497,2.239"/>
					<path fill="#9FA0A0" d="M71.497,2.175h-63c0-0.02,0-0.039,0-0.056h63C71.497,2.137,71.497,2.155,71.497,2.175"/>
					<path fill="#9A9B9B" d="M71.497,2.12h-63c0-0.018,0-0.034,0-0.048h63C71.497,2.086,71.497,2.102,71.497,2.12"/>
					<path fill="#959696" d="M71.497,2.072h-63c0-0.015,0-0.027,0-0.038h63C71.497,2.044,71.497,2.057,71.497,2.072"/>
					<path fill="#919191" d="M71.497,2.034h-63c0-0.012,0-0.021,0-0.027h63C71.497,2.014,71.497,2.022,71.497,2.034"/>
					<path fill="#8C8C8C" d="M71.497,2.007h-63c0-0.007,0-0.012,0-0.013h63C71.497,1.995,71.497,2,71.497,2.007"/>
					<polyline fill="#878888" points="71.497,1.994 8.497,1.994 8.497,1.993 71.497,1.993 71.497,1.994 					"/>
				</g>
			</g>
			<g enable-background="new    ">
				<defs>
					<path id="SVGID_15_" enable-background="new    " d="M8.497,33.993c0,2.21,0,4,0,4c-3.312,0-6.003-2.683-6.003-5.994
						c0,0,1.791,0,4,0C6.491,33.093,7.395,33.996,8.497,33.993z"/>
				</defs>
				<clipPath id="SVGID_16_">
					<use xlink:href="#SVGID_15_"  overflow="visible"/>
				</clipPath>
				<g clip-path="url(#SVGID_16_)" enable-background="new    ">
					<path fill="#F1F2F2" d="M8.497,33.993c0,2.21,0,4,0,4c-3.312,0-6.003-2.683-6.003-5.994c0,0,1.791,0,4,0
						C6.491,33.093,7.395,33.996,8.497,33.993"/>
					<path fill="#F1F2F2" d="M6.488,31.999c0.022,0.021,0.002,0.071,0.002,0.103C6.509,32.868,7.144,33.965,8.497,34
						c0,2.206,0,3.993,0,3.993c-3.312,0-6.003-2.683-6.003-5.994C2.494,31.999,4.281,31.999,6.488,31.999"/>
					<path fill="#ECEDED" d="M6.423,31.999c0.023,0.022,0.003,0.074,0.004,0.105c0.029,0.773,0.69,1.896,2.07,1.971
						c0,2.172,0,3.918,0,3.918c-3.312,0-6.003-2.683-6.003-5.994C2.494,31.999,4.246,31.999,6.423,31.999"/>
					<path fill="#E7E8E8" d="M6.358,31.999c0.023,0.022,0.004,0.076,0.005,0.108c0.036,0.727,0.647,1.923,2.134,2.044
						c0,2.137,0,3.842,0,3.842c-3.312,0-6.003-2.683-6.003-5.994C2.494,31.999,4.211,31.999,6.358,31.999"/>
					<path fill="#E3E3E3" d="M6.289,31.999c0.024,0.023,0.005,0.079,0.007,0.112c0.045,0.737,0.684,1.964,2.202,2.117
						c0,2.1,0,3.765,0,3.765c-3.312,0-6.003-2.683-6.003-5.994C2.494,31.999,4.174,31.999,6.289,31.999"/>
					<path fill="#DEDFDF" d="M6.219,31.999c0.025,0.023,0.006,0.081,0.008,0.116c0.056,0.776,0.707,2.002,2.27,2.193
						c0,2.062,0,3.685,0,3.685c-3.312,0-6.003-2.683-6.003-5.994C2.494,31.999,4.138,31.999,6.219,31.999"/>
					<path fill="#D9DADA" d="M6.142,31.999c0.027,0.024,0.007,0.084,0.011,0.12c0.069,0.797,0.751,2.061,2.344,2.271
						c0,2.023,0,3.604,0,3.604c-3.312,0-6.003-2.683-6.003-5.994C2.494,31.999,4.098,31.999,6.142,31.999"/>
					<path fill="#D4D5D5" d="M6.063,31.999c0.027,0.025,0.009,0.087,0.013,0.124c0.074,0.702,0.675,2.099,2.421,2.355
						c0,1.98,0,3.515,0,3.515c-3.312,0-6.003-2.683-6.003-5.994C2.494,31.999,4.057,31.999,6.063,31.999"/>
					<path fill="#CFD0D0" d="M5.978,31.999c0.029,0.025,0.01,0.09,0.014,0.128c0.079,0.716,0.703,2.147,2.505,2.443
						c0,1.937,0,3.423,0,3.423c-3.312,0-6.003-2.683-6.003-5.994C2.494,31.999,4.012,31.999,5.978,31.999"/>
					<path fill="#CACBCB" d="M5.884,31.999c0.03,0.026,0.012,0.093,0.017,0.133c0.13,1.039,0.998,2.276,2.596,2.538
						c0,1.888,0,3.323,0,3.323c-3.312,0-6.003-2.683-6.003-5.994C2.494,31.999,3.964,31.999,5.884,31.999"/>
					<path fill="#C6C6C6" d="M5.784,31.999c0.203,1.447,1.243,2.513,2.713,2.781c0,1.833,0,3.213,0,3.213
						c-3.312,0-6.003-2.683-6.003-5.994C2.494,31.999,3.913,31.999,5.784,31.999"/>
					<path fill="#C1C2C2" d="M5.673,31.999c0.026,0.022,0.012,0.08,0.017,0.114c0.171,1.145,1.105,2.45,2.807,2.788
						c0,1.771,0,3.092,0,3.092c-3.312,0-6.003-2.683-6.003-5.994C2.494,31.999,3.857,31.999,5.673,31.999"/>
					<path fill="#BCBDBD" d="M5.55,31.999c0.013,0.011,0.006,0.039,0.008,0.056c0.18,1.174,1.047,2.573,2.938,2.979
						c0,1.705,0,2.96,0,2.96c-3.312,0-6.003-2.683-6.003-5.994C2.494,31.999,3.796,31.999,5.55,31.999"/>
					<path fill="#B7B8B8" d="M5.416,31.999c0.021,0.019,0.011,0.064,0.016,0.092c0.205,1.202,1.118,2.645,3.065,3.085
						c0,1.632,0,2.817,0,2.817c-3.312,0-6.003-2.683-6.003-5.994C2.494,31.999,3.73,31.999,5.416,31.999"/>
					<path fill="#B2B3B3" d="M5.272,31.999c0.039,0.032,0.022,0.114,0.031,0.164c0.232,1.222,1.194,2.696,3.194,3.165
						c0,1.553,0,2.665,0,2.665c-3.312,0-6.003-2.683-6.003-5.994C2.494,31.999,3.66,31.999,5.272,31.999"/>
					<path fill="#AEAEAE" d="M5.121,31.999c0.04,0.033,0.023,0.12,0.033,0.171c0.12,0.612,0.716,2.661,3.343,3.318
						c0,1.469,0,2.505,0,2.505c-3.312,0-6.003-2.683-6.003-5.994C2.494,31.999,3.588,31.999,5.121,31.999"/>
					<path fill="#A9A9A9" d="M4.965,31.999c0.042,0.035,0.025,0.126,0.036,0.18c0.091,0.456,0.687,2.769,3.496,3.472
						c0,1.382,0,2.343,0,2.343c-3.312,0-6.003-2.683-6.003-5.994C2.494,31.999,3.515,31.999,4.965,31.999"/>
					<path fill="#A4A5A5" d="M4.807,31.999c0.015,0.013,0.008,0.044,0.012,0.063c0.269,1.447,1.376,3.193,3.678,3.752
						c0,1.294,0,2.179,0,2.179c-3.312,0-6.003-2.683-6.003-5.994C2.494,31.999,3.441,31.999,4.807,31.999"/>
					<path fill="#9FA0A0" d="M4.646,31.999c0.046,0.038,0.027,0.137,0.039,0.195c0.101,0.5,0.756,3.031,3.812,3.785
						c0,1.203,0,2.014,0,2.014c-3.312,0-6.003-2.683-6.003-5.994C2.494,31.999,3.367,31.999,4.646,31.999"/>
					<path fill="#9A9B9B" d="M4.484,31.999c0.048,0.04,0.028,0.143,0.04,0.204c0.288,1.462,1.5,3.372,3.973,3.942
						c0,1.111,0,1.848,0,1.848c-3.312,0-6.003-2.683-6.003-5.994C2.494,31.999,3.294,31.999,4.484,31.999"/>
					<path fill="#959696" d="M4.318,31.999c0.05,0.041,0.029,0.148,0.042,0.213c0.297,1.513,1.559,3.494,4.137,4.101
						c0,1.018,0,1.681,0,1.681c-3.312,0-6.003-2.683-6.003-5.994C2.494,31.999,3.22,31.999,4.318,31.999"/>
					<path fill="#919191" d="M4.149,31.999c0.052,0.043,0.029,0.155,0.042,0.222c0.065,0.35,0.744,3.442,4.307,4.264
						c0,0.92,0,1.509,0,1.509c-3.312,0-6.003-2.683-6.003-5.994C2.494,31.999,3.146,31.999,4.149,31.999"/>
					<path fill="#8C8C8C" d="M3.972,31.999c0.054,0.045,0.029,0.161,0.042,0.23c0.319,1.751,1.858,3.884,4.483,4.432
						c0,0.817,0,1.332,0,1.332c-3.312,0-6.003-2.683-6.003-5.994C2.494,31.999,3.07,31.999,3.972,31.999"/>
					<path fill="#878888" d="M3.784,31.999c0.056,0.047,0.029,0.168,0.042,0.24c0.322,1.84,1.921,4.066,4.671,4.607
						c0,0.709,0,1.146,0,1.146c-3.312,0-6.003-2.683-6.003-5.994C2.494,31.999,2.991,31.999,3.784,31.999"/>
					<path fill="#828383" d="M3.58,31.999c0.058,0.05,0.028,0.176,0.041,0.251c0.223,1.375,1.528,4.147,4.876,4.797
						c0,0.591,0,0.946,0,0.946c-3.312,0-6.003-2.683-6.003-5.994C2.494,31.999,2.907,31.999,3.58,31.999"/>
					<path fill="#7D7E7E" d="M3.34,31.999c0.061,0.052,0.027,0.185,0.039,0.263c0.249,1.699,1.818,4.437,5.118,5.017
						c0,0.451,0,0.715,0,0.715c-3.312,0-6.003-2.683-6.003-5.994C2.494,31.999,2.81,31.999,3.34,31.999"/>
				</g>
			</g>
			<g enable-background="new    ">
				<defs>
					<path id="SVGID_17_" enable-background="new    " d="M73.5,7.996c2.21,0,4,0,4,0v24.003c0,0-1.79,0-4,0V7.996z"/>
				</defs>
				<clipPath id="SVGID_18_">
					<use xlink:href="#SVGID_17_"  overflow="visible"/>
				</clipPath>
				<g clip-path="url(#SVGID_18_)" enable-background="new    ">
					<path fill="#F3F4F4" d="M73.5,31.999V7.996c0.02,0,0.038,0,0.058,0v24.003C73.538,31.999,73.52,31.999,73.5,31.999"/>
					<path fill="#F3F4F4" d="M73.558,31.999V7.996c0.021,0,0.042,0,0.063,0v24.003C73.6,31.999,73.579,31.999,73.558,31.999"/>
					<path fill="#F4F5F5" d="M73.621,31.999V7.996c0.021,0,0.042,0,0.063,0v24.003C73.663,31.999,73.642,31.999,73.621,31.999"/>
					<path fill="#F4F5F5" d="M73.684,31.999V7.996c0.021,0,0.042,0,0.063,0v24.003C73.726,31.999,73.705,31.999,73.684,31.999"/>
					<path fill="#F5F5F5" d="M73.747,31.999V7.996c0.021,0,0.041,0,0.063,0v24.003C73.788,31.999,73.768,31.999,73.747,31.999"/>
					<path fill="#F5F6F6" d="M73.81,31.999V7.996c0.024,0,0.049,0,0.073,0v24.003C73.858,31.999,73.834,31.999,73.81,31.999"/>
					<path fill="#F5F6F6" d="M73.883,31.999V7.996c0.026,0,0.053,0,0.079,0v24.003C73.936,31.999,73.909,31.999,73.883,31.999"/>
					<path fill="#F6F6F6" d="M73.962,31.999V7.996c0.026,0,0.052,0,0.078,0v24.003C74.014,31.999,73.988,31.999,73.962,31.999"/>
					<path fill="#F6F7F7" d="M74.04,31.999V7.996c0.025,0,0.052,0,0.077,0v24.003C74.092,31.999,74.065,31.999,74.04,31.999"/>
					<path fill="#F6F7F7" d="M74.117,31.999V7.996c0.054,0,0.105,0,0.158,0v24.003C74.223,31.999,74.171,31.999,74.117,31.999"/>
					<path fill="#F7F7F7" d="M74.275,31.999V7.996c0.125,0,0.248,0,0.368,0v24.003C74.523,31.999,74.4,31.999,74.275,31.999"/>
					<path fill="#F6F7F7" d="M74.644,31.999V7.996c0.054,0,0.105,0,0.157,0v24.003C74.749,31.999,74.697,31.999,74.644,31.999"/>
					<path fill="#F6F7F7" d="M74.801,31.999V7.996c0.03,0,0.06,0,0.089,0v24.003C74.86,31.999,74.831,31.999,74.801,31.999"/>
					<path fill="#F6F6F6" d="M74.89,31.999V7.996c0.03,0,0.06,0,0.089,0v24.003C74.949,31.999,74.92,31.999,74.89,31.999"/>
					<path fill="#F5F6F6" d="M74.979,31.999V7.996c0.028,0,0.058,0,0.086,0v24.003C75.036,31.999,75.007,31.999,74.979,31.999"/>
					<path fill="#F5F6F6" d="M75.064,31.999V7.996c0.025,0,0.052,0,0.077,0v24.003C75.116,31.999,75.09,31.999,75.064,31.999"/>
					<path fill="#F5F5F5" d="M75.142,31.999V7.996c0.025,0,0.052,0,0.076,0v24.003C75.193,31.999,75.167,31.999,75.142,31.999"/>
					<path fill="#F4F5F5" d="M75.218,31.999V7.996c0.025,0,0.051,0,0.076,0v24.003C75.269,31.999,75.243,31.999,75.218,31.999"/>
					<path fill="#F4F5F5" d="M75.294,31.999V7.996c0.027,0,0.054,0,0.081,0v24.003C75.348,31.999,75.321,31.999,75.294,31.999"/>
					<path fill="#F3F4F4" d="M75.375,31.999V7.996c0.029,0,0.06,0,0.089,0v24.003C75.435,31.999,75.404,31.999,75.375,31.999"/>
					<path fill="#F3F4F4" d="M75.464,31.999V7.996c0.029,0,0.059,0,0.088,0v24.003C75.522,31.999,75.493,31.999,75.464,31.999"/>
					<path fill="#F1F2F2" d="M75.552,31.999V7.996c0.033,0,0.065,0,0.099,0v24.003C75.617,31.999,75.585,31.999,75.552,31.999"/>
					<path fill="#ECEDED" d="M75.65,31.999V7.996c0.04,0,0.08,0,0.119,0v24.003C75.73,31.999,75.69,31.999,75.65,31.999"/>
					<path fill="#E7E8E8" d="M75.77,31.999V7.996c0.042,0,0.083,0,0.124,0v24.003C75.853,31.999,75.812,31.999,75.77,31.999"/>
					<path fill="#E3E3E3" d="M75.894,31.999V7.996c0.054,0,0.105,0,0.156,0v24.003C75.999,31.999,75.947,31.999,75.894,31.999"/>
					<path fill="#DEDFDF" d="M76.05,31.999V7.996c0.057,0,0.112,0,0.166,0v24.003C76.162,31.999,76.106,31.999,76.05,31.999"/>
					<path fill="#D9DADA" d="M76.216,31.999V7.996c0.057,0,0.112,0,0.167,0v24.003C76.328,31.999,76.272,31.999,76.216,31.999"/>
					<path fill="#D4D5D5" d="M76.383,31.999V7.996c0.054,0,0.105,0,0.156,0v24.003C76.488,31.999,76.437,31.999,76.383,31.999"/>
					<path fill="#CFD0D0" d="M76.539,31.999V7.996c0.048,0,0.093,0,0.137,0v24.003C76.632,31.999,76.587,31.999,76.539,31.999"/>
					<path fill="#CACBCB" d="M76.676,31.999V7.996c0.043,0,0.084,0,0.123,0v24.003C76.76,31.999,76.719,31.999,76.676,31.999"/>
					<path fill="#C6C6C6" d="M76.799,31.999V7.996c0.038,0,0.074,0,0.11,0v24.003C76.873,31.999,76.837,31.999,76.799,31.999"/>
					<path fill="#C1C2C2" d="M76.909,31.999V7.996c0.033,0,0.065,0,0.096,0v24.003C76.975,31.999,76.942,31.999,76.909,31.999"/>
					<path fill="#BCBDBD" d="M77.005,31.999V7.996c0.03,0,0.06,0,0.088,0v24.003C77.064,31.999,77.035,31.999,77.005,31.999"/>
					<path fill="#B7B8B8" d="M77.093,31.999V7.996c0.027,0,0.053,0,0.078,0v24.003C77.146,31.999,77.12,31.999,77.093,31.999"/>
					<path fill="#B2B3B3" d="M77.171,31.999V7.996c0.024,0,0.047,0,0.069,0v24.003C77.218,31.999,77.195,31.999,77.171,31.999"/>
					<path fill="#AEAEAE" d="M77.24,31.999V7.996c0.021,0,0.042,0,0.062,0v24.003C77.282,31.999,77.262,31.999,77.24,31.999"/>
					<path fill="#A9A9A9" d="M77.302,31.999V7.996c0.02,0,0.037,0,0.054,0v24.003C77.339,31.999,77.321,31.999,77.302,31.999"/>
					<path fill="#A4A5A5" d="M77.355,31.999V7.996c0.018,0,0.033,0,0.047,0v24.003C77.389,31.999,77.373,31.999,77.355,31.999"/>
					<path fill="#9FA0A0" d="M77.402,31.999V7.996c0.015,0,0.027,0,0.038,0v24.003C77.43,31.999,77.417,31.999,77.402,31.999"/>
					<path fill="#9A9B9B" d="M77.44,31.999V7.996c0.012,0,0.022,0,0.03,0v24.003C77.463,31.999,77.452,31.999,77.44,31.999"/>
					<path fill="#959696" d="M77.471,31.999V7.996c0.009,0,0.016,0,0.021,0v24.003C77.486,31.999,77.479,31.999,77.471,31.999"/>
					<polyline fill="#919191" points="77.491,31.999 77.491,7.996 77.5,7.996 77.5,31.999 77.491,31.999 					"/>
					<polyline fill="#8C8C8C" points="77.5,31.999 77.5,7.996 77.5,7.996 77.5,31.999 77.5,31.999 					"/>
				</g>
			</g>
			<g>
				<path fill="#D1D2D2" d="M71.497,5.993c1.097-0.004,2.007,0.906,2.003,2.003c0,8.001,0,16.002,0,24.003
					c0.004,1.094-0.901,1.997-2.003,1.994c-21,0-42,0-63,0c-1.102,0.003-2.006-0.9-2.003-1.994c0-8.001,0-16.002,0-24.003
					C6.49,6.898,7.399,5.989,8.497,5.993C29.497,5.993,50.497,5.993,71.497,5.993z"/>
			</g>
		</g>
	</g>
</g>
</svg>
