<?xml version="1.0" encoding="utf-8"?>
<!-- Generator: Adobe Illustrator 15.0.2, SVG Export Plug-In . SVG Version: 6.00 Build 0)  -->
<!DOCTYPE svg PUBLIC "-//W3C//DTD SVG 1.1//EN" "http://www.w3.org/Graphics/SVG/1.1/DTD/svg11.dtd">
<svg version="1.1" id="Layer_1" xmlns="http://www.w3.org/2000/svg" xmlns:xlink="http://www.w3.org/1999/xlink" x="0px" y="0px"
	 width="221px" height="360px" viewBox="0 0 221 360" enable-background="new 0 0 221 360" xml:space="preserve">
<linearGradient id="SVGID_1_" gradientUnits="userSpaceOnUse" x1="-79.2642" y1="283.5234" x2="100" y2="283.5234" gradientTransform="matrix(1 0 0 -1 116 439)">
	<stop  offset="0" style="stop-color:#E5E2DF"/>
	<stop  offset="0" style="stop-color:#DAD7D5"/>
	<stop  offset="0" style="stop-color:#BBBABA"/>
	<stop  offset="0" style="stop-color:#8B8B8D"/>
	<stop  offset="0" style="stop-color:#484749"/>
	<stop  offset="0" style="stop-color:#282829"/>
	<stop  offset="0.3318" style="stop-color:#403F41"/>
	<stop  offset="0.5225" style="stop-color:#48484A"/>
	<stop  offset="0.646" style="stop-color:#424345"/>
	<stop  offset="0.8531" style="stop-color:#313538"/>
	<stop  offset="1" style="stop-color:#212729"/>
</linearGradient>
<path fill="url(#SVGID_1_)" stroke="#020202" stroke-miterlimit="10" d="M36.736,60.647c11.371-15.809,22.708-31.639,40.272-41.075
	c29.294-15.737,76.373-18.891,104.934,0.241c10.016,6.708,20.694,18.251,24.966,29.902c0,0,3.881,10.587,4.798,14.228
	c1.096,4.348,3.002,17.684,3.002,17.684L216,100.596v115.61l-0.323,12.558c0,0,0.084,10.188-0.194,13.744
	c-0.258,3.264-1.125,10.161-1.868,13.484c-9.787,43.66-61.035,52.848-98.897,46.607c-1.342-0.221-44.277-6.677-44.277-7.244V260.18
	l8.61,1.043l17.619-0.179l17.478-0.825c0,0,14.904-0.662,19.845-1.22c3.858-0.435,11.546-1.897,15.198-3.224
	c3.455-1.252,9.884-5.223,12.379-7.936c7.481-8.132,8.584-21.227,8.945-31.516c0.512-14.537,0.896-29.042,0.685-43.568
	c-0.388-26.628,2.618-54.829-2.229-81.16c-2.188-11.884-6.212-22.938-16.016-30.387c-2.451-1.862-7.909-4.875-10.822-5.871
	c-3.246-1.111-10.125-1.939-13.545-2.218c-3.471-0.283-13.926,0-13.926,0l-13.578,2.218l-7.002,1.663l-8.668,3.947l-24.497,0.261
	L36.736,60.647z"/>
<linearGradient id="SVGID_2_" gradientUnits="userSpaceOnUse" x1="-88.8755" y1="373.3691" x2="-19.8335" y2="373.3691" gradientTransform="matrix(1 0 0 -1 116 439)">
	<stop  offset="0" style="stop-color:#E5E2DF"/>
	<stop  offset="0" style="stop-color:#DAD7D5"/>
	<stop  offset="0" style="stop-color:#BBBABA"/>
	<stop  offset="0" style="stop-color:#8B8B8D"/>
	<stop  offset="0" style="stop-color:#484749"/>
	<stop  offset="0" style="stop-color:#282829"/>
	<stop  offset="0.3318" style="stop-color:#403F41"/>
	<stop  offset="0.5225" style="stop-color:#48484A"/>
	<stop  offset="0.646" style="stop-color:#424345"/>
	<stop  offset="0.8531" style="stop-color:#313538"/>
	<stop  offset="1" style="stop-color:#212729"/>
</linearGradient>
<path fill="url(#SVGID_2_)" stroke="#020202" stroke-miterlimit="10" d="M96.167,65.631c0,2.728-1.648,4.938-3.682,4.938H30.808
	c-2.034,0-3.683-2.211-3.683-4.938l0,0c0-2.728,1.649-4.938,3.683-4.938h61.677C94.518,60.692,96.167,62.903,96.167,65.631
	L96.167,65.631z"/>
<g>
	<g>
		
			<linearGradient id="SVGID_3_" gradientUnits="userSpaceOnUse" x1="-74.3496" y1="207.5879" x2="-38.3583" y2="207.5879" gradientTransform="matrix(1 0 0 -1 116 439)">
			<stop  offset="0" style="stop-color:#E5E2DF"/>
			<stop  offset="0" style="stop-color:#DEDAD6"/>
			<stop  offset="0.0385" style="stop-color:#C9C5C3"/>
			<stop  offset="0.1123" style="stop-color:#9D9C9C"/>
			<stop  offset="0.213" style="stop-color:#63676A"/>
			<stop  offset="0.264" style="stop-color:#475154"/>
			<stop  offset="0.2778" style="stop-color:#4E575A"/>
			<stop  offset="0.3498" style="stop-color:#74787A"/>
			<stop  offset="0.4177" style="stop-color:#97999A"/>
			<stop  offset="0.4796" style="stop-color:#B3B4B5"/>
			<stop  offset="0.5334" style="stop-color:#C5C6C6"/>
			<stop  offset="0.573" style="stop-color:#CBCDCD"/>
			<stop  offset="0.627" style="stop-color:#C5C6C7"/>
			<stop  offset="0.7179" style="stop-color:#B3B5B8"/>
			<stop  offset="0.8339" style="stop-color:#969CA1"/>
			<stop  offset="0.8764" style="stop-color:#8B9299"/>
			<stop  offset="1" style="stop-color:#D2D3D4"/>
			<stop  offset="1" style="stop-color:#A8AAAD"/>
		</linearGradient>
		<path fill="url(#SVGID_3_)" d="M45.923,355.696c-0.403-0.223-0.63-0.437-0.676-0.68c-0.041-0.235,0.104-0.459,0.412-0.628
			c0.788-0.435,1.585-0.262,6.766,1.148c0.357,0.097,0.756,0.205,1.164,0.314c-0.799-0.357-1.644-0.724-2.354-1.028
			c-4.286-1.853-5.915-2.618-5.991-3.322c-0.026-0.234,0.121-0.453,0.415-0.615c1.059-0.582,2.354-0.141,9.943,2.876
			c0.763,0.304,1.599,0.636,2.434,0.962c-1.285-0.598-2.646-1.211-3.794-1.728c-6.344-2.851-8.931-4.098-9.011-4.968
			c-0.022-0.24,0.13-0.464,0.428-0.628c1.175-0.647,2.56-0.18,12.337,4.189c1.56,0.696,3.358,1.499,5.008,2.212
			c-2.041-0.993-4.478-2.106-6.432-3.001c-8.002-3.654-11.271-5.239-11.354-6.236c-0.021-0.247,0.137-0.477,0.441-0.645
			c1.266-0.697,2.956-0.083,13.913,5.053c2.381,1.115,5.239,2.457,7.546,3.467c-2.505-1.283-6.067-2.924-8.992-4.269
			c-8.911-4.103-12.827-6.01-12.913-7.084c-0.02-0.251,0.14-0.483,0.448-0.653c1.317-0.727,3.102-0.059,14.704,5.493
			c2.784,1.332,6.19,2.961,8.747,4.083c-2.671-1.407-6.834-3.33-10.205-4.885c-9.457-4.365-13.608-6.393-13.696-7.508
			c-0.02-0.254,0.14-0.489,0.452-0.66c1.317-0.726,3.104-0.058,14.721,5.499c2.804,1.342,6.231,2.982,8.798,4.106
			c-2.676-1.414-6.861-3.347-10.25-4.909c-9.47-4.372-13.633-6.402-13.719-7.521c-0.02-0.254,0.14-0.487,0.452-0.66
			c1.317-0.726,3.104-0.058,14.721,5.5c2.802,1.342,6.229,2.98,8.796,4.104c-2.677-1.413-6.861-3.345-10.248-4.908
			c-9.47-4.371-13.633-6.401-13.719-7.519c-0.02-0.255,0.14-0.489,0.451-0.66c1.32-0.728,3.107-0.059,14.722,5.505
			c2.798,1.34,6.219,2.978,8.783,4.103c-2.675-1.411-6.851-3.34-10.232-4.898c-9.473-4.372-13.629-6.404-13.723-7.521
			c-0.018-0.255,0.143-0.488,0.452-0.659c1.316-0.727,3.104-0.06,14.716,5.49c2.811,1.345,6.252,2.988,8.821,4.111
			c-2.677-1.413-6.873-3.351-10.267-4.916c-9.473-4.371-13.629-6.404-13.723-7.521c-0.018-0.256,0.143-0.489,0.452-0.66
			c1.316-0.727,3.104-0.06,14.716,5.49c2.811,1.345,6.254,2.989,8.825,4.112c-2.677-1.414-6.877-3.353-10.274-4.921
			c-9.469-4.371-13.631-6.403-13.719-7.519c-0.019-0.256,0.141-0.489,0.452-0.66c1.316-0.727,3.104-0.061,14.72,5.489
			c2.811,1.345,6.253,2.987,8.825,4.109c-2.676-1.414-6.879-3.353-10.278-4.922c-9.471-4.372-13.633-6.402-13.719-7.52
			c-0.019-0.255,0.141-0.488,0.452-0.659c1.316-0.727,3.102-0.06,14.716,5.493c2.81,1.344,6.245,2.986,8.816,4.11
			c-2.677-1.414-6.873-3.35-10.266-4.915c-9.471-4.373-13.633-6.402-13.719-7.52c-0.019-0.254,0.141-0.489,0.452-0.66
			c1.318-0.727,3.105-0.06,14.721,5.494c2.808,1.343,6.247,2.984,8.815,4.107c-2.678-1.414-6.872-3.35-10.266-4.916
			c-9.473-4.372-13.631-6.403-13.723-7.52c-0.019-0.255,0.143-0.49,0.452-0.661c1.316-0.726,3.104-0.058,14.716,5.496
			c2.806,1.344,6.239,2.985,8.807,4.109c-2.676-1.413-6.865-3.348-10.256-4.911c-9.466-4.37-13.633-6.4-13.719-7.52
			c-0.021-0.255,0.141-0.488,0.45-0.66c1.318-0.727,3.105-0.058,14.718,5.503c2.8,1.341,6.227,2.98,8.794,4.106
			c-2.677-1.413-6.857-3.342-10.243-4.905c-9.469-4.37-13.631-6.401-13.719-7.519c-0.019-0.256,0.141-0.489,0.452-0.66
			c1.318-0.727,3.105-0.059,14.721,5.499c2.805,1.341,6.231,2.979,8.798,4.104c-2.674-1.414-6.859-3.345-10.248-4.907
			c-9.473-4.372-13.631-6.405-13.723-7.521c-0.019-0.256,0.143-0.49,0.452-0.66c1.318-0.728,3.107-0.059,14.721,5.502
			c2.799,1.34,6.223,2.979,8.788,4.103c-2.678-1.412-6.858-3.343-10.242-4.903c-9.468-4.371-13.631-6.402-13.719-7.52
			c-0.021-0.254,0.141-0.488,0.45-0.66c1.318-0.727,3.105-0.059,14.722,5.499c2.804,1.341,6.232,2.981,8.799,4.106
			c-2.674-1.414-6.861-3.348-10.252-4.91c-9.468-4.371-13.631-6.402-13.719-7.52c-0.021-0.255,0.141-0.489,0.45-0.661
			c1.318-0.726,3.105-0.058,14.725,5.495c2.806,1.342,6.239,2.982,8.81,4.105c-2.676-1.414-6.873-3.352-10.267-4.918
			c-9.467-4.369-13.63-6.401-13.719-7.519c-0.021-0.254,0.14-0.489,0.45-0.66c1.317-0.726,3.104-0.058,14.724,5.494
			c2.806,1.343,6.24,2.983,8.81,4.104c-2.677-1.412-6.871-3.35-10.267-4.916c-9.468-4.371-13.631-6.401-13.719-7.519
			c-0.021-0.255,0.14-0.489,0.45-0.661c1.317-0.726,3.104-0.058,14.725,5.495c2.806,1.343,6.239,2.981,8.809,4.104
			c-2.675-1.414-6.871-3.351-10.265-4.916c-9.468-4.37-13.631-6.401-13.719-7.52c-0.021-0.254,0.14-0.488,0.45-0.66
			c1.317-0.726,3.104-0.058,14.721,5.498c2.802,1.342,6.233,2.981,8.8,4.106c-2.675-1.413-6.861-3.347-10.25-4.909
			c-9.472-4.371-13.632-6.404-13.723-7.52c-0.02-0.256,0.142-0.49,0.452-0.662c1.315-0.726,3.104-0.057,14.715,5.494
			c2.81,1.345,6.245,2.987,8.817,4.11c-2.678-1.413-6.872-3.35-10.266-4.915c-9.468-4.369-13.629-6.402-13.719-7.52
			c-0.02-0.254,0.14-0.488,0.452-0.66c1.317-0.727,3.106-0.057,14.721,5.503c2.8,1.341,6.225,2.979,8.793,4.104
			c-2.678-1.412-6.86-3.345-10.249-4.906c-9.466-4.369-13.629-6.4-13.717-7.519c-0.02-0.254,0.14-0.489,0.45-0.659
			c1.317-0.727,3.105-0.059,14.721,5.496c2.808,1.342,6.241,2.983,8.812,4.106c-2.678-1.413-6.87-3.349-10.264-4.914
			c-9.468-4.37-13.629-6.402-13.719-7.519c-0.021-0.256,0.14-0.49,0.45-0.66c1.317-0.728,3.105-0.06,14.721,5.492
			c2.81,1.344,6.247,2.987,8.816,4.11c-2.677-1.414-6.873-3.353-10.269-4.918c-9.468-4.371-13.633-6.403-13.719-7.521
			c-0.02-0.254,0.14-0.488,0.452-0.66c1.315-0.725,3.104-0.057,14.719,5.494c2.81,1.342,6.245,2.983,8.814,4.106
			c-2.675-1.414-6.871-3.351-10.267-4.917c-9.468-4.37-13.631-6.402-13.719-7.52c-0.021-0.254,0.14-0.488,0.45-0.66
			c1.317-0.727,3.105-0.059,14.721,5.49c2.813,1.346,6.258,2.99,8.827,4.111c-2.675-1.414-6.88-3.354-10.279-4.924
			c-9.468-4.37-13.631-6.402-13.719-7.52c-0.02-0.254,0.14-0.488,0.452-0.66c1.317-0.727,3.104-0.057,14.721,5.506
			c2.797,1.339,6.214,2.977,8.778,4.102c-2.677-1.412-6.852-3.34-10.232-4.898c-9.468-4.371-13.631-6.402-13.719-7.521
			c-0.021-0.254,0.14-0.489,0.45-0.659c1.317-0.727,3.105-0.059,14.725,5.496c2.804,1.342,6.235,2.98,8.801,4.104
			c-2.676-1.412-6.866-3.348-10.257-4.912c-9.468-4.37-13.631-6.4-13.719-7.52c-0.021-0.254,0.14-0.488,0.45-0.66
			c1.316-0.726,3.105-0.059,14.721,5.49c2.812,1.344,6.25,2.987,8.822,4.11c-2.678-1.414-6.877-3.353-10.274-4.921
			c-9.466-4.372-13.631-6.403-13.719-7.52c-0.021-0.254,0.14-0.49,0.45-0.66c1.317-0.727,3.106-0.059,14.721,5.504
			c2.799,1.339,6.22,2.977,8.785,4.103c-2.677-1.413-6.855-3.342-10.239-4.903c-9.466-4.371-13.632-6.401-13.719-7.519
			c-0.021-0.255,0.141-0.489,0.45-0.66c1.316-0.726,3.105-0.059,14.717,5.488c2.815,1.346,6.262,2.991,8.833,4.114
			c-2.675-1.414-6.88-3.354-10.281-4.924c-9.468-4.371-13.631-6.402-13.719-7.521c-0.02-0.254,0.141-0.489,0.452-0.66
			c1.316-0.726,3.104-0.058,14.715,5.49c2.813,1.344,6.256,2.989,8.828,4.112c-2.676-1.414-6.875-3.353-10.272-4.92
			c-9.472-4.373-13.631-6.404-13.723-7.521c-0.02-0.256,0.142-0.49,0.452-0.661c1.316-0.727,3.105-0.059,14.718,5.493
			c2.811,1.342,6.246,2.983,8.816,4.106c-2.676-1.414-6.872-3.351-10.268-4.916c-9.468-4.371-13.632-6.402-13.719-7.521
			c-0.021-0.254,0.141-0.489,0.45-0.66c1.318-0.726,3.105-0.058,14.72,5.498c2.807,1.341,6.238,2.981,8.807,4.104
			c-2.677-1.411-6.867-3.346-10.258-4.91c-9.468-4.371-13.631-6.402-13.719-7.52c-0.021-0.255,0.141-0.49,0.45-0.66
			c1.316-0.726,3.105-0.059,14.72,5.492c2.813,1.344,6.253,2.987,8.823,4.11c-2.676-1.414-6.879-3.354-10.278-4.923
			c-9.466-4.369-13.63-6.399-13.715-7.518c-0.021-0.254,0.141-0.488,0.45-0.66c1.318-0.727,3.105-0.059,14.72,5.492
			c2.813,1.344,6.251,2.986,8.823,4.109c-2.676-1.414-6.875-3.352-10.271-4.919c-9.474-4.371-13.631-6.405-13.723-7.521
			c-0.02-0.256,0.142-0.49,0.452-0.662c1.316-0.725,3.105-0.058,14.718,5.492c2.813,1.344,6.25,2.986,8.821,4.108
			c-2.677-1.414-6.875-3.353-10.272-4.919c-9.468-4.373-13.629-6.403-13.719-7.52c-0.021-0.254,0.141-0.49,0.45-0.66
			c1.318-0.727,3.105-0.06,14.72,5.494c2.809,1.342,6.246,2.984,8.816,4.107c-2.676-1.414-6.872-3.35-10.266-4.916
			c-9.472-4.371-13.631-6.404-13.723-7.52c-0.02-0.256,0.143-0.489,0.452-0.662c1.316-0.725,3.104-0.057,14.715,5.494
			c2.812,1.343,6.251,2.986,8.821,4.109c-2.676-1.412-6.872-3.35-10.268-4.917c-9.474-4.37-13.634-6.403-13.722-7.521
			c-0.02-0.254,0.14-0.488,0.451-0.66c1.316-0.725,3.104-0.057,14.715,5.497c2.809,1.342,6.239,2.983,8.81,4.106
			c-2.677-1.412-6.865-3.347-10.258-4.91c-9.467-4.371-13.631-6.401-13.718-7.52c-0.021-0.255,0.14-0.488,0.45-0.661
			c1.317-0.726,3.106-0.057,14.72,5.504c2.799,1.341,6.22,2.978,8.786,4.103c-2.677-1.412-6.857-3.342-10.239-4.901
			c-9.466-4.372-13.632-6.403-13.719-7.521c-0.021-0.254,0.14-0.488,0.45-0.659c1.317-0.726,3.104-0.06,14.72,5.493
			c2.81,1.343,6.249,2.985,8.819,4.108c-2.678-1.413-6.875-3.351-10.271-4.918c-9.471-4.371-13.632-6.401-13.719-7.521
			c-0.02-0.254,0.14-0.488,0.452-0.659c1.315-0.726,3.104-0.06,14.72,5.493c2.808,1.343,6.243,2.983,8.811,4.106
			c-2.674-1.413-6.87-3.35-10.264-4.916c-9.469-4.37-13.632-6.401-13.719-7.519c-0.021-0.256,0.14-0.489,0.45-0.66
			c1.317-0.727,3.106-0.059,14.72,5.504c2.797,1.34,6.217,2.977,8.783,4.102c-2.678-1.412-6.854-3.34-10.234-4.898
			c-9.469-4.373-13.632-6.402-13.719-7.52c-0.021-0.254,0.14-0.49,0.45-0.66c1.317-0.727,3.104-0.06,14.72,5.494
			c2.809,1.342,6.245,2.984,8.813,4.106c-2.674-1.413-6.87-3.349-10.263-4.915c-9.474-4.37-13.63-6.402-13.722-7.52
			c-0.02-0.256,0.142-0.489,0.452-0.662c1.317-0.725,3.106-0.057,14.72,5.506c2.797,1.339,6.213,2.977,8.778,4.101
			c-2.676-1.411-6.851-3.339-10.231-4.897c-9.469-4.372-13.632-6.402-13.719-7.52c-0.022-0.255,0.14-0.488,0.45-0.66
			c1.315-0.726,3.105-0.059,14.72,5.491c2.812,1.345,6.253,2.988,8.823,4.112c-2.676-1.415-6.879-3.355-10.278-4.924
			c-9.469-4.37-13.63-6.4-13.717-7.518c-0.021-0.255,0.141-0.488,0.45-0.66c1.317-0.727,3.107-0.059,14.724,5.496
			c2.809,1.342,6.241,2.984,8.81,4.106c-2.677-1.414-6.873-3.351-10.269-4.918c-9.467-4.369-13.628-6.399-13.715-7.517
			c-0.022-0.254,0.141-0.49,0.45-0.662c1.317-0.726,3.105-0.058,14.72,5.496c2.808,1.342,6.243,2.984,8.812,4.107
			c-2.677-1.414-6.871-3.35-10.263-4.915c-9.469-4.372-13.634-6.402-13.719-7.519c-0.021-0.255,0.141-0.489,0.452-0.661
			c1.315-0.725,3.104-0.058,14.715,5.493c2.809,1.345,6.244,2.988,8.814,4.111c-2.677-1.414-6.871-3.351-10.265-4.916
			c-9.467-4.372-13.632-6.403-13.719-7.519c-0.021-0.254,0.141-0.489,0.45-0.66c1.318-0.726,3.105-0.058,14.721,5.499
			c2.804,1.34,6.232,2.98,8.8,4.105c-2.677-1.414-6.862-3.347-10.252-4.909c-9.469-4.372-13.632-6.402-13.719-7.52
			c-0.021-0.254,0.141-0.489,0.45-0.66c1.316-0.725,3.105-0.058,14.719,5.491c2.813,1.344,6.256,2.988,8.826,4.111
			c-2.676-1.415-6.879-3.355-10.279-4.924c-9.467-4.37-13.629-6.4-13.716-7.517c-0.021-0.254,0.141-0.489,0.45-0.661
			c1.318-0.726,3.105-0.058,14.724,5.492c2.813,1.342,6.251,2.986,8.821,4.107c-2.676-1.415-6.879-3.353-10.276-4.922
			c-9.467-4.371-13.632-6.402-13.719-7.519c-0.021-0.254,0.141-0.489,0.45-0.66c1.318-0.726,3.107-0.058,14.721,5.499
			c2.802,1.341,6.23,2.981,8.798,4.106c-2.677-1.414-6.862-3.346-10.25-4.909c-9.469-4.372-13.632-6.402-13.719-7.519
			c-0.021-0.254,0.141-0.489,0.45-0.661c1.318-0.726,3.105-0.058,14.724,5.494c2.809,1.343,6.245,2.985,8.813,4.108
			c-2.675-1.415-6.875-3.353-10.273-4.92c-9.467-4.37-13.629-6.4-13.715-7.517c-0.021-0.254,0.14-0.489,0.449-0.661
			c1.318-0.726,3.107-0.058,14.721,5.498c2.806,1.342,6.237,2.982,8.806,4.106c-2.676-1.414-6.866-3.347-10.256-4.912
			c-9.469-4.371-13.63-6.403-13.719-7.519c-0.021-0.254,0.141-0.489,0.45-0.661c1.318-0.726,3.105-0.057,14.719,5.502
			c2.8,1.341,6.224,2.98,8.791,4.104c-2.677-1.413-6.856-3.342-10.241-4.903c-9.47-4.372-13.63-6.404-13.719-7.519
			c-0.021-0.255,0.141-0.489,0.452-0.661c1.317-0.725,3.105-0.058,14.719,5.495c2.809,1.343,6.246,2.986,8.814,4.109
			c-2.675-1.414-6.873-3.351-10.267-4.918c-9.47-4.369-13.63-6.402-13.719-7.517c-0.021-0.255,0.141-0.489,0.452-0.661
			c1.317-0.725,3.105-0.058,14.719,5.493c2.809,1.342,6.246,2.986,8.814,4.108c-2.675-1.414-6.871-3.351-10.265-4.917
			c-9.472-4.373-13.632-6.403-13.721-7.519c-0.021-0.254,0.141-0.489,0.452-0.661c1.317-0.726,3.105-0.057,14.72,5.504
			c2.797,1.339,6.217,2.977,8.782,4.102c-2.676-1.413-6.853-3.34-10.233-4.9c-9.469-4.371-13.628-6.403-13.719-7.519
			c-0.021-0.255,0.141-0.489,0.452-0.661c1.317-0.726,3.105-0.057,14.718,5.502c2.799,1.34,6.224,2.979,8.79,4.104
			c-2.677-1.412-6.855-3.341-10.239-4.902c-9.473-4.372-13.632-6.404-13.721-7.52c-0.021-0.255,0.141-0.489,0.452-0.661
			c1.315-0.725,3.104-0.058,14.718,5.49c2.813,1.344,6.259,2.988,8.828,4.111c-2.675-1.415-6.88-3.355-10.279-4.924
			c-9.471-4.37-13.628-6.402-13.719-7.518c-0.021-0.255,0.141-0.489,0.452-0.661c1.317-0.726,3.105-0.058,14.722,5.496
			c2.807,1.342,6.239,2.982,8.808,4.106c-2.676-1.414-6.867-3.349-10.259-4.914c-9.471-4.373-13.63-6.403-13.721-7.52
			c-0.021-0.254,0.14-0.489,0.452-0.661c1.317-0.726,3.104-0.058,14.718,5.496c2.806,1.342,6.239,2.983,8.808,4.106
			c-2.675-1.414-6.867-3.348-10.259-4.913c-9.471-4.372-13.628-6.404-13.719-7.519c-0.021-0.255,0.14-0.489,0.452-0.661
			c1.317-0.726,3.104-0.058,14.72,5.501c2.801,1.34,6.226,2.979,8.793,4.103c-2.677-1.413-6.858-3.342-10.243-4.904
			c-9.47-4.372-13.63-6.404-13.72-7.52c-0.02-0.254,0.14-0.489,0.452-0.661c1.315-0.725,3.103-0.058,14.718,5.49
			c2.815,1.344,6.258,2.989,8.828,4.111c-2.676-1.415-6.88-3.355-10.279-4.924c-9.471-4.37-13.63-6.402-13.719-7.518
			c-0.02-0.255,0.14-0.489,0.452-0.661c1.317-0.726,3.104-0.058,14.72,5.493c2.81,1.343,6.247,2.986,8.816,4.108
			c-2.675-1.413-6.874-3.351-10.27-4.918c-9.471-4.371-13.63-6.405-13.719-7.519c-0.02-0.255,0.14-0.489,0.452-0.661
			c1.317-0.726,3.104-0.058,14.722,5.5c2.787,1.333,6.195,2.964,8.759,4.087c-2.664-1.403-6.797-3.31-10.146-4.854
			c-9.42-4.346-13.559-6.368-13.649-7.481c-0.021-0.254,0.14-0.489,0.45-0.66c1.072-0.591,2.456-0.257,9.212,2.891
			c-5.43-2.561-7.893-3.928-7.961-4.776c-0.021-0.252,0.137-0.484,0.445-0.654c0.992-0.546,2.242-0.285,8.033,2.33
			c-3.556-1.713-5.11-2.669-5.171-3.351c-0.02-0.247,0.135-0.475,0.439-0.642c0.98-0.54,2.102-0.298,8.218,2.351
			c-2.613-1.254-3.762-1.988-3.818-2.562c-0.021-0.24,0.129-0.463,0.426-0.627c0.912-0.502,1.997-0.237,7.272,1.792
			c-1.045-0.546-1.503-0.917-1.544-1.285c-0.027-0.234,0.119-0.452,0.415-0.614c0.757-0.417,1.641-0.229,6.039,0.873
			c-0.059-0.075-0.097-0.154-0.113-0.237c-0.046-0.234,0.104-0.466,0.41-0.636c0.438-0.241,1.146-0.241,1.582,0
			c0.228,0.125,0.336,0.291,0.327,0.454c0.341,0.158,1.021,0.396,1.46,0.551c1.429,0.503,2.466,0.867,2.573,1.408
			c0.047,0.234-0.104,0.466-0.41,0.636c-0.777,0.428-1.69,0.219-6.397-0.963c-0.332-0.083-0.699-0.175-1.077-0.27
			c0.756,0.337,1.556,0.681,2.228,0.968c4.047,1.734,5.586,2.455,5.662,3.143c0.027,0.234-0.119,0.452-0.415,0.614
			c-1.035,0.57-2.293,0.152-9.651-2.712c-0.712-0.277-1.49-0.58-2.269-0.879c1.227,0.57,2.523,1.153,3.62,1.644
			c6.138,2.754,8.646,3.959,8.728,4.813c0.022,0.24-0.13,0.463-0.428,0.627c-1.16,0.639-2.52,0.183-12.12-4.062
			c-1.493-0.661-3.209-1.419-4.795-2.098c1.98,0.962,4.323,2.031,6.209,2.892c7.854,3.583,11.062,5.139,11.145,6.125
			c0.021,0.247-0.134,0.475-0.438,0.642c-1.258,0.693-2.936,0.087-13.793-4.991c-2.317-1.083-5.095-2.382-7.358-3.374
			c2.476,1.263,5.944,2.857,8.799,4.171c8.833,4.061,12.711,5.953,12.801,7.021c0.02,0.251-0.139,0.484-0.447,0.654
			c-1.312,0.723-3.092,0.06-14.649-5.465c-2.763-1.321-6.136-2.934-8.682-4.05c2.663,1.402,6.789,3.305,10.132,4.847
			c9.421,4.349,13.561,6.37,13.649,7.481c0.02,0.254-0.14,0.489-0.451,0.661c-1.316,0.726-3.105,0.057-14.717-5.499
			c-2.805-1.341-6.234-2.982-8.803-4.106c2.676,1.413,6.864,3.345,10.253,4.909c9.469,4.369,13.627,6.402,13.718,7.519
			c0.02,0.255-0.14,0.489-0.451,0.661c-1.318,0.726-3.105,0.058-14.722-5.493c-2.807-1.343-6.246-2.985-8.816-4.109
			c2.676,1.414,6.873,3.351,10.268,4.918c9.471,4.371,13.633,6.402,13.721,7.519c0.02,0.255-0.141,0.489-0.452,0.661
			c-1.316,0.725-3.104,0.058-14.72-5.49c-2.813-1.344-6.257-2.989-8.826-4.111c2.675,1.415,6.88,3.355,10.281,4.924
			c9.467,4.37,13.627,6.402,13.718,7.518c0.02,0.254-0.14,0.489-0.451,0.661c-1.318,0.726-3.105,0.057-14.722-5.501
			c-2.8-1.34-6.224-2.98-8.792-4.104c2.677,1.413,6.859,3.344,10.247,4.906c9.469,4.37,13.629,6.403,13.718,7.519
			c0.02,0.255-0.14,0.489-0.451,0.661c-1.318,0.725-3.105,0.058-14.719-5.496c-2.808-1.342-6.242-2.984-8.811-4.108
			c2.674,1.414,6.87,3.349,10.263,4.915c9.467,4.37,13.627,6.403,13.718,7.518c0.02,0.254-0.14,0.489-0.451,0.661
			c-1.318,0.726-3.105,0.058-14.717-5.494c-2.81-1.343-6.246-2.986-8.815-4.109c2.675,1.414,6.869,3.35,10.264,4.916
			c9.471,4.37,13.629,6.402,13.72,7.519c0.02,0.255-0.14,0.489-0.451,0.661c-1.316,0.725-3.104,0.058-14.719-5.491
			c-2.813-1.344-6.256-2.988-8.828-4.111c2.676,1.415,6.881,3.355,10.28,4.924c9.467,4.37,13.627,6.402,13.718,7.518
			c0.02,0.255-0.14,0.489-0.451,0.661c-1.318,0.726-3.107,0.057-14.723-5.504c-2.799-1.339-6.218-2.977-8.782-4.101
			c2.677,1.413,6.853,3.341,10.238,4.902c9.471,4.371,13.631,6.403,13.718,7.519c0.02,0.254-0.14,0.489-0.451,0.661
			c-1.318,0.726-3.105,0.057-14.722-5.504c-2.798-1.34-6.219-2.978-8.783-4.103c2.677,1.412,6.854,3.341,10.238,4.901
			c9.467,4.371,13.629,6.403,13.718,7.518c0.02,0.255-0.14,0.489-0.451,0.661c-1.318,0.726-3.105,0.058-14.719-5.493
			c-2.81-1.342-6.247-2.985-8.815-4.108c2.676,1.414,6.871,3.351,10.266,4.917c9.471,4.371,13.629,6.402,13.72,7.52
			c0.021,0.254-0.14,0.489-0.451,0.661c-1.318,0.726-3.105,0.058-14.719-5.495c-2.808-1.342-6.244-2.984-8.811-4.107
			c2.674,1.414,6.868,3.349,10.263,4.916c9.469,4.37,13.629,6.402,13.718,7.519c0.02,0.255-0.14,0.489-0.451,0.661
			c-1.318,0.726-3.107,0.058-14.723-5.504c-2.799-1.339-6.218-2.977-8.782-4.101c2.677,1.413,6.853,3.341,10.238,4.902
			c9.469,4.371,13.627,6.403,13.718,7.519c0.02,0.255-0.14,0.489-0.451,0.661c-1.318,0.726-3.105,0.058-14.722-5.498
			c-2.804-1.341-6.232-2.982-8.801-4.106c2.674,1.413,6.861,3.346,10.25,4.91c9.472,4.37,13.631,6.402,13.723,7.521
			c0.02,0.254-0.141,0.489-0.452,0.66c-1.316,0.725-3.104,0.058-14.715-5.491c-2.812-1.345-6.255-2.99-8.824-4.113
			c2.677,1.414,6.876,3.353,10.272,4.92c9.468,4.37,13.631,6.401,13.719,7.519c0.02,0.254-0.141,0.489-0.452,0.661
			c-1.318,0.726-3.105,0.058-14.721-5.5c-2.803-1.341-6.23-2.981-8.797-4.105c2.676,1.413,6.862,3.346,10.249,4.909
			c9.468,4.369,13.631,6.401,13.719,7.519c0.02,0.255-0.141,0.489-0.452,0.661c-1.316,0.725-3.105,0.059-14.715-5.488
			c-2.817-1.345-6.264-2.992-8.835-4.114c2.676,1.414,6.88,3.354,10.279,4.923c9.472,4.37,13.63,6.403,13.723,7.521
			c0.02,0.254-0.142,0.49-0.452,0.662c-1.316,0.725-3.105,0.058-14.719-5.493c-2.812-1.343-6.249-2.986-8.82-4.109
			c2.677,1.414,6.875,3.352,10.272,4.919c9.468,4.371,13.631,6.401,13.719,7.519c0.02,0.254-0.141,0.489-0.452,0.66
			c-1.317,0.727-3.105,0.059-14.721-5.499c-2.804-1.34-6.231-2.981-8.798-4.105c2.674,1.413,6.861,3.346,10.252,4.91
			c9.466,4.37,13.631,6.401,13.719,7.519c0.021,0.255-0.141,0.489-0.45,0.661c-1.318,0.727-3.105,0.059-14.725-5.498
			c-2.802-1.34-6.231-2.98-8.8-4.103c2.677,1.413,6.865,3.347,10.256,4.912c9.468,4.371,13.629,6.4,13.719,7.519
			c0.021,0.255-0.141,0.489-0.45,0.66c-1.318,0.727-3.105,0.059-14.721-5.495c-2.806-1.342-6.24-2.984-8.81-4.107
			c2.675,1.413,6.867,3.348,10.26,4.913c9.472,4.37,13.631,6.403,13.723,7.521c0.02,0.255-0.143,0.49-0.452,0.66
			c-1.316,0.727-3.104,0.059-14.715-5.492c-2.81-1.344-6.249-2.986-8.819-4.11c2.676,1.414,6.87,3.351,10.264,4.916
			c9.472,4.37,13.631,6.401,13.723,7.521c0.02,0.254-0.143,0.488-0.452,0.66c-1.316,0.726-3.105,0.059-14.721-5.492
			c-2.81-1.342-6.247-2.984-8.816-4.107c2.675,1.413,6.874,3.352,10.269,4.918c9.47,4.371,13.631,6.4,13.719,7.52
			c0.02,0.254-0.141,0.488-0.452,0.66c-1.317,0.727-3.106,0.058-14.721-5.506c-2.799-1.34-6.22-2.979-8.785-4.103
			c2.677,1.413,6.855,3.342,10.241,4.901c9.466,4.37,13.627,6.401,13.715,7.519c0.021,0.254-0.14,0.489-0.45,0.659
			c-1.317,0.727-3.105,0.06-14.721-5.493c-2.808-1.343-6.247-2.985-8.816-4.109c2.677,1.414,6.875,3.353,10.269,4.918
			c9.47,4.371,13.631,6.401,13.719,7.519c0.02,0.256-0.14,0.49-0.452,0.662c-1.317,0.726-3.106,0.057-14.721-5.506
			c-2.797-1.338-6.216-2.977-8.78-4.101c2.678,1.412,6.853,3.339,10.234,4.899c9.468,4.369,13.629,6.4,13.719,7.52
			c0.021,0.254-0.14,0.489-0.45,0.66c-1.316,0.725-3.105,0.059-14.721-5.494c-2.808-1.342-6.243-2.984-8.813-4.105
			c2.678,1.412,6.872,3.349,10.266,4.914c9.468,4.371,13.629,6.401,13.719,7.521c0.021,0.254-0.14,0.487-0.45,0.66
			c-1.317,0.726-3.105,0.058-14.721-5.494c-2.81-1.343-6.248-2.985-8.818-4.108c2.677,1.413,6.875,3.352,10.272,4.92
			c9.466,4.368,13.631,6.399,13.719,7.519c0.021,0.254-0.141,0.489-0.45,0.659c-1.318,0.727-3.107,0.059-14.721-5.502
			c-2.799-1.34-6.22-2.979-8.786-4.104c2.678,1.412,6.854,3.342,10.238,4.902c9.468,4.369,13.631,6.4,13.719,7.519
			c0.02,0.255-0.141,0.489-0.452,0.66c-1.317,0.728-3.105,0.058-14.725-5.499c-2.802-1.341-6.232-2.98-8.798-4.104
			c2.677,1.414,6.867,3.348,10.258,4.912c9.466,4.371,13.629,6.4,13.717,7.518c0.02,0.255-0.141,0.488-0.45,0.661
			c-1.318,0.726-3.107,0.058-14.725-5.496c-2.81-1.343-6.245-2.983-8.813-4.106c2.677,1.414,6.876,3.352,10.272,4.918
			c9.466,4.371,13.627,6.402,13.717,7.519c0.02,0.255-0.141,0.489-0.45,0.661c-1.318,0.726-3.105,0.058-14.722-5.494
			c-2.809-1.344-6.246-2.986-8.816-4.11c2.678,1.414,6.875,3.353,10.27,4.918c9.468,4.37,13.631,6.401,13.719,7.519
			c0.02,0.256-0.141,0.49-0.452,0.662c-1.316,0.725-3.105,0.059-14.72-5.491c-2.813-1.345-6.255-2.989-8.825-4.112
			c2.676,1.415,6.879,3.355,10.28,4.924c9.467,4.37,13.629,6.401,13.717,7.518c0.02,0.256-0.141,0.49-0.45,0.662
			c-1.318,0.726-3.105,0.058-14.722-5.492c-2.811-1.344-6.251-2.988-8.821-4.11c2.676,1.414,6.873,3.353,10.271,4.919
			c9.475,4.37,13.633,6.402,13.723,7.521c0.02,0.254-0.141,0.488-0.452,0.66c-1.316,0.726-3.105,0.059-14.721-5.492
			c-2.81-1.342-6.247-2.985-8.816-4.108c2.675,1.414,6.874,3.353,10.271,4.919c9.468,4.37,13.629,6.401,13.719,7.52
			c0.021,0.254-0.141,0.488-0.45,0.66c-1.318,0.727-3.105,0.058-14.722-5.498c-2.805-1.342-6.236-2.982-8.805-4.105
			c2.677,1.413,6.867,3.348,10.258,4.912c9.468,4.37,13.631,6.4,13.719,7.52c0.021,0.254-0.141,0.488-0.45,0.659
			c-1.316,0.726-3.105,0.06-14.72-5.493c-2.811-1.343-6.25-2.986-8.819-4.109c2.675,1.414,6.876,3.354,10.275,4.922
			c9.466,4.369,13.63,6.4,13.717,7.518c0.02,0.254-0.14,0.489-0.45,0.66c-1.317,0.727-3.104,0.059-14.725-5.493
			c-2.809-1.342-6.244-2.983-8.813-4.106c2.676,1.414,6.873,3.353,10.269,4.92c9.468,4.369,13.632,6.4,13.719,7.519
			c0.02,0.255-0.14,0.489-0.45,0.66c-1.317,0.726-3.104,0.06-14.726-5.492c-2.81-1.342-6.247-2.985-8.816-4.106
			c2.675,1.414,6.876,3.353,10.273,4.921c9.466,4.37,13.63,6.401,13.719,7.521c0.021,0.254-0.14,0.488-0.45,0.659
			c-1.317,0.726-3.106,0.058-14.72-5.504c-2.799-1.339-6.22-2.978-8.786-4.103c2.677,1.412,6.856,3.342,10.239,4.902
			c9.466,4.37,13.632,6.401,13.719,7.52c0.021,0.255-0.14,0.488-0.45,0.66c-1.315,0.726-3.105,0.059-14.72-5.49
			c-2.812-1.344-6.251-2.987-8.823-4.109c2.678,1.413,6.877,3.354,10.274,4.92c9.466,4.37,13.632,6.401,13.719,7.52
			c0.021,0.255-0.14,0.49-0.45,0.66c-1.315,0.727-3.104,0.059-14.715-5.494c-2.81-1.344-6.248-2.986-8.818-4.109
			c2.677,1.413,6.873,3.35,10.267,4.917c9.468,4.37,13.63,6.401,13.719,7.519c0.021,0.254-0.141,0.49-0.45,0.66
			c-1.317,0.727-3.105,0.058-14.72-5.504c-2.797-1.34-6.213-2.977-8.779-4.102c2.677,1.412,6.852,3.339,10.232,4.898
			c9.469,4.369,13.632,6.4,13.719,7.52c0.02,0.254-0.141,0.488-0.45,0.66c-1.318,0.726-3.105,0.059-14.721-5.491
			c-2.813-1.345-6.258-2.989-8.829-4.11c2.675,1.413,6.88,3.354,10.281,4.924c9.469,4.369,13.632,6.4,13.719,7.519
			c0.021,0.255-0.141,0.489-0.45,0.661c-1.316,0.725-3.105,0.058-14.719-5.493c-2.81-1.343-6.246-2.985-8.814-4.106
			c2.676,1.412,6.872,3.35,10.267,4.916c9.468,4.371,13.632,6.401,13.718,7.52c0.02,0.255-0.14,0.488-0.449,0.66
			c-1.318,0.726-3.105,0.059-14.721-5.493c-2.81-1.345-6.246-2.987-8.816-4.109c2.677,1.413,6.872,3.351,10.269,4.917
			c9.468,4.369,13.632,6.401,13.718,7.52c0.022,0.255-0.14,0.49-0.449,0.66c-1.318,0.727-3.105,0.059-14.721-5.496
			c-2.806-1.342-6.239-2.983-8.808-4.106c2.676,1.413,6.865,3.349,10.256,4.912c9.472,4.371,13.632,6.403,13.722,7.521
			c0.02,0.254-0.142,0.489-0.451,0.66c-1.318,0.727-3.107,0.059-14.721-5.503c-2.798-1.339-6.22-2.978-8.786-4.103
			c2.678,1.412,6.857,3.342,10.24,4.902c9.47,4.369,13.632,6.4,13.718,7.52c0.02,0.255-0.14,0.488-0.449,0.661
			c-1.318,0.726-3.107,0.058-14.726-5.498c-2.807-1.343-6.238-2.981-8.806-4.106c2.676,1.414,6.87,3.35,10.264,4.916
			c9.467,4.369,13.631,6.4,13.717,7.518c0.02,0.255-0.14,0.49-0.449,0.66c-1.318,0.727-3.107,0.059-14.723-5.498
			c-2.802-1.342-6.233-2.981-8.802-4.105c2.677,1.413,6.866,3.348,10.256,4.911c9.468,4.37,13.63,6.401,13.718,7.519
			c0.02,0.254-0.14,0.489-0.451,0.66c-1.316,0.727-3.102,0.059-14.715-5.49c-2.812-1.346-6.252-2.989-8.824-4.112
			c2.677,1.413,6.876,3.352,10.273,4.92c9.471,4.373,13.631,6.403,13.719,7.519c0.021,0.256-0.14,0.489-0.451,0.66
			c-1.316,0.727-3.102,0.059-14.715-5.49c-2.812-1.346-6.252-2.99-8.824-4.112c2.677,1.413,6.876,3.353,10.273,4.92
			c9.469,4.371,13.634,6.401,13.719,7.521c0.021,0.254-0.14,0.487-0.452,0.659c-1.315,0.726-3.102,0.058-14.715-5.491
			c-2.811-1.345-6.251-2.99-8.823-4.111c2.677,1.412,6.876,3.352,10.273,4.92c9.463,4.369,13.63,6.4,13.719,7.519
			c0.021,0.254-0.14,0.489-0.452,0.66c-1.317,0.727-3.104,0.06-14.718-5.499c-2.804-1.341-6.234-2.98-8.801-4.105
			c2.676,1.414,6.862,3.348,10.252,4.91c9.469,4.371,13.634,6.401,13.719,7.52c0.021,0.254-0.14,0.489-0.452,0.66
			c-1.317,0.726-3.104,0.059-14.72-5.502c-2.801-1.342-6.228-2.981-8.795-4.105c2.677,1.413,6.862,3.346,10.25,4.908
			c9.471,4.371,13.63,6.401,13.717,7.518c0.021,0.254-0.142,0.489-0.452,0.66c-1.317,0.727-3.104,0.059-14.718-5.499
			c-2.804-1.341-6.234-2.981-8.803-4.106c2.678,1.414,6.864,3.348,10.252,4.911c9.471,4.37,13.634,6.401,13.721,7.52
			c0.021,0.254-0.142,0.489-0.452,0.66c-1.319,0.727-3.106,0.058-14.724-5.506c-2.797-1.339-6.215-2.976-8.778-4.101
			c2.677,1.413,6.853,3.34,10.233,4.9c9.471,4.371,13.634,6.402,13.719,7.519c0.021,0.255-0.14,0.489-0.452,0.66
			c-1.317,0.728-3.104,0.06-14.724-5.5c-2.8-1.34-6.229-2.979-8.797-4.104c2.678,1.414,6.868,3.347,10.256,4.911
			c9.471,4.372,13.632,6.399,13.717,7.518c0.021,0.254-0.142,0.489-0.452,0.66c-1.317,0.726-3.104,0.059-14.72-5.494
			c-2.808-1.343-6.246-2.986-8.816-4.109c2.676,1.414,6.872,3.352,10.268,4.918c9.471,4.37,13.634,6.401,13.719,7.52
			c0.021,0.255-0.14,0.489-0.451,0.66c-1.318,0.727-3.105,0.059-14.724-5.497c-2.805-1.34-6.232-2.979-8.801-4.104
			c2.677,1.412,6.866,3.348,10.257,4.911c9.473,4.371,13.634,6.402,13.721,7.521c0.021,0.254-0.142,0.488-0.452,0.66
			c-1.315,0.725-3.103,0.059-14.718-5.49c-2.813-1.344-6.257-2.988-8.826-4.11c2.675,1.414,6.878,3.354,10.275,4.922
			c9.471,4.372,13.632,6.402,13.721,7.521c0.021,0.254-0.142,0.489-0.452,0.66c-1.317,0.726-3.104,0.058-14.724-5.495
			c-2.808-1.344-6.244-2.984-8.813-4.107c2.675,1.415,6.874,3.354,10.273,4.921c9.469,4.37,13.628,6.399,13.717,7.518
			c0.021,0.255-0.142,0.488-0.452,0.659c-1.317,0.727-3.104,0.06-14.724-5.494c-2.81-1.343-6.244-2.985-8.811-4.107
			c2.674,1.414,6.874,3.352,10.27,4.92c9.469,4.37,13.63,6.398,13.717,7.518c0.021,0.254-0.142,0.488-0.452,0.659
			c-1.319,0.728-3.106,0.059-14.72-5.505c-2.799-1.34-6.22-2.979-8.786-4.104c2.677,1.413,6.855,3.341,10.237,4.901
			c9.465,4.37,13.634,6.402,13.719,7.52c0.021,0.255-0.14,0.489-0.452,0.66c-1.317,0.726-3.104,0.059-14.72-5.499
			c-2.802-1.341-6.23-2.981-8.797-4.105c2.677,1.414,6.862,3.347,10.25,4.909c9.471,4.372,13.634,6.402,13.721,7.521
			c0.021,0.254-0.142,0.487-0.452,0.659c-1.317,0.727-3.104,0.059-14.72-5.5c-2.799-1.34-6.222-2.978-8.79-4.101
			c2.674,1.409,6.844,3.334,10.22,4.893c9.458,4.364,13.61,6.395,13.698,7.508c0.021,0.254-0.142,0.488-0.451,0.659
			c-1.316,0.727-3.101,0.06-14.695-5.488c-2.617-1.253-5.78-2.768-8.276-3.876c2.504,1.279,6.037,2.904,8.942,4.241
			c8.913,4.101,12.825,6.009,12.913,7.084c0.02,0.251-0.14,0.483-0.446,0.653c-1.008,0.555-2.284,0.28-8.279-2.443
			c3.863,1.852,5.552,2.863,5.609,3.575c0.021,0.246-0.137,0.476-0.439,0.644c-0.971,0.535-2.084,0.308-7.958-2.253
			c2.533,1.229,3.653,1.957,3.706,2.524c0.022,0.24-0.131,0.464-0.428,0.628c-0.925,0.51-2.028,0.236-7.344-1.848
			c1.149,0.592,1.667,0.999,1.71,1.386c0.026,0.234-0.122,0.452-0.416,0.614c-0.78,0.431-1.696,0.227-6.157-0.983
			c0.117,0.113,0.188,0.23,0.212,0.355c0.042,0.236-0.104,0.459-0.411,0.628c-0.438,0.241-1.145,0.241-1.583,0
			c-0.236-0.13-0.343-0.302-0.327-0.472c-0.383-0.195-1.248-0.514-1.801-0.718C47.152,356.245,46.412,355.965,45.923,355.696z
			 M57.748,349.738c-1.604-0.752-3.393-1.589-5.069-2.352C54.359,348.188,56.188,349.026,57.748,349.738z M68.565,119.488
			c-2.47-1.257-5.895-2.832-8.721-4.131c-1.245-0.572-2.392-1.103-3.444-1.593c1.196,0.564,2.539,1.202,4.049,1.924
			C63.012,116.914,66.099,118.39,68.565,119.488z M65.807,114.772c-0.977-0.458-1.975-0.918-2.919-1.35
			C63.843,113.867,64.833,114.327,65.807,114.772z"/>
	</g>
</g>
<linearGradient id="SVGID_4_" gradientUnits="userSpaceOnUse" x1="-79.2212" y1="160.4385" x2="-33.4883" y2="160.4385" gradientTransform="matrix(1 0 0 -1 116 439)">
	<stop  offset="0" style="stop-color:#E5E2DF"/>
	<stop  offset="0" style="stop-color:#DAD7D5"/>
	<stop  offset="0" style="stop-color:#BBBABA"/>
	<stop  offset="0" style="stop-color:#8B8B8D"/>
	<stop  offset="0" style="stop-color:#484749"/>
	<stop  offset="0" style="stop-color:#282829"/>
	<stop  offset="0.3318" style="stop-color:#403F41"/>
	<stop  offset="0.5225" style="stop-color:#48484A"/>
	<stop  offset="0.646" style="stop-color:#424345"/>
	<stop  offset="0.8531" style="stop-color:#313538"/>
	<stop  offset="1" style="stop-color:#212729"/>
</linearGradient>
<path fill="url(#SVGID_4_)" stroke="#020202" stroke-miterlimit="10" d="M82.512,294.241c0,2.581-2.804,4.673-6.263,4.673H43.041
	c-3.459,0-6.262-2.092-6.262-4.673v-31.357c0-2.582,2.803-4.675,6.262-4.675h33.208c3.459,0,6.263,2.093,6.263,4.675V294.241z"/>
<linearGradient id="SVGID_5_" gradientUnits="userSpaceOnUse" x1="-40.3911" y1="89.6104" x2="-40.3911" y2="105.2656" gradientTransform="matrix(1 0 0 -1 116 439)">
	<stop  offset="0.0779" style="stop-color:#475154"/>
	<stop  offset="0.2485" style="stop-color:#75797B"/>
	<stop  offset="0.3966" style="stop-color:#9EA0A1"/>
	<stop  offset="0.5092" style="stop-color:#BBBCBC"/>
	<stop  offset="0.573" style="stop-color:#C6C7C8"/>
	<stop  offset="0.627" style="stop-color:#C0C2C3"/>
	<stop  offset="0.7179" style="stop-color:#B0B3B5"/>
	<stop  offset="0.8339" style="stop-color:#969BA0"/>
	<stop  offset="0.8764" style="stop-color:#8B9299"/>
	<stop  offset="1" style="stop-color:#D2D3D4"/>
	<stop  offset="1" style="stop-color:#A8AAAD"/>
</linearGradient>
<path fill="url(#SVGID_5_)" stroke="#010101" stroke-width="1.5656" stroke-miterlimit="10" d="M138.622,343.127
	c0,3.459-2.804,6.262-6.263,6.262l-113.5,0.001c-3.459,0-6.263-2.804-6.263-6.263v-3.131c0-3.459,2.804-6.262,6.263-6.262h113.5
	c3.459,0,6.263,2.803,6.263,6.262V343.127z"/>
<radialGradient id="SVGID_6_" cx="42.2617" cy="-124.8301" r="16.4392" gradientTransform="matrix(0.6666 0 0 -0.6666 -13.7499 257.8721)" gradientUnits="userSpaceOnUse">
	<stop  offset="0" style="stop-color:#E5E2DF"/>
	<stop  offset="0" style="stop-color:#DEDCDA"/>
	<stop  offset="0" style="stop-color:#D1D3D4"/>
	<stop  offset="0.1226" style="stop-color:#CACACB"/>
	<stop  offset="0.3567" style="stop-color:#BBBBBC"/>
	<stop  offset="0.5225" style="stop-color:#AEAFB1"/>
	<stop  offset="0.6075" style="stop-color:#A0A1A4"/>
	<stop  offset="0.7506" style="stop-color:#818587"/>
	<stop  offset="0.9331" style="stop-color:#575E61"/>
	<stop  offset="1" style="stop-color:#475154"/>
</radialGradient>
<path fill="url(#SVGID_6_)" stroke="#010101" stroke-width="1.5656" stroke-miterlimit="10" d="M25.38,341.083
	c0,6.052-4.906,10.959-10.958,10.959c-6.052,0-10.958-4.907-10.958-10.959s4.906-10.958,10.958-10.958
	C21.866,330.125,25.38,335.031,25.38,341.083z"/>
<radialGradient id="SVGID_7_" cx="231.8418" cy="-124.8291" r="16.439" gradientTransform="matrix(0.6666 0 0 -0.6666 -13.7499 257.8721)" gradientUnits="userSpaceOnUse">
	<stop  offset="0" style="stop-color:#E5E2DF"/>
	<stop  offset="0" style="stop-color:#DEDCDA"/>
	<stop  offset="0" style="stop-color:#D1D3D4"/>
	<stop  offset="0.1226" style="stop-color:#CACACB"/>
	<stop  offset="0.3567" style="stop-color:#BBBBBC"/>
	<stop  offset="0.5225" style="stop-color:#AEAFB1"/>
	<stop  offset="0.6075" style="stop-color:#A0A1A4"/>
	<stop  offset="0.7506" style="stop-color:#818587"/>
	<stop  offset="0.9331" style="stop-color:#575E61"/>
	<stop  offset="1" style="stop-color:#475154"/>
</radialGradient>
<circle fill="url(#SVGID_7_)" stroke="#010101" stroke-width="1.5656" stroke-miterlimit="10" cx="140.796" cy="341.083" r="10.958"/>
<linearGradient id="SVGID_8_" gradientUnits="userSpaceOnUse" x1="-73.4463" y1="97.6558" x2="-39.2627" y2="97.6558" gradientTransform="matrix(1 0 0 -1 116 439)">
	<stop  offset="0.0056" style="stop-color:#C5C6C8"/>
	<stop  offset="0.3596" style="stop-color:#939598"/>
	<stop  offset="0.5624" style="stop-color:#A0A2A5"/>
	<stop  offset="0.6517" style="stop-color:#A8AAAD"/>
	<stop  offset="0.8652" style="stop-color:#AAABAF"/>
	<stop  offset="1" style="stop-color:#A8AAAD"/>
	<stop  offset="1" style="stop-color:#D2D3D4"/>
</linearGradient>
<path fill="url(#SVGID_8_)" stroke="#010101" stroke-width="1.5656" stroke-miterlimit="10" d="M76.737,352.694
	c0,3.458-3.401,6.263-7.597,6.263h-18.99c-4.195,0-7.597-2.805-7.597-6.263v-22.699c0-3.459,3.401-6.264,7.597-6.264h18.99
	c4.195,0,7.597,2.805,7.597,6.264V352.694z"/>
<linearGradient id="SVGID_9_" gradientUnits="userSpaceOnUse" x1="-81.2051" y1="335.2285" x2="-31.5039" y2="335.2285" gradientTransform="matrix(1 0 0 -1 116 439)">
	<stop  offset="0.0337" style="stop-color:#A8AAAD"/>
	<stop  offset="0.2084" style="stop-color:#B4B6B8"/>
	<stop  offset="0.382" style="stop-color:#C5C6C8"/>
	<stop  offset="0.5511" style="stop-color:#B8B9BC"/>
	<stop  offset="0.7191" style="stop-color:#A8AAAD"/>
	<stop  offset="1" style="stop-color:#D2D3D4"/>
	<stop  offset="1" style="stop-color:#A8AAAD"/>
</linearGradient>
<path fill="url(#SVGID_9_)" stroke="#010101" stroke-width="1.5656" stroke-miterlimit="10" d="M84.496,103.771
	c0,3.528-1.831,6.387-4.089,6.387H38.884c-2.258,0-4.089-2.858-4.089-6.387l0,0c0-3.527,1.831-6.386,4.089-6.386h41.523
	C82.666,97.383,84.496,100.242,84.496,103.771L84.496,103.771z"/>
</svg>
