<?xml version="1.0" encoding="utf-8"?>
<!-- Generator: Adobe Illustrator 15.0.2, SVG Export Plug-In . SVG Version: 6.00 Build 0)  -->
<!DOCTYPE svg PUBLIC "-//W3C//DTD SVG 1.1//EN" "http://www.w3.org/Graphics/SVG/1.1/DTD/svg11.dtd">
<svg version="1.1" id="Layer_1" xmlns="http://www.w3.org/2000/svg" xmlns:xlink="http://www.w3.org/1999/xlink" x="0px" y="0px"
	 width="30px" height="30px" viewBox="0 0 30 30" enable-background="new 0 0 30 30" xml:space="preserve">
<g>
	<g>
		<g enable-background="new    ">
			<g enable-background="new    ">
				<defs>
					<path id="SVGID_1_" enable-background="new    " d="M22.276,22.273c0-0.001-0.001-0.002-0.001-0.003
						c0.001,0.001,0.002,0.001,0.003,0.001c-0.09,0-0.182,0-0.274,0c0.001-0.152,0.12-0.271,0.272-0.273
						C22.276,22.09,22.276,22.182,22.276,22.273z"/>
				</defs>
				<clipPath id="SVGID_2_">
					<use xlink:href="#SVGID_1_"  overflow="visible"/>
				</clipPath>
				<g clip-path="url(#SVGID_2_)" enable-background="new    ">
					<path fill="#FFFFFF" d="M22.276,22.273c0-0.001-0.001-0.002-0.001-0.003c0.001,0.001,0.002,0.001,0.003,0.001
						c-0.09,0-0.182,0-0.274,0c0.001-0.152,0.12-0.271,0.272-0.273C22.276,22.09,22.276,22.182,22.276,22.273"/>
					<path fill="#FFFFFF" d="M22.276,22.192c0,0.003-0.001,0.008,0,0.012c0,0.023,0,0.047,0,0.069l0,0l0,0v-0.001l0,0l-0.001-0.001
						l0,0V22.27l0,0l0,0l0,0l0,0l0,0l0,0l0,0l0.001,0.001l0,0h0.001l0,0h0.001l0,0c-0.09,0-0.182,0-0.274,0
						c0.001-0.152,0.12-0.271,0.272-0.273C22.276,22.063,22.276,22.127,22.276,22.192"/>
					<path fill="#FFFFFF" d="M22.276,22.135c0,0.021-0.004,0.051,0,0.072c0,0.021,0,0.044,0,0.065l0,0l0,0v-0.001l0,0l-0.001-0.001
						l0,0V22.27l0,0l0,0l0,0l0,0l0,0l0,0l0,0l0.001,0.001l0,0h0.001l0,0h0.001l0,0c-0.09,0-0.182,0-0.274,0
						c0.001-0.152,0.12-0.271,0.272-0.273C22.276,22.043,22.276,22.089,22.276,22.135"/>
					<path fill="#FFFFFF" d="M22.276,22.083c-0.003,0.008-0.011,0.014-0.017,0.02c0.003,0.001,0.007,0.001,0.008,0.003
						c0.019,0.025,0.003,0.074,0.009,0.105c0,0.021,0,0.042,0,0.063l0,0l0,0v-0.001l0,0l-0.001-0.001l0,0V22.27l0,0l0,0l0,0l0,0l0,0
						l0,0l0,0l0.001,0.001l0,0h0.001l0,0h0.001l0,0c-0.09,0-0.182,0-0.274,0c0.001-0.152,0.12-0.271,0.272-0.273
						C22.276,22.026,22.276,22.054,22.276,22.083"/>
					<path fill="#FFFFFF" d="M22.276,22.039c-0.018,0.027-0.091,0.039-0.062,0.074c0.015,0.017,0.041-0.003,0.055,0.018
						c0.014,0.021,0.003,0.059,0.007,0.084c0,0.02,0,0.039,0,0.059l0,0l0,0v-0.001l0,0l-0.001-0.001l0,0V22.27l0,0l0,0l0,0l0,0l0,0
						l0,0l0,0l0.001,0.001l0,0h0.001l0,0h0.001l0,0c-0.09,0-0.182,0-0.274,0c0.001-0.152,0.12-0.271,0.272-0.273
						C22.276,22.011,22.276,22.025,22.276,22.039"/>
					<path fill="#FFFFFF" d="M22.276,22.273L22.276,22.273L22.276,22.273L22.276,22.273l-0.001-0.002l0,0V22.27l0,0l0,0l0,0l0,0l0,0
						l0,0l0,0l0.001,0.001l0,0h0.001l0,0h0.001l0,0c-0.089,0-0.179,0-0.271,0c0.001-0.004,0.001-0.01,0.001-0.014
						c0-0.003,0.038-0.257,0.154-0.138c0.004,0.005,0.007,0.013,0.012,0.015c0.031,0.012,0.073-0.019,0.096,0.021
						c0.009,0.017,0.003,0.044,0.006,0.062C22.276,22.236,22.276,22.254,22.276,22.273"/>
					<path fill="#FAFAFA" d="M22.276,22.273L22.276,22.273L22.276,22.273L22.276,22.273l-0.001-0.002l0,0V22.27l0,0l0,0l0,0l0,0l0,0
						l0,0l0,0l0.001,0.001l0,0h0.001l0,0h0.001l0,0c-0.077,0-0.154,0-0.233,0c0.001-0.004,0.002-0.008,0.003-0.012
						c0.015-0.067,0.019-0.068,0.115-0.102c0.07-0.024,0.108,0.023,0.108,0.024c0.005,0.011,0.003,0.027,0.005,0.039
						C22.276,22.239,22.276,22.256,22.276,22.273"/>
					<path fill="#F5F5F5" d="M22.276,22.273L22.276,22.273L22.276,22.273L22.276,22.273l-0.001-0.002l0,0V22.27l0,0l0,0l0,0l0,0l0,0
						l0,0l0,0l0.001,0.001l0,0h0.001l0,0h0.001l0,0c-0.064,0-0.13,0-0.196,0c0.002-0.003,0.004-0.007,0.005-0.01
						c0.021-0.051,0.107-0.146,0.186-0.057c0.005,0.004,0.003,0.014,0.004,0.02C22.276,22.241,22.276,22.257,22.276,22.273"/>
					<path fill="#F0F0F0" d="M22.276,22.273L22.276,22.273L22.276,22.273L22.276,22.273l-0.001-0.002l0,0V22.27l0,0l0,0l0,0l0,0l0,0
						l0,0l0,0l0.001,0.001l0,0h0.001l0,0h0.001l0,0c-0.052,0-0.104,0-0.157,0c-0.002-0.003-0.004-0.006-0.005-0.009
						c0.03-0.11,0.134-0.078,0.157-0.053c0.004,0.005,0.002,0.013,0.003,0.019C22.276,22.244,22.276,22.258,22.276,22.273"/>
					<path fill="#EBEBEB" d="M22.276,22.273L22.276,22.273L22.276,22.273L22.276,22.273l-0.001-0.002l0,0V22.27l0,0l0,0l0,0l0,0l0,0
						l0,0l0,0l0.001,0.001l0,0h0.001l0,0h0.001l0,0c-0.038,0-0.077,0-0.115,0c-0.009-0.002-0.021-0.005-0.029-0.008
						c0.032-0.102,0.139-0.049,0.14-0.048c0.003,0.004,0.002,0.012,0.003,0.017C22.276,22.246,22.276,22.259,22.276,22.273"/>
					<path fill="#E5E5E5" d="M22.276,22.273L22.276,22.273L22.276,22.273L22.276,22.273l-0.001-0.002l0,0V22.27l0,0l0,0l0,0l0,0l0,0
						l0,0l0,0l0.001,0.001l0,0h0.001l0,0h0.001l0,0c-0.024,0-0.049,0-0.073,0c-0.017-0.002-0.037-0.005-0.054-0.007
						c0.03-0.082,0.122-0.044,0.122-0.043c0.003,0.003,0.002,0.01,0.003,0.014C22.276,22.248,22.276,22.26,22.276,22.273"/>
					<path fill="#E0E0E0" d="M22.276,22.273L22.276,22.273L22.276,22.273L22.276,22.273l-0.001-0.002l0,0V22.27l0,0l0,0l0,0l0,0l0,0
						l0,0l0,0l0.001,0.001l0,0h0.001l0,0h0.001l0,0c-0.021,0-0.043,0-0.064,0c-0.001,0-0.003-0.001-0.005-0.001
						c-0.012-0.001-0.033,0.006-0.04-0.005c-0.012-0.021,0.067-0.049,0.098-0.041c0.002,0.001,0.005,0.001,0.008,0.003
						c0.002,0.003,0.001,0.008,0.002,0.012C22.276,22.25,22.276,22.261,22.276,22.273"/>
					<path fill="#DBDBDB" d="M22.276,22.273L22.276,22.273L22.276,22.273L22.276,22.273l-0.001-0.002l0,0V22.27l0,0l0,0l0,0l0,0l0,0
						l0,0l0,0l0.001,0.001l0,0h0.001l0,0h0.001l0,0c-0.02,0-0.039,0-0.06,0c-0.003-0.001-0.007-0.002-0.01-0.002
						c-0.006-0.001-0.016-0.002-0.021-0.003c0.023-0.045,0.08-0.041,0.087-0.033c0.002,0.002,0.001,0.006,0.002,0.009
						C22.276,22.252,22.276,22.263,22.276,22.273"/>
					<path fill="#D6D6D6" d="M22.276,22.273L22.276,22.273L22.276,22.273L22.276,22.273l-0.001-0.002l0,0V22.27l0,0l0,0l0,0l0,0l0,0
						l0,0l0,0l0.001,0.001l0,0h0.001l0,0h0.001l0,0c-0.018,0-0.036,0-0.054,0c-0.005-0.001-0.011-0.002-0.016-0.003
						c-0.001-0.001-0.003-0.001-0.004-0.001c0.037-0.057,0.069-0.029,0.069-0.028c0.002,0.001,0.001,0.005,0.002,0.007
						C22.276,22.254,22.276,22.264,22.276,22.273"/>
					<path fill="#D1D1D1" d="M22.276,22.273L22.276,22.273L22.276,22.273L22.276,22.273l-0.001-0.002l0,0V22.27l0,0l0,0l0,0l0,0l0,0
						l0,0l0,0l0.001,0.001l0,0h0.001l0,0h0.001l0,0c-0.017,0-0.032,0-0.049,0c-0.005-0.001-0.01-0.002-0.015-0.003
						c0.016-0.043,0.057-0.028,0.061-0.024c0,0.002,0.001,0.004,0.001,0.005C22.276,22.257,22.276,22.265,22.276,22.273"/>
					<path fill="#CCCCCC" d="M22.276,22.273L22.276,22.273L22.276,22.273L22.276,22.273l-0.001-0.002l0,0V22.27l0,0l0,0l0,0l0,0l0,0
						l0,0l0,0l0.001,0.001l0,0h0.001l0,0h0.001l0,0c-0.015,0-0.029,0-0.044,0c-0.004-0.001-0.008-0.002-0.012-0.003
						c0.014-0.034,0.049-0.025,0.054-0.016C22.276,22.259,22.276,22.266,22.276,22.273"/>
					<path fill="#C7C7C7" d="M22.276,22.273L22.276,22.273L22.276,22.273L22.276,22.273l-0.001-0.002l0,0V22.27l0,0l0,0l0,0l0,0l0,0
						l0,0l0,0l0.001,0.001l0,0h0.001l0,0h0.001l0,0c-0.013,0-0.025,0-0.039,0c-0.002-0.001-0.006-0.002-0.009-0.002
						c0.011-0.025,0.023-0.021,0.046-0.014C22.276,22.261,22.276,22.267,22.276,22.273"/>
					<path fill="#C2C2C2" d="M22.276,22.273L22.276,22.273L22.276,22.273L22.276,22.273l-0.001-0.002l0,0V22.27l0,0l0,0l0,0l0,0l0,0
						l0,0l0,0l0.001,0.001l0,0h0.001l0,0h0.001l0,0c-0.011,0-0.022,0-0.034,0c-0.001-0.001-0.004-0.002-0.006-0.002
						c0.008-0.017,0.025-0.021,0.037-0.008c0.001-0.001,0.001-0.001,0.001-0.002C22.276,22.264,22.276,22.269,22.276,22.273"/>
					<path fill="#BDBDBD" d="M22.276,22.273L22.276,22.273L22.276,22.273L22.276,22.273l-0.001-0.002l0,0V22.27l0,0l0,0l0,0l0,0l0,0
						l0,0l0,0l0.001,0.001l0,0h0.001l0,0h0.001l0,0c-0.01,0-0.019,0-0.028,0c-0.001,0-0.003-0.001-0.004-0.002
						c0.008-0.015,0.023-0.014,0.03-0.002c0-0.001,0-0.003,0-0.004C22.276,22.266,22.276,22.27,22.276,22.273"/>
					<path fill="#B8B8B8" d="M22.276,22.273L22.276,22.273L22.276,22.273L22.276,22.273l-0.001-0.002l0,0V22.27l0,0l0,0l0,0l0,0l0,0
						l0,0l0,0l0.001,0.001l0,0h0.001l0,0h0.001l0,0c-0.008,0-0.016,0-0.023,0c0,0,0-0.001-0.001-0.001
						c0.008-0.013,0.021-0.007,0.022,0.001C22.276,22.272,22.276,22.272,22.276,22.273c0-0.002,0-0.005,0-0.007
						C22.276,22.269,22.276,22.271,22.276,22.273"/>
					<g>
						<path fill="#B2B2B2" d="M22.275,22.27L22.275,22.27L22.275,22.27L22.275,22.27L22.275,22.27L22.275,22.27L22.275,22.27
							L22.275,22.27l0.002,0.001l0,0h0.001l0,0c-0.006,0-0.013,0-0.019,0c0.001,0,0.002-0.001,0.002-0.001
							C22.269,22.262,22.275,22.27,22.275,22.27"/>
						<polyline fill="#B2B2B2" points="22.276,22.273 22.276,22.27 22.276,22.273 						"/>
					</g>
					<g>
						<polyline fill="#ADADAD" points="22.275,22.27 22.276,22.271 22.277,22.271 22.277,22.271 22.278,22.271 22.278,22.271 
							22.264,22.271 22.269,22.271 22.275,22.27 22.275,22.27 						"/>
						<polyline fill="#ADADAD" points="22.276,22.273 22.276,22.273 22.276,22.273 						"/>
					</g>
					<polyline fill="#A8A8A8" points="22.278,22.271 22.27,22.271 22.277,22.271 22.278,22.271 22.278,22.271 22.278,22.271 					
						"/>
					<polyline fill="#A3A3A3" points="22.278,22.271 22.275,22.271 22.278,22.271 					"/>
				</g>
			</g>
			<g enable-background="new    ">
				<defs>
					<path id="SVGID_3_" enable-background="new    " d="M7.722,22.271c0.001,0,0.001,0,0.002-0.001
						c-0.001,0.001-0.001,0.003-0.001,0.004c0-0.091,0-0.184,0-0.276C7.875,22,7.996,22.119,7.996,22.271
						C7.904,22.271,7.813,22.271,7.722,22.271z"/>
				</defs>
				<clipPath id="SVGID_4_">
					<use xlink:href="#SVGID_3_"  overflow="visible"/>
				</clipPath>
				<g clip-path="url(#SVGID_4_)" enable-background="new    ">
					<path fill="#FFFFFF" d="M7.722,22.271c0,0,0.001,0,0.002,0c0,0.001-0.001,0.002-0.001,0.003c0-0.091,0-0.184,0-0.276
						C7.875,22,7.996,22.119,7.996,22.271C7.904,22.271,7.813,22.271,7.722,22.271"/>
					<path fill="#FFFFFF" d="M7.792,22.271L7.792,22.271c-0.024,0-0.046,0-0.069,0c0,0,0,0,0,0l0,0h0h0h0l0,0V22.27h0l0,0.001l0,0
						l0,0h0v0.001l0,0l0,0.001l0,0l0,0c0-0.09,0-0.183,0-0.275C7.875,22,7.996,22.119,7.996,22.271
						C7.927,22.271,7.859,22.271,7.792,22.271"/>
					<path fill="#FFFFFF" d="M7.826,22.271c-0.012,0-0.027-0.002-0.039,0c-0.021,0-0.043,0-0.065,0c0,0,0,0,0,0l0,0h0h0h0l0,0V22.27
						h0l0,0.001l0,0l0,0h0v0.001l0,0l0,0.001l0,0l0,0c0-0.022,0-0.046,0-0.07l0,0v-0.001c0-0.067,0-0.136,0-0.204
						C7.875,22,7.996,22.119,7.996,22.271C7.939,22.271,7.882,22.271,7.826,22.271"/>
					<path fill="#FFFFFF" d="M7.861,22.271c-0.023,0-0.055-0.004-0.077,0c-0.021,0-0.042,0-0.062,0c0,0,0,0,0,0l0,0h0h0h0l0,0V22.27
						h0l0,0.001l0,0l0,0h0v0.001l0,0l0,0.001l0,0l0,0c0-0.021,0-0.044,0-0.066l0-0.004l0-0.043c0-0.054,0-0.107,0-0.162
						C7.875,22,7.996,22.119,7.996,22.271C7.951,22.271,7.906,22.271,7.861,22.271"/>
					<path fill="#FFFFFF" d="M7.896,22.271c0.047-0.111-0.067-0.199-0.146-0.17c-0.001,0.001-0.002,0.001-0.003,0.002
						c0.011,0.008,0.021,0.017,0.029,0.026c0.032,0.036,0.063,0.073,0.094,0.111c0.006,0.007,0.011,0.015,0.016,0.021
						c-0.031,0.003-0.074,0.003-0.105,0.009c-0.02,0-0.039,0-0.059,0c0,0,0,0,0,0l0,0h0h0h0l0,0V22.27h0l0,0.001l0,0l0,0h0v0.001
						l0,0l0,0.001l0,0l0,0c0-0.021,0-0.042,0-0.063l0.001-0.007l-0.001-0.085c0-0.04,0-0.08,0-0.12
						C7.875,22,7.996,22.119,7.996,22.271C7.962,22.271,7.929,22.271,7.896,22.271"/>
					<path fill="#FFFFFF" d="M7.722,22.271L7.722,22.271L7.722,22.271h0.001h0l0,0V22.27h0l0,0.001l0,0l0,0h0v0.001l0,0l0,0.001l0,0
						l0,0c0-0.02,0-0.039,0-0.06l0.002-0.011c0.002-0.023,0.004-0.056,0.006-0.08c0.029,0.022,0.039,0.056,0.055,0.086
						c0.015,0.029,0.05,0.033,0.07,0.056c-0.023,0.002-0.055,0.003-0.078,0.007C7.759,22.271,7.741,22.271,7.722,22.271"/>
					<path fill="#FFFFFF" d="M7.722,22.271L7.722,22.271L7.722,22.271h0.001h0l0,0V22.27h0l0,0.001l0,0l0,0h0v0.001l0,0l0,0.001l0,0
						l0,0c0-0.019,0-0.037,0-0.057l0.002-0.014c0.001-0.016,0.002-0.036,0.004-0.052c0.02,0.021,0.021,0.053,0.041,0.074
						c0.015,0.018,0.037,0.026,0.055,0.041c-0.015,0.001-0.036,0.002-0.051,0.005C7.757,22.271,7.74,22.271,7.722,22.271"/>
					<path fill="#FFFFFF" d="M7.722,22.271L7.722,22.271L7.722,22.271h0.001h0l0,0V22.27h0l0,0.001l0,0l0,0h0v0.001l0,0l0,0.001l0,0
						l0,0c0-0.018,0-0.035,0-0.053l0.003-0.017c0-0.008,0.001-0.017,0.002-0.024c0.048,0.077,0.05,0.08,0.066,0.088
						c-0.007,0.001-0.017,0.003-0.023,0.004C7.754,22.271,7.738,22.271,7.722,22.271"/>
					<path fill="#FAFAFA" d="M7.722,22.271L7.722,22.271L7.722,22.271h0.001h0l0,0V22.27h0l0,0.001l0,0l0,0h0v0.001l0,0l0,0.001l0,0
						l0,0c0-0.016,0-0.033,0-0.05l0.003-0.019c0.042,0.02,0.06,0.063,0.059,0.063c-0.002,0.005-0.013,0.002-0.018,0.003
						C7.752,22.271,7.737,22.271,7.722,22.271"/>
					<path fill="#F5F5F5" d="M7.722,22.271L7.722,22.271L7.722,22.271h0.001h0l0,0V22.27h0l0,0.001l0,0l0,0h0v0.001l0,0l0,0.001l0,0
						l0,0c0-0.015,0-0.03,0-0.046l0.003-0.018c0.037,0.019,0.054,0.059,0.054,0.059c-0.002,0.004-0.012,0.002-0.017,0.003
						C7.75,22.271,7.736,22.271,7.722,22.271"/>
					<path fill="#F0F0F0" d="M7.722,22.271L7.722,22.271L7.722,22.271h0.001h0l0,0V22.27h0l0,0.001l0,0l0,0h0v0.001l0,0l0,0.001l0,0
						l0,0c0,0.001,0,0.001,0,0.001c0-0.015,0-0.029,0-0.044l0.003-0.015c0.032,0.017,0.049,0.053,0.049,0.053
						c-0.002,0.004-0.01,0.002-0.014,0.003C7.748,22.271,7.735,22.271,7.722,22.271"/>
					<path fill="#EBEBEB" d="M7.722,22.271L7.722,22.271L7.722,22.271h0.001h0l0,0V22.27h0l0,0.001l0,0l0,0h0v0.001l0,0l0,0.001l0,0
						l0,0c0,0.001,0,0.001,0,0.001c0-0.014,0-0.027,0-0.04l0.003-0.014c0.026,0.015,0.044,0.048,0.044,0.049
						c-0.002,0.003-0.009,0.001-0.012,0.002C7.746,22.271,7.734,22.271,7.722,22.271"/>
					<path fill="#E5E5E5" d="M7.722,22.271L7.722,22.271L7.722,22.271h0.001h0l0,0V22.27h0l0,0.001l0,0l0,0h0v0.001l0,0l0,0.001l0,0
						l0,0c0,0.001,0,0.001,0,0.001c0-0.013,0-0.024,0-0.037l0.002-0.011c0.022,0.014,0.039,0.043,0.039,0.043
						c-0.001,0.003-0.007,0.001-0.01,0.002C7.744,22.271,7.733,22.271,7.722,22.271"/>
					<path fill="#E0E0E0" d="M7.722,22.271L7.722,22.271L7.722,22.271h0.001h0l0,0V22.27h0l0,0.001l0,0l0,0h0v0.001l0,0l0,0.001l0,0
						l0,0c0,0.001,0,0.001,0,0.001c0-0.012,0-0.022,0-0.033l0.002-0.009c0.018,0.011,0.034,0.037,0.034,0.037
						c-0.001,0.002-0.006,0.001-0.008,0.002C7.742,22.271,7.732,22.271,7.722,22.271"/>
					<path fill="#DBDBDB" d="M7.722,22.271L7.722,22.271L7.722,22.271h0.001h0l0,0V22.27h0l0,0.001l0,0l0,0h0v0.001l0,0l0,0.001l0,0
						l0,0c0,0.001,0,0.001,0,0.001c0-0.01,0-0.021,0-0.03l0.002-0.007c0.014,0.011,0.029,0.032,0.029,0.032
						c-0.001,0.002-0.004,0.002-0.006,0.002C7.739,22.271,7.731,22.271,7.722,22.271"/>
					<path fill="#D6D6D6" d="M7.722,22.271L7.722,22.271L7.722,22.271h0.001h0l0,0V22.27h0l0,0.001l0,0l0,0h0v0.001l0,0l0,0.001l0,0
						l0,0c0,0.001,0,0.001,0,0.001c0-0.009,0-0.018,0-0.026l0.001-0.005c0.01,0.008,0.029,0.011,0.024,0.027
						c0,0.001-0.003,0.001-0.004,0.001C7.737,22.271,7.73,22.271,7.722,22.271"/>
					<path fill="#D1D1D1" d="M7.722,22.271L7.722,22.271L7.722,22.271h0.001h0l0,0V22.27h0l0,0.001l0,0l0,0h0v0.001l0,0l0,0.001l0,0
						l0,0c0,0.001,0,0.001,0,0.001c0-0.008,0-0.016,0-0.023l0.001-0.002c0.007,0.006,0.021,0.008,0.019,0.021
						c0,0.001-0.001,0.001-0.001,0.001C7.735,22.271,7.729,22.271,7.722,22.271"/>
					<path fill="#CCCCCC" d="M7.722,22.271L7.722,22.271L7.722,22.271h0.001h0l0,0V22.27h0l0,0.001l0,0l0,0h0v0.001l0,0l0,0.001l0,0
						l0,0c0,0.001,0,0.001,0,0.001c0-0.007,0-0.014,0-0.021h0.001c0.005,0.006,0.011,0.011,0.014,0.018
						C7.733,22.271,7.728,22.271,7.722,22.271"/>
					<path fill="#C7C7C7" d="M7.722,22.271L7.722,22.271L7.722,22.271h0.001h0l0,0V22.27h0l0,0.001l0,0l0,0h0v0.001l0,0l0,0.001l0,0
						l0,0c0,0.001,0,0.001,0,0.001c0-0.006,0-0.011,0-0.017l0.001,0.002c0.003,0.004,0.004,0.01,0.011,0.012
						C7.731,22.271,7.727,22.271,7.722,22.271"/>
					<g>
						<polyline fill="#C2C2C2" points="7.724,22.271 7.724,22.272 7.723,22.273 7.723,22.273 7.723,22.273 7.723,22.274 
							7.723,22.26 7.724,22.264 7.724,22.271 						"/>
						<polyline fill="#C2C2C2" points="7.722,22.271 7.723,22.271 7.723,22.271 7.724,22.271 7.724,22.271 7.731,22.271 
							7.722,22.271 						"/>
					</g>
					<g>
						<polyline fill="#BDBDBD" points="7.723,22.273 7.723,22.274 7.723,22.264 7.723,22.27 7.723,22.273 7.723,22.273 						"/>
						<polyline fill="#BDBDBD" points="7.722,22.271 7.729,22.271 7.722,22.271 						"/>
					</g>
					<g>
						<polyline fill="#B8B8B8" points="7.723,22.274 7.723,22.267 7.723,22.274 						"/>
						<polyline fill="#B8B8B8" points="7.722,22.271 7.725,22.271 7.722,22.271 						"/>
					</g>
					<polyline fill="#B2B2B2" points="7.723,22.274 7.723,22.271 7.723,22.274 					"/>
					<path fill="#FFFFFF" d="M7.931,22.271c-0.002-0.003,0.001-0.008,0.002-0.011c0.011-0.05-0.01-0.11-0.05-0.148
						c-0.022-0.021-0.082-0.065-0.16-0.036c0-0.025,0-0.052,0-0.078C7.875,22,7.996,22.119,7.996,22.271
						C7.974,22.271,7.953,22.271,7.931,22.271"/>
					<path fill="#FFFFFF" d="M7.965,22.271c-0.002-0.003,0-0.009,0.001-0.013c0.004-0.057-0.022-0.121-0.066-0.164
						c-0.049-0.049-0.109-0.068-0.177-0.06c0-0.013,0-0.024,0-0.037C7.875,22,7.996,22.119,7.996,22.271
						C7.986,22.271,7.976,22.271,7.965,22.271"/>
					<path fill="#FFFFFF" d="M7.875,22.198c-0.02-0.023-0.041-0.046-0.06-0.069c0.019,0.006,0.053,0.024,0.064,0.075
						C7.878,22.202,7.876,22.2,7.875,22.198"/>
				</g>
			</g>
			<g enable-background="new    ">
				<defs>
					<path id="SVGID_5_" enable-background="new    " d="M7.723,7.712c0,0.008,0.001,0.016,0.007,0.021
						C7.724,7.729,7.717,7.727,7.709,7.727c0.094,0,0.19,0,0.287,0C7.992,7.885,7.882,7.996,7.723,8
						C7.723,7.903,7.723,7.807,7.723,7.712z"/>
				</defs>
				<clipPath id="SVGID_6_">
					<use xlink:href="#SVGID_5_"  overflow="visible"/>
				</clipPath>
				<g clip-path="url(#SVGID_6_)" enable-background="new    ">
					<path fill="#FFFFFF" d="M7.723,7.712c0,0.007,0.002,0.014,0.006,0.02c-0.006-0.003-0.013-0.005-0.02-0.006
						c0.094,0,0.19,0,0.287,0C7.992,7.885,7.882,7.996,7.723,8C7.723,7.903,7.723,7.807,7.723,7.712"/>
					<path fill="#FFFFFF" d="M7.723,7.712c0,0.007,0.002,0.014,0.006,0.02l0,0v0l0,0h0L7.728,7.732
						C7.722,7.729,7.716,7.727,7.709,7.727c0.026,0,0.053,0,0.08,0c0,0,0.001,0,0.001,0h0.011c0.064,0,0.129,0,0.195,0
						C7.992,7.885,7.882,7.996,7.723,8C7.723,7.903,7.723,7.807,7.723,7.712"/>
					<path fill="#FFFFFF" d="M7.723,7.712c0,0.007,0.002,0.014,0.006,0.02l0,0v0l0,0h0L7.728,7.732
						C7.722,7.729,7.716,7.727,7.709,7.727c0.025,0,0.051,0,0.077,0c0.001,0,0.003,0,0.004,0.001l0.054-0.001
						c0.05,0,0.101,0,0.151,0C7.992,7.885,7.882,7.996,7.723,8C7.723,7.903,7.723,7.807,7.723,7.712"/>
					<path fill="#FFFFFF" d="M7.723,7.712c0,0.007,0.002,0.014,0.006,0.02l0,0v0l0,0h0L7.728,7.732
						C7.722,7.729,7.716,7.727,7.709,7.727c0.024,0,0.049,0,0.074,0c0.002,0,0.005,0.001,0.007,0.001l0.098-0.001
						c0.036,0,0.072,0,0.108,0C7.992,7.885,7.882,7.996,7.723,8C7.723,7.903,7.723,7.807,7.723,7.712"/>
					<path fill="#FFFFFF" d="M7.723,7.712c0,0.007,0.002,0.014,0.006,0.02l0,0v0l0,0h0L7.728,7.732
						C7.722,7.729,7.716,7.727,7.709,7.727c0.023,0,0.047,0,0.07,0c0.003,0,0.007,0.001,0.011,0.002
						C7.815,7.73,7.854,7.719,7.874,7.735c0.015,0.012,0.008,0.03,0.011,0.045c0.021-0.013,0.03-0.033,0.042-0.053
						c0.023,0,0.047,0,0.07,0C7.992,7.885,7.882,7.996,7.723,8C7.723,7.903,7.723,7.807,7.723,7.712"/>
					<path fill="#FFFFFF" d="M7.723,7.712c0,0.007,0.002,0.014,0.006,0.02l0,0v0l0,0h0L7.728,7.732
						C7.722,7.729,7.716,7.727,7.709,7.727c0.022,0,0.044,0,0.067,0c0.004,0.001,0.01,0.002,0.014,0.003
						C7.807,7.73,7.833,7.724,7.846,7.733c0.032,0.023-0.001,0.062,0.021,0.087c0,0.001,0.063,0.039,0.096-0.094
						c0.011,0,0.022,0,0.034,0C7.992,7.885,7.882,7.996,7.723,8C7.723,7.903,7.723,7.807,7.723,7.712"/>
					<path fill="#FFFFFF" d="M7.723,7.712c0,0.007,0.002,0.014,0.006,0.02l0,0v0l0,0h0L7.728,7.732
						C7.722,7.729,7.716,7.727,7.709,7.727c0.021,0,0.042,0,0.063,0C7.778,7.728,7.785,7.729,7.791,7.73
						c0.008,0.001,0.021-0.002,0.028,0.002c0,0,0.02,0.032,0.026,0.063c0.004,0.019-0.006,0.037-0.002,0.055
						c0.006,0.031,0.056,0.056,0.028,0.09C7.861,7.952,7.824,7.987,7.723,7.994C7.723,7.899,7.723,7.805,7.723,7.712"/>
					<path fill="#FAFAFA" d="M7.723,7.712c0,0.007,0.002,0.014,0.006,0.02l0,0v0l0,0h0L7.728,7.732
						C7.722,7.729,7.716,7.727,7.709,7.727c0.02,0,0.04,0,0.06,0c0.006,0.001,0.015,0.003,0.021,0.004
						C7.817,7.758,7.838,7.803,7.827,7.84C7.8,7.928,7.781,7.933,7.723,7.95C7.723,7.87,7.723,7.791,7.723,7.712"/>
					<path fill="#F5F5F5" d="M7.723,7.712c0,0.007,0.002,0.014,0.006,0.02l0,0v0l0,0h0L7.728,7.732
						C7.722,7.729,7.716,7.727,7.709,7.727c0.019,0,0.038,0,0.057,0C7.772,7.728,7.779,7.729,7.785,7.73
						c0.004,0.037,0.039,0.068,0.024,0.109C7.804,7.855,7.804,7.855,7.723,7.906C7.723,7.841,7.723,7.777,7.723,7.712"/>
					<path fill="#F0F0F0" d="M7.723,7.712c0,0.007,0.002,0.014,0.006,0.02l0,0v0l0,0h0L7.728,7.732
						C7.722,7.729,7.716,7.727,7.709,7.727c0.018,0,0.036,0,0.054,0C7.768,7.728,7.774,7.729,7.779,7.73
						c0.003,0.034,0.027,0.064,0.016,0.1C7.784,7.865,7.733,7.88,7.732,7.879C7.726,7.876,7.726,7.864,7.723,7.858
						C7.723,7.809,7.723,7.761,7.723,7.712"/>
					<path fill="#EBEBEB" d="M7.723,7.712c0,0.007,0.002,0.014,0.006,0.02l0,0v0l0,0h0L7.728,7.732
						C7.722,7.729,7.716,7.727,7.709,7.727c0.017,0,0.033,0,0.05,0C7.764,7.728,7.77,7.729,7.774,7.73
						c0.003,0.03,0.019,0.059,0.008,0.09c-0.009,0.028-0.05,0.042-0.051,0.041C7.717,7.853,7.726,7.824,7.723,7.808
						C7.723,7.776,7.723,7.745,7.723,7.712"/>
					<path fill="#E5E5E5" d="M7.723,7.712c0,0.007,0.002,0.014,0.006,0.02l0,0v0l0,0h0L7.728,7.732
						C7.722,7.729,7.716,7.727,7.709,7.727c0.016,0,0.031,0,0.047,0C7.76,7.728,7.765,7.729,7.768,7.729
						c0.003,0.026,0.012,0.053,0.002,0.08C7.763,7.832,7.731,7.843,7.73,7.843C7.716,7.834,7.727,7.806,7.723,7.791
						C7.723,7.765,7.723,7.739,7.723,7.712"/>
					<path fill="#E0E0E0" d="M7.723,7.712c0,0.007,0.002,0.014,0.006,0.02l0,0v0l0,0h0L7.728,7.732
						C7.722,7.729,7.716,7.727,7.709,7.727c0.014,0,0.029,0,0.043,0c0.003,0.001,0.007,0.002,0.01,0.003
						c0.012,0.102-0.033,0.095-0.034,0.095c-0.01-0.006-0.003-0.028-0.006-0.039C7.723,7.761,7.723,7.737,7.723,7.712"/>
					<path fill="#DBDBDB" d="M7.723,7.712c0,0.007,0.002,0.014,0.006,0.02l0,0v0l0,0h0L7.728,7.732
						C7.722,7.729,7.716,7.727,7.709,7.727c0.013,0,0.026,0,0.04,0c0.002,0,0.005,0.001,0.008,0.002
						c0.011,0.089-0.029,0.078-0.029,0.077C7.721,7.803,7.725,7.789,7.723,7.781C7.723,7.758,7.723,7.735,7.723,7.712"/>
					<path fill="#D6D6D6" d="M7.723,7.712c0,0.007,0.002,0.014,0.006,0.02l0,0v0l0,0h0L7.728,7.732
						C7.722,7.729,7.716,7.727,7.709,7.727c0.012,0,0.024,0,0.037,0c0.001,0,0.004,0.001,0.005,0.002
						c0.002,0.014,0.01,0.028,0.004,0.042C7.75,7.785,7.728,7.792,7.727,7.792C7.723,7.789,7.724,7.781,7.723,7.776
						C7.723,7.755,7.723,7.734,7.723,7.712"/>
					<path fill="#D1D1D1" d="M7.723,7.712c0,0.007,0.002,0.014,0.006,0.02l0,0v0l0,0h0L7.728,7.732
						C7.722,7.729,7.716,7.727,7.709,7.727c0.011,0,0.022,0,0.033,0c0.001,0,0.002,0.001,0.003,0.002
						c0.002,0.012,0.01,0.024,0.005,0.037C7.747,7.778,7.728,7.784,7.727,7.784C7.723,7.782,7.724,7.775,7.723,7.771
						C7.723,7.751,7.723,7.732,7.723,7.712"/>
					<path fill="#CCCCCC" d="M7.723,7.712c0,0.007,0.002,0.014,0.006,0.02l0,0v0l0,0h0L7.728,7.732
						C7.722,7.729,7.716,7.727,7.709,7.727c0.01,0,0.02,0,0.03,0c0,0,0.001,0.001,0.001,0.001c0.001,0.011,0.01,0.02,0.007,0.032
						S7.727,7.776,7.727,7.776c-0.003-0.001-0.002-0.007-0.003-0.01C7.723,7.748,7.723,7.73,7.723,7.712"/>
					<path fill="#C7C7C7" d="M7.723,7.712c0,0.007,0.002,0.014,0.006,0.02l0,0v0l0,0h0L7.728,7.732
						C7.722,7.729,7.716,7.727,7.709,7.727c0.009,0,0.018,0,0.026,0c0,0,0,0.001-0.001,0.001c0.002,0.009,0.011,0.016,0.009,0.026
						c-0.002,0.01-0.018,0.015-0.018,0.015C7.724,7.768,7.724,7.763,7.723,7.761C7.723,7.745,7.723,7.729,7.723,7.712"/>
					<path fill="#C2C2C2" d="M7.723,7.712c0,0.007,0.002,0.014,0.006,0.02l0,0v0l0,0h0L7.728,7.732
						C7.722,7.729,7.716,7.727,7.709,7.727c0.008,0,0.016,0,0.023,0c-0.001,0-0.002,0-0.003,0.001
						c0.002,0.008,0.012,0.012,0.01,0.021C7.739,7.757,7.726,7.761,7.726,7.761C7.724,7.76,7.724,7.758,7.723,7.756
						C7.723,7.742,7.723,7.727,7.723,7.712"/>
					<path fill="#BDBDBD" d="M7.723,7.712c0,0.007,0.002,0.014,0.006,0.02l0,0v0l0,0h0L7.728,7.732
						C7.722,7.729,7.716,7.727,7.709,7.727c0.006,0,0.013,0,0.02,0c-0.001,0-0.004,0-0.005,0c0.002,0.009,0.013,0.029,0.001,0.026
						c-0.001,0-0.001-0.001-0.002-0.002C7.723,7.738,7.723,7.726,7.723,7.712"/>
					<g>
						<path fill="#B8B8B8" d="M7.721,7.729C7.717,7.728,7.713,7.727,7.709,7.727c0.005,0,0.011,0,0.017,0c-0.002,0-0.005,0-0.007,0
							C7.719,7.728,7.72,7.729,7.721,7.729S7.721,7.729,7.721,7.729"/>
						<path fill="#B8B8B8" d="M7.723,7.712c0,0.007,0.002,0.014,0.006,0.02l0,0v0l0.001,0.001c0.006,0.008-0.008,0.012-0.008,0.012
							C7.723,7.735,7.723,7.724,7.723,7.712"/>
					</g>
					<g>
						<polyline fill="#B2B2B2" points="7.709,7.727 7.723,7.727 7.713,7.727 7.713,7.727 7.711,7.727 7.709,7.727 						"/>
						<path fill="#B2B2B2" d="M7.723,7.712c0,0.007,0.002,0.013,0.005,0.019l0,0c0.002,0.005-0.004,0.006-0.006,0.01
							C7.723,7.732,7.723,7.722,7.723,7.712"/>
					</g>
					<g>
						<polyline fill="#ADADAD" points="7.709,7.727 7.719,7.727 7.709,7.727 						"/>
						<path fill="#ADADAD" d="M7.723,7.712c0,0.005,0.001,0.01,0.003,0.015l0,0c0.001,0.004-0.002,0.006-0.003,0.01
							C7.723,7.729,7.723,7.721,7.723,7.712"/>
					</g>
					<g>
						<polyline fill="#A8A8A8" points="7.709,7.727 7.716,7.727 7.709,7.727 						"/>
						<path fill="#A8A8A8" d="M7.723,7.712c0,0.003,0,0.006,0.001,0.009l0,0c0,0.003-0.001,0.007-0.001,0.01
							C7.723,7.726,7.723,7.719,7.723,7.712"/>
					</g>
					<g>
						<polyline fill="#A3A3A3" points="7.709,7.727 7.712,7.727 7.709,7.727 						"/>
						<polyline fill="#A3A3A3" points="7.723,7.712 7.723,7.715 7.723,7.716 7.723,7.727 7.723,7.712 						"/>
					</g>
					<g>
						<polyline fill="#9E9E9E" points="7.709,7.727 7.709,7.727 7.709,7.727 						"/>
						<polyline fill="#9E9E9E" points="7.723,7.712 7.723,7.722 7.723,7.712 						"/>
					</g>
					<polyline fill="#999999" points="7.723,7.712 7.723,7.717 7.723,7.712 					"/>
				</g>
			</g>
			<g enable-background="new    ">
				<defs>
					<path id="SVGID_7_" enable-background="new    " d="M22.291,7.727c-0.008,0-0.016,0.002-0.021,0.007
						c0.005-0.006,0.007-0.013,0.007-0.021c0,0.094,0,0.189,0,0.286c-0.158-0.004-0.269-0.114-0.272-0.273
						C22.1,7.727,22.197,7.727,22.291,7.727z"/>
				</defs>
				<clipPath id="SVGID_8_">
					<use xlink:href="#SVGID_7_"  overflow="visible"/>
				</clipPath>
				<g clip-path="url(#SVGID_8_)" enable-background="new    ">
					<path fill="#FFFFFF" d="M22.291,7.727c-0.008,0-0.016,0.002-0.021,0.007c0.004-0.006,0.007-0.013,0.007-0.021
						c0,0.094,0,0.189,0,0.286c-0.158-0.004-0.269-0.114-0.272-0.273C22.1,7.727,22.197,7.727,22.291,7.727"/>
					<path fill="#FFFFFF" d="M22.291,7.727c-0.008,0-0.016,0.002-0.021,0.007l0,0l0.001-0.001l0.001-0.001l0.001-0.001l0.001-0.003
						c0.002-0.004,0.003-0.009,0.003-0.014c0,0.093,0,0.188,0,0.283l-0.015,0c-0.152-0.013-0.248-0.114-0.255-0.269
						C22.102,7.727,22.198,7.727,22.291,7.727"/>
					<path fill="#FAFAFA" d="M22.291,7.727c-0.008,0-0.016,0.002-0.021,0.007l0,0l0.001-0.001l0.001-0.001l0.001-0.001l0.001-0.003
						c0.002-0.004,0.003-0.009,0.003-0.014c0,0.08,0,0.16,0,0.242l-0.013,0c-0.064,0-0.216-0.023-0.221-0.229
						C22.126,7.727,22.209,7.727,22.291,7.727"/>
					<path fill="#F5F5F5" d="M22.291,7.727c-0.008,0-0.016,0.002-0.021,0.007l0,0l0.001-0.001l0.001-0.001l0.001-0.001l0.001-0.003
						c0.002-0.004,0.003-0.009,0.003-0.014c0,0.066,0,0.133,0,0.201l-0.011,0.001c-0.069,0.007-0.186-0.008-0.187-0.189
						C22.15,7.727,22.221,7.727,22.291,7.727"/>
					<path fill="#F0F0F0" d="M22.291,7.727c-0.008,0-0.016,0.002-0.021,0.007l0,0l0.001-0.001l0.001-0.001l0.001-0.001l0.001-0.003
						c0.002-0.004,0.003-0.009,0.003-0.014c0,0.053,0,0.106,0,0.16l-0.009,0.014c-0.189,0.006-0.153-0.159-0.152-0.161
						C22.174,7.727,22.233,7.727,22.291,7.727"/>
					<path fill="#EBEBEB" d="M22.291,7.727c-0.008,0-0.016,0.002-0.021,0.007l0,0l0.001-0.001l0.001-0.001l0.001-0.001l0.001-0.003
						c0.002-0.004,0.003-0.009,0.003-0.014c0,0.04,0,0.08,0,0.12L22.268,7.87c-0.155,0.008-0.142-0.133-0.14-0.135
						c0.004-0.006,0.018-0.006,0.024-0.008C22.2,7.727,22.246,7.727,22.291,7.727"/>
					<path fill="#E5E5E5" d="M22.291,7.727c-0.008,0-0.016,0.002-0.021,0.007l0,0l0.001-0.001l0.001-0.001l0.001-0.001l0.001-0.003
						c0.002-0.004,0.003-0.009,0.003-0.014c0,0.026,0,0.054,0,0.081l0,0c-0.002,0.018,0.006,0.046-0.007,0.058
						c-0.001,0-0.059,0.008-0.093-0.025c-0.037-0.035-0.031-0.093-0.03-0.093c0.009-0.01,0.031-0.005,0.045-0.007
						C22.225,7.727,22.258,7.727,22.291,7.727"/>
					<path fill="#E0E0E0" d="M22.291,7.727c-0.008,0-0.016,0.002-0.021,0.007l0,0l0.001-0.001l0.001-0.001l0.001-0.001l0.001-0.003
						c0.002-0.004,0.003-0.009,0.003-0.014c0,0.025,0,0.05,0,0.075l-0.001,0.005c-0.002,0.012,0.004,0.032-0.005,0.041
						c-0.001,0.001-0.11,0.021-0.107-0.095c0-0.002-0.001-0.005,0-0.007c0.011-0.011,0.035-0.002,0.049-0.006
						C22.238,7.727,22.265,7.727,22.291,7.727"/>
					<path fill="#DBDBDB" d="M22.291,7.727c-0.008,0-0.016,0.002-0.021,0.007l0,0l0.001-0.001l0.001-0.001l0.001-0.001l0.001-0.003
						c0.002-0.004,0.003-0.009,0.003-0.014c0,0.023,0,0.047,0,0.07l-0.003,0.01c0,0.007,0.003,0.018-0.002,0.022
						c-0.001,0.001-0.092,0.022-0.091-0.073c0-0.003-0.002-0.008,0-0.011c0.008-0.008,0.026-0.003,0.037-0.006
						C22.242,7.727,22.266,7.727,22.291,7.727"/>
					<path fill="#D6D6D6" d="M22.291,7.727c-0.008,0-0.016,0.002-0.021,0.007l0,0l0.001-0.001l0.001-0.001l0.001-0.001l0.001-0.003
						c0.002-0.004,0.003-0.009,0.003-0.014c0,0.021,0,0.043,0,0.065l-0.004,0.015c0,0.002,0.001,0.004-0.001,0.005
						c0,0.001-0.075,0.023-0.074-0.054c0-0.004-0.003-0.009,0.001-0.014c0.005-0.005,0.018-0.003,0.024-0.005
						C22.246,7.727,22.268,7.727,22.291,7.727"/>
					<path fill="#D1D1D1" d="M22.291,7.727c-0.008,0-0.016,0.002-0.021,0.007l0,0l0.001-0.001l0.001-0.001l0.001-0.001l0.001-0.003
						c0.002-0.004,0.003-0.009,0.003-0.014c0,0.02,0,0.04,0,0.06l-0.004,0.015c-0.082,0.001-0.061-0.057-0.06-0.058
						c0.002-0.003,0.01-0.002,0.015-0.004C22.249,7.727,22.27,7.727,22.291,7.727"/>
					<path fill="#CCCCCC" d="M22.291,7.727c-0.008,0-0.016,0.002-0.021,0.007l0,0l0.001-0.001l0.001-0.001l0.001-0.001l0.001-0.003
						c0.002-0.004,0.003-0.009,0.003-0.014c0,0.018,0,0.037,0,0.055L22.273,7.78c-0.07,0.001-0.054-0.049-0.053-0.05
						c0.002-0.003,0.009-0.002,0.013-0.003C22.252,7.727,22.272,7.727,22.291,7.727"/>
					<path fill="#C7C7C7" d="M22.291,7.727c-0.008,0-0.016,0.002-0.021,0.007l0,0l0.001-0.001l0.001-0.001l0.001-0.001l0.001-0.003
						c0.002-0.004,0.003-0.009,0.003-0.014c0,0.017,0,0.033,0,0.05l-0.003,0.009c-0.061,0.001-0.045-0.042-0.045-0.042
						c0.002-0.003,0.007-0.002,0.01-0.003C22.255,7.727,22.273,7.727,22.291,7.727"/>
					<path fill="#C2C2C2" d="M22.291,7.727c-0.008,0-0.016,0.002-0.021,0.007l0,0l0.001-0.001l0.001-0.001l0.001-0.001l0.001-0.003
						c0.002-0.004,0.003-0.009,0.003-0.014c0,0.015,0,0.03,0,0.045l-0.003,0.006c-0.054,0.001-0.037-0.035-0.037-0.035
						c0.001-0.002,0.005-0.002,0.007-0.003C22.259,7.727,22.275,7.727,22.291,7.727"/>
					<path fill="#BDBDBD" d="M22.291,7.727c-0.008,0-0.016,0.002-0.021,0.007l0,0l0.001-0.001l0.001-0.001l0.001-0.001l0.001-0.003
						c0.002-0.004,0.003-0.009,0.003-0.014c0,0.013,0,0.026,0,0.04l-0.002,0.003c-0.009,0-0.018,0.004-0.024-0.003
						c-0.008-0.007-0.006-0.025-0.006-0.025c0.001-0.001,0.003-0.002,0.005-0.002C22.262,7.727,22.277,7.727,22.291,7.727"/>
					<path fill="#B8B8B8" d="M22.291,7.727c-0.008,0-0.016,0.002-0.021,0.007l0,0l0.001-0.001l0.001-0.001l0.001-0.001l0.001-0.003
						c0.002-0.004,0.003-0.009,0.003-0.014c0,0.012,0,0.023,0,0.035l-0.002,0.001c-0.007,0-0.014,0.005-0.02-0.001
						c-0.001-0.001-0.005-0.016-0.001-0.021C22.266,7.727,22.279,7.727,22.291,7.727"/>
					<path fill="#B2B2B2" d="M22.291,7.727c-0.008,0-0.016,0.002-0.021,0.007l0,0l0.001-0.001l0.001-0.001l0.001-0.001l0.001-0.003
						c0.002-0.004,0.003-0.009,0.003-0.014c0,0.01,0,0.02,0,0.03l-0.001-0.002c-0.01,0-0.012-0.009-0.017-0.015
						C22.269,7.727,22.28,7.727,22.291,7.727"/>
					<path fill="#ADADAD" d="M22.291,7.727c-0.008,0-0.016,0.002-0.021,0.007l0,0l0.001-0.001l0.001-0.001l0.001-0.001l0.001-0.003
						c0.002-0.004,0.003-0.009,0.003-0.014c0,0.008,0,0.017,0,0.025l-0.001-0.005c-0.004,0-0.005-0.003-0.007-0.006
						c-0.001-0.001-0.003,0-0.005-0.001C22.273,7.727,22.282,7.727,22.291,7.727"/>
					<g>
						<path fill="#A8A8A8" d="M22.274,7.725c0.001-0.004,0.002-0.007,0.002-0.011c0,0.006,0,0.013,0,0.02L22.274,7.725
							c0,0.001,0,0.002-0.001,0.003L22.274,7.725L22.274,7.725"/>
						<path fill="#A8A8A8" d="M22.291,7.727c-0.006,0-0.011,0.001-0.017,0.004l0,0c0.002,0,0.003-0.002,0.002-0.003
							s-0.005,0-0.007,0C22.276,7.727,22.284,7.727,22.291,7.727"/>
					</g>
					<g>
						<polyline fill="#A3A3A3" points="22.276,7.713 22.276,7.728 22.276,7.718 22.276,7.718 22.276,7.715 22.276,7.713 						"/>
						<path fill="#A3A3A3" d="M22.291,7.727c-0.002,0-0.005,0-0.007,0.001l0,0v0l0,0c-0.002-0.002-0.007,0-0.01,0
							C22.28,7.727,22.286,7.727,22.291,7.727"/>
					</g>
					<g>
						<polyline fill="#9E9E9E" points="22.276,7.713 22.276,7.723 22.276,7.713 						"/>
						<polyline fill="#9E9E9E" points="22.291,7.727 22.279,7.727 22.291,7.727 						"/>
					</g>
					<g>
						<polyline fill="#999999" points="22.276,7.713 22.276,7.718 22.276,7.713 						"/>
						<polyline fill="#999999" points="22.291,7.727 22.285,7.727 22.291,7.727 						"/>
					</g>
					<polyline fill="#949494" points="22.291,7.727 22.29,7.727 22.291,7.727 					"/>
				</g>
			</g>
			<g>
				<path fill="#8E8E8E" d="M7.723,5h14.553H7.723z"/>
			</g>
			<g enable-background="new    ">
				<defs>
					<path id="SVGID_9_" enable-background="new    " d="M22.276,21.998c0,1.657,0,3,0,3H7.723c0,0,0-1.343,0-3H22.276z"/>
				</defs>
				<clipPath id="SVGID_10_">
					<use xlink:href="#SVGID_9_"  overflow="visible"/>
				</clipPath>
				<g clip-path="url(#SVGID_10_)" enable-background="new    ">
					<polyline fill="#FFFFFF" points="7.723,21.998 22.276,21.998 22.276,22.001 7.723,22.001 7.723,21.998 					"/>
					<path fill="#FFFFFF" d="M7.723,22.001h14.553c0,0.015,0,0.03,0,0.045H7.723C7.723,22.032,7.723,22.016,7.723,22.001"/>
					<path fill="#FAFAFA" d="M7.723,22.046h14.553c0,0.015,0,0.029,0,0.044H7.723C7.723,22.076,7.723,22.061,7.723,22.046"/>
					<path fill="#F5F5F5" d="M7.723,22.09h14.553c0,0.015,0,0.03,0,0.045H7.723C7.723,22.121,7.723,22.105,7.723,22.09"/>
					<path fill="#F0F0F0" d="M7.723,22.135h14.553c0,0.015,0,0.029,0,0.044H7.723C7.723,22.165,7.723,22.15,7.723,22.135"/>
					<path fill="#EBEBEB" d="M7.723,22.179h14.553c0,0.015,0,0.029,0,0.044H7.723C7.723,22.208,7.723,22.194,7.723,22.179"/>
					<path fill="#E5E5E5" d="M7.723,22.223h14.553c0,0.018,0,0.034,0,0.052H7.723C7.723,22.257,7.723,22.241,7.723,22.223"/>
					<path fill="#E0E0E0" d="M7.723,22.275h14.553c0,0.02,0,0.039,0,0.059H7.723C7.723,22.314,7.723,22.294,7.723,22.275"/>
					<path fill="#DBDBDB" d="M7.723,22.333h14.553c0,0.021,0,0.039,0,0.059H7.723C7.723,22.373,7.723,22.354,7.723,22.333"/>
					<path fill="#D6D6D6" d="M7.723,22.392h14.553c0,0.02,0,0.039,0,0.059H7.723C7.723,22.431,7.723,22.412,7.723,22.392"/>
					<path fill="#D1D1D1" d="M7.723,22.451h14.553c0,0.022,0,0.046,0,0.068H7.723C7.723,22.497,7.723,22.473,7.723,22.451"/>
					<path fill="#CCCCCC" d="M7.723,22.519h14.553c0,0.027,0,0.055,0,0.082H7.723C7.723,22.574,7.723,22.546,7.723,22.519"/>
					<path fill="#C7C7C7" d="M7.723,22.601h14.553c0,0.026,0,0.054,0,0.08H7.723C7.723,22.655,7.723,22.627,7.723,22.601"/>
					<path fill="#C2C2C2" d="M7.723,22.681h14.553c0,0.03,0,0.061,0,0.091H7.723C7.723,22.742,7.723,22.711,7.723,22.681"/>
					<path fill="#BDBDBD" d="M7.723,22.772h14.553c0,0.033,0,0.065,0,0.098H7.723C7.723,22.837,7.723,22.805,7.723,22.772"/>
					<path fill="#B8B8B8" d="M7.723,22.87h14.553c0,0.033,0,0.066,0,0.1H7.723C7.723,22.936,7.723,22.903,7.723,22.87"/>
					<path fill="#B2B2B2" d="M7.723,22.969h14.553c0,0.035,0,0.071,0,0.106H7.723C7.723,23.041,7.723,23.004,7.723,22.969"/>
					<path fill="#ADADAD" d="M7.723,23.076h14.553c0,0.035,0,0.071,0,0.105H7.723C7.723,23.147,7.723,23.111,7.723,23.076"/>
					<path fill="#A8A8A8" d="M7.723,23.181h14.553c0,0.039,0,0.077,0,0.115H7.723C7.723,23.258,7.723,23.22,7.723,23.181"/>
					<path fill="#A3A3A3" d="M7.723,23.296h14.553c0,0.039,0,0.077,0,0.115H7.723C7.723,23.374,7.723,23.335,7.723,23.296"/>
					<path fill="#9E9E9E" d="M7.723,23.412h14.553c0,0.043,0,0.084,0,0.125H7.723C7.723,23.496,7.723,23.455,7.723,23.412"/>
					<path fill="#999999" d="M7.723,23.537h14.553c0,0.046,0,0.092,0,0.136H7.723C7.723,23.628,7.723,23.583,7.723,23.537"/>
					<path fill="#949494" d="M7.723,23.672h14.553c0,0.05,0,0.099,0,0.147H7.723C7.723,23.771,7.723,23.722,7.723,23.672"/>
					<path fill="#8F8F8F" d="M7.723,23.82h14.553c0,0.058,0,0.114,0,0.169H7.723C7.723,23.934,7.723,23.877,7.723,23.82"/>
					<path fill="#8A8A8A" d="M7.723,23.989h14.553c0,0.075,0,0.146,0,0.214H7.723C7.723,24.135,7.723,24.064,7.723,23.989"/>
					<path fill="#858585" d="M7.723,24.203h14.553c0,0.493,0,0.795,0,0.795H7.723C7.723,24.998,7.723,24.696,7.723,24.203"/>
				</g>
			</g>
			<g enable-background="new    ">
				<defs>
					<path id="SVGID_11_" enable-background="new    " d="M7.722,22.271c0.001,0,0.001,0,0.002-0.001
						c-0.001,0.001-0.001,0.003-0.001,0.004c0,1.527,0,2.724,0,2.724c-1.503,0-2.727-1.215-2.727-2.727
						C4.996,22.271,6.193,22.271,7.722,22.271z"/>
				</defs>
				<clipPath id="SVGID_12_">
					<use xlink:href="#SVGID_11_"  overflow="visible"/>
				</clipPath>
				<g clip-path="url(#SVGID_12_)" enable-background="new    ">
					<path fill="#DBDBDB" d="M7.722,22.271c0.001,1.53,0.001,2.727,0.001,2.727c-1.503,0-2.727-1.215-2.727-2.727
						C4.996,22.271,6.193,22.271,7.722,22.271"/>
					<path fill="#DBDBDB" d="M7.722,22.271L7.722,22.271L7.722,22.271h0.001h0l0,0V22.27h0l0,0.001l0,0l0,0h0v0.001l0,0l0,0.001l0,0
						l0,0v0.001c0,0.009,0,0.018,0,0.026c0,0.002,0,0.003,0,0.004v0.035c0,1.496,0,2.658,0,2.658c-1.503,0-2.727-1.215-2.727-2.727
						C4.996,22.271,6.193,22.271,7.722,22.271"/>
					<path fill="#D6D6D6" d="M7.649,22.271c0.013,0,0.031,0.001,0.044,0c0.01,0,0.019,0,0.029,0c0,0,0,0,0,0l0,0h0h0h0l0,0V22.27h0
						l0,0.001l0,0l0,0h0v0.001l0,0l0,0.001l0,0l0,0v0.001c0,0.007,0,0.014,0,0.021c0,0.003,0,0.006,0,0.009l0,0.086
						c0,1.472,0,2.607,0,2.607c-1.503,0-2.727-1.215-2.727-2.727C4.996,22.271,6.155,22.271,7.649,22.271"/>
					<path fill="#D1D1D1" d="M7.593,22.271c0.032,0,0.075,0.003,0.106,0c0.007,0,0.015,0,0.023,0c0,0,0,0,0,0l0,0h0h0h0l0,0V22.27h0
						l0,0.001l0,0l0,0h0v0.001l0,0l0,0.001l0,0l0,0v0.001c0,0.005,0,0.011,0,0.016c0,0.005-0.001,0.011-0.001,0.015
						c-0.008,0.135-0.008,0.135,0.001,0.146c0,1.442,0,2.547,0,2.547c-1.503,0-2.727-1.215-2.727-2.727
						C4.996,22.271,6.126,22.271,7.593,22.271"/>
					<path fill="#CCCCCC" d="M7.527,22.271c0.024,0.009,0.033,0.039,0.061,0.042c0.046,0.005,0.074-0.039,0.117-0.042
						c0.006,0,0.012,0,0.018,0c0,0,0,0,0,0l0,0h0h0h0l0,0V22.27h0l0,0.001l0,0l0,0h0v0.001l0,0l0,0.001l0,0l0,0v0.001l-0.001,0.03
						c-0.002,0.044-0.049,0.051-0.067,0.082c0,0,0.017,0.065,0.068,0.133c0,1.408,0,2.479,0,2.479c-1.503,0-2.727-1.215-2.727-2.727
						C4.996,22.271,6.093,22.271,7.527,22.271"/>
					<path fill="#C7C7C7" d="M7.456,22.271c0.143,0.064,0.17,0.224,0.268,0.324c0,1.371,0,2.402,0,2.402
						c-1.503,0-2.727-1.215-2.727-2.727C4.996,22.271,6.057,22.271,7.456,22.271"/>
					<path fill="#C2C2C2" d="M7.378,22.271c0.177,0.084,0.216,0.284,0.345,0.409c0,1.328,0,2.317,0,2.317
						c-1.503,0-2.727-1.215-2.727-2.727C4.996,22.271,6.017,22.271,7.378,22.271"/>
					<path fill="#BDBDBD" d="M7.292,22.271l0.253,0.294c0.033,0.045,0.103,0.14,0.177,0.207c0,1.281,0,2.226,0,2.226
						c-1.503,0-2.727-1.215-2.727-2.727C4.996,22.271,5.975,22.271,7.292,22.271"/>
					<path fill="#B8B8B8" d="M7.202,22.271c0.074,0.04,0.096,0.122,0.147,0.181c0.039,0.045,0.078,0.09,0.115,0.136
						c0.145,0.174,0.175,0.211,0.259,0.281c0,1.232,0,2.129,0,2.129c-1.503,0-2.727-1.215-2.727-2.727
						C4.996,22.271,5.93,22.271,7.202,22.271"/>
					<path fill="#B2B2B2" d="M7.106,22.271c0.009,0.005,0.013,0.021,0.019,0.031c0.002,0.004,0.361,0.483,0.598,0.668
						c0,1.18,0,2.027,0,2.027c-1.503,0-2.727-1.215-2.727-2.727C4.996,22.271,5.883,22.271,7.106,22.271"/>
					<path fill="#ADADAD" d="M7.006,22.271c0.011,0.006,0.015,0.025,0.021,0.036c0.022,0.037,0.377,0.539,0.696,0.767
						c0,1.126,0,1.924,0,1.924c-1.503,0-2.727-1.215-2.727-2.727C4.996,22.271,5.835,22.271,7.006,22.271"/>
					<path fill="#A8A8A8" d="M6.903,22.271c0.008,0.005,0.011,0.021,0.016,0.028c0.063,0.116,0.426,0.63,0.804,0.883
						c0,1.068,0,1.815,0,1.815c-1.503,0-2.727-1.215-2.727-2.727C4.996,22.271,5.787,22.271,6.903,22.271"/>
					<path fill="#A3A3A3" d="M6.796,22.271c0.013,0.008,0.017,0.032,0.024,0.047c0.003,0.006,0.357,0.628,0.902,0.977
						c0,1.008,0,1.703,0,1.703c-1.503,0-2.727-1.215-2.727-2.727C4.996,22.271,5.736,22.271,6.796,22.271"/>
					<path fill="#9E9E9E" d="M6.684,22.271c0.015,0.01,0.018,0.037,0.025,0.053c0.066,0.136,0.454,0.759,1.014,1.088
						c0,0.943,0,1.586,0,1.586c-1.503,0-2.727-1.215-2.727-2.727C4.996,22.271,5.685,22.271,6.684,22.271"/>
					<path fill="#999999" d="M6.565,22.271c0.017,0.011,0.019,0.041,0.026,0.059c0.068,0.152,0.482,0.844,1.132,1.206
						c0,0.876,0,1.462,0,1.462c-1.503,0-2.727-1.215-2.727-2.727C4.996,22.271,5.63,22.271,6.565,22.271"/>
					<path fill="#949494" d="M6.436,22.271c0.018,0.012,0.02,0.046,0.028,0.065c0.148,0.34,0.621,1.003,1.26,1.332
						c0,0.802,0,1.329,0,1.329c-1.503,0-2.727-1.215-2.727-2.727C4.996,22.271,5.572,22.271,6.436,22.271"/>
					<path fill="#8F8F8F" d="M6.292,22.271c0.018,0.012,0.02,0.047,0.028,0.067c0.167,0.401,0.677,1.126,1.403,1.479
						c0,0.718,0,1.181,0,1.181c-1.503,0-2.727-1.215-2.727-2.727C4.996,22.271,5.509,22.271,6.292,22.271"/>
					<path fill="#8A8A8A" d="M6.126,22.271c0.021,0.015,0.022,0.057,0.031,0.081c0.171,0.441,0.747,1.275,1.565,1.634
						c0,0.621,0,1.012,0,1.012c-1.503,0-2.727-1.215-2.727-2.727C4.996,22.271,5.438,22.271,6.126,22.271"/>
					<path fill="#858585" d="M5.918,22.271c0.02,0.014,0.019,0.054,0.027,0.077c0.228,0.646,0.928,1.515,1.778,1.849
						c0,0.497,0,0.801,0,0.801c-1.503,0-2.727-1.215-2.727-2.727C4.996,22.271,5.35,22.271,5.918,22.271"/>
					<path fill="#C7C7C7" d="M7.722,22.271L7.722,22.271L7.722,22.271h0.001h0l0,0V22.27h0l0,0.001l0,0l0,0h0v0.001l0,0l0,0.001l0,0
						l0,0v0.001c0,0.002,0,0.003,0,0.005c0,0.006-0.001,0.015-0.001,0.021c-0.061,0.079-0.073,0.018-0.073,0.018
						c-0.003-0.019,0.005-0.042,0.062-0.046C7.714,22.271,7.718,22.271,7.722,22.271"/>
					<path fill="#C2C2C2" d="M7.722,22.271L7.722,22.271L7.722,22.271h0.001h0l0,0V22.27h0l0,0.001l0,0l0,0h0v0.001l0,0l0,0.001l0,0
						l0,0v0.001l-0.001,0.017c-0.009,0.015-0.025,0.006-0.028-0.006s-0.002-0.012,0.022-0.014
						C7.718,22.271,7.72,22.271,7.722,22.271"/>
					<path fill="#BDBDBD" d="M7.722,22.271L7.722,22.271L7.722,22.271h0.001h0l0,0V22.27h0l0,0.001l0,0l0,0h0v0.001l0,0l0,0.001l0,0
						l0,0v0.001l0,0.007c-0.004,0.013-0.015,0.01-0.018,0.003C7.698,22.272,7.707,22.272,7.722,22.271L7.722,22.271"/>
					<path fill="#B8B8B8" d="M7.723,22.271C7.723,22.271,7.723,22.271,7.723,22.271h0.001l0,0V22.27h0l0,0.001l0,0l0,0H7.723
						L7.723,22.271L7.723,22.271l0,0.002l0,0c0,0,0,0,0,0.001c-0.001,0.009-0.008,0.008-0.01,0.005
						C7.712,22.277,7.709,22.272,7.723,22.271L7.723,22.271L7.723,22.271"/>
					<polyline fill="#B2B2B2" points="7.724,22.271 7.724,22.271 7.724,22.27 7.725,22.27 7.724,22.271 7.724,22.271 7.724,22.271 
						7.724,22.271 7.724,22.272 7.721,22.273 7.723,22.271 7.724,22.271 					"/>
				</g>
			</g>
			<g enable-background="new    ">
				<defs>
					<path id="SVGID_13_" enable-background="new    " d="M22.291,7.727c-0.008,0-0.016,0.002-0.021,0.007
						c0.005-0.006,0.007-0.013,0.007-0.021c0-1.523,0-2.714,0-2.714c1.503,0,2.728,1.224,2.728,2.727
						C25.003,7.727,23.813,7.727,22.291,7.727z"/>
				</defs>
				<clipPath id="SVGID_14_">
					<use xlink:href="#SVGID_13_"  overflow="visible"/>
				</clipPath>
				<g clip-path="url(#SVGID_14_)" enable-background="new    ">
					<path fill="#FFFFFF" d="M22.291,7.727c-0.004,0.001-0.011,0.006-0.014,0.003c-0.004-0.002-0.001-0.01-0.001-0.014
						c0-1.525,0-2.716,0-2.716c1.503,0,2.728,1.224,2.728,2.727C25.003,7.727,23.813,7.727,22.291,7.727"/>
					<path fill="#FFFFFF" d="M22.644,7.727c0.462-0.064,0.468-0.47,0.258-0.625c-0.279-0.208-0.629,0.078-0.604,0.493
						c0.008,0.116,0.054,0.12,0.189,0.133c-0.064,0-0.13,0-0.196,0c0,0-0.001,0-0.002,0c-0.006,0.001-0.014,0.003-0.019,0.006
						l-0.001,0v0l0,0l0.001-0.001l0.001-0.001l0.001-0.001l0.001-0.003l0.001-0.002l0.001-0.003C22.276,6.19,22.276,5,22.276,5
						c1.503,0,2.728,1.224,2.728,2.727C25.003,7.727,23.994,7.727,22.644,7.727"/>
					<path fill="#FFFFFF" d="M22.738,7.727c0.441-0.131,0.381-0.545,0.15-0.674c-0.424-0.236-0.67,0.356-0.58,0.617
						c0.017,0.048,0.07,0.03,0.099,0.057c-0.038,0-0.077,0-0.116,0c0,0-0.001,0-0.002,0c-0.006,0.001-0.014,0.003-0.019,0.006
						l-0.001,0v0l0,0l0.001-0.001l0.001-0.001l0.001-0.001l0.001-0.003l0.001-0.002l0.001-0.003C22.276,6.19,22.276,5,22.276,5
						c1.503,0,2.728,1.224,2.728,2.727C25.003,7.727,24.04,7.727,22.738,7.727"/>
					<path fill="#FFFFFF" d="M22.804,7.727c0.445-0.196,0.314-0.614,0.065-0.721c-0.422-0.18-0.665,0.366-0.567,0.673
						c0.008,0.023,0.008,0.023,0.086,0.042c-0.001,0.001-0.003,0.003-0.004,0.005c-0.031,0-0.063,0-0.094,0c0,0-0.001,0-0.002,0
						c-0.006,0.001-0.014,0.003-0.019,0.006l-0.001,0v0l0,0l0.001-0.001l0.001-0.001l0.001-0.001l0.001-0.003l0.001-0.002
						l0.001-0.003C22.276,6.19,22.276,5,22.276,5c1.503,0,2.728,1.224,2.728,2.727C25.003,7.727,24.072,7.727,22.804,7.727"/>
					<path fill="#FFFFFF" d="M22.856,7.727c0.423-0.195,0.303-0.667-0.01-0.766c-0.528-0.166-0.655,0.615-0.542,0.744
						c0.021,0.023,0.048,0.013,0.072,0.017c-0.004,0.001-0.01,0.003-0.015,0.004c-0.023,0-0.047,0-0.071,0c0,0-0.001,0-0.002,0
						c-0.006,0.001-0.014,0.003-0.019,0.006l-0.001,0v0l0,0l0.001-0.001l0.001-0.001l0.001-0.001l0.001-0.003l0.001-0.002
						l0.001-0.003C22.276,6.19,22.276,5,22.276,5c1.503,0,2.728,1.224,2.728,2.727C25.003,7.727,24.098,7.727,22.856,7.727"/>
					<path fill="#FFFFFF" d="M22.908,7.727c0.432-0.251,0.244-0.709-0.039-0.795c-0.188-0.058-0.517,0.009-0.593,0.433
						c0-1.352,0-2.365,0-2.365c1.503,0,2.728,1.224,2.728,2.727C25.003,7.727,24.123,7.727,22.908,7.727"/>
					<path fill="#FFFFFF" d="M22.957,7.727c0.428-0.26,0.233-0.775-0.113-0.843c-0.098-0.019-0.427-0.047-0.567,0.396
						c0-1.309,0-2.279,0-2.279c1.503,0,2.728,1.224,2.728,2.727C25.003,7.727,24.146,7.727,22.957,7.727"/>
					<path fill="#FFFFFF" d="M23.005,7.727c0.446-0.315,0.192-0.847-0.192-0.889c-0.202-0.022-0.452,0.099-0.537,0.374
						c0-1.275,0-2.212,0-2.212c1.503,0,2.728,1.224,2.728,2.727C25.003,7.727,24.169,7.727,23.005,7.727"/>
					<path fill="#FFFFFF" d="M23.055,7.727c0.4-0.294,0.244-0.832-0.159-0.921c-0.044-0.01-0.435-0.082-0.62,0.346
						c0-1.244,0-2.152,0-2.152c1.503,0,2.728,1.224,2.728,2.727C25.003,7.727,24.193,7.727,23.055,7.727"/>
					<path fill="#FFFFFF" d="M23.107,7.727c0.426-0.351,0.215-0.916-0.24-0.977c-0.114-0.015-0.399-0.012-0.591,0.343
						c0-1.214,0-2.093,0-2.093c1.503,0,2.728,1.224,2.728,2.727C25.003,7.727,24.218,7.727,23.107,7.727"/>
					<path fill="#FFFFFF" d="M23.162,7.727c0.448-0.378,0.221-0.974-0.262-1.032c-0.154-0.019-0.46,0.032-0.624,0.339
						c0-1.183,0-2.034,0-2.034c1.503,0,2.728,1.224,2.728,2.727C25.003,7.727,24.244,7.727,23.162,7.727"/>
					<path fill="#FFFFFF" d="M23.223,7.727c0.462-0.423,0.221-1.043-0.284-1.096c-0.126-0.013-0.442-0.006-0.663,0.342
						c0-1.151,0-1.973,0-1.973c1.503,0,2.728,1.224,2.728,2.727C25.003,7.727,24.272,7.727,23.223,7.727"/>
					<path fill="#FAFAFA" d="M23.292,7.727c0.523-0.5,0.203-1.189-0.38-1.176c-0.391,0.009-0.568,0.263-0.636,0.358
						c0-1.118,0-1.909,0-1.909c1.503,0,2.728,1.224,2.728,2.727C25.003,7.727,24.304,7.727,23.292,7.727"/>
					<path fill="#F5F5F5" d="M23.37,7.727c0.561-0.541,0.218-1.286-0.406-1.271c-0.129,0.003-0.453,0.046-0.688,0.383
						c0-1.08,0-1.838,0-1.838c1.503,0,2.728,1.224,2.728,2.727C25.003,7.727,24.339,7.727,23.37,7.727"/>
					<path fill="#F0F0F0" d="M23.464,7.727c0.649-0.629,0.182-1.387-0.441-1.381c-0.134,0.001-0.476,0.043-0.747,0.411
						c0-1.037,0-1.757,0-1.757c1.503,0,2.728,1.224,2.728,2.727C25.003,7.727,24.382,7.727,23.464,7.727"/>
					<path fill="#EBEBEB" d="M23.578,7.727c0.668-0.646,0.156-1.488-0.492-1.497c-0.216-0.003-0.531,0.07-0.81,0.433
						c0-0.986,0-1.664,0-1.664c1.503,0,2.728,1.224,2.728,2.727C25.003,7.727,24.433,7.727,23.578,7.727"/>
					<path fill="#E5E5E5" d="M23.708,7.727c0.704-0.725,0.069-1.622-0.659-1.61c-0.197,0.003-0.491,0.082-0.772,0.435
						c0-0.925,0-1.552,0-1.552c1.503,0,2.728,1.224,2.728,2.727C25.003,7.727,24.491,7.727,23.708,7.727"/>
					<path fill="#E0E0E0" d="M23.844,7.727c0.69-0.809-0.076-1.767-0.846-1.714c-0.188,0.013-0.464,0.095-0.723,0.41
						c0-0.854,0-1.423,0-1.423c1.503,0,2.728,1.224,2.728,2.727C25.003,7.727,24.549,7.727,23.844,7.727"/>
					<path fill="#DBDBDB" d="M23.977,7.727c0.643-0.874-0.122-1.919-1.04-1.81c-0.243,0.029-0.465,0.153-0.661,0.368
						c0-0.777,0-1.285,0-1.285c1.503,0,2.728,1.224,2.728,2.727C25.003,7.727,24.606,7.727,23.977,7.727"/>
					<path fill="#D6D6D6" d="M24.101,7.727c0.628-0.927-0.295-2.069-1.236-1.896c-0.314,0.058-0.5,0.233-0.589,0.318
						c0-0.699,0-1.148,0-1.148c1.503,0,2.728,1.224,2.728,2.727C25.003,7.727,24.658,7.727,24.101,7.727"/>
					<path fill="#D1D1D1" d="M24.216,7.727c0.6-1.042-0.434-2.204-1.425-1.976c-0.313,0.072-0.514,0.266-0.516,0.268
						c0-0.625,0-1.019,0-1.019c1.503,0,2.728,1.224,2.728,2.727C25.003,7.727,24.705,7.727,24.216,7.727"/>
					<path fill="#CCCCCC" d="M24.323,7.727c0.589-1.207-0.651-2.389-1.716-2.016c-0.038,0.013-0.174,0.066-0.331,0.186
						c0-0.554,0-0.897,0-0.897c1.503,0,2.728,1.224,2.728,2.727C25.003,7.727,24.749,7.727,24.323,7.727"/>
					<path fill="#C7C7C7" d="M24.422,7.727c0.571-1.24-0.809-2.501-1.881-2.085c-0.122,0.047-0.205,0.102-0.266,0.141
						c0-0.486,0-0.783,0-0.783c1.503,0,2.728,1.224,2.728,2.727C25.003,7.727,24.788,7.727,24.422,7.727"/>
					<path fill="#C2C2C2" d="M24.515,7.727c0.523-1.344-0.945-2.615-2.043-2.151c-0.067,0.029-0.133,0.063-0.196,0.099
						c0-0.422,0-0.675,0-0.675c1.503,0,2.728,1.224,2.728,2.727C25.003,7.727,24.824,7.727,24.515,7.727"/>
					<path fill="#BDBDBD" d="M24.601,7.727c-0.021-0.03,0.026-0.081,0.037-0.116c0.151-0.464,0.016-1.2-0.536-1.71
						c-0.548-0.507-1.247-0.632-1.826-0.327c0-0.361,0-0.574,0-0.574c1.503,0,2.728,1.224,2.728,2.727
						C25.003,7.727,24.857,7.727,24.601,7.727"/>
					<path fill="#B8B8B8" d="M24.68,7.727c-0.003-0.004,0.004-0.013,0.006-0.018c0.219-0.71-0.12-1.436-0.552-1.84
						c-0.209-0.195-0.959-0.799-1.858-0.39c0-0.303,0-0.479,0-0.479c1.503,0,2.728,1.224,2.728,2.727
						C25.003,7.727,24.887,7.727,24.68,7.727"/>
					<path fill="#B2B2B2" d="M24.753,7.727c-0.011-0.013,0.01-0.038,0.014-0.054c0.153-0.607-0.09-1.343-0.606-1.83
						c-0.268-0.252-0.986-0.801-1.885-0.453c0-0.249,0-0.39,0-0.39c1.503,0,2.728,1.224,2.728,2.727
						C25.003,7.727,24.915,7.727,24.753,7.727"/>
					<path fill="#ADADAD" d="M24.819,7.727c-0.017-0.021,0.013-0.061,0.018-0.087c0.12-0.6-0.144-1.331-0.655-1.818
						c-0.332-0.315-1.02-0.802-1.905-0.515c0-0.197,0-0.307,0-0.307c1.503,0,2.728,1.224,2.728,2.727
						C25.003,7.727,24.938,7.727,24.819,7.727"/>
					<path fill="#FFFFFF" d="M22.51,7.719c-0.134-0.006-0.201-0.009-0.206-0.124c0-0.003-0.008-0.283,0.18-0.452
						c0.187-0.167,0.529-0.055,0.521,0.235C23,7.558,22.828,7.733,22.51,7.719"/>
					<path fill="#A8A8A8" d="M24.876,7.727c-0.021-0.026,0.013-0.079,0.018-0.113c0.089-0.584-0.199-1.327-0.699-1.806
						c-0.404-0.388-1.065-0.803-1.919-0.577c0-0.149,0-0.231,0-0.231c1.503,0,2.728,1.224,2.728,2.727
						C25.003,7.727,24.959,7.727,24.876,7.727"/>
					<path fill="#FFFFFF" d="M22.509,7.708c-0.106,0.001-0.19,0.001-0.198-0.111c0-0.002,0.007-0.264,0.161-0.413
						c0.211-0.204,0.52-0.035,0.503,0.208C22.972,7.445,22.933,7.706,22.509,7.708"/>
					<path fill="#FFFFFF" d="M22.508,7.699c-0.095,0.004-0.177,0.007-0.189-0.098c0-0.002,0.013-0.219,0.134-0.368
						c0.161-0.2,0.479-0.114,0.494,0.133C22.95,7.418,22.943,7.682,22.508,7.699"/>
					<path fill="#FFFFFF" d="M22.589,7.68c-0.024,0.002-0.058,0.007-0.082,0.009c-0.033,0.002-0.066,0.015-0.101,0.005
						c-0.047-0.014-0.071-0.063-0.079-0.091c0-0.001,0.02-0.225,0.145-0.363c0.156-0.173,0.44-0.083,0.446,0.14
						C22.923,7.547,22.754,7.664,22.589,7.68"/>
					<path fill="#FFFFFF" d="M22.558,7.671c-0.051,0.006-0.102,0.028-0.154,0.014c-0.023-0.007-0.059-0.05-0.064-0.075
						c-0.001-0.001,0.018-0.197,0.119-0.321c0.178-0.218,0.418-0.082,0.429,0.075C22.899,7.527,22.776,7.643,22.558,7.671"/>
					<path fill="#A3A3A3" d="M24.925,7.727c-0.025-0.029,0.01-0.09,0.014-0.128c0.063-0.579-0.241-1.318-0.736-1.798
						c-0.404-0.391-1.066-0.819-1.927-0.638c0-0.105,0-0.163,0-0.163c1.503,0,2.728,1.224,2.728,2.727
						C25.003,7.727,24.976,7.727,24.925,7.727"/>
					<path fill="#FFFFFF" d="M22.291,7.727c-0.007,0-0.014,0.002-0.021,0.006l-0.001,0v0l0,0l0.001-0.001l0.001-0.001l0.001-0.001
						l0.001-0.003l0.001-0.002l0.001-0.003c0-0.003,0.001-0.006,0.001-0.008c0-0.037,0-0.074,0-0.111l0.006,0.005
						c0.007,0.031-0.01,0.065,0.012,0.094c0.009,0.012,0.009,0.012,0.071,0.021c-0.008,0.001-0.018,0.003-0.025,0.004
						C22.324,7.727,22.307,7.727,22.291,7.727"/>
					<path fill="#FFFFFF" d="M22.291,7.727c-0.007,0-0.014,0.002-0.021,0.006l-0.001,0v0l0,0l0.001-0.001l0.001-0.001l0.001-0.001
						l0.001-0.003l0.001-0.002l0.001-0.003c0-0.003,0.001-0.006,0.001-0.008c0-0.028,0-0.055,0-0.083l0.005-0.01
						c0.005,0.028-0.008,0.058,0.01,0.084c0.01,0.013,0.01,0.013,0.063,0.019c-0.011,0.001-0.025,0.002-0.036,0.003
						C22.308,7.727,22.299,7.727,22.291,7.727"/>
					<path fill="#FFFFFF" d="M22.291,7.727c-0.007,0-0.014,0.002-0.021,0.006l-0.001,0v0l0,0l0.001-0.001l0.001-0.001l0.001-0.001
						l0.001-0.003l0.001-0.002l0.001-0.003c0-0.003,0.001-0.006,0.001-0.008c0-0.018,0-0.036,0-0.054l0.004-0.025
						c0.012,0.086,0.012,0.086,0.061,0.09c-0.01,0-0.022,0.001-0.032,0.002C22.302,7.727,22.296,7.727,22.291,7.727"/>
					<path fill="#FFFFFF" d="M22.291,7.727c-0.007,0-0.014,0.002-0.021,0.006l-0.001,0v0l0,0l0.001-0.001l0.001-0.001l0.001-0.001
						l0.001-0.003l0.001-0.002l0.001-0.003c0-0.003,0.001-0.006,0.001-0.008c0-0.008,0-0.017,0-0.025l0.003-0.041
						c0.008,0.075,0.008,0.075,0.05,0.077c-0.007,0-0.017,0.001-0.024,0.002C22.3,7.727,22.295,7.727,22.291,7.727"/>
					<path fill="#FFFFFF" d="M22.291,7.727c-0.007,0-0.014,0.002-0.021,0.006l-0.001,0v0l0,0l0.001-0.001l0.001-0.001l0.001-0.001
						l0.001-0.003l0.001-0.002l0.001-0.003c0-0.003,0.001-0.006,0.001-0.008c0-0.006,0-0.012,0-0.018V7.693
						c0.001-0.01,0.002-0.022,0.003-0.031c0.003,0.063,0.003,0.063,0.038,0.063c-0.005,0-0.011,0.001-0.016,0.001
						C22.297,7.727,22.294,7.727,22.291,7.727"/>
					<path fill="#FFFFFF" d="M22.551,7.658c-0.157,0.023-0.178,0.023-0.197-0.038c-0.001-0.004,0.022-0.183,0.093-0.286
						c0.138-0.203,0.391-0.145,0.411,0.042C22.862,7.415,22.866,7.611,22.551,7.658"/>
					<path fill="#FFFFFF" d="M22.291,7.727c-0.007,0-0.014,0.002-0.021,0.006l-0.001,0v0l0,0l0.001-0.001l0.001-0.001l0.001-0.001
						l0.001-0.003l0.001-0.002l0.001-0.003c0-0.003,0.001-0.006,0.001-0.008c0-0.005,0-0.009,0-0.014l0.001-0.007
						c0-0.005,0.001-0.012,0.001-0.017c0.001,0.048,0.001,0.048,0.03,0.05c-0.003,0-0.008,0-0.011,0.001
						C22.295,7.727,22.293,7.727,22.291,7.727"/>
					<path fill="#FFFFFF" d="M22.291,7.727c-0.007,0-0.014,0.002-0.021,0.006l-0.001,0v0l0,0l0.001-0.001l0.001-0.001l0.001-0.001
						l0.001-0.003l0.001-0.002l0.001-0.003c0-0.003,0.001-0.006,0.001-0.008c0-0.003,0-0.007,0-0.01l0.001-0.011
						c0-0.001,0-0.002,0-0.003c0.001,0.036,0.001,0.036,0.026,0.037c-0.003,0-0.007,0-0.009,0
						C22.293,7.727,22.292,7.727,22.291,7.727"/>
					<path fill="#FAFAFA" d="M22.286,7.727C22.28,7.728,22.275,7.73,22.27,7.733l-0.001,0v0l0,0l0.001-0.001l0.001-0.001
						l0.001-0.001l0.001-0.003l0.001-0.002l0.001-0.003c0-0.003,0.001-0.006,0.001-0.008s0-0.004,0-0.007l0.001-0.01
						c0.002,0.03,0.002,0.03,0.021,0.03c-0.002,0-0.005,0-0.008,0h-0.002L22.286,7.727"/>
					<g>
						<path fill="#F5F5F5" d="M22.274,7.731c-0.001,0-0.003,0.001-0.004,0.002l-0.001,0v0l0,0l0.001-0.001l0.001-0.001l0.001-0.001
							l0.001-0.003l0.001-0.002l0.001-0.003c0-0.003,0.001-0.006,0.001-0.008c0-0.001,0-0.002,0-0.003l0.001-0.009
							c0,0.009-0.013,0.032,0,0.028C22.276,7.73,22.274,7.73,22.274,7.731L22.274,7.731"/>
						<polyline fill="#F5F5F5" points="22.287,7.727 22.293,7.727 22.291,7.727 22.288,7.727 22.287,7.727 						"/>
					</g>
					<g>
						<polyline fill="#F0F0F0" points="22.275,7.718 22.276,7.713 22.276,7.707 22.275,7.72 22.275,7.718 						"/>
						<polyline fill="#F0F0F0" points="22.27,7.733 22.269,7.734 22.269,7.734 22.27,7.733 22.271,7.731 22.272,7.73 22.272,7.729 
							22.272,7.729 22.271,7.732 22.271,7.732 22.27,7.733 						"/>
					</g>
					<polyline fill="#EBEBEB" points="22.276,7.714 22.276,7.712 22.276,7.716 22.276,7.714 					"/>
					<path fill="#FFFFFF" d="M22.555,7.643c-0.163,0.027-0.172,0-0.177-0.018c-0.01-0.03,0.012-0.183,0.086-0.282
						c0.142-0.188,0.353-0.102,0.363,0.052C22.83,7.415,22.833,7.597,22.555,7.643"/>
					<path fill="#FFFFFF" d="M22.565,7.624c-0.072,0.012-0.147,0.025-0.162-0.023c-0.017-0.054,0.033-0.189,0.081-0.247
						c0.129-0.155,0.301-0.07,0.311,0.038C22.799,7.444,22.768,7.589,22.565,7.624"/>
					<path fill="#FFFFFF" d="M22.578,7.602c-0.099,0.016-0.136,0.021-0.15-0.026c-0.019-0.061,0.034-0.163,0.078-0.21
						c0.099-0.106,0.238-0.066,0.251,0.039C22.771,7.53,22.62,7.596,22.578,7.602"/>
					<path fill="#9E9E9E" d="M23.689,5.395c-0.368-0.21-0.793-0.391-1.413-0.292c0-0.067,0-0.103,0-0.103
						c0.524,0,1.015,0.149,1.432,0.407C23.702,5.403,23.695,5.398,23.689,5.395"/>
					<path fill="#FFFFFF" d="M22.572,7.579c-0.097,0.028-0.141-0.024-0.099-0.117c0.069-0.155,0.21-0.138,0.239-0.059
						C22.734,7.46,22.678,7.548,22.572,7.579"/>
					<path fill="#999999" d="M23.085,5.123c-0.34-0.095-0.555-0.098-0.81-0.069c0-0.036,0-0.054,0-0.054
						c0.326,0,0.64,0.058,0.93,0.164C23.169,5.151,23.122,5.134,23.085,5.123"/>
					<path fill="#9E9E9E" d="M24.964,7.727c-0.026-0.028,0.006-0.09,0.009-0.129c0.012-0.179-0.009-0.479-0.172-0.9
						c0.131,0.318,0.202,0.665,0.202,1.029C25.003,7.727,24.99,7.727,24.964,7.727"/>
					<path fill="#FFFFFF" d="M22.552,7.545c-0.023,0.004-0.057-0.029-0.048-0.057c0.021-0.071,0.104-0.12,0.144-0.066
						C22.681,7.468,22.633,7.53,22.552,7.545"/>
					<path fill="#949494" d="M22.69,5.032c-0.132-0.017-0.232-0.026-0.414-0.014c0-0.012,0-0.019,0-0.019
						c0.173,0,0.343,0.016,0.508,0.047C22.755,5.042,22.718,5.036,22.69,5.032"/>
					<path fill="#999999" d="M24.992,7.727c-0.022-0.023,0.002-0.076,0.003-0.108c0.004-0.146-0.025-0.323-0.037-0.389
						c0.03,0.162,0.046,0.328,0.046,0.498C25.003,7.727,25,7.727,24.992,7.727"/>
					<path fill="#8F8F8F" d="M22.276,5C22.276,5,22.276,5,22.276,5C22.308,5,22.34,5,22.373,5.001
						C22.344,5.001,22.296,5.021,22.276,5"/>
					<path fill="#949494" d="M25.003,7.727c-0.013-0.012,0-0.04-0.001-0.057C25.003,7.688,25.003,7.708,25.003,7.727L25.003,7.727"
						/>
				</g>
			</g>
			<g enable-background="new    ">
				<defs>
					<path id="SVGID_15_" enable-background="new    " d="M7.996,22.271c-1.657,0-3,0-3,0V7.727c0,0,1.343,0,3,0V22.271z"/>
				</defs>
				<clipPath id="SVGID_16_">
					<use xlink:href="#SVGID_15_"  overflow="visible"/>
				</clipPath>
				<g clip-path="url(#SVGID_16_)" enable-background="new    ">
					<polyline fill="#FFFFFF" points="7.996,7.727 7.996,22.271 7.993,22.271 7.993,7.727 7.996,7.727 					"/>
					<path fill="#FFFFFF" d="M7.993,7.727v14.544c-0.014,0-0.027,0-0.041,0V7.727C7.966,7.727,7.979,7.727,7.993,7.727"/>
					<path fill="#FAFAFA" d="M7.952,7.727v14.544c-0.013,0-0.027,0-0.04,0V7.727C7.925,7.727,7.939,7.727,7.952,7.727"/>
					<path fill="#F5F5F5" d="M7.912,7.727v14.544c-0.013,0-0.026,0-0.04,0V7.727C7.886,7.727,7.899,7.727,7.912,7.727"/>
					<path fill="#F0F0F0" d="M7.872,7.727v14.544c-0.013,0-0.026,0-0.04,0V7.727C7.846,7.727,7.859,7.727,7.872,7.727"/>
					<path fill="#EBEBEB" d="M7.833,7.727v14.544c-0.013,0-0.026,0-0.04,0V7.727C7.806,7.727,7.819,7.727,7.833,7.727"/>
					<path fill="#E5E5E5" d="M7.793,7.727v14.544c-0.013,0-0.026,0-0.04,0V7.727C7.767,7.727,7.78,7.727,7.793,7.727"/>
					<path fill="#E0E0E0" d="M7.753,7.727v14.544c-0.019,0-0.038,0-0.057,0V7.727C7.716,7.727,7.734,7.727,7.753,7.727"/>
					<path fill="#DBDBDB" d="M7.697,7.727v14.544c-0.019,0-0.038,0-0.057,0V7.727C7.659,7.727,7.678,7.727,7.697,7.727"/>
					<path fill="#D6D6D6" d="M7.64,7.727v14.544c-0.019,0-0.038,0-0.057,0V7.727C7.602,7.727,7.621,7.727,7.64,7.727"/>
					<path fill="#D1D1D1" d="M7.583,7.727v14.544c-0.019,0-0.038,0-0.057,0V7.727C7.544,7.727,7.563,7.727,7.583,7.727"/>
					<path fill="#CCCCCC" d="M7.526,7.727v14.544c-0.025,0-0.05,0-0.074,0V7.727C7.476,7.727,7.501,7.727,7.526,7.727"/>
					<path fill="#C7C7C7" d="M7.452,7.727v14.544c-0.027,0-0.054,0-0.081,0V7.727C7.397,7.727,7.424,7.727,7.452,7.727"/>
					<path fill="#C2C2C2" d="M7.371,7.727v14.544c-0.027,0-0.054,0-0.08,0V7.727C7.317,7.727,7.344,7.727,7.371,7.727"/>
					<path fill="#BDBDBD" d="M7.291,7.727v14.544c-0.031,0-0.062,0-0.093,0V7.727C7.229,7.727,7.26,7.727,7.291,7.727"/>
					<path fill="#B8B8B8" d="M7.198,7.727v14.544c-0.032,0-0.063,0-0.095,0V7.727C7.135,7.727,7.167,7.727,7.198,7.727"/>
					<path fill="#B2B2B2" d="M7.104,7.727v14.544c-0.033,0-0.066,0-0.099,0V7.727C7.038,7.727,7.07,7.727,7.104,7.727"/>
					<path fill="#ADADAD" d="M7.005,7.727v14.544c-0.035,0-0.069,0-0.104,0V7.727C6.936,7.727,6.97,7.727,7.005,7.727"/>
					<path fill="#A8A8A8" d="M6.901,7.727v14.544c-0.036,0-0.071,0-0.106,0V7.727C6.83,7.727,6.865,7.727,6.901,7.727"/>
					<path fill="#A3A3A3" d="M6.795,7.727v14.544c-0.038,0-0.076,0-0.114,0V7.727C6.719,7.727,6.757,7.727,6.795,7.727"/>
					<path fill="#9E9E9E" d="M6.681,7.727v14.544c-0.04,0-0.08,0-0.119,0V7.727C6.601,7.727,6.641,7.727,6.681,7.727"/>
					<path fill="#999999" d="M6.562,7.727v14.544c-0.043,0-0.085,0-0.127,0V7.727C6.477,7.727,6.519,7.727,6.562,7.727"/>
					<path fill="#949494" d="M6.435,7.727v14.544c-0.05,0-0.099,0-0.146,0V7.727C6.336,7.727,6.385,7.727,6.435,7.727"/>
					<path fill="#8F8F8F" d="M6.288,7.727v14.544c-0.057,0-0.112,0-0.167,0V7.727C6.176,7.727,6.231,7.727,6.288,7.727"/>
					<path fill="#8A8A8A" d="M6.122,7.727v14.544c-0.072,0-0.142,0-0.208,0V7.727C5.98,7.727,6.049,7.727,6.122,7.727"/>
					<path fill="#858585" d="M5.914,7.727v14.544c-0.565,0-0.917,0-0.917,0V7.727C4.996,7.727,5.348,7.727,5.914,7.727"/>
				</g>
			</g>
			<g enable-background="new    ">
				<defs>
					<path id="SVGID_17_" enable-background="new    " d="M7.723,8c0-1.657,0-3,0-3h14.553c0,0,0,1.343,0,3H7.723z"/>
				</defs>
				<clipPath id="SVGID_18_">
					<use xlink:href="#SVGID_17_"  overflow="visible"/>
				</clipPath>
				<g clip-path="url(#SVGID_18_)" enable-background="new    ">
					<path fill="#FFFFFF" d="M22.276,8H7.723c0-0.015,0-0.029,0-0.043h14.553C22.276,7.971,22.276,7.985,22.276,8"/>
					<path fill="#FFFFFF" d="M22.276,7.957H7.723c0-0.016,0-0.032,0-0.047h14.553C22.276,7.925,22.276,7.94,22.276,7.957"/>
					<path fill="#FFFFFF" d="M22.276,7.909H7.723c0-0.016,0-0.031,0-0.047h14.553C22.276,7.878,22.276,7.894,22.276,7.909"/>
					<path fill="#FFFFFF" d="M22.276,7.862H7.723c0-0.016,0-0.031,0-0.047h14.553C22.276,7.831,22.276,7.847,22.276,7.862"/>
					<path fill="#FFFFFF" d="M22.276,7.815H7.723c0-0.016,0-0.031,0-0.047h14.553C22.276,7.784,22.276,7.8,22.276,7.815"/>
					<path fill="#FFFFFF" d="M22.276,7.769H7.723c0-0.032,0-0.064,0-0.096h14.553C22.276,7.704,22.276,7.736,22.276,7.769"/>
					<path fill="#FFFFFF" d="M22.276,7.672H7.723c0-0.041,0-0.08,0-0.12h14.553C22.276,7.592,22.276,7.632,22.276,7.672"/>
					<path fill="#FFFFFF" d="M22.276,7.552H7.723c0-0.026,0-0.053,0-0.079h14.553C22.276,7.5,22.276,7.526,22.276,7.552"/>
					<path fill="#FFFFFF" d="M22.276,7.474H7.723c0-0.04,0-0.078,0-0.117h14.553C22.276,7.396,22.276,7.434,22.276,7.474"/>
					<path fill="#FFFFFF" d="M22.276,7.357H7.723c0-0.033,0-0.065,0-0.098h14.553C22.276,7.292,22.276,7.324,22.276,7.357"/>
					<path fill="#FFFFFF" d="M22.276,7.259H7.723c0-0.02,0-0.039,0-0.059h14.553C22.276,7.22,22.276,7.24,22.276,7.259"/>
					<path fill="#FFFFFF" d="M22.276,7.2H7.723c0-0.02,0-0.039,0-0.058h14.553C22.276,7.161,22.276,7.181,22.276,7.2"/>
					<path fill="#FFFFFF" d="M22.276,7.142H7.723c0-0.02,0-0.039,0-0.058h14.553C22.276,7.103,22.276,7.123,22.276,7.142"/>
					<path fill="#FFFFFF" d="M22.276,7.084H7.723c0-0.021,0-0.041,0-0.061h14.553C22.276,7.043,22.276,7.063,22.276,7.084"/>
					<path fill="#FFFFFF" d="M22.276,7.023H7.723c0-0.021,0-0.043,0-0.064h14.553C22.276,6.98,22.276,7.001,22.276,7.023"/>
					<path fill="#FFFFFF" d="M22.276,6.958H7.723c0-0.021,0-0.042,0-0.063h14.553C22.276,6.917,22.276,6.938,22.276,6.958"/>
					<path fill="#FAFAFA" d="M22.276,6.895H7.723c0-0.021,0-0.042,0-0.063h14.553C22.276,6.853,22.276,6.874,22.276,6.895"/>
					<path fill="#F5F5F5" d="M22.276,6.833H7.723c0-0.031,0-0.061,0-0.091h14.553C22.276,6.771,22.276,6.802,22.276,6.833"/>
					<path fill="#F0F0F0" d="M22.276,6.742H7.723c0-0.03,0-0.06,0-0.089h14.553C22.276,6.682,22.276,6.711,22.276,6.742"/>
					<path fill="#EBEBEB" d="M22.276,6.652H7.723c0-0.038,0-0.075,0-0.112h14.553C22.276,6.578,22.276,6.615,22.276,6.652"/>
					<path fill="#E5E5E5" d="M22.276,6.541H7.723c0-0.041,0-0.082,0-0.122h14.553C22.276,6.459,22.276,6.5,22.276,6.541"/>
					<path fill="#E0E0E0" d="M22.276,6.419H7.723c0-0.047,0-0.093,0-0.139h14.553C22.276,6.326,22.276,6.372,22.276,6.419"/>
					<path fill="#DBDBDB" d="M22.276,6.28H7.723c0-0.046,0-0.091,0-0.135h14.553C22.276,6.189,22.276,6.234,22.276,6.28"/>
					<path fill="#D6D6D6" d="M22.276,6.146H7.723c0-0.044,0-0.087,0-0.129h14.553C22.276,6.058,22.276,6.101,22.276,6.146"/>
					<path fill="#D1D1D1" d="M22.276,6.016H7.723c0-0.042,0-0.082,0-0.121h14.553C22.276,5.934,22.276,5.975,22.276,6.016"/>
					<path fill="#CCCCCC" d="M22.276,5.895H7.723c0-0.039,0-0.077,0-0.114h14.553C22.276,5.818,22.276,5.856,22.276,5.895"/>
					<path fill="#C7C7C7" d="M22.276,5.781H7.723c0-0.037,0-0.073,0-0.107h14.553C22.276,5.708,22.276,5.744,22.276,5.781"/>
					<path fill="#C2C2C2" d="M22.276,5.674H7.723c0-0.035,0-0.068,0-0.101h14.553C22.276,5.605,22.276,5.639,22.276,5.674"/>
					<path fill="#BDBDBD" d="M22.276,5.573H7.723c0-0.033,0-0.064,0-0.095h14.553C22.276,5.508,22.276,5.54,22.276,5.573"/>
					<path fill="#B8B8B8" d="M22.276,5.478H7.723c0-0.031,0-0.061,0-0.089h14.553C22.276,5.417,22.276,5.447,22.276,5.478"/>
					<path fill="#B2B2B2" d="M22.276,5.389H7.723c0-0.029,0-0.057,0-0.083h14.553C22.276,5.332,22.276,5.359,22.276,5.389"/>
					<path fill="#ADADAD" d="M22.276,5.306H7.723c0-0.027,0-0.052,0-0.076h14.553C22.276,5.254,22.276,5.279,22.276,5.306"/>
					<path fill="#A8A8A8" d="M22.276,5.23H7.723c0-0.025,0-0.048,0-0.069h14.553C22.276,5.183,22.276,5.206,22.276,5.23"/>
					<path fill="#A3A3A3" d="M22.276,5.162H7.723c0-0.022,0-0.042,0-0.06h14.553C22.276,5.12,22.276,5.14,22.276,5.162"/>
					<path fill="#9E9E9E" d="M22.276,5.102H7.723c0-0.019,0-0.035,0-0.049h14.553C22.276,5.067,22.276,5.083,22.276,5.102"/>
					<path fill="#999999" d="M22.276,5.053H7.723c0-0.015,0-0.027,0-0.036h14.553C22.276,5.026,22.276,5.039,22.276,5.053"/>
					<path fill="#949494" d="M22.276,5.018H7.723c0-0.01,0-0.016,0-0.018h14.553C22.276,5.002,22.276,5.008,22.276,5.018"/>
					<polyline fill="#8F8F8F" points="22.276,5 7.723,5 7.723,5 22.276,5 22.276,5 					"/>
				</g>
			</g>
			<g enable-background="new    ">
				<defs>
					<path id="SVGID_19_" enable-background="new    " d="M22.003,7.727c1.657,0,3,0,3,0v14.544c0,0-1.343,0-3,0V7.727z"/>
				</defs>
				<clipPath id="SVGID_20_">
					<use xlink:href="#SVGID_19_"  overflow="visible"/>
				</clipPath>
				<g clip-path="url(#SVGID_20_)" enable-background="new    ">
					<path fill="#FFFFFF" d="M22.003,22.271V7.727c0.011,0,0.022,0,0.033,0v14.544C22.026,22.271,22.014,22.271,22.003,22.271"/>
					<path fill="#FFFFFF" d="M22.037,22.271V7.727c0.013,0,0.024,0,0.037,0v14.544C22.061,22.271,22.049,22.271,22.037,22.271"/>
					<path fill="#FFFFFF" d="M22.074,22.271V7.727c0.012,0,0.023,0,0.036,0v14.544C22.097,22.271,22.085,22.271,22.074,22.271"/>
					<path fill="#FFFFFF" d="M22.11,22.271V7.727c0.012,0,0.024,0,0.036,0v14.544C22.134,22.271,22.122,22.271,22.11,22.271"/>
					<path fill="#FFFFFF" d="M22.146,22.271V7.727c0.012,0,0.024,0,0.036,0v14.544C22.17,22.271,22.158,22.271,22.146,22.271"/>
					<path fill="#FFFFFF" d="M22.182,22.271V7.727c0.013,0,0.024,0,0.036,0v14.544C22.207,22.271,22.195,22.271,22.182,22.271"/>
					<path fill="#FFFFFF" d="M22.218,22.271V7.727c0.014,0,0.026,0,0.04,0v14.544C22.245,22.271,22.232,22.271,22.218,22.271"/>
					<path fill="#FFFFFF" d="M22.258,22.271V7.727c0.021,0,0.042,0,0.063,0v14.544C22.3,22.271,22.279,22.271,22.258,22.271"/>
					<path fill="#FFFFFF" d="M22.322,22.271V7.727c0.021,0,0.041,0,0.063,0v14.544C22.363,22.271,22.342,22.271,22.322,22.271"/>
					<path fill="#FFFFFF" d="M22.384,22.271V7.727c0.021,0,0.042,0,0.063,0v14.544C22.426,22.271,22.405,22.271,22.384,22.271"/>
					<path fill="#FFFFFF" d="M22.447,22.271V7.727c0.063,0,0.124,0,0.185,0v14.544C22.571,22.271,22.509,22.271,22.447,22.271"/>
					<path fill="#FFFFFF" d="M22.631,22.271V7.727c0.041,0,0.082,0,0.122,0v14.544C22.713,22.271,22.672,22.271,22.631,22.271"/>
					<path fill="#FFFFFF" d="M22.753,22.271V7.727c0.018,0,0.035,0,0.053,0v14.544C22.789,22.271,22.771,22.271,22.753,22.271"/>
					<path fill="#FFFFFF" d="M22.806,22.271V7.727c0.019,0,0.036,0,0.054,0v14.544C22.842,22.271,22.825,22.271,22.806,22.271"/>
					<path fill="#FFFFFF" d="M22.86,22.271V7.727c0.018,0,0.035,0,0.053,0v14.544C22.895,22.271,22.877,22.271,22.86,22.271"/>
					<path fill="#FFFFFF" d="M22.913,22.271V7.727c0.017,0,0.034,0,0.052,0v14.544C22.947,22.271,22.929,22.271,22.913,22.271"/>
					<path fill="#FFFFFF" d="M22.964,22.271V7.727c0.018,0,0.034,0,0.051,0v14.544C22.999,22.271,22.982,22.271,22.964,22.271"/>
					<path fill="#FFFFFF" d="M23.015,22.271V7.727c0.018,0,0.034,0,0.051,0v14.544C23.049,22.271,23.033,22.271,23.015,22.271"/>
					<path fill="#FFFFFF" d="M23.066,22.271V7.727c0.018,0,0.034,0,0.051,0v14.544C23.1,22.271,23.083,22.271,23.066,22.271"/>
					<path fill="#FFFFFF" d="M23.117,22.271V7.727c0.017,0,0.033,0,0.05,0v14.544C23.15,22.271,23.133,22.271,23.117,22.271"/>
					<path fill="#FFFFFF" d="M23.167,22.271V7.727c0.023,0,0.046,0,0.069,0v14.544C23.212,22.271,23.19,22.271,23.167,22.271"/>
					<path fill="#FFFFFF" d="M23.236,22.271V7.727c0.023,0,0.047,0,0.07,0v14.544C23.283,22.271,23.259,22.271,23.236,22.271"/>
					<path fill="#FAFAFA" d="M23.306,22.271V7.727c0.022,0,0.046,0,0.068,0v14.544C23.352,22.271,23.329,22.271,23.306,22.271"/>
					<path fill="#F5F5F5" d="M23.375,22.271V7.727c0.035,0,0.068,0,0.103,0v14.544C23.443,22.271,23.41,22.271,23.375,22.271"/>
					<path fill="#F0F0F0" d="M23.477,22.271V7.727c0.035,0,0.069,0,0.104,0v14.544C23.546,22.271,23.512,22.271,23.477,22.271"/>
					<path fill="#EBEBEB" d="M23.581,22.271V7.727c0.045,0,0.089,0,0.133,0v14.544C23.669,22.271,23.625,22.271,23.581,22.271"/>
					<path fill="#E5E5E5" d="M23.713,22.271V7.727c0.046,0,0.09,0,0.134,0v14.544C23.803,22.271,23.759,22.271,23.713,22.271"/>
					<path fill="#E0E0E0" d="M23.847,22.271V7.727c0.045,0,0.089,0,0.132,0v14.544C23.936,22.271,23.892,22.271,23.847,22.271"/>
					<path fill="#DBDBDB" d="M23.979,22.271V7.727c0.042,0,0.083,0,0.123,0v14.544C24.062,22.271,24.021,22.271,23.979,22.271"/>
					<path fill="#D6D6D6" d="M24.102,22.271V7.727c0.039,0,0.077,0,0.114,0v14.544C24.179,22.271,24.141,22.271,24.102,22.271"/>
					<path fill="#D1D1D1" d="M24.216,22.271V7.727c0.037,0,0.072,0,0.107,0v14.544C24.289,22.271,24.253,22.271,24.216,22.271"/>
					<path fill="#CCCCCC" d="M24.324,22.271V7.727c0.034,0,0.067,0,0.1,0v14.544C24.391,22.271,24.358,22.271,24.324,22.271"/>
					<path fill="#C7C7C7" d="M24.423,22.271V7.727c0.031,0,0.063,0,0.092,0v14.544C24.486,22.271,24.455,22.271,24.423,22.271"/>
					<path fill="#C2C2C2" d="M24.515,22.271V7.727c0.03,0,0.059,0,0.087,0v14.544C24.574,22.271,24.545,22.271,24.515,22.271"/>
					<path fill="#BDBDBD" d="M24.602,22.271V7.727c0.027,0,0.054,0,0.079,0v14.544C24.656,22.271,24.629,22.271,24.602,22.271"/>
					<path fill="#B8B8B8" d="M24.681,22.271V7.727c0.025,0,0.05,0,0.072,0v14.544C24.731,22.271,24.707,22.271,24.681,22.271"/>
					<path fill="#B2B2B2" d="M24.753,22.271V7.727c0.023,0,0.046,0,0.066,0v14.544C24.799,22.271,24.777,22.271,24.753,22.271"/>
					<path fill="#ADADAD" d="M24.82,22.271V7.727c0.021,0,0.04,0,0.058,0v14.544C24.86,22.271,24.84,22.271,24.82,22.271"/>
					<path fill="#A8A8A8" d="M24.877,22.271V7.727c0.018,0,0.034,0,0.049,0v14.544C24.912,22.271,24.895,22.271,24.877,22.271"/>
					<path fill="#A3A3A3" d="M24.926,22.271V7.727c0.015,0,0.027,0,0.038,0v14.544C24.954,22.271,24.941,22.271,24.926,22.271"/>
					<path fill="#9E9E9E" d="M24.964,22.271V7.727c0.012,0,0.021,0,0.027,0v14.544C24.985,22.271,24.976,22.271,24.964,22.271"/>
					<path fill="#999999" d="M24.992,22.271V7.727c0.007,0,0.011,0,0.012,0v14.544C25.002,22.271,24.999,22.271,24.992,22.271"/>
					<polyline fill="#949494" points="25.003,22.271 25.003,7.727 25.003,7.727 25.003,22.271 25.003,22.271 					"/>
				</g>
			</g>
			<g enable-background="new    ">
				<defs>
					<path id="SVGID_21_" enable-background="new    " d="M22.276,22.273c0-0.001-0.001-0.002-0.001-0.003
						c0.001,0.001,0.002,0.001,0.003,0.001c1.528,0,2.726,0,2.726,0c0,1.512-1.225,2.727-2.728,2.727
						C22.276,24.998,22.276,23.801,22.276,22.273z"/>
				</defs>
				<clipPath id="SVGID_22_">
					<use xlink:href="#SVGID_21_"  overflow="visible"/>
				</clipPath>
				<g clip-path="url(#SVGID_22_)" enable-background="new    ">
					<path fill="#FFFFFF" d="M22.276,22.273c1.53-0.002,2.728-0.002,2.728-0.002c0,1.512-1.225,2.727-2.728,2.727
						C22.276,24.998,22.276,23.801,22.276,22.273"/>
					<path fill="#FFFFFF" d="M22.276,22.273L22.276,22.273L22.276,22.273L22.276,22.273l-0.001-0.002l0,0V22.27l0,0l0,0l0,0l0,0l0,0
						l0,0l0,0l0.001,0.001l0,0h0.001l0,0h0.001l0,0c0.044,0,0.087,0,0.13,0c0.001,0,0.002,0,0.003,0
						c0.162,0.013,0.178,0.012,0.276,0c1.328,0,2.316,0,2.316,0c0,1.512-1.225,2.727-2.728,2.727
						C22.276,24.998,22.276,23.801,22.276,22.273"/>
					<path fill="#FFFFFF" d="M22.276,22.273L22.276,22.273L22.276,22.273L22.276,22.273l-0.001-0.002l0,0V22.27l0,0l0,0l0,0l0,0l0,0
						l0,0l0,0l0.001,0.001l0,0h0.001l0,0h0.001l0,0c0.022,0,0.046,0,0.068,0l0,0c0.271,0.028,0.288,0.03,0.412,0
						c1.291,0,2.245,0,2.245,0c0,1.512-1.225,2.727-2.728,2.727C22.276,24.998,22.276,23.801,22.276,22.273"/>
					<path fill="#FFFFFF" d="M22.276,22.273L22.276,22.273L22.276,22.273L22.276,22.273l-0.001-0.002l0,0V22.27l0,0l0,0l0,0l0,0l0,0
						l0,0l0,0l0.001,0.001l0,0h0.001l0,0h0.001l0,0c0.011,0,0.021,0,0.031,0h0.001c0.429,0.03,0.429,0.03,0.507,0
						c1.262,0,2.187,0,2.187,0c0,1.512-1.225,2.727-2.728,2.727C22.276,24.998,22.276,23.801,22.276,22.273"/>
					<path fill="#FFFFFF" d="M22.276,22.273L22.276,22.273L22.276,22.273L22.276,22.273l-0.001-0.002l0,0V22.27l0,0l0,0l0,0l0,0l0,0
						l0,0l0,0l0.001,0.001l0,0h0.001l0,0h0.001l0,0c0.01,0,0.019,0,0.028,0c0.001,0,0.003,0,0.004,0
						c0.097,0.007,0.188,0.049,0.285,0.049c0.101,0,0.143,0,0.273-0.049c1.235,0,2.135,0,2.135,0c0,1.512-1.225,2.727-2.728,2.727
						C22.276,24.998,22.276,23.801,22.276,22.273"/>
					<path fill="#FFFFFF" d="M22.276,22.273L22.276,22.273L22.276,22.273L22.276,22.273l-0.001-0.002l0,0V22.27l0,0l0,0l0,0l0,0l0,0
						l0,0l0,0l0.001,0.001l0,0h0.001l0,0h0.001l0,0c0.009,0,0.017,0,0.025,0c0.002,0,0.005,0,0.007,0.001
						c0.101,0.007,0.19,0.063,0.292,0.063c0.117,0,0.202-0.004,0.315-0.063c1.21,0,2.086,0,2.086,0c0,1.512-1.225,2.727-2.728,2.727
						C22.276,24.998,22.276,23.801,22.276,22.273"/>
					<path fill="#FFFFFF" d="M22.276,22.273L22.276,22.273L22.276,22.273L22.276,22.273l-0.001-0.002l0,0V22.27l0,0l0,0l0,0l0,0l0,0
						l0,0l0,0l0.001,0.001l0,0h0.001l0,0h0.001l0,0c0.008,0,0.015,0,0.022,0c0.003,0,0.007,0.001,0.01,0.001
						c0.133,0.009,0.253,0.08,0.388,0.08c0.112-0.001,0.209-0.051,0.267-0.081c1.186,0,2.039,0,2.039,0
						c0,1.512-1.225,2.727-2.728,2.727C22.276,24.998,22.276,23.801,22.276,22.273"/>
					<path fill="#FFFFFF" d="M22.276,22.273L22.276,22.273L22.276,22.273L22.276,22.273l-0.001-0.002l0,0V22.27l0,0l0,0l0,0l0,0l0,0
						l0,0l0,0l0.001,0.001l0,0h0.001l0,0h0.001l0,0c0.007,0,0.013,0,0.019,0c0.005,0,0.01,0.001,0.014,0.001
						c0.134,0.01,0.248,0.098,0.384,0.098c0.063-0.001,0.189-0.014,0.318-0.099c1.161,0,1.991,0,1.991,0
						c0,1.512-1.225,2.727-2.728,2.727C22.276,24.998,22.276,23.801,22.276,22.273"/>
					<path fill="#FFFFFF" d="M22.276,22.273L22.276,22.273L22.276,22.273L22.276,22.273l-0.001-0.002l0,0V22.27l0,0l0,0l0,0l0,0l0,0
						l0,0l0,0l0.001,0.001l0,0h0.001l0,0h0.001l0,0c0.006,0,0.011,0,0.016,0s0.012,0.001,0.017,0.001
						c0.037,0.003,0.065,0.026,0.079,0.04c0.028,0.029,0.198,0.075,0.3,0.075c0.203,0,0.305-0.07,0.372-0.116
						c1.136,0,1.942,0,1.942,0c0,1.512-1.225,2.727-2.728,2.727C22.276,24.998,22.276,23.801,22.276,22.273"/>
					<path fill="#FFFFFF" d="M22.276,22.273L22.276,22.273L22.276,22.273L22.276,22.273l-0.001-0.002l0,0V22.27l0,0l0,0l0,0l0,0l0,0
						l0,0l0,0l0.001,0.001l0,0h0.001l0,0h0.001l0,0l0.032,0.002c0.134,0.042,0.252,0.134,0.4,0.134
						c0.198-0.001,0.311-0.065,0.402-0.136c1.108,0,1.891,0,1.891,0c0,1.512-1.225,2.727-2.728,2.727
						C22.276,24.998,22.276,23.801,22.276,22.273"/>
					<path fill="#FFFFFF" d="M22.276,22.273L22.276,22.273L22.276,22.273L22.276,22.273l-0.001-0.002l0,0V22.27l0,0l0,0l0,0l0,0l0,0
						l0,0l0,0l0.001,0.001l0,0h0.001l0,0h0.001l0,0l0.028,0.002c0.063,0.027,0.109,0.085,0.177,0.107
						c0.123,0.04,0.179,0.047,0.293,0.046c0.062,0,0.223-0.015,0.391-0.155c1.079,0,1.837,0,1.837,0
						c0,1.512-1.225,2.727-2.728,2.727C22.276,24.998,22.276,23.801,22.276,22.273"/>
					<path fill="#FFFFFF" d="M22.276,22.273L22.276,22.273L22.276,22.273L22.276,22.273l-0.001-0.002l0,0V22.27l0,0l0,0l0,0l0,0l0,0
						l0,0l0,0l0.001,0.001l0,0h0.001l0,0h0.001l0,0l0.023,0.001c0.332,0.179,0.332,0.179,0.464,0.178
						c0.248,0,0.398-0.125,0.463-0.179c1.047,0,1.775,0,1.775,0c0,1.512-1.225,2.727-2.728,2.727
						C22.276,24.998,22.276,23.801,22.276,22.273"/>
					<path fill="#FAFAFA" d="M22.276,22.273L22.276,22.273L22.276,22.273L22.276,22.273l-0.001-0.002l0,0V22.27l0,0l0,0l0,0l0,0l0,0
						l0,0l0,0l0.001,0.001l0,0h0.001l0,0h0.001l0,0l0.019,0.001c0.199,0.133,0.571,0.38,1-0.001c1.01,0,1.707,0,1.707,0
						c0,1.512-1.225,2.727-2.728,2.727C22.276,24.998,22.276,23.801,22.276,22.273"/>
					<path fill="#F5F5F5" d="M22.276,22.273L22.276,22.273L22.276,22.273L22.276,22.273l-0.001-0.002l0,0V22.27l0,0l0,0l0,0l0,0l0,0
						l0,0l0,0l0.001,0.001l0,0h0.001l0,0h0.001l0,0l0.014,0.001c0.076,0.046,0.123,0.129,0.206,0.165
						c0.107,0.047,0.202,0.065,0.326,0.065c0.295,0,0.488-0.174,0.551-0.231c0.968,0,1.629,0,1.629,0
						c0,1.512-1.225,2.727-2.728,2.727C22.276,24.998,22.276,23.801,22.276,22.273"/>
					<path fill="#F0F0F0" d="M22.276,22.273L22.276,22.273L22.276,22.273L22.276,22.273l-0.001-0.002l0,0V22.27l0,0l0,0l0,0l0,0l0,0
						l0,0l0,0l0.001,0.001l0,0h0.001l0,0h0.001l0,0h0.009c0.09,0.047,0.131,0.148,0.223,0.192c0.044,0.021,0.164,0.069,0.328,0.069
						c0.34,0,0.544-0.184,0.632-0.262c0.916,0,1.534,0,1.534,0c0,1.512-1.225,2.727-2.728,2.727
						C22.276,24.998,22.276,23.801,22.276,22.273"/>
					<path fill="#EBEBEB" d="M22.276,22.273L22.276,22.273L22.276,22.273L22.276,22.273l-0.001-0.002l0,0V22.27l0,0l0,0l0,0l0,0l0,0
						l0,0l0,0l0.001,0.001l0,0h0.001l0,0h0.001l0,0h0.004c0.031,0.015,0.063,0.083,0.065,0.087c0.007,0.024,0.162,0.21,0.544,0.21
						c0.237-0.001,0.469-0.101,0.69-0.297c0.854,0,1.422,0,1.422,0c0,1.512-1.225,2.727-2.728,2.727
						C22.276,24.998,22.276,23.801,22.276,22.273"/>
					<path fill="#E5E5E5" d="M22.276,22.273L22.276,22.273L22.276,22.273L22.276,22.273l-0.001-0.002l0,0V22.27l0,0l0,0l0,0l0,0l0,0
						l0,0l0,0l0.001,0.001l0,0h0.001l0,0h0.001l0,0h0.001c0.036,0.018,0.057,0.089,0.058,0.09c0.017,0.084,0.264,0.245,0.558,0.245
						c0.303,0,0.578-0.112,0.817-0.335c0.78,0,1.292,0,1.292,0c0,1.512-1.225,2.727-2.728,2.727
						C22.276,24.998,22.276,23.801,22.276,22.273"/>
					<path fill="#E0E0E0" d="M22.276,22.273L22.276,22.273L22.276,22.273L22.276,22.273l-0.001-0.002l0,0V22.27l0,0l0,0l0,0l0,0l0,0
						l0,0l0,0l0.001,0.001l0,0h0.001l0,0h0.002c0.036,0.022,0.047,0.104,0.047,0.104c0.001,0.05,0.114,0.133,0.171,0.164
						c0.182,0.099,0.352,0.111,0.479,0.111c0.085,0,0.525-0.019,0.871-0.38c0.704,0,1.156,0,1.156,0
						c0,1.512-1.225,2.727-2.728,2.727C22.276,24.998,22.276,23.801,22.276,22.273"/>
					<path fill="#DBDBDB" d="M22.276,22.305L22.276,22.305c0-0.011,0-0.021,0-0.032l0,0l0,0v-0.001l0,0l-0.001-0.001l0,0V22.27l0,0
						l0,0l0,0l0,0l0,0l0,0l0,0l0.001,0.001l0,0h0.002c0.033,0.025,0.034,0.107,0.033,0.114c-0.002,0.015,0.024,0.092,0.196,0.196
						c0.097,0.059,0.288,0.122,0.481,0.122c0.598,0,0.883-0.314,0.99-0.433c0.628,0,1.024,0,1.024,0
						c0,1.512-1.225,2.727-2.728,2.727C22.276,24.998,22.276,23.818,22.276,22.305"/>
					<path fill="#D6D6D6" d="M22.276,22.374c0-0.022,0.002-0.053,0-0.075c0-0.008,0-0.017,0-0.025l0,0l0,0v-0.001l0,0l-0.001-0.001
						l0,0V22.27l0,0l0,0l0,0l0,0l0,0l0,0l0,0l0.001,0.001l0,0h0.001c0.032,0.032,0.017,0.115,0.017,0.116
						c-0.018,0.052,0.109,0.173,0.185,0.219c0.071,0.043,0.261,0.158,0.609,0.158c0.238,0,0.687-0.064,1.015-0.493
						c0.557,0,0.901,0,0.901,0c0,1.512-1.225,2.727-2.728,2.727C22.276,24.998,22.276,23.853,22.276,22.374"/>
					<path fill="#D1D1D1" d="M22.276,22.442c0.228,0.461,1.401,0.65,1.941-0.171c0.488,0,0.786,0,0.786,0
						c0,1.512-1.225,2.727-2.728,2.727C22.276,24.998,22.276,23.888,22.276,22.442"/>
					<path fill="#CCCCCC" d="M22.276,22.511c0.284,0.484,1.55,0.649,2.048-0.24c0.425,0,0.68,0,0.68,0
						c0,1.512-1.225,2.727-2.728,2.727C22.276,24.998,22.276,23.923,22.276,22.511"/>
					<path fill="#C7C7C7" d="M22.276,22.589c0.373,0.49,1.628,0.654,2.147-0.318c0.364,0,0.58,0,0.58,0
						c0,1.512-1.225,2.727-2.728,2.727C22.276,24.998,22.276,23.963,22.276,22.589"/>
					<path fill="#C2C2C2" d="M22.276,22.675c0.515,0.565,1.791,0.578,2.239-0.404c0.309,0,0.488,0,0.488,0
						c0,1.512-1.225,2.727-2.728,2.727C22.276,24.998,22.276,24.006,22.276,22.675"/>
					<path fill="#BDBDBD" d="M22.276,22.767c0.648,0.628,1.941,0.495,2.325-0.496c0.256,0,0.402,0,0.402,0
						c0,1.512-1.225,2.727-2.728,2.727C22.276,24.998,22.276,24.051,22.276,22.767"/>
					<path fill="#B8B8B8" d="M22.276,22.865c0.648,0.565,1.973,0.565,2.405-0.594c0.206,0,0.322,0,0.322,0
						c0,1.512-1.225,2.727-2.728,2.727C22.276,24.998,22.276,24.099,22.276,22.865"/>
					<path fill="#B2B2B2" d="M22.276,22.966c0.799,0.645,2.126,0.445,2.478-0.695c0.161,0,0.25,0,0.25,0
						c0,1.512-1.225,2.727-2.728,2.727C22.276,24.998,22.276,24.148,22.276,22.966"/>
					<path fill="#ADADAD" d="M22.276,23.072c0.868,0.646,2.239,0.398,2.543-0.801c0.119,0,0.185,0,0.185,0
						c0,1.512-1.225,2.727-2.728,2.727C22.276,24.998,22.276,24.198,22.276,23.072"/>
					<path fill="#A8A8A8" d="M22.276,23.18c0.936,0.643,2.349,0.344,2.601-0.909c0.083,0,0.127,0,0.127,0
						c0,1.512-1.225,2.727-2.728,2.727C22.276,24.998,22.276,24.249,22.276,23.18"/>
					<path fill="#A3A3A3" d="M22.276,23.292c1.125,0.714,2.462,0.199,2.65-1.021c0.05,0,0.077,0,0.077,0
						c0,1.512-1.225,2.727-2.728,2.727C22.276,24.998,22.276,24.301,22.276,23.292"/>
					<path fill="#9E9E9E" d="M22.276,23.41c1.083,0.656,2.536,0.26,2.688-1.139c0.025,0,0.039,0,0.039,0
						c0,1.512-1.225,2.727-2.728,2.727C22.276,24.998,22.276,24.355,22.276,23.41"/>
					<path fill="#999999" d="M22.276,23.534c1.139,0.644,2.615,0.188,2.716-1.263c0.012,1.512-1.213,2.727-2.716,2.727
						C22.276,24.998,22.276,24.411,22.276,23.534"/>
					<path fill="#949494" d="M22.276,23.667c1.185,0.643,2.676,0.125,2.728-1.396c0,1.512-1.225,2.727-2.728,2.727
						C22.276,24.998,22.276,24.469,22.276,23.667"/>
					<path fill="#8F8F8F" d="M22.276,23.815c1.233,0.624,2.522,0.061,2.704-1.183c-0.177,1.339-1.323,2.365-2.704,2.365
						C22.276,24.998,22.276,24.534,22.276,23.815"/>
					<path fill="#8A8A8A" d="M22.276,23.985c1.142,0.532,2.291,0.12,2.616-0.938c-0.335,1.13-1.382,1.95-2.616,1.95
						C22.276,24.998,22.276,24.606,22.276,23.985"/>
					<path fill="#858585" d="M22.276,24.196c1.008,0.42,1.985,0.143,2.433-0.689c-0.45,0.887-1.372,1.491-2.433,1.491
						C22.276,24.998,22.276,24.694,22.276,24.196"/>
					<path fill="#D1D1D1" d="M22.276,22.273L22.276,22.273L22.276,22.273L22.276,22.273l-0.001-0.002l0,0V22.27l0,0l0,0l0,0l0,0l0,0
						l0,0l0,0h0.001c0.024,0.016,0.005,0.098,0.005,0.099c-0.001-0.022-0.003-0.053-0.005-0.075
						C22.276,22.287,22.276,22.28,22.276,22.273"/>
					<path fill="#CCCCCC" d="M22.276,22.273L22.276,22.273L22.276,22.273L22.276,22.273l-0.001-0.002l0,0V22.27l0,0l0,0l0,0l0,0l0,0
						l0,0c0.01,0.009,0.01,0.009,0.004,0.054c-0.001-0.012-0.002-0.025-0.003-0.036C22.276,22.283,22.276,22.278,22.276,22.273"/>
					<path fill="#C7C7C7" d="M22.276,22.273L22.276,22.273L22.276,22.273L22.276,22.273l-0.001-0.002l0,0V22.27l0,0l0,0l0,0
						l0.001,0.001c0.006,0.009,0.007,0.019,0.001,0.028c0-0.005-0.001-0.013-0.001-0.018C22.276,22.279,22.276,22.276,22.276,22.273
						"/>
					<path fill="#C2C2C2" d="M22.276,22.273L22.276,22.273L22.276,22.273L22.276,22.273l-0.001-0.002l0,0V22.27l0,0l0.001,0.001
						c0.003,0.007,0.003,0.013,0.001,0.02c0-0.005-0.001-0.01-0.001-0.015C22.276,22.275,22.276,22.274,22.276,22.273"/>
					<polyline fill="#BDBDBD" points="22.276,22.273 22.276,22.272 22.276,22.273 22.276,22.281 22.276,22.273 22.276,22.273 
						22.276,22.273 					"/>
				</g>
			</g>
			<g enable-background="new    ">
				<defs>
					<path id="SVGID_23_" enable-background="new    " d="M7.723,7.712c0,0.008,0.002,0.015,0.007,0.021
						C7.724,7.728,7.717,7.727,7.709,7.727c-1.523,0-2.713,0-2.713,0C4.996,6.224,6.22,5,7.723,5C7.723,5,7.723,6.19,7.723,7.712z"
						/>
				</defs>
				<clipPath id="SVGID_24_">
					<use xlink:href="#SVGID_23_"  overflow="visible"/>
				</clipPath>
				<g clip-path="url(#SVGID_24_)" enable-background="new    ">
					<path fill="#FFFFFF" d="M7.723,7.712c0.001,0.004,0.006,0.011,0.003,0.014c-0.002,0.003-0.01,0-0.014,0
						c-1.525,0-2.716,0-2.716,0C4.996,6.224,6.22,5,7.723,5C7.723,5,7.723,6.19,7.723,7.712"/>
					<path fill="#FFFFFF" d="M7.723,7.649c0,0.014-0.001,0.032,0,0.045c0,0.006,0,0.012,0,0.018c0,0.001,0,0.002,0,0.003
						l0.004,0.014l0.001,0.002l0.001,0.001l0,0v0.001l0-0.001h0L7.728,7.732L7.726,7.731L7.723,7.729
						c-0.004-0.001-0.01-0.002-0.014-0.003c-1.523,0-2.713,0-2.713,0C4.996,6.224,6.22,5,7.723,5C7.723,5,7.723,6.157,7.723,7.649"
						/>
					<path fill="#FFFFFF" d="M7.723,7.595c0,0.031-0.001,0.072,0,0.103c0,0.005,0,0.01,0,0.015c0,0.001,0,0.002,0,0.003l0.004,0.014
						l0.001,0.002l0.001,0.001l0,0v0.001l0-0.001h0L7.728,7.732L7.726,7.731L7.723,7.729c-0.004-0.001-0.01-0.002-0.014-0.003
						c-1.523,0-2.713,0-2.713,0C4.996,6.224,6.22,5,7.723,5C7.723,5,7.723,6.129,7.723,7.595"/>
					<path fill="#FFFFFF" d="M7.723,7.386c-0.003,0.104-0.005,0.21,0,0.314v0.015l0.004,0.014l0.001,0.002l0.001,0.001l0,0v0.001
						l0-0.001h0L7.728,7.732L7.726,7.731L7.723,7.729c-0.004-0.001-0.01-0.002-0.014-0.003c-1.523,0-2.713,0-2.713,0
						C4.996,6.224,6.22,5,7.723,5C7.723,5,7.723,6.023,7.723,7.386"/>
					<path fill="#FFFFFF" d="M7.723,7.306c-0.011,0.148-0.011,0.148,0,0.398v0.012l0.004,0.014l0.001,0.002l0.001,0.001l0,0v0.001
						l0-0.001h0L7.728,7.732L7.726,7.731L7.723,7.729c-0.004-0.001-0.01-0.002-0.014-0.003c-1.523,0-2.713,0-2.713,0
						C4.996,6.224,6.22,5,7.723,5C7.723,5,7.723,5.983,7.723,7.306"/>
					<path fill="#FFFFFF" d="M7.723,7.244c-0.015,0.118-0.015,0.118,0,0.463v0.009l0.004,0.014l0.001,0.002l0.001,0.001l0,0v0.001
						l0-0.001h0L7.728,7.732L7.726,7.731L7.723,7.729c-0.004-0.001-0.01-0.002-0.014-0.003c-1.523,0-2.713,0-2.713,0
						C4.996,6.224,6.22,5,7.723,5C7.723,5,7.723,5.953,7.723,7.244"/>
					<path fill="#FFFFFF" d="M7.723,7.185c-0.018,0.103-0.018,0.103,0,0.525v0.006l0.004,0.014l0.001,0.002l0.001,0.001l0,0v0.001
						l0-0.001h0L7.728,7.732L7.726,7.731L7.723,7.729c-0.004-0.001-0.01-0.002-0.014-0.003c-1.523,0-2.713,0-2.713,0
						C4.996,6.224,6.22,5,7.723,5C7.723,5,7.723,5.923,7.723,7.185"/>
					<path fill="#FFFFFF" d="M7.723,7.129C7.707,7.219,7.67,7.305,7.67,7.399c0,0.107,0.049,0.207,0.053,0.313v0.003l0.004,0.014
						l0.001,0.002l0.001,0.001l0,0v0.001l0-0.001h0L7.728,7.732L7.726,7.731L7.723,7.729c-0.004-0.001-0.01-0.002-0.014-0.003
						c-1.523,0-2.713,0-2.713,0C4.996,6.224,6.22,5,7.723,5C7.723,5,7.723,5.896,7.723,7.129"/>
					<path fill="#FFFFFF" d="M7.723,7.073C7.7,7.178,7.655,7.278,7.655,7.387c0,0.113,0.062,0.214,0.068,0.326v0.002l0,0.002
						l0,0.003l0.003,0.008l0.001,0.002l0.001,0.001l0,0v0.001l0-0.001h0L7.728,7.732L7.726,7.731L7.723,7.729
						c-0.004-0.001-0.01-0.002-0.014-0.003c-1.523,0-2.713,0-2.713,0C4.996,6.224,6.22,5,7.723,5C7.723,5,7.723,5.87,7.723,7.073"/>
					<path fill="#FFFFFF" d="M7.723,7.018C7.7,7.115,7.64,7.202,7.64,7.306c0,0.142,0.074,0.268,0.083,0.407v0.002l0,0.002l0,0.003
						l0.003,0.008l0.001,0.002l0.001,0.001l0,0v0.001l0-0.001h0L7.728,7.732L7.726,7.731L7.723,7.729
						c-0.004-0.001-0.01-0.002-0.014-0.003c-1.523,0-2.713,0-2.713,0C4.996,6.224,6.22,5,7.723,5C7.723,5,7.723,5.843,7.723,7.018"
						/>
					<path fill="#FFFFFF" d="M7.723,6.958C7.692,7.076,7.62,7.183,7.62,7.31c0,0.144,0.087,0.264,0.103,0.403v0.002l0,0.002l0,0.003
						l0.003,0.008l0.001,0.002l0.001,0.001l0,0v0.001l0-0.001h0L7.728,7.732L7.726,7.731L7.723,7.729
						c-0.004-0.001-0.01-0.002-0.014-0.003c-1.523,0-2.713,0-2.713,0C4.996,6.224,6.22,5,7.723,5C7.723,5,7.723,5.814,7.723,6.958"
						/>
					<path fill="#FAFAFA" d="M7.723,6.895C7.682,7.035,7.599,7.164,7.599,7.316c0,0.068,0.025,0.26,0.084,0.31
						C7.712,7.65,7.72,7.693,7.723,7.713v0.003l0,0.001l0,0.003l0.003,0.008l0.001,0.002l0.001,0.001l0,0v0.001l0-0.001h0
						L7.728,7.732L7.726,7.731L7.723,7.729c-0.004-0.001-0.01-0.002-0.014-0.003c-1.523,0-2.713,0-2.713,0
						C4.996,6.224,6.22,5,7.723,5C7.723,5,7.723,5.785,7.723,6.895"/>
					<path fill="#F5F5F5" d="M7.723,6.826C7.679,6.969,7.577,7.091,7.577,7.249c0,0.299,0.094,0.378,0.095,0.379
						c0.031,0.02,0.05,0.063,0.051,0.086v0.002l0,0.001l0,0.003l0.003,0.008l0.001,0.002l0.001,0.001l0,0v0.001l0-0.001h0
						L7.728,7.732L7.726,7.731L7.723,7.729c-0.004-0.001-0.01-0.002-0.014-0.003c-1.523,0-2.713,0-2.713,0
						C4.996,6.224,6.22,5,7.723,5C7.723,5,7.723,5.752,7.723,6.826"/>
					<path fill="#F0F0F0" d="M7.723,6.747C7.716,6.77,7.69,6.792,7.677,6.812C7.651,6.847,7.55,7.034,7.55,7.248
						c0,0.198,0.068,0.364,0.113,0.386c0.011,0.005,0.048,0.028,0.06,0.08l0,0.002v0.001l0,0.003l0.003,0.008l0.001,0.002
						l0.001,0.001l0,0v0.001l0-0.001h0L7.728,7.732L7.726,7.731L7.723,7.729c-0.004-0.001-0.01-0.002-0.014-0.003
						c-1.523,0-2.713,0-2.713,0C4.996,6.224,6.22,5,7.723,5C7.723,5,7.723,5.715,7.723,6.747"/>
					<path fill="#EBEBEB" d="M7.723,6.654C7.715,6.678,7.688,6.702,7.672,6.723c-0.001,0.002-0.15,0.208-0.15,0.52
						c0,0.196,0.081,0.377,0.123,0.396c0.048,0.022,0.074,0.048,0.079,0.076l0.001,0.006l0.003,0.008l0.001,0.002l0.001,0.001l0,0
						v0.001l0-0.001h0L7.728,7.732L7.726,7.731L7.723,7.729c-0.004-0.001-0.01-0.002-0.014-0.003c-1.523,0-2.713,0-2.713,0
						C4.996,6.224,6.22,5,7.723,5C7.723,5,7.723,5.672,7.723,6.654"/>
					<path fill="#E5E5E5" d="M7.723,6.542c-0.003,0.01-0.014,0.02-0.021,0.028C7.489,6.861,7.489,7.132,7.489,7.234
						c0,0.14,0.076,0.4,0.153,0.419c0.04,0.01,0.077,0.042,0.082,0.063l0.001,0.004l0.003,0.008l0.001,0.002l0.001,0.001l0,0v0.001
						l0-0.001h0L7.728,7.732L7.726,7.731L7.723,7.729c-0.004-0.001-0.01-0.002-0.014-0.003c-1.523,0-2.713,0-2.713,0
						C4.996,6.224,6.22,5,7.723,5C7.723,5,7.723,5.622,7.723,6.542"/>
					<path fill="#E0E0E0" d="M7.723,6.415C7.715,6.44,7.686,6.465,7.669,6.486C7.594,6.588,7.45,6.858,7.45,7.154
						c0,0.32,0.134,0.506,0.18,0.513c0.017,0.002,0.088,0.024,0.093,0.052l0,0.003l0.001,0.003l0.001,0.002l0.001,0.002l0.001,0.002
						l0.001,0.001l0,0v0.001l0-0.001h0L7.728,7.732L7.726,7.731L7.723,7.729c-0.004-0.001-0.01-0.002-0.014-0.003
						c-1.523,0-2.713,0-2.713,0C4.996,6.224,6.22,5,7.723,5C7.723,5,7.723,5.565,7.723,6.415"/>
					<path fill="#DBDBDB" d="M7.723,6.278C7.717,6.294,7.697,6.309,7.687,6.322C7.64,6.379,7.406,6.685,7.406,7.137
						c0,0.09,0.014,0.265,0.105,0.433c0.06,0.109,0.095,0.111,0.113,0.111c0,0,0.082,0.011,0.101,0.039l0,0.003l0,0.001l0.001,0.002
						l0.001,0.002l0.001,0.002l0.001,0.001l0,0v0.001l0-0.001h0L7.728,7.732L7.726,7.731L7.723,7.729
						c-0.004-0.001-0.01-0.002-0.014-0.003c-1.523,0-2.713,0-2.713,0C4.996,6.224,6.22,5,7.723,5C7.723,5,7.723,5.505,7.723,6.278"
						/>
					<path fill="#D6D6D6" d="M7.723,6.143C7.719,6.152,7.708,6.159,7.701,6.167C7.43,6.45,7.356,6.852,7.355,7.044
						c0,0.142,0.011,0.328,0.11,0.511c0.021,0.039,0.07,0.11,0.113,0.137c0.043,0.026,0.095-0.005,0.138,0.02
						C7.72,7.713,7.722,7.719,7.725,7.722l0.001,0.004l0.001,0.002l0.001,0.002l0.001,0.001l0,0v0.001l0-0.001h0L7.728,7.732
						L7.726,7.731L7.723,7.729c-0.004-0.001-0.01-0.002-0.014-0.003c-1.523,0-2.713,0-2.713,0C4.996,6.224,6.22,5,7.723,5
						C7.723,5,7.723,5.446,7.723,6.143"/>
					<path fill="#D1D1D1" d="M7.723,6.014C7.71,6.045,7.667,6.069,7.643,6.093C7.523,6.211,7.296,6.557,7.297,7.02
						c0,0.448,0.211,0.72,0.321,0.692c0.001,0,0.1-0.002,0.107,0.013l0.001,0.002l0.001,0.002l0.001,0.002l0.001,0.001l0,0v0.001
						l0-0.001h0L7.728,7.732L7.726,7.731L7.723,7.729c-0.004-0.001-0.01-0.002-0.014-0.003c-0.005,0-0.011,0-0.016,0l-0.004,0
						l-0.073,0c-1.478,0-2.62,0-2.62,0C4.996,6.224,6.22,5,7.723,5C7.723,5,7.723,5.392,7.723,6.014"/>
					<path fill="#CCCCCC" d="M7.723,5.894C7.712,5.917,7.678,5.932,7.659,5.948C7.574,6.02,7.292,6.296,7.238,6.828
						C7.204,7.163,7.296,7.592,7.536,7.727c-1.439,0-2.54,0-2.54,0C4.996,6.224,6.22,5,7.723,5C7.723,5,7.723,5.341,7.723,5.894"/>
					<path fill="#C7C7C7" d="M7.723,5.78C7.716,5.794,7.692,5.802,7.679,5.812C7.417,6.004,7.223,6.348,7.174,6.709
						c-0.065,0.487,0.1,0.888,0.289,1.018c-1.403,0-2.467,0-2.467,0C4.996,6.224,6.22,5,7.723,5C7.723,5,7.723,5.295,7.723,5.78"/>
					<path fill="#C2C2C2" d="M7.723,5.673C7.72,5.679,7.71,5.681,7.705,5.685C7.52,5.801,7.194,6.083,7.1,6.654
						C7.031,7.07,7.153,7.531,7.384,7.727c-1.364,0-2.388,0-2.388,0C4.996,6.224,6.22,5,7.723,5C7.723,5,7.723,5.252,7.723,5.673"/>
					<path fill="#BDBDBD" d="M7.723,5.572C7.708,5.6,7.66,5.61,7.633,5.626C7.521,5.693,7.149,5.958,7.027,6.576
						c-0.069,0.348-0.014,0.856,0.27,1.151c-1.32,0-2.301,0-2.301,0C4.996,6.224,6.22,5,7.723,5C7.723,5,7.723,5.212,7.723,5.572"/>
					<path fill="#B8B8B8" d="M7.723,5.478c-0.012,0.02-0.048,0.025-0.068,0.035C7.406,5.641,7.076,5.964,6.963,6.454
						c-0.13,0.567,0.04,1.029,0.242,1.273c-1.273,0-2.209,0-2.209,0C4.996,6.224,6.22,5,7.723,5C7.723,5,7.723,5.175,7.723,5.478"/>
					<path fill="#B2B2B2" d="M7.723,5.389C7.715,5.402,7.69,5.403,7.676,5.41C7.495,5.49,7.055,5.748,6.88,6.416
						C6.79,6.758,6.796,7.308,7.109,7.727c-1.224,0-2.113,0-2.113,0C4.996,6.224,6.22,5,7.723,5C7.723,5,7.723,5.141,7.723,5.389"/>
					<path fill="#ADADAD" d="M7.723,5.306c-0.005,0.007-0.02,0.007-0.029,0.011c-0.409,0.152-0.743,0.52-0.872,0.959
						C6.605,7.013,6.881,7.536,7.01,7.727c-1.172,0-2.014,0-2.014,0C4.996,6.224,6.22,5,7.723,5C7.723,5,7.723,5.11,7.723,5.306"/>
					<path fill="#A8A8A8" d="M7.723,5.23C7.72,5.234,7.712,5.234,7.707,5.235C7.438,5.32,6.955,5.565,6.73,6.251
						C6.607,6.626,6.589,7.21,6.906,7.727c-1.118,0-1.91,0-1.91,0C4.996,6.224,6.22,5,7.723,5C7.723,5,7.723,5.082,7.723,5.23"/>
					<path fill="#A3A3A3" d="M7.723,5.162C7.699,5.194,7.632,5.189,7.593,5.2C7.525,5.22,6.923,5.417,6.66,6.148
						C6.473,6.666,6.524,7.241,6.799,7.727c-1.061,0-1.803,0-1.803,0C4.996,6.224,6.22,5,7.723,5C7.723,5,7.723,5.057,7.723,5.162"
						/>
					<path fill="#9E9E9E" d="M7.723,5.103C7.719,5.107,7.708,5.105,7.702,5.107C7.108,5.227,6.738,5.67,6.59,6.044
						C6.371,6.599,6.404,7.18,6.686,7.727c-1,0-1.69,0-1.69,0C4.996,6.224,6.22,5,7.723,5C7.723,5,7.723,5.035,7.723,5.103"/>
					<path fill="#999999" d="M7.723,5.054c-0.01,0.011-0.034,0.005-0.048,0.007C7.425,5.099,6.81,5.27,6.479,6.034
						c-0.173,0.399-0.24,1.053,0.088,1.692c-0.936,0-1.571,0-1.571,0C4.996,6.224,6.22,5,7.723,5C7.723,5,7.723,5.018,7.723,5.054"
						/>
					<path fill="#949494" d="M7.723,5.018c-0.021,0.022-0.07,0.007-0.101,0.011C7.427,5.05,6.76,5.178,6.395,5.946
						c-0.146,0.307-0.334,0.947,0.042,1.78c-0.864,0-1.441,0-1.441,0C4.996,6.224,6.22,5,7.723,5C7.723,5,7.723,5.006,7.723,5.018"
						/>
					<path fill="#8F8F8F" d="M7.723,5c-0.011,0.011-0.035,0.001-0.05,0.001C7.099,5.019,6.579,5.34,6.316,5.841
						C5.916,6.606,6.13,7.351,6.293,7.727c-0.784,0-1.297,0-1.297,0C4.996,6.224,6.22,5,7.723,5C7.723,5,7.723,5,7.723,5"/>
					<path fill="#8A8A8A" d="M7.309,5.032C6.158,5.245,5.627,6.453,6.127,7.727c-0.689,0-1.131,0-1.131,0
						c0-1.391,1.048-2.542,2.396-2.707C7.367,5.023,7.333,5.028,7.309,5.032"/>
					<path fill="#858585" d="M6.795,5.164C5.716,5.639,5.578,6.793,5.919,7.727c-0.569,0-0.923,0-0.923,0
						c0-1.22,0.807-2.256,1.914-2.603C6.875,5.136,6.829,5.151,6.795,5.164"/>
					<path fill="#CCCCCC" d="M7.727,7.729C7.728,7.73,7.729,7.731,7.729,7.732l0,0v0.001l0-0.001h0L7.728,7.732L7.726,7.731
						L7.723,7.729C7.719,7.728,7.714,7.727,7.709,7.727c-0.003,0-0.007,0-0.01,0l-0.011,0C7.672,7.725,7.65,7.724,7.633,7.723
						c0.003,0,0.085-0.012,0.093,0.004C7.727,7.728,7.727,7.729,7.727,7.729"/>
					<path fill="#C7C7C7" d="M7.729,7.732c0,0,0,0.001,0,0.001L7.729,7.732L7.729,7.732l-0.002,0L7.726,7.731L7.723,7.729
						C7.719,7.728,7.714,7.727,7.709,7.727c-0.001,0-0.003,0-0.004,0L7.689,7.726c-0.003,0-0.007,0-0.01,0
						c0.017,0,0.037-0.015,0.049,0.005L7.729,7.732L7.729,7.732"/>
					<path fill="#C2C2C2" d="M7.73,7.734C7.73,7.733,7.729,7.733,7.73,7.734L7.728,7.732L7.726,7.731L7.723,7.729
						C7.719,7.728,7.714,7.727,7.709,7.727l-0.013,0c0.02-0.003,0.032,0.003,0.033,0.006L7.73,7.734L7.73,7.734"/>
					<path fill="#BDBDBD" d="M7.729,7.733C7.728,7.732,7.727,7.731,7.726,7.731L7.723,7.729C7.719,7.728,7.715,7.727,7.71,7.727
						H7.706C7.714,7.727,7.722,7.729,7.729,7.733C7.729,7.733,7.729,7.733,7.729,7.733"/>
				</g>
			</g>
			<g>
				<path fill="#DDDDDD" d="M22.276,8c-0.158-0.004-0.269-0.114-0.272-0.273c0,4.848,0,9.697,0,14.544
					c0.001-0.152,0.12-0.271,0.272-0.273c-4.851,0-9.702,0-14.553,0C7.875,22,7.996,22.119,7.996,22.271c0-4.848,0-9.696,0-14.544
					C7.992,7.885,7.882,7.996,7.723,8C12.574,8,17.425,8,22.276,8z"/>
			</g>
		</g>
	</g>
</g>
<polygon points="11.299,10.053 19.871,15 11.299,19.948 "/>
</svg>
