<?xml version="1.0" encoding="utf-8"?>
<!-- Generator: Adobe Illustrator 15.0.2, SVG Export Plug-In . SVG Version: 6.00 Build 0)  -->
<!DOCTYPE svg PUBLIC "-//W3C//DTD SVG 1.1//EN" "http://www.w3.org/Graphics/SVG/1.1/DTD/svg11.dtd">
<svg version="1.1" id="Layer_1" xmlns="http://www.w3.org/2000/svg" xmlns:xlink="http://www.w3.org/1999/xlink" x="0px" y="0px"
	 width="30px" height="30px" viewBox="0 0 30 30" enable-background="new 0 0 30 30" xml:space="preserve">
<g>
	<g>
		<g enable-background="new    ">
			<g enable-background="new    ">
				<defs>
					<polygon id="SVGID_1_" enable-background="new    " points="6.997,7.003 6.982,6.998 6.997,6.998 					"/>
				</defs>
				<clipPath id="SVGID_2_">
					<use xlink:href="#SVGID_1_"  overflow="visible"/>
				</clipPath>
				<g clip-path="url(#SVGID_2_)" enable-background="new    ">
					<polyline fill="#D5D5D5" points="6.997,7.003 6.982,6.998 6.997,6.998 6.997,7.003 					"/>
					<polyline fill="#D5D5D5" points="6.99,7 6.982,6.998 6.992,6.999 6.992,6.999 6.997,7.002 6.997,7.003 6.994,7.001 6.99,7 
											"/>
					<g>
						<polyline fill="#D2D2D2" points="6.982,6.998 6.987,6.999 6.987,6.999 6.988,7 6.984,6.999 6.982,6.998 						"/>
						<polyline fill="#D2D2D2" points="6.995,7.002 6.997,7.003 6.997,7.003 6.995,7.002 						"/>
					</g>
					<polyline fill="#CECECE" points="6.995,7.002 6.997,7.003 6.997,7.003 6.995,7.002 					"/>
					<polyline fill="#CBCBCB" points="6.995,7.002 6.997,7.003 6.997,7.003 6.995,7.002 					"/>
					<polyline fill="#C7C7C7" points="6.995,7.002 6.997,7.003 6.997,7.003 6.995,7.002 					"/>
					<polyline fill="#C4C4C4" points="6.995,7.002 6.997,7.003 6.997,7.003 6.995,7.002 					"/>
					<polyline fill="#C0C0C0" points="6.995,7.002 6.997,7.003 6.997,7.003 6.995,7.002 					"/>
					<polyline fill="#BCBCBC" points="6.996,7.002 6.997,7.003 6.997,7.003 6.996,7.002 					"/>
					<polyline fill="#B9B9B9" points="6.996,7.002 6.997,7.003 6.997,7.003 6.996,7.002 					"/>
					<polyline fill="#B5B5B5" points="6.996,7.002 6.997,7.003 6.997,7.003 6.996,7.002 					"/>
					<polyline fill="#B2B2B2" points="6.996,7.002 6.997,7.003 6.997,7.003 6.996,7.002 					"/>
					<polyline fill="#AEAEAE" points="6.996,7.002 6.997,7.003 6.997,7.003 6.996,7.002 					"/>
					<polyline fill="#AAAAAA" points="6.996,7.002 6.997,7.003 6.997,7.003 6.996,7.002 					"/>
					<polyline fill="#A7A7A7" points="6.996,7.002 6.997,7.003 6.997,7.003 6.996,7.002 					"/>
					<polyline fill="#A3A3A3" points="6.996,7.002 6.997,7.003 6.997,7.003 6.996,7.002 					"/>
					<polyline fill="#A0A0A0" points="6.996,7.002 6.997,7.003 6.997,7.003 6.996,7.002 					"/>
					<polyline fill="#9C9C9C" points="6.996,7.002 6.997,7.003 6.996,7.002 					"/>
					<polyline fill="#999999" points="6.996,7.002 6.997,7.003 6.996,7.002 					"/>
					<polyline fill="#959595" points="6.997,7.002 6.997,7.003 6.997,7.002 					"/>
					<polyline fill="#919191" points="6.997,7.003 6.997,7.003 6.997,7.003 					"/>
					<polyline fill="#8E8E8E" points="6.997,7.003 6.997,7.003 6.997,7.003 					"/>
				</g>
			</g>
			<g enable-background="new    ">
				<defs>
					<polygon id="SVGID_3_" enable-background="new    " points="23.002,6.998 23.017,6.998 23.002,7.003 					"/>
				</defs>
				<clipPath id="SVGID_4_">
					<use xlink:href="#SVGID_3_"  overflow="visible"/>
				</clipPath>
				<g clip-path="url(#SVGID_4_)" enable-background="new    ">
					<polyline fill="#D5D5D5" points="23.002,6.998 23.017,6.998 23.002,7.003 23.002,6.998 					"/>
					<g>
						<polyline fill="#D5D5D5" points="23.002,7.003 23.003,7.003 23.004,7.002 23.002,7.003 						"/>
						<polyline fill="#D5D5D5" points="23.017,6.998 23.007,7.001 23.007,7.001 23.007,6.999 23.014,6.999 23.017,6.998 						"/>
					</g>
					<g>
						<polyline fill="#D2D2D2" points="23.002,7.003 23.003,7.003 23.004,7.002 23.002,7.003 						"/>
						<polyline fill="#D2D2D2" points="23.017,6.998 23.013,6.999 23.013,6.999 23.013,6.999 23.017,6.998 						"/>
					</g>
					<polyline fill="#CECECE" points="23.002,7.003 23.003,7.003 23.004,7.002 23.002,7.003 					"/>
					<polyline fill="#CBCBCB" points="23.002,7.003 23.003,7.003 23.004,7.002 23.002,7.003 					"/>
					<polyline fill="#C7C7C7" points="23.002,7.003 23.003,7.003 23.004,7.002 23.002,7.003 					"/>
					<polyline fill="#C4C4C4" points="23.002,7.003 23.003,7.003 23.004,7.002 23.002,7.003 					"/>
					<polyline fill="#C0C0C0" points="23.002,7.003 23.003,7.003 23.004,7.002 23.002,7.003 					"/>
					<polyline fill="#BCBCBC" points="23.002,7.003 23.003,7.003 23.004,7.002 23.002,7.003 					"/>
					<polyline fill="#B9B9B9" points="23.002,7.003 23.003,7.003 23.004,7.002 23.002,7.003 					"/>
					<polyline fill="#B5B5B5" points="23.002,7.003 23.003,7.003 23.003,7.002 23.002,7.003 					"/>
					<polyline fill="#B2B2B2" points="23.002,7.003 23.003,7.003 23.003,7.002 23.002,7.003 					"/>
					<polyline fill="#AEAEAE" points="23.002,7.003 23.003,7.003 23.003,7.002 23.002,7.003 					"/>
					<polyline fill="#AAAAAA" points="23.002,7.003 23.003,7.003 23.003,7.002 23.002,7.003 					"/>
					<polyline fill="#A7A7A7" points="23.002,7.003 23.003,7.003 23.003,7.003 23.002,7.003 					"/>
					<polyline fill="#A3A3A3" points="23.002,7.003 23.003,7.003 23.003,7.003 23.002,7.003 					"/>
					<polyline fill="#A0A0A0" points="23.002,7.003 23.003,7.003 23.003,7.003 23.002,7.003 					"/>
					<polyline fill="#9C9C9C" points="23.002,7.003 23.003,7.003 23.003,7.003 23.002,7.003 					"/>
					<polyline fill="#999999" points="23.002,7.003 23.003,7.003 23.003,7.003 23.002,7.003 					"/>
					<polyline fill="#959595" points="23.002,7.003 23.003,7.003 23.003,7.003 23.002,7.003 					"/>
					<polyline fill="#919191" points="23.002,7.003 23.003,7.003 23.003,7.003 23.002,7.003 					"/>
					<polyline fill="#8E8E8E" points="23.002,7.003 23.003,7.003 23.003,7.003 23.002,7.003 					"/>
					<polyline fill="#8A8A8A" points="23.002,7.003 23.003,7.003 23.002,7.003 					"/>
				</g>
			</g>
			<g enable-background="new    ">
				<defs>
					<polygon id="SVGID_5_" enable-background="new    " points="6.997,23 6.984,22.999 6.997,22.995 					"/>
				</defs>
				<clipPath id="SVGID_6_">
					<use xlink:href="#SVGID_5_"  overflow="visible"/>
				</clipPath>
				<g clip-path="url(#SVGID_6_)" enable-background="new    ">
					<polyline fill="#D9D9D9" points="6.997,23 6.984,22.999 6.997,22.995 6.997,23 					"/>
					<g>
						<polyline fill="#D9D9D9" points="6.997,22.995 6.997,22.995 6.995,22.996 6.997,22.995 						"/>
						<polyline fill="#D9D9D9" points="6.984,22.999 6.995,22.996 6.995,22.996 6.996,23 6.99,22.999 6.984,22.999 						"/>
					</g>
					<g>
						<polyline fill="#D5D5D5" points="6.997,22.995 6.997,22.995 6.995,22.996 6.997,22.995 						"/>
						<polyline fill="#D5D5D5" points="6.984,22.999 6.99,22.998 6.99,22.998 6.99,22.999 6.984,22.999 6.984,22.999 						"/>
					</g>
					<g>
						<polyline fill="#D2D2D2" points="6.997,22.995 6.997,22.995 6.995,22.996 6.997,22.995 						"/>
						<polyline fill="#D2D2D2" points="6.984,22.999 6.985,22.999 6.985,22.999 6.984,22.999 						"/>
					</g>
					<polyline fill="#CECECE" points="6.997,22.995 6.997,22.995 6.995,22.996 6.997,22.995 					"/>
					<polyline fill="#CBCBCB" points="6.997,22.995 6.997,22.995 6.995,22.996 6.997,22.995 					"/>
					<polyline fill="#C7C7C7" points="6.997,22.995 6.997,22.995 6.995,22.995 6.997,22.995 					"/>
					<polyline fill="#C4C4C4" points="6.997,22.995 6.997,22.995 6.996,22.995 6.997,22.995 					"/>
					<polyline fill="#C0C0C0" points="6.997,22.995 6.997,22.995 6.996,22.995 6.997,22.995 					"/>
					<polyline fill="#BCBCBC" points="6.997,22.995 6.997,22.995 6.996,22.995 6.997,22.995 					"/>
					<polyline fill="#B9B9B9" points="6.997,22.995 6.997,22.995 6.996,22.995 6.997,22.995 					"/>
					<polyline fill="#B5B5B5" points="6.997,22.995 6.997,22.995 6.996,22.995 6.997,22.995 					"/>
					<polyline fill="#B2B2B2" points="6.997,22.995 6.997,22.995 6.996,22.995 6.997,22.995 					"/>
					<polyline fill="#AEAEAE" points="6.997,22.995 6.997,22.995 6.996,22.995 6.997,22.995 					"/>
					<polyline fill="#AAAAAA" points="6.997,22.995 6.997,22.995 6.996,22.995 6.997,22.995 					"/>
					<polyline fill="#A7A7A7" points="6.997,22.995 6.997,22.995 6.996,22.995 6.997,22.995 					"/>
					<polyline fill="#A3A3A3" points="6.997,22.995 6.997,22.995 6.996,22.995 6.997,22.995 					"/>
					<polyline fill="#A0A0A0" points="6.997,22.995 6.997,22.995 6.996,22.995 6.997,22.995 					"/>
					<polyline fill="#9C9C9C" points="6.997,22.995 6.997,22.995 6.996,22.995 6.997,22.995 					"/>
					<polyline fill="#999999" points="6.997,22.995 6.997,22.995 6.996,22.995 6.997,22.995 					"/>
					<polyline fill="#959595" points="6.997,22.995 6.997,22.995 6.997,22.995 					"/>
					<polyline fill="#919191" points="6.997,22.995 6.997,22.995 6.997,22.995 					"/>
					<polyline fill="#8E8E8E" points="6.997,22.995 6.997,22.995 6.997,22.995 					"/>
					<polyline fill="#8A8A8A" points="6.997,22.995 6.997,22.995 6.997,22.995 					"/>
				</g>
			</g>
			<g enable-background="new    ">
				<defs>
					<polygon id="SVGID_7_" enable-background="new    " points="23.002,22.994 23.017,22.999 23.002,23 					"/>
				</defs>
				<clipPath id="SVGID_8_">
					<use xlink:href="#SVGID_7_"  overflow="visible"/>
				</clipPath>
				<g clip-path="url(#SVGID_8_)" enable-background="new    ">
					<polyline fill="#DCDCDC" points="23.002,22.994 23.017,22.999 23.002,23 23.002,22.994 					"/>
					<g>
						<polyline fill="#DCDCDC" points="23.01,22.998 23.017,22.999 23.01,22.999 23.002,23 23.003,22.995 23.008,22.997 
							23.01,22.998 						"/>
						<polyline fill="#DCDCDC" points="23.004,22.995 23.003,22.995 23.002,22.994 23.004,22.995 						"/>
					</g>
					<g>
						<polyline fill="#D9D9D9" points="23.01,22.998 23.017,22.999 23.01,22.999 23.003,23 23.004,22.999 23.007,22.996 
							23.01,22.998 						"/>
						<polyline fill="#D9D9D9" points="23.004,22.995 23.003,22.995 23.002,22.994 23.004,22.995 						"/>
					</g>
					<g>
						<polyline fill="#D5D5D5" points="23.017,22.999 23.009,22.999 23.009,22.999 23.01,22.998 23.017,22.999 						"/>
						<polyline fill="#D5D5D5" points="23.004,22.995 23.003,22.995 23.002,22.994 23.004,22.995 						"/>
					</g>
					<g>
						<polyline fill="#D2D2D2" points="23.017,22.999 23.015,22.999 23.015,22.999 23.017,22.999 						"/>
						<polyline fill="#D2D2D2" points="23.004,22.995 23.003,22.995 23.002,22.994 23.004,22.995 						"/>
					</g>
					<polyline fill="#CECECE" points="23.004,22.995 23.003,22.995 23.002,22.994 23.004,22.995 					"/>
					<polyline fill="#CBCBCB" points="23.004,22.995 23.003,22.995 23.002,22.994 23.004,22.995 					"/>
					<polyline fill="#C7C7C7" points="23.004,22.995 23.003,22.995 23.002,22.994 23.004,22.995 					"/>
					<polyline fill="#C4C4C4" points="23.004,22.995 23.003,22.995 23.002,22.994 23.004,22.995 					"/>
					<polyline fill="#C0C0C0" points="23.004,22.995 23.003,22.995 23.002,22.994 23.004,22.995 					"/>
					<polyline fill="#BCBCBC" points="23.004,22.995 23.003,22.995 23.002,22.994 23.004,22.995 					"/>
					<polyline fill="#B9B9B9" points="23.003,22.995 23.003,22.995 23.002,22.994 23.003,22.995 					"/>
					<polyline fill="#B5B5B5" points="23.003,22.995 23.003,22.995 23.002,22.994 23.003,22.995 					"/>
					<polyline fill="#B2B2B2" points="23.003,22.995 23.003,22.995 23.002,22.994 23.003,22.995 					"/>
					<polyline fill="#AEAEAE" points="23.003,22.995 23.003,22.994 23.002,22.994 23.003,22.995 					"/>
					<polyline fill="#AAAAAA" points="23.003,22.995 23.003,22.994 23.002,22.994 23.003,22.995 					"/>
					<polyline fill="#A7A7A7" points="23.003,22.995 23.003,22.994 23.002,22.994 23.003,22.995 					"/>
					<polyline fill="#A3A3A3" points="23.003,22.995 23.003,22.994 23.002,22.994 23.003,22.995 					"/>
					<polyline fill="#A0A0A0" points="23.003,22.995 23.003,22.994 23.002,22.994 23.003,22.995 					"/>
					<polyline fill="#9C9C9C" points="23.003,22.995 23.003,22.994 23.002,22.994 23.003,22.995 					"/>
					<polyline fill="#999999" points="23.003,22.995 23.003,22.994 23.002,22.994 23.003,22.995 					"/>
					<polyline fill="#959595" points="23.003,22.995 23.002,22.994 23.003,22.995 					"/>
					<polyline fill="#919191" points="23.003,22.995 23.002,22.994 23.003,22.995 					"/>
					<polyline fill="#8E8E8E" points="23.003,22.995 23.002,22.994 23.003,22.995 					"/>
					<polyline fill="#8A8A8A" points="23.003,22.994 23.002,22.994 23.003,22.994 					"/>
				</g>
			</g>
			<g>
				<path fill="#898989" d="M7.003,4h15.993H7.003z"/>
			</g>
			<g enable-background="new    ">
				<defs>
					<path id="SVGID_9_" enable-background="new    " d="M23.002,22.994c0.005,0.003,0.01,0.004,0.015,0.005
						c-0.004,0-0.011,0-0.015,0.001c1.657,0,3,0,3,0c0,1.656-1.351,2.997-3.007,2.997c0,0,0-1.343,0-3
						C22.998,22.998,23.001,22.994,23.002,22.994z"/>
				</defs>
				<clipPath id="SVGID_10_">
					<use xlink:href="#SVGID_9_"  overflow="visible"/>
				</clipPath>
				<g clip-path="url(#SVGID_10_)" enable-background="new    ">
					<path fill="#E2E2E2" d="M23.002,22.994c1.657,0.006,3,0.006,3,0.006c0,1.656-1.351,2.997-3.007,2.997c0,0,0-1.343,0-3
						C22.998,22.998,23.001,22.994,23.002,22.994"/>
					<path fill="#E2E2E2" d="M22.996,22.997l0.011-0.001l0.004,0.002l0.003,0.001h0.004H23.01C23.174,23,23.342,23,23.505,23
						L23.509,23L23.531,23c1.405,0,2.472,0,2.472,0c0,1.656-1.351,2.997-3.007,2.997C22.996,25.997,22.996,24.654,22.996,22.997"/>
					<path fill="#E2E2E2" d="M22.996,22.997l0.011-0.001l0.004,0.002l0.003,0.001h0.004H23.01C23.137,23,23.27,23,23.4,23
						l0.01,0.003c0.152,0.025,0.179,0.02,0.294-0.003c1.318,0,2.299,0,2.299,0c0,1.656-1.351,2.997-3.007,2.997
						C22.996,25.997,22.996,24.654,22.996,22.997"/>
					<path fill="#E1E1E1" d="M22.996,22.997l0.011-0.001l0.004,0.002l0.003,0.001h0.004H23.01C23.117,23,23.229,23,23.34,23
						l0.063,0.02c0.136,0.027,0.204,0.041,0.362-0.02c1.287,0,2.236,0,2.236,0c0,1.656-1.351,2.997-3.007,2.997
						C22.996,25.997,22.996,24.654,22.996,22.997"/>
					<path fill="#E1E1E1" d="M22.996,22.997l0.011-0.001l0.004,0.002l0.003,0.001h0.004H23.01C23.099,23,23.195,23,23.29,23
						l0.02,0.009c0.166,0.051,0.322,0.099,0.514-0.009c1.259,0,2.18,0,2.18,0c0,1.656-1.351,2.997-3.007,2.997
						C22.996,25.997,22.996,24.654,22.996,22.997"/>
					<path fill="#E0E0E0" d="M22.996,22.997l0.011-0.001l0.004,0.002l0.003,0.001h0.004H23.01C23.085,23,23.167,23,23.248,23
						l0.03,0.014c0.296,0.153,0.513,0.032,0.595-0.014c1.232,0,2.13,0,2.13,0c0,1.656-1.351,2.997-3.007,2.997
						C22.996,25.997,22.996,24.654,22.996,22.997"/>
					<path fill="#E0E0E0" d="M22.996,22.997l0.011-0.001l0.004,0.002l0.003,0.001h0.004H23.01C23.071,23,23.139,23,23.207,23
						L23.208,23c0.207,0.093,0.441,0.198,0.713-0.001c1.208,0,2.082,0,2.082,0c0,1.656-1.351,2.997-3.007,2.997
						C22.996,25.997,22.996,24.654,22.996,22.997"/>
					<path fill="#DFDFDF" d="M22.996,22.997l0.011-0.001l0.004,0.002l0.003,0.001h0.004H23.01C23.059,23,23.115,23,23.17,23
						l0.03,0.009c0.015,0.013,0.364,0.292,0.767-0.009c1.184,0,2.035,0,2.035,0c0,1.656-1.351,2.997-3.007,2.997
						C22.996,25.997,22.996,24.654,22.996,22.997"/>
					<path fill="#DEDEDE" d="M22.996,22.997l0.011-0.001l0.004,0.002l0.003,0.001h0.004H23.01C23.046,23,23.09,23,23.134,23
						l0.053,0.009c0.043,0.079,0.462,0.313,0.828-0.009c1.159,0,1.987,0,1.987,0c0,1.656-1.351,2.997-3.007,2.997
						C22.996,25.997,22.996,24.654,22.996,22.997"/>
					<path fill="#DEDEDE" d="M22.996,22.997l0.011-0.001l0.004,0.002l0.003,0.001h0.004H23.01C23.037,23,23.071,23,23.105,23h0.001
						c0.02,0.002,0.05-0.004,0.066,0.008c0.043,0.028,0.061,0.083,0.109,0.105c0.159,0.071,0.266,0.076,0.294,0.076
						c0.201-0.002,0.342-0.057,0.488-0.189c1.133,0,1.938,0,1.938,0c0,1.656-1.351,2.997-3.007,2.997
						C22.996,25.997,22.996,24.654,22.996,22.997"/>
					<path fill="#DDDDDD" d="M22.996,22.997l0.011-0.001l0.004,0.002l0.003,0.001h0.004H23.01C23.036,23,23.069,23,23.101,23
						L23.106,23c0.016,0.002,0.039-0.003,0.053,0.006c0.028,0.019,0.012,0.054,0.028,0.077c0.023,0.033,0.507,0.33,0.929-0.084
						c1.105,0,1.887,0,1.887,0c0,1.656-1.351,2.997-3.007,2.997C22.996,25.997,22.996,24.654,22.996,22.997"/>
					<path fill="#DCDCDC" d="M22.996,23.004v-0.008l0.011-0.001l0.004,0.002l0.003,0.001h0.004H23.01C23.035,23,23.066,23,23.097,23
						l0.009,0.002c0.012,0.001,0.029-0.002,0.039,0.004c0.007,0.005,0.027,0.062,0.025,0.069c-0.007,0.023-0.012,0.039,0.09,0.086
						c0.184,0.085,0.273,0.085,0.399,0.084c0.047-0.001,0.293-0.014,0.509-0.245c1.078,0,1.834,0,1.834,0
						c0,1.656-1.351,2.997-3.007,2.997C22.996,25.997,22.996,24.658,22.996,23.004"/>
					<path fill="#D9D9D9" d="M22.996,23.033c0.002-0.005,0.009-0.009,0.014-0.01c0.068-0.016,0.081,0.058,0.12,0.088
						c0.157,0.125,0.662,0.348,1.101-0.111c1.045,0,1.772,0,1.772,0c0,1.656-1.351,2.997-3.007,2.997
						C22.996,25.997,22.996,24.673,22.996,23.033"/>
					<path fill="#D5D5D5" d="M22.996,23.061c0.368,0.204,0.827,0.457,1.303-0.062c1.008,0,1.704,0,1.704,0
						c0,1.656-1.351,2.997-3.007,2.997C22.996,25.997,22.996,24.688,22.996,23.061"/>
					<path fill="#D2D2D2" d="M22.996,23.088c0.106,0.136,0.807,0.544,1.381-0.089c0.966,0,1.626,0,1.626,0
						c0,1.656-1.351,2.997-3.007,2.997C22.996,25.997,22.996,24.704,22.996,23.088"/>
					<path fill="#CECECE" d="M22.996,23.127C23.051,23.23,23.82,23.702,24.47,23c0.915,0,1.532,0,1.532,0
						c0,1.656-1.351,2.997-3.007,2.997C22.996,25.997,22.996,24.724,22.996,23.127"/>
					<path fill="#CBCBCB" d="M22.996,23.172c0.134,0.164,0.9,0.552,1.587-0.173c0.853,0,1.42,0,1.42,0
						c0,1.656-1.351,2.997-3.007,2.997C22.996,25.997,22.996,24.748,22.996,23.172"/>
					<path fill="#C7C7C7" d="M22.996,23.218c0.258,0.279,1.097,0.455,1.717-0.219c0.779,0,1.29,0,1.29,0
						c0,1.656-1.351,2.997-3.007,2.997C22.996,25.997,22.996,24.772,22.996,23.218"/>
					<path fill="#C4C4C4" d="M22.996,23.269c0.364,0.351,1.302,0.392,1.853-0.27c0.702,0,1.154,0,1.154,0
						c0,1.656-1.351,2.997-3.007,2.997C22.996,25.997,22.996,24.798,22.996,23.269"/>
					<path fill="#C0C0C0" d="M22.996,23.322c0.283,0.274,1.328,0.502,1.984-0.322c0.627,0,1.022,0,1.022,0
						c0,1.656-1.351,2.997-3.007,2.997C22.996,25.997,22.996,24.826,22.996,23.322"/>
					<path fill="#BCBCBC" d="M22.996,23.379c0.405,0.339,1.541,0.455,2.106-0.38c0.556,0,0.9,0,0.9,0
						c0,1.656-1.351,2.997-3.007,2.997C22.996,25.997,22.996,24.856,22.996,23.379"/>
					<path fill="#B9B9B9" d="M22.996,23.443c0.464,0.385,1.692,0.461,2.222-0.443c0.487,0,0.785,0,0.785,0
						c0,1.656-1.351,2.997-3.007,2.997C22.996,25.997,22.996,24.888,22.996,23.443"/>
					<path fill="#B5B5B5" d="M22.996,23.512C23.5,23.921,24.83,23.987,25.324,23c0.424,0,0.679,0,0.679,0
						c0,1.656-1.351,2.997-3.007,2.997C22.996,25.997,22.996,24.923,22.996,23.512"/>
					<path fill="#B2B2B2" d="M22.996,23.589c0.558,0.396,1.883,0.541,2.427-0.59c0.364,0,0.58,0,0.58,0
						c0,1.656-1.351,2.997-3.007,2.997C22.996,25.997,22.996,24.962,22.996,23.589"/>
					<path fill="#AEAEAE" d="M22.996,23.675c0.814,0.536,2.093,0.357,2.52-0.676c0.308,0,0.487,0,0.487,0
						c0,1.656-1.351,2.997-3.007,2.997C22.996,25.997,22.996,25.005,22.996,23.675"/>
					<path fill="#AAAAAA" d="M22.996,23.767c0.887,0.552,2.217,0.336,2.605-0.768c0.255,0,0.401,0,0.401,0
						c0,1.656-1.351,2.997-3.007,2.997C22.996,25.997,22.996,25.05,22.996,23.767"/>
					<path fill="#A7A7A7" d="M22.996,23.865c0.939,0.561,2.272,0.344,2.685-0.865c0.206,0,0.322,0,0.322,0
						c0,1.656-1.351,2.997-3.007,2.997C22.996,25.997,22.996,25.098,22.996,23.865"/>
					<path fill="#A3A3A3" d="M22.996,23.966c1.008,0.585,2.4,0.296,2.757-0.967c0.161,0,0.25,0,0.25,0
						c0,1.656-1.351,2.997-3.007,2.997C22.996,25.997,22.996,25.147,22.996,23.966"/>
					<path fill="#A0A0A0" d="M22.996,24.071c1.055,0.584,2.518,0.243,2.822-1.071c0.119,0,0.185,0,0.185,0
						c0,1.656-1.351,2.997-3.007,2.997C22.996,25.997,22.996,25.197,22.996,24.071"/>
					<path fill="#9C9C9C" d="M22.996,24.179c1.123,0.593,2.626,0.207,2.88-1.18c0.083,0,0.127,0,0.127,0
						c0,1.656-1.351,2.997-3.007,2.997C22.996,25.997,22.996,25.248,22.996,24.179"/>
					<path fill="#999999" d="M22.996,24.292c1.32,0.658,2.743,0.03,2.93-1.292c0.051,0,0.077,0,0.077,0
						c0,1.656-1.351,2.997-3.007,2.997C22.996,25.997,22.996,25.3,22.996,24.292"/>
					<path fill="#959595" d="M22.996,24.409c1.245,0.608,2.813,0.126,2.968-1.409c0.025,0,0.039,0,0.039,0
						c0,1.656-1.351,2.997-3.007,2.997C22.996,25.997,22.996,25.354,22.996,24.409"/>
					<path fill="#919191" d="M22.996,24.533c1.445,0.67,2.901-0.075,2.995-1.533c0.012,1.656-1.339,2.997-2.995,2.997
						C22.996,25.997,22.996,25.41,22.996,24.533"/>
					<path fill="#8E8E8E" d="M22.996,24.667c1.345,0.611,2.951,0.017,3.007-1.667c0,1.656-1.351,2.997-3.007,2.997
						C22.996,25.997,22.996,25.468,22.996,24.667"/>
					<path fill="#8A8A8A" d="M22.996,24.814c1.259,0.54,2.758,0.098,2.981-1.421c-0.194,1.47-1.459,2.604-2.981,2.604
						C22.996,25.997,22.996,25.533,22.996,24.814"/>
					<path fill="#878787" d="M22.996,24.984c1.285,0.514,2.525,0.025,2.885-1.137c-0.368,1.243-1.522,2.149-2.885,2.149
						C22.996,25.997,22.996,25.605,22.996,24.984"/>
					<path fill="#838383" d="M22.996,25.195c0.03-0.021,0.081,0.029,0.115,0.042c0.605,0.219,1.922,0.315,2.568-0.886
						c-0.496,0.977-1.514,1.646-2.684,1.646C22.996,25.997,22.996,25.693,22.996,25.195"/>
					<path fill="#D9D9D9" d="M23.002,22.994c0.003,0.002,0.005,0.003,0.008,0.004l0.003,0.001h0.004H23.01
						c-0.003,0-0.006,0.001-0.008,0.001c0.03,0,0.062,0,0.092,0l0.012,0.003c0.007,0.001,0.019-0.001,0.024,0.003
						c0.007,0.004,0.026,0.056,0.023,0.062C23.139,23.093,23.003,22.996,23.002,22.994C23.002,22.994,23.002,22.994,23.002,22.994"
						/>
					<path fill="#D5D5D5" d="M23.002,22.994c0.003,0.002,0.005,0.003,0.008,0.004l0.003,0.001h0.004H23.01
						c-0.003,0-0.006,0.001-0.008,0.001c0.029,0,0.059,0,0.088,0l0.016,0.004c0.003,0,0.008-0.001,0.011,0.001
						c0.006,0.004,0.023,0.051,0.021,0.055C23.128,23.069,23.124,23.066,23.002,22.994L23.002,22.994"/>
					<path fill="#D2D2D2" d="M23.002,22.994c0.003,0.002,0.005,0.003,0.008,0.004l0.003,0.001h0.004H23.01
						c-0.003,0-0.006,0.001-0.008,0.001c0.028,0,0.057,0,0.084,0l0.019,0.004c0.003,0.017,0.013,0.031,0.016,0.048
						C23.077,23.041,23.041,23.015,23.002,22.994L23.002,22.994"/>
					<path fill="#CECECE" d="M23.002,22.994c0.003,0.002,0.005,0.003,0.008,0.004l0.003,0.001h0.004H23.01
						c-0.003,0-0.006,0.001-0.008,0.001c0.027,0,0.054,0,0.08,0l0.018,0.004c0.003,0.013,0.002,0.026,0.004,0.039
						C23.067,23.034,23.036,23.012,23.002,22.994L23.002,22.994"/>
					<path fill="#CBCBCB" d="M23.002,22.994c0.003,0.002,0.005,0.003,0.008,0.004l0.003,0.001h0.004H23.01
						c-0.003,0-0.006,0.001-0.008,0.001c0.025,0,0.052,0,0.077,0l0.017,0.004c0.002,0.012,0.01,0.023-0.003,0.034
						C23.072,23.058,23.029,23.008,23.002,22.994L23.002,22.994"/>
					<path fill="#C7C7C7" d="M23.002,22.994c0.003,0.002,0.005,0.003,0.008,0.004l0.003,0.001h0.004H23.01
						c-0.003,0-0.006,0.001-0.008,0.001c0.024,0,0.049,0,0.073,0l0.016,0.004c0.002,0.011,0.01,0.022-0.002,0.032
						C23.068,23.055,23.028,23.008,23.002,22.994L23.002,22.994"/>
					<path fill="#C4C4C4" d="M23.002,22.994c0.003,0.002,0.005,0.003,0.008,0.004l0.003,0.001h0.004H23.01
						c-0.003,0-0.006,0.001-0.008,0.001c0.023,0,0.047,0,0.069,0l0.016,0.003c0.002,0.011,0.009,0.021-0.002,0.031
						C23.065,23.052,23.027,23.007,23.002,22.994L23.002,22.994"/>
					<path fill="#C0C0C0" d="M23.002,22.994c0.003,0.002,0.005,0.003,0.008,0.004l0.003,0.001h0.004H23.01
						c-0.003,0-0.006,0.001-0.008,0.001c0.022,0,0.044,0,0.065,0l0.015,0.003c0.002,0.01,0.009,0.021-0.002,0.029
						C23.061,23.049,23.026,23.006,23.002,22.994L23.002,22.994"/>
					<path fill="#BCBCBC" d="M23.002,22.994c0.003,0.002,0.005,0.003,0.008,0.004l0.003,0.001h0.004H23.01
						c-0.003,0-0.006,0.001-0.008,0.001c0.021,0,0.042,0,0.063,0l0.014,0.003c0.001,0.009,0.007,0.019-0.002,0.027
						C23.058,23.046,23.024,23.005,23.002,22.994L23.002,22.994"/>
					<path fill="#B9B9B9" d="M23.002,22.994c0.003,0.002,0.005,0.003,0.008,0.004l0.003,0.001h0.004H23.01
						c-0.003,0-0.006,0.001-0.008,0.001c0.02,0,0.039,0,0.059,0l0.013,0.003c0.002,0.009,0.008,0.018-0.002,0.025
						C23.055,23.043,23.023,23.005,23.002,22.994L23.002,22.994"/>
					<path fill="#B5B5B5" d="M23.002,22.994c0.003,0.002,0.005,0.003,0.008,0.004l0.003,0.001h0.004H23.01
						c-0.003,0-0.006,0.001-0.008,0.001c0.019,0,0.037,0,0.055,0l0.013,0.002c0.001,0.009,0.006,0.017-0.002,0.024
						C23.051,23.041,23.022,23.004,23.002,22.994L23.002,22.994"/>
					<path fill="#B2B2B2" d="M23.002,22.994c0.003,0.002,0.005,0.003,0.008,0.004l0.003,0.001h0.004H23.01
						c-0.003,0-0.006,0.001-0.008,0.001c0.018,0,0.034,0,0.052,0l0.011,0.002c0.002,0.008,0.007,0.016-0.001,0.022
						C23.048,23.037,23.021,23.003,23.002,22.994L23.002,22.994"/>
					<path fill="#AEAEAE" d="M23.002,22.994c0.003,0.002,0.005,0.003,0.008,0.004l0.003,0.001h0.004H23.01
						c-0.003,0-0.006,0.001-0.008,0.001c0.016,0,0.032,0,0.048,0l0.01,0.002c0.002,0.007,0.006,0.014-0.001,0.02
						C23.045,23.034,23.019,23.003,23.002,22.994L23.002,22.994"/>
					<path fill="#AAAAAA" d="M23.002,22.994c0.003,0.002,0.005,0.003,0.008,0.004l0.003,0.001h0.004H23.01
						c-0.003,0-0.006,0.001-0.008,0.001c0.015,0,0.029,0,0.044,0l0.01,0.002c0.002,0.006,0.005,0.013-0.001,0.018
						C23.042,23.031,23.018,23.002,23.002,22.994L23.002,22.994"/>
					<path fill="#A7A7A7" d="M23.002,22.994c0.003,0.002,0.005,0.003,0.008,0.004l0.003,0.001h0.004H23.01
						c-0.003,0-0.006,0.001-0.008,0.001c0.014,0,0.027,0,0.04,0l0.009,0.002c0.002,0.005,0.005,0.011-0.001,0.016
						C23.039,23.028,23.017,23.001,23.002,22.994L23.002,22.994"/>
					<path fill="#A3A3A3" d="M23.002,22.994c0.003,0.002,0.005,0.003,0.008,0.004l0.003,0.001h0.004H23.01
						c-0.003,0-0.006,0.001-0.008,0.001c0.013,0,0.024,0,0.037,0L23.047,23c0.002,0.005,0.004,0.011-0.001,0.015
						C23.036,23.025,23.015,23.001,23.002,22.994L23.002,22.994"/>
					<path fill="#A0A0A0" d="M23.002,22.994c0.002,0.003,0.005,0.003,0.008,0.004l0.003,0.001h0.004H23.01
						c-0.003,0-0.006,0.001-0.008,0.001c0.011,0,0.022,0,0.033,0L23.042,23c0.002,0.004,0.004,0.009,0,0.013
						C23.032,23.022,23.014,23,23.002,22.994L23.002,22.994"/>
					<path fill="#9C9C9C" d="M23.002,22.994c0.003,0.002,0.005,0.003,0.008,0.004l0.003,0.001h0.004H23.01
						c-0.003,0-0.006,0.001-0.008,0.001c0.01,0,0.02,0,0.029,0L23.039,23c0.001,0.004,0.003,0.007-0.001,0.011
						C23.029,23.018,23.013,23,23.002,22.994L23.002,22.994"/>
					<path fill="#999999" d="M23.002,22.994c0.003,0.002,0.005,0.003,0.008,0.004l0.003,0.001h0.004H23.01
						c-0.003,0-0.006,0.001-0.008,0.001c0.009,0,0.018,0,0.025,0L23.034,23c0.002,0.003,0.003,0.006,0,0.009
						C23.025,23.015,23.011,22.999,23.002,22.994L23.002,22.994"/>
					<path fill="#959595" d="M23.002,22.994c0.003,0.002,0.005,0.003,0.008,0.004l0.003,0.001h0.004H23.01
						c-0.003,0-0.006,0.001-0.008,0.001c0.007,0,0.015,0,0.022,0h0.005c0.001,0.003,0.002,0.005-0.001,0.007
						C23.022,23.012,23.01,22.999,23.002,22.994L23.002,22.994"/>
					<path fill="#919191" d="M23.002,22.994c0.003,0.002,0.005,0.003,0.008,0.004l0.003,0.001h0.004H23.01
						c-0.003,0-0.006,0.001-0.008,0.001c0.006,0,0.013,0,0.019,0l0,0c0.003,0,0.006,0.004,0.004,0.005
						C23.019,23.009,23.009,22.998,23.002,22.994L23.002,22.994"/>
					<path fill="#8E8E8E" d="M23.002,22.994c0.003,0.002,0.005,0.003,0.008,0.004l0.003,0.001h0.004H23.01
						c-0.003,0-0.006,0.001-0.008,0.001c0.005,0,0.01,0,0.015,0h0.004c0.001,0,0.001,0.002-0.001,0.003
						C23.015,23.006,23.008,22.997,23.002,22.994L23.002,22.994"/>
					<g>
						<polyline fill="#8A8A8A" points="23.002,23 23.013,23 23.016,23 23.017,22.999 23.002,23 						"/>
						<polyline fill="#8A8A8A" points="23.002,22.994 23.01,22.998 23.013,22.999 23.017,22.999 23.017,22.999 23.016,23 
							23.002,22.994 23.002,22.994 						"/>
					</g>
					<g>
						<polyline fill="#878787" points="23.002,23 23.009,23 23.011,22.999 23.012,22.999 23.004,23 23.002,23 						"/>
						<polyline fill="#878787" points="23.002,22.994 23.01,22.998 23.012,22.998 23.012,22.998 23.002,22.994 23.002,22.994 						
							"/>
					</g>
					<g>
						<polyline fill="#838383" points="23.002,23 23.006,23 23.007,22.999 23.002,23 						"/>
						<polyline fill="#838383" points="23.002,22.994 23.007,22.997 23.007,22.997 23.002,22.994 						"/>
					</g>
				</g>
			</g>
			<g enable-background="new    ">
				<defs>
					<path id="SVGID_11_" enable-background="new    " d="M23.002,6.998c1.657,0,3,0,3,0V23c0,0-1.343,0-3,0V6.998z"/>
				</defs>
				<clipPath id="SVGID_12_">
					<use xlink:href="#SVGID_11_"  overflow="visible"/>
				</clipPath>
				<g clip-path="url(#SVGID_12_)" enable-background="new    ">
					<path fill="#DCDCDC" d="M23.002,23V6.998c0.011,0,0.022,0,0.033,0V23C23.025,23,23.013,23,23.002,23"/>
					<path fill="#DDDDDD" d="M23.036,23V6.998c0.013,0,0.024,0,0.037,0V23C23.06,23,23.048,23,23.036,23"/>
					<path fill="#DEDEDE" d="M23.073,23V6.998c0.012,0,0.023,0,0.036,0V23C23.096,23,23.084,23,23.073,23"/>
					<path fill="#DEDEDE" d="M23.109,23V6.998c0.012,0,0.024,0,0.036,0V23C23.133,23,23.121,23,23.109,23"/>
					<path fill="#DFDFDF" d="M23.145,23V6.998c0.012,0,0.024,0,0.036,0V23C23.169,23,23.157,23,23.145,23"/>
					<path fill="#E0E0E0" d="M23.181,23V6.998c0.012,0,0.024,0,0.036,0V23C23.206,23,23.193,23,23.181,23"/>
					<path fill="#E0E0E0" d="M23.217,23V6.998c0.014,0,0.026,0,0.04,0V23C23.244,23,23.231,23,23.217,23"/>
					<path fill="#E1E1E1" d="M23.257,23V6.998c0.021,0,0.042,0,0.063,0V23C23.299,23,23.278,23,23.257,23"/>
					<path fill="#E1E1E1" d="M23.32,23V6.998c0.021,0,0.042,0,0.063,0V23C23.363,23,23.341,23,23.32,23"/>
					<path fill="#E2E2E2" d="M23.383,23V6.998c0.021,0,0.042,0,0.063,0V23C23.425,23,23.404,23,23.383,23"/>
					<path fill="#E2E2E2" d="M23.446,23V6.998c0.063,0,0.124,0,0.185,0V23C23.57,23,23.508,23,23.446,23"/>
					<path fill="#E2E2E2" d="M23.63,23V6.998c0.041,0,0.082,0,0.122,0V23C23.712,23,23.671,23,23.63,23"/>
					<path fill="#E1E1E1" d="M23.752,23V6.998c0.018,0,0.035,0,0.053,0V23C23.788,23,23.77,23,23.752,23"/>
					<path fill="#E1E1E1" d="M23.805,23V6.998c0.019,0,0.036,0,0.054,0V23C23.841,23,23.824,23,23.805,23"/>
					<path fill="#E0E0E0" d="M23.859,23V6.998c0.018,0,0.035,0,0.053,0V23C23.894,23,23.876,23,23.859,23"/>
					<path fill="#E0E0E0" d="M23.912,23V6.998c0.017,0,0.034,0,0.052,0V23C23.946,23,23.928,23,23.912,23"/>
					<path fill="#DFDFDF" d="M23.963,23V6.998c0.017,0,0.034,0,0.051,0V23C23.998,23,23.98,23,23.963,23"/>
					<path fill="#DEDEDE" d="M24.014,23V6.998c0.018,0,0.034,0,0.051,0V23C24.048,23,24.032,23,24.014,23"/>
					<path fill="#DEDEDE" d="M24.065,23V6.998c0.018,0,0.034,0,0.051,0V23C24.099,23,24.083,23,24.065,23"/>
					<path fill="#DDDDDD" d="M24.116,23V6.998c0.017,0,0.033,0,0.05,0V23C24.149,23,24.132,23,24.116,23"/>
					<path fill="#DCDCDC" d="M24.166,23V6.998c0.023,0,0.046,0,0.069,0V23C24.211,23,24.189,23,24.166,23"/>
					<path fill="#D9D9D9" d="M24.235,23V6.998c0.023,0,0.047,0,0.07,0V23C24.282,23,24.258,23,24.235,23"/>
					<path fill="#D5D5D5" d="M24.305,23V6.998c0.022,0,0.046,0,0.068,0V23C24.351,23,24.328,23,24.305,23"/>
					<path fill="#D2D2D2" d="M24.374,23V6.998c0.035,0,0.068,0,0.103,0V23C24.442,23,24.409,23,24.374,23"/>
					<path fill="#CECECE" d="M24.476,23V6.998c0.035,0,0.069,0,0.104,0V23C24.545,23,24.511,23,24.476,23"/>
					<path fill="#CBCBCB" d="M24.58,23V6.998c0.045,0,0.09,0,0.133,0V23C24.669,23,24.625,23,24.58,23"/>
					<path fill="#C7C7C7" d="M24.712,23V6.998c0.046,0,0.09,0,0.134,0V23C24.802,23,24.758,23,24.712,23"/>
					<path fill="#C4C4C4" d="M24.846,23V6.998c0.045,0,0.089,0,0.132,0V23C24.935,23,24.891,23,24.846,23"/>
					<path fill="#C0C0C0" d="M24.978,23V6.998c0.042,0,0.083,0,0.123,0V23C25.061,23,25.02,23,24.978,23"/>
					<path fill="#BCBCBC" d="M25.101,23V6.998c0.039,0,0.077,0,0.114,0V23C25.178,23,25.14,23,25.101,23"/>
					<path fill="#B9B9B9" d="M25.215,23V6.998c0.037,0,0.073,0,0.107,0V23C25.289,23,25.252,23,25.215,23"/>
					<path fill="#B5B5B5" d="M25.323,23V6.998c0.034,0,0.067,0,0.1,0V23C25.39,23,25.357,23,25.323,23"/>
					<path fill="#B2B2B2" d="M25.422,23V6.998c0.031,0,0.063,0,0.092,0V23C25.485,23,25.454,23,25.422,23"/>
					<path fill="#AEAEAE" d="M25.514,23V6.998c0.03,0,0.06,0,0.087,0V23C25.574,23,25.544,23,25.514,23"/>
					<path fill="#AAAAAA" d="M25.601,23V6.998c0.027,0,0.054,0,0.079,0V23C25.655,23,25.628,23,25.601,23"/>
					<path fill="#A7A7A7" d="M25.68,23V6.998c0.025,0,0.05,0,0.072,0V23C25.73,23,25.706,23,25.68,23"/>
					<path fill="#A3A3A3" d="M25.752,23V6.998c0.023,0,0.046,0,0.066,0V23C25.798,23,25.776,23,25.752,23"/>
					<path fill="#A0A0A0" d="M25.819,23V6.998c0.021,0,0.04,0,0.058,0V23C25.859,23,25.839,23,25.819,23"/>
					<path fill="#9C9C9C" d="M25.876,23V6.998c0.018,0,0.034,0,0.049,0V23C25.911,23,25.894,23,25.876,23"/>
					<path fill="#999999" d="M25.925,23V6.998c0.015,0,0.027,0,0.038,0V23C25.953,23,25.94,23,25.925,23"/>
					<path fill="#959595" d="M25.963,23V6.998c0.012,0,0.021,0,0.027,0V23C25.984,23,25.975,23,25.963,23"/>
					<path fill="#919191" d="M25.991,23V6.998c0.007,0,0.011,0,0.012,0V23C26.001,23,25.998,23,25.991,23"/>
					<polyline fill="#8E8E8E" points="26.002,23 26.002,6.998 26.002,6.998 26.002,23 26.002,23 					"/>
				</g>
			</g>
			<g enable-background="new    ">
				<defs>
					<path id="SVGID_13_" enable-background="new    " d="M6.997,7.003C6.992,7,6.987,6.999,6.982,6.998c0.004,0,0.01,0,0.015,0
						c-1.657,0-3,0-3,0C3.997,5.342,5.347,4,7.003,4c0,0,0,1.343,0,3C7.002,6.999,6.998,7.003,6.997,7.003z"/>
				</defs>
				<clipPath id="SVGID_14_">
					<use xlink:href="#SVGID_13_"  overflow="visible"/>
				</clipPath>
				<g clip-path="url(#SVGID_14_)" enable-background="new    ">
					<path fill="#E2E2E2" d="M6.997,7.003c-1.657-0.005-3-0.005-3-0.005C3.997,5.342,5.347,4,7.003,4c0,0,0,1.343,0,3
						C7.002,6.999,6.998,7.003,6.997,7.003"/>
					<path fill="#E2E2E2" d="M7.003,7L6.991,7l0.006,0.003L6.994,7.001L6.99,7L6.986,6.999C5.34,6.998,3.997,6.998,3.997,6.998
						C3.997,5.342,5.347,4,7.003,4C7.003,4,7.003,5.343,7.003,7"/>
					<path fill="#E1E1E1" d="M7.003,7L6.984,6.996l0.013,0.007L6.994,7.001L6.99,7L6.986,6.999C5.34,6.998,3.997,6.998,3.997,6.998
						C3.997,5.342,5.347,4,7.003,4C7.003,4,7.003,5.343,7.003,7"/>
					<path fill="#E1E1E1" d="M7.003,7L6.977,6.992l0.02,0.011L6.994,7.001L6.99,7L6.986,6.999C5.34,6.998,3.997,6.998,3.997,6.998
						C3.997,5.342,5.347,4,7.003,4C7.003,4,7.003,5.343,7.003,7"/>
					<path fill="#E0E0E0" d="M7.003,6.421c-0.009,0.153-0.009,0.153,0,0.205c0,0.123,0,0.248,0,0.375
						C6.993,6.997,6.98,6.992,6.97,6.988l0.027,0.015L6.994,7.001L6.99,7L6.986,6.999C5.34,6.998,3.997,6.998,3.997,6.998
						C3.997,5.342,5.347,4,7.003,4C7.003,4,7.003,5.041,7.003,6.421"/>
					<path fill="#E0E0E0" d="M7.003,6.325c-0.039,0.271-0.039,0.271,0,0.392c0,0.094,0,0.188,0,0.284
						c-0.012-0.005-0.028-0.011-0.04-0.016l0.034,0.019L6.994,7.001L6.99,7L6.986,6.999C5.34,6.998,3.997,6.998,3.997,6.998
						C3.997,5.342,5.347,4,7.003,4C7.003,4,7.003,4.993,7.003,6.325"/>
					<path fill="#DFDFDF" d="M7.003,6.255c-0.066,0.316-0.066,0.316,0,0.524c0,0.073,0,0.147,0,0.222
						C6.989,6.995,6.97,6.987,6.956,6.981l0.041,0.022L6.993,7.001L6.99,7L6.986,6.999C5.34,6.998,3.997,6.998,3.997,6.998
						C3.997,5.342,5.347,4,7.003,4C7.003,4,7.003,4.958,7.003,6.255"/>
					<path fill="#DEDEDE" d="M7.003,6.193c-0.095,0.429-0.095,0.429,0,0.637c0,0.057,0,0.114,0,0.171
						C6.987,6.994,6.965,6.984,6.949,6.977l0.048,0.026L6.993,7.001L6.99,7L6.986,6.999C5.34,6.998,3.997,6.998,3.997,6.998
						C3.997,5.342,5.347,4,7.003,4C7.003,4,7.003,4.928,7.003,6.193"/>
					<path fill="#DEDEDE" d="M7.003,6.136C6.97,6.26,6.895,6.372,6.895,6.505c0,0.134,0.073,0.248,0.108,0.372
						c0,0.041,0,0.082,0,0.124C6.985,6.992,6.96,6.981,6.942,6.973l0.055,0.03L6.993,7.001L6.99,7L6.986,6.999
						C5.34,6.998,3.997,6.998,3.997,6.998C3.997,5.342,5.347,4,7.003,4C7.003,4,7.003,4.9,7.003,6.136"/>
					<path fill="#DDDDDD" d="M7.003,6.08C6.957,6.223,6.868,6.354,6.868,6.512c0,0.046,0,0.046,0.135,0.397c0,0.03,0,0.061,0,0.092
						C6.982,6.991,6.956,6.979,6.935,6.969l0.062,0.033L6.993,7.001L6.99,7L6.986,6.999C5.34,6.998,3.997,6.998,3.997,6.998
						C3.997,5.342,5.347,4,7.003,4C7.003,4,7.003,4.873,7.003,6.08"/>
					<path fill="#DCDCDC" d="M7.003,6.024C6.977,6.102,6.91,6.156,6.885,6.234C6.84,6.369,6.84,6.442,6.84,6.52
						c0,0.123,0.081,0.371,0.163,0.408c0,0.024,0,0.048,0,0.072C6.999,7,6.994,7,6.99,6.999c-0.019-0.01-0.043-0.023-0.062-0.034
						c0.021,0.011,0.048,0.026,0.068,0.037L6.993,7.001L6.99,7L6.986,6.999C5.34,6.998,3.997,6.998,3.997,6.998
						C3.997,5.342,5.347,4,7.003,4C7.003,4,7.003,4.846,7.003,6.024"/>
					<path fill="#D9D9D9" d="M7.003,5.963C6.947,6.121,6.816,6.248,6.812,6.426C6.803,6.806,6.978,6.97,6.979,6.971
						C6.983,6.973,6.991,6.973,6.994,6.97C7,6.965,6.998,6.953,7.003,6.948c0,0.017,0,0.035,0,0.052
						C7,6.999,6.997,6.998,6.994,6.996c-0.02-0.012-0.041-0.021-0.061-0.032c0.019,0.011,0.044,0.027,0.063,0.038L6.993,7.001
						L6.99,7L6.986,6.999C5.34,6.998,3.997,6.998,3.997,6.998C3.997,5.342,5.347,4,7.003,4C7.003,4,7.003,4.817,7.003,5.963"/>
					<path fill="#D5D5D5" d="M7.003,5.9C7,5.909,6.988,5.916,6.982,5.923C6.917,5.997,6.805,6.157,6.783,6.402
						C6.766,6.583,6.766,6.583,6.908,6.943C6.902,6.941,6.893,6.938,6.887,6.936c0.032,0.022,0.077,0.047,0.109,0.066L6.993,7.001
						L6.99,7L6.986,6.999C5.34,6.998,3.997,6.998,3.997,6.998C3.997,5.342,5.347,4,7.003,4C7.003,4,7.003,4.787,7.003,5.9"/>
					<path fill="#D2D2D2" d="M7.003,5.831c-0.009,0.023-0.04,0.043-0.057,0.061c-0.042,0.045-0.198,0.271-0.2,0.561
						c-0.002,0.411,0.168,0.505,0.25,0.55L6.993,7.001L6.99,7L6.986,6.999C5.34,6.998,3.997,6.998,3.997,6.998
						C3.997,5.342,5.347,4,7.003,4C7.003,4,7.003,4.755,7.003,5.831"/>
					<path fill="#CECECE" d="M7.003,5.75C6.931,5.826,6.712,6.059,6.71,6.465C6.708,6.854,6.816,6.91,6.996,7.002L6.993,7.001
						L6.99,7L6.986,6.999C6.963,6.998,6.929,6.998,6.895,6.998H6.894H6.886c-1.605,0-2.889,0-2.889,0C3.997,5.342,5.347,4,7.003,4
						C7.003,4,7.003,4.717,7.003,5.75"/>
					<path fill="#CBCBCB" d="M7.003,5.657C6.992,5.684,6.957,5.705,6.937,5.726c-0.062,0.064-0.21,0.289-0.249,0.533
						c-0.066,0.417,0.107,0.68,0.11,0.681c0.065,0.024,0.135,0.032,0.198,0.063L6.993,7.001L6.99,7L6.986,6.999
						C6.964,6.998,6.932,6.998,6.899,6.998L6.894,6.997l-0.05,0.001c-1.586,0-2.847,0-2.847,0C3.997,5.342,5.347,4,7.003,4
						C7.003,4,7.003,4.674,7.003,5.657"/>
					<path fill="#C7C7C7" d="M7.003,5.545C6.999,5.555,6.986,5.563,6.979,5.57c-0.254,0.274-0.32,0.57-0.337,0.685
						C6.578,6.698,6.78,6.986,6.792,6.987c0.007,0,0.013-0.011,0.018-0.016c0.037-0.033,0.044-0.034,0.187,0.031L6.993,7.001L6.99,7
						L6.986,6.999c-0.02-0.001-0.051-0.001-0.082-0.001l-0.01-0.002L6.803,6.998c-1.567,0-2.806,0-2.806,0
						C3.997,5.342,5.347,4,7.003,4C7.003,4,7.003,4.624,7.003,5.545"/>
					<path fill="#C4C4C4" d="M7.003,5.417c-0.01,0.027-0.045,0.049-0.065,0.07C6.91,5.518,6.664,5.793,6.6,6.204
						C6.533,6.631,6.691,6.935,6.756,6.998c-1.544,0-2.759,0-2.759,0C3.997,5.342,5.347,4,7.003,4C7.003,4,7.003,4.567,7.003,5.417"
						/>
					<path fill="#C0C0C0" d="M7.003,5.281c-0.007,0.017-0.03,0.03-0.043,0.043C6.863,5.42,6.628,5.696,6.548,6.166
						c-0.058,0.335,0.038,0.693,0.16,0.832c-1.522,0-2.711,0-2.711,0C3.997,5.342,5.347,4,7.003,4C7.003,4,7.003,4.506,7.003,5.281"
						/>
					<path fill="#BCBCBC" d="M7.003,5.145C6.999,5.154,6.985,5.161,6.978,5.167C6.839,5.29,6.593,5.569,6.498,6.073
						C6.42,6.488,6.545,6.87,6.654,6.998c-1.496,0-2.657,0-2.657,0C3.997,5.342,5.347,4,7.003,4C7.003,4,7.003,4.448,7.003,5.145"/>
					<path fill="#B9B9B9" d="M7.003,5.016C6.987,5.049,6.937,5.071,6.909,5.094C6.828,5.162,6.553,5.426,6.442,5.97
						C6.354,6.397,6.457,6.819,6.597,6.998c-1.468,0-2.6,0-2.6,0C3.997,5.342,5.347,4,7.003,4C7.003,4,7.003,4.393,7.003,5.016"/>
					<path fill="#B5B5B5" d="M7.003,4.895C6.99,4.92,6.951,4.933,6.929,4.949C6.832,5.02,6.507,5.292,6.381,5.856
						c-0.108,0.482,0.002,0.929,0.15,1.141c-1.436,0-2.534,0-2.534,0C3.997,5.342,5.347,4,7.003,4C7.003,4,7.003,4.343,7.003,4.895"
						/>
					<path fill="#B2B2B2" d="M7.003,4.781c-0.008,0.016-0.035,0.022-0.05,0.032C6.65,5.005,6.413,5.351,6.317,5.739
						C6.132,6.497,6.447,6.978,6.46,6.998c-1.401,0-2.463,0-2.463,0C3.997,5.342,5.347,4,7.003,4C7.003,4,7.003,4.296,7.003,4.781"
						/>
					<path fill="#AEAEAE" d="M7.003,4.674C7,4.68,6.989,4.682,6.983,4.686C6.773,4.8,6.397,5.084,6.234,5.695
						C6.097,6.208,6.214,6.73,6.382,6.998c-1.362,0-2.385,0-2.385,0C3.997,5.342,5.347,4,7.003,4C7.003,4,7.003,4.253,7.003,4.674"
						/>
					<path fill="#AAAAAA" d="M7.003,4.574C6.985,4.604,6.931,4.611,6.9,4.627C6.774,4.694,6.349,4.96,6.159,5.612
						C6.024,6.076,6.078,6.62,6.296,6.998c-1.319,0-2.299,0-2.299,0C3.997,5.342,5.347,4,7.003,4C7.003,4,7.003,4.213,7.003,4.574"
						/>
					<path fill="#A7A7A7" d="M7.003,4.479C6.989,4.5,6.949,4.503,6.926,4.514C6.557,4.683,6.23,5.068,6.095,5.496
						c-0.233,0.737,0,1.296,0.11,1.502c-1.273,0-2.208,0-2.208,0C3.997,5.342,5.347,4,7.003,4C7.003,4,7.003,4.176,7.003,4.479"/>
					<path fill="#A3A3A3" d="M7.003,4.39C6.994,4.404,6.966,4.404,6.95,4.411c-0.204,0.08-0.704,0.343-0.947,1.051
						C5.835,5.953,5.876,6.541,6.109,6.998c-1.223,0-2.112,0-2.112,0C3.997,5.342,5.347,4,7.003,4C7.003,4,7.003,4.142,7.003,4.39"
						/>
					<path fill="#A0A0A0" d="M7.003,4.307C6.997,4.315,6.98,4.315,6.971,4.318C6.632,4.431,6.174,4.711,5.92,5.398
						C5.778,5.784,5.727,6.406,6.01,6.998c-1.172,0-2.013,0-2.013,0C3.997,5.342,5.347,4,7.003,4C7.003,4,7.003,4.111,7.003,4.307"
						/>
					<path fill="#9C9C9C" d="M7.003,4.231C7,4.236,6.991,4.235,6.985,4.236C6.467,4.381,6.064,4.757,5.851,5.295
						C5.639,5.832,5.659,6.452,5.906,6.998c-1.118,0-1.909,0-1.909,0C3.997,5.342,5.347,4,7.003,4C7.003,4,7.003,4.083,7.003,4.231"
						/>
					<path fill="#999999" d="M7.003,4.163C6.976,4.199,6.902,4.19,6.859,4.202C6.49,4.3,6.016,4.641,5.787,5.179
						c-0.316,0.745-0.168,1.4,0.012,1.818c-1.061,0-1.802,0-1.802,0C3.997,5.342,5.347,4,7.003,4C7.003,4,7.003,4.058,7.003,4.163"
						/>
					<path fill="#959595" d="M7.003,4.104C6.999,4.109,6.987,4.106,6.979,4.108C6.571,4.183,6.011,4.43,5.668,5.184
						C5.555,5.433,5.33,6.11,5.687,6.998c-1,0-1.689,0-1.689,0C3.997,5.342,5.347,4,7.003,4C7.003,4,7.003,4.036,7.003,4.104"/>
					<path fill="#919191" d="M7.003,4.055C6.992,4.067,6.965,4.06,6.95,4.062C6.672,4.1,5.985,4.277,5.589,5.09
						c-0.272,0.558-0.28,1.289-0.021,1.907c-0.936,0-1.571,0-1.571,0C3.997,5.342,5.347,4,7.003,4C7.003,4,7.003,4.019,7.003,4.055"
						/>
					<path fill="#8E8E8E" d="M7.003,4.019C6.98,4.044,6.925,4.027,6.891,4.03C6.444,4.074,5.846,4.351,5.506,4.998
						c-0.216,0.411-0.403,1.091-0.068,2c-0.864,0-1.44,0-1.44,0C3.997,5.342,5.347,4,7.003,4C7.003,4,7.003,4.007,7.003,4.019"/>
					<path fill="#8A8A8A" d="M7.003,4.001C6.991,4.013,6.964,4.002,6.947,4.003c-0.758,0.021-1.282,0.473-1.519,0.89
						C4.975,5.688,5.105,6.476,5.294,6.998c-0.784,0-1.297,0-1.297,0C3.997,5.342,5.347,4,7.003,4.001C7.003,4,7.003,4,7.003,4.001"
						/>
					<path fill="#878787" d="M6.546,4.036c-1.27,0.231-1.893,1.532-1.418,2.962c-0.689,0-1.131,0-1.131,0
						c0-1.531,1.155-2.794,2.639-2.975C6.609,4.027,6.573,4.031,6.546,4.036"/>
					<path fill="#838383" d="M5.976,4.183c-1.18,0.513-1.38,1.784-1.056,2.815c-0.569,0-0.923,0-0.923,0
						c0-1.342,0.887-2.478,2.106-2.86C6.065,4.151,6.014,4.168,5.976,4.183"/>
					<path fill="#C4C4C4" d="M6.99,7C6.988,7,6.985,6.999,6.982,6.998c0.004,0,0.01,0,0.015,0c-0.03,0-0.059,0-0.088,0L6.894,6.995
						C6.876,6.993,6.853,6.992,6.835,6.99c0.049-0.042,0.049-0.042,0.161,0.012L6.993,7.001L6.99,7"/>
					<path fill="#C0C0C0" d="M6.99,7C6.988,7,6.985,6.999,6.982,6.998c0.004,0,0.01,0,0.015,0c-0.028,0-0.056,0-0.083,0l-0.02-0.004
						c-0.004,0-0.009-0.001-0.014-0.001C6.891,6.985,6.893,6.97,6.905,6.964C6.931,6.95,6.969,6.99,6.996,7.002L6.993,7.001L6.99,7"
						/>
					<path fill="#BCBCBC" d="M6.99,7C6.988,7,6.985,6.999,6.982,6.998c0.004,0,0.01,0,0.015,0c-0.026,0-0.053,0-0.079,0l-0.02-0.004
						c0.002-0.01,0-0.022,0.012-0.028C6.935,6.954,6.971,6.99,6.996,7.002L6.993,7.001L6.99,7"/>
					<path fill="#B9B9B9" d="M6.99,7C6.988,7,6.985,6.999,6.982,6.998c0.004,0,0.01,0,0.015,0c-0.025,0-0.05,0-0.075,0L6.904,6.994
						c0.002-0.009,0-0.021,0.011-0.025c0.023-0.012,0.057,0.022,0.081,0.034L6.993,7.001L6.99,7"/>
					<path fill="#B5B5B5" d="M6.99,7C6.988,7,6.985,6.999,6.982,6.998c0.004,0,0.01,0,0.015,0c-0.023,0-0.046,0-0.07,0L6.909,6.994
						c0.002-0.009,0-0.019,0.011-0.024c0.022-0.011,0.054,0.021,0.076,0.032L6.993,7.001L6.99,7"/>
					<path fill="#B2B2B2" d="M6.99,7C6.988,7,6.985,6.999,6.982,6.998c0.004,0,0.01,0,0.015,0c-0.022,0-0.043,0-0.065,0L6.915,6.994
						c0.002-0.008,0-0.017,0.01-0.022c0.021-0.01,0.05,0.02,0.07,0.03L6.993,7.001L6.99,7"/>
					<path fill="#AEAEAE" d="M6.99,7C6.988,7,6.985,6.999,6.982,6.998c0.004,0,0.01,0,0.015,0c-0.02,0-0.041,0-0.061,0L6.921,6.995
						c0.001-0.007,0-0.016,0.009-0.02c0.019-0.009,0.046,0.019,0.065,0.028L6.992,7.001L6.99,7"/>
					<path fill="#AAAAAA" d="M6.99,7C6.988,7,6.985,6.999,6.982,6.998c0.004,0,0.01,0,0.015,0c-0.019,0-0.037,0-0.056,0L6.927,6.995
						c0.001-0.007,0-0.015,0.008-0.019c0.018-0.008,0.043,0.017,0.061,0.026L6.992,7.001L6.99,7"/>
					<path fill="#A7A7A7" d="M6.99,7C6.988,7,6.985,6.999,6.982,6.998c0.004,0,0.01,0,0.015,0c-0.017,0-0.034,0-0.051,0L6.933,6.995
						c0.001-0.006,0-0.013,0.008-0.016c0.016-0.008,0.039,0.016,0.055,0.023L6.992,7.001L6.99,7"/>
					<path fill="#A3A3A3" d="M6.99,7C6.988,7,6.985,6.999,6.982,6.998c0.004,0,0.01,0,0.015,0c-0.016,0-0.031,0-0.046,0L6.938,6.996
						c0.001-0.005,0-0.012,0.007-0.015c0.015-0.007,0.036,0.014,0.05,0.021L6.992,7.001L6.99,7"/>
					<path fill="#A0A0A0" d="M6.99,7C6.988,7,6.985,6.999,6.982,6.998c0.004,0,0.01,0,0.015,0c-0.014,0-0.028,0-0.042,0L6.944,6.996
						c0.001-0.004,0-0.01,0.006-0.013c0.013-0.006,0.031,0.013,0.045,0.02L6.992,7.001L6.99,7"/>
					<path fill="#9C9C9C" d="M6.99,7C6.988,7,6.985,6.999,6.982,6.998c0.004,0,0.01,0,0.015,0c-0.012,0-0.025,0-0.037,0L6.95,6.996
						c0-0.004,0-0.009,0.005-0.011c0.012-0.005,0.028,0.011,0.04,0.017L6.992,7L6.99,7"/>
					<path fill="#999999" d="M6.99,7C6.988,7,6.985,6.999,6.982,6.998c0.004,0,0.01,0,0.015,0c-0.011,0-0.022,0-0.033,0L6.956,6.997
						c0-0.004,0-0.007,0.004-0.009c0.011-0.004,0.024,0.01,0.035,0.015L6.992,7L6.99,7"/>
					<path fill="#959595" d="M6.99,7C6.988,7,6.985,6.999,6.982,6.998c0.004,0,0.01,0,0.015,0c-0.009,0-0.019,0-0.028,0L6.962,6.997
						c0-0.002,0-0.006,0.004-0.007c0.009-0.004,0.021,0.008,0.029,0.012L6.992,7L6.99,7"/>
					<path fill="#919191" d="M6.99,7C6.988,7,6.985,6.999,6.982,6.998c0.004,0,0.01,0,0.015,0c-0.008,0-0.016,0-0.023,0l-0.006,0
						c0-0.002,0-0.004,0.003-0.005c0.007-0.003,0.017,0.007,0.024,0.01L6.992,7L6.99,7"/>
					<path fill="#8E8E8E" d="M6.99,7C6.988,7,6.985,6.999,6.982,6.998c0.004,0,0.01,0,0.015,0c-0.006,0-0.012,0-0.019,0H6.973
						c0-0.002,0.001-0.003,0.003-0.004C6.982,6.992,6.989,7,6.995,7.002L6.992,7L6.99,7"/>
					<polyline fill="#8A8A8A" points="6.99,7 6.982,6.998 6.997,6.998 6.983,6.998 6.979,6.998 6.981,6.996 6.995,7.002 6.992,7 
						6.99,7 					"/>
					<g>
						<polyline fill="#878787" points="6.997,6.998 6.988,6.998 6.985,6.998 6.985,6.999 6.992,6.999 6.997,6.998 						"/>
						<polyline fill="#878787" points="6.99,7 6.985,6.999 6.985,6.999 6.995,7.002 6.992,7 6.99,7 						"/>
					</g>
					<g>
						<polyline fill="#838383" points="6.997,6.998 6.993,6.998 6.991,6.999 6.991,6.999 6.997,6.998 						"/>
						<polyline fill="#838383" points="6.991,7 6.995,7.002 6.992,7 6.991,7 						"/>
					</g>
					<path fill="#D5D5D5" d="M7.003,7L7.003,7c0-0.003-0.001-0.007-0.001-0.01c0-0.007,0-0.016,0.001-0.023
						C7.003,6.979,7.003,6.99,7.003,7"/>
					<polyline fill="#D2D2D2" points="7.003,7 7.003,7 7.003,6.988 7.003,7 					"/>
				</g>
			</g>
			<g enable-background="new    ">
				<defs>
					<path id="SVGID_15_" enable-background="new    " d="M7.003,7c0-1.657,0-3,0-3h15.993c0,0,0,1.343,0,3H7.003z"/>
				</defs>
				<clipPath id="SVGID_16_">
					<use xlink:href="#SVGID_15_"  overflow="visible"/>
				</clipPath>
				<g clip-path="url(#SVGID_16_)" enable-background="new    ">
					<path fill="#DCDCDC" d="M22.996,7H7.003c0-0.015,0-0.029,0-0.043h15.993C22.996,6.972,22.996,6.986,22.996,7"/>
					<path fill="#DDDDDD" d="M22.996,6.958H7.003c0-0.016,0-0.032,0-0.047h15.993C22.996,6.926,22.996,6.941,22.996,6.958"/>
					<path fill="#DEDEDE" d="M22.996,6.91H7.003c0-0.016,0-0.031,0-0.047h15.993C22.996,6.879,22.996,6.895,22.996,6.91"/>
					<path fill="#DEDEDE" d="M22.996,6.863H7.003c0-0.016,0-0.031,0-0.047h15.993C22.996,6.832,22.996,6.848,22.996,6.863"/>
					<path fill="#DFDFDF" d="M22.996,6.816H7.003c0-0.016,0-0.031,0-0.047h15.993C22.996,6.785,22.996,6.801,22.996,6.816"/>
					<path fill="#E0E0E0" d="M22.996,6.77H7.003c0-0.032,0-0.064,0-0.096h15.993C22.996,6.705,22.996,6.737,22.996,6.77"/>
					<path fill="#E0E0E0" d="M22.996,6.673H7.003c0-0.041,0-0.08,0-0.12h15.993C22.996,6.593,22.996,6.633,22.996,6.673"/>
					<path fill="#E1E1E1" d="M22.996,6.553H7.003c0-0.026,0-0.053,0-0.079h15.993C22.996,6.5,22.996,6.527,22.996,6.553"/>
					<path fill="#E0E0E0" d="M22.996,6.475H7.003c0-0.04,0-0.078,0-0.117h15.993C22.996,6.396,22.996,6.435,22.996,6.475"/>
					<path fill="#E0E0E0" d="M22.996,6.358H7.003c0-0.033,0-0.065,0-0.098h15.993C22.996,6.292,22.996,6.325,22.996,6.358"/>
					<path fill="#DFDFDF" d="M22.996,6.26H7.003c0-0.02,0-0.039,0-0.059h15.993C22.996,6.221,22.996,6.241,22.996,6.26"/>
					<path fill="#DEDEDE" d="M22.996,6.201H7.003c0-0.02,0-0.039,0-0.058h15.993C22.996,6.162,22.996,6.182,22.996,6.201"/>
					<path fill="#DEDEDE" d="M22.996,6.143H7.003c0-0.02,0-0.039,0-0.058h15.993C22.996,6.104,22.996,6.124,22.996,6.143"/>
					<path fill="#DDDDDD" d="M22.996,6.085H7.003c0-0.021,0-0.041,0-0.061h15.993C22.996,6.044,22.996,6.064,22.996,6.085"/>
					<path fill="#DCDCDC" d="M22.996,6.024H7.003c0-0.021,0-0.043,0-0.064h15.993C22.996,5.981,22.996,6.002,22.996,6.024"/>
					<path fill="#D9D9D9" d="M22.996,5.959H7.003c0-0.021,0-0.042,0-0.063h15.993C22.996,5.917,22.996,5.938,22.996,5.959"/>
					<path fill="#D5D5D5" d="M22.996,5.896H7.003c0-0.021,0-0.042,0-0.063h15.993C22.996,5.854,22.996,5.875,22.996,5.896"/>
					<path fill="#D2D2D2" d="M22.996,5.833H7.003c0-0.031,0-0.061,0-0.091h15.993C22.996,5.772,22.996,5.803,22.996,5.833"/>
					<path fill="#CECECE" d="M22.996,5.743H7.003c0-0.03,0-0.06,0-0.089h15.993C22.996,5.683,22.996,5.712,22.996,5.743"/>
					<path fill="#CBCBCB" d="M22.996,5.653H7.003c0-0.038,0-0.075,0-0.112h15.993C22.996,5.579,22.996,5.616,22.996,5.653"/>
					<path fill="#C7C7C7" d="M22.996,5.542H7.003c0-0.041,0-0.082,0-0.122h15.993C22.996,5.46,22.996,5.5,22.996,5.542"/>
					<path fill="#C4C4C4" d="M22.996,5.42H7.003c0-0.047,0-0.093,0-0.139h15.993C22.996,5.327,22.996,5.373,22.996,5.42"/>
					<path fill="#C0C0C0" d="M22.996,5.281H7.003c0-0.046,0-0.091,0-0.135h15.993C22.996,5.19,22.996,5.235,22.996,5.281"/>
					<path fill="#BCBCBC" d="M22.996,5.146H7.003c0-0.044,0-0.087,0-0.129h15.993C22.996,5.059,22.996,5.102,22.996,5.146"/>
					<path fill="#B9B9B9" d="M22.996,5.017H7.003c0-0.042,0-0.082,0-0.121h15.993C22.996,4.935,22.996,4.976,22.996,5.017"/>
					<path fill="#B5B5B5" d="M22.996,4.896H7.003c0-0.039,0-0.077,0-0.114h15.993C22.996,4.819,22.996,4.857,22.996,4.896"/>
					<path fill="#B2B2B2" d="M22.996,4.782H7.003c0-0.037,0-0.073,0-0.107h15.993C22.996,4.709,22.996,4.745,22.996,4.782"/>
					<path fill="#AEAEAE" d="M22.996,4.675H7.003c0-0.035,0-0.068,0-0.101h15.993C22.996,4.606,22.996,4.64,22.996,4.675"/>
					<path fill="#AAAAAA" d="M22.996,4.574H7.003c0-0.033,0-0.064,0-0.095h15.993C22.996,4.509,22.996,4.541,22.996,4.574"/>
					<path fill="#A7A7A7" d="M22.996,4.479H7.003c0-0.031,0-0.061,0-0.089h15.993C22.996,4.418,22.996,4.448,22.996,4.479"/>
					<path fill="#A3A3A3" d="M22.996,4.39H7.003c0-0.029,0-0.057,0-0.083h15.993C22.996,4.333,22.996,4.36,22.996,4.39"/>
					<path fill="#A0A0A0" d="M22.996,4.307H7.003c0-0.027,0-0.052,0-0.076h15.993C22.996,4.255,22.996,4.28,22.996,4.307"/>
					<path fill="#9C9C9C" d="M22.996,4.231H7.003c0-0.025,0-0.048,0-0.069h15.993C22.996,4.184,22.996,4.207,22.996,4.231"/>
					<path fill="#999999" d="M22.996,4.163H7.003c0-0.022,0-0.042,0-0.06h15.993C22.996,4.121,22.996,4.141,22.996,4.163"/>
					<path fill="#959595" d="M22.996,4.103H7.003c0-0.019,0-0.035,0-0.049h15.993C22.996,4.068,22.996,4.084,22.996,4.103"/>
					<path fill="#919191" d="M22.996,4.054H7.003c0-0.015,0-0.027,0-0.036h15.993C22.996,4.027,22.996,4.04,22.996,4.054"/>
					<path fill="#8E8E8E" d="M22.996,4.019H7.003c0-0.01,0-0.016,0-0.018h15.993C22.996,4.003,22.996,4.009,22.996,4.019"/>
					<polyline fill="#8A8A8A" points="22.996,4.001 7.003,4.001 7.003,4 22.996,4 22.996,4.001 					"/>
				</g>
			</g>
			<g enable-background="new    ">
				<defs>
					<path id="SVGID_17_" enable-background="new    " d="M6.997,23c-0.004-0.001-0.009-0.002-0.013-0.001
						c0.004-0.001,0.009-0.002,0.013-0.004c0.001-0.001,0.005,0.003,0.006,0.002c0,1.657,0,3,0,3c-1.656,0-3.006-1.341-3.006-2.997
						C3.997,23,5.34,23,6.997,23z"/>
				</defs>
				<clipPath id="SVGID_18_">
					<use xlink:href="#SVGID_17_"  overflow="visible"/>
				</clipPath>
				<g clip-path="url(#SVGID_18_)" enable-background="new    ">
					<path fill="#D9D9D9" d="M6.997,23c0.001-0.006,0.005-0.002,0.006-0.003c0,1.657,0,3,0,3c-1.656,0-3.006-1.341-3.006-2.997
						C3.997,23,5.34,23,6.997,23"/>
					<path fill="#D9D9D9" d="M6.997,23l-0.013-0.001h0.003c0.009-0.004,0.01-0.004,0.01-0.004l-0.001,0.001H7
						c0.003,1.658,0.003,3.001,0.003,3.001c-1.656,0-3.006-1.341-3.006-2.997C3.997,23,5.34,23,6.997,23"/>
					<path fill="#D5D5D5" d="M6.997,23l-0.013-0.001h0.003c0.009-0.004,0.009-0.004,0.009-0.004l-0.017,0.01
						c-0.001,0.004-0.007,0.01-0.005,0.015c0.001,0.004,0.009,0.008,0.014,0.007c0.009-0.002,0.012-0.02,0.014-0.029
						c0,1.657,0,3,0,3c-1.656,0-3.006-1.341-3.006-2.997C3.997,23,5.34,23,6.997,23"/>
					<path fill="#D2D2D2" d="M6.997,23l-0.013-0.001h0.003c0.009-0.004,0.009-0.004,0.009-0.004l-0.035,0.021
						c-0.005,0.004-0.017,0.007-0.017,0.014s0.034,0.033,0.041,0.032c0.017-0.003,0.017-0.037,0.018-0.054c0,1.652,0,2.988,0,2.988
						c-1.656,0-3.006-1.341-3.006-2.997C3.997,23,5.34,23,6.997,23"/>
					<path fill="#CECECE" d="M6.877,23c0.005,0,0.011,0,0.017,0c0.035,0,0.069,0,0.103,0c-0.002,0-0.004-0.001-0.006-0.001H6.984
						h0.003c0.009-0.004,0.009-0.004,0.009-0.004l-0.054,0.032c-0.007,0.006-0.023,0.011-0.024,0.021
						c-0.005,0.056,0.068,0.044,0.084,0.085c0,1.594,0,2.864,0,2.864c-1.656,0-3.006-1.341-3.006-2.997C3.997,23,5.275,23,6.877,23"
						/>
					<path fill="#CBCBCB" d="M6.836,23C6.854,23,6.876,23,6.894,23C6.933,23,6.965,23,6.997,23c-0.002,0-0.004-0.001-0.006-0.001
						H6.984h0.003c0.009-0.004,0.009-0.004,0.009-0.004l-0.072,0.044c-0.01,0.009-0.033,0.015-0.034,0.028
						c-0.008,0.074,0.076,0.072,0.113,0.11c0,1.573,0,2.819,0,2.819c-1.656,0-3.006-1.341-3.006-2.997C3.997,23,5.254,23,6.836,23"
						/>
					<path fill="#C7C7C7" d="M6.796,23c0.029,0,0.068,0.002,0.098,0.002C6.936,23,6.966,23,6.997,23
						c-0.002,0-0.004-0.001-0.006-0.001H6.984h0.003c0.009-0.004,0.009-0.004,0.009-0.004l-0.088,0.053
						c-0.014,0.012-0.046,0.021-0.048,0.04c0,0,0.084,0.095,0.143,0.137c0,1.551,0,2.772,0,2.772c-1.656,0-3.006-1.341-3.006-2.997
						C3.997,23,5.232,23,6.796,23"/>
					<path fill="#C4C4C4" d="M6.749,23c0.03,0.017,0.037,0.051,0.057,0.076c0.003-0.021-0.004-0.044,0.017-0.06
						c0.018-0.014,0.05-0.01,0.072-0.014C6.898,23.001,6.905,23,6.91,23c0.029,0,0.058,0,0.087,0c-0.002,0-0.004-0.001-0.006-0.001
						H6.984h0.003c0.009-0.004,0.009-0.004,0.009-0.004l-0.09,0.05c-0.024,0.016-0.072,0.025-0.079,0.053
						c-0.003,0.012,0.122,0.144,0.175,0.177c0,1.527,0,2.723,0,2.723c-1.656,0-3.006-1.341-3.006-2.997C3.997,23,5.208,23,6.749,23"
						/>
					<path fill="#C0C0C0" d="M6.702,23c0.004,0.003,0.004,0.01,0.006,0.014c0.018,0.042,0.166,0.231,0.295,0.313
						c0,1.502,0,2.67,0,2.67c-1.656,0-3.006-1.341-3.006-2.997C3.997,23,5.183,23,6.702,23"/>
					<path fill="#BCBCBC" d="M6.648,23c0.032,0.021,0.039,0.058,0.058,0.087c0.131,0.19,0.295,0.297,0.297,0.298
						c0,1.474,0,2.612,0,2.612c-1.656,0-3.006-1.341-3.006-2.997C3.997,23,5.155,23,6.648,23"/>
					<path fill="#B9B9B9" d="M6.592,23c0.005,0.004,0.005,0.014,0.008,0.02c0.03,0.072,0.223,0.321,0.403,0.429
						c0,1.443,0,2.549,0,2.549c-1.656,0-3.006-1.341-3.006-2.997C3.997,23,5.126,23,6.592,23"/>
					<path fill="#B5B5B5" d="M6.526,23c0.006,0.004,0.007,0.016,0.01,0.022c0.014,0.03,0.203,0.333,0.467,0.494
						c0,1.409,0,2.48,0,2.48c-1.656,0-3.006-1.341-3.006-2.997C3.997,23,5.092,23,6.526,23"/>
					<path fill="#B2B2B2" d="M6.455,23c0.007,0.005,0.009,0.019,0.013,0.026c0.082,0.171,0.328,0.45,0.536,0.567
						c0,1.371,0,2.403,0,2.403c-1.656,0-3.006-1.341-3.006-2.997C3.997,23,5.057,23,6.455,23"/>
					<path fill="#AEAEAE" d="M6.376,23c0.009,0.006,0.011,0.021,0.016,0.03c0.1,0.2,0.348,0.496,0.611,0.648
						c0,1.329,0,2.318,0,2.318c-1.656,0-3.006-1.341-3.006-2.997C3.997,23,5.017,23,6.376,23"/>
					<path fill="#AAAAAA" d="M6.292,23c0.01,0.006,0.012,0.024,0.017,0.035c0.055,0.117,0.301,0.505,0.695,0.735
						c0,1.282,0,2.227,0,2.227c-1.656,0-3.006-1.341-3.006-2.997C3.997,23,4.975,23,6.292,23"/>
					<path fill="#A7A7A7" d="M6.201,23c0.011,0.007,0.013,0.027,0.018,0.039c0.01,0.021,0.246,0.518,0.784,0.829
						c0,1.232,0,2.129,0,2.129c-1.656,0-3.006-1.341-3.006-2.997C3.997,23,4.93,23,6.201,23"/>
					<path fill="#A3A3A3" d="M6.105,23c0.012,0.008,0.014,0.031,0.021,0.044c0.027,0.06,0.282,0.593,0.877,0.925
						c0,1.181,0,2.028,0,2.028c-1.656,0-3.006-1.341-3.006-2.997C3.997,23,4.884,23,6.105,23"/>
					<path fill="#A0A0A0" d="M6.006,23c0.014,0.009,0.015,0.034,0.022,0.049c0.03,0.067,0.313,0.668,0.975,1.024
						c0,1.126,0,1.924,0,1.924c-1.656,0-3.006-1.341-3.006-2.997C3.997,23,4.836,23,6.006,23"/>
					<path fill="#9C9C9C" d="M5.903,23c0.011,0.007,0.012,0.028,0.018,0.04c0.157,0.362,0.523,0.852,1.083,1.142
						c0,1.068,0,1.815,0,1.815c-1.656,0-3.006-1.341-3.006-2.997C3.997,23,4.787,23,5.903,23"/>
					<path fill="#999999" d="M5.796,23c0.016,0.011,0.018,0.042,0.025,0.06c0.057,0.136,0.381,0.829,1.182,1.234
						c0,1.008,0,1.703,0,1.703c-1.656,0-3.006-1.341-3.006-2.997C3.997,23,4.737,23,5.796,23"/>
					<path fill="#959595" d="M5.684,23c0.018,0.012,0.019,0.046,0.026,0.065c0.037,0.093,0.385,0.912,1.293,1.346
						c0,0.944,0,1.586,0,1.586c-1.656,0-3.006-1.341-3.006-2.997C3.997,23,4.685,23,5.684,23"/>
					<path fill="#919191" d="M5.565,23c0.019,0.013,0.019,0.051,0.027,0.072c0.015,0.04,0.382,0.989,1.411,1.463
						c0,0.876,0,1.462,0,1.462c-1.656,0-3.006-1.341-3.006-2.997C3.997,23,4.631,23,5.565,23"/>
					<path fill="#8E8E8E" d="M5.436,23c0.021,0.015,0.02,0.055,0.029,0.078c0.151,0.408,0.646,1.202,1.539,1.59
						c0,0.802,0,1.329,0,1.329c-1.656,0-3.006-1.341-3.006-2.997C3.997,23,4.573,23,5.436,23"/>
					<path fill="#8A8A8A" d="M5.292,23c0.021,0.015,0.021,0.057,0.029,0.08c0.203,0.563,0.764,1.354,1.682,1.736
						c0,0.718,0,1.181,0,1.181c-1.656,0-3.006-1.341-3.006-2.997C3.997,23,4.51,23,5.292,23"/>
					<path fill="#878787" d="M5.127,23c0.024,0.018,0.022,0.066,0.032,0.095c0.225,0.661,0.898,1.535,1.844,1.891
						c0,0.62,0,1.012,0,1.012c-1.656,0-3.006-1.341-3.006-2.997C3.997,23,4.438,23,5.127,23"/>
					<path fill="#838383" d="M4.918,23c0.022,0.017,0.02,0.063,0.028,0.089c0.236,0.753,0.98,1.733,2.057,2.107
						c0,0.497,0,0.801,0,0.801c-1.656,0-3.006-1.341-3.006-2.997C3.997,23,4.351,23,4.918,23"/>
					<path fill="#C0C0C0" d="M6.997,23c-0.004-0.001-0.009-0.002-0.013-0.001h0.003c0.003-0.001,0.006-0.003,0.009-0.004l0,0
						l-0.087,0.048c-0.016-0.001-0.036,0.026-0.05,0.019c-0.009-0.005,0.004-0.05,0.017-0.057C6.886,23,6.903,23.001,6.914,23
						C6.942,23,6.969,23,6.997,23"/>
					<path fill="#BCBCBC" d="M6.997,23c-0.004-0.001-0.009-0.002-0.013-0.001h0.003c0.003-0.001,0.006-0.003,0.009-0.004l0,0
						L6.914,23.04c-0.003,0-0.007,0.001-0.01,0c-0.004-0.003-0.01-0.032-0.006-0.036C6.902,22.999,6.913,23,6.919,23
						C6.945,23,6.971,23,6.997,23"/>
					<path fill="#B9B9B9" d="M6.997,23c-0.004-0.001-0.009-0.002-0.013-0.001h0.003c0.003-0.001,0.006-0.003,0.009-0.004l0,0
						l-0.078,0.042c-0.002,0-0.007,0.001-0.009,0c-0.004-0.003-0.009-0.03-0.006-0.033C6.907,22.999,6.917,23,6.923,23
						C6.948,23,6.972,23,6.997,23"/>
					<path fill="#B5B5B5" d="M6.997,23c-0.004-0.001-0.009-0.002-0.013-0.001h0.003c0.003-0.001,0.006-0.003,0.009-0.004l0,0
						l-0.073,0.039c-0.002,0-0.006,0.002-0.008,0c-0.004-0.002-0.009-0.027-0.006-0.03C6.913,22.999,6.922,23,6.928,23
						C6.951,23,6.974,23,6.997,23"/>
					<path fill="#B2B2B2" d="M6.997,23c-0.004-0.001-0.009-0.002-0.013-0.001h0.003c0.003-0.001,0.006-0.003,0.009-0.004l0,0
						l-0.068,0.037c-0.002,0-0.006,0.001-0.008,0c-0.004-0.003-0.008-0.026-0.006-0.029C6.918,22.999,6.927,23,6.933,23
						C6.954,23,6.976,23,6.997,23"/>
					<path fill="#AEAEAE" d="M6.997,23c-0.004-0.001-0.009-0.002-0.013-0.001h0.003c0.003-0.001,0.006-0.003,0.009-0.004l0,0
						l-0.063,0.034c-0.002,0-0.005,0.001-0.007,0c-0.003-0.002-0.008-0.023-0.005-0.026C6.924,22.999,6.932,23,6.937,23
						C6.957,23,6.977,23,6.997,23"/>
					<path fill="#AAAAAA" d="M6.997,23c-0.004-0.001-0.009-0.002-0.013-0.001h0.003c0.003-0.001,0.006-0.003,0.009-0.004l0,0
						l-0.059,0.031c-0.002,0-0.005,0.001-0.007,0c-0.003-0.002-0.007-0.021-0.005-0.023C6.93,22.999,6.937,23,6.942,23
						C6.96,23,6.979,23,6.997,23"/>
					<path fill="#A7A7A7" d="M6.997,23c-0.004-0.001-0.009-0.002-0.013-0.001h0.003c0.003-0.001,0.006-0.003,0.009-0.004l0,0
						l-0.054,0.029c-0.002,0-0.005,0.001-0.006-0.001c-0.003-0.001-0.006-0.019-0.004-0.021C6.935,22.999,6.942,23,6.946,23
						C6.963,23,6.98,23,6.997,23"/>
					<path fill="#A3A3A3" d="M6.997,23c-0.004-0.001-0.009-0.002-0.013-0.001h0.003c0.003-0.001,0.006-0.003,0.009-0.004l0,0
						l-0.049,0.026c-0.001,0-0.004,0.001-0.006,0c-0.003-0.002-0.006-0.018-0.004-0.02C6.941,22.999,6.947,23,6.951,23
						C6.966,23,6.982,23,6.997,23"/>
					<path fill="#A0A0A0" d="M6.997,23c-0.004-0.001-0.009-0.002-0.013-0.001h0.003c0.003-0.001,0.006-0.003,0.009-0.004l0,0
						l-0.044,0.023c-0.001,0-0.004,0.001-0.005,0c-0.002-0.001-0.005-0.015-0.003-0.017C6.947,22.999,6.952,23,6.956,23
						C6.969,23,6.983,23,6.997,23"/>
					<path fill="#9C9C9C" d="M6.997,23c-0.004-0.001-0.009-0.002-0.013-0.001h0.003c0.003-0.001,0.006-0.003,0.009-0.004l0,0
						l-0.039,0.021c-0.001,0-0.003,0.001-0.005,0c-0.002-0.001-0.004-0.013-0.003-0.014C6.952,22.999,6.957,23,6.96,23
						C6.972,23,6.985,23,6.997,23"/>
					<path fill="#999999" d="M6.997,23c-0.004-0.001-0.009-0.002-0.013-0.001h0.003c0.003-0.001,0.006-0.003,0.009-0.004l0,0
						l-0.034,0.019c-0.001,0-0.003,0-0.004,0C6.957,23.011,6.954,23.002,6.956,23C6.958,22.999,6.962,23,6.965,23
						C6.976,23,6.986,23,6.997,23"/>
					<path fill="#959595" d="M6.997,23c-0.004-0.001-0.009-0.002-0.013-0.001h0.003c0.003-0.001,0.006-0.003,0.009-0.004l0,0
						L6.967,23.01c-0.001,0-0.002,0.001-0.003,0C6.959,23.008,6.958,23.003,6.961,23C6.963,22.999,6.967,23,6.969,23
						C6.979,23,6.988,23,6.997,23"/>
					<path fill="#919191" d="M6.997,23c-0.004-0.001-0.009-0.002-0.013-0.001h0.003c0.003-0.001,0.006-0.003,0.009-0.004l0,0
						l-0.024,0.013c-0.001,0-0.002,0.001-0.003,0C6.966,23.005,6.964,23.002,6.967,23C6.969,22.999,6.972,23,6.974,23
						C6.982,23,6.989,23,6.997,23"/>
					<path fill="#8E8E8E" d="M6.997,23c-0.004-0.001-0.009-0.002-0.013-0.001h0.003c0.003-0.001,0.006-0.003,0.009-0.004l0,0
						l-0.02,0.011c0,0-0.002,0-0.002,0C6.973,23.003,6.971,23,6.973,23c0.001,0,0.004,0,0.005,0C6.985,23,6.991,23,6.997,23"/>
					<polyline fill="#8A8A8A" points="6.997,23 6.984,22.999 6.987,22.999 6.997,22.995 6.997,22.995 6.982,23.002 6.98,23.002 
						6.979,23 6.983,23 6.997,23 					"/>
					<g>
						<polyline fill="#878787" points="6.991,22.998 6.997,22.995 6.997,22.995 6.987,23 6.986,23 6.984,22.999 6.991,22.998 						
							"/>
						<polyline fill="#878787" points="6.997,23 6.985,22.999 6.985,22.999 6.988,23 6.997,23 						"/>
					</g>
					<g>
						<polyline fill="#838383" points="6.997,22.995 6.991,22.998 6.997,22.995 						"/>
						<polyline fill="#838383" points="6.997,23 6.991,22.999 6.991,22.999 6.993,23 6.997,23 						"/>
					</g>
				</g>
			</g>
			<g enable-background="new    ">
				<defs>
					<path id="SVGID_19_" enable-background="new    " d="M22.996,22.997c0,1.657,0,3,0,3H7.003c0,0,0-1.343,0-3H22.996z"/>
				</defs>
				<clipPath id="SVGID_20_">
					<use xlink:href="#SVGID_19_"  overflow="visible"/>
				</clipPath>
				<g clip-path="url(#SVGID_20_)" enable-background="new    ">
					<polyline fill="#DCDCDC" points="7.003,22.997 22.996,22.997 22.996,23 7.003,23 7.003,22.997 					"/>
					<path fill="#D9D9D9" d="M7.003,23h15.993c0,0.015,0,0.03,0,0.045H7.003C7.003,23.031,7.003,23.015,7.003,23"/>
					<path fill="#D5D5D5" d="M7.003,23.045h15.993c0,0.015,0,0.029,0,0.044H7.003C7.003,23.075,7.003,23.06,7.003,23.045"/>
					<path fill="#D2D2D2" d="M7.003,23.089h15.993c0,0.016,0,0.03,0,0.045H7.003C7.003,23.12,7.003,23.105,7.003,23.089"/>
					<path fill="#CECECE" d="M7.003,23.134h15.993c0,0.015,0,0.029,0,0.044H7.003C7.003,23.164,7.003,23.149,7.003,23.134"/>
					<path fill="#CBCBCB" d="M7.003,23.178h15.993c0,0.015,0,0.029,0,0.044H7.003C7.003,23.208,7.003,23.193,7.003,23.178"/>
					<path fill="#C7C7C7" d="M7.003,23.222h15.993c0,0.018,0,0.035,0,0.052H7.003C7.003,23.257,7.003,23.24,7.003,23.222"/>
					<path fill="#C4C4C4" d="M7.003,23.274h15.993c0,0.02,0,0.039,0,0.06H7.003C7.003,23.313,7.003,23.293,7.003,23.274"/>
					<path fill="#C0C0C0" d="M7.003,23.333h15.993c0,0.02,0,0.039,0,0.058H7.003C7.003,23.373,7.003,23.353,7.003,23.333"/>
					<path fill="#BCBCBC" d="M7.003,23.391h15.993c0,0.02,0,0.039,0,0.059H7.003C7.003,23.43,7.003,23.411,7.003,23.391"/>
					<path fill="#B9B9B9" d="M7.003,23.45h15.993c0,0.022,0,0.046,0,0.068H7.003C7.003,23.496,7.003,23.472,7.003,23.45"/>
					<path fill="#B5B5B5" d="M7.003,23.518h15.993c0,0.027,0,0.055,0,0.082H7.003C7.003,23.573,7.003,23.545,7.003,23.518"/>
					<path fill="#B2B2B2" d="M7.003,23.6h15.993c0,0.026,0,0.054,0,0.08H7.003C7.003,23.654,7.003,23.626,7.003,23.6"/>
					<path fill="#AEAEAE" d="M7.003,23.68h15.993c0,0.03,0,0.061,0,0.091H7.003C7.003,23.741,7.003,23.71,7.003,23.68"/>
					<path fill="#AAAAAA" d="M7.003,23.771h15.993c0,0.033,0,0.065,0,0.098H7.003C7.003,23.836,7.003,23.804,7.003,23.771"/>
					<path fill="#A7A7A7" d="M7.003,23.869h15.993c0,0.033,0,0.066,0,0.1H7.003C7.003,23.935,7.003,23.902,7.003,23.869"/>
					<path fill="#A3A3A3" d="M7.003,23.968h15.993c0,0.035,0,0.071,0,0.106H7.003C7.003,24.04,7.003,24.003,7.003,23.968"/>
					<path fill="#A0A0A0" d="M7.003,24.075h15.993c0,0.035,0,0.071,0,0.106H7.003C7.003,24.146,7.003,24.11,7.003,24.075"/>
					<path fill="#9C9C9C" d="M7.003,24.181h15.993c0,0.038,0,0.076,0,0.113H7.003C7.003,24.257,7.003,24.219,7.003,24.181"/>
					<path fill="#999999" d="M7.003,24.294h15.993c0,0.04,0,0.078,0,0.116H7.003C7.003,24.373,7.003,24.334,7.003,24.294"/>
					<path fill="#959595" d="M7.003,24.411h15.993c0,0.043,0,0.084,0,0.125H7.003C7.003,24.495,7.003,24.454,7.003,24.411"/>
					<path fill="#919191" d="M7.003,24.536h15.993c0,0.046,0,0.091,0,0.136H7.003C7.003,24.626,7.003,24.582,7.003,24.536"/>
					<path fill="#8E8E8E" d="M7.003,24.671h15.993c0,0.05,0,0.1,0,0.147H7.003C7.003,24.771,7.003,24.721,7.003,24.671"/>
					<path fill="#8A8A8A" d="M7.003,24.819h15.993c0,0.058,0,0.114,0,0.169H7.003C7.003,24.933,7.003,24.876,7.003,24.819"/>
					<path fill="#878787" d="M7.003,24.988h15.993c0,0.075,0,0.146,0,0.214H7.003C7.003,25.134,7.003,25.063,7.003,24.988"/>
					<path fill="#838383" d="M7.003,25.202h15.993c0,0.493,0,0.795,0,0.795H7.003C7.003,25.997,7.003,25.695,7.003,25.202"/>
				</g>
			</g>
			<g enable-background="new    ">
				<defs>
					<path id="SVGID_21_" enable-background="new    " d="M23.002,6.998c0.005,0.001,0.01,0.001,0.015,0
						C23.012,7,23.007,7.001,23.002,7.003C23.001,7.004,22.997,6.999,22.996,7c0-1.657,0-3,0-3c1.656,0,3.007,1.341,3.007,2.997
						C26.002,6.998,24.66,6.998,23.002,6.998z"/>
				</defs>
				<clipPath id="SVGID_22_">
					<use xlink:href="#SVGID_21_"  overflow="visible"/>
				</clipPath>
				<g clip-path="url(#SVGID_22_)" enable-background="new    ">
					<path fill="#E2E2E2" d="M23.002,6.998C23.001,7.004,22.997,6.999,22.996,7c0-1.657,0-3,0-3c1.656,0,3.007,1.341,3.007,2.997
						C26.002,6.998,24.66,6.998,23.002,6.998"/>
					<path fill="#E2E2E2" d="M23.661,6.998c0.441-0.113,0.451-0.639,0.113-0.848c-0.373-0.231-0.783,0.115-0.699,0.472
						c0.049,0.207,0.172,0.333,0.366,0.376c-0.143,0-0.289,0-0.438,0c0.002,0,0.005,0.001,0.007,0.001l0.008,0l-0.004,0.001
						c-0.012,0.005-0.017,0-0.018,0.001c0-1.657,0-3,0-3c1.656,0,3.007,1.341,3.007,2.997C26.002,6.998,25.001,6.998,23.661,6.998"
						/>
					<path fill="#E1E1E1" d="M23.744,6.998c0.446-0.213,0.349-0.779-0.053-0.923c-0.419-0.15-0.795,0.271-0.601,0.673
						c0.075,0.157,0.151,0.192,0.275,0.25c-0.119,0-0.24,0-0.363,0c0.002,0,0.005,0.001,0.007,0.001l0.008,0l-0.004,0.001
						c-0.012,0.005-0.017,0-0.018,0.001c0-1.657,0-3,0-3c1.656,0,3.007,1.341,3.007,2.997C26.002,6.998,25.042,6.998,23.744,6.998"
						/>
					<path fill="#E1E1E1" d="M23.806,6.998c0.506-0.333,0.212-0.881-0.152-0.968C23.195,5.92,22.848,6.412,23.1,6.814
						c0.05,0.081,0.05,0.081,0.207,0.183c-0.1,0-0.202,0-0.305,0c0.002,0,0.005,0.001,0.007,0.001l0.008,0l-0.004,0.001
						c-0.012,0.005-0.017,0-0.018,0.001c0-1.657,0-3,0-3c1.656,0,3.007,1.341,3.007,2.997C26.002,6.998,25.073,6.998,23.806,6.998"
						/>
					<path fill="#E0E0E0" d="M23.858,6.998c0.433-0.292,0.254-0.889-0.183-1c-0.242-0.061-0.613,0.042-0.68,0.466
						c0-1.401,0-2.463,0-2.463c1.656,0,3.007,1.341,3.007,2.997C26.002,6.998,25.098,6.998,23.858,6.998"/>
					<path fill="#E0E0E0" d="M23.909,6.998c0.499-0.417,0.128-1.034-0.339-1.051c-0.262-0.01-0.487,0.146-0.574,0.396
						c0-1.34,0-2.342,0-2.342c1.656,0,3.007,1.341,3.007,2.997C26.002,6.998,25.123,6.998,23.909,6.998"/>
					<path fill="#DFDFDF" d="M23.958,6.998c0.456-0.393,0.149-1.049-0.368-1.087c-0.118-0.008-0.411,0.009-0.594,0.355
						c0-1.302,0-2.266,0-2.266c1.656,0,3.007,1.341,3.007,2.997C26.002,6.998,25.146,6.998,23.958,6.998"/>
					<path fill="#DEDEDE" d="M24.006,6.998c0.476-0.467,0.084-1.097-0.396-1.126c-0.382-0.023-0.557,0.243-0.614,0.331
						c0-1.27,0-2.202,0-2.202c1.656,0,3.007,1.341,3.007,2.997C26.002,6.998,25.169,6.998,24.006,6.998"/>
					<path fill="#DEDEDE" d="M24.055,6.998c0.479-0.484,0.087-1.183-0.493-1.171c-0.132,0.002-0.382,0.047-0.566,0.318
						c0-1.24,0-2.144,0-2.144c1.656,0,3.007,1.341,3.007,2.997C26.002,6.998,25.193,6.998,24.055,6.998"/>
					<path fill="#DDDDDD" d="M24.108,6.998c0.481-0.533,0.079-1.235-0.522-1.218c-0.349,0.01-0.518,0.218-0.59,0.308
						c0-1.21,0-2.086,0-2.086c1.656,0,3.007,1.341,3.007,2.997C26.002,6.998,25.217,6.998,24.108,6.998"/>
					<path fill="#DCDCDC" d="M24.162,6.998c0.529-0.587,0.036-1.346-0.627-1.269c-0.218,0.025-0.398,0.126-0.539,0.301
						c0-1.181,0-2.029,0-2.029c1.656,0,3.007,1.341,3.007,2.997C26.002,6.998,25.244,6.998,24.162,6.998"/>
					<path fill="#D9D9D9" d="M24.224,6.998c0.534-0.636,0.022-1.417-0.663-1.332c-0.33,0.042-0.501,0.231-0.565,0.303
						c0-1.149,0-1.968,0-1.968c1.656,0,3.007,1.341,3.007,2.997C26.002,6.998,25.272,6.998,24.224,6.998"/>
					<path fill="#D5D5D5" d="M24.292,6.998c0.569-0.696,0.036-1.506-0.699-1.406c-0.337,0.046-0.506,0.22-0.597,0.313
						c0-1.115,0-1.905,0-1.905c1.656,0,3.007,1.341,3.007,2.997C26.002,6.998,25.303,6.998,24.292,6.998"/>
					<path fill="#D2D2D2" d="M24.371,6.998C25,6.234,24.439,5.387,23.631,5.5c-0.242,0.034-0.456,0.146-0.636,0.335
						c0-1.079,0-1.835,0-1.835c1.656,0,3.007,1.341,3.007,2.997C26.002,6.998,25.339,6.998,24.371,6.998"/>
					<path fill="#CECECE" d="M24.464,6.998c0.679-0.814,0.053-1.656-0.688-1.616c-0.198,0.011-0.494,0.084-0.78,0.373
						c0-1.035,0-1.754,0-1.754c1.656,0,3.007,1.341,3.007,2.997C26.002,6.998,25.382,6.998,24.464,6.998"/>
					<path fill="#CBCBCB" d="M24.577,6.998c0.714-0.841-0.009-1.79-0.784-1.732c-0.433,0.032-0.707,0.306-0.797,0.396
						c0-0.985,0-1.661,0-1.661c1.656,0,3.007,1.341,3.007,2.997C26.002,6.998,25.432,6.998,24.577,6.998"/>
					<path fill="#C7C7C7" d="M24.708,6.998c0.731-0.898-0.094-1.91-0.929-1.848c-0.413,0.031-0.691,0.309-0.783,0.399
						c0-0.923,0-1.549,0-1.549c1.656,0,3.007,1.341,3.007,2.997C26.002,6.998,25.49,6.998,24.708,6.998"/>
					<path fill="#C4C4C4" d="M24.844,6.998c0.738-1.018-0.227-2.068-1.132-1.952c-0.256,0.033-0.497,0.159-0.717,0.375
						c0-0.853,0-1.421,0-1.421c1.656,0,3.007,1.341,3.007,2.997C26.002,6.998,25.549,6.998,24.844,6.998"/>
					<path fill="#C0C0C0" d="M24.976,6.998c0.732-1.157-0.432-2.258-1.391-2.036c-0.313,0.073-0.5,0.241-0.59,0.322
						c0-0.776,0-1.283,0-1.283c1.656,0,3.007,1.341,3.007,2.997C26.002,6.998,25.605,6.998,24.976,6.998"/>
					<path fill="#BCBCBC" d="M25.1,6.998c0.667-1.134-0.509-2.417-1.584-2.123c-0.249,0.068-0.389,0.168-0.521,0.273
						c0-0.699,0-1.147,0-1.147c1.656,0,3.007,1.341,3.007,2.997C26.002,6.998,25.657,6.998,25.1,6.998"/>
					<path fill="#B9B9B9" d="M25.215,6.998c0.62-1.23-0.642-2.519-1.765-2.207c-0.208,0.058-0.334,0.144-0.455,0.227
						c0-0.624,0-1.018,0-1.018c1.656,0,3.007,1.341,3.007,2.997C26.002,6.998,25.705,6.998,25.215,6.998"/>
					<path fill="#B5B5B5" d="M25.322,6.998c0.604-1.408-0.879-2.709-2.074-2.236c-0.075,0.029-0.159,0.075-0.252,0.135
						c0-0.554,0-0.896,0-0.896c1.656,0,3.007,1.341,3.007,2.997C26.002,6.998,25.748,6.998,25.322,6.998"/>
					<path fill="#B2B2B2" d="M25.421,6.998c0.562-1.375-0.91-2.884-2.248-2.306c-0.062,0.026-0.12,0.058-0.178,0.091
						c0-0.486,0-0.782,0-0.782c1.656,0,3.007,1.341,3.007,2.997C26.002,6.998,25.787,6.998,25.421,6.998"/>
					<path fill="#AEAEAE" d="M25.514,6.998c0.536-1.551-1.19-2.942-2.421-2.37c-0.029,0.014-0.068,0.034-0.098,0.048
						c0-0.422,0-0.675,0-0.675c1.656,0,3.007,1.341,3.007,2.997C26.002,6.998,25.823,6.998,25.514,6.998"/>
					<path fill="#AAAAAA" d="M25.6,6.998c-0.024-0.032,0.026-0.09,0.037-0.129c0.144-0.499,0.012-1.303-0.618-1.89
						c-0.604-0.562-1.36-0.713-2.023-0.405c0-0.361,0-0.574,0-0.574c1.656,0,3.007,1.341,3.007,2.997
						C26.002,6.998,25.856,6.998,25.6,6.998"/>
					<path fill="#A7A7A7" d="M25.679,6.998c-0.003-0.005,0.004-0.014,0.006-0.02c0.231-0.842-0.197-1.62-0.634-2.03
						c-0.29-0.272-1.071-0.863-2.056-0.468c0-0.303,0-0.479,0-0.479c1.656,0,3.007,1.341,3.007,2.997
						C26.002,6.998,25.886,6.998,25.679,6.998"/>
					<path fill="#A3A3A3" d="M25.752,6.998c-0.012-0.015,0.01-0.042,0.014-0.06c0.152-0.672-0.124-1.482-0.688-2.016
						c-0.36-0.341-1.11-0.863-2.082-0.531c0-0.248,0-0.39,0-0.39c1.656,0,3.007,1.341,3.007,2.997
						C26.002,6.998,25.914,6.998,25.752,6.998"/>
					<path fill="#A0A0A0" d="M25.818,6.998c-0.019-0.022,0.013-0.067,0.018-0.096c0.119-0.663-0.178-1.467-0.737-2.001
						c-0.36-0.343-1.112-0.876-2.103-0.593c0-0.197,0-0.307,0-0.307c1.656,0,3.007,1.341,3.007,2.997
						C26.002,6.998,25.937,6.998,25.818,6.998"/>
					<path fill="#E2E2E2" d="M23.509,6.986c-0.459-0.044-0.521-0.581-0.265-0.781C23.573,5.949,24,6.234,23.978,6.589
						C23.961,6.852,23.722,7.007,23.509,6.986"/>
					<path fill="#E2E2E2" d="M23.508,6.961c-0.387-0.028-0.507-0.503-0.266-0.72c0.276-0.249,0.737-0.013,0.704,0.361
						C23.927,6.824,23.739,6.979,23.508,6.961"/>
					<path fill="#9C9C9C" d="M25.875,6.998c-0.024-0.028,0.012-0.087,0.018-0.125c0.073-0.545-0.14-1.371-0.781-1.987
						c-0.439-0.422-1.163-0.879-2.116-0.655c0-0.149,0-0.231,0-0.231c1.656,0,3.007,1.341,3.007,2.997
						C26.002,6.998,25.958,6.998,25.875,6.998"/>
					<path fill="#E3E3E3" d="M23.505,6.938c-0.348-0.026-0.497-0.46-0.235-0.684c0.244-0.208,0.684-0.02,0.646,0.361
						C23.896,6.812,23.716,6.954,23.505,6.938"/>
					<path fill="#E3E3E3" d="M23.583,6.911c-0.411,0.019-0.49-0.378-0.353-0.573c0.181-0.257,0.609-0.136,0.654,0.186
						C23.915,6.732,23.747,6.903,23.583,6.911"/>
					<path fill="#E4E4E4" d="M23.557,6.887c-0.337,0.014-0.446-0.345-0.3-0.538c0.176-0.231,0.572-0.104,0.598,0.191
						C23.874,6.748,23.717,6.88,23.557,6.887"/>
					<path fill="#999999" d="M25.925,6.998c-0.029-0.031,0.009-0.099,0.013-0.142c0.052-0.54-0.183-1.361-0.818-1.977
						c-0.637-0.616-1.352-0.857-2.124-0.716c0-0.105,0-0.163,0-0.163c1.656,0,3.007,1.341,3.007,2.997
						C26.002,6.998,25.976,6.998,25.925,6.998"/>
					<path fill="#E4E4E4" d="M23.549,6.86c-0.306,0.011-0.402-0.33-0.263-0.499c0.155-0.188,0.519-0.098,0.538,0.195
						C23.83,6.632,23.79,6.851,23.549,6.86"/>
					<path fill="#E4E4E4" d="M23.549,6.832c-0.288,0.006-0.369-0.305-0.233-0.457c0.148-0.166,0.463-0.073,0.478,0.198
						C23.797,6.645,23.73,6.827,23.549,6.832"/>
					<path fill="#E0E0E0" d="M23.002,6.998c0.005,0.001,0.01,0.001,0.015,0l-0.004,0.001C23.009,7,23.006,7.001,23.002,7.003
						C23.001,7.004,22.997,6.999,22.996,7c0-0.136,0-0.271,0-0.402c0.005,0.02,0.013,0.045,0.018,0.065
						c0.016,0.071,0.044,0.202,0.252,0.334C23.179,6.998,23.091,6.998,23.002,6.998"/>
					<path fill="#E0E0E0" d="M23.002,6.998c0.005,0.001,0.01,0.001,0.015,0l-0.004,0.001C23.009,7,23.006,7.001,23.002,7.003
						C23.001,7.004,22.997,6.999,22.996,7c0-0.101,0-0.201,0-0.299c0.004,0.009,0.01,0.021,0.014,0.03
						c0.059,0.153,0.117,0.196,0.118,0.196c0.014,0.005,0.029-0.005,0.042,0.005c0.023,0.017,0.028,0.05,0.054,0.065
						C23.15,6.998,23.077,6.998,23.002,6.998"/>
					<path fill="#E5E5E5" d="M23.551,6.801c-0.056,0-0.171-0.001-0.24-0.14c-0.066-0.133-0.006-0.226,0.036-0.269
						c0.156-0.16,0.395-0.012,0.408,0.153C23.768,6.705,23.645,6.802,23.551,6.801"/>
					<path fill="#DFDFDF" d="M23.002,6.998c0.005,0.001,0.01,0.001,0.015,0l-0.004,0.001C23.009,7,23.006,7.001,23.002,7.003
						C23.001,7.004,22.997,6.999,22.996,7c0-0.08,0-0.158,0-0.236c0.003,0.007,0.008,0.016,0.011,0.023
						c0.034,0.084,0.1,0.152,0.101,0.152c0.018,0.005,0.034-0.013,0.052-0.003c0.001,0,0.036,0.052,0.036,0.052
						c-0.001,0.004-0.008,0.006-0.011,0.009C23.125,6.998,23.064,6.998,23.002,6.998"/>
					<path fill="#DEDEDE" d="M23.002,6.998c0.005,0.001,0.01,0.001,0.015,0l-0.004,0.001C23.009,7,23.006,7.001,23.002,7.003
						C23.001,7.004,22.997,6.999,22.996,7c0-0.061,0-0.121,0-0.18c0.003,0.005,0.006,0.012,0.009,0.018
						c0.038,0.073,0.081,0.115,0.081,0.115c0.022,0.005,0.039-0.025,0.063-0.011c0.001,0,0.033,0.047,0.033,0.048
						c-0.004,0.01-0.023,0.006-0.033,0.008C23.1,6.998,23.051,6.998,23.002,6.998"/>
					<path fill="#E5E5E5" d="M23.558,6.768c-0.305-0.017-0.26-0.279-0.177-0.355c0.112-0.103,0.357-0.016,0.333,0.204
						C23.706,6.688,23.611,6.771,23.558,6.768"/>
					<path fill="#959595" d="M24.553,4.434c-0.551-0.313-1.001-0.409-1.558-0.331c0-0.067,0-0.103,0-0.103
						c0.58,0,1.123,0.165,1.584,0.45C24.572,4.446,24.561,4.439,24.553,4.434"/>
					<path fill="#DEDEDE" d="M23.002,6.998c0.005,0.001,0.01,0.001,0.015,0l-0.004,0.001C23.009,7,23.006,7.001,23.002,7.003
						C23.001,7.004,22.997,6.999,22.996,7c0-0.044,0-0.087,0-0.131C22.998,6.875,23,6.882,23.001,6.887l0.063,0.079
						c0.028,0.009,0.043-0.036,0.073-0.02c0.019,0.009,0.021,0.029,0.03,0.044c-0.017,0.002-0.039,0.005-0.057,0.007
						C23.075,6.998,23.039,6.998,23.002,6.998"/>
					<path fill="#DDDDDD" d="M23.002,6.998c0.005,0.001,0.01,0.001,0.015,0l-0.004,0.001C23.009,7,23.006,7.001,23.002,7.003
						C23.001,7.004,22.997,6.999,22.996,7c0-0.019,0-0.037,0-0.056c0.001,0.001,0.002,0.001,0.003,0.002
						c0.021-0.015,0.026,0.024,0.043,0.032c0.009,0.003,0.02-0.009,0.028-0.013c0.018-0.008,0.033-0.028,0.057-0.017
						c0.018,0.008,0.019,0.027,0.028,0.041c-0.016,0.002-0.037,0.003-0.053,0.007C23.069,6.998,23.036,6.998,23.002,6.998"/>
					<path fill="#E5E5E5" d="M23.541,6.726c-0.123,0.018-0.246-0.192-0.12-0.286c0.085-0.063,0.256,0.008,0.254,0.132
						C23.673,6.578,23.669,6.708,23.541,6.726"/>
					<path fill="#919191" d="M23.888,4.136c-0.373-0.105-0.61-0.109-0.893-0.081c0-0.036,0-0.054,0-0.054
						c0.361,0,0.708,0.064,1.029,0.181C23.984,4.167,23.929,4.148,23.888,4.136"/>
					<path fill="#959595" d="M25.963,6.998c-0.029-0.031,0.006-0.1,0.009-0.142c0.011-0.197-0.014-0.529-0.191-0.988
						c0.143,0.349,0.222,0.73,0.222,1.13C26.002,6.998,25.989,6.998,25.963,6.998"/>
					<path fill="#DCDCDC" d="M23.002,6.998c0.005,0.001,0.01,0.001,0.015,0l-0.004,0.001C23.009,7,23.006,7.001,23.002,7.003
						C23.001,7.004,22.998,7,22.996,7l0.001-0.005c0.001-0.005,0-0.013,0.007-0.015c0.002,0,0.019,0.006,0.017,0.012
						c0.031-0.014,0.052-0.057,0.096-0.038c0.017,0.007,0.017,0.024,0.025,0.037c-0.013,0.001-0.03,0.003-0.042,0.006
						C23.067,6.998,23.035,6.998,23.002,6.998"/>
					<path fill="#D9D9D9" d="M23.002,6.998c0.005,0.001,0.01,0.001,0.015,0l-0.004,0.001C23.009,7,23.006,7.001,23.002,7.003
						c0.034-0.016,0.055-0.064,0.103-0.043c0.015,0.006,0.015,0.022,0.022,0.033c-0.01,0.001-0.022,0.003-0.032,0.005
						C23.064,6.998,23.034,6.998,23.002,6.998"/>
					<path fill="#D5D5D5" d="M23.002,6.998c0.005,0.001,0.01,0.001,0.015,0l-0.004,0.001C23.009,7,23.006,7.001,23.002,7.003
						c0.028-0.013,0.069-0.058,0.095-0.04c0.01,0.008,0.011,0.021,0.017,0.03c-0.007,0.001-0.016,0.003-0.022,0.005
						C23.062,6.998,23.032,6.998,23.002,6.998"/>
					<path fill="#D2D2D2" d="M23.002,6.998c0.005,0.001,0.01,0.001,0.015,0l-0.004,0.001C23.009,7,23.006,7.001,23.002,7.003
						c0.026-0.013,0.067-0.056,0.091-0.038c0.002,0.001,0.012,0.027,0.011,0.028c-0.003,0.004-0.012,0.003-0.017,0.004
						C23.059,6.998,23.031,6.998,23.002,6.998"/>
					<path fill="#CECECE" d="M23.002,6.998c0.005,0.001,0.01,0.001,0.015,0l-0.004,0.001C23.009,7,23.006,7.001,23.003,7.003
						l0.078-0.038c0.002,0,0.006,0,0.008,0.001s0.012,0.026,0.011,0.027c-0.003,0.004-0.012,0.003-0.017,0.004
						C23.057,6.998,23.03,6.998,23.002,6.998"/>
					<path fill="#CBCBCB" d="M23.002,6.998c0.005,0.001,0.01,0.001,0.015,0l-0.004,0.001C23.009,7,23.006,7.001,23.003,7.003
						l0.075-0.036c0.002,0,0.005,0,0.007,0.001c0.002,0.001,0.011,0.024,0.01,0.025c-0.002,0.004-0.011,0.003-0.015,0.004
						C23.054,6.998,23.029,6.998,23.002,6.998"/>
					<path fill="#C7C7C7" d="M23.002,6.998c0.005,0.001,0.01,0.001,0.015,0l-0.004,0.001C23.01,7,23.006,7.001,23.003,7.003
						l0.071-0.035c0.002,0,0.005,0,0.007,0.001s0.01,0.023,0.01,0.024c-0.003,0.003-0.011,0.002-0.015,0.003
						C23.052,6.998,23.027,6.998,23.002,6.998"/>
					<path fill="#E6E6E6" d="M23.505,6.667c-0.021,0-0.089-0.074-0.085-0.1c0.004-0.029,0.025-0.07,0.052-0.084
						c0.068-0.037,0.174,0.086,0.124,0.147C23.578,6.652,23.535,6.667,23.505,6.667"/>
					<path fill="#C4C4C4" d="M23.002,6.998c0.005,0.001,0.01,0.001,0.015,0l-0.004,0.001C23.01,7,23.006,7.001,23.003,7.003
						l0.067-0.033c0.002,0,0.005,0,0.007,0.001c0.002,0.001,0.01,0.021,0.009,0.023c-0.002,0.004-0.01,0.002-0.014,0.003
						C23.049,6.998,23.026,6.998,23.002,6.998"/>
					<path fill="#C0C0C0" d="M23.002,6.998c0.005,0.001,0.01,0.001,0.015,0l-0.004,0.001C23.01,7,23.006,7.001,23.003,7.003
						l0.064-0.031c0.001,0,0.004,0,0.006,0.001s0.009,0.02,0.009,0.021c-0.003,0.003-0.01,0.002-0.014,0.003
						C23.047,6.998,23.025,6.998,23.002,6.998"/>
					<path fill="#BCBCBC" d="M23.002,6.998c0.005,0.001,0.01,0.001,0.015,0l-0.004,0.001C23.01,7,23.006,7.001,23.003,7.003
						l0.061-0.029c0.002,0,0.004,0,0.006,0.001c0.002,0.001,0.009,0.019,0.008,0.02c-0.002,0.003-0.009,0.002-0.012,0.003
						C23.044,6.998,23.024,6.998,23.002,6.998"/>
					<path fill="#B9B9B9" d="M23.002,6.998c0.005,0.001,0.01,0.001,0.015,0l-0.004,0.001C23.01,7,23.006,7.001,23.003,7.003
						l0.057-0.028c0.002,0,0.004,0,0.006,0.001c0.001,0.001,0.008,0.018,0.008,0.019c-0.002,0.003-0.009,0.001-0.012,0.002
						C23.042,6.998,23.022,6.998,23.002,6.998"/>
					<path fill="#8E8E8E" d="M23.453,4.036c-0.141-0.018-0.255-0.029-0.457-0.017c0-0.012,0-0.019,0-0.019
						c0.192,0,0.38,0.018,0.563,0.053C23.526,4.048,23.484,4.04,23.453,4.036"/>
					<path fill="#B5B5B5" d="M23.002,6.998c0.005,0.001,0.01,0.001,0.015,0l-0.004,0.001C23.01,7,23.006,7.001,23.003,7.003
						l0.054-0.026c0.001,0,0.003,0,0.005,0.001s0.008,0.016,0.007,0.017c-0.002,0.003-0.008,0.001-0.011,0.002
						C23.04,6.998,23.021,6.998,23.002,6.998"/>
					<path fill="#B2B2B2" d="M23.002,6.998c0.005,0.001,0.01,0.001,0.015,0l-0.004,0.001C23.01,7,23.006,7.001,23.003,7.003
						l0.05-0.024c0.001,0,0.004,0,0.005,0c0.006,0.004,0.011,0.009,0.007,0.016c-0.002,0.002-0.008,0.001-0.011,0.002
						C23.037,6.998,23.02,6.998,23.002,6.998"/>
					<path fill="#AEAEAE" d="M23.002,6.998c0.005,0.001,0.01,0.001,0.015,0l-0.004,0.001C23.01,7,23.006,7.001,23.003,7.002
						l0.046-0.022c0.002,0,0.004,0,0.005,0c0.005,0.004,0.01,0.008,0.006,0.015c-0.002,0.002-0.007,0.001-0.01,0.002
						C23.035,6.998,23.019,6.998,23.002,6.998"/>
					<path fill="#AAAAAA" d="M23.002,6.998c0.005,0.001,0.01,0.001,0.015,0l-0.004,0.001C23.01,7,23.007,7.001,23.003,7.002
						l0.043-0.02c0.001,0,0.003,0,0.004,0c0.004,0.003,0.009,0.007,0.006,0.013c-0.002,0.002-0.007,0.001-0.009,0.002
						C23.032,6.998,23.017,6.998,23.002,6.998"/>
					<path fill="#919191" d="M25.991,6.998c-0.025-0.025,0.002-0.083,0.003-0.119c0.003-0.162-0.029-0.355-0.041-0.428
						c0.032,0.177,0.05,0.36,0.05,0.547C26.002,6.998,25.999,6.998,25.991,6.998"/>
					<path fill="#A7A7A7" d="M23.002,6.998c0.005,0.001,0.01,0.001,0.015,0l-0.004,0.001C23.01,7,23.007,7.001,23.003,7.002
						l0.039-0.019c0.001,0,0.003,0,0.004,0c0.004,0.003,0.008,0.007,0.005,0.012c-0.001,0.002-0.006,0.001-0.008,0.001
						C23.03,6.998,23.016,6.998,23.002,6.998"/>
					<path fill="#A3A3A3" d="M23.002,6.998c0.005,0.001,0.01,0.001,0.015,0l-0.004,0.001C23.01,7,23.007,7.001,23.003,7.002
						l0.035-0.017c0.001,0,0.003,0,0.004,0c0.004,0.002,0.007,0.005,0.005,0.01c-0.002,0.001-0.006,0-0.008,0.001
						C23.027,6.998,23.015,6.998,23.002,6.998"/>
					<path fill="#A0A0A0" d="M23.002,6.998c0.005,0.001,0.01,0.001,0.015,0l-0.004,0.001C23.01,7,23.007,7.001,23.004,7.002
						l0.031-0.015c0.001,0,0.002,0,0.003,0c0.003,0.002,0.007,0.005,0.004,0.009c-0.001,0.001-0.005,0-0.007,0.001
						C23.025,6.998,23.013,6.998,23.002,6.998"/>
					<path fill="#9C9C9C" d="M23.002,6.998c0.005,0.001,0.01,0.001,0.015,0l-0.004,0.001C23.01,7,23.007,7.001,23.004,7.002
						l0.027-0.013c0.001,0,0.002,0,0.003,0c0.002,0.001,0.006,0.004,0.004,0.007c-0.002,0.001-0.005,0.001-0.007,0.001
						C23.022,6.998,23.012,6.998,23.002,6.998"/>
					<path fill="#999999" d="M23.002,6.998c0.005,0.001,0.01,0.001,0.015,0l-0.004,0.001C23.01,7,23.007,7.001,23.004,7.002
						l0.023-0.012c0.001,0,0.002,0,0.003,0c0.002,0.001,0.005,0.003,0.003,0.006c-0.001,0.001-0.004,0-0.005,0
						C23.02,6.998,23.011,6.998,23.002,6.998"/>
					<path fill="#959595" d="M23.002,6.998c0.005,0.001,0.01,0.001,0.015,0l-0.004,0.001C23.01,7,23.007,7.001,23.004,7.002
						l0.021-0.01c0,0,0.001,0,0.002,0c0.002,0.001,0.004,0.002,0.002,0.004c0,0.001-0.003,0-0.004,0
						C23.017,6.998,23.01,6.998,23.002,6.998"/>
					<path fill="#919191" d="M23.002,6.998c0.005,0.001,0.01,0.001,0.015,0l-0.004,0.001C23.01,7,23.007,7.001,23.004,7.002
						l0.017-0.008c0.002,0,0.006,0.001,0.004,0.003c-0.001,0.001-0.003,0-0.004,0C23.015,6.998,23.008,6.998,23.002,6.998"/>
					<polyline fill="#8E8E8E" points="23.002,6.998 23.017,6.998 23.013,6.999 23.004,7.002 23.017,6.996 23.02,6.998 23.017,6.998 
						23.002,6.998 					"/>
					<g>
						<polyline fill="#8A8A8A" points="23.009,7 23.004,7.002 23.014,6.998 23.016,6.999 23.009,7 						"/>
						<polyline fill="#8A8A8A" points="23.002,6.998 23.016,6.999 23.016,6.999 23.016,6.998 23.013,6.998 23.002,6.998 						"/>
					</g>
					<g>
						<polyline fill="#878787" points="23.009,7 23.004,7.002 23.01,7 23.011,7 23.011,7 23.009,7 						"/>
						<polyline fill="#878787" points="23.002,6.998 23.011,6.999 23.011,6.999 23.011,6.998 23.01,6.998 23.002,6.998 						"/>
					</g>
					<g>
						<polyline fill="#838383" points="23.004,7.002 23.007,7.001 23.004,7.002 						"/>
						<polyline fill="#838383" points="23.002,6.998 23.007,6.999 23.007,6.999 23.006,6.998 23.002,6.998 						"/>
					</g>
					<path fill="#8A8A8A" d="M22.996,4.001C22.996,4,22.996,4,22.996,4.001c0.036-0.001,0.072,0,0.107,0.001
						C23.071,4.002,23.018,4.024,22.996,4.001"/>
					<path fill="#8E8E8E" d="M26.002,6.998c-0.014-0.013-0.001-0.044-0.001-0.063C26.002,6.956,26.002,6.977,26.002,6.998
						L26.002,6.998"/>
				</g>
			</g>
			<g enable-background="new    ">
				<defs>
					<path id="SVGID_23_" enable-background="new    " d="M6.997,23c-1.657,0-3,0-3,0V6.998c0,0,1.343,0,3,0V23z"/>
				</defs>
				<clipPath id="SVGID_24_">
					<use xlink:href="#SVGID_23_"  overflow="visible"/>
				</clipPath>
				<g clip-path="url(#SVGID_24_)" enable-background="new    ">
					<polyline fill="#DCDCDC" points="6.997,6.998 6.997,23 6.994,23 6.994,6.998 6.997,6.998 					"/>
					<path fill="#D9D9D9" d="M6.994,6.998V23c-0.014,0-0.027,0-0.041,0V6.998C6.967,6.998,6.98,6.998,6.994,6.998"/>
					<path fill="#D5D5D5" d="M6.953,6.998V23c-0.013,0-0.027,0-0.04,0V6.998C6.926,6.998,6.94,6.998,6.953,6.998"/>
					<path fill="#D2D2D2" d="M6.913,6.998V23c-0.013,0-0.026,0-0.04,0V6.998C6.887,6.998,6.9,6.998,6.913,6.998"/>
					<path fill="#CECECE" d="M6.873,6.998V23c-0.013,0-0.026,0-0.04,0V6.998C6.847,6.998,6.86,6.998,6.873,6.998"/>
					<path fill="#CBCBCB" d="M6.833,6.998V23c-0.013,0-0.026,0-0.04,0V6.998C6.807,6.998,6.82,6.998,6.833,6.998"/>
					<path fill="#C7C7C7" d="M6.794,6.998V23c-0.013,0-0.026,0-0.04,0V6.998C6.768,6.998,6.781,6.998,6.794,6.998"/>
					<path fill="#C4C4C4" d="M6.754,6.998V23c-0.019,0-0.038,0-0.057,0V6.998C6.717,6.998,6.735,6.998,6.754,6.998"/>
					<path fill="#C0C0C0" d="M6.698,6.998V23c-0.019,0-0.038,0-0.057,0V6.998C6.66,6.998,6.679,6.998,6.698,6.998"/>
					<path fill="#BCBCBC" d="M6.641,6.998V23c-0.019,0-0.038,0-0.057,0V6.998C6.603,6.998,6.622,6.998,6.641,6.998"/>
					<path fill="#B9B9B9" d="M6.583,6.998V23c-0.019,0-0.038,0-0.057,0V6.998C6.545,6.998,6.564,6.998,6.583,6.998"/>
					<path fill="#B5B5B5" d="M6.527,6.998V23c-0.025,0-0.05,0-0.074,0V6.998C6.477,6.998,6.502,6.998,6.527,6.998"/>
					<path fill="#B2B2B2" d="M6.453,6.998V23c-0.027,0-0.054,0-0.081,0V6.998C6.398,6.998,6.425,6.998,6.453,6.998"/>
					<path fill="#AEAEAE" d="M6.372,6.998V23c-0.027,0-0.054,0-0.08,0V6.998C6.318,6.998,6.345,6.998,6.372,6.998"/>
					<path fill="#AAAAAA" d="M6.292,6.998V23c-0.031,0-0.062,0-0.093,0V6.998C6.23,6.998,6.261,6.998,6.292,6.998"/>
					<path fill="#A7A7A7" d="M6.199,6.998V23c-0.032,0-0.063,0-0.095,0V6.998C6.136,6.998,6.167,6.998,6.199,6.998"/>
					<path fill="#A3A3A3" d="M6.104,6.998V23c-0.033,0-0.066,0-0.099,0V6.998C6.039,6.998,6.071,6.998,6.104,6.998"/>
					<path fill="#A0A0A0" d="M6.006,6.998V23c-0.035,0-0.069,0-0.104,0V6.998C5.937,6.998,5.971,6.998,6.006,6.998"/>
					<path fill="#9C9C9C" d="M5.902,6.998V23c-0.036,0-0.071,0-0.106,0V6.998C5.831,6.998,5.866,6.998,5.902,6.998"/>
					<path fill="#999999" d="M5.796,6.998V23c-0.038,0-0.076,0-0.114,0V6.998C5.72,6.998,5.758,6.998,5.796,6.998"/>
					<path fill="#959595" d="M5.682,6.998V23c-0.04,0-0.08,0-0.119,0V6.998C5.602,6.998,5.642,6.998,5.682,6.998"/>
					<path fill="#919191" d="M5.563,6.998V23c-0.043,0-0.085,0-0.127,0V6.998C5.478,6.998,5.52,6.998,5.563,6.998"/>
					<path fill="#8E8E8E" d="M5.436,6.998V23c-0.05,0-0.099,0-0.146,0V6.998C5.337,6.998,5.386,6.998,5.436,6.998"/>
					<path fill="#8A8A8A" d="M5.289,6.998V23c-0.057,0-0.112,0-0.167,0V6.998C5.177,6.998,5.232,6.998,5.289,6.998"/>
					<path fill="#878787" d="M5.123,6.998V23c-0.072,0-0.142,0-0.208,0V6.998C4.981,6.998,5.05,6.998,5.123,6.998"/>
					<path fill="#838383" d="M4.915,6.998V23c-0.565,0-0.917,0-0.917,0V6.998C3.997,6.998,4.349,6.998,4.915,6.998"/>
				</g>
			</g>
			<g>
				<path fill="#C1C1C1" d="M22.996,7c0.002-0.002,0.011,0.009,0.007-0.003c0,5.334,0,10.668,0,16.002
					c0.004-0.012-0.005-0.001-0.007-0.003c-5.331,0-10.662,0-15.993,0C7.001,22.999,6.994,22.989,6.997,23
					c0-5.334,0-10.668,0-16.002C6.994,7.009,7.002,6.998,7.003,7C12.334,7,17.665,7,22.996,7z"/>
			</g>
		</g>
	</g>
</g>
<polygon fill="#939598" points="19.07,20.443 9.643,15 19.07,9.558 "/>
</svg>
