<?xml version="1.0" encoding="utf-8"?>
<!-- Generator: Adobe Illustrator 15.0.2, SVG Export Plug-In . SVG Version: 6.00 Build 0)  -->
<!DOCTYPE svg PUBLIC "-//W3C//DTD SVG 1.1//EN" "http://www.w3.org/Graphics/SVG/1.1/DTD/svg11.dtd">
<svg version="1.1" id="Layer_1" xmlns="http://www.w3.org/2000/svg" xmlns:xlink="http://www.w3.org/1999/xlink" x="0px" y="0px"
	 width="59.036px" height="208.329px" viewBox="0 0 59.036 208.329" enable-background="new 0 0 59.036 208.329"
	 xml:space="preserve">
<radialGradient id="SVGID_1_" cx="-93.5508" cy="225.4165" r="20.7944" gradientTransform="matrix(1 0 0 -1 116 287.3291)" gradientUnits="userSpaceOnUse">
	<stop  offset="0.0056" style="stop-color:#C5C6C8"/>
	<stop  offset="0.2978" style="stop-color:#BDBEC0"/>
	<stop  offset="0.6573" style="stop-color:#A8AAAD"/>
	<stop  offset="0.9969" style="stop-color:#9B9DA0"/>
	<stop  offset="1" style="stop-color:#9B9DA0"/>
</radialGradient>
<path fill="url(#SVGID_1_)" stroke="#010101" stroke-miterlimit="10" d="M29.699,82.913c0,4.142-3.246,7.5-7.25,7.5l0,0
	c-4.004,0-7.25-3.358-7.25-7.5v-42c0-4.142,3.246-7.5,7.25-7.5l0,0c4.004,0,7.25,3.358,7.25,7.5V82.913z"/>
<radialGradient id="SVGID_2_" cx="-80.3003" cy="263.6792" r="20.7579" gradientTransform="matrix(1 0 0 -1 116 287.3291)" gradientUnits="userSpaceOnUse">
	<stop  offset="0.0056" style="stop-color:#C5C6C8"/>
	<stop  offset="0.2978" style="stop-color:#BDBEC0"/>
	<stop  offset="0.6573" style="stop-color:#A8AAAD"/>
	<stop  offset="0.9969" style="stop-color:#9B9DA0"/>
	<stop  offset="1" style="stop-color:#9B9DA0"/>
</radialGradient>
<path fill="url(#SVGID_2_)" stroke="#010101" stroke-miterlimit="10" d="M15.199,44.663v-16v-7c0,0,0-6.978,0-7
	c0-8.291,9.158-12.074,16.197-12.026c6.345,0.043,13.72-0.401,18.967,3.883c4.259,3.476,5.837,7.271,5.837,12.643h-2.5h-2.5h-4h-4
	h-3.5h-4h-3.5h-2.5v25.5H15.199z"/>
<linearGradient id="SVGID_3_" gradientUnits="userSpaceOnUse" x1="-61.3979" y1="166.1538" x2="-29.4897" y2="166.1538" gradientTransform="matrix(0.9251 0 0 -1 82.0154 287.3291)">
	<stop  offset="0" style="stop-color:#E11B22"/>
	<stop  offset="0.5697" style="stop-color:#D06B65"/>
	<stop  offset="0.6608" style="stop-color:#D75D58"/>
	<stop  offset="0.8764" style="stop-color:#E4403C"/>
	<stop  offset="1" style="stop-color:#E93532"/>
</linearGradient>
<path fill="url(#SVGID_3_)" stroke="#010101" stroke-width="0.9618" stroke-miterlimit="10" d="M52.667,200.265
	c-1.293,2.631-3.397,4.659-6.694,5.521c-4.751,1.243-12.505,1.577-16.454-1.479c-3.572-2.767-3.669-6.906-4.134-11.413
	c-0.435-4.223,0.078-8.421,0.394-12.633c0.69-9.2,2.438-18.303,3.194-27.508c0.634-7.721,1.305-15.438,1.846-23.164
	c0.181-2.58,0.37-5.174,0.423-7.76c0.406-20.494-0.216-40.988,0.188-61.479c0.044-2.227,0.131-4.458,0.131-6.687
	c0-4.971-2.748-18,1.852-18h12.025c2.596,0,8.695,2.152,8.682,6.663c-0.006,1.635-3.16,2.758-4.541,4.775
	c-1.559,2.275-1.365,5.414-1.365,6.562c0.449,23.135,0.85,46.271,1.328,69.404c0.275,13.351,0.535,26.726,1.903,40.019
	c0.908,8.822,3.274,17.765,3.292,26.651C54.743,193.331,54.269,197.006,52.667,200.265z"/>
<path fill="#9B9DA0" stroke="#010101" stroke-width="1.0027" stroke-miterlimit="10" d="M21.199,65.991
	c0,4.858-2.5,7.705-7.333,7.705l-0.654,0.042c-0.786,0-0.763,0.759-2.035,0.75c-3.864-0.028-7.478-4.428-7.478-8.497V52.084
	c0-3.941,2.579-7.277,6.132-8.395c1.058-0.333,1.265,0.599,2.618,0.599l0,0c4.833,0,8.75,2.938,8.75,7.796V65.991z"/>
<radialGradient id="SVGID_4_" cx="-84.1753" cy="228.2915" r="18.9788" gradientTransform="matrix(1 0 0 -1 116 287.3291)" gradientUnits="userSpaceOnUse">
	<stop  offset="0.0056" style="stop-color:#C5C6C8"/>
	<stop  offset="0.2978" style="stop-color:#BDBEC0"/>
	<stop  offset="0.6573" style="stop-color:#A8AAAD"/>
	<stop  offset="0.9969" style="stop-color:#9B9DA0"/>
	<stop  offset="1" style="stop-color:#9B9DA0"/>
</radialGradient>
<polyline fill="url(#SVGID_4_)" stroke="#010101" stroke-miterlimit="10" points="10.199,74.413 53.825,74.413 53.825,72.038 
	53.825,69.163 53.825,66.538 51.575,65.413 48.825,63.538 46.325,60.663 45.2,57.913 45.075,54.663 44.7,51.288 44.45,47.663 
	43.45,45.663 42.075,44.663 39.325,43.663 9.824,43.663 "/>
<radialGradient id="SVGID_5_" cx="-82.8101" cy="237.0083" r="3.9922" gradientTransform="matrix(1 0 0 -1 116 287.3291)" gradientUnits="userSpaceOnUse">
	<stop  offset="0" style="stop-color:#FFF3DC"/>
	<stop  offset="0.309" style="stop-color:#D7B18A"/>
	<stop  offset="0.6791" style="stop-color:#9C6338"/>
	<stop  offset="0.7809" style="stop-color:#8E5127"/>
	<stop  offset="1" style="stop-color:#541816"/>
</radialGradient>
<circle fill="url(#SVGID_5_)" stroke="#010101" stroke-miterlimit="10" cx="33.19" cy="50.321" r="3.992"/>
<path fill="#262626" d="M42.012,130.387c0,15.906,1.39,29.97,0.685,38.486c-0.446,5.4-2.842,10.289-3.43,10.289
	c-0.579,0-2.966-4.783-3.407-10.02c-0.719-8.49,0.662-22.682,0.662-38.758c0-14.854-1.449-27.241-0.822-35.865
	c0.471-6.466,2.918-11.192,3.567-11.192c0.657,0,3.11,4.826,3.584,11.442C43.467,103.401,42.012,115.676,42.012,130.387z"/>
<ellipse fill="#303030" cx="39.197" cy="192.788" rx="6.13" ry="6.625"/>
<ellipse fill="#FAFBFC" cx="39.661" cy="192.369" rx="4.758" ry="5.144"/>
</svg>
